<svg xmlns="http://www.w3.org/2000/svg" width="248.002" height="177.068" viewBox="0 0 248.002 177.068">
  <g id="Group_22" data-name="Group 22" transform="translate(-427 -4989.432)">
    <path id="car" d="M229.2,104,192,58.009c-2.568-5.777-17.678,0-24,0L80,41.5c-6.322,0-22.851-5.777-25.42,0L26.8,104H16a8,8,0,0,0,0,16h8v80a16,16,0,0,0,16,16H64a16,16,0,0,0,16-16V184l96-7.792L180.642,184c0,8.837-.954,16,7.882,16L216,206.817c8.837,0,13.2,2.019,13.2-6.817l2.8-80ZM69.2,53.86,176,74.928,200,94,44.31,104ZM64,200H40V184H64Zm128-8.435-3.475-15.357H216v19.1Zm24-32.086L40,168V120l167.1-8ZM56,144a8,8,0,0,1,8-8H80a8,8,0,0,1,0,16H64A8,8,0,0,1,56,144Zm112,0c0-4.418,8.224,0,12.642,0L192,136a8,8,0,0,1,0,16H176A8,8,0,0,1,168,144Z" transform="translate(419 4950.5)"/>
    <path id="Path_401" data-name="Path 401" d="M0,21A8,8,0,0,1-7.34,16.181,8,8,0,0,1-3.181,5.66l30-13A8,8,0,0,1,37.34-3.181,8,8,0,0,1,33.181,7.34l-30,13A7.975,7.975,0,0,1,0,21Z" transform="translate(637 5039)"/>
  </g>
</svg>
