<svg xmlns="http://www.w3.org/2000/svg" width="240.001" height="185.001" viewBox="0 0 240.001 185.001">
  <path id="gap" d="M3049.614,181.819a8,8,0,0,1,1.569-11.205l224-169a8,8,0,1,1,9.636,12.772l-224,169a8,8,0,0,1-11.2-1.568ZM3232,184a16,16,0,0,1-16-16V152h-96v16a16,16,0,0,1-16,16h-24a15.958,15.958,0,0,1-5.45-.952L3094.5,168H3104v-7.172L3136.91,136H3256V88h-55.471l21.208-16h29.953l-7.522-16.924,13.112-9.893L3269.2,72H3280a8,8,0,1,1,0,16h-8v80a16,16,0,0,1-16,16Zm0-16h24V152h-24ZM3064,150.92V88h-8a8,8,0,0,1,0-16h10.8L3094.58,9.5A16.015,16.015,0,0,1,3109.2,0h117.6a16.014,16.014,0,0,1,14.62,9.5l2.517,5.664-13.113,9.893L3226.8,16H3109.2l-24.89,56h84.295L3147.4,88H3080v48h3.777L3064,150.921h0ZM3216,120a8,8,0,1,1,0-16h16a8,8,0,0,1,0,16Zm-111.017,0-.983,0a8,8,0,1,1,0-16h16a7.962,7.962,0,0,1,4.423,1.333L3104.985,120Z" transform="translate(-3048)"/>
</svg>
