<svg xmlns="http://www.w3.org/2000/svg" width="248" height="354.479" viewBox="0 0 248 354.479">
  <path id="Union_7" data-name="Union 7" d="M3238.36,425H3225.64a16,16,0,0,1-15.071-10.621l-1.92-5.379h-57.3l-1.92,5.38A16,16,0,0,1,3134.36,425h-12.72a16,16,0,0,1-15.071-10.621L3094,379.22a87.686,87.686,0,0,1-21.44-48.38A16,16,0,0,0,3064,345a8,8,0,1,1-16,0,32,32,0,0,1,24.279-31A88.121,88.121,0,0,1,3160,233h104a8,8,0,0,1,0,16h-21.39a87.926,87.926,0,0,1,30.17,37c.43,1,.85,2,1.25,3A24,24,0,0,1,3296,313v32a24,24,0,0,1-24,24h-2.36l-16.21,45.38A16,16,0,0,1,3238.363,425Zm-24.071-32a8,8,0,0,1,7.53,5.31L3225.64,409h12.721l18.11-50.69A8,8,0,0,1,3264,353h8a8,8,0,0,0,8-8V313a8,8,0,0,0-8-8h-3.659a8,8,0,0,1-7.64-5.6A71.9,71.9,0,0,0,3192,249h-32a72,72,0,0,0-53.09,120.64,7.989,7.989,0,0,1,1.64,2.71L3121.64,409h12.72l3.821-10.689a8,8,0,0,1,7.529-5.31Zm1.71-76a12,12,0,1,1,12,12A12,12,0,0,1,3216,317Zm-56-36a8,8,0,1,1,0-16h40a8,8,0,1,1,0,16Zm12-64.433a28.268,28.268,0,0,1-4.929.433c-24.891,0-45.07-32.791-45.07-73.239s20.179-73.24,45.07-73.24a767.3,767.3,0,0,0,18.942,1.489,33.852,33.852,0,0,1,8.461,4.267,44.683,44.683,0,0,1,7.655,6.753,59.876,59.876,0,0,1,6.67,8.943,77.458,77.458,0,0,1,5.5,10.839,94.65,94.65,0,0,1,4.156,12.442,116.514,116.514,0,0,1,0,57.017,94.591,94.591,0,0,1-4.156,12.441,77.5,77.5,0,0,1-5.5,10.84,59.912,59.912,0,0,1-6.67,8.942,44.605,44.605,0,0,1-7.655,6.753,33.825,33.825,0,0,1-8.461,4.268A28.744,28.744,0,0,1,3176.93,217,28.45,28.45,0,0,1,3172,216.567Zm-38.732-72.806c0,36.52,17.815,61.971,33.8,61.971s33.8-25.451,33.8-61.971-17.815-61.972-33.8-61.972S3133.267,107.24,3133.267,143.761Z" transform="translate(-3048 -70.521)"/>
</svg>
