<svg xmlns="http://www.w3.org/2000/svg" width="248" height="354.479" viewBox="0 0 248 354.479">
  <path id="Path_400" data-name="Path 400" d="M3238.36,354.479H3225.64a16,16,0,0,1-15.071-10.622l-1.92-5.378h-57.3l-1.92,5.38a16,16,0,0,1-15.071,10.62h-12.72a16,16,0,0,1-15.071-10.622L3094,308.7a87.681,87.681,0,0,1-21.44-48.379,16,16,0,0,0-8.561,14.16,8,8,0,1,1-16,0,32,32,0,0,1,24.279-31,88.12,88.12,0,0,1,87.72-81h104a8,8,0,0,1,0,16h-21.39a87.926,87.926,0,0,1,30.17,37c.43,1,.85,2,1.25,3a24,24,0,0,1,21.97,24v32a24,24,0,0,1-24,24h-2.36l-16.21,45.38a16,16,0,0,1-15.067,10.62Zm-24.071-32a8,8,0,0,1,7.53,5.31l3.82,10.689h12.721l18.11-50.69a8,8,0,0,1,7.531-5.31h8a8,8,0,0,0,8-8v-32a8,8,0,0,0-8-8h-3.659a8,8,0,0,1-7.64-5.6,71.9,71.9,0,0,0-68.7-50.4h-32a72,72,0,0,0-53.09,120.64,7.989,7.989,0,0,1,1.64,2.71l13.091,36.65h12.72l3.821-10.689a8,8,0,0,1,7.529-5.31Zm1.71-76a12,12,0,1,1,12,12A12,12,0,0,1,3216,246.479Zm-56-36a8,8,0,1,1,0-16h40a8,8,0,1,1,0,16Zm52-64.433a28.392,28.392,0,0,1-4.929.433A29.864,29.864,0,0,1,3192,142.285a32.62,32.62,0,0,1-5.987,2.707A28.4,28.4,0,0,1,3172,146.047a28.4,28.4,0,0,1-4.929.433A29.861,29.861,0,0,1,3152,142.285a32.659,32.659,0,0,1-5.987,2.707,28.745,28.745,0,0,1-9.083,1.488,28.285,28.285,0,0,0-9.859,0c-24.892,0-45.07-32.791-45.07-73.239S3102.178,0,3127.071,0a767.282,767.282,0,0,0,18.942,1.489A32.67,32.67,0,0,1,3152,4.195,29.861,29.861,0,0,1,3167.071,0a28.265,28.265,0,0,0,9.841,0,28.8,28.8,0,0,1,9.1,1.486A32.647,32.647,0,0,1,3192,4.195,29.861,29.861,0,0,1,3207.071,0a28.265,28.265,0,0,0,9.841,0,28.793,28.793,0,0,1,9.1,1.486,33.854,33.854,0,0,1,8.462,4.267,44.7,44.7,0,0,1,7.655,6.753,59.844,59.844,0,0,1,6.671,8.943,77.445,77.445,0,0,1,5.5,10.839,94.526,94.526,0,0,1,4.155,12.442A113.249,113.249,0,0,1,3262,73.24a113.236,113.236,0,0,1-3.542,28.507,94.437,94.437,0,0,1-4.155,12.442,77.478,77.478,0,0,1-5.5,10.839,59.844,59.844,0,0,1-6.671,8.943,44.618,44.618,0,0,1-7.655,6.753,33.863,33.863,0,0,1-8.462,4.268A28.4,28.4,0,0,1,3212,146.047Zm-4.929-10.835c15.989,0,33.8-25.451,33.8-61.971s-17.815-61.972-33.8-61.972a16.635,16.635,0,0,0-5.266.888q.163.175.324.352a59.829,59.829,0,0,1,6.671,8.943,77.523,77.523,0,0,1,5.5,10.839,94.634,94.634,0,0,1,4.155,12.442A113.282,113.282,0,0,1,3222,73.24a113.27,113.27,0,0,1-3.542,28.507,94.545,94.545,0,0,1-4.155,12.442,77.556,77.556,0,0,1-5.5,10.839,59.828,59.828,0,0,1-6.671,8.943q-.161.177-.324.352A16.634,16.634,0,0,0,3207.071,135.212Zm-40,0c15.988,0,33.8-25.451,33.8-61.971s-17.815-61.972-33.8-61.972a16.633,16.633,0,0,0-5.266.888q.162.175.324.352a59.909,59.909,0,0,1,6.67,8.943,77.457,77.457,0,0,1,5.5,10.839,94.614,94.614,0,0,1,4.156,12.442A113.283,113.283,0,0,1,3182,73.24a113.271,113.271,0,0,1-3.542,28.507,94.525,94.525,0,0,1-4.156,12.442,77.358,77.358,0,0,1-5.5,10.839,59.909,59.909,0,0,1-6.67,8.943q-.161.177-.324.352A16.634,16.634,0,0,0,3167.071,135.212Zm-73.8-61.971c0,36.52,17.816,61.971,33.8,61.971s33.8-25.451,33.8-61.971-17.814-61.972-33.8-61.972S3093.268,36.719,3093.268,73.24Z" transform="translate(-3048)"/>
</svg>
