<svg xmlns="http://www.w3.org/2000/svg" viewBox="0 0 13.542 13">
  <path d="M5.958 11.375h1.625v1.083a.542.542 0 0 1-.542.542H6.5a.542.542 0 0 1-.542-.542ZM3.25 4.333h-.542V.542A.542.542 0 0 0 2.167 0H1.625a.542.542 0 0 0-.542.542v3.791H.542A.542.542 0 0 0 0 4.875V6.5a.542.542 0 0 0 .542.542H3.25a.542.542 0 0 0 .542-.542V4.875A.542.542 0 0 0 3.25 4.333ZM1.083 12.458a.542.542 0 0 0 .542.542h.542a.542.542 0 0 0 .542-.542V8.125H1.083ZM13 3.25h-.542V.542A.542.542 0 0 0 11.917 0h-.542a.542.542 0 0 0-.542.542V3.25H10.291a.542.542 0 0 0-.542.542V5.417a.542.542 0 0 0 .542.542H13a.542.542 0 0 0 .542-.542V3.792A.542.542 0 0 0 13 3.25Zm-2.167 9.208a.542.542 0 0 0 .542.542h.542a.542.542 0 0 0 .542-.542V7.042h-1.625ZM8.125 7.333h-.542V.542A.542.542 0 0 0 7.042 0H6.5a.542.542 0 0 0-.542.542v7.042H5.417a.542.542 0 0 0-.542.542v1.083a.542.542 0 0 0 .542.542h2.708a.542.542 0 0 0 .542-.542V7.875a.542.542 0 0 0-.542-.542Z" fill="black"/>
</svg>
