<svg xmlns="http://www.w3.org/2000/svg" width="13.542" height="13" viewBox="0 0 13.542 13">
  <path id="adjust" d="M8.958,15.375h1.625v1.083a.542.542,0,0,1-.542.542H9.5a.542.542,0,0,1-.542-.542ZM6.25,8.333H5.708V4.542A.542.542,0,0,0,5.167,4H4.625a.542.542,0,0,0-.542.542V8.333H3.542A.542.542,0,0,0,3,8.875V10.5a.542.542,0,0,0,.542.542H6.25a.542.542,0,0,0,.542-.542V8.875A.542.542,0,0,0,6.25,8.333ZM4.083,16.458A.542.542,0,0,0,4.625,17h.542a.542.542,0,0,0,.542-.542V12.125H4.083ZM16,7.25h-.542V4.542A.542.542,0,0,0,14.917,4h-.542a.542.542,0,0,0-.542.542V7.25h-.542a.542.542,0,0,0-.542.542V9.417a.542.542,0,0,0,.542.542H16a.542.542,0,0,0,.542-.542V7.792A.542.542,0,0,0,16,7.25Zm-2.167,9.208a.542.542,0,0,0,.542.542h.542a.542.542,0,0,0,.542-.542V11.042H13.833Zm-2.708-4.875h-.542V4.542A.542.542,0,0,0,10.042,4H9.5a.542.542,0,0,0-.542.542v7.042H8.417a.542.542,0,0,0-.542.542V13.75a.542.542,0,0,0,.542.542h2.708a.542.542,0,0,0,.542-.542V12.125A.542.542,0,0,0,11.125,11.583Z" transform="translate(-3 -4)" fill="#6fc7b6"/>
</svg>
