<svg width="26" height="26" viewBox="0 0 26 26" fill="none" xmlns="http://www.w3.org/2000/svg">
<g clip-path="url(#clip0_353_2865)">
<path fill-rule="evenodd" clip-rule="evenodd" d="M0 0H26V26H0V0Z" fill="#009584"/>
<path fill-rule="evenodd" clip-rule="evenodd" d="M21 17.3C21 15.4 21 13.6 21 11.7C21 7.3 17.4 3.7 13 3.7C8.6 3.7 5 7.3 5 11.7C5 13.6 5 15.4 5 17.3C5 17.7 4.6 18.1 4.2 18.1C3.8 18.1 3.4 17.7 3.4 17.3C3.4 15.4 3.4 13.6 3.4 11.7C3.4 6.4 7.7 2.2 12.9 2.2C18.2 2.2 22.4 6.5 22.4 11.7C22.4 13.6 22.4 15.4 22.4 17.3C22.4 17.7 22 18.1 21.6 18.1C21.2 18.1 20.8 17.7 20.8 17.3H21ZM20.4 12.5C20.4 14.1 20.4 15.7 20.4 17.3C20.4 17.7 20 18.1 19.6 18.1C19.1 18.1 18.5 18.1 18 18.1C17.6 18.1 17.2 17.7 17.2 17.3C17.2 15.7 17.2 14.1 17.2 12.5C17.2 12.1 17.6 11.7 18 11.7C18.5 11.7 19.1 11.7 19.6 11.7C20 11.7 20.4 12.1 20.4 12.5ZM15.6 23.7C15.5 23.7 15.3 23.6 15.3 23.5C15.3 23.4 15.4 23.2 15.5 23.2C19 22.5 22 20.2 23.6 17C23.7 16.9 23.8 16.8 23.9 16.9C24 17 24.1 17.1 24 17.2C22.3 20.5 19.2 22.9 15.6 23.7ZM16.8 21.8C16.9 22.2 16.6 22.7 16.2 22.7C15.7 22.8 15.2 22.9 14.6 23C14.2 23.1 13.7 22.8 13.7 22.4C13.6 22 13.9 21.5 14.3 21.5C14.8 21.4 15.3 21.3 15.9 21.2C16.3 21.1 16.8 21.4 16.8 21.8ZM23.8 13.3C24.2 13.3 24.6 13.7 24.6 14.1C24.6 14.6 24.6 15.2 24.6 15.7C24.6 16.1 24.2 16.5 23.8 16.5C23.4 16.5 23 16.1 23 15.7C23 15.2 23 14.6 23 14.1C23 13.7 23.4 13.3 23.8 13.3ZM2.3 13.3C1.9 13.3 1.5 13.7 1.5 14.1C1.5 14.6 1.5 15.2 1.5 15.7C1.5 16.1 1.9 16.5 2.3 16.5C2.7 16.5 3.1 16.1 3.1 15.7C3.1 15.2 3.1 14.6 3.1 14.1C3.1 13.7 2.7 13.3 2.3 13.3ZM6.5 18.1C7 18.1 7.6 18.1 8.1 18.1C8.5 18.1 8.9 17.7 8.9 17.3C8.9 15.7 8.9 14.1 8.9 12.5C8.9 12.1 8.5 11.7 8.1 11.7C7.6 11.7 7 11.7 6.5 11.7C6.1 11.7 5.7 12.1 5.7 12.5C5.7 14.1 5.7 15.7 5.7 17.3C5.7 17.7 6.1 18.1 6.5 18.1Z" fill="white"/>
</g>
<defs>
<clipPath id="clip0_353_2865">
<rect width="26" height="26" fill="white"/>
</clipPath>
</defs>
</svg>
