<?xml version="1.0" encoding="UTF-8"?>
<!DOCTYPE svg PUBLIC "-//W3C//DTD SVG 1.1//EN" "http://www.w3.org/Graphics/SVG/1.1/DTD/svg11.dtd">
<!-- Creator: CorelDRAW 2020 (64-Bit) -->
<svg xmlns="http://www.w3.org/2000/svg" xml:space="preserve" width="26px" height="26px" version="1.1" style="shape-rendering:geometricPrecision; text-rendering:geometricPrecision; image-rendering:optimizeQuality; fill-rule:evenodd; clip-rule:evenodd"
viewBox="0 0 260 260"
 xmlns:xlink="http://www.w3.org/1999/xlink"
 xmlns:xodm="http://www.corel.com/coreldraw/odm/2003">
 <defs>
  <style type="text/css">
   <![CDATA[
    .fil0 {fill:#CCCCCC}
    .fil1 {fill:white}
   ]]>
  </style>
 </defs>
 <g id="Layer_x0020_1">
  <metadata id="CorelCorpID_0Corel-Layer"/>
  <g id="_2886237343088">
   <polygon class="fil0" points="0,0 260,0 260,260 0,260 "/>
   <path class="fil1" d="M210 173c0,-19 0,-37 0,-56 0,-44 -36,-80 -80,-80 -44,0 -80,36 -80,80 0,19 0,37 0,56 0,4 -4,8 -8,8 -4,0 -8,-4 -8,-8 0,-19 0,-37 0,-56 0,-53 43,-95 95,-95 53,0 95,43 95,95 0,19 0,37 0,56 0,4 -4,8 -8,8 -4,0 -8,-4 -8,-8zm-6 -48c0,16 0,32 0,48 0,4 -4,8 -8,8 -5,0 -11,0 -16,0 -4,0 -8,-4 -8,-8 0,-16 0,-32 0,-48 0,-4 4,-8 8,-8 5,0 11,0 16,0 4,0 8,4 8,8zm-48 112c-1,0 -3,-1 -3,-2 0,-1 1,-3 2,-3 35,-7 65,-30 81,-62 1,-1 2,-2 3,-1 1,1 2,2 1,3 -17,33 -48,57 -84,65zm12 -19c1,4 -2,9 -6,9 -5,1 -10,2 -16,3 -4,1 -9,-2 -9,-6 -1,-4 2,-9 6,-9 5,-1 10,-2 16,-3 4,-1 9,2 9,6zm70 -85c4,0 8,4 8,8 0,5 0,11 0,16 0,4 -4,8 -8,8 -4,0 -8,-4 -8,-8 0,-5 0,-11 0,-16 0,-4 4,-8 8,-8zm-215 0c-4,0 -8,4 -8,8 0,5 0,11 0,16 0,4 4,8 8,8 4,0 8,-4 8,-8 0,-5 0,-11 0,-16 0,-4 -4,-8 -8,-8zm42 48c5,0 11,0 16,0 4,0 8,-4 8,-8 0,-16 0,-32 0,-48 0,-4 -4,-8 -8,-8 -5,0 -11,0 -16,0 -4,0 -8,4 -8,8 0,16 0,32 0,48 0,4 4,8 8,8z"/>
  </g>
 </g>
</svg>
