<svg xmlns="http://www.w3.org/2000/svg" viewBox="0 0 36 36"><path d="M22 30.9c-.6.6-1.5.6-2.1 0s-.6-1.5 0-2.1l1.2-1.2-2.3-2.3 2.1-2.1 3.3 3.3c.6.6.6 1.5 0 2.1l-2.3 2.3zm-6.9-17.4c-.4 0-.7.1-1 .4l-4.5 4.5c-.6.6-.6 1.5 0 2.1s1.5.6 2.1 0l3.5-3.5v5.3h5.7V17l3.5 3.5c.6.6 1.5.6 2.1 0s.6-1.5 0-2.1L22 13.9c-.3-.3-.6-.4-1-.4zM14 30.9c.6.6 1.5.6 2.1 0s.6-1.5 0-2.1l-1.2-1.2 2.3-2.3-2.1-2.1-3.3 3.3c-.6.6-.6 1.5 0 2.1l2.3 2.3zm4-26.3c-2.2 0-3.9 1.8-3.9 3.9 0 2.2 1.8 3.9 3.9 3.9 2.2 0 3.9-1.8 3.9-3.9 0-2.2-1.8-3.9-3.9-3.9"/></svg>