<svg width="26" height="26" viewBox="0 0 26 26" fill="none" xmlns="http://www.w3.org/2000/svg">
<path d="M5.3001 21.5C4.9001 21.5 4.6001 21.2 4.6001 20.8C4.6001 16.9 4.6001 12.9 4.6001 9.00002C4.6001 8.60002 4.9001 8.30002 5.3001 8.30002C10.4001 8.30002 15.6001 8.30002 20.7001 8.30002C21.1001 8.30002 21.4001 8.60002 21.4001 9.00002C21.4001 12.9 21.4001 16.9 21.4001 20.8C21.4001 21.2 21.1001 21.5 20.7001 21.5C15.6001 21.5 10.4001 21.5 5.3001 21.5ZM15.8001 9.10002V20.6H17.2001V9.10002H15.8001ZM10.0001 20.6V9.10002H8.8001V20.6H10.0001ZM15.2001 6.50002C15.2001 6.80002 15.4001 7.00002 15.7001 7.00002C16.0001 7.00002 16.2001 6.80002 16.2001 6.50002C16.2001 6.00002 16.2001 5.60002 16.2001 5.10002C16.2001 4.40002 15.7001 3.90002 15.0001 3.90002C13.6001 3.90002 12.2001 3.90002 10.8001 3.90002C10.1001 3.90002 9.6001 4.40002 9.6001 5.10002C9.6001 5.60002 9.6001 6.00002 9.6001 6.50002C9.6001 6.80002 9.8001 7.00002 10.1001 7.00002C10.4001 7.00002 10.6001 6.80002 10.6001 6.50002C10.6001 6.00002 10.6001 5.60002 10.6001 5.10002C10.6001 5.00002 10.7001 4.90002 10.8001 4.90002C12.2001 4.90002 13.6001 4.90002 15.0001 4.90002C15.1001 4.90002 15.2001 5.00002 15.2001 5.10002C15.2001 5.60002 15.2001 6.00002 15.2001 6.50002Z" fill="white"/>
</svg>
