<svg width="26" height="26" viewBox="0 0 26 26" fill="none" xmlns="http://www.w3.org/2000/svg">
<g clip-path="url(#clip0_353_2875)">
<path fill-rule="evenodd" clip-rule="evenodd" d="M0 0H26V26H0V0Z" fill="#236474"/>
<path d="M5.3001 21.5C4.9001 21.5 4.6001 21.2 4.6001 20.8C4.6001 16.9 4.6001 12.9 4.6001 8.99999C4.6001 8.59999 4.9001 8.29999 5.3001 8.29999C10.4001 8.29999 15.6001 8.29999 20.7001 8.29999C21.1001 8.29999 21.4001 8.59999 21.4001 8.99999C21.4001 12.9 21.4001 16.9 21.4001 20.8C21.4001 21.2 21.1001 21.5 20.7001 21.5C15.6001 21.5 10.4001 21.5 5.3001 21.5ZM15.8001 9.09999V20.6H17.2001V9.09999H15.8001ZM10.0001 20.6V9.09999H8.8001V20.6H10.0001ZM15.2001 6.49999C15.2001 6.79999 15.4001 6.99999 15.7001 6.99999C16.0001 6.99999 16.2001 6.79999 16.2001 6.49999C16.2001 5.99999 16.2001 5.59999 16.2001 5.09999C16.2001 4.39999 15.7001 3.89999 15.0001 3.89999C13.6001 3.89999 12.2001 3.89999 10.8001 3.89999C10.1001 3.89999 9.6001 4.39999 9.6001 5.09999C9.6001 5.59999 9.6001 5.99999 9.6001 6.49999C9.6001 6.79999 9.8001 6.99999 10.1001 6.99999C10.4001 6.99999 10.6001 6.79999 10.6001 6.49999C10.6001 5.99999 10.6001 5.59999 10.6001 5.09999C10.6001 4.99999 10.7001 4.89999 10.8001 4.89999C12.2001 4.89999 13.6001 4.89999 15.0001 4.89999C15.1001 4.89999 15.2001 4.99999 15.2001 5.09999C15.2001 5.59999 15.2001 5.99999 15.2001 6.49999Z" fill="white"/>
</g>
<defs>
<clipPath id="clip0_353_2875">
<rect width="26" height="26" fill="white"/>
</clipPath>
</defs>
</svg>
