<?xml version="1.0" encoding="UTF-8"?>
<!DOCTYPE svg PUBLIC "-//W3C//DTD SVG 1.1//EN" "http://www.w3.org/Graphics/SVG/1.1/DTD/svg11.dtd">
<!-- Creator: CorelDRAW 2020 (64-Bit) -->
<svg xmlns="http://www.w3.org/2000/svg" xml:space="preserve" width="26px" height="26px" version="1.1" style="shape-rendering:geometricPrecision; text-rendering:geometricPrecision; image-rendering:optimizeQuality; fill-rule:evenodd; clip-rule:evenodd"
viewBox="0 0 260 260"
 xmlns:xlink="http://www.w3.org/1999/xlink"
 xmlns:xodm="http://www.corel.com/coreldraw/odm/2003">
 <defs>
  <style type="text/css">
   <![CDATA[
    .fil0 {fill:#AB0534}
    .fil1 {fill:white;fill-rule:nonzero}
   ]]>
  </style>
 </defs>
 <g id="Layer_x0020_1">
  <metadata id="CorelCorpID_0Corel-Layer"/>
  <g id="_1676345321328">
   <polygon class="fil0" points="0,0 260,0 260,260 0,260 "/>
   <path class="fil1" d="M53 215c-4,0 -7,-3 -7,-7 0,-39 0,-79 0,-118 0,-4 3,-7 7,-7 51,0 103,0 154,0 4,0 7,3 7,7 0,39 0,79 0,118 0,4 -3,7 -7,7 -51,0 -103,0 -154,0zm105 -124l0 115 14 0 0 -115 -14 0zm-58 115l0 -115 -12 0 0 115 12 0zm52 -141c0,3 2,5 5,5 3,0 5,-2 5,-5 0,-5 0,-9 0,-14 0,-7 -5,-12 -12,-12 -14,0 -28,0 -42,0 -7,0 -12,5 -12,12 0,5 0,9 0,14 0,3 2,5 5,5 3,0 5,-2 5,-5 0,-5 0,-9 0,-14 0,-1 1,-2 2,-2 14,0 28,0 42,0 1,0 2,1 2,2 0,5 0,9 0,14z"/>
  </g>
 </g>
</svg>
