<svg xmlns="http://www.w3.org/2000/svg" xml:space="preserve" width="36" height="36" fill-rule="evenodd" clip-rule="evenodd" image-rendering="optimizeQuality" shape-rendering="geometricPrecision" text-rendering="geometricPrecision" viewBox="0 0 36 36"><path fill="none" d="M0 0h36v36H0z"/><path fill-rule="nonzero" d="M33.1 28.2v-4.5c0-.7-.6-1.3-1.3-1.3h-7.1c-.7 0-1.3.6-1.3 1.3v4.5c0 .7.6 1.3 1.3 1.3h7.1c.7 0 1.3-.6 1.3-1.3m-10.5 0v-4.5c0-.7-.5-1.3-1.2-1.3h-6.8c-.7 0-1.2.6-1.2 1.3v4.5c0 .7.5 1.3 1.2 1.3h6.8c.7 0 1.2-.6 1.2-1.3M11.3 13.6H4.2c-.7 0-1.3-.6-1.3-1.3V7.8c0-.7.6-1.3 1.3-1.3h7.1c.7 0 1.3.6 1.3 1.3v4.5c0 .7-.6 1.3-1.3 1.3m10.1 0h-6.7c-.7 0-1.3-.6-1.3-1.3V7.8c0-.7.6-1.3 1.3-1.3h6.7c.7 0 1.3.6 1.3 1.3v4.5c0 .7-.6 1.3-1.3 1.3m11.8-1.3V7.8c0-.7-.6-1.3-1.3-1.3h-7.1c-.7 0-1.3.6-1.3 1.3v4.5c0 .7.6 1.3 1.3 1.3h7.1c.7 0 1.3-.6 1.3-1.3m-5.5 7.9v-4.5c0-.7-.6-1.3-1.3-1.3h-6.7c-.7 0-1.3.6-1.3 1.3v4.5c0 .7.6 1.3 1.3 1.3h6.7c.7 0 1.3-.6 1.3-1.3m-11.3 1.3H9.3c-.7 0-1.3-.6-1.3-1.3v-4.5c0-.7.6-1.3 1.3-1.3h7.1c.7 0 1.3.6 1.3 1.3v4.5c0 .7-.6 1.3-1.3 1.3m-5 7.9H4.3c-.7 0-1.3-.6-1.3-1.3v-4.5c0-.7.6-1.3 1.3-1.3h7.1c.7 0 1.3.6 1.3 1.3v4.5c0 .7-.6 1.3-1.3 1.3"/></svg>