<svg xmlns="http://www.w3.org/2000/svg" xml:space="preserve" viewBox="0 0 36 36"><path d="M0 0h36v36H0z" style="fill:none"/><path d="M3.6 31V10.8c0-.7.5-1.2 1.2-1.2h26.4c.7 0 1.2.5 1.2 1.2V31c0 .7-.5 1.2-1.2 1.2H4.8c-.7 0-1.2-.5-1.2-1.2m10.2-12.2h-1.2c-.5 0-.8.4-.8.8V22c0 .5.4.8.8.8h1.2c.5 0 .8-.4.8-.8v-2.4c0-.5-.4-.8-.8-.8m-6.1 2.6c-.5 0-.8-.4-.8-.8 0-.5.4-.8.8-.8h3.4v1.7H7.7zm20.6 0c.5 0 .8-.4.8-.8 0-.5-.4-.8-.8-.8h-3.4v1.7h3.4zm-15.9-3.2h1.5c.4 0 .7-.3.7-.7s-.3-.7-.7-.7h-1.5c-.4 0-.7.3-.7.7s.3.7.7.7m11.1 0H22c-.4 0-.7-.3-.7-.7s.3-.7.7-.7h1.5c.4 0 .7.3.7.7s-.3.7-.7.7m-1.4.6h1.2c.5 0 .8.4.8.8V22c0 .5-.4.8-.8.8h-1.2c-.5 0-.8-.4-.8-.8v-2.4c0-.5.4-.8.8-.8m-6.8 2.6v-1.7h5.3v1.7zm-9.4 8.4h24V12h-24zm16-21.6c0 .5.4.8.8.8.5 0 .8-.4.8-.8V5.8c0-1.1-.9-2-2-2h-7.2c-1.1 0-2 .9-2 2v2.4c0 .5.4.8.8.8.5 0 .8-.4.8-.8V5.8c0-.3.1-.4.4-.4h7.2c.3 0 .4.1.4.4z" style="fill-rule:evenodd;clip-rule:evenodd"/></svg>