<svg xmlns="http://www.w3.org/2000/svg" xml:space="preserve" width="36" height="36" fill-rule="evenodd" clip-rule="evenodd" image-rendering="optimizeQuality" shape-rendering="geometricPrecision" text-rendering="geometricPrecision" viewBox="0 0 36 36"><path fill="none" d="M0 0h36v36H0z"/><path d="M8.6 32.6h18.8c.6 0 1-.5 1-1V4.4c0-.6-.5-1-1-1H8.6c-.6 0-1 .5-1 1v27.2c0 .6.5 1 1 1m1-23h4.2V5.4H9.6zm0 18.8h4.2v-4.2H9.6zm6.3 0h4.2v-4.2h-4.2zm6.3 2.1h4.2v-6.3h-4.2zm0-8.4h4.2v-4.2h-4.2zm-6.3 0h4.2v-4.2h-4.2zm-6.3 0h4.2v-4.2H9.6zm0-6.3h4.2v-4.2H9.6zm6.3 0h4.2v-4.2h-4.2zm6.3 0h4.2v-4.2h-4.2zm0-6.3h4.2V5.3h-4.2zm-6.3 0h4.2V5.3h-4.2z"/></svg>