<svg xmlns="http://www.w3.org/2000/svg" xml:space="preserve" width="36" height="36" fill-rule="evenodd" clip-rule="evenodd" image-rendering="optimizeQuality" shape-rendering="geometricPrecision" text-rendering="geometricPrecision" viewBox="0 0 36 36"><path fill="none" d="M0 0h36v36H0z"/><path d="M19 30.6h4.2v-6.3H19zM12.7 9.7h4.2V5.5h-4.2zm6.3 0h4.2V5.5H19zM12.7 16h4.2v-4.2h-4.2zm6.3 0h4.2v-4.2H19zm-6.3 6.3h4.2v-4.2h-4.2zm6.3 0h4.2v-4.2H19zm-6.3 6.3h4.2v-4.2h-4.2zm-.9 4.2h12.4c.6 0 1-.5 1-1V4.6c0-.6-.5-1-1-1H11.8c-.7 0-1.2.5-1.2 1.2v26.8c0 .7.5 1.2 1.2 1.2M26.1 11V9.3l1.8-1.8 6.7 6.7c.8.8.2 2.1-.9 2.1h-.4v12.2H26v-1.2h6.1V15.1h1.6c-2-1.9-3.9-3.9-5.8-5.8l-1.8 1.8zM2.7 21.2h-.4c-1.1 0-1.6-1.3-.9-2.1l6.7-6.7L9.7 14v1.7l-1.6-1.6-5.8 5.8h1.6v7.3h5.9v1.2H2.7v-7.3zm24.6-2.4h2.4v-2.4h-2.4zM8.8 23.7H6.4v-2.4h2.4zm18.5 0h2.4v-2.4h-2.4z"/></svg>