<svg xmlns="http://www.w3.org/2000/svg" xml:space="preserve" width="36" height="36" fill-rule="evenodd" clip-rule="evenodd" image-rendering="optimizeQuality" shape-rendering="geometricPrecision" text-rendering="geometricPrecision" viewBox="0 0 36 36"><path fill="none" d="M0 0h36v36H0z"/><path d="M6.1 27.3h23.8v2c0 .7-.6 1.3-1.3 1.3H7.3c-.7 0-1.3-.6-1.3-1.3v-2zm8.1-3.9h1.3c.4 0 .6-.3.6-.6v-1.3c0-.3-.3-.6-.6-.6h-1.3c-.3 0-.6.3-.6.6v1.3c0 .4.3.6.6.6m7.6 0h-1.3c-.3 0-.6-.3-.6-.6v-1.3c0-.3.3-.6.6-.6h1.3c.3 0 .6.3.6.6v1.3c0 .4-.3.6-.6.6m-2.5-10.8c0-.7-.6-1.3-1.3-1.3s-1.3.6-1.3 1.3.6 1.3 1.3 1.3 1.3-.6 1.3-1.3m3.8 10.1v-1.3c0-.3.3-.6.6-.6H25c.3 0 .6.3.6.6v1.3c0 .4-.3.6-.6.6h-1.3c-.3 0-.6-.3-.6-.6m-10.8-5.1H11c-.3 0-.6.3-.6.6v1.3c0 .4.3.6.6.6h1.3c.3 0 .6-.3.6-.6v-1.3c0-.3-.3-.6-.6-.6m.6 5.1v-1.3c0-.3-.3-.6-.6-.6H11c-.3 0-.6.3-.6.6v1.3c0 .4.3.6.6.6h1.3c.3 0 .6-.3.6-.6m10.8-5.1H25c.3 0 .6.3.6.6v1.3c0 .4-.3.6-.6.6h-1.3c-.3 0-.6-.3-.6-.6v-1.3c0-.3.3-.6.6-.6m-9.5 2.5h1.3c.4 0 .6-.3.6-.6v-1.3c0-.3-.3-.6-.6-.6h-1.3c-.3 0-.6.3-.6.6v1.3c0 .4.3.6.6.6m7.6 0h-1.3c-.3 0-.6-.3-.6-.6v-1.3c0-.3.3-.6.6-.6h1.3c.3 0 .6.3.6.6v1.3c0 .4-.3.6-.6.6M4.3 16.4c.4.6 1.2.7 1.8.3 4-2.9 7.9-5.7 11.9-8.6 4 2.9 7.9 5.7 11.9 8.6.6.4 1.4.3 1.8-.3s.3-1.4-.3-1.8c-4.2-3-8.4-6.1-12.7-9.1-.4-.3-1-.3-1.5 0-4.2 3-8.4 6.1-12.7 9.1-.6.4-.7 1.2-.3 1.8zm23.8-5.1c-.8-.6-1.7-1.2-2.5-1.8V7c0-.4.3-.6.6-.6h1.3c.4 0 .6.3.6.6zm-22 6.3c.2-.1.3-.1.5-.2 3.8-2.8 7.6-5.5 11.5-8.3 3.8 2.8 7.6 5.5 11.5 8.3.1.1.3.2.5.2v8.9H6.3v-8.9z"/></svg>