<svg xmlns="http://www.w3.org/2000/svg" xml:space="preserve" width="36" height="36" fill-rule="evenodd" clip-rule="evenodd" image-rendering="optimizeQuality" shape-rendering="geometricPrecision" text-rendering="geometricPrecision" viewBox="0 0 36 36"><path fill="none" d="M0 0h36v36H0z"/><path d="M7.92 32.73h20.16c.61 0 1.12-.5 1.12-1.12v-16.8c-.16-.06-.3-.13-.43-.23C25.18 12 21.59 9.41 18 6.82 14.41 9.41 10.82 12 7.23 14.58c-.13.1-.27.17-.43.23v16.8c0 .62.51 1.12 1.12 1.12M18 10.08c1.24 0 2.24 1 2.24 2.24s-1 2.24-2.24 2.24-2.24-1-2.24-2.24 1-2.24 2.24-2.24M5.15 13.72c.38.53 1.12.65 1.65.27 3.74-2.69 7.47-5.38 11.2-8.07 3.73 2.69 7.46 5.38 11.2 8.07.53.38 1.27.26 1.65-.27.39-.53.27-1.27-.27-1.66-3.96-2.85-7.92-5.71-11.89-8.56-.41-.3-.97-.3-1.38 0-3.97 2.85-7.93 5.71-11.89 8.56-.54.39-.66 1.13-.27 1.66M27.5 8.94l-2.37-1.71V4.91c0-.33.26-.6.59-.6h1.19c.33 0 .59.27.59.6zM9.04 28.25h4.48v-4.48H9.04zm13.44 0h4.48v-4.48h-4.48zm-6.72 2.24h4.48v-6.72h-4.48zm6.72-8.96h4.48v-4.48h-4.48zm-6.72 0h4.48v-4.48h-4.48zm-6.72 0h4.48v-4.48H9.04z"/></svg>