<?xml version="1.0" encoding="UTF-8"?>
<!DOCTYPE svg PUBLIC "-//W3C//DTD SVG 1.1//EN" "http://www.w3.org/Graphics/SVG/1.1/DTD/svg11.dtd">
<!-- Creator: CorelDRAW -->
<svg xmlns="http://www.w3.org/2000/svg" xml:space="preserve" width="16px" height="16px" version="1.1" shape-rendering="geometricPrecision" text-rendering="geometricPrecision" image-rendering="optimizeQuality" fill-rule="evenodd" clip-rule="evenodd"
viewBox="0 0 16 16"
 xmlns:xlink="http://www.w3.org/1999/xlink"
 xmlns:xodm="http://www.corel.com/coreldraw/odm/2003">
 <g id="Default">
  <metadata id="CorelCorpID_0Corel-Layer"/>
  <path fill="black" d="M11.5 5.21c0.43,0.43 0.86,0.86 1.29,1.29 0.2,0.19 0.52,0.19 0.71,0 0.2,-0.19 0.2,-0.51 0,-0.71 -0.43,-0.43 -0.86,-0.86 -1.29,-1.29 0.43,-0.43 0.86,-0.86 1.29,-1.29 0.2,-0.2 0.2,-0.51 0,-0.71 -0.19,-0.2 -0.51,-0.2 -0.71,0 -0.43,0.43 -0.86,0.86 -1.29,1.29 -0.43,-0.43 -0.86,-0.86 -1.29,-1.29 -0.2,-0.2 -0.51,-0.2 -0.71,0 -0.19,0.2 -0.19,0.51 0,0.71 0.43,0.43 0.86,0.86 1.29,1.29 -0.43,0.43 -0.86,0.86 -1.29,1.29 -0.19,0.2 -0.19,0.52 0,0.71 0.2,0.19 0.51,0.19 0.71,0 0.43,-0.43 0.86,-0.86 1.29,-1.29zm-7.5 5.79c-0.5,0 -1,0 -1.5,0 -0.28,0 -0.5,0.22 -0.5,0.5 0,0.28 0.22,0.5 0.5,0.5 0.5,0 1,0 1.5,0 0,0.5 0,1 0,1.5 0,0.28 0.22,0.5 0.5,0.5 0.28,0 0.5,-0.22 0.5,-0.5 0,-0.5 0,-1 0,-1.5 0.5,0 1,0 1.5,0 0.28,0 0.5,-0.22 0.5,-0.5 0,-0.28 -0.22,-0.5 -0.5,-0.5 -0.5,0 -1,0 -1.5,0 0,-0.5 0,-1 0,-1.5 0,-0.28 -0.22,-0.5 -0.5,-0.5 -0.28,0 -0.5,0.22 -0.5,0.5 0,0.5 0,1 0,1.5zm5.5 0c1.33,0 2.67,0 4,0 0.28,0 0.5,-0.22 0.5,-0.5 0,-0.28 -0.22,-0.5 -0.5,-0.5 -1.33,0 -2.67,0 -4,0 -0.28,0 -0.5,0.22 -0.5,0.5 0,0.28 0.22,0.5 0.5,0.5zm0 2c1.33,0 2.67,0 4,0 0.28,0 0.5,-0.22 0.5,-0.5 0,-0.28 -0.22,-0.5 -0.5,-0.5 -1.33,0 -2.67,0 -4,0 -0.28,0 -0.5,0.22 -0.5,0.5 0,0.28 0.22,0.5 0.5,0.5zm-7 -8c1.33,0 2.67,0 4,0 0.28,0 0.5,-0.22 0.5,-0.5 0,-0.28 -0.22,-0.5 -0.5,-0.5 -1.33,0 -2.67,0 -4,0 -0.28,0 -0.5,0.22 -0.5,0.5 0,0.28 0.22,0.5 0.5,0.5zm-1.5 10l14 0 0 -14 -14 0 0 14zm14 -15c-4.67,0 -9.33,0 -14,0 -0.55,0 -1,0.45 -1,1 0,4.67 0,9.33 0,14 0,0.55 0.45,1 1,1 4.67,0 9.33,0 14,0 0.55,0 1,-0.45 1,-1 0,-4.67 0,-9.33 0,-14 0,-0.55 -0.45,-1 -1,-1z"/>
 </g>
</svg>
