<svg xmlns="http://www.w3.org/2000/svg" xml:space="preserve" fill-rule="evenodd" viewBox="0 0 36 36"><path fill="none" d="M0 0h36v36H0z"/><path d="M21.4 12.8c-3.4-2.1-7.9-1.1-10.1 2.3-2.1 3.4-1.1 7.9 2.3 10.1 3.4 2.1 7.9 1.1 10.1-2.3 2.1-3.4 1.1-7.9-2.3-10.1m-6.8 5.7c.2-1.3 1.2-2.3 2.5-2.5.3-.1.5-.4.5-.7-.1-.3-.4-.5-.7-.5-1.8.3-3.1 1.7-3.4 3.4-.1.3.2.6.5.7s.6-.2.7-.5zm3.5 3.5c1.3-.2 2.3-1.2 2.5-2.5.1-.3.4-.5.7-.5.3.1.5.4.5.7-.3 1.8-1.7 3.1-3.4 3.4-.3.1-.6-.2-.7-.5s.2-.6.5-.7zm11.6-11.1h1.2c.6 0 1.2.5 1.2 1.2 0 .6-.5 1.2-1.2 1.2h-1.2c-.6 0-1.2-.5-1.2-1.2 0-.6.5-1.2 1.2-1.2m-9.4 3.9c-2.3-1.5-5.4-.7-6.9 1.6s-.7 5.4 1.6 6.9 5.4.7 6.9-1.6.7-5.4-1.6-6.9m12.9 1.4v-5.3c0-.6-.5-1.2-1.2-1.2h-7.6c-.5-.9-.9-1.8-1.4-2.8-.2-.5-.5-.6-1-.6h-8.7c-.5 0-.8.2-1 .6-.5.9-.9 1.8-1.4 2.8H4.2c-.6 0-1.2.5-1.2 1.2v5.3h7.1c2.6-7.1 12.6-7.1 15.2 0zm0 5.6v6.7c0 .6-.5 1.2-1.2 1.2H4.1c-.6 0-1.2-.5-1.2-1.2v-6.7H10c2.6 7.1 12.6 7.1 15.2 0z"/></svg>