<svg xmlns="http://www.w3.org/2000/svg" xml:space="preserve" width="36" height="36" fill-rule="evenodd" clip-rule="evenodd" image-rendering="optimizeQuality" shape-rendering="geometricPrecision" text-rendering="geometricPrecision" viewBox="0 0 36 36"><path fill="none" d="M0 0h36v36H0z"/><path d="M8.57 24.26H6.23c-.21 0-.36.06-.5.21-.52.51-1.03 1.03-1.55 1.54-.22.22-.06.61.25.61h10.64c.32 0 .48-.39.25-.61l-1.54-1.54a.64.64 0 0 0-.5-.21H8.57m18.86 0h2.34c.21 0 .36-.06.5-.21l1.55-1.55c.22-.22.06-.6-.25-.6H20.93c-.32 0-.48.38-.25.6.51.52 1.03 1.03 1.54 1.55.15.15.29.21.5.21h4.71m2.39-6.39c-.58 0-1.06-.48-1.06-1.07s.48-1.06 1.06-1.06c.59 0 1.07.47 1.07 1.06s-.48 1.07-1.07 1.07m-10.67 0c.59 0 1.06-.48 1.06-1.07s-.47-1.06-1.06-1.06-1.07.47-1.07 1.06.48 1.07 1.07 1.07m0 1.42c1.37 0 2.48-1.12 2.48-2.49a2.48 2.48 0 0 0-2.48-2.48c-1.38 0-2.49 1.11-2.49 2.48a2.49 2.49 0 0 0 2.49 2.49m3.16-2.49c0 1.75-1.41 3.17-3.16 3.17s-3.17-1.42-3.17-3.17h-.38c-.4 0-.71.32-.71.71v2.44c0 .65.44 1.22 1.07 1.38.78.19 1.55.39 2.33.58.26.07.47.18.66.38.87.87 1.75 1.74 2.62 2.62.29.29.59.41 1 .41h7.35c.41 0 .71-.12 1-.41l2.86-2.86c.3-.3.42-.59.42-1.01v-3.53c0-.39-.32-.71-.71-.71h-.5a3.171 3.171 0 0 1-6.34 0zm7.51 2.49c-1.37 0-2.48-1.12-2.48-2.49a2.48 2.48 0 0 1 2.48-2.48c1.38 0 2.49 1.11 2.49 2.48a2.49 2.49 0 0 1-2.49 2.49M8.57 2.87H6.23c-.21 0-.36.06-.5.2L4.18 4.62c-.22.22-.06.6.25.6h10.64c.32 0 .48-.38.25-.6-.51-.52-1.03-1.03-1.54-1.55a.66.66 0 0 0-.5-.2H8.57M6.18 9.26c.58 0 1.06.47 1.06 1.06s-.48 1.07-1.06 1.07c-.59 0-1.07-.48-1.07-1.07s.48-1.06 1.07-1.06m10.67 0c-.59 0-1.06.47-1.06 1.06s.47 1.07 1.06 1.07 1.07-.48 1.07-1.07-.48-1.06-1.07-1.06m0-1.42a2.48 2.48 0 0 0-2.48 2.48c0 1.37 1.11 2.49 2.48 2.49a2.49 2.49 0 0 0 2.49-2.49c0-1.37-1.11-2.48-2.49-2.48m-3.16 2.48c0-1.75 1.41-3.17 3.16-3.17s3.17 1.42 3.17 3.17h.38c.4 0 .71-.32.71-.71V7.17c0-.65-.44-1.22-1.07-1.38-.78-.19-1.55-.39-2.33-.58-.26-.07-.47-.18-.66-.38-.87-.87-1.75-1.74-2.62-2.61-.29-.3-.59-.42-1-.42H6.08c-.41 0-.71.12-1 .42-.96.95-1.91 1.9-2.86 2.86-.3.29-.42.59-.42 1v3.53c0 .39.32.71.71.71h.5c0-1.75 1.42-3.17 3.17-3.17s3.16 1.42 3.16 3.17zM6.18 7.84a2.48 2.48 0 0 1 2.48 2.48c0 1.37-1.11 2.49-2.48 2.49a2.49 2.49 0 0 1-2.49-2.49c0-1.37 1.11-2.48 2.49-2.48m0 22.81c.58 0 1.06.48 1.06 1.06 0 .59-.48 1.07-1.06 1.07-.59 0-1.07-.48-1.07-1.07 0-.58.48-1.06 1.07-1.06m10.67 0c-.59 0-1.06.48-1.06 1.06 0 .59.47 1.07 1.06 1.07s1.07-.48 1.07-1.07c0-.58-.48-1.06-1.07-1.06m0-1.42a2.48 2.48 0 0 0-2.48 2.48c0 1.38 1.11 2.49 2.48 2.49 1.38 0 2.49-1.11 2.49-2.49 0-1.37-1.11-2.48-2.49-2.48m-3.16 2.48a3.16 3.16 0 0 1 3.16-3.16c1.75 0 3.17 1.41 3.17 3.16h.38c.4 0 .71-.31.71-.7v-2.45c0-.65-.44-1.22-1.07-1.37-.78-.2-1.55-.39-2.33-.59a1.3 1.3 0 0 1-.66-.37l-2.62-2.62c-.29-.29-.59-.42-1-.42H6.08c-.41 0-.71.13-1 .42-.96.95-1.91 1.91-2.86 2.86-.3.29-.42.59-.42 1v3.54c0 .39.32.7.71.7h.5c0-1.74 1.42-3.16 3.17-3.16s3.16 1.41 3.16 3.16zm-7.51-2.48a2.48 2.48 0 0 1 2.48 2.48c0 1.38-1.11 2.49-2.48 2.49-1.38 0-2.49-1.11-2.49-2.49 0-1.37 1.11-2.48 2.49-2.48"/></svg>