<?xml version="1.0" encoding="UTF-8"?>
<!DOCTYPE svg PUBLIC "-//W3C//DTD SVG 1.1//EN" "http://www.w3.org/Graphics/SVG/1.1/DTD/svg11.dtd">
<!-- Creator: CorelDRAW -->
<svg xmlns="http://www.w3.org/2000/svg" xml:space="preserve" width="16px" height="16px" version="1.1" shape-rendering="geometricPrecision" text-rendering="geometricPrecision" image-rendering="optimizeQuality" fill-rule="evenodd" clip-rule="evenodd"
viewBox="0 0 16 16"
 xmlns:xlink="http://www.w3.org/1999/xlink"
 xmlns:xodm="http://www.corel.com/coreldraw/odm/2003">
 <g id="Default">
  <metadata id="CorelCorpID_0Corel-Layer"/>
  <path fill="black" fill-rule="nonzero" d="M10.5 16c0.28,0 0.5,-0.22 0.5,-0.5 0,-2.33 0,-4.67 0,-7 0,-0.28 -0.22,-0.5 -0.5,-0.5 -0.28,0 -0.5,0.22 -0.5,0.5 0,2.33 0,4.67 0,7 0,0.28 0.22,0.5 0.5,0.5zm-10 0c0.28,0 0.5,-0.22 0.5,-0.5 0,-1.67 0,-3.33 0,-5 0,-0.27 -0.22,-0.5 -0.5,-0.5 -0.28,0 -0.5,0.23 -0.5,0.5 0,1.67 0,3.33 0,5 0,0.28 0.22,0.5 0.5,0.5zm12.15 -13.35c-0.03,0.02 -0.05,0.05 -0.07,0.07 -0.61,0.93 -1.23,1.86 -1.85,2.78 -0.58,0 -1.15,0 -1.73,0 -0.13,0 -0.26,0.05 -0.35,0.15 -0.59,0.58 -1.17,1.16 -1.75,1.74 -0.56,-0.28 -1.12,-0.56 -1.68,-0.84 -0.19,-0.09 -0.42,-0.05 -0.57,0.1 -0.6,0.59 -1.19,1.19 -1.79,1.78 -0.73,-0.25 -1.47,-0.49 -2.2,-0.74 -0.26,-0.08 -0.55,0.06 -0.63,0.32 -0.09,0.26 0.05,0.55 0.31,0.63 0.84,0.28 1.67,0.56 2.5,0.84 0.18,0.06 0.38,0.01 0.51,-0.13 0.58,-0.58 1.17,-1.16 1.75,-1.74 0.56,0.28 1.12,0.56 1.68,0.84 0.19,0.09 0.42,0.06 0.57,-0.1 0.62,-0.61 1.24,-1.23 1.86,-1.85 0.59,0 1.19,0 1.79,0 0.17,0 0.32,-0.08 0.42,-0.22 0.65,-0.99 1.31,-1.97 1.97,-2.96 0.82,-0.82 1.64,-1.64 2.46,-2.46 0.2,-0.2 0.2,-0.52 0,-0.71 -0.19,-0.2 -0.51,-0.2 -0.7,0 -0.84,0.83 -1.67,1.66 -2.5,2.5zm-7.15 13.35c0.28,0 0.5,-0.22 0.5,-0.5 0,-2 0,-4 0,-6 0,-0.28 -0.22,-0.5 -0.5,-0.5 -0.28,0 -0.5,0.22 -0.5,0.5 0,2 0,4 0,6 0,0.28 0.22,0.5 0.5,0.5zm10 0c0.28,0 0.5,-0.22 0.5,-0.5 0,-4 0,-8 0,-12 0,-0.28 -0.22,-0.5 -0.5,-0.5 -0.28,0 -0.5,0.22 -0.5,0.5 0,4 0,8 0,12 0,0.28 0.22,0.5 0.5,0.5z"/>
 </g>
</svg>
