<svg xmlns="http://www.w3.org/2000/svg" xml:space="preserve" width="36" height="36" fill-rule="evenodd" clip-rule="evenodd" image-rendering="optimizeQuality" shape-rendering="geometricPrecision" text-rendering="geometricPrecision" viewBox="0 0 36 36"><path fill="none" d="M0 0h36v36H0z"/><path d="M28.61 31.79V10.58c0-.59.47-1.07 1.06-1.07h2.12c.59 0 1.06.48 1.06 1.07v21.21c0 .59-.47 1.06-1.06 1.06h-2.12c-.59 0-1.06-.47-1.06-1.06m2.12-27.58a1.06 1.06 0 1 0 1.06 1.06c0-.58-.48-1.06-1.06-1.06M11.64 18c-.59 0-1.06.47-1.06 1.06s.47 1.06 1.06 1.06a1.06 1.06 0 0 0 0-2.12m-6.37 2.12c-.58 0-1.06.48-1.06 1.06a1.06 1.06 0 1 0 1.06-1.06m19.09-9.54c-.58 0-1.06.47-1.06 1.06 0 .58.48 1.06 1.06 1.06a1.06 1.06 0 0 0 0-2.12M18 14.82a1.06 1.06 0 1 0 .001 2.119A1.06 1.06 0 0 0 18 14.82M29.65 7.1c.92.54 2.1.31 2.75-.53.66-.84.58-2.04-.17-2.8-.76-.75-1.96-.83-2.8-.17-.84.65-1.07 1.83-.53 2.75l-3.46 3.46c-.76-.45-1.73-.38-2.42.19a2.11 2.11 0 0 0-.66 2.33c-.98.66-1.96 1.31-2.95 1.97-.68-.61-1.68-.72-2.48-.26-.79.47-1.2 1.39-1 2.28-.9.45-1.8.9-2.69 1.35-.6-.69-1.57-.92-2.42-.57a2.13 2.13 0 0 0-1.3 2.11c-.82.27-1.65.55-2.47.82-.58-.9-1.74-1.22-2.7-.76s-1.43 1.57-1.09 2.58a2.113 2.113 0 0 0 2.42 1.41c1.05-.2 1.78-1.16 1.71-2.22.82-.28 1.64-.55 2.47-.83.55.86 1.64 1.2 2.59.81.94-.39 1.48-1.4 1.26-2.4.9-.45 1.79-.9 2.69-1.35.67.77 1.78.95 2.66.44s1.28-1.57.94-2.53l2.95-1.96c.78.69 1.95.72 2.76.06.81-.67 1.01-1.82.48-2.72zM4.21 32.85h2.12c.59 0 1.06-.47 1.06-1.06v-5.3c0-.59-.47-1.06-1.06-1.06H4.21c-.59 0-1.06.47-1.06 1.06v5.3c0 .59.47 1.06 1.06 1.06m6.37-9.55h2.12c.58 0 1.06.48 1.06 1.06v7.43c0 .59-.48 1.06-1.06 1.06h-2.12c-.59 0-1.07-.47-1.07-1.06v-7.43c0-.58.48-1.06 1.07-1.06m6.36 9.55h2.12c.59 0 1.06-.47 1.06-1.06V21.18c0-.58-.47-1.06-1.06-1.06h-2.12c-.59 0-1.06.48-1.06 1.06v10.61c0 .59.47 1.06 1.06 1.06m6.36 0h2.12c.59 0 1.07-.47 1.07-1.06V16.94c0-.59-.48-1.06-1.07-1.06H23.3c-.58 0-1.06.47-1.06 1.06v14.85c0 .59.48 1.06 1.06 1.06"/></svg>