<?xml version="1.0" encoding="UTF-8"?>
<!DOCTYPE svg PUBLIC "-//W3C//DTD SVG 1.1//EN" "http://www.w3.org/Graphics/SVG/1.1/DTD/svg11.dtd">
<!-- Creator: CorelDRAW 2020 (64-Bit) -->
<svg xmlns="http://www.w3.org/2000/svg" xml:space="preserve" width="26px" height="26px" version="1.1" style="shape-rendering:geometricPrecision; text-rendering:geometricPrecision; image-rendering:optimizeQuality; fill-rule:evenodd; clip-rule:evenodd"
viewBox="0 0 260 260"
 xmlns:xlink="http://www.w3.org/1999/xlink"
 xmlns:xodm="http://www.corel.com/coreldraw/odm/2003">
 <defs>
  <style type="text/css">
   <![CDATA[
    .fil0 {fill:#CCCCCC}
    .fil2 {fill:white}
    .fil1 {fill:white;fill-rule:nonzero}
   ]]>
  </style>
 </defs>
 <g id="Layer_x0020_1">
  <metadata id="CorelCorpID_0Corel-Layer"/>
  <g id="_2850348047712">
   <polygon class="fil0" points="0,0 260,0 260,260 0,260 "/>
   <path class="fil1" d="M216 226c-57,0 -114,0 -171,0 -6,0 -10,-5 -10,-10 0,-74 0,-97 0,-171 0,-6 5,-10 10,-10 57,0 114,0 171,0 6,0 10,5 10,10 0,74 0,97 0,171 0,6 -5,10 -10,10zm-10 -20l0 -151 -151 0 0 151 151 0z"/>
   <path class="fil2" d="M130 116l33 -33c4,-4 10,-4 14,0 4,4 4,10 0,14l-33 33 33 33c4,4 4,10 0,14 -4,4 -10,4 -14,0l-33 -33 -33 33c-4,4 -10,4 -14,0 -4,-4 -4,-10 0,-14l33 -33 -33 -33c-4,-4 -4,-10 0,-14 4,-4 10,-4 14,0l33 33z"/>
  </g>
 </g>
</svg>
