<svg width="18" height="18" viewBox="0 0 18 18" fill="none" xmlns="http://www.w3.org/2000/svg">
<path d="M13.8189 6.22591L12.9419 5.34891C12.8253 5.23331 12.6677 5.16846 12.5034 5.16846C12.3392 5.16846 12.1816 5.23331 12.0649 5.34891L7.83294 9.58791L5.93294 7.68791C5.81628 7.57231 5.65868 7.50746 5.49444 7.50746C5.3302 7.50746 5.17261 7.57231 5.05594 7.68791L4.18094 8.56291C4.06534 8.67958 4.00049 8.83717 4.00049 9.00141C4.00049 9.16565 4.06534 9.32325 4.18094 9.43991L6.51594 11.7749L7.39294 12.6519C7.50961 12.7675 7.6672 12.8324 7.83144 12.8324C7.99568 12.8324 8.15328 12.7675 8.26994 12.6519L9.14694 11.7749L13.8179 7.10391C13.9335 6.98725 13.9984 6.82965 13.9984 6.66541C13.9984 6.50117 13.9335 6.34358 13.8179 6.22691L13.8189 6.22591Z" fill="white"/>
</svg>
