<svg width="26" height="26" viewBox="0 0 26 26" fill="none" xmlns="http://www.w3.org/2000/svg">
<g clip-path="url(#clip0_353_2885)">
<path fill-rule="evenodd" clip-rule="evenodd" d="M0 0H26V26H0V0Z" fill="#236474"/>
<path d="M21.6 22.6C15.9 22.6 10.2 22.6 4.5 22.6C3.9 22.6 3.5 22.1 3.5 21.6C3.5 14.2 3.5 11.9 3.5 4.5C3.5 3.9 4 3.5 4.5 3.5C10.2 3.5 15.9 3.5 21.6 3.5C22.2 3.5 22.6 4 22.6 4.5C22.6 11.9 22.6 14.2 22.6 21.6C22.6 22.2 22.1 22.6 21.6 22.6ZM20.6 20.6V5.5H5.5V20.6H20.6Z" fill="white"/>
<path fill-rule="evenodd" clip-rule="evenodd" d="M11.9 14.9L16.8 8.9C17.1 8.5 17.8 8.4 18.2 8.8C18.6 9.1 18.7 9.8 18.3 10.2L12.7 17.1C12.5 17.3 12.3 17.5 12 17.5C11.7 17.5 11.4 17.4 11.2 17.2L7.8 13.8C7.4 13.4 7.4 12.8 7.8 12.4C8.2 12 8.8 12 9.2 12.4L11.8 15L11.9 14.9Z" fill="white"/>
</g>
<defs>
<clipPath id="clip0_353_2885">
<rect width="26" height="26" fill="white"/>
</clipPath>
</defs>
</svg>
