<?xml version="1.0" encoding="UTF-8"?>
<!DOCTYPE svg PUBLIC "-//W3C//DTD SVG 1.1//EN" "http://www.w3.org/Graphics/SVG/1.1/DTD/svg11.dtd">
<!-- Creator: CorelDRAW 2020 (64-Bit) -->
<svg xmlns="http://www.w3.org/2000/svg" xml:space="preserve" width="26px" height="26px" version="1.1" style="shape-rendering:geometricPrecision; text-rendering:geometricPrecision; image-rendering:optimizeQuality; fill-rule:evenodd; clip-rule:evenodd"
viewBox="0 0 260 260"
 xmlns:xlink="http://www.w3.org/1999/xlink"
 xmlns:xodm="http://www.corel.com/coreldraw/odm/2003">
 <defs>
  <style type="text/css">
   <![CDATA[
    .fil0 {fill:#268FA3}
    .fil2 {fill:white}
    .fil1 {fill:white;fill-rule:nonzero}
   ]]>
  </style>
 </defs>
 <g id="Layer_x0020_1">
  <metadata id="CorelCorpID_0Corel-Layer"/>
  <g id="_2850344514560">
   <polygon class="fil0" points="0,0 260,0 260,260 0,260 "/>
   <path class="fil1" d="M216 226c-57,0 -114,0 -171,0 -6,0 -10,-5 -10,-10 0,-74 0,-97 0,-171 0,-6 5,-10 10,-10 57,0 114,0 171,0 6,0 10,5 10,10 0,74 0,97 0,171 0,6 -5,10 -10,10zm-10 -20l0 -151 -151 0 0 151 151 0z"/>
   <path class="fil2" d="M119 149l49 -60c3,-4 10,-5 14,-1 4,3 5,10 1,14l-56 69c-2,2 -4,4 -7,4 -3,0 -6,-1 -8,-3l-34 -34c-4,-4 -4,-10 0,-14 4,-4 10,-4 14,0l26 26z"/>
  </g>
 </g>
</svg>
