<svg width="26" height="26" viewBox="0 0 26 26" fill="none" xmlns="http://www.w3.org/2000/svg">
<g clip-path="url(#clip0_353_2891)">
<path fill-rule="evenodd" clip-rule="evenodd" d="M0 0H26V26H0V0Z" fill="#CCCCCC"/>
<path d="M21.6 22.6C15.9 22.6 10.2 22.6 4.5 22.6C3.9 22.6 3.5 22.1 3.5 21.6C3.5 14.2 3.5 11.9 3.5 4.5C3.5 3.9 4 3.5 4.5 3.5C10.2 3.5 15.9 3.5 21.6 3.5C22.2 3.5 22.6 4 22.6 4.5C22.6 11.9 22.6 14.2 22.6 21.6C22.6 22.2 22.1 22.6 21.6 22.6ZM20.6 20.6V5.5H5.5V20.6H20.6Z" fill="white"/>
<path fill-rule="evenodd" clip-rule="evenodd" d="M13 11.6L16.3 8.3C16.7 7.9 17.3 7.9 17.7 8.3C18.1 8.7 18.1 9.3 17.7 9.7L14.4 13L17.7 16.3C18.1 16.7 18.1 17.3 17.7 17.7C17.3 18.1 16.7 18.1 16.3 17.7L13 14.4L9.7 17.7C9.3 18.1 8.7 18.1 8.3 17.7C7.9 17.3 7.9 16.7 8.3 16.3L11.6 13L8.3 9.7C7.9 9.3 7.9 8.7 8.3 8.3C8.7 7.9 9.3 7.9 9.7 8.3L13 11.6Z" fill="white"/>
</g>
<defs>
<clipPath id="clip0_353_2891">
<rect width="26" height="26" fill="white"/>
</clipPath>
</defs>
</svg>
