<svg xmlns="http://www.w3.org/2000/svg" xml:space="preserve" fill-rule="evenodd" viewBox="0 0 36 36"><path d="M21.43 33.75h9.39V20.54h-9.39zm-2.03-1.02v1.02h-8.13v-1.02c0-.56.46-1.01 1.02-1.01h1.01V10.9H9.83c0 .56-.45 1.02-1.01 1.02H6.19c-.56 0-1.02-.46-1.02-1.02V6.84c0-.56.46-1.02 1.02-1.02h2.63c.56 0 1.01.46 1.01 1.02h3.47V3.27c0-.57.46-1.02 1.02-1.02h2.03c.56 0 1.02.45 1.02 1.02v3.57h10.41c.27 0 .52.1.71.3.68.67 1.36 1.35 2.04 2.03.64.64.18 1.73-.72 1.73H17.37v20.82h1.01c.56 0 1.02.45 1.02 1.01m-3.05-1.01-2.03-2.03v2.03zM14.32 10.9v2.03l2.03-2.03zm0 4.91v4.06l2.03-2.03zm12.02-7.96h-4.07l2.04 2.04zM18.8 9.89h4.07l-2.03-2.04zm6.94 0h4.07l-2.03-2.04zm-9.39 13.45v-4.06l-2.03 2.03zm0-6.94v-4.06l-2.03 2.03zm0-11V3.27h-2.03v.1zm-2.03 17.35v4.06l2.03-2.03zm2.03 7.53v-4.06l-2.03 2.03zM14.32 7.85v2.04h2.03V7.85zm3.05 0v2.04l2.03-2.04zm-4.07 0v2.04l-2.03-2.04zm1.02-1.01V4.81l2.03 2.03zM9.83 7.85v2.04h2.04zm16.93 23.34h2.03v-2.03h-2.03zm-3.3 0h2.04v-2.03h-2.04zm3.3-3.29h2.03v-2.03h-2.03zm-3.3 0h2.04v-2.03h-2.04zm3.3-3.3h2.03v-2.03h-2.03zm-3.3 0h2.04v-2.03h-2.04zm3.56-7.69c.01-.28-.2-.52-.48-.53-.28-.02-.52.2-.54.48-.06 1.12.8 2.08 1.92 2.14s2.08-.8 2.14-1.92c.04-.72-.31-1.41-.92-1.81-.6-.4-.95-1.09-.91-1.82.01-.16.01-.33.02-.5a.505.505 0 0 0-.47-.54c-.29-.01-.52.2-.54.48l-.03.51c-.03.62.12 1.24.45 1.77.17.27.37.5.61.71s.51.31.67.63c.3.6-.05 1.32-.7 1.45-.66.14-1.26-.38-1.22-1.05"/></svg>