<svg width="18" height="18" viewBox="0 0 18 18" fill="none" xmlns="http://www.w3.org/2000/svg">
<path d="M13.2491 11.9638L11.9636 13.2494C11.8782 13.3347 11.7625 13.3826 11.6418 13.3826C11.5212 13.3826 11.4054 13.3347 11.3201 13.2494L9.0708 11.0001L6.82079 13.2501C6.73546 13.3354 6.61973 13.3833 6.49905 13.3833C6.37838 13.3833 6.26265 13.3354 6.17732 13.2501L4.8918 11.9645C4.80647 11.8792 4.75853 11.7635 4.75853 11.6428C4.75853 11.5221 4.80647 11.4064 4.8918 11.3211L7.14181 9.07107L4.89251 6.82176C4.80718 6.73643 4.75924 6.6207 4.75924 6.50003C4.75924 6.37935 4.80718 6.26362 4.89251 6.17829L6.17803 4.89277C6.26336 4.80744 6.37909 4.75951 6.49976 4.75951C6.62043 4.75951 6.73617 4.80744 6.82149 4.89277L9.0708 7.14208L11.3201 4.89277C11.4054 4.80744 11.5212 4.75951 11.6418 4.75951C11.7625 4.75951 11.8782 4.80744 11.9636 4.89277L13.2491 6.17829C13.3344 6.26362 13.3824 6.37935 13.3824 6.50003C13.3824 6.6207 13.3344 6.73643 13.2491 6.82176L10.9998 9.07107L13.2498 11.3211C13.3348 11.4065 13.3825 11.5221 13.3824 11.6426C13.3822 11.7631 13.3343 11.8786 13.2491 11.9638Z" fill="white"/>
</svg>
