<svg xmlns="http://www.w3.org/2000/svg" xml:space="preserve" width="36" height="36" fill-rule="evenodd" clip-rule="evenodd" image-rendering="optimizeQuality" shape-rendering="geometricPrecision" text-rendering="geometricPrecision" viewBox="0 0 36 36"><path fill="none" d="M0 0h36v36H0z"/><path d="M30.6 7.69c0-.63-.51-1.14-1.15-1.14h-4.92c0 1.07-.87 1.94-1.95 1.94-1.07 0-1.94-.87-1.94-1.94h-5.28c0 1.07-.87 1.94-1.94 1.94-1.08 0-1.95-.87-1.95-1.94H6.55c-.64 0-1.15.51-1.15 1.14V30.6c0 .63.51 1.15 1.15 1.15h22.9c.64 0 1.15-.52 1.15-1.15zM9.9 23.07h.97c.34 0 .61-.15.8-.43.19-.29.28-.68.28-1.18 0-.51-.08-.89-.26-1.15-.18-.25-.44-.37-.8-.37H9.9zm-1.06-8.51h18.32v-3.43H8.84zm14.93 7.86c0 .24.09.42.27.56q.255.21.75.21c.32 0 .57-.05.74-.15.17-.11.26-.26.26-.47 0-.12-.05-.22-.14-.31-.08-.09-.29-.18-.62-.25l-.82-.19c-.51-.12-.86-.29-1.04-.5-.19-.21-.28-.5-.28-.87 0-.43.15-.78.46-1.05.31-.28.77-.41 1.38-.41s1.07.15 1.39.46c.31.31.47.67.47 1.08h-.96a.73.73 0 0 0-.27-.54c-.16-.12-.4-.18-.71-.18-.25 0-.45.05-.6.16-.15.1-.23.24-.23.41 0 .12.03.23.1.31s.18.14.33.17l1.27.32c.47.11.78.27.96.48s.26.48.26.8c0 .51-.18.91-.54 1.17s-.81.39-1.34.39c-.69 0-1.2-.15-1.54-.44s-.5-.68-.5-1.16zm-1.63-2.46H19.6v1h2.33v.85H19.6v1.24h2.65v.84h-3.63v-4.78h3.52zm-5.42-.85h.93v4.78h-1l-1.95-3.41h-.02v3.41h-.93v-4.78h1.06l1.9 3.33h.01zm-7.8 0h2.11c.64 0 1.13.21 1.45.63.33.42.49.97.49 1.65 0 .75-.17 1.35-.52 1.81-.34.46-.83.69-1.46.69H8.92zM7.69 9.98v19.47h20.62V9.98zm13.75-3.43V5.4c0-.63.51-1.15 1.14-1.15s1.15.52 1.15 1.15v1.15c0 .63-.52 1.14-1.15 1.14s-1.14-.51-1.14-1.14m-9.17 0V5.4c0-.63.52-1.15 1.15-1.15s1.14.52 1.14 1.15v1.15c0 .63-.51 1.14-1.14 1.14s-1.15-.51-1.15-1.14"/></svg>