<svg xmlns="http://www.w3.org/2000/svg" xml:space="preserve" fill-rule="evenodd" viewBox="0 0 36 36"><path fill="none" d="M0 0h36v36H0z"/><path d="M30.6 7.69c0-.63-.51-1.14-1.15-1.14h-4.92c0 1.07-.87 1.94-1.95 1.94-1.07 0-1.94-.87-1.94-1.94h-5.28c0 1.07-.87 1.94-1.94 1.94-1.08 0-1.95-.87-1.95-1.94H6.55c-.64 0-1.15.51-1.15 1.14V30.6c0 .63.51 1.15 1.15 1.15h22.9c.64 0 1.15-.52 1.15-1.15zm-12.21 9.55a1.14 1.14 0 0 0 0 1.62c.59.59 1.18 1.18 1.77 1.78h-7.09c-.63 0-1.14.51-1.14 1.14s.51 1.15 1.14 1.15h7.09l-1.77 1.77a1.14 1.14 0 0 0 0 1.62c.45.44 1.17.44 1.62 0 1.24-1.25 2.48-2.49 3.73-3.73.44-.45.44-1.17 0-1.62-1.25-1.24-2.49-2.48-3.73-3.73a1.16 1.16 0 0 0-1.62 0m-9.55-2.68h18.32v-3.43H8.84zM7.69 9.98v19.47h20.62V9.98zm4.58-3.43V5.4c0-.63.52-1.15 1.15-1.15s1.14.52 1.14 1.15v1.15c0 .63-.51 1.14-1.14 1.14s-1.15-.51-1.15-1.14m9.17 0V5.4c0-.63.51-1.15 1.14-1.15s1.15.52 1.15 1.15v1.15c0 .63-.52 1.14-1.15 1.14s-1.14-.51-1.14-1.14"/></svg>