<?xml version="1.0" encoding="UTF-8"?>
<!DOCTYPE svg PUBLIC "-//W3C//DTD SVG 1.1//EN" "http://www.w3.org/Graphics/SVG/1.1/DTD/svg11.dtd">
<!-- Creator: CorelDRAW 2020 (64-Bit) -->
<svg xmlns="http://www.w3.org/2000/svg" xml:space="preserve" width="36px" height="36px" version="1.1" style="shape-rendering:geometricPrecision; text-rendering:geometricPrecision; image-rendering:optimizeQuality; fill-rule:evenodd; clip-rule:evenodd"
viewBox="0 0 360 360"
 xmlns:xlink="http://www.w3.org/1999/xlink"
 xmlns:xodm="http://www.corel.com/coreldraw/odm/2003">
 <defs>
  <style type="text/css">
   <![CDATA[
    .fil0 {fill:none}
    .fil1 {fill:#268FA3}
   ]]>
  </style>
 </defs>
 <g id="Default">
  <metadata id="CorelCorpID_0Corel-Layer"/>
  <g id="_2886597541216">
   <rect class="fil0" width="360" height="360"/>
   <path class="fil1" d="M306 77c0,-6 -5,-11 -11,-11 -16,0 -33,0 -49,0 0,11 -9,19 -19,19 -11,0 -19,-9 -19,-19 -18,0 -35,0 -53,0 0,11 -9,19 -19,19 -11,0 -19,-9 -19,-19 -16,0 -33,0 -49,0 -6,0 -11,5 -11,11 0,76 0,153 0,229 0,6 5,11 11,11 76,0 153,0 229,0 6,0 11,-5 11,-11 0,-76 0,-153 0,-229zm-122 96c-4,4 -4,12 0,16 6,6 12,12 18,18 -24,0 -47,0 -71,0 -6,0 -11,5 -11,11 0,6 5,11 11,11 24,0 47,0 71,0 -6,6 -12,12 -18,18 -4,4 -4,12 0,16 4,4 12,4 16,0 12,-12 25,-25 37,-37 4,-4 4,-12 0,-16 -12,-12 -25,-25 -37,-37 -4,-4 -12,-4 -16,0zm-96 -27l183 0 0 -34 -183 0 0 34zm-11 -46l0 195 206 0 0 -195 -206 0zm46 -34c0,-4 0,-8 0,-11 0,-6 5,-11 11,-11 6,0 11,5 11,11 0,4 0,8 0,11 0,6 -5,11 -11,11 -6,0 -11,-5 -11,-11zm92 0c0,-4 0,-8 0,-11 0,-6 5,-11 11,-11 6,0 11,5 11,11 0,4 0,8 0,11 0,6 -5,11 -11,11 -6,0 -11,-5 -11,-11z"/>
  </g>
 </g>
</svg>
