<?xml version="1.0" encoding="UTF-8"?>
<!DOCTYPE svg PUBLIC "-//W3C//DTD SVG 1.1//EN" "http://www.w3.org/Graphics/SVG/1.1/DTD/svg11.dtd">
<!-- Creator: CorelDRAW 2020 (64-Bit) -->
<svg xmlns="http://www.w3.org/2000/svg" xml:space="preserve" width="36px" height="36px" version="1.1" style="shape-rendering:geometricPrecision; text-rendering:geometricPrecision; image-rendering:optimizeQuality; fill-rule:evenodd; clip-rule:evenodd"
viewBox="0 0 360 360"
 xmlns:xlink="http://www.w3.org/1999/xlink"
 xmlns:xodm="http://www.corel.com/coreldraw/odm/2003">
 <defs>
  <style type="text/css">
   <![CDATA[
    .fil0 {fill:none}
    .fil1 {fill:#6FC7B6}
   ]]>
  </style>
 </defs>
 <g id="Default">
  <metadata id="CorelCorpID_0Corel-Layer"/>
  <g id="_1679143987328">
   <rect class="fil0" width="360" height="360"/>
   <path class="fil1" d="M306 77c0,-6 -5,-11 -11,-11 -16,0 -33,0 -49,0 0,11 -9,19 -19,19 -11,0 -19,-9 -19,-19 -18,0 -35,0 -53,0 0,11 -9,19 -19,19 -11,0 -19,-9 -19,-19 -16,0 -33,0 -49,0 -6,0 -11,5 -11,11 0,76 0,153 0,229 0,6 5,11 11,11 76,0 153,0 229,0 6,0 11,-5 11,-11 0,-76 0,-153 0,-229zm-207 154l10 0c3,0 6,-1 8,-4 2,-3 3,-7 3,-12 0,-5 -1,-9 -3,-11 -2,-3 -4,-4 -8,-4l-10 0 0 31zm-11 -85l183 0 0 -34 -183 0 0 34zm149 79c0,2 1,4 3,6 2,1 4,2 8,2 3,0 6,-1 7,-2 2,-1 3,-3 3,-5 0,-1 0,-2 -1,-3 -1,-1 -3,-2 -6,-3l-8 -2c-5,-1 -9,-3 -10,-5 -2,-2 -3,-5 -3,-9 0,-4 2,-8 5,-11 3,-3 8,-4 14,-4 6,0 11,2 14,5 3,3 5,7 5,11l-10 0c0,-2 -1,-4 -3,-5 -2,-1 -4,-2 -7,-2 -3,0 -5,1 -6,2 -2,1 -2,2 -2,4 0,1 0,2 1,3 1,1 2,1 3,2l13 3c5,1 8,3 10,5 2,2 3,5 3,8 0,5 -2,9 -5,12 -4,3 -8,4 -13,4 -7,0 -12,-1 -15,-4 -3,-3 -5,-7 -5,-12l10 0zm-16 -25l-25 0 0 10 23 0 0 8 -23 0 0 12 27 0 0 8 -36 0 0 -48 35 0 0 8zm-54 -8l9 0 0 48 -10 0 -20 -34 0 0 0 34 -9 0 0 -48 11 0 19 33 0 0 0 -33zm-78 0l21 0c6,0 11,2 15,6 3,4 5,10 5,16 0,8 -2,14 -5,18 -3,5 -8,7 -15,7l-21 0 0 -48zm-12 -91l0 195 206 0 0 -195 -206 0zm137 -34c0,-4 0,-8 0,-11 0,-6 5,-11 11,-11 6,0 11,5 11,11 0,4 0,8 0,11 0,6 -5,11 -11,11 -6,0 -11,-5 -11,-11zm-92 0c0,-4 0,-8 0,-11 0,-6 5,-11 11,-11 6,0 11,5 11,11 0,4 0,8 0,11 0,6 -5,11 -11,11 -6,0 -11,-5 -11,-11z"/>
  </g>
 </g>
</svg>
