<svg xmlns="http://www.w3.org/2000/svg" width="19" height="19" viewBox="0 0 19 19">
  <path id="arrows_output_19dp_1F1F1F_FILL0_wght400_GRAD0_opsz20" d="M144-797v-5.429h2.036v1.951l3.308-3.308,1.442,1.442-3.308,3.308h1.951V-797Zm13.571,0v-2.036h1.951l-3.308-3.308,1.442-1.442,3.308,3.308v-1.951H163V-797Zm-8.228-12.214-3.308-3.308v1.951H144V-816h5.429v2.036h-1.951l3.308,3.308Zm8.313,0-1.442-1.442,3.308-3.308h-1.951V-816H163v5.429h-2.036v-1.951Zm-4.162,4.75a1.947,1.947,0,0,1-1.436-.6,1.976,1.976,0,0,1-.594-1.442,1.946,1.946,0,0,1,.6-1.436,1.976,1.976,0,0,1,1.442-.594,1.947,1.947,0,0,1,1.436.6,1.976,1.976,0,0,1,.594,1.442,1.947,1.947,0,0,1-.6,1.436A1.976,1.976,0,0,1,153.494-804.464Z" transform="translate(-144 816)" fill="#268fa3"/>
</svg>
