<svg xmlns="http://www.w3.org/2000/svg" width="15.2" height="19" viewBox="0 0 15.2 19">
  <path id="shield_24dp_1F1F1F_FILL0_wght400_GRAD0_opsz24" d="M167.6-861a9.465,9.465,0,0,1-5.451-3.788A10.91,10.91,0,0,1,160-871.355v-5.795l7.6-2.85,7.6,2.85v5.795a10.91,10.91,0,0,1-2.149,6.567A9.465,9.465,0,0,1,167.6-861Zm0-1.995a7.731,7.731,0,0,0,4.085-3.135,9.023,9.023,0,0,0,1.615-5.225v-4.489l-5.7-2.138-5.7,2.138v4.489a9.023,9.023,0,0,0,1.615,5.225A7.731,7.731,0,0,0,167.6-862.995ZM167.6-870.5Z" transform="translate(-160 880)" fill="#268fa3"/>
</svg>
