<svg xmlns="http://www.w3.org/2000/svg" width="19" height="19" viewBox="0 0 19 19">
  <path id="extension_19dp_1F1F1F_FILL0_wght400_GRAD0_opsz20" d="M149.938-893h-4.156a1.715,1.715,0,0,1-1.258-.523,1.715,1.715,0,0,1-.523-1.258v-4.156a2.5,2.5,0,0,0,1.682-.73,2.221,2.221,0,0,0,.693-1.645,2.221,2.221,0,0,0-.693-1.645,2.5,2.5,0,0,0-1.682-.73v-4.156a1.715,1.715,0,0,1,.523-1.258,1.715,1.715,0,0,1,1.258-.523h4.156a2.3,2.3,0,0,1,.687-1.682,2.279,2.279,0,0,1,1.682-.693,2.3,2.3,0,0,1,1.688.689,2.287,2.287,0,0,1,.693,1.686h4.156a1.715,1.715,0,0,1,1.258.523,1.715,1.715,0,0,1,.523,1.258v4.156a2.3,2.3,0,0,1,1.682.687,2.279,2.279,0,0,1,.693,1.682,2.3,2.3,0,0,1-.689,1.688,2.287,2.287,0,0,1-1.686.693v4.156a1.715,1.715,0,0,1-.523,1.258,1.715,1.715,0,0,1-1.258.523h-4.156a2.506,2.506,0,0,0-.727-1.682,2.215,2.215,0,0,0-1.645-.693,2.225,2.225,0,0,0-1.648.693A2.5,2.5,0,0,0,149.938-893Zm-4.156-1.781h2.771a3.821,3.821,0,0,1,1.521-1.744,4.2,4.2,0,0,1,2.239-.631,4.2,4.2,0,0,1,2.239.631,3.821,3.821,0,0,1,1.521,1.744h2.771v-5.937h1.781a.57.57,0,0,0,.416-.178.57.57,0,0,0,.178-.416.57.57,0,0,0-.178-.416.57.57,0,0,0-.416-.178h-1.781v-5.937h-5.937v-1.781a.57.57,0,0,0-.178-.416.57.57,0,0,0-.416-.178.57.57,0,0,0-.416.178.57.57,0,0,0-.178.416v1.781h-5.937v2.771a3.821,3.821,0,0,1,1.744,1.521,4.2,4.2,0,0,1,.631,2.239,4.236,4.236,0,0,1-.631,2.266,3.682,3.682,0,0,1-1.744,1.494ZM152.313-901.312Z" transform="translate(-144 912)" fill="#268fa3"/>
</svg>
