<svg xmlns="http://www.w3.org/2000/svg" xml:space="preserve" fill-rule="evenodd" viewBox="0 0 36 36"><path d="M21.18 32.85h10.61v-3.18H21.18zm-9.54-21.21h12.72V4.21H11.64zM26.49 30.2c-.59 0-1.07.47-1.07 1.06 0 .58.48 1.06 1.07 1.06.58 0 1.06-.48 1.06-1.06 0-.59-.48-1.06-1.06-1.06m0-4.24c-.59 0-1.07.47-1.07 1.06 0 .58.48 1.06 1.07 1.06.58 0 1.06-.48 1.06-1.06 0-.59-.48-1.06-1.06-1.06m0-4.25c-.59 0-1.07.48-1.07 1.06 0 .59.48 1.06 1.07 1.06.58 0 1.06-.47 1.06-1.06 0-.58-.48-1.06-1.06-1.06m-7.96-7.95h5.83c.59 0 1.06-.48 1.06-1.06V4.21c0-.59-.47-1.06-1.06-1.06H11.64c-.59 0-1.06.47-1.06 1.06v8.49c0 .58.47 1.06 1.06 1.06h5.83v1.59c0 .29-.24.53-.53.53h-2.65c-.3 0-.53.24-.53.53s.23.53.53.53h7.42c.3 0 .53-.24.53-.53s-.23-.53-.53-.53h-2.65c-.29 0-.53-.24-.53-.53zM4.21 20.12h27.58V18H4.21zm0 12.73h2.12V21.18H4.21zm16.97-8.49h10.61v-3.18H21.18zm0 4.25h10.61v-3.18H21.18z"/></svg>