<svg xmlns="http://www.w3.org/2000/svg" xml:space="preserve" width="36" height="36" fill-rule="evenodd" clip-rule="evenodd" image-rendering="optimizeQuality" shape-rendering="geometricPrecision" text-rendering="geometricPrecision" viewBox="0 0 36 36"><path fill="none" d="M0 0h36v36H0z"/><path d="M16.4 30H4.8c-.7 0-1.2-.5-1.2-1.2V7.2c0-.7.5-1.2 1.2-1.2h11.6c.7 0 1.2.5 1.2 1.2v21.6c0 .7-.5 1.2-1.2 1.2m6.7-22.7s.1 0 .1-.1c.2-.1.4 0 .6.2l2.2 3.8 1-1.8c.1-.2.4-.3.6-.2 0 0 .1 0 .1.1.2.1.3.4.2.6l-1 1.8h1.6c.2 0 .4.2.4.4v.1c0 .2-.2.4-.4.4h-1.6l.8 1.4c.1.2 0 .4-.2.6 0 0-.1 0-.1.1-.2.1-.4 0-.6-.2l-.8-1.4-1.1 1.9c-.1.2-.4.3-.6.2 0 0-.1 0-.1-.1-.2-.1-.3-.4-.2-.6l1.1-1.9H22c-.2 0-.4-.2-.4-.4v-.1c0-.2.2-.4.4-.4h3.1l-2.2-3.8c-.1-.2 0-.4.2-.6m-11.8 10h2.4c.3 0 .6.3.6.6v.2c0 .3-.3.6-.6.6H7.4c-.3 0-.6-.3-.6-.6v-.2c0-.3.3-.6.6-.6zm17.2 1.4h-6.3c-.3 0-.6-.3-.6-.6v-.2c0-.3.3-.6.6-.6h6.3c.3 0 .6.3.6.6v.2c0 .3-.3.6-.6.6m1.4-11v20.6l-9.2 3.2V4.6l9.2 3.2zM15.1 27.6H5.9V8.4h9.2zm3.2 5.5V2.9c0-.8.8-1.4 1.6-1.1 3.9 1.3 7.7 2.7 11.6 4 .5.2.8.6.8 1.1v22.3c0 .5-.3 1-.8 1.1-3.9 1.3-7.7 2.7-11.6 4-.8.3-1.6-.3-1.6-1.1z"/></svg>