<svg xmlns="http://www.w3.org/2000/svg" viewBox="0 0 14.224 16">
  <path d="M14.224,4.038v9.7a2.266,2.266,0,0,1-2.263,2.263h-9.7A2.266,2.266,0,0,1,0,13.738v-9.7A2.266,2.266,0,0,1,2.263,1.775H4.935L4.672,3.715H2.263A.327.327,0,0,0,1.94,4.038v9.7a.327.327,0,0,0,.323.323h9.7a.327.327,0,0,0,.323-.323v-9.7a.327.327,0,0,0-.323-.323H9.552L9.289,1.775h2.672a2.266,2.266,0,0,1,2.263,2.263ZM4,7.48l2.579,3.715a.647.647,0,0,0,1.062,0L10.22,7.48A.647.647,0,0,0,9.689,6.465H8.565L7.783-.685A.323.323,0,0,0,7.461-1H6.761a.323.323,0,0,0-.322.3L5.66,6.465H4.533A.647.647,0,0,0,4,7.48Z" fill="black"/>
</svg>