<svg xmlns="http://www.w3.org/2000/svg" width="14.224" height="16" viewBox="0 0 14.224 16">
  <path id="download-square" d="M19.224,6.292v9.7a2.266,2.266,0,0,1-2.263,2.263h-9.7A2.266,2.266,0,0,1,5,15.991v-9.7A2.266,2.266,0,0,1,7.263,4.029H9.935l-.263,1.94H7.263a.327.327,0,0,0-.323.323v9.7a.327.327,0,0,0,.323.323h9.7a.327.327,0,0,0,.323-.323v-9.7a.327.327,0,0,0-.323-.323H14.552l-.263-1.94h2.672a2.266,2.266,0,0,1,2.263,2.263ZM9,9.734l2.579,3.715a.647.647,0,0,0,1.062,0l2.579-3.715a.647.647,0,0,0-.531-1.015H13.565L12.783,2.55a.323.323,0,0,0-.322-.3h-.7a.323.323,0,0,0-.322.3L10.66,8.719H9.533A.647.647,0,0,0,9,9.734Z" transform="translate(-5 -2.254)" fill="#6fc7b6"/>
</svg>
