<svg id="ecv-sk" xmlns="http://www.w3.org/2000/svg" width="12.8" height="16" viewBox="0 0 12.8 16">
  <path id="Shield_1_" d="M6.4,16C3.767,14.732,0,12.217,0,7.24S.238,0,.238,0H12.562s.238,2.263.238,7.24S9.033,14.732,6.4,16Z" fill="#ee1c25"/>
  <path id="Cross" d="M98.094,30.969V28.22a10.746,10.746,0,0,1,3.341.378s-.033-.443-.033-.959.033-.959.033-.959a10.238,10.238,0,0,1-3.341.375V25.328a7.9,7.9,0,0,1,2.643.379s-.033-.443-.033-.959.033-.959.033-.959a7.9,7.9,0,0,1-2.64.379,15.351,15.351,0,0,1,.352-2.471s-.655.051-.917.051-.917-.051-.917-.051a15.348,15.348,0,0,1,.352,2.471,7.9,7.9,0,0,1-2.64-.379s.033.443.033.959-.033.959-.033.959a7.9,7.9,0,0,1,2.643-.379v1.726a10.237,10.237,0,0,1-3.341-.375s.033.443.033.959-.033.959-.033.959a10.746,10.746,0,0,1,3.341-.378v2.749h1.125Z" transform="translate(-91.131 -21.119)" fill="#fff"/>
  <path id="Peaks" d="M58,360.425a2.085,2.085,0,0,0-1.615-1.257,1.627,1.627,0,0,0-1.476.872s-.71-1.838-2.035-1.838-2.035,1.838-2.035,1.838a1.627,1.627,0,0,0-1.476-.872,2.084,2.084,0,0,0-1.615,1.257,12.167,12.167,0,0,0,5.127,4.225A12.167,12.167,0,0,0,58,360.425Z" transform="translate(-46.478 -348.65)" fill="#0b4ea2"/>
</svg>
