<svg xmlns="http://www.w3.org/2000/svg" width="19" height="44" viewBox="0 0 19 44">
  <g id="ecv-eu" transform="translate(-271 -2523)">
    <rect id="bg" width="19" height="44" transform="translate(271 2523)" fill="#039"/>
    <path id="sk" d="M5.624-2.181A2.03,2.03,0,0,1,4.858-.5a3.325,3.325,0,0,1-2.13.612A5,5,0,0,1,.5-.365V-1.912a9.163,9.163,0,0,0,1.345.5,3.981,3.981,0,0,0,1.007.145A1.432,1.432,0,0,0,3.7-1.477.716.716,0,0,0,3.991-2.1a.688.688,0,0,0-.129-.411,1.442,1.442,0,0,0-.379-.346,9.739,9.739,0,0,0-1.018-.532,4.824,4.824,0,0,1-1.08-.65,2.44,2.44,0,0,1-.575-.725A2.069,2.069,0,0,1,.6-5.731,2.029,2.029,0,0,1,1.3-7.369a2.935,2.935,0,0,1,1.952-.6,4.61,4.61,0,0,1,1.168.145,8.03,8.03,0,0,1,1.163.408L5.049-6.118a7.858,7.858,0,0,0-1.039-.36,3.345,3.345,0,0,0-.808-.1,1.07,1.07,0,0,0-.725.22.726.726,0,0,0-.252.575.711.711,0,0,0,.1.384,1.122,1.122,0,0,0,.325.317,10.047,10.047,0,0,0,1.055.551A4.2,4.2,0,0,1,5.215-3.478,2.06,2.06,0,0,1,5.624-2.181ZM13.363,0H11.473L9.416-3.309l-.7.5V0H7.047V-7.853H8.712v3.593l.655-.924,2.127-2.669h1.848L10.6-4.377Z" transform="translate(273.5 2559)" fill="#fff"/>
    <g id="eu-flag-stars" transform="translate(268.712 2529)">
      <g id="star-1" transform="matrix(0.809, -0.588, 0.588, 0.809, 13.135, 3.088)">
        <path id="t" d="M0,.916V0H.458Z" transform="matrix(0.951, -0.309, 0.309, 0.951, 0.723, 1.042)" fill="#fc0"/>
        <path id="Path_49" data-name="Path 49" d="M0,0V.916H.458Z" transform="translate(1.005 1.912) rotate(-162)" fill="#fc0"/>
        <path id="t-2" data-name="t" d="M0,.916V0H.458Z" transform="translate(0.961 1.28) rotate(-90)" fill="#fc0"/>
        <path id="Path_50" data-name="Path 50" d="M0,0V.916H.458Z" transform="translate(1.877 1.28) rotate(126)" fill="#fc0"/>
        <path id="t-3" data-name="t" d="M0,.916V0H.458Z" transform="translate(1.261 1.127) rotate(-162)" fill="#fc0"/>
        <path id="Path_51" data-name="Path 51" d="M0,0V.916H.458Z" transform="matrix(0.588, 0.809, -0.809, 0.588, 1.544, 0.256)" fill="#fc0"/>
        <path id="t-4" data-name="t" d="M0,0V.916H.458Z" transform="translate(0.135 1.28) rotate(-90)" fill="#fc0"/>
        <path id="Path_52" data-name="Path 52" d="M0,.916V0H.458Z" transform="matrix(0.588, 0.809, -0.809, 0.588, 0.875, 0.741)" fill="#fc0"/>
        <path id="t-5" data-name="t" d="M0,0V.916H.458Z" transform="translate(0.467 0.256) rotate(-18)" fill="#fc0"/>
        <path id="Path_53" data-name="Path 53" d="M0,.916V0H.458Z" transform="matrix(-0.588, 0.809, -0.809, -0.588, 1.208, 0.794)" fill="#fc0"/>
      </g>
      <g id="star-2" transform="matrix(0.809, 0.588, -0.588, 0.809, 16.318, 3.917)">
        <path id="t-6" data-name="t" d="M0,.916V0H.458Z" transform="translate(0.722 1.042) rotate(-18)" fill="#fc0"/>
        <path id="Path_54" data-name="Path 54" d="M0,0V.916H.458Z" transform="matrix(-0.951, -0.309, 0.309, -0.951, 1.006, 1.913)" fill="#fc0"/>
        <path id="t-7" data-name="t" d="M0,.916V0H.458Z" transform="translate(0.961 1.28) rotate(-90)" fill="#fc0"/>
        <path id="Path_55" data-name="Path 55" d="M0,0V.916H.458Z" transform="matrix(-0.588, 0.809, -0.809, -0.588, 1.876, 1.28)" fill="#fc0"/>
        <path id="t-8" data-name="t" d="M0,.916V0H.458Z" transform="translate(1.261 1.127) rotate(-162)" fill="#fc0"/>
        <path id="Path_56" data-name="Path 56" d="M0,0V.916H.458Z" transform="matrix(0.588, 0.809, -0.809, 0.588, 1.544, 0.256)" fill="#fc0"/>
        <path id="t-9" data-name="t" d="M0,0V.916H.458Z" transform="translate(0.135 1.28) rotate(-90)" fill="#fc0"/>
        <path id="Path_57" data-name="Path 57" d="M0,.916V0H.458Z" transform="translate(0.876 0.742) rotate(54)" fill="#fc0"/>
        <path id="t-10" data-name="t" d="M0,0V.916H.458Z" transform="translate(0.467 0.256) rotate(-18)" fill="#fc0"/>
        <path id="Path_58" data-name="Path 58" d="M0,.916V0H.458Z" transform="matrix(-0.588, 0.809, -0.809, -0.588, 1.208, 0.794)" fill="#fc0"/>
      </g>
      <g id="star-3" transform="translate(18.288 9.059) rotate(180)">
        <path id="t-11" data-name="t" d="M0,.916V0H.458Z" transform="translate(0.723 1.042) rotate(-18)" fill="#fc0"/>
        <path id="Path_44" data-name="Path 44" d="M0,0V.916H.458Z" transform="translate(1.005 1.913) rotate(-162)" fill="#fc0"/>
        <path id="t-12" data-name="t" d="M0,.916V0H.458Z" transform="translate(0.96 1.28) rotate(-90)" fill="#fc0"/>
        <path id="Path_45" data-name="Path 45" d="M0,0V.916H.458Z" transform="matrix(-0.588, 0.809, -0.809, -0.588, 1.876, 1.28)" fill="#fc0"/>
        <path id="t-13" data-name="t" d="M0,.916V0H.458Z" transform="translate(1.261 1.127) rotate(-162)" fill="#fc0"/>
        <path id="Path_46" data-name="Path 46" d="M0,0V.916H.458Z" transform="matrix(0.588, 0.809, -0.809, 0.588, 1.543, 0.256)" fill="#fc0"/>
        <path id="t-14" data-name="t" d="M0,0V.916H.458Z" transform="translate(0.134 1.28) rotate(-90)" fill="#fc0"/>
        <path id="Path_47" data-name="Path 47" d="M0,.916V0H.458Z" transform="matrix(0.588, 0.809, -0.809, 0.588, 0.875, 0.741)" fill="#fc0"/>
        <path id="t-15" data-name="t" d="M0,0V.916H.458Z" transform="translate(0.467 0.256) rotate(-18)" fill="#fc0"/>
        <path id="Path_48" data-name="Path 48" d="M0,.916V0H.458Z" transform="matrix(-0.588, 0.809, -0.809, -0.588, 1.208, 0.794)" fill="#fc0"/>
      </g>
      <g id="star-4" transform="translate(17.805 10.161) rotate(108)">
        <path id="t-16" data-name="t" d="M0,.916V0H.458Z" transform="translate(0.722 1.042) rotate(-18)" fill="#fc0"/>
        <path id="Path_59" data-name="Path 59" d="M0,0V.916H.458Z" transform="translate(1.005 1.912) rotate(-162)" fill="#fc0"/>
        <path id="t-17" data-name="t" d="M0,.916V0H.458Z" transform="translate(0.961 1.28) rotate(-90)" fill="#fc0"/>
        <path id="Path_60" data-name="Path 60" d="M0,0V.916H.458Z" transform="translate(1.876 1.28) rotate(126)" fill="#fc0"/>
        <path id="t-18" data-name="t" d="M0,.916V0H.458Z" transform="matrix(-0.951, -0.309, 0.309, -0.951, 1.261, 1.127)" fill="#fc0"/>
        <path id="Path_61" data-name="Path 61" d="M0,0V.916H.458Z" transform="matrix(0.588, 0.809, -0.809, 0.588, 1.544, 0.256)" fill="#fc0"/>
        <path id="t-19" data-name="t" d="M0,0V.916H.458Z" transform="matrix(0, -1, 1, 0, 0.135, 1.28)" fill="#fc0"/>
        <path id="Path_62" data-name="Path 62" d="M0,.916V0H.458Z" transform="translate(0.875 0.742) rotate(54)" fill="#fc0"/>
        <path id="t-20" data-name="t" d="M0,0V.916H.458Z" transform="translate(0.467 0.256) rotate(-18)" fill="#fc0"/>
        <path id="Path_63" data-name="Path 63" d="M0,.916V0H.458Z" transform="matrix(-0.588, 0.809, -0.809, -0.588, 1.208, 0.794)" fill="#fc0"/>
      </g>
      <g id="star-5" transform="translate(15.793 12.172) rotate(108)">
        <path id="t-21" data-name="t" d="M0,.916V0H.458Z" transform="translate(0.722 1.042) rotate(-18)" fill="#fc0"/>
        <path id="Path_64" data-name="Path 64" d="M0,0V.916H.458Z" transform="translate(1.006 1.913) rotate(-162)" fill="#fc0"/>
        <path id="t-22" data-name="t" d="M0,.916V0H.458Z" transform="translate(0.961 1.28) rotate(-90)" fill="#fc0"/>
        <path id="Path_65" data-name="Path 65" d="M0,0V.916H.458Z" transform="translate(1.876 1.28) rotate(126)" fill="#fc0"/>
        <path id="t-23" data-name="t" d="M0,.916V0H.458Z" transform="matrix(-0.951, -0.309, 0.309, -0.951, 1.261, 1.127)" fill="#fc0"/>
        <path id="Path_66" data-name="Path 66" d="M0,0V.916H.458Z" transform="matrix(0.588, 0.809, -0.809, 0.588, 1.544, 0.256)" fill="#fc0"/>
        <path id="t-24" data-name="t" d="M0,0V.916H.458Z" transform="matrix(0, -1, 1, 0, 0.135, 1.28)" fill="#fc0"/>
        <path id="Path_67" data-name="Path 67" d="M0,.916V0H.458Z" transform="translate(0.875 0.741) rotate(54)" fill="#fc0"/>
        <path id="t-25" data-name="t" d="M0,0V.916H.458Z" transform="translate(0.467 0.256) rotate(-18)" fill="#fc0"/>
        <path id="Path_68" data-name="Path 68" d="M0,.916V0H.458Z" transform="matrix(-0.588, 0.809, -0.809, -0.588, 1.208, 0.794)" fill="#fc0"/>
      </g>
      <g id="star-6" transform="translate(10.782 12.641)">
        <path id="t-26" data-name="t" d="M0,0V.916H.458Z" transform="translate(1.005) rotate(18)" fill="#fc0"/>
        <path id="Path_14" data-name="Path 14" d="M0,.916V0H.458Z" transform="translate(1.289 0.871) rotate(162)" fill="#fc0"/>
        <path id="t-27" data-name="t" d="M0,0V.916H.458Z" transform="translate(1.876 0.633) rotate(90)" fill="#fc0"/>
        <path id="Path_15" data-name="Path 15" d="M0,.916V0H.458Z" transform="matrix(-0.588, -0.809, 0.809, -0.588, 1.135, 1.171)" fill="#fc0"/>
        <path id="t-28" data-name="t" d="M0,0V.916H.458Z" transform="translate(1.544 1.656) rotate(162)" fill="#fc0"/>
        <path id="Path_16" data-name="Path 16" d="M0,.916V0H.458Z" transform="matrix(0.588, -0.809, 0.809, 0.588, 0.803, 1.118)" fill="#fc0"/>
        <path id="t-29" data-name="t" d="M0,.916V0H.458Z" transform="translate(1.05 0.633) rotate(90)" fill="#fc0"/>
        <path id="Path_17" data-name="Path 17" d="M0,0V.916H.458Z" transform="matrix(0.588, -0.809, 0.809, 0.588, 0.135, 0.633)" fill="#fc0"/>
        <path id="t-30" data-name="t" d="M0,.916V0H.458Z" transform="translate(0.75 0.786) rotate(18)" fill="#fc0"/>
        <path id="Path_18" data-name="Path 18" d="M0,0V.916H.458Z" transform="matrix(-0.588, -0.809, 0.809, -0.588, 0.467, 1.656)" fill="#fc0"/>
      </g>
      <g id="star-7" transform="translate(9.601 11.581) rotate(72)">
        <path id="t-31" data-name="t" d="M0,0V.916H.458Z" transform="translate(1.006 0) rotate(18)" fill="#fc0"/>
        <path id="Path_39" data-name="Path 39" d="M0,.916V0H.458Z" transform="translate(1.289 0.871) rotate(162)" fill="#fc0"/>
        <path id="t-32" data-name="t" d="M0,0V.916H.458Z" transform="translate(1.876 0.632) rotate(90)" fill="#fc0"/>
        <path id="Path_40" data-name="Path 40" d="M0,.916V0H.458Z" transform="translate(1.136 1.171) rotate(-126)" fill="#fc0"/>
        <path id="t-33" data-name="t" d="M0,0V.916H.458Z" transform="matrix(-0.951, 0.309, -0.309, -0.951, 1.544, 1.656)" fill="#fc0"/>
        <path id="Path_41" data-name="Path 41" d="M0,.916V0H.458Z" transform="matrix(0.588, -0.809, 0.809, 0.588, 0.803, 1.118)" fill="#fc0"/>
        <path id="t-34" data-name="t" d="M0,.916V0H.458Z" transform="matrix(0, 1, -1, 0, 1.05, 0.632)" fill="#fc0"/>
        <path id="Path_42" data-name="Path 42" d="M0,0V.916H.458Z" transform="translate(0.135 0.633) rotate(-54)" fill="#fc0"/>
        <path id="t-35" data-name="t" d="M0,.916V0H.458Z" transform="translate(0.75 0.785) rotate(18)" fill="#fc0"/>
        <path id="Path_43" data-name="Path 43" d="M0,0V.916H.458Z" transform="matrix(-0.588, -0.809, 0.809, -0.588, 0.467, 1.656)" fill="#fc0"/>
      </g>
      <g id="star-8" transform="translate(7.589 9.57) rotate(72)">
        <path id="t-36" data-name="t" d="M0,0V.916H.458Z" transform="translate(1.005 0) rotate(18)" fill="#fc0"/>
        <path id="Path_34" data-name="Path 34" d="M0,.916V0H.458Z" transform="translate(1.289 0.871) rotate(162)" fill="#fc0"/>
        <path id="t-37" data-name="t" d="M0,0V.916H.458Z" transform="translate(1.876 0.632) rotate(90)" fill="#fc0"/>
        <path id="Path_35" data-name="Path 35" d="M0,.916V0H.458Z" transform="translate(1.136 1.171) rotate(-126)" fill="#fc0"/>
        <path id="t-38" data-name="t" d="M0,0V.916H.458Z" transform="matrix(-0.951, 0.309, -0.309, -0.951, 1.544, 1.656)" fill="#fc0"/>
        <path id="Path_36" data-name="Path 36" d="M0,.916V0H.458Z" transform="matrix(0.588, -0.809, 0.809, 0.588, 0.803, 1.118)" fill="#fc0"/>
        <path id="t-39" data-name="t" d="M0,.916V0H.458Z" transform="matrix(0, 1, -1, 0, 1.05, 0.632)" fill="#fc0"/>
        <path id="Path_37" data-name="Path 37" d="M0,0V.916H.458Z" transform="translate(0.135 0.633) rotate(-54)" fill="#fc0"/>
        <path id="t-40" data-name="t" d="M0,.916V0H.458Z" transform="translate(0.75 0.785) rotate(18)" fill="#fc0"/>
        <path id="Path_38" data-name="Path 38" d="M0,0V.916H.458Z" transform="matrix(-0.588, -0.809, 0.809, -0.588, 0.467, 1.656)" fill="#fc0"/>
      </g>
      <g id="star-9" transform="translate(5.288 7.146)">
        <path id="t-41" data-name="t" d="M0,0V.916H.458Z" transform="translate(1.005) rotate(18)" fill="#fc0"/>
        <path id="Path_19" data-name="Path 19" d="M0,.916V0H.458Z" transform="translate(1.289 0.871) rotate(162)" fill="#fc0"/>
        <path id="t-42" data-name="t" d="M0,0V.916H.458Z" transform="translate(1.876 0.633) rotate(90)" fill="#fc0"/>
        <path id="Path_20" data-name="Path 20" d="M0,.916V0H.458Z" transform="matrix(-0.588, -0.809, 0.809, -0.588, 1.135, 1.171)" fill="#fc0"/>
        <path id="t-43" data-name="t" d="M0,0V.916H.458Z" transform="translate(1.544 1.656) rotate(162)" fill="#fc0"/>
        <path id="Path_21" data-name="Path 21" d="M0,.916V0H.458Z" transform="matrix(0.588, -0.809, 0.809, 0.588, 0.803, 1.118)" fill="#fc0"/>
        <path id="t-44" data-name="t" d="M0,.916V0H.458Z" transform="translate(1.05 0.633) rotate(90)" fill="#fc0"/>
        <path id="Path_22" data-name="Path 22" d="M0,0V.916H.458Z" transform="matrix(0.588, -0.809, 0.809, 0.588, 0.135, 0.633)" fill="#fc0"/>
        <path id="t-45" data-name="t" d="M0,.916V0H.458Z" transform="translate(0.75 0.786) rotate(18)" fill="#fc0"/>
        <path id="Path_23" data-name="Path 23" d="M0,0V.916H.458Z" transform="matrix(-0.588, -0.809, 0.809, -0.588, 0.467, 1.656)" fill="#fc0"/>
      </g>
      <g id="star-10" transform="matrix(-0.809, 0.588, -0.588, -0.809, 8.381, 5.465)">
        <path id="t-46" data-name="t" d="M0,0V.916H.458Z" transform="translate(1.006 0) rotate(18)" fill="#fc0"/>
        <path id="Path_29" data-name="Path 29" d="M0,.916V0H.458Z" transform="matrix(-0.951, 0.309, -0.309, -0.951, 1.288, 0.871)" fill="#fc0"/>
        <path id="t-47" data-name="t" d="M0,0V.916H.458Z" transform="translate(1.876 0.633) rotate(90)" fill="#fc0"/>
        <path id="Path_30" data-name="Path 30" d="M0,.916V0H.458Z" transform="matrix(-0.588, -0.809, 0.809, -0.588, 1.135, 1.171)" fill="#fc0"/>
        <path id="t-48" data-name="t" d="M0,0V.916H.458Z" transform="translate(1.543 1.656) rotate(162)" fill="#fc0"/>
        <path id="Path_31" data-name="Path 31" d="M0,.916V0H.458Z" transform="matrix(0.588, -0.809, 0.809, 0.588, 0.803, 1.118)" fill="#fc0"/>
        <path id="t-49" data-name="t" d="M0,.916V0H.458Z" transform="translate(1.05 0.633) rotate(90)" fill="#fc0"/>
        <path id="Path_32" data-name="Path 32" d="M0,0V.916H.458Z" transform="translate(0.135 0.633) rotate(-54)" fill="#fc0"/>
        <path id="t-50" data-name="t" d="M0,.916V0H.458Z" transform="translate(0.75 0.786) rotate(18)" fill="#fc0"/>
        <path id="Path_33" data-name="Path 33" d="M0,0V.916H.458Z" transform="matrix(-0.588, -0.809, 0.809, -0.588, 0.467, 1.657)" fill="#fc0"/>
      </g>
      <g id="star-11" transform="matrix(-0.809, -0.588, 0.588, -0.809, 9.315, 4.635)">
        <path id="t-51" data-name="t" d="M0,0V.916H.458Z" transform="matrix(0.951, 0.309, -0.309, 0.951, 1.006, 0)" fill="#fc0"/>
        <path id="Path_24" data-name="Path 24" d="M0,.916V0H.458Z" transform="translate(1.288 0.871) rotate(162)" fill="#fc0"/>
        <path id="t-52" data-name="t" d="M0,0V.916H.458Z" transform="translate(1.876 0.633) rotate(90)" fill="#fc0"/>
        <path id="Path_25" data-name="Path 25" d="M0,.916V0H.458Z" transform="translate(1.136 1.171) rotate(-126)" fill="#fc0"/>
        <path id="t-53" data-name="t" d="M0,0V.916H.458Z" transform="translate(1.543 1.657) rotate(162)" fill="#fc0"/>
        <path id="Path_26" data-name="Path 26" d="M0,.916V0H.458Z" transform="matrix(0.588, -0.809, 0.809, 0.588, 0.802, 1.119)" fill="#fc0"/>
        <path id="t-54" data-name="t" d="M0,.916V0H.458Z" transform="translate(1.05 0.633) rotate(90)" fill="#fc0"/>
        <path id="Path_27" data-name="Path 27" d="M0,0V.916H.458Z" transform="matrix(0.588, -0.809, 0.809, 0.588, 0.134, 0.633)" fill="#fc0"/>
        <path id="t-55" data-name="t" d="M0,.916V0H.458Z" transform="translate(0.75 0.786) rotate(18)" fill="#fc0"/>
        <path id="Path_28" data-name="Path 28" d="M0,0V.916H.458Z" transform="matrix(-0.588, -0.809, 0.809, -0.588, 0.467, 1.657)" fill="#fc0"/>
      </g>
      <g id="star-12" transform="translate(10.782 1.652)">
        <path id="t-56" data-name="t" d="M0,0V.916H.458Z" transform="translate(1.005) rotate(18)" fill="#fc0"/>
        <path id="Path_9" data-name="Path 9" d="M0,.916V0H.458Z" transform="translate(1.289 0.871) rotate(162)" fill="#fc0"/>
        <path id="t-57" data-name="t" d="M0,0V.916H.458Z" transform="translate(1.876 0.633) rotate(90)" fill="#fc0"/>
        <path id="Path_10" data-name="Path 10" d="M0,.916V0H.458Z" transform="matrix(-0.588, -0.809, 0.809, -0.588, 1.135, 1.171)" fill="#fc0"/>
        <path id="t-58" data-name="t" d="M0,0V.916H.458Z" transform="translate(1.544 1.656) rotate(162)" fill="#fc0"/>
        <path id="Path_11" data-name="Path 11" d="M0,.916V0H.458Z" transform="matrix(0.588, -0.809, 0.809, 0.588, 0.803, 1.118)" fill="#fc0"/>
        <path id="t-59" data-name="t" d="M0,.916V0H.458Z" transform="translate(1.05 0.633) rotate(90)" fill="#fc0"/>
        <path id="Path_12" data-name="Path 12" d="M0,0V.916H.458Z" transform="matrix(0.588, -0.809, 0.809, 0.588, 0.135, 0.633)" fill="#fc0"/>
        <path id="t-60" data-name="t" d="M0,.916V0H.458Z" transform="translate(0.75 0.786) rotate(18)" fill="#fc0"/>
        <path id="Path_13" data-name="Path 13" d="M0,0V.916H.458Z" transform="matrix(-0.588, -0.809, 0.809, -0.588, 0.467, 1.656)" fill="#fc0"/>
      </g>
    </g>
  </g>
</svg>
