<svg xmlns="http://www.w3.org/2000/svg" viewBox="0 0 15.768 14">
  <path d="M17.091,12.418,19,10.509v6.264A2.23,2.23,0,0,1,16.773,19H7.227A2.23,2.23,0,0,1,5,16.773V7.227A2.23,2.23,0,0,1,7.227,5h9.545a2.218,2.218,0,0,1,.481.056L15.4,6.909H7.227a.322.322,0,0,0-.318.318v9.545a.322.322,0,0,0,.318.318h9.545a.322.322,0,0,0,.318-.318Zm-6.482,2.53c-.131.326.026.484.352.352.879-.355,2.431-.983,2.444-1s-1.8-1.8-1.818-1.782ZM18.814,8.9l-1.8-1.8L12.5,11.6l1.8,1.8Zm1.861-2.311-1.35-1.35a.318.318,0,0,0-.45,0l-.961.961,1.8,1.8.961-.961a.319.319,0,0,0,0-.45Z" transform="translate(-5 -5)" fill="black"/>
</svg>