<?xml version="1.0" encoding="UTF-8"?>
<!DOCTYPE svg PUBLIC "-//W3C//DTD SVG 1.1//EN" "http://www.w3.org/Graphics/SVG/1.1/DTD/svg11.dtd">
<!-- Creator: CorelDRAW -->
<svg xmlns="http://www.w3.org/2000/svg" xml:space="preserve" width="16px" height="16px" version="1.1" shape-rendering="geometricPrecision" text-rendering="geometricPrecision" image-rendering="optimizeQuality" fill-rule="evenodd" clip-rule="evenodd"
viewBox="0 0 16 16"
 xmlns:xlink="http://www.w3.org/1999/xlink"
 xmlns:xodm="http://www.corel.com/coreldraw/odm/2003">
 <g id="Default">
  <metadata id="CorelCorpID_0Corel-Layer"/>
  <path fill="black" d="M10.92 10.84l4.08 3.5 0 -7.2 -4.08 3.7zm-5.84 0l-4.08 3.5 0 -7.2 4.08 3.7zm5.07 -0.65c-0.13,-0.11 -0.26,-0.23 -0.39,-0.34 -1.01,-0.87 -2.51,-0.87 -3.52,0 -0.13,0.11 -0.26,0.23 -0.39,0.34 -1.49,-1.35 -2.98,-2.71 -4.47,-4.06 1.84,-1.57 3.68,-3.15 5.51,-4.72 0.64,-0.55 1.58,-0.55 2.22,0 1.84,1.57 3.67,3.15 5.51,4.72 -1.49,1.35 -2.98,2.71 -4.47,4.06zm-8.38 4.81c4.15,0 8.31,0 12.46,0 -1.7,-1.46 -3.41,-2.93 -5.12,-4.39 -0.64,-0.55 -1.58,-0.55 -2.22,0 -1.7,1.46 -3.41,2.93 -5.12,4.39zm7.99 -14.35c-1.01,-0.87 -2.51,-0.87 -3.52,0 -1.96,1.69 -3.93,3.37 -5.89,5.05 -0.22,0.19 -0.35,0.47 -0.35,0.76 0,2.85 0,5.69 0,8.54 0,0.55 0.45,1 1,1 4.67,0 9.34,0 14,0 0.55,0 1,-0.45 1,-1 0,-2.85 0,-5.69 0,-8.54 0,-0.29 -0.13,-0.57 -0.35,-0.76 -1.96,-1.68 -3.93,-3.36 -5.89,-5.05z"/>
 </g>
</svg>
