<svg xmlns="http://www.w3.org/2000/svg" xml:space="preserve" width="36" height="36" fill-rule="evenodd" clip-rule="evenodd" image-rendering="optimizeQuality" shape-rendering="geometricPrecision" text-rendering="geometricPrecision" viewBox="0 0 36 36"><path fill="none" d="M0 0h36v36H0z"/><path d="M18 5.3c7 0 12.7 5.7 12.7 12.7S25 30.7 18 30.7 5.3 25 5.3 18 11 5.3 18 5.3m3.2 9.4c-.9-.9-2-1.4-3.3-1.4-1.6 0-3 .8-3.9 2.1h3.9c.5 0 .9.4.9.9s-.4.9-.9.9h-4.6c0 .2-.1.5-.1.7s0 .5.1.7h4.6c.5 0 .9.4.9.9s-.4.9-.9.9H14c.8 1.2 2.2 2.1 3.9 2.1 1.2 0 2.4-.5 3.3-1.4.4-.4.9-.4 1.3 0s.4.9 0 1.3c-1.2 1.2-2.9 1.9-4.6 1.9-2.7 0-5-1.6-5.9-3.9h-1.3c-.5 0-.9-.4-.9-.9s.4-.9.9-.9h.8v-1.4h-.8c-.5 0-.9-.4-.9-.9s.4-.9.9-.9H12c1-2.3 3.3-3.9 5.9-3.9 1.7 0 3.4.7 4.6 1.9.4.4.4.9 0 1.3s-.9.4-1.3 0M18 7.4c5.9 0 10.6 4.7 10.6 10.6S23.9 28.6 18 28.6 7.4 23.9 7.4 18 12.1 7.4 18 7.4"/></svg>