<svg width="26" height="26" viewBox="0 0 26 26" fill="none" xmlns="http://www.w3.org/2000/svg">
<path fill-rule="evenodd" clip-rule="evenodd" d="M13 3C19.1 3 24 7.9 24 14C24 20.1 19.1 25 13 25C6.9 25 2 20.1 2 14C2 7.9 6.9 3 13 3ZM15.7 11.2C14.9 10.4 13.9 10 12.9 10C11.5 10 10.3 10.7 9.6 11.8H13C13.4 11.8 13.8 12.2 13.8 12.6C13.8 13 13.4 13.4 13 13.4H9C9 13.6 9 13.8 9 14C9 14.2 9 14.4 9 14.6H13C13.4 14.6 13.8 15 13.8 15.4C13.8 15.8 13.4 16.2 13 16.2H9.6C10.3 17.3 11.5 18 12.9 18C14 18 15 17.6 15.7 16.8C16 16.5 16.5 16.5 16.8 16.8C17.1 17.1 17.1 17.6 16.8 17.9C15.7 19 14.3 19.5 12.8 19.5C10.5 19.5 8.5 18.1 7.7 16.1H6.6C6.2 16.1 5.8 15.7 5.8 15.3C5.8 14.9 6.2 14.5 6.6 14.5H7.3C7.3 14.3 7.3 14.1 7.3 13.9C7.3 13.7 7.3 13.5 7.3 13.3H6.6C6.2 13.3 5.8 12.9 5.8 12.5C5.8 12.1 6.2 11.7 6.6 11.7H7.7C8.6 9.7 10.5 8.3 12.8 8.3C14.3 8.3 15.7 8.9 16.8 9.9C17.1 10.2 17.1 10.7 16.8 11C16.5 11.3 16 11.3 15.7 11V11.2ZM13 4.9C18.1 4.9 22.2 9 22.2 14.1C22.2 19.2 18.1 23.3 13 23.3C7.9 23.3 3.8 19.2 3.8 14.1C3.8 9 7.9 4.9 13 4.9Z" fill="white"/>
</svg>
