<svg xmlns="http://www.w3.org/2000/svg" width="28.5" height="28.5" viewBox="0 0 28.5 28.5">
  <path id="faceauth" d="M9005.9-15.5v-2.85h2.853a1.9,1.9,0,0,0,1.9-1.9V-23.1h2.85v2.85a4.754,4.754,0,0,1-4.748,4.748Zm-16.148,0A4.755,4.755,0,0,1,8985-20.248V-23.1h2.852v2.85a1.9,1.9,0,0,0,1.9,1.9h2.847v2.85Zm5.1-7.783a7.839,7.839,0,0,1-2.868-3.617h2.354a5.854,5.854,0,0,0,2.087,2.085,5.478,5.478,0,0,0,2.828.765,5.484,5.484,0,0,0,2.832-.765,5.861,5.861,0,0,0,2.084-2.085h2.354a7.83,7.83,0,0,1-2.873,3.617,7.542,7.542,0,0,1-4.4,1.371A7.557,7.557,0,0,1,8994.847-23.283Zm7.875-8.516a2.053,2.053,0,0,1-.623-1.513,2.061,2.061,0,0,1,.623-1.515,2.062,2.062,0,0,1,1.516-.623,2.062,2.062,0,0,1,1.511.623,2.066,2.066,0,0,1,.624,1.515,2.058,2.058,0,0,1-.624,1.513,2.054,2.054,0,0,1-1.511.623A2.054,2.054,0,0,1,9002.722-31.8Zm-9.975,0a2.051,2.051,0,0,1-.625-1.513,2.059,2.059,0,0,1,.625-1.515,2.06,2.06,0,0,1,1.513-.623,2.071,2.071,0,0,1,1.518.623,2.07,2.07,0,0,1,.62,1.515,2.062,2.062,0,0,1-.62,1.513,2.063,2.063,0,0,1-1.518.623A2.052,2.052,0,0,1,8992.747-31.8Zm20.747-4.6h-2.847v-2.85a1.9,1.9,0,0,0-1.9-1.9H9005.9V-44h2.853a4.756,4.756,0,0,1,4.748,4.752v2.85Zm-28.5,0v-2.85A4.757,4.757,0,0,1,8989.748-44h2.847v2.85h-2.847a1.9,1.9,0,0,0-1.9,1.9v2.85Z" transform="translate(-8984.997 44)" fill="#6e6e6e"/>
</svg>
