<svg xmlns="http://www.w3.org/2000/svg" xml:space="preserve" fill-rule="evenodd" viewBox="0 0 36 36"><path fill="none" d="M0 0h36v36H0z"/><path d="M9.1 31.7H5.2c-.7 0-1.3-.6-1.3-1.4l.1-2.5h6l.1 2.9c0 .5-.4 1-.9 1zm18.7-9.3v-1.5c0-.5.2-.8.8-.8h1.5c.5 0 .8.2.8.8v1.5c0 .5-.2.8-.8.8h-1.5c-.5 0-.8-.2-.8-.8m-5.3.8H21c-.5 0-.8-.2-.8-.8v-1.5c0-.5.2-.8.8-.8h1.5c.5 0 .8.2.8.8v1.5c0 .5-.2.8-.8.8m1.5-.8v-1.5c0-.5.2-.8.8-.8h1.5c.5 0 .8.2.8.8v1.5c0 .5-.2.8-.8.8h-1.5c-.5 0-.8-.2-.8-.8m-10.5.8H15c.5 0 .8-.2.8-.8v-1.5c0-.5-.2-.8-.8-.8h-1.5c-.5 0-.8.2-.8.8v1.5c0 .5.2.8.8.8m3.8 0h1.5c.5 0 .8-.2.8-.8v-1.5c0-.5-.2-.8-.8-.8h-1.5c-.5 0-.8.2-.8.8v1.5c0 .5.2.8.8.8M4 27l.6-18.5h4.7L9.9 27zm.7-19.4.1-2.2c0-.5.4-.9.9-.9h2.6c.5 0 .9.4.9.9l.1 2.2zm27.6 20.3v2.4c0 .8-.7 1.5-1.5 1.5H12c-.5 0-.9-.4-.9-.9l-.1-3zm0-.9H11l-.4-10.6 7.3-5.1v5.1l7.2-5.1v5.1l7.2-5.1z"/></svg>