<svg width="59" height="32" viewBox="0 0 59 32" fill="none" xmlns="http://www.w3.org/2000/svg">
<g clip-path="url(#clip0_353_2727)">
<path d="M7 15C10.866 15 14 11.866 14 8C14 4.13401 10.866 1 7 1C3.13401 1 0 4.13401 0 8C0 11.866 3.13401 15 7 15Z" fill="white"/>
<path d="M7 14.5C10.5899 14.5 13.5 11.5899 13.5 8C13.5 4.41015 10.5899 1.5 7 1.5C3.41015 1.5 0.5 4.41015 0.5 8C0.5 11.5899 3.41015 14.5 7 14.5Z" stroke="#CCCCCC"/>
<path d="M7 31C10.866 31 14 27.866 14 24C14 20.134 10.866 17 7 17C3.13401 17 0 20.134 0 24C0 27.866 3.13401 31 7 31Z" fill="white"/>
<path d="M7 30.5C10.5899 30.5 13.5 27.5899 13.5 24C13.5 20.4101 10.5899 17.5 7 17.5C3.41015 17.5 0.5 20.4101 0.5 24C0.5 27.5899 3.41015 30.5 7 30.5Z" stroke="#009584"/>
<path d="M22 15C25.866 15 29 11.866 29 8C29 4.13401 25.866 1 22 1C18.134 1 15 4.13401 15 8C15 11.866 18.134 15 22 15Z" fill="white"/>
<path d="M22 14.5C25.5899 14.5 28.5 11.5899 28.5 8C28.5 4.41015 25.5899 1.5 22 1.5C18.4101 1.5 15.5 4.41015 15.5 8C15.5 11.5899 18.4101 14.5 22 14.5Z" stroke="#CCCCCC"/>
<path d="M22 12C24.2091 12 26 10.2091 26 8C26 5.79086 24.2091 4 22 4C19.7909 4 18 5.79086 18 8C18 10.2091 19.7909 12 22 12Z" fill="#009584"/>
<path d="M44 1H30V15H44V1Z" fill="white"/>
<path d="M43.5 1.5H30.5V14.5H43.5V1.5Z" stroke="#CCCCCC"/>
<path d="M44 17H30V31H44V17Z" fill="white"/>
<path d="M43.5 17.5H30.5V30.5H43.5V17.5Z" stroke="#009584"/>
<path d="M59 1H45V15H59V1Z" fill="white"/>
<path d="M58.5 1.5H45.5V14.5H58.5V1.5Z" stroke="#CCCCCC"/>
<path d="M58.7468 4.481L57.5188 3.253C57.3555 3.09105 57.1348 3.00018 56.9048 3.00018C56.6748 3.00018 56.4541 3.09105 56.2908 3.253L50.3658 9.187L47.7098 6.522C47.5465 6.36005 47.3258 6.26918 47.0958 6.26918C46.8658 6.26918 46.6451 6.36005 46.4818 6.522L45.2538 7.75C45.0918 7.91332 45.001 8.134 45.001 8.364C45.001 8.594 45.0918 8.81468 45.2538 8.978L48.5238 12.248L49.7518 13.476C49.9151 13.638 50.1358 13.7288 50.3658 13.7288C50.5958 13.7288 50.8165 13.638 50.9798 13.476L52.2078 12.248L58.7468 5.709C58.9087 5.54568 58.9996 5.325 58.9996 5.095C58.9996 4.865 58.9087 4.64432 58.7468 4.481Z" fill="#009584"/>
</g>
<defs>
<clipPath id="clip0_353_2727">
<rect width="59" height="32" fill="white"/>
</clipPath>
</defs>
</svg>
