<svg width="36" height="36" viewBox="0 0 36 36" fill="none" xmlns="http://www.w3.org/2000/svg">
<g clip-path="url(#clip0_353_2824)">
<path d="M0 36H36V0H0V36Z" fill="#009584"/>
<path fill-rule="evenodd" clip-rule="evenodd" d="M11.5 23C15.83 23 20.17 23 24.5 23C24.78 23 25 22.78 25 22.5C25 22.22 24.78 22 24.5 22C20.17 22 15.83 22 11.5 22C11.22 22 11 22.22 11 22.5C11 22.78 11.22 23 11.5 23ZM18.5 24.5C18.5 24.22 18.28 24 18 24C17.72 24 17.5 24.22 17.5 24.5C17.5 24.78 17.72 25 18 25C18.28 25 18.5 24.78 18.5 24.5ZM18.5 20.5C18.5 20.22 18.28 20 18 20C17.72 20 17.5 20.22 17.5 20.5C17.5 20.78 17.72 21 18 21C18.28 21 18.5 20.78 18.5 20.5ZM18.5 16.5C18.5 16.22 18.28 16 18 16C17.72 16 17.5 16.22 17.5 16.5C17.5 16.78 17.72 17 18 17C18.28 17 18.5 16.78 18.5 16.5ZM18.5 12.5C18.5 12.23 18.28 12 18 12C17.72 12 17.5 12.23 17.5 12.5C17.5 12.78 17.72 13 18 13C18.28 13 18.5 12.78 18.5 12.5ZM23 12.5C23 12.23 22.78 12 22.5 12C22.22 12 22 12.23 22 12.5C22 12.78 22.22 13 22.5 13C22.78 13 23 12.78 23 12.5ZM23 16.5C23 16.22 22.78 16 22.5 16C22.22 16 22 16.22 22 16.5C22 16.78 22.22 17 22.5 17C22.78 17 23 16.78 23 16.5ZM23 20.5C23 20.22 22.78 20 22.5 20C22.22 20 22 20.22 22 20.5C22 20.78 22.22 21 22.5 21C22.78 21 23 20.78 23 20.5ZM23 24.5C23 24.22 22.78 24 22.5 24C22.22 24 22 24.22 22 24.5C22 24.78 22.22 25 22.5 25C22.78 25 23 24.78 23 24.5ZM14 24.5C14 24.22 13.78 24 13.5 24C13.22 24 13 24.22 13 24.5C13 24.78 13.22 25 13.5 25C13.78 25 14 24.78 14 24.5ZM14 20.5C14 20.22 13.78 20 13.5 20C13.22 20 13 20.22 13 20.5C13 20.78 13.22 21 13.5 21C13.78 21 14 20.78 14 20.5ZM14 16.5C14 16.22 13.78 16 13.5 16C13.22 16 13 16.22 13 16.5C13 16.78 13.22 17 13.5 17C13.78 17 14 16.78 14 16.5ZM14 12.5C14 12.23 13.78 12 13.5 12C13.22 12 13 12.23 13 12.5C13 12.78 13.22 13 13.5 13C13.78 13 14 12.78 14 12.5ZM11.5 15C15.83 15 20.17 15 24.5 15C24.78 15 25 14.78 25 14.5C25 14.23 24.78 14 24.5 14C20.17 14 15.83 14 11.5 14C11.22 14 11 14.23 11 14.5C11 14.78 11.22 15 11.5 15ZM11.5 19C15.83 19 20.17 19 24.5 19C24.78 19 25 18.78 25 18.5C25 18.22 24.78 18 24.5 18C20.17 18 15.83 18 11.5 18C11.22 18 11 18.22 11 18.5C11 18.78 11.22 19 11.5 19ZM10 11V26H26V11H10ZM12 8C11 8 10 8 9 8C8.45 8 8 8.45 8 9C8 15 8 21 8 27C8 27.55 8.45 28 9 28C15 28 21 28 27 28C27.55 28 28 27.55 28 27C28 21 28 15 28 9C28 8.45 27.55 8 27 8C26 8 25 8 24 8C24 9.11 23.1 10 22 10C20.89 10 20 9.11 20 8C18.67 8 17.33 8 16 8C16 9.11 15.11 10 14 10C12.9 10 12 9.11 12 8ZM15 8C15 7.67 15 7.33 15 7C15 6.45 14.55 6 14 6C13.45 6 13 6.45 13 7C13 7.33 13 7.67 13 8C13 8.55 13.45 9 14 9C14.55 9 15 8.55 15 8ZM23 8C23 7.67 23 7.33 23 7C23 6.45 22.55 6 22 6C21.45 6 21 6.45 21 7C21 7.33 21 7.67 21 8C21 8.55 21.45 9 22 9C22.55 9 23 8.55 23 8Z" fill="white"/>
</g>
<defs>
<clipPath id="clip0_353_2824">
<rect width="36" height="36" fill="white"/>
</clipPath>
</defs>
</svg>
