<?xml version="1.0" encoding="UTF-8"?>
<!DOCTYPE svg PUBLIC "-//W3C//DTD SVG 1.1//EN" "http://www.w3.org/Graphics/SVG/1.1/DTD/svg11.dtd">
<!-- Creator: CorelDRAW -->
<svg xmlns="http://www.w3.org/2000/svg" xml:space="preserve" width="36px" height="36px" version="1.1" shape-rendering="geometricPrecision" text-rendering="geometricPrecision" image-rendering="optimizeQuality" fill-rule="evenodd" clip-rule="evenodd"
viewBox="0 0 36 36"
 xmlns:xlink="http://www.w3.org/1999/xlink"
 xmlns:xodm="http://www.corel.com/coreldraw/odm/2003">
 <g id="Layer_x0020_1">
  <metadata id="CorelCorpID_0Corel-Layer"/>
  <rect fill="#6E6E6E" width="36" height="36"/>
  <path fill="white" d="M28 8.91c0,-0.5 -0.41,-0.91 -0.91,-0.91 -1.3,0 -2.61,0 -3.91,0 0,0.85 -0.69,1.54 -1.54,1.54 -0.86,0 -1.55,-0.69 -1.55,-1.54 -1.39,0 -2.79,0 -4.18,0 0,0.85 -0.69,1.54 -1.55,1.54 -0.85,0 -1.54,-0.69 -1.54,-1.54 -1.3,0 -2.61,0 -3.91,0 -0.5,0 -0.91,0.41 -0.91,0.91 0,6.06 0,12.12 0,18.18 0,0.5 0.41,0.91 0.91,0.91 6.06,0 12.12,0 18.18,0 0.5,0 0.91,-0.41 0.91,-0.91 0,-6.06 0,-12.12 0,-18.18zm-16.82 9.09l2.43 0 0 -2.27c0,-0.25 0.2,-0.46 0.45,-0.46 0.25,0 0.46,0.21 0.46,0.46l0 2.27 3.03 0 0 -2.27c0,-0.25 0.2,-0.46 0.45,-0.46 0.25,0 0.45,0.21 0.45,0.46l0 2.27 3.03 0 0 -2.27c0,-0.25 0.21,-0.46 0.46,-0.46 0.25,0 0.45,0.21 0.45,0.46l0 2.27 2.43 0c0.25,0 0.45,0.2 0.45,0.45 0,0.25 -0.2,0.46 -0.45,0.46l-2.43 0 0 2.72 2.43 0c0.25,0 0.45,0.21 0.45,0.46 0,0.25 -0.2,0.45 -0.45,0.45l-2.43 0 0 2.28c0,0.25 -0.2,0.45 -0.45,0.45 -0.25,0 -0.46,-0.2 -0.46,-0.45l0 -2.28 -3.03 0 0 2.28c0,0.25 -0.2,0.45 -0.45,0.45 -0.25,0 -0.45,-0.2 -0.45,-0.45l0 -2.28 -3.03 0 0 2.28c0,0.25 -0.21,0.45 -0.46,0.45 -0.25,0 -0.45,-0.2 -0.45,-0.45l0 -2.28 -2.43 0c-0.25,0 -0.45,-0.2 -0.45,-0.45 0,-0.25 0.2,-0.46 0.45,-0.46l2.43 0 0 -2.72 -2.43 0c-0.25,0 -0.45,-0.21 -0.45,-0.46 0,-0.25 0.2,-0.45 0.45,-0.45zm10.3 0.91l-3.03 0 0 2.72 3.03 0 0 -2.72zm-3.93 0l-3.03 0 0 2.72 3.03 0 0 -2.72zm-6.82 -4.55l14.54 0 0 -2.72 -14.54 0 0 2.72zm-0.91 -3.63l0 15.45 16.36 0 0 -15.45 -16.36 0zm3.64 -2.73c0,-0.3 0,-0.61 0,-0.91 0,-0.5 0.4,-0.91 0.9,-0.91 0.51,0 0.91,0.41 0.91,0.91 0,0.3 0,0.61 0,0.91 0,0.5 -0.4,0.91 -0.91,0.91 -0.5,0 -0.9,-0.41 -0.9,-0.91zm7.27 0c0,-0.3 0,-0.61 0,-0.91 0,-0.5 0.4,-0.91 0.91,-0.91 0.5,0 0.9,0.41 0.9,0.91 0,0.3 0,0.61 0,0.91 0,0.5 -0.4,0.91 -0.9,0.91 -0.51,0 -0.91,-0.41 -0.91,-0.91z"/>
 </g>
</svg>
