<svg xmlns="http://www.w3.org/2000/svg" width="36" height="36" viewBox="0 0 36 36">
  <g id="field-faceauth" transform="translate(-201 -356)">
    <rect id="Rectangle_15" data-name="Rectangle 15" width="36" height="36" transform="translate(201 356)" fill="#004a5d"/>
    <path id="faceauth" d="M9001.13-22v-2.2h2.2a1.469,1.469,0,0,0,1.466-1.465v-2.2h2.2v2.2A3.67,3.67,0,0,1,9003.332-22Zm-12.465,0A3.671,3.671,0,0,1,8985-25.665v-2.2h2.2v2.2a1.466,1.466,0,0,0,1.467,1.465h2.2V-22Zm3.936-6.008a6.052,6.052,0,0,1-2.214-2.792h1.816a4.516,4.516,0,0,0,1.611,1.609A4.227,4.227,0,0,0,8996-28.6a4.235,4.235,0,0,0,2.187-.591,4.523,4.523,0,0,0,1.608-1.609h1.817a6.041,6.041,0,0,1-2.218,2.792A5.821,5.821,0,0,1,8996-26.949,5.833,5.833,0,0,1,8992.6-28.008Zm6.079-6.574a1.584,1.584,0,0,1-.481-1.168,1.59,1.59,0,0,1,.481-1.17,1.591,1.591,0,0,1,1.17-.481,1.592,1.592,0,0,1,1.166.481,1.594,1.594,0,0,1,.481,1.17,1.588,1.588,0,0,1-.481,1.168,1.585,1.585,0,0,1-1.166.481A1.585,1.585,0,0,1,8998.68-34.582Zm-7.7,0a1.585,1.585,0,0,1-.482-1.168,1.591,1.591,0,0,1,.482-1.17,1.591,1.591,0,0,1,1.168-.481,1.6,1.6,0,0,1,1.172.481,1.6,1.6,0,0,1,.479,1.17,1.593,1.593,0,0,1-.479,1.168,1.594,1.594,0,0,1-1.172.481A1.585,1.585,0,0,1,8990.979-34.582ZM9007-38.132h-2.2v-2.2a1.47,1.47,0,0,0-1.466-1.468h-2.2V-44h2.2A3.671,3.671,0,0,1,9007-40.332v2.2Zm-22,0v-2.2A3.673,3.673,0,0,1,8988.665-44h2.2v2.2h-2.2a1.467,1.467,0,0,0-1.467,1.468v2.2Z" transform="translate(-8776.997 407)" fill="#fff"/>
  </g>
</svg>
