<svg xmlns="http://www.w3.org/2000/svg" width="22" height="22" viewBox="0 0 22 22">
  <g id="field-calendar" transform="translate(-201 -126)">
    <rect id="Rectangle_10" data-name="Rectangle 10" width="22" height="22" transform="translate(201 126)" fill="#268fa3"/>
    <g id="calendar" transform="translate(204 129)">
      <path id="Path_23" data-name="Path 23" d="M14.783,1.6h-.028V3.031a1.639,1.639,0,0,1-3.279,0V1.6H6.271V3.031a1.64,1.64,0,0,1-3.28,0V1.6H2.266A1.64,1.64,0,0,0,.625,3.244V14.471A1.639,1.639,0,0,0,2.266,16.11c.011,0,.023,0,.036,0H14.725v0c.02,0,.039.006.059.006a1.639,1.639,0,0,0,1.641-1.639V3.244A1.641,1.641,0,0,0,14.783,1.6Zm-.217,5.9v6.765H2.484V5.038H14.566V7.5Z" transform="translate(-0.625 -0.11)" fill="#fff"/>
      <path id="Path_25" data-name="Path 25" d="M6.625,6.771V8.326h2v-2h-2Z" transform="translate(-2.855 0.393)" fill="#fff"/>
      <rect id="Rectangle_5" data-name="Rectangle 5" width="2" height="2" transform="translate(3.77 9.479)" fill="#fff"/>
      <path id="Path_26" data-name="Path 26" d="M9.625,6.771V8.326h2v-2h-2Z" transform="translate(-2.725 0.393)" fill="#fff"/>
      <rect id="Rectangle_7" data-name="Rectangle 7" width="2" height="2" transform="translate(6.9 9.479)" fill="#fff"/>
      <path id="Path_27" data-name="Path 27" d="M12.625,6.771V8.326h2v-2h-2Z" transform="translate(-2.595 0.393)" fill="#fff"/>
      <rect id="Rectangle_9" data-name="Rectangle 9" width="2" height="2" transform="translate(10.03 9.479)" fill="#fff"/>
      <path id="Path_28" data-name="Path 28" d="M4.936,4.167A1.016,1.016,0,0,0,5.951,3.151V1.126h0a1.015,1.015,0,1,0-2.03,0h0V3.15A1.016,1.016,0,0,0,4.936,4.167Z" transform="translate(-0.889 -0.11)" fill="#fff"/>
      <path id="Path_29" data-name="Path 29" d="M14.065,4.167a1.015,1.015,0,0,0,1.014-1.016V1.126h0a1.014,1.014,0,1,0-2.028,0h0V3.151A1.017,1.017,0,0,0,14.065,4.167Z" transform="translate(-1.826 -0.11)" fill="#fff"/>
    </g>
  </g>
</svg>
