<svg width="21" height="21" viewBox="0 0 21 21" fill="none" xmlns="http://www.w3.org/2000/svg">
<g clip-path="url(#clip0_353_2760)">
<path d="M0 0H1V2H0V0ZM2 0H3V1H2V0ZM4 0H5V1H4V0ZM6 0H7V1H6V0ZM8 0H9V1H8V0ZM10 0H11V1H10V0ZM12 0H13V1H12V0ZM14 0H15V1H14V0ZM16 0H17V1H16V0ZM18 0H19V1H18V0ZM20 0H21V1V2H20V0ZM20 3H21V4H20V3ZM20 5H21V6H20V5ZM20 7H21V8H20V7ZM20 9H21V10H20V9ZM20 11H21V12H20V11ZM20 13H21V14H20V13ZM20 15H21V16H20V15ZM20 17H21V18H20V17ZM20 19H21V20V21H20V19ZM18 20H19V21H18V20ZM16 20H17V21H16V20ZM14 20H15V21H14V20ZM12 20H13V21H12V20ZM10 20H11V21H10V20ZM8 20H9V21H8V20ZM6 20H7V21H6V20ZM4 20H5V21H4V20ZM2 20H3V21H2V20ZM0 20H1V21H0V20ZM0 19H1V20H0V19ZM0 17H1V18H0V17ZM0 15H1V16H0V15ZM0 13H1V14H0V13ZM0 11H1V12H0V11ZM0 9H1V10H0V9ZM0 7H1V8H0V7ZM0 5H1V6H0V5ZM0 3H1V4H0V3Z" fill="#009584"/>
<path d="M14.1152 9.13498C14.0741 9.09188 14.0246 9.05766 13.9697 9.03445C13.9148 9.01123 13.8558 8.9995 13.7962 8.99998H7.45321C7.36357 8.99954 7.27583 9.02583 7.2012 9.07548C7.12656 9.12513 7.06842 9.1959 7.03419 9.27874C6.99995 9.36159 6.99118 9.45276 7.009 9.54061C7.02681 9.62847 7.07041 9.70902 7.13421 9.77198L10.3082 12.946C10.3497 12.9886 10.3993 13.0225 10.4541 13.0457C10.5089 13.0688 10.5677 13.0807 10.6272 13.0807C10.6867 13.0807 10.7456 13.0688 10.8004 13.0457C10.8551 13.0225 10.9047 12.9886 10.9462 12.946L14.1152 9.77198C14.1578 9.73051 14.1917 9.68092 14.2149 9.62613C14.238 9.57134 14.2499 9.51246 14.2499 9.45298C14.2499 9.39351 14.238 9.33463 14.2149 9.27984C14.1917 9.22505 14.1578 9.17645 14.1152 9.13498Z" fill="#009584"/>
</g>
<defs>
<clipPath id="clip0_353_2760">
<rect width="21" height="21" fill="white"/>
</clipPath>
</defs>
</svg>
