<svg xmlns="http://www.w3.org/2000/svg" width="59" height="32" viewBox="0 0 59 32">
  <g id="field-radio-check-s" transform="translate(-284 -821)">
    <rect id="Rectangle_32" data-name="Rectangle 32" width="59" height="32" transform="translate(284 821)" fill="none" opacity="0.5"/>
    <g id="Ellipse_4" data-name="Ellipse 4" transform="translate(284 822)" fill="#fff" stroke="#ccc" stroke-width="1">
      <circle cx="7" cy="7" r="7" stroke="none"/>
      <circle cx="7" cy="7" r="6.5" fill="none"/>
    </g>
    <g id="Ellipse_35" data-name="Ellipse 35" transform="translate(284 838)" fill="#fff" stroke="#2a77d1" stroke-width="1">
      <circle cx="7" cy="7" r="7" stroke="none"/>
      <circle cx="7" cy="7" r="6.5" fill="none"/>
    </g>
    <g id="Rectangle_33" data-name="Rectangle 33" transform="translate(314 822)" fill="#fff" stroke="#ccc" stroke-width="1">
      <rect width="14" height="14" stroke="none"/>
      <rect x="0.5" y="0.5" width="13" height="13" fill="none"/>
    </g>
    <g id="Rectangle_144" data-name="Rectangle 144" transform="translate(314 838)" fill="#fff" stroke="#2a77d1" stroke-width="1">
      <rect width="14" height="14" stroke="none"/>
      <rect x="0.5" y="0.5" width="13" height="13" fill="none"/>
    </g>
    <g id="CHECK" transform="translate(299 821.948)">
      <rect id="Rectangle_106" data-name="Rectangle 106" width="14" height="14" rx="7" transform="translate(0 0.052)" fill="#2a77d1"/>
      <path id="Path_125" data-name="Path 125" d="M12,7.052l-4.357,4.2L5,8.792" transform="translate(-1.5 -2.1)" fill="none" stroke="#fff" stroke-linecap="round" stroke-linejoin="round" stroke-width="2"/>
    </g>
    <g id="CHECK-2" data-name="CHECK" transform="translate(329 821.948)">
      <rect id="Rectangle_18" data-name="Rectangle 18" width="14" height="14" transform="translate(0 0.052)" fill="#2a77d1"/>
      <path id="Path_125-2" data-name="Path 125" d="M12,7.052l-4.357,4.2L5,8.792" transform="translate(-1.5 -2.1)" fill="none" stroke="#fff" stroke-linecap="round" stroke-linejoin="round" stroke-width="2"/>
    </g>
  </g>
</svg>
