<svg width="36" height="36" viewBox="0 0 36 36" fill="none" xmlns="http://www.w3.org/2000/svg">
<g clip-path="url(#clip0_353_2829)">
<path d="M0 36H36V0H0V36Z" fill="#009584"/>
<path d="M22.5 18C22.5 17.17 23.17 16.5 24 16.5C24.83 16.5 25.5 17.17 25.5 18C25.5 18.83 24.83 19.5 24 19.5C23.17 19.5 22.5 18.83 22.5 18ZM19.5 18C19.5 17.17 18.83 16.5 18 16.5C17.17 16.5 16.5 17.17 16.5 18C16.5 18.83 17.17 19.5 18 19.5C18.83 19.5 19.5 18.83 19.5 18ZM10.5 18C10.5 17.17 11.17 16.5 12 16.5C12.83 16.5 13.5 17.17 13.5 18C13.5 18.83 12.83 19.5 12 19.5C11.17 19.5 10.5 18.83 10.5 18Z" fill="white"/>
</g>
<defs>
<clipPath id="clip0_353_2829">
<rect width="36" height="36" fill="white"/>
</clipPath>
</defs>
</svg>
