<svg xmlns="http://www.w3.org/2000/svg" width="36" height="36" viewBox="0 0 36 36">
  <g id="field-upload" transform="translate(-201 -356)">
    <rect id="Rectangle_15" data-name="Rectangle 15" width="36" height="36" transform="translate(201 356)" fill="#268fa3"/>
    <path id="cloud-upload" d="M22.333,14.208a5.278,5.278,0,0,1-1.365,3.541A4.6,4.6,0,0,1,17.7,19.166H17.02V17.041H17.7a2.48,2.48,0,0,0,1.695-.716,3.156,3.156,0,0,0,.818-2.117,3.546,3.546,0,0,0-3.542-3.542,3.612,3.612,0,0,0-.5.04l-.866.119L15.016,10a4.245,4.245,0,0,0-8.15,2.348l.227.97-.955.288a2.105,2.105,0,0,0-1.514,2.02,1.427,1.427,0,0,0,.293.87,1.716,1.716,0,0,0,1.267.546H7.812v2.125H6.185a3.792,3.792,0,0,1-3-1.442,3.566,3.566,0,0,1-.685-2.1,4.206,4.206,0,0,1,2.152-3.683c-.018-.19-.027-.38-.027-.567A6.372,6.372,0,0,1,16.706,8.541,5.673,5.673,0,0,1,22.333,14.208Zm-9.63-.67a.354.354,0,0,0-.572,0L9.468,17.186a.354.354,0,0,0,.286.563h1.6v3.9a.354.354,0,0,0,.354.354h1.417a.354.354,0,0,0,.354-.354v-3.9h1.6a.354.354,0,0,0,.286-.563Z" transform="translate(206.5 361.001)" fill="#fff"/>
  </g>
</svg>
