<svg width="22" height="22" viewBox="0 0 22 22" fill="none" xmlns="http://www.w3.org/2000/svg">
<g clip-path="url(#clip0_353_2714)">
<path d="M22 0H0V22H22V0Z" fill="#009584"/>
<path d="M17.158 4.49001H17.13V5.92101C17.13 6.35583 16.9573 6.77284 16.6498 7.08031C16.3423 7.38777 15.9253 7.56051 15.4905 7.56051C15.0557 7.56051 14.6387 7.38777 14.3312 7.08031C14.0237 6.77284 13.851 6.35583 13.851 5.92101V4.49001H8.646V5.92101C8.646 6.35596 8.47322 6.7731 8.16566 7.08066C7.8581 7.38822 7.44096 7.56101 7.006 7.56101C6.57105 7.56101 6.15391 7.38822 5.84635 7.08066C5.53879 6.7731 5.366 6.35596 5.366 5.92101V4.49001H4.641C4.42522 4.48987 4.21152 4.53233 4.01217 4.61494C3.81282 4.69755 3.63173 4.81868 3.47929 4.97141C3.32684 5.12414 3.20603 5.30544 3.12379 5.50495C3.04154 5.70445 2.99948 5.91822 3 6.13401V17.361C3 17.5764 3.04246 17.7897 3.12496 17.9887C3.20745 18.1877 3.32836 18.3684 3.48076 18.5207C3.63317 18.6729 3.81409 18.7936 4.01317 18.8758C4.21226 18.9581 4.4256 19.0003 4.641 19C4.652 19 4.664 19 4.677 19H17.1C17.12 19 17.139 19.006 17.159 19.006C17.3744 19.0063 17.5878 18.9641 17.7868 18.8818C17.9859 18.7996 18.1668 18.6789 18.3192 18.5267C18.4717 18.3744 18.5926 18.1937 18.6751 17.9947C18.7575 17.7957 18.8 17.5824 18.8 17.367V6.13401C18.8004 5.91817 18.7582 5.70438 18.6759 5.50487C18.5935 5.30536 18.4726 5.12406 18.3201 4.97135C18.1676 4.81864 17.9864 4.69752 17.787 4.61492C17.5876 4.53232 17.3738 4.48987 17.158 4.49001ZM16.941 10.39V17.155H4.859V7.92801H16.941V10.39Z" fill="white"/>
<path d="M6.77002 10.164V11.719H8.77002V9.71901H6.77002V10.164Z" fill="white"/>
<path d="M8.77002 12.479H6.77002V14.479H8.77002V12.479Z" fill="white"/>
<path d="M9.8999 10.164V11.719H11.8999V9.71901H9.8999V10.164Z" fill="white"/>
<path d="M11.8999 12.479H9.8999V14.479H11.8999V12.479Z" fill="white"/>
<path d="M13.0298 10.164V11.719H15.0298V9.71901H13.0298V10.164Z" fill="white"/>
<path d="M15.0298 12.479H13.0298V14.479H15.0298V12.479Z" fill="white"/>
<path d="M7.04723 7.05701C7.31651 7.05674 7.57468 6.94958 7.765 6.75907C7.95532 6.56857 8.06223 6.31029 8.06223 6.04101V4.01601C8.06223 3.74681 7.95529 3.48864 7.76494 3.29829C7.57459 3.10794 7.31642 3.00101 7.04723 3.00101C6.77803 3.00101 6.51986 3.10794 6.32951 3.29829C6.13916 3.48864 6.03223 3.74681 6.03223 4.01601V6.04001C6.0321 6.17343 6.05825 6.30557 6.10918 6.42889C6.16012 6.55221 6.23485 6.66428 6.3291 6.75872C6.42335 6.85316 6.53528 6.92811 6.6585 6.97929C6.78171 7.03047 6.9138 7.05688 7.04723 7.05701Z" fill="white"/>
<path d="M15.2391 7.05701C15.3724 7.05688 15.5043 7.0305 15.6274 6.97937C15.7505 6.92824 15.8624 6.85336 15.9565 6.75902C16.0507 6.66468 16.1253 6.55271 16.1762 6.42951C16.2271 6.30632 16.2532 6.17431 16.2531 6.04101V4.01601C16.2531 3.74708 16.1463 3.48917 15.9561 3.29901C15.7659 3.10885 15.508 3.00201 15.2391 3.00201C14.9702 3.00201 14.7123 3.10885 14.5221 3.29901C14.3319 3.48917 14.2251 3.74708 14.2251 4.01601V6.04101C14.2254 6.31005 14.3322 6.56802 14.5223 6.75844C14.7123 6.94886 14.9701 7.05622 15.2391 7.05701Z" fill="white"/>
</g>
<defs>
<clipPath id="clip0_353_2714">
<rect width="22" height="22" fill="white"/>
</clipPath>
</defs>
</svg>
