<svg xmlns="http://www.w3.org/2000/svg" width="120" height="48" viewBox="0 0 120 48">
  <g id="field-radio-check" transform="translate(-113 -460)">
    <rect id="Rectangle_16" data-name="Rectangle 16" width="120" height="48" transform="translate(113 460)" fill="none"/>
    <g id="Ellipse_1" data-name="Ellipse 1" transform="translate(115 462)" fill="#fff" stroke="#b2b2b2" stroke-width="1">
      <circle cx="10" cy="10" r="10" stroke="none"/>
      <circle cx="10" cy="10" r="9.5" fill="none"/>
    </g>
    <g id="Ellipse_34" data-name="Ellipse 34" transform="translate(115 486)" fill="#fff" stroke="#2a77d1" stroke-width="1">
      <circle cx="10" cy="10" r="10" stroke="none"/>
      <circle cx="10" cy="10" r="9.5" fill="none"/>
    </g>
    <g id="Rectangle_17" data-name="Rectangle 17" transform="translate(163 462)" fill="#fff" stroke="#b2b2b2" stroke-width="1">
      <rect width="20" height="20" stroke="none"/>
      <rect x="0.5" y="0.5" width="19" height="19" fill="none"/>
    </g>
    <g id="Rectangle_143" data-name="Rectangle 143" transform="translate(163 486)" fill="#fff" stroke="#2a77d1" stroke-width="1">
      <rect width="20" height="20" stroke="none"/>
      <rect x="0.5" y="0.5" width="19" height="19" fill="none"/>
    </g>
    <g id="Rectangle_19" data-name="Rectangle 19" transform="translate(211 462)" fill="#fff" stroke="#cc004c" stroke-width="1">
      <rect width="20" height="20" stroke="none"/>
      <rect x="0.5" y="0.5" width="19" height="19" fill="none"/>
    </g>
    <g id="CHECK" transform="translate(139 461.948)">
      <rect id="Rectangle_106" data-name="Rectangle 106" width="20" height="20" rx="10" transform="translate(0 0.052)" fill="#2a77d1"/>
      <path id="Path_125" data-name="Path 125" d="M15,7.052l-6.224,6L5,9.537" fill="none" stroke="#fff" stroke-linecap="round" stroke-linejoin="round" stroke-width="2"/>
    </g>
    <g id="CHECK-2" data-name="CHECK" transform="translate(187 461.948)">
      <rect id="Rectangle_18" data-name="Rectangle 18" width="20" height="20" transform="translate(0 0.052)" fill="#2a77d1"/>
      <path id="Path_125-2" data-name="Path 125" d="M15,7.052l-6.224,6L5,9.537" fill="none" stroke="#fff" stroke-linecap="round" stroke-linejoin="round" stroke-width="2"/>
    </g>
  </g>
</svg>
