<svg xmlns="http://www.w3.org/2000/svg" width="36" height="36" viewBox="0 0 36 36">
  <g id="field-autocomplete" transform="translate(-201 -310)">
    <rect id="Rectangle_14" data-name="Rectangle 14" width="36" height="36" transform="translate(201 310)" fill="#6e6e6e"/>
    <g id="Path_83" data-name="Path 83" transform="translate(-5137 461)" fill="none">
      <path d="M5360-133a2,2,0,0,1,2-2,2,2,0,0,1,2,2,2,2,0,0,1-2,2A2,2,0,0,1,5360-133Zm-6,0a2,2,0,0,1,2-2,2,2,0,0,1,2,2,2,2,0,0,1-2,2A2,2,0,0,1,5354-133Zm-6,0a2,2,0,0,1,2-2,2,2,0,0,1,2,2,2,2,0,0,1-2,2A2,2,0,0,1,5348-133Z" stroke="none"/>
      <path d="M 5350 -134.9996643066406 C 5351.10400390625 -134.9996643066406 5352.00048828125 -134.1044464111328 5352.00048828125 -133.0005798339844 C 5352.00048828125 -131.8953552246094 5351.10400390625 -131.0001525878906 5350 -131.0001525878906 C 5348.89501953125 -131.0001525878906 5347.99951171875 -131.8953552246094 5347.99951171875 -133.0005798339844 C 5347.99951171875 -134.1044464111328 5348.89501953125 -134.9996643066406 5350 -134.9996643066406 Z M 5356 -134.9996643066406 C 5357.10400390625 -134.9996643066406 5358.00048828125 -134.1044464111328 5358.00048828125 -133.0005798339844 C 5358.00048828125 -131.8953552246094 5357.10400390625 -131.0001525878906 5356 -131.0001525878906 C 5354.89599609375 -131.0001525878906 5353.99951171875 -131.8953552246094 5353.99951171875 -133.0005798339844 C 5353.99951171875 -134.1044464111328 5354.89599609375 -134.9996643066406 5356 -134.9996643066406 Z M 5362 -134.9996643066406 C 5363.10400390625 -134.9996643066406 5364.00048828125 -134.1044464111328 5364.00048828125 -133.0005798339844 C 5364.00048828125 -131.8953552246094 5363.10400390625 -131.0001525878906 5362 -131.0001525878906 C 5360.89599609375 -131.0001525878906 5359.99951171875 -131.8953552246094 5359.99951171875 -133.0005798339844 C 5359.99951171875 -134.1044464111328 5360.89599609375 -134.9996643066406 5362 -134.9996643066406 Z" stroke="none" fill="#fff"/>
    </g>
  </g>
</svg>
