<?xml version="1.0" encoding="UTF-8"?>
<!DOCTYPE svg PUBLIC "-//W3C//DTD SVG 1.1//EN" "http://www.w3.org/Graphics/SVG/1.1/DTD/svg11.dtd">
<!-- Creator: CorelDRAW -->
<svg xmlns="http://www.w3.org/2000/svg" xml:space="preserve" width="36px" height="36px" version="1.1" shape-rendering="geometricPrecision" text-rendering="geometricPrecision" image-rendering="optimizeQuality" fill-rule="evenodd" clip-rule="evenodd"
viewBox="0 0 36 36"
 xmlns:xlink="http://www.w3.org/1999/xlink"
 xmlns:xodm="http://www.corel.com/coreldraw/odm/2003">
 <g id="Layer_x0020_1">
  <metadata id="CorelCorpID_0Corel-Layer"/>
  <rect fill="#6FC7B6" width="36" height="36"/>
  <rect fill="#6E6E6E" width="36" height="36"/>
  <path fill="white" d="M18 7c6.08,0 11,4.92 11,11 0,6.08 -4.92,11 -11,11 -6.08,0 -11,-4.92 -11,-11 0,-6.08 4.92,-11 11,-11zm-0.91 10.98l0 -6.43c0,-0.5 0.41,-0.91 0.91,-0.91 0.5,0 0.91,0.41 0.91,0.91l0 5.54 2.73 0c0.5,0 0.91,0.41 0.91,0.91 0,0.5 -0.41,0.91 -0.91,0.91l-3.62 0c-0.53,0 -0.93,-0.4 -0.93,-0.93zm-3 -5.44c-0.19,-0.32 -0.07,-0.74 0.25,-0.93 0.33,-0.19 0.74,-0.08 0.93,0.25 0.19,0.33 0.08,0.74 -0.25,0.93 -0.32,0.19 -0.74,0.08 -0.93,-0.25zm-2.2 2.69c-0.33,-0.19 -0.44,-0.61 -0.25,-0.93 0.18,-0.33 0.6,-0.44 0.93,-0.25 0.32,0.18 0.44,0.6 0.25,0.93 -0.19,0.32 -0.61,0.43 -0.93,0.25zm-0.57 3.43c-0.38,0 -0.68,-0.31 -0.68,-0.69 0,-0.37 0.3,-0.68 0.68,-0.68 0.37,0 0.68,0.31 0.68,0.68 0,0.38 -0.31,0.69 -0.68,0.69zm1.22 3.25c-0.32,0.19 -0.74,0.07 -0.93,-0.25 -0.19,-0.33 -0.08,-0.74 0.25,-0.93 0.33,-0.19 0.74,-0.08 0.93,0.25 0.19,0.32 0.08,0.74 -0.25,0.93zm2.69 2.2c-0.19,0.33 -0.61,0.44 -0.93,0.25 -0.33,-0.18 -0.44,-0.6 -0.25,-0.93 0.18,-0.32 0.6,-0.44 0.93,-0.25 0.32,0.19 0.43,0.61 0.25,0.93zm3.43 0.57c0,0.38 -0.31,0.68 -0.69,0.68 -0.37,0 -0.68,-0.3 -0.68,-0.68 0,-0.37 0.31,-0.68 0.68,-0.68 0.38,0 0.69,0.31 0.69,0.68zm3.25 -1.22c0.19,0.32 0.07,0.74 -0.25,0.93 -0.33,0.19 -0.74,0.08 -0.93,-0.25 -0.19,-0.33 -0.08,-0.74 0.25,-0.93 0.32,-0.19 0.74,-0.08 0.93,0.25zm2.2 -2.69c0.33,0.19 0.44,0.61 0.25,0.93 -0.18,0.33 -0.6,0.44 -0.93,0.25 -0.32,-0.18 -0.44,-0.6 -0.25,-0.93 0.19,-0.32 0.61,-0.43 0.93,-0.25zm0.57 -3.43c0.38,0 0.68,0.31 0.68,0.69 0,0.37 -0.3,0.68 -0.68,0.68 -0.37,0 -0.68,-0.31 -0.68,-0.68 0,-0.38 0.31,-0.69 0.68,-0.69zm-1.22 -3.25c0.32,-0.19 0.74,-0.07 0.93,0.25 0.19,0.33 0.08,0.74 -0.25,0.93 -0.33,0.19 -0.74,0.08 -0.93,-0.25 -0.19,-0.32 -0.08,-0.74 0.25,-0.93zm-2.69 -2.2c0.19,-0.33 0.61,-0.44 0.93,-0.25 0.33,0.18 0.44,0.6 0.25,0.93 -0.18,0.32 -0.6,0.44 -0.93,0.25 -0.32,-0.19 -0.43,-0.61 -0.25,-0.93zm-2.77 -3.07c5.07,0 9.18,4.11 9.18,9.18 0,5.07 -4.11,9.18 -9.18,9.18 -5.07,0 -9.18,-4.11 -9.18,-9.18 0,-5.07 4.11,-9.18 9.18,-9.18z"/>
 </g>
</svg>
