<svg xmlns="http://www.w3.org/2000/svg" width="59" height="16" viewBox="0 0 59 16">
  <g id="field-radio-check-s" transform="translate(-284 -821)">
    <rect id="Rectangle_32" data-name="Rectangle 32" width="59" height="16" transform="translate(284 821)" fill="none" opacity="0.5"/>
    <g id="Ellipse_4" data-name="Ellipse 4" transform="translate(284 822)" fill="#fff" stroke="#ccc" stroke-width="1">
      <circle cx="7" cy="7" r="7" stroke="none"/>
      <circle cx="7" cy="7" r="6.5" fill="none"/>
    </g>
    <g id="Ellipse_5" data-name="Ellipse 5" transform="translate(299 822)" fill="#fff" stroke="#ccc" stroke-width="1">
      <circle cx="7" cy="7" r="7" stroke="none"/>
      <circle cx="7" cy="7" r="6.5" fill="none"/>
    </g>
    <circle id="Ellipse_8" data-name="Ellipse 8" cx="4" cy="4" r="4" transform="translate(302 825)" fill="#268fa3"/>
    <g id="Rectangle_33" data-name="Rectangle 33" transform="translate(314 822)" fill="#fff" stroke="#ccc" stroke-width="1">
      <rect width="14" height="14" stroke="none"/>
      <rect x="0.5" y="0.5" width="13" height="13" fill="none"/>
    </g>
    <g id="Rectangle_34" data-name="Rectangle 34" transform="translate(329 822)" fill="#fff" stroke="#ccc" stroke-width="1">
      <rect width="14" height="14" stroke="none"/>
      <rect x="0.5" y="0.5" width="13" height="13" fill="none"/>
    </g>
    <path id="correct8" d="M58.606,26.086l-1.228-1.228a.872.872,0,0,0-1.228,0l-5.925,5.934-2.656-2.665a.872.872,0,0,0-1.228,0l-1.228,1.228a.872.872,0,0,0,0,1.228l3.27,3.27,1.228,1.228a.872.872,0,0,0,1.228,0l1.228-1.228,6.539-6.539a.872.872,0,0,0,0-1.228Z" transform="translate(284.141 799.395)" fill="#268fa3"/>
  </g>
</svg>
