<svg width="22" height="22" viewBox="0 0 22 22" fill="none" xmlns="http://www.w3.org/2000/svg">
<g clip-path="url(#clip0_353_2750)">
<path d="M22 0H0V22H22V0Z" fill="#009584"/>
<path d="M14.1152 9.13498C14.0741 9.09188 14.0246 9.05766 13.9697 9.03445C13.9148 9.01123 13.8558 8.9995 13.7962 8.99998H7.45321C7.36357 8.99954 7.27583 9.02583 7.2012 9.07548C7.12656 9.12513 7.06842 9.1959 7.03419 9.27874C6.99995 9.36159 6.99118 9.45276 7.009 9.54061C7.02681 9.62847 7.07041 9.70902 7.13421 9.77198L10.3082 12.946C10.3497 12.9886 10.3993 13.0225 10.4541 13.0457C10.5089 13.0688 10.5677 13.0807 10.6272 13.0807C10.6867 13.0807 10.7456 13.0688 10.8004 13.0457C10.8551 13.0225 10.9047 12.9886 10.9462 12.946L14.1152 9.77198C14.1578 9.73051 14.1917 9.68092 14.2149 9.62613C14.238 9.57134 14.2499 9.51246 14.2499 9.45298C14.2499 9.39351 14.238 9.33463 14.2149 9.27984C14.1917 9.22505 14.1578 9.17645 14.1152 9.13498Z" fill="white"/>
</g>
<defs>
<clipPath id="clip0_353_2750">
<rect width="22" height="22" fill="white"/>
</clipPath>
</defs>
</svg>
