<svg xmlns="http://www.w3.org/2000/svg" width="21" height="21" viewBox="0 0 21 21">
  <g id="field-select-subtle-s-hover" transform="translate(-201 -309.764)">
    <g id="Path_30" data-name="Path 30" transform="translate(201 309.764)" fill="none">
      <path d="M0,0H21V21H0Z" stroke="none"/>
      <path d="M 1 1 L 1 20 L 20 20 L 20 1 L 1 1 M 0 0 L 21 0 L 21 21 L 0 21 L 0 0 Z" stroke="none" fill="#004a5d"/>
    </g>
    <path id="caret5" d="M73.4,49.67a.436.436,0,0,0-.319-.135H66.738a.451.451,0,0,0-.319.772l3.174,3.174a.445.445,0,0,0,.638,0L73.4,50.307a.445.445,0,0,0,0-.638Z" transform="translate(141.715 269.229)" fill="#004a5d"/>
  </g>
</svg>
