<svg xmlns="http://www.w3.org/2000/svg" width="36" height="36" viewBox="0 0 36 36">
  <g id="field-autocomplete" transform="translate(-200.999 -310)">
    <rect id="Rectangle_14" data-name="Rectangle 14" width="36" height="36" transform="translate(200.999 310)" fill="none"/>
    <g id="Path_83" data-name="Path 83" transform="translate(-5133 462)" fill="none">
      <path d="M5354-134a1,1,0,0,1,1-1,1,1,0,0,1,1,1,1,1,0,0,1-1,1A1,1,0,0,1,5354-134Zm-3,0a1,1,0,0,1,1-1,1,1,0,0,1,1,1,1,1,0,0,1-1,1A1,1,0,0,1,5351-134Zm-3,0a1,1,0,0,1,1-1,1,1,0,0,1,1,1,1,1,0,0,1-1,1A1,1,0,0,1,5348-134Z" stroke="none"/>
      <path d="M 5348.99951171875 -134.9996643066406 C 5349.5517578125 -134.9996643066406 5350.00048828125 -134.552001953125 5350.00048828125 -134 C 5350.00048828125 -133.4473266601562 5349.5517578125 -132.9996643066406 5348.99951171875 -132.9996643066406 C 5348.44677734375 -132.9996643066406 5347.99951171875 -133.4473266601562 5347.99951171875 -134 C 5347.99951171875 -134.552001953125 5348.44677734375 -134.9996643066406 5348.99951171875 -134.9996643066406 Z M 5352 -134.9996643066406 C 5352.5517578125 -134.9996643066406 5353 -134.552001953125 5353 -134 C 5353 -133.4473266601562 5352.5517578125 -132.9996643066406 5352 -132.9996643066406 C 5351.4482421875 -132.9996643066406 5350.99951171875 -133.4473266601562 5350.99951171875 -134 C 5350.99951171875 -134.552001953125 5351.4482421875 -134.9996643066406 5352 -134.9996643066406 Z M 5355 -134.9996643066406 C 5355.55224609375 -134.9996643066406 5356.0009765625 -134.552001953125 5356.0009765625 -134 C 5356.0009765625 -133.4473266601562 5355.55224609375 -132.9996643066406 5355 -132.9996643066406 C 5354.4482421875 -132.9996643066406 5354 -133.4473266601562 5354 -134 C 5354 -134.552001953125 5354.4482421875 -134.9996643066406 5355 -134.9996643066406 Z" stroke="none" fill="#999"/>
    </g>
  </g>
</svg>
