<svg width="36" height="36" viewBox="0 0 36 36" fill="none" xmlns="http://www.w3.org/2000/svg">
<g clip-path="url(#clip0_353_2834)">
<path d="M0 36H36V0H0V36Z" fill="#009584"/>
<path d="M19 19C20.1 19 21.19 19 22.29 19C22.83 19 23.38 19 23.93 19C24.23 19 24.46 18.94 24.68 18.73C24.89 18.54 25 18.28 25 18C25 17.72 24.89 17.46 24.68 17.27C24.46 17.06 24.23 17 23.93 17C23.38 17 22.83 17 22.29 17C21.19 17 20.1 17 19 17C19 15.64 19 14.29 19 12.93C19 12.76 19 12.59 19 12.42C19 12.34 19 11.99 19 11.91C18.97 11.57 18.76 11.26 18.45 11.11C17.79 10.77 17 11.26 17 12C17 13.67 17 15.33 17 17C15.64 17 14.29 17 12.93 17C12.76 17 12.59 17 12.42 17C12.34 17 11.99 17 11.91 17C11.57 17.04 11.26 17.24 11.11 17.55C10.78 18.22 11.26 19 12 19C13.67 19 15.34 19 17 19C17 20.1 17 21.19 17 22.29C17 22.83 17 23.38 17 23.93C17 24.22 17.06 24.45 17.27 24.68C17.46 24.88 17.72 25 18 25C18.28 25 18.55 24.88 18.73 24.68C18.94 24.45 19 24.22 19 23.93C19 23.38 19 22.83 19 22.29C19 21.19 19 20.1 19 19Z" fill="white"/>
</g>
<defs>
<clipPath id="clip0_353_2834">
<rect width="36" height="36" fill="white"/>
</clipPath>
</defs>
</svg>
