<svg xmlns="http://www.w3.org/2000/svg" width="21" height="21" viewBox="0 0 21 21">
  <g id="field-select-subtle-s" transform="translate(-201 -309.764)">
    <g id="Path_30" data-name="Path 30" transform="translate(201 309.764)" fill="none" stroke-dasharray="1">
      <path d="M0,0H21V21H0Z" stroke="none"/>
      <path d="M 0 0 L 1 0 L 1 2 L 0 2 L 0 0 Z M 2 0 L 3 0 L 3 1 L 2 1 L 2 0 Z M 4 0 L 5 0 L 5 1 L 4 1 L 4 0 Z M 6 0 L 7 0 L 7 1 L 6 1 L 6 0 Z M 8 0 L 9 0 L 9 1 L 8 1 L 8 0 Z M 10 0 L 11 0 L 11 1 L 10 1 L 10 0 Z M 12 0 L 13 0 L 13 1 L 12 1 L 12 0 Z M 14 0 L 15 0 L 15 1 L 14 1 L 14 0 Z M 16 0 L 17 0 L 17 1 L 16 1 L 16 0 Z M 18 0 L 19 0 L 19 1 L 18 1 L 18 0 Z M 20 0 L 21 0 L 21 1 C 21 1 21 2 21 2 L 20 2 L 20 0 Z M 20 3 L 21 3 C 21 3 21 4 21 4 L 20 4 L 20 3 Z M 20 5 L 21 5 C 21 5 21 6 21 6 L 20 6 L 20 5 Z M 20 7 L 21 7 C 21 7 21 8 21 8 L 20 8 L 20 7 Z M 20 9 L 21 9 C 21 9 21 10 21 10 L 20 10 L 20 9 Z M 20 11 L 21 11 C 21 11 21 12 21 12 L 20 12 L 20 11 Z M 20 13 L 21 13 C 21 13 21 14 21 14 L 20 14 L 20 13 Z M 20 15 L 21 15 C 21 15 21 16 21 16 L 20 16 L 20 15 Z M 20 17 L 21 17 C 21 17 21 18 21 18 L 20 18 L 20 17 Z M 20 19 L 21 19 C 21 19 21 20 21 20 L 21 21 C 21 21 20 21 20 21 L 20 19 Z M 18 20 L 19 20 L 19 21 C 19 21 18 21 18 21 L 18 20 Z M 16 20 L 17 20 L 17 21 C 17 21 16 21 16 21 L 16 20 Z M 14 20 L 15 20 L 15 21 C 15 21 14 21 14 21 L 14 20 Z M 12 20 L 13 20 L 13 21 C 13 21 12 21 12 21 L 12 20 Z M 10 20 L 11 20 L 11 21 C 11 21 10 21 10 21 L 10 20 Z M 8 20 L 9 20 L 9 21 C 9 21 8 21 8 21 L 8 20 Z M 6 20 L 7 20 L 7 21 C 7 21 6 21 6 21 L 6 20 Z M 4 20 L 5 20 L 5 21 C 5 21 4 21 4 21 L 4 20 Z M 2 20 L 3 20 L 3 21 C 3 21 2 21 2 21 L 2 20 Z M 0 20 L 1 20 L 1 21 C 1 21 0 21 0 21 L 0 20 Z M 0 19 L 1 19 L 1 20 L 0 20 L 0 19 Z M 0 17 L 1 17 L 1 18 L 0 18 L 0 17 Z M 0 15 L 1 15 L 1 16 L 0 16 L 0 15 Z M 0 13 L 1 13 L 1 14 L 0 14 L 0 13 Z M 0 11 L 1 11 L 1 12 L 0 12 L 0 11 Z M 0 9 L 1 9 L 1 10 L 0 10 L 0 9 Z M 0 7 L 1 7 L 1 8 L 0 8 L 0 7 Z M 0 5 L 1 5 L 1 6 L 0 6 L 0 5 Z M 0 3 L 1 3 L 1 4 L 0 4 L 0 3 Z" stroke="none" fill="#6e6e6e"/>
    </g>
    <path id="caret5" d="M73.4,49.67a.436.436,0,0,0-.319-.135H66.738a.451.451,0,0,0-.319.772l3.174,3.174a.445.445,0,0,0,.638,0L73.4,50.307a.445.445,0,0,0,0-.638Z" transform="translate(141.715 269.229)" fill="#6e6e6e"/>
  </g>
</svg>
