<svg width="120" height="48" viewBox="0 0 120 48" fill="none" xmlns="http://www.w3.org/2000/svg">
<g clip-path="url(#clip0_353_2798)">
<path d="M12 23C18.0751 23 23 18.0751 23 12C23 5.92487 18.0751 1 12 1C5.92487 1 1 5.92487 1 12C1 18.0751 5.92487 23 12 23Z" fill="white"/>
<path d="M12 22.5C17.799 22.5 22.5 17.799 22.5 12C22.5 6.20101 17.799 1.5 12 1.5C6.20101 1.5 1.5 6.20101 1.5 12C1.5 17.799 6.20101 22.5 12 22.5Z" stroke="#CCCCCC"/>
<path d="M12 47C18.0751 47 23 42.0751 23 36C23 29.9249 18.0751 25 12 25C5.92487 25 1 29.9249 1 36C1 42.0751 5.92487 47 12 47Z" fill="white"/>
<path d="M12 46.5C17.799 46.5 22.5 41.799 22.5 36C22.5 30.201 17.799 25.5 12 25.5C6.20101 25.5 1.5 30.201 1.5 36C1.5 41.799 6.20101 46.5 12 46.5Z" stroke="#009584"/>
<path d="M36 23C42.0751 23 47 18.0751 47 12C47 5.92487 42.0751 1 36 1C29.9249 1 25 5.92487 25 12C25 18.0751 29.9249 23 36 23Z" fill="white"/>
<path d="M36 22.5C41.799 22.5 46.5 17.799 46.5 12C46.5 6.20101 41.799 1.5 36 1.5C30.201 1.5 25.5 6.20101 25.5 12C25.5 17.799 30.201 22.5 36 22.5Z" stroke="#CCCCCC"/>
<path d="M71 1H49V23H71V1Z" fill="white"/>
<path d="M70.5 1.5H49.5V22.5H70.5V1.5Z" stroke="#CCCCCC"/>
<path d="M71 25H49V47H71V25Z" fill="white"/>
<path d="M70.5 25.5H49.5V46.5H70.5V25.5Z" stroke="#009584"/>
<path d="M95 1H73V23H95V1Z" fill="white"/>
<path d="M94.5 1.5H73.5V22.5H94.5V1.5Z" stroke="#CCCCCC"/>
<path d="M119 1H97V23H119V1Z" fill="white"/>
<path d="M118.5 1.5H97.5V22.5H118.5V1.5Z" stroke="#E3992A"/>
<path d="M36 17C38.7614 17 41 14.7614 41 12C41 9.23858 38.7614 7 36 7C33.2386 7 31 9.23858 31 12C31 14.7614 33.2386 17 36 17Z" fill="#009584"/>
<path d="M94.603 6.328L92.672 4.395C92.4152 4.14059 92.0684 3.99786 91.707 3.99786C91.3455 3.99786 90.9987 4.14059 90.742 4.395L81.431 13.723L77.258 9.535C77.0012 9.28059 76.6544 9.13786 76.293 9.13786C75.9315 9.13786 75.5847 9.28059 75.328 9.535L73.398 11.465C73.1436 11.7217 73.0009 12.0686 73.0009 12.43C73.0009 12.7914 73.1436 13.1383 73.398 13.395L78.536 18.533L80.466 20.463C80.7227 20.7174 81.0695 20.8601 81.431 20.8601C81.7924 20.8601 82.1392 20.7174 82.396 20.463L84.326 18.533L94.603 8.258C94.8574 8.00126 95.0001 7.65444 95.0001 7.293C95.0001 6.93156 94.8574 6.58474 94.603 6.328Z" fill="#009584"/>
</g>
<defs>
<clipPath id="clip0_353_2798">
<rect width="120" height="48" fill="white"/>
</clipPath>
</defs>
</svg>
