<svg width="36" height="36" viewBox="0 0 36 36" fill="none" xmlns="http://www.w3.org/2000/svg">
<g clip-path="url(#clip0_353_2793)">
<path d="M0 36H36V0H0V36Z" fill="#009584"/>
<path d="M13.7101 14.79C13.3201 14.4 12.6801 14.4 12.2901 14.79C11.9001 15.18 11.9001 15.82 12.2901 16.21C13.9601 17.87 15.6301 19.54 17.2901 21.21C17.6801 21.6 18.3201 21.6 18.7101 21.21C20.3701 19.54 22.0401 17.87 23.7101 16.21C24.1001 15.82 24.1001 15.18 23.7101 14.79C23.3201 14.4 22.6801 14.4 22.2901 14.79C20.8601 16.22 19.4301 17.66 18.0001 19.09C16.5701 17.66 15.1401 16.22 13.7101 14.79Z" fill="white"/>
</g>
<defs>
<clipPath id="clip0_353_2793">
<rect width="36" height="36" fill="white"/>
</clipPath>
</defs>
</svg>
