<svg width="36" height="36" viewBox="0 0 36 36" fill="none" xmlns="http://www.w3.org/2000/svg">
<g clip-path="url(#clip0_353_2849)">
<path d="M0 36H36V0H0V36Z" fill="#009584"/>
<path d="M13.9999 20C12.9999 20 11.9999 20 10.9999 20C9.95995 20 9.08995 19.2 9.00995 18.16C8.91995 17.12 9.64995 16.19 10.6799 16.03C11.1999 15.94 11.5599 15.48 11.5199 14.96C11.3999 13.57 11.8199 12.19 12.6799 11.1C13.5399 10 14.7799 9.28 16.1599 9.06C17.5299 8.85 18.9399 9.17 20.0899 9.95C21.2399 10.73 22.0499 11.92 22.3599 13.28C22.4799 13.79 22.9799 14.13 23.4999 14.04C24.3299 13.9 25.1799 14.12 25.8399 14.63C26.4999 15.15 26.9199 15.91 26.9899 16.75C27.0599 17.59 26.7799 18.41 26.2099 19.03C25.6399 19.65 24.8399 20 23.9999 20C23.3299 20 22.6699 20 21.9999 20C21.4499 20 20.9999 20.45 20.9999 21C20.9999 21.55 21.4499 22 21.9999 22C22.6699 22 23.3299 22 23.9999 22C25.3199 22 26.5899 21.48 27.5199 20.55C28.4599 19.62 28.9899 18.36 28.9999 17.04C29.0099 15.72 28.4999 14.45 27.5699 13.5C26.6499 12.56 25.3899 12.02 24.0699 12C23.4899 10.35 22.3499 8.95 20.8399 8.06C19.3399 7.16 17.5699 6.82 15.8399 7.09C14.1099 7.36 12.5199 8.23 11.3699 9.55C10.2099 10.86 9.54995 12.54 9.49995 14.29C7.72995 15.01 6.70995 16.88 7.06995 18.76C7.43995 20.64 9.08995 22 10.9999 22C11.9999 22 12.9999 22 13.9999 22C14.5499 22 14.9999 21.55 14.9999 21C14.9999 20.45 14.5499 20 13.9999 20ZM16.9999 15C16.7899 15.18 16.7699 15.5 16.9499 15.7C17.1299 15.91 17.4399 15.94 17.6499 15.76C18.3299 15.18 19.2999 15.1 20.0699 15.56C20.8299 16.01 21.2199 16.91 21.0199 17.78C20.9599 18.05 21.1299 18.32 21.3999 18.38C21.6699 18.44 21.9399 18.27 21.9999 18C22.2899 16.71 21.7199 15.38 20.5799 14.7C19.4499 14.02 17.9999 14.14 16.9999 15ZM22.0599 24.65C20.9399 23.53 19.8199 22.41 18.7099 21.29C18.3199 20.9 17.6799 20.9 17.2899 21.29C16.1799 22.41 15.0599 23.53 13.9399 24.65C13.5499 25.04 13.5499 25.67 13.9399 26.06C14.3299 26.45 14.9599 26.45 15.3499 26.06C15.8999 25.51 16.4499 24.96 16.9999 24.41C16.9999 25.61 16.9999 26.81 16.9999 28C16.9999 28.55 17.4499 29 17.9999 29C18.5499 29 18.9999 28.55 18.9999 28C18.9999 26.81 18.9999 25.61 18.9999 24.41C19.5499 24.96 20.0999 25.51 20.6499 26.06C21.0399 26.45 21.6699 26.45 22.0599 26.06C22.4499 25.67 22.4499 25.04 22.0599 24.65Z" fill="white"/>
</g>
<defs>
<clipPath id="clip0_353_2849">
<rect width="36" height="36" fill="white"/>
</clipPath>
</defs>
</svg>
