<svg width="36" height="36" viewBox="0 0 36 36" fill="none" xmlns="http://www.w3.org/2000/svg">
<g clip-path="url(#clip0_353_2854)">
<path d="M36 0H0V36H36V0Z" fill="#009584"/>
<path fill-rule="evenodd" clip-rule="evenodd" d="M18.09 19C18.76 19 19.43 19 20.1 19C20.19 19 21.02 19.01 21.11 18.99C21.45 18.96 21.75 18.75 21.9 18.44C22.22 17.78 21.75 17.01 21.01 17C20.34 16.99 19.67 17 19 17C19 15.69 19 14.38 19 13.07C19 12.75 19 12.42 19 12.09C19 11.73 18.93 11.46 18.63 11.22C18.07 10.77 17.24 11.03 17.04 11.72C16.99 11.91 17 12.5 17 12.69C17 13.02 17 13.35 17 13.68C17 14.33 17 14.99 17 15.64C17 16.3 17 16.95 17 17.61C17 17.94 16.96 18.24 17.16 18.55C17.35 18.83 17.66 19 18 19C18.03 19 18.06 19 18.09 19ZM18.5 24.5C18.5 24.23 18.28 24 18 24C17.72 24 17.5 24.23 17.5 24.5C17.5 24.78 17.72 25 18 25C18.28 25 18.5 24.78 18.5 24.5ZM21.68 23.38C21.54 23.14 21.24 23.06 21 23.2C20.76 23.34 20.68 23.64 20.82 23.88C20.96 24.12 21.26 24.2 21.5 24.06C21.74 23.93 21.82 23.62 21.68 23.38ZM23.88 20.82C23.64 20.68 23.34 20.76 23.2 21C23.06 21.24 23.14 21.55 23.38 21.69C23.62 21.82 23.92 21.74 24.06 21.5C24.2 21.26 24.12 20.96 23.88 20.82ZM24.5 17.5C24.23 17.5 24 17.73 24 18C24 18.28 24.23 18.5 24.5 18.5C24.78 18.5 25 18.28 25 18C25 17.73 24.78 17.5 24.5 17.5ZM23.38 14.32C23.14 14.46 23.06 14.76 23.2 15C23.34 15.24 23.64 15.32 23.88 15.18C24.12 15.05 24.2 14.74 24.06 14.5C23.93 14.26 23.62 14.18 23.38 14.32ZM20.82 12.12C20.68 12.36 20.76 12.67 21 12.8C21.24 12.94 21.55 12.86 21.69 12.62C21.82 12.38 21.74 12.08 21.5 11.94C21.26 11.8 20.96 11.88 20.82 12.12ZM14.32 12.62C14.46 12.86 14.76 12.94 15 12.8C15.24 12.66 15.32 12.36 15.18 12.12C15.05 11.88 14.74 11.8 14.5 11.94C14.26 12.08 14.18 12.38 14.32 12.62ZM12.12 15.18C12.36 15.32 12.67 15.24 12.8 15C12.94 14.76 12.86 14.46 12.62 14.32C12.38 14.18 12.08 14.26 11.94 14.5C11.8 14.74 11.88 15.04 12.12 15.18ZM11.5 18.5C11.78 18.5 12 18.28 12 18C12 17.72 11.78 17.5 11.5 17.5C11.22 17.5 11 17.72 11 18C11 18.28 11.22 18.5 11.5 18.5ZM12.62 21.68C12.86 21.54 12.94 21.24 12.8 21C12.66 20.76 12.36 20.68 12.12 20.82C11.88 20.96 11.8 21.26 11.94 21.5C12.08 21.74 12.38 21.82 12.62 21.68ZM15.18 23.88C15.32 23.64 15.24 23.34 15 23.2C14.76 23.06 14.46 23.14 14.32 23.38C14.18 23.62 14.26 23.92 14.5 24.06C14.74 24.2 15.04 24.12 15.18 23.88ZM18 9C13.03 9 9 13.03 9 18C9 22.97 13.03 27 18 27C22.97 27 27 22.97 27 18C27 13.03 22.97 9 18 9ZM18 7C11.93 7 7 11.93 7 18C7 24.08 11.93 29 18 29C24.08 29 29 24.08 29 18C29 11.93 24.08 7 18 7Z" fill="white"/>
</g>
<defs>
<clipPath id="clip0_353_2854">
<rect width="36" height="36" fill="white"/>
</clipPath>
</defs>
</svg>
