<svg width="36" height="36" viewBox="0 0 36 36" fill="none" xmlns="http://www.w3.org/2000/svg">
<g clip-path="url(#clip0_353_2844)">
<path d="M0 36H36V0H0V36Z" fill="#009584"/>
<path fill-rule="evenodd" clip-rule="evenodd" d="M19.77 17.34C19.67 17.6 19.39 17.74 19.13 17.65C18.87 17.55 18.73 17.27 18.83 17.01C19.22 15.92 18.94 14.7 18.12 13.88C17.3 13.06 16.08 12.78 14.99 13.18C14.73 13.27 14.45 13.13 14.35 12.87C14.26 12.61 14.4 12.32 14.66 12.23C16.11 11.71 17.74 12.08 18.83 13.17C19.92 14.26 20.29 15.89 19.77 17.34ZM22 16C22 15.24 21.86 14.49 21.58 13.79C21.28 13.03 20.82 12.34 20.24 11.76C19.66 11.18 18.97 10.72 18.21 10.42C17.5 10.14 16.76 10 16 10C15.24 10 14.49 10.14 13.79 10.42C13.03 10.72 12.34 11.18 11.76 11.76C11.18 12.34 10.72 13.03 10.42 13.79C10.14 14.49 10 15.24 10 16C10 16.76 10.14 17.5 10.42 18.21C10.72 18.97 11.18 19.66 11.76 20.24C12.34 20.82 13.03 21.28 13.79 21.58C14.49 21.86 15.24 22 16 22C16.76 22 17.5 21.86 18.21 21.58C18.97 21.28 19.66 20.82 20.24 20.24C20.82 19.66 21.28 18.97 21.58 18.21C21.86 17.5 22 16.76 22 16ZM27.71 26.29C28.1 26.68 28.1 27.32 27.71 27.71C27.32 28.1 26.68 28.1 26.29 27.71C24.5 25.91 22.7 24.12 20.91 22.32C20.14 22.92 19.27 23.37 18.34 23.65C17.34 23.96 16.29 24.06 15.25 23.97C14.21 23.87 13.2 23.57 12.27 23.08C11.41 22.62 10.64 22.02 10 21.29C9.36 20.56 8.85 19.72 8.51 18.82C8.14 17.84 7.97 16.79 8.01 15.75C8.04 14.7 8.26999 13.67 8.69999 12.72C9.1 11.83 9.66 11.03 10.34 10.34C11.03 9.66 11.83 9.1 12.72 8.69999C13.67 8.26999 14.7 8.04 15.75 8.01C16.79 7.97 17.84 8.14 18.81 8.51C19.72 8.85 20.56 9.36 21.29 10C22.02 10.64 22.62 11.41 23.08 12.27C23.57 13.2 23.87 14.21 23.97 15.25C24.06 16.29 23.96 17.34 23.65 18.34C23.37 19.27 22.92 20.14 22.32 20.91C24.12 22.7 25.91 24.5 27.71 26.29Z" fill="white"/>
</g>
<defs>
<clipPath id="clip0_353_2844">
<rect width="36" height="36" fill="white"/>
</clipPath>
</defs>
</svg>
