<svg xmlns="http://www.w3.org/2000/svg" xml:space="preserve" fill-rule="evenodd" viewBox="0 0 36 36"><path fill="none" d="M0 0h36v36H0z"/><path d="M18.9 33.1h12.8c.6 0 1.1-.5 1.1-1.1V3.9c0-.6-.5-1.1-1.1-1.1H18.9c-.7 0-1.3.6-1.3 1.3v27.7c0 .7.6 1.3 1.3 1.3m7.4-2.2h4.3v-6.5h-4.3zm-6.5-15.1h4.3v-4.3h-4.3zm0 6.5h4.3V18h-4.3zm0 6.5h4.3v-4.3h-4.3zm0-19.4h4.3V5.1h-4.3zm6.5 6.5h4.3v-4.3h-4.3zm0 6.5h4.3v-4.3h-4.3zm0-13h4.3V5.1h-4.3zm-11.8.8H3.8q-.6 0-.6-.6t.6-.6h10.7q.6 0 .6.6t-.6.6m0 14.7H3.8q-.6 0-.6-.6t.6-.6h10.7q.6 0 .6.6t-.6.6m-4.8-2.5c-.2.5-.9.5-1.1 0-.7-1.3-1.3-2.6-2-3.9-.2-.4-.1-.6.3-.8s.6-.1.8.3c.3.5.5 1.1.8 1.6v-5.2c-.3.5-.5 1.1-.8 1.6-.2.4-.5.5-.8.3-.4-.2-.5-.4-.3-.8.7-1.3 1.3-2.6 2-3.9.3-.3 1-.2 1.1 0 .7 1.3 1.3 2.6 2 3.9.2.4.1.6-.3.8s-.6.1-.8-.3c-.3-.5-.5-1.1-.8-1.6v5.2c.3-.5.5-1.1.8-1.6.2-.4.4-.5.8-.3s.5.5.3.8c-.7 1.3-1.3 2.6-2 3.9"/></svg>