<svg xmlns="http://www.w3.org/2000/svg" xml:space="preserve" fill-rule="evenodd" viewBox="0 0 36 36"><path fill="none" d="M0 0h36v36H0z"/><path d="M18.9 33.1h12.4c.6 0 1-.5 1-1V4.9c0-.6-.5-1-1-1H18.9c-.7 0-1.2.5-1.2 1.2v26.8c0 .7.5 1.2 1.2 1.2m.9-16.7H24v-4.2h-4.2zM26.1 31h4.2v-6.3h-4.2zm0-20.9h4.2V5.9h-4.2zm0 12.6h4.2v-4.2h-4.2zm0-6.3h4.2v-4.2h-4.2zm-6.3-6.3H24V5.9h-4.2zm0 18.8H24v-4.2h-4.2zm0-6.3H24v-4.2h-4.2zm-5.1-9.8H4.3q-.6 0-.6-.6t.6-.6h10.4q.6 0 .6.6t-.6.6m0-8.8H4.3q-.6 0-.6-.6t.6-.6h10.4q.6 0 .6.6t-.6.6m.3 3.4c.2.1.3.3.3.5 0 .3-.1.4-.3.5-1.3.6-2.5 1.3-3.8 1.9-.4.2-.6.1-.8-.3s-.1-.6.3-.8c.5-.3 1-.5 1.5-.8H4.4q-.6 0-.6-.6t.6-.6h7.8c-.5-.3-1-.5-1.5-.8-.4-.2-.5-.4-.3-.8s.4-.5.8-.3c1.3.6 2.5 1.3 3.8 1.9.4.2.5.4.3.8l-.3-.8z"/></svg>