<svg xmlns="http://www.w3.org/2000/svg" xml:space="preserve" fill-rule="evenodd" viewBox="0 0 36 36"><path d="M15.48 26.21c-.8-1.29-.4-2.99.89-3.79 1.3-.8 3-.39 3.79.9.8 1.29.4 2.99-.89 3.79-1.3.79-2.99.39-3.79-.9M26.13 8.87c0-.66.54-1.19 1.2-1.19s1.19.53 1.19 1.19-.53 1.2-1.19 1.2-1.2-.54-1.2-1.2m-4.31 3.41a.523.523 0 0 1-.68-.29c-.13-.32-.26-.64-.4-.96a.52.52 0 0 1 .29-.67c.51-.22 1.03-.43 1.54-.64-.1-.58-.1-1.12 0-1.69-.51-.22-1.03-.43-1.54-.64a.53.53 0 0 1-.29-.68c.14-.32.27-.64.4-.96.11-.27.42-.39.68-.28.52.21 1.03.42 1.55.64.33-.48.72-.87 1.19-1.2-.21-.52-.43-1.03-.64-1.54-.11-.27.02-.57.28-.68.32-.14.64-.27.96-.4.27-.11.57.02.68.28.21.52.43 1.03.64 1.54.57-.1 1.12-.1 1.69 0 .21-.51.43-1.02.64-1.54.11-.26.42-.39.68-.28.32.13.64.26.96.4.26.11.39.41.28.68-.21.51-.43 1.02-.64 1.54.48.33.86.72 1.2 1.2.51-.22 1.03-.43 1.54-.64.27-.11.57.01.68.28.13.32.26.64.4.96.11.26-.02.57-.28.68-.52.21-1.03.42-1.55.64.1.57.1 1.11 0 1.69.52.21 1.03.42 1.55.64.26.11.39.41.28.67-.14.32-.27.64-.4.96a.52.52 0 0 1-.68.29c-.51-.22-1.03-.43-1.54-.64-.34.47-.72.86-1.2 1.19.21.52.43 1.03.64 1.55.11.26-.02.56-.28.67-.32.14-.64.27-.96.4a.52.52 0 0 1-.68-.28c-.21-.51-.43-1.03-.64-1.54-.57.1-1.12.1-1.69 0-.21.51-.43 1.03-.64 1.54-.11.27-.41.39-.68.28-.32-.13-.64-.26-.96-.4a.515.515 0 0 1-.28-.67c.21-.52.43-1.03.64-1.55-.47-.33-.86-.72-1.19-1.19-.52.21-1.03.42-1.55.64m3.05-4.65c.69-1.36 2.34-1.9 3.7-1.22 1.35.69 1.9 2.35 1.21 3.7a2.756 2.756 0 0 1-3.7 1.22 2.755 2.755 0 0 1-1.21-3.7M7.73 12.69c-.11-.66.33-1.27.99-1.38.65-.1 1.26.34 1.37.99.1.66-.34 1.27-.99 1.37-.65.11-1.27-.33-1.37-.98m5.98 14.61c-1.4-2.27-.7-5.25 1.57-6.65s5.25-.69 6.65 1.58.7 5.24-1.57 6.64c-2.27 1.41-5.25.7-6.65-1.57M6.19 12.93c-.24-1.5.78-2.91 2.28-3.15 1.5-.25 2.91.77 3.15 2.28.25 1.5-.77 2.91-2.27 3.15-1.51.24-2.92-.78-3.16-2.28m.26 5.55c-.15.25-.47.33-.71.18-.3-.19-.59-.37-.89-.55a.52.52 0 0 1-.17-.71c.29-.48.59-.95.88-1.43-.42-.4-.74-.84-1-1.36L2.94 15a.533.533 0 0 1-.63-.39l-.24-1.01c-.07-.28.1-.56.38-.62l1.63-.39c-.01-.59.07-1.13.26-1.67-.47-.3-.95-.59-1.42-.88a.513.513 0 0 1-.18-.71c.19-.3.37-.59.55-.89.15-.24.47-.32.71-.17.48.29.95.58 1.43.87.4-.41.84-.74 1.36-.99-.13-.54-.25-1.08-.38-1.63-.07-.27.1-.55.38-.62l1.01-.24c.28-.07.56.1.62.38.13.54.26 1.08.4 1.63.58-.02 1.12.07 1.67.26.29-.48.58-.95.87-1.43.15-.24.47-.32.71-.17.3.18.59.36.89.55.24.15.32.47.17.71-.29.48-.58.95-.87 1.43.42.4.74.84.99 1.36.54-.13 1.08-.26 1.63-.39.27-.06.56.11.62.39.08.33.16.67.25 1.01.06.28-.11.56-.39.62l-1.62.39c.01.58-.08 1.12-.27 1.67.48.29.95.59 1.43.88.24.15.32.47.17.71-.18.3-.36.59-.54.89-.15.24-.47.32-.72.17-.47-.29-.95-.58-1.42-.88-.41.42-.85.75-1.37 1l.39 1.62c.06.28-.11.56-.39.63-.33.08-.67.16-1.01.24-.28.07-.56-.1-.62-.38-.13-.54-.26-1.08-.39-1.63-.58.02-1.12-.07-1.67-.26-.29.47-.58.95-.88 1.42m10.33-2.18c0-.29.23-.52.52-.52h1.04c.29 0 .52.23.52.52v1.64c.76.11 1.45.34 2.14.69.32-.44.64-.88.96-1.33.17-.23.49-.28.72-.11.28.2.56.41.84.61.24.17.29.49.12.73l-.96 1.32c.54.54.97 1.13 1.32 1.82.51-.17 1.03-.34 1.55-.51.27-.09.57.06.66.33.1.33.21.66.32.99a.52.52 0 0 1-.34.66c-.52.16-1.03.33-1.55.5.12.76.12 1.49 0 2.25.52.17 1.03.33 1.55.5.28.09.43.38.34.66-.11.33-.22.66-.32.98-.09.28-.39.43-.66.34-.52-.17-1.04-.34-1.55-.51-.35.69-.78 1.28-1.32 1.82l.96 1.32c.17.24.12.56-.12.73-.28.2-.56.41-.84.61-.23.17-.55.12-.72-.12L21 30.9c-.69.35-1.38.58-2.14.69v1.64c0 .29-.23.52-.52.52H17.3c-.29 0-.52-.23-.52-.52v-1.64c-.76-.11-1.45-.34-2.13-.69l-.96 1.32c-.17.24-.5.29-.73.12-.28-.2-.56-.41-.84-.61A.535.535 0 0 1 12 31c.32-.44.65-.88.97-1.32-.55-.54-.98-1.13-1.32-1.82l-1.56.51a.51.51 0 0 1-.65-.34c-.11-.32-.22-.65-.33-.98-.08-.28.07-.57.34-.66.52-.17 1.04-.33 1.55-.5-.12-.76-.12-1.49 0-2.25-.51-.17-1.03-.34-1.55-.5a.536.536 0 0 1-.34-.66l.33-.99c.08-.27.38-.42.65-.33l1.56.51c.34-.69.77-1.28 1.32-1.82-.32-.44-.65-.88-.97-1.32a.535.535 0 0 1 .12-.73c.28-.2.56-.41.84-.61.23-.17.56-.12.73.11.32.45.64.89.96 1.33.68-.35 1.37-.58 2.13-.69z"/></svg>