<svg xmlns="http://www.w3.org/2000/svg" xml:space="preserve" fill-rule="evenodd" viewBox="0 0 36 36"><path fill="none" d="M0 0h36v36H0z"/><path d="M10.9 9.61c.29-3.92 3.71-6.86 7.64-6.57 3.92.3 6.86 3.72 6.56 7.64a7.13 7.13 0 0 1-7.64 6.57c-3.92-.3-6.86-3.72-6.56-7.64m9.68.91c-.03.65-.14 1.28-.32 1.91.55.27 1.01.61 1.44 1.05.74-.82 1.18-1.86 1.27-2.96zM10.6 29.17a1.071 1.071 0 0 1 0 2.14c-.6 0-1.08-.48-1.08-1.07s.48-1.07 1.08-1.07M18 14.95c-.57-.63-.99-1.3-1.31-2.09.85-.27 1.77-.27 2.62 0-.32.79-.74 1.46-1.31 2.09m-2.58-4.43c.03.65.13 1.28.32 1.91-.55.27-1.01.61-1.44 1.05a5.02 5.02 0 0 1-1.27-2.96zm-2.39-.75h2.39c.03-.66.13-1.29.32-1.92-.55-.26-1.01-.6-1.44-1.04-.74.82-1.18 1.86-1.27 2.96m7.55 0h2.39c-.09-1.1-.53-2.14-1.27-2.96-.43.44-.89.78-1.44 1.04.18.63.29 1.26.32 1.92M16 13.14c.28.69.64 1.31 1.1 1.9-.83-.15-1.61-.51-2.25-1.04.34-.35.71-.63 1.15-.86m.69-5.71c.85.26 1.77.26 2.62 0-.32-.79-.74-1.47-1.31-2.1-.57.63-.99 1.31-1.31 2.1M20 7.14c.44-.22.81-.5 1.15-.85a4.95 4.95 0 0 0-2.25-1.04c.46.58.82 1.2 1.1 1.89m-5.15-.85c.34.35.71.63 1.15.85.28-.69.64-1.31 1.1-1.89-.83.15-1.61.51-2.25 1.04M20 13.14c-.28.69-.64 1.31-1.1 1.9.83-.15 1.6-.51 2.25-1.04-.34-.35-.71-.63-1.15-.86m-3.83-3.37h3.66c-.03-.56-.12-1.1-.27-1.63-1.02.32-2.1.32-3.12 0-.15.53-.24 1.07-.27 1.63m.27 2.38c-.15-.54-.24-1.07-.27-1.63h3.66c-.03.56-.12 1.09-.27 1.63a5.2 5.2 0 0 0-3.12 0M5.59 22.21c-.42-.42-1.09-.42-1.51 0-.51.5-1.01 1.01-1.52 1.51-.41.42-.41 1.1 0 1.52 2.43 2.42 4.85 4.85 7.28 7.27.42.42 1.09.42 1.51 0 .51-.5 1.01-1.01 1.52-1.51.42-.42.42-1.1 0-1.52-2.43-2.42-4.85-4.85-7.28-7.27m21.7 4.19c1.99-2 3.99-4 5.99-5.99.62-.63.63-1.63.01-2.26-.61-.63-1.62-.65-2.25-.04-1.7 1.61-3.39 3.22-5.08 4.83-.5.48-1.16.74-1.85.74h-6.45a.536.536 0 0 1 0-1.07h6.45c.89 0 1.61-.72 1.61-1.6 0-.89-.72-1.61-1.61-1.61h-7.42c-.37 0-.74-.1-1.06-.28a6.376 6.376 0 0 0-8.87 2.74c2.04 2.03 4.07 4.07 6.11 6.11H23.5c1.42 0 2.78-.57 3.79-1.57"/></svg>