<svg xmlns="http://www.w3.org/2000/svg" xml:space="preserve" fill-rule="evenodd" viewBox="0 0 36 36"><path fill="none" d="M0 0h36v36H0z"/><path d="M10.64 22.91c-2.71 0-4.91 2.2-4.91 4.91s2.2 4.91 4.91 4.91 4.91-2.2 4.91-4.91-2.2-4.91-4.91-4.91M29.05 5.73H16.77c-.68 0-1.22.55-1.22 1.23v14.72c0 .68.54 1.23 1.22 1.23h12.28c.67 0 1.22-.55 1.22-1.23V6.95c0-.67-.55-1.22-1.22-1.22m-2.64 11.66v-6.5c.16.24.33.47.49.7.25.35.5.4.86.15.35-.25.4-.5.14-.86-.53-.76-1.07-1.51-1.6-2.27-.14-.19-.28-.26-.5-.26-.23 0-.37.07-.51.26-.53.76-1.07 1.51-1.6 2.27-.25.36-.21.61.14.86.36.25.61.21.86-.15.16-.23.33-.46.49-.7v6.5c0 .43.18.61.62.61.43 0 .61-.18.61-.61m-8 3.06h8.99c.44 0 .62-.18.62-.61s-.18-.61-.62-.61h-8.99c-.43 0-.61.18-.61.61s.18.61.61.61m1-3.06c0 .43.18.61.61.61.44 0 .62-.18.62-.61v-6.5c.16.24.33.47.49.7.25.36.5.4.86.15.35-.25.39-.5.14-.86-.53-.76-1.07-1.51-1.61-2.27-.13-.19-.27-.26-.5-.26-.22 0-.37.07-.5.26-.53.76-1.07 1.51-1.61 2.27-.25.36-.2.61.15.86s.6.2.86-.15c.16-.23.32-.46.49-.7zM8.18 5.73H5.73a1.23 1.23 0 1 1 0-2.46h2.45c2.71 0 4.91 2.2 4.91 4.91V22.6c-.79-.38-1.58-.55-2.45-.55V8.18c0-1.35-1.1-2.45-2.46-2.45m8.22 22.09c0-.88-.17-1.66-.54-2.46h14.41a1.23 1.23 0 1 1 0 2.46zm-5.76-2.46a2.456 2.456 0 1 0 2.45 2.46c0-1.36-1.1-2.46-2.45-2.46"/></svg>