<svg xmlns="http://www.w3.org/2000/svg" xml:space="preserve" width="36" height="36" fill-rule="evenodd" clip-rule="evenodd" image-rendering="optimizeQuality" shape-rendering="geometricPrecision" text-rendering="geometricPrecision" viewBox="0 0 36 36"><path fill="none" d="M0 0h36v36H0z"/><path d="M27.2 21.9c-2.7-2.7-5.4-5.4-8-8.1-.3-.3-.8-.3-1.1 0-1.1 1.1-2.2 2.2-3.3 3.2-.6.6-1.6.6-2.2 0s-.6-1.6 0-2.2c1.1-1.1 2.2-2.2 3.3-3.2 1.5-1.4 3.6-2.2 6.5-2.1l1.1-1.1c2.2 2.2 4.3 4.4 6.5 6.5L28.9 16c0 2.5-.6 4.5-1.7 5.9M4.4 11.3c-.5 0-.9.4-.9.9s.4.9.9.9.9-.4.9-.9-.4-.9-.9-.9m27.2 0c.5 0 .9.4.9.9s-.4.9-.9.9-.9-.4-.9-.9.4-.9.9-.9M12.3 5.8c-.7-.7-1.4-1.4-2.1-2.2-.4-.5-1.2-.5-1.6 0-2.4 2.3-4.7 4.7-7.1 7-.5.4-.5 1.2 0 1.6.7.7 1.4 1.4 2.1 2.2.4.5 1.2.5 1.6 0 2.4-2.3 4.7-4.7 7.1-7 .5-.4.5-1.2 0-1.6M21.2 30c.6.6 1.6.6 2.2 0s.6-1.6 0-2.2c.6.6 1.6.6 2.2 0s.6-1.6 0-2.2c.6.6 1.6.6 2.2 0s.6-1.6 0-2.2c-3.1-3.1-6.1-6.2-9.2-9.2-1.1 1.1-2.2 2.2-3.3 3.2-.9.9-2.4.9-3.3 0s-.9-2.4 0-3.3c1.1-1.1 2.2-2.2 3.3-3.2.5-.5 1-.9 1.6-1.2-1-.3-2-.4-3.2-.4l-1.1-1.1c-2.2 2.2-4.4 4.3-6.5 6.5l1.1 1.1c0 2.5.5 4.5 1.6 5.9l1.2-1.2c.5-.4 1-.6 1.6-.5 1.2.1 2.2 1 2.2 2.2 1.2.1 2.1 1 2.2 2.2 1.2.1 2.1 1 2.2 2.2 1.2.1 2.1 1.1 2.2 2.3 0 .6-.2 1.1-.6 1.6l-1.2 1.2.5.5c.6.6 1.6.6 2.2 0s.6-1.6 0-2.2zm-6.5 2.1c.7.7 1.6.6 2.3-.1l1.8-1.8c.7-.6 1-1.4.4-2.3-.5-.7-1.6-.8-2.3-.2 1.3-1.4-.7-3.5-2.2-2.2 1.3-1.4-.7-3.5-2.2-2.2.6-.7.5-1.7-.2-2.3-.8-.6-1.6-.3-2.3.4l-1.8 1.8c-.7.6-.8 1.6-.1 2.3.6.6 1.5.6 2.1.1-.6.6-.5 1.5 0 2.1.6.6 1.5.6 2.1.1-.6.6-.5 1.5 0 2.1.6.6 1.5.6 2.1.1-.6.6-.5 1.5 0 2.1zm9-26.4c.7-.7 1.4-1.4 2.1-2.2.4-.5 1.2-.5 1.6 0 2.4 2.3 4.7 4.7 7.1 7 .5.4.5 1.2 0 1.6-.7.7-1.4 1.4-2.1 2.2-.4.5-1.2.5-1.6 0-2.4-2.3-4.7-4.7-7.1-7-.5-.4-.5-1.2 0-1.6"/></svg>