<svg xmlns="http://www.w3.org/2000/svg" xml:space="preserve" fill-rule="evenodd" viewBox="0 0 36 36"><path fill="none" d="M0 0h36v36H0z"/><path d="M14.08 4.25a.537.537 0 1 0-.76.76c1.63 1.63 3.27 3.26 4.9 4.9-1.65.23-3.31-.31-4.5-1.46A5.4 5.4 0 0 1 12.12 4c.06-.5.45-.89.95-.94 1.65-.19 3.29.4 4.45 1.59a5.42 5.42 0 0 1 1.46 4.5c-1.64-1.63-3.27-3.27-4.9-4.9M10.6 29.17a1.071 1.071 0 0 1 0 2.14c-.6 0-1.08-.48-1.08-1.07s.48-1.07 1.08-1.07m-5.01-6.96c-.42-.42-1.09-.42-1.51 0-.51.5-1.01 1.01-1.52 1.51-.41.42-.41 1.1 0 1.52 2.43 2.42 4.85 4.85 7.28 7.27.42.42 1.09.42 1.51 0 .51-.5 1.01-1.01 1.52-1.51.42-.42.42-1.1 0-1.52-2.43-2.42-4.85-4.85-7.28-7.27m21.7 4.19c1.99-2 3.99-4 5.99-6 .62-.62.63-1.62.01-2.25-.61-.63-1.62-.65-2.25-.04-1.7 1.61-3.39 3.22-5.08 4.84-.5.47-1.16.73-1.85.73h-6.45a.536.536 0 0 1 0-1.07h6.45c.89 0 1.61-.72 1.61-1.6 0-.89-.72-1.61-1.61-1.61h-7.42c-.37 0-.74-.1-1.06-.28a6.376 6.376 0 0 0-8.87 2.74l6.11 6.11H23.5c1.42 0 2.78-.57 3.79-1.57m.79-17.81c.44 2.6-.41 5.25-2.28 7.1a8.04 8.04 0 0 1-7.12 2.19l8.25-8.25a.537.537 0 1 0-.76-.76l-8.25 8.25c-.48-2.59.34-5.25 2.19-7.12a8.02 8.02 0 0 1 7.09-2.28c.45.08.8.43.88.87"/></svg>