<svg xmlns="http://www.w3.org/2000/svg" xml:space="preserve" width="36" height="36" fill-rule="evenodd" clip-rule="evenodd" image-rendering="optimizeQuality" shape-rendering="geometricPrecision" text-rendering="geometricPrecision" viewBox="0 0 36 36"><path fill="none" d="M0 0h36v36H0z"/><path d="M5.59 22.21c-.42-.42-1.09-.42-1.51 0-.51.5-1.01 1.01-1.52 1.51-.42.42-.42 1.1 0 1.51 2.43 2.43 4.85 4.86 7.28 7.28.42.42 1.09.42 1.51 0 .51-.51 1.01-1.01 1.52-1.51.42-.42.42-1.1 0-1.52-2.43-2.42-4.85-4.85-7.28-7.27M16.42 9.35c.44-.88 1.51-1.22 2.38-.78s1.22 1.5.78 2.37-1.51 1.22-2.38.78-1.22-1.5-.78-2.37m-.95-.49c.7-1.4 2.41-1.96 3.81-1.25s1.96 2.42 1.25 3.81a2.843 2.843 0 0 1-3.81 1.26 2.84 2.84 0 0 1-1.25-3.82M10.6 29.17a1.071 1.071 0 0 1 0 2.14c-.6 0-1.08-.48-1.08-1.07s.48-1.07 1.08-1.07m1.72-15.52a.514.514 0 0 1-.69-.29c-.14-.33-.28-.66-.41-.99-.12-.27.01-.58.29-.7l1.59-.66c-.11-.58-.11-1.15 0-1.74l-1.59-.66a.52.52 0 0 1-.29-.7c.13-.33.27-.66.41-.99.11-.27.42-.4.69-.29.54.23 1.07.44 1.6.66.34-.49.74-.89 1.23-1.23l-.66-1.59c-.11-.27.02-.59.29-.7.33-.14.66-.27.99-.41.27-.11.59.02.7.29l.66 1.59c.59-.1 1.15-.1 1.74 0l.66-1.59c.11-.27.43-.4.7-.29.33.14.66.27.99.41.27.11.4.43.29.7l-.66 1.59c.49.34.89.74 1.23 1.23l1.59-.66c.28-.11.59.02.7.29.14.33.28.66.41.99.12.28-.01.59-.29.7l-1.59.66c.11.59.11 1.16 0 1.74l1.59.66c.28.12.41.43.29.7-.13.33-.27.66-.41.99-.11.28-.42.41-.7.29l-1.59-.66c-.34.49-.74.89-1.23 1.24l.66 1.59c.11.27-.02.59-.29.7-.33.13-.66.27-.99.41a.54.54 0 0 1-.7-.29l-.66-1.59c-.59.1-1.15.1-1.74 0l-.66 1.59c-.11.27-.43.4-.7.29-.33-.14-.66-.28-.99-.41a.54.54 0 0 1-.29-.7l.66-1.59c-.49-.35-.89-.75-1.23-1.24-.53.22-1.06.44-1.6.66M27.29 26.4c1.99-2 3.99-4 5.99-6 .62-.62.63-1.62.01-2.25-.61-.63-1.62-.65-2.25-.04-1.7 1.61-3.39 3.22-5.08 4.83-.5.48-1.16.74-1.85.74h-6.45a.536.536 0 0 1 0-1.07h6.45c.89 0 1.61-.72 1.61-1.6 0-.89-.72-1.61-1.61-1.61h-7.42c-.37 0-.74-.1-1.06-.28a6.376 6.376 0 0 0-8.87 2.74l6.11 6.11H23.5c1.42 0 2.78-.57 3.78-1.57z"/></svg>