<svg xmlns="http://www.w3.org/2000/svg" xml:space="preserve" width="36" height="36" fill-rule="evenodd" clip-rule="evenodd" image-rendering="optimizeQuality" shape-rendering="geometricPrecision" text-rendering="geometricPrecision" viewBox="0 0 36 36"><path fill="none" d="M0 0h36v36H0z"/><path d="M27.72 16.71c.56.15 1.14-.16 1.32-.72 1-3.24.99-6.71-.03-9.95-.16-.52-.7-.84-1.23-.73-2.62.53-4.96 2.01-6.57 4.14v3.21c1.74 1.94 4 3.35 6.51 4.05M10.6 29.17a1.071 1.071 0 0 1 0 2.14c-.6 0-1.08-.48-1.08-1.07s.48-1.07 1.08-1.07m-5.01-6.96c-.42-.42-1.09-.42-1.51 0-.51.5-1.01 1.01-1.52 1.51-.41.42-.41 1.1 0 1.51 2.43 2.43 4.85 4.86 7.28 7.28.42.42 1.09.42 1.51 0 .51-.51 1.01-1.01 1.52-1.51.42-.42.42-1.1 0-1.52-2.43-2.42-4.85-4.85-7.28-7.27m21.7 4.19c1.99-2 3.99-4 5.99-6 .62-.62.63-1.62.01-2.25-.61-.63-1.62-.65-2.26-.04l-5.07 4.83c-.5.48-1.16.74-1.85.74h-6.45a.536.536 0 0 1 0-1.07h6.45c.89 0 1.61-.72 1.61-1.6 0-.89-.72-1.61-1.61-1.61h-7.42c-.37 0-.74-.1-1.06-.28a6.376 6.376 0 0 0-8.87 2.74l6.11 6.11H23.5c1.42 0 2.78-.57 3.79-1.57M8.28 16.71c-.56.15-1.14-.16-1.31-.72-1.01-3.24-1-6.71.02-9.95.16-.52.7-.84 1.23-.73 2.62.53 4.96 2.01 6.57 4.14v3.21c-1.74 1.94-4 3.35-6.51 4.05m8.65-2.98h2.14c.59 0 1.07-.48 1.07-1.07V9.45c0-.59-.48-1.07-1.07-1.07h-2.14c-.59 0-1.07.48-1.07 1.07v3.21c0 .59.48 1.07 1.07 1.07"/></svg>