<svg xmlns="http://www.w3.org/2000/svg" xml:space="preserve" width="36" height="36" fill-rule="evenodd" clip-rule="evenodd" image-rendering="optimizeQuality" shape-rendering="geometricPrecision" text-rendering="geometricPrecision" viewBox="0 0 36 36"><path fill="none" d="M0 0h36v36H0z"/><path d="M25.08 18.2c0 .26.22.48.48.48.27 0 .49-.22.49-.48V9.54c0-1.01.81-1.83 1.82-1.83s1.83.82 1.83 1.83V23.3c0 5.52-4.14 10.17-9.63 10.81-5.48.63-10.58-2.94-11.84-8.32-.63-2.66-1.26-5.31-1.88-7.97-.23-.98.38-1.97 1.36-2.2s1.97.38 2.2 1.36c.44 1.9.89 3.79 1.33 5.69a.5.5 0 0 0 .53.37c.24-.03.42-.24.42-.48V5.61c0-1.01.82-1.82 1.83-1.82s1.83.81 1.83 1.82v11.31c0 .27.21.48.48.48s.48-.21.48-.48V3.65a1.83 1.83 0 0 1 3.66 0v12.79c0 .26.21.48.48.48.26 0 .48-.22.48-.48V4.93c0-1.01.82-1.83 1.83-1.83 1 0 1.82.82 1.82 1.83zm-3.76 3.68a3.92 3.92 0 0 0-4.77.6 3.934 3.934 0 0 0-.61 4.78c1.79-1.8 3.59-3.59 5.38-5.38m-3.99 6.77c1.55.9 3.51.66 4.78-.61a3.946 3.946 0 0 0 .6-4.78c-1.79 1.8-3.59 3.59-5.38 5.39m2-9.28a5.89 5.89 0 1 0 0 11.78c3.25 0 5.89-2.63 5.89-5.89 0-3.25-2.64-5.89-5.89-5.89"/></svg>