<svg xmlns="http://www.w3.org/2000/svg" width="18" height="16" viewBox="0 0 18 16">
  <path id="havarijne-poistenie" d="M14,6H12V7h2ZM4,6H6V7H4ZM14,5H12a1,1,0,0,0-1,1V7a1,1,0,0,0,1,1h2a1,1,0,0,0,1-1V6A1,1,0,0,0,14,5ZM4,5H6A1,1,0,0,1,7,6V7A1,1,0,0,1,6,8H4A1,1,0,0,1,3,7V6A1,1,0,0,1,4,5Zm9-2h2V1H13ZM2.12,10H15.88l-2.5,5H4.62ZM2,9H16V4H2V9ZM3,3H5V1H3ZM.5,11a.5.5,0,0,1,.5.5v1a.5.5,0,0,1-.5.5.5.5,0,0,1-.5-.5v-1A.5.5,0,0,1,.5,11ZM6,3h6V1a1,1,0,0,1,1-1h2a1,1,0,0,1,1,1V3a1,1,0,0,1,1,1V9.76a.883.883,0,0,1-.11.45c-.87,1.75-1.74,3.49-2.61,5.24a1,1,0,0,1-.9.55H4.62a1,1,0,0,1-.9-.55c-.87-1.75-1.74-3.49-2.61-5.24A.883.883,0,0,1,1,9.76V4A1,1,0,0,1,2,3V1A1,1,0,0,1,3,0H5A1,1,0,0,1,6,1Zm11.5,8a.5.5,0,0,1,.5.5v1a.5.5,0,0,1-1,0v-1A.5.5,0,0,1,17.5,11Z" fill-rule="evenodd"/>
</svg>
