<svg width="26" height="26" viewBox="0 0 26 26" fill="none" xmlns="http://www.w3.org/2000/svg">
<g clip-path="url(#clip0_353_2912)">
<path fill-rule="evenodd" clip-rule="evenodd" d="M0 0H26V26H0V0Z" fill="#CCCCCC"/>
<path fill-rule="evenodd" clip-rule="evenodd" d="M17.7998 17.6C16.8998 16.7 16.8998 15.2 17.7998 14.3C18.6998 13.4 20.1998 13.4 21.0998 14.3C21.9998 15.2 21.9998 16.7 21.0998 17.6C20.1998 18.5 18.6998 18.5 17.7998 17.6ZM6.19985 2.6C6.39985 2.8 6.69985 3.1 6.89985 3.3C6.89985 3.4 6.79985 3.4 6.79985 3.5C6.69985 3.6 6.59985 3.8 6.49985 3.9C6.29985 4.2 6.19985 4.5 6.09985 4.9C5.69985 6.2 6.19985 7.7 7.29985 8.5C8.39985 9.4 9.89985 9.5 11.0998 8.8C11.2998 8.7 11.3998 8.6 11.4998 8.5L11.8998 8.3C13.5998 10 15.3998 11.8 17.0998 13.5C16.9998 13.7 16.8998 13.8 16.8998 13.9C16.7998 14 16.6998 14.2 16.5998 14.3C15.8998 15.5 15.9998 17 16.8998 18.1C17.7998 19.2 19.1998 19.7 20.4998 19.3C20.7998 19.2 21.1998 19.1 21.4998 18.9C21.5998 18.8 21.7998 18.7 21.8998 18.6C21.9998 18.6 21.9998 18.5 22.0998 18.5C22.5998 19 23.1998 19.6 23.6998 20.1C23.9998 20.4 23.9998 20.9 23.6998 21.3C22.9998 22 22.3998 22.6 21.6998 23.3C21.1998 23.8 20.2998 23.9 19.6998 23.5C18.2998 22.6 16.7998 21.8 15.3998 20.9C15.0998 20.7 14.8998 20.7 14.5998 20.7C13.3998 20.7 12.2998 20.7 11.0998 20.7C10.5998 20.7 10.2998 20.6 9.89985 20.2C7.89985 18.2 5.89985 16.2 3.89985 14.2C3.59985 13.9 3.39985 13.5 3.39985 13C3.39985 11.8 3.39985 10.5 3.39985 9.3C3.39985 9.1 3.39985 9 3.29985 8.8C2.99985 8 2.79985 7.3 2.49985 6.5C2.29985 5.9 2.49985 5.3 2.89985 4.8C3.59985 4.1 4.39985 3.3 5.09985 2.6C5.39985 2.3 5.89985 2.3 6.29985 2.6H6.19985ZM7.79985 15.8C8.19985 15.4 8.69985 14.9 9.09985 14.5C9.29985 14.3 9.49985 14.3 9.69985 14.5C11.0998 15.9 12.4998 17.3 13.7998 18.6C14.0998 18.9 13.8998 19.3 13.4998 19.3C12.6998 19.3 11.7998 19.3 10.9998 19.3C10.7998 19.3 10.5998 19.2 10.3998 19.1C9.49985 18.2 8.59985 17.3 7.69985 16.4C7.49985 16.2 7.49985 16 7.69985 15.8H7.79985ZM6.59985 15.2C5.99985 14.6 5.29985 13.9 4.69985 13.3C4.49985 13.1 4.49985 13 4.49985 12.7C4.49985 11.9 4.49985 11 4.49985 10.2C4.49985 9.8 4.89985 9.7 5.19985 9.9C6.29985 11 7.39985 12.1 8.59985 13.3C8.79985 13.5 8.79985 13.7 8.59985 13.9C8.19985 14.3 7.69985 14.8 7.29985 15.2C7.09985 15.4 6.89985 15.4 6.69985 15.2H6.59985ZM7.69985 7.3C8.59985 8.2 9.99985 8.2 10.8998 7.3C11.7998 6.4 11.7998 5 10.8998 4.1C9.99985 3.2 8.59985 3.2 7.69985 4.1C6.79985 5 6.79985 6.4 7.69985 7.3Z" fill="white"/>
</g>
<defs>
<clipPath id="clip0_353_2912">
<rect width="26" height="26" fill="white"/>
</clipPath>
</defs>
</svg>
