<?xml version="1.0" encoding="UTF-8"?>
<!DOCTYPE svg PUBLIC "-//W3C//DTD SVG 1.1//EN" "http://www.w3.org/Graphics/SVG/1.1/DTD/svg11.dtd">
<!-- Creator: CorelDRAW 2020 (64-Bit) -->
<svg xmlns="http://www.w3.org/2000/svg" xml:space="preserve" width="26px" height="26px" version="1.1" style="shape-rendering:geometricPrecision; text-rendering:geometricPrecision; image-rendering:optimizeQuality; fill-rule:evenodd; clip-rule:evenodd"
viewBox="0 0 260 260"
 xmlns:xlink="http://www.w3.org/1999/xlink"
 xmlns:xodm="http://www.corel.com/coreldraw/odm/2003">
 <defs>
  <style type="text/css">
   <![CDATA[
    .fil0 {fill:#CCCCCC}
    .fil1 {fill:white}
   ]]>
  </style>
 </defs>
 <g id="Layer_x0020_1">
  <metadata id="CorelCorpID_0Corel-Layer"/>
  <g id="_2850349715440">
   <polygon class="fil0" points="0,0 260,0 260,260 0,260 "/>
   <path class="fil1" d="M178 176c-9,-9 -9,-24 0,-33 9,-9 24,-9 33,0 9,9 9,24 0,33 -9,9 -24,9 -33,0zm-116 -150c2,2 5,5 7,7 0,1 -1,1 -1,2 -1,1 -2,3 -3,4 -2,3 -3,6 -4,10 -4,13 1,28 12,36 11,9 26,10 38,3 2,-1 3,-2 4,-3l4 -2c17,17 35,35 52,52 -1,2 -2,3 -2,4 -1,1 -2,3 -3,4 -7,12 -6,27 3,38 9,11 23,16 36,12 3,-1 7,-2 10,-4 1,-1 3,-2 4,-3 1,0 1,-1 2,-1 5,5 11,11 16,16 3,3 3,8 0,12 -7,7 -13,13 -20,20 -5,5 -14,6 -20,2 -14,-9 -29,-17 -43,-26 -3,-2 -5,-2 -8,-2 -12,0 -23,0 -35,0 -5,0 -8,-1 -12,-5 -20,-20 -40,-40 -60,-60 -3,-3 -5,-7 -5,-12 0,-12 0,-25 0,-37 0,-2 0,-3 -1,-5 -3,-8 -5,-15 -8,-23 -2,-6 0,-12 4,-17 7,-7 15,-15 22,-22 3,-3 8,-3 12,0zm16 132c4,-4 9,-9 13,-13 2,-2 4,-2 6,0 14,14 28,28 41,41 3,3 1,7 -3,7 -8,0 -17,0 -25,0 -2,0 -4,-1 -6,-2 -9,-9 -18,-18 -27,-27 -2,-2 -2,-4 0,-6zm-12 -6c-6,-6 -13,-13 -19,-19 -2,-2 -2,-3 -2,-6 0,-8 0,-17 0,-25 0,-4 4,-5 7,-3 11,11 22,22 34,34 2,2 2,4 0,6 -4,4 -9,9 -13,13 -2,2 -4,2 -6,0zm11 -79c9,9 23,9 32,0 9,-9 9,-23 0,-32 -9,-9 -23,-9 -32,0 -9,9 -9,23 0,32z"/>
  </g>
 </g>
</svg>
