<svg xmlns="http://www.w3.org/2000/svg" xml:space="preserve" fill-rule="evenodd" viewBox="0 0 36 36"><path fill="none" d="M0 0h36v36H0z"/><path d="M7.28 19.61c-2.99-2.98-2.98-7.82 0-10.8 2.95-2.96 7.73-2.98 10.72-.08 2.99-2.9 7.77-2.88 10.72.08 2.98 2.98 2.99 7.82 0 10.8-2.88 3.24-6.05 6.31-9.52 8.92l-1.2.9-1.2-.9c-3.47-2.61-6.64-5.68-9.52-8.92m7.22-2.84.99-3.51c.06-.23.26-.39.5-.39.24-.01.45.14.53.37l1.95 5.86 1.09-3.6c.06-.2.22-.34.42-.38.2-.03.4.04.52.2l.69.9h4.37c.3 0 .54.24.54.54 0 .29-.24.54-.54.54h-4.63a.53.53 0 0 1-.43-.21l-.21-.27-1.27 4.22c-.07.23-.27.38-.51.38a.52.52 0 0 1-.52-.37l-1.94-5.81-.77 2.74a.55.55 0 0 1-.4.38.52.52 0 0 1-.52-.16l-.85-.9h-3.04c-.3 0-.54-.25-.54-.54 0-.3.24-.54.54-.54h3.28c.15 0 .29.05.39.17zm2.84-5.88-.67-.67a5.63 5.63 0 0 0-7.98 0c-2.24 2.24-2.19 5.79.03 8.02 2.83 3.16 5.88 6.14 9.28 8.69 3.4-2.55 6.45-5.53 9.28-8.69 2.22-2.23 2.27-5.78.03-8.02a5.63 5.63 0 0 0-7.98 0l-.67.67c-.36.36-.96.36-1.32 0"/></svg>