<svg width="26" height="26" viewBox="0 0 26 26" fill="none" xmlns="http://www.w3.org/2000/svg">
<g clip-path="url(#clip0_353_2923)">
<path fill-rule="evenodd" clip-rule="evenodd" d="M0 0H26V26H0V0Z" fill="#CCCCCC"/>
<path d="M10.9082 10.707C14.1722 10.707 17.4362 10.707 20.7002 10.707C20.9802 10.707 21.1502 10.616 21.3052 10.384C21.6462 9.87299 21.9872 9.36199 22.3282 8.85099C22.4832 8.61799 22.6532 8.52699 22.9332 8.52699C23.1312 8.52699 23.3292 8.52699 23.5282 8.52699C23.7442 8.52699 23.8842 8.75399 23.7882 8.94799C23.4182 9.68699 23.0482 10.427 22.6782 11.166C22.5832 11.357 22.5722 11.52 22.6392 11.722C22.8072 12.226 22.9752 12.73 23.1442 13.235C23.2062 13.423 23.0662 13.618 22.8672 13.618C22.5772 13.618 22.2872 13.618 21.9962 13.618C21.8662 13.618 21.7942 13.573 21.7362 13.457C21.6122 13.208 21.4872 12.959 21.3632 12.71C21.2052 12.394 20.8422 12.237 20.5032 12.339C18.9262 12.812 17.3542 13.38 15.9292 14.205C15.4462 14.485 15.1722 14.827 15.0052 15.359C14.2442 17.785 11.9962 19.437 9.45415 19.437C7.99915 19.437 6.54515 19.437 5.09015 19.437C3.48315 19.437 2.18015 18.134 2.18115 16.526C2.18015 13.313 4.78515 10.707 7.99915 10.707C9.45415 10.707 10.9082 10.707 12.3622 10.707H10.9082ZM12.7802 9.25399C14.7202 9.25399 16.9682 9.25399 18.9072 9.25399C19.3092 9.25399 19.6352 8.92899 19.6352 8.52699C19.6352 8.12599 19.3092 7.79999 18.9072 7.79999C16.9682 7.79999 14.7202 7.79999 12.7802 7.79999C12.3792 7.79999 12.0532 8.12599 12.0532 8.52699C12.0532 8.92899 12.3792 9.25399 12.7802 9.25399ZM12.3222 21.109C11.8602 21.109 11.4862 20.735 11.4862 20.273C11.4862 19.811 11.8602 19.437 12.3222 19.437C12.7842 19.437 13.1582 19.811 13.1582 20.273C13.1582 20.735 12.7842 21.109 12.3222 21.109ZM10.9082 8.94499C10.6772 8.94499 10.4902 8.75799 10.4902 8.52699C10.4902 8.29599 10.6772 8.10899 10.9082 8.10899C11.1392 8.10899 11.3262 8.29599 11.3262 8.52699C11.3262 8.75799 11.1392 8.94499 10.9082 8.94499ZM4.25415 21.109C4.02315 21.109 3.83615 20.922 3.83615 20.691C3.83615 20.46 4.02315 20.273 4.25415 20.273C4.48515 20.273 4.67215 20.46 4.67215 20.691C4.67215 20.922 4.48515 21.109 4.25415 21.109ZM9.00915 17.668C9.51515 17.668 10.0202 17.668 10.5252 17.668C10.5252 17.046 10.5252 16.425 10.5252 15.802C11.1472 15.802 11.7692 15.802 12.3912 15.802C12.3912 15.297 12.3912 14.792 12.3912 14.286C11.7692 14.286 11.1472 14.286 10.5252 14.286C10.5252 13.664 10.5252 13.043 10.5252 12.42C10.0202 12.42 9.51515 12.42 9.00915 12.42C9.00915 13.043 9.00915 13.664 9.00915 14.286C8.38715 14.286 7.76515 14.286 7.14315 14.286C7.14315 14.792 7.14315 15.297 7.14315 15.802C7.76515 15.802 8.38715 15.802 9.00915 15.802C9.00915 16.425 9.00915 17.046 9.00915 17.668ZM2.90815 9.25399C4.84815 9.25399 7.09615 9.25399 9.03515 9.25399C9.43715 9.25399 9.76215 8.92899 9.76215 8.52699C9.76215 8.12599 9.43715 7.79999 9.03515 7.79999C7.09615 7.79999 4.84815 7.79999 2.90815 7.79999C2.50715 7.79999 2.18115 8.12599 2.18115 8.52699C2.18115 8.92899 2.50715 9.25399 2.90815 9.25399Z" fill="white"/>
</g>
<defs>
<clipPath id="clip0_353_2923">
<rect width="26" height="26" fill="white"/>
</clipPath>
</defs>
</svg>
