<?xml version="1.0" encoding="UTF-8"?>
<!DOCTYPE svg PUBLIC "-//W3C//DTD SVG 1.1//EN" "http://www.w3.org/Graphics/SVG/1.1/DTD/svg11.dtd">
<!-- Creator: CorelDRAW 2020 (64-Bit) -->
<svg xmlns="http://www.w3.org/2000/svg" xml:space="preserve" width="26px" height="26px" version="1.1" style="shape-rendering:geometricPrecision; text-rendering:geometricPrecision; image-rendering:optimizeQuality; fill-rule:evenodd; clip-rule:evenodd"
viewBox="0 0 26 26"
 xmlns:xlink="http://www.w3.org/1999/xlink"
 xmlns:xodm="http://www.corel.com/coreldraw/odm/2003">
 <defs>
  <style type="text/css">
   <![CDATA[
    .fil0 {fill:#004A5D}
    .fil1 {fill:white;fill-rule:nonzero}
   ]]>
  </style>
 </defs>
 <g id="Layer_x0020_1">
  <metadata id="CorelCorpID_0Corel-Layer"/>
  <g id="_1921343027344">
   <polygon class="fil0" points="0,0 26,0 26,26 0,26 "/>
   <g>
    <path class="fil1" d="M10.908 10.707c3.264,0 6.528,0 9.792,0 0.28,0 0.45,-0.091 0.605,-0.323 0.341,-0.511 0.682,-1.022 1.023,-1.533 0.155,-0.233 0.325,-0.324 0.605,-0.324 0.198,0 0.396,0 0.595,0 0.216,0 0.356,0.227 0.26,0.421 -0.37,0.739 -0.74,1.479 -1.11,2.218 -0.095,0.191 -0.106,0.354 -0.039,0.556 0.168,0.504 0.336,1.008 0.505,1.513 0.062,0.188 -0.078,0.383 -0.277,0.383 -0.29,0 -0.58,0 -0.871,0 -0.13,0 -0.202,-0.045 -0.26,-0.161 -0.124,-0.249 -0.249,-0.498 -0.373,-0.747 -0.158,-0.316 -0.521,-0.473 -0.86,-0.371 -1.577,0.473 -3.149,1.041 -4.574,1.866 -0.483,0.28 -0.757,0.622 -0.924,1.154 -0.761,2.426 -3.009,4.078 -5.551,4.078 -1.455,0 -2.909,0 -4.364,0 -1.607,0 -2.91,-1.303 -2.909,-2.911 -0.001,-3.213 2.604,-5.819 5.818,-5.819 1.455,0 2.909,0 4.363,0l-1.454 0zm1.872 -1.453c1.94,0 4.188,0 6.127,0 0.402,0 0.728,-0.325 0.728,-0.727 0,-0.401 -0.326,-0.727 -0.728,-0.727 -1.939,0 -4.187,0 -6.127,0 -0.401,0 -0.727,0.326 -0.727,0.727 0,0.402 0.326,0.727 0.727,0.727zm-0.458 11.855c-0.462,0 -0.836,-0.374 -0.836,-0.836 0,-0.462 0.374,-0.836 0.836,-0.836 0.462,0 0.836,0.374 0.836,0.836 0,0.462 -0.374,0.836 -0.836,0.836zm-1.414 -12.164c-0.231,0 -0.418,-0.187 -0.418,-0.418 0,-0.231 0.187,-0.418 0.418,-0.418 0.231,0 0.418,0.187 0.418,0.418 0,0.231 -0.187,0.418 -0.418,0.418zm-6.654 12.164c-0.231,0 -0.418,-0.187 -0.418,-0.418 0,-0.231 0.187,-0.418 0.418,-0.418 0.231,0 0.418,0.187 0.418,0.418 0,0.231 -0.187,0.418 -0.418,0.418zm4.755 -3.441c0.506,0 1.011,0 1.516,0 0,-0.622 0,-1.243 0,-1.866 0.622,0 1.244,0 1.866,0 0,-0.505 0,-1.01 0,-1.516 -0.622,0 -1.244,0 -1.866,0 0,-0.622 0,-1.243 0,-1.866 -0.505,0 -1.01,0 -1.516,0 0,0.623 0,1.244 0,1.866 -0.622,0 -1.244,0 -1.866,0 0,0.506 0,1.011 0,1.516 0.622,0 1.244,0 1.866,0 0,0.623 0,1.244 0,1.866zm-6.101 -8.414c1.94,0 4.188,0 6.127,0 0.402,0 0.727,-0.325 0.727,-0.727 0,-0.401 -0.325,-0.727 -0.727,-0.727 -1.939,0 -4.187,0 -6.127,0 -0.401,0 -0.727,0.326 -0.727,0.727 0,0.402 0.326,0.727 0.727,0.727z"/>
   </g>
  </g>
 </g>
</svg>
