<svg xmlns="http://www.w3.org/2000/svg" xml:space="preserve" width="36" height="36" fill-rule="evenodd" clip-rule="evenodd" image-rendering="optimizeQuality" shape-rendering="geometricPrecision" text-rendering="geometricPrecision" viewBox="0 0 36 36"><path fill="none" d="M0 0h36v36H0z"/><path d="M9.2 5.4h1.3v5c0 5.7 4.6 5.9 4.6 7.5 0 1.4-4.6 1.9-4.6 7.5v5H9.2c-.7 0-1.3.6-1.3 1.3S8.5 33 9.2 33h17.6c.7 0 1.3-.6 1.3-1.3s-.6-1.3-1.3-1.3h-1.3v-5c0-5.6-4.6-6.2-4.6-7.5 0-1.4 4.6-1.9 4.6-7.5v-5h1.3c.7 0 1.3-.6 1.3-1.3s-.6-1.3-1.3-1.3H9.2c-.7 0-1.3.6-1.3 1.3s.6 1.3 1.3 1.3M18 29.2h-5c0-3.6 3-8.8 5-8.8 2.1 0 5 5.2 5 8.8zM11.7 5.4h12.6v5c0 1.8-.5 3.2-1.9 4.4-.5.4-1 .8-1.5 1.1-.7.5-1.2 1.1-1.2 2s.6 1.4 1.2 1.9c.5.4 1 .7 1.5 1.1 1.4 1.2 1.9 2.6 1.9 4.5v5H11.7v-5c0-1.8.5-3.2 1.9-4.4.5-.4 1-.8 1.5-1.1.6-.5 1.2-1.1 1.2-2 0-1.6-1.7-2.3-2.8-3.2-1.4-1.2-1.9-2.5-1.9-4.3v-5z"/></svg>