<svg xmlns="http://www.w3.org/2000/svg" xml:space="preserve" width="36" height="36" fill-rule="evenodd" clip-rule="evenodd" image-rendering="optimizeQuality" shape-rendering="geometricPrecision" text-rendering="geometricPrecision" viewBox="0 0 36 36"><path fill="none" d="M0 0h36v36H0z"/><path d="M20.4 18.85a.55.55 0 0 0-.77 0L18.48 20l-1.15-1.15a.55.55 0 0 0-.77 0 .55.55 0 0 0 0 .77l1.54 1.53c.21.21.55.21.76 0l1.54-1.53a.55.55 0 0 0 0-.77m4.9-16.62h-1.23c-.35 0-.62.28-.62.62v1.4L18.83 1.9c-.25-.13-.45-.13-.71 0C15 3.49 11.87 5.08 8.75 6.67c-.32.16-.44.54-.28.85.16.32.54.44.85.28l.48-.24v8.41c0 .29.25.54.54.54h16.27c.3 0 .54-.25.54-.54V7.56l.49.24a.634.634 0 0 0 .57-1.13l-2.29-1.16V2.85c0-.34-.28-.62-.62-.62M13.24 12.92h3.54c.27 0 .39-.11.39-.39V8.99c0-.28-.12-.39-.39-.39h-3.54c-.28 0-.4.11-.4.39v3.54c0 .28.12.39.4.39m10.87-.39V8.99c0-.28-.11-.39-.39-.39h-3.54c-.28 0-.39.11-.39.39v3.54c0 .28.11.39.39.39h3.54c.28 0 .39-.11.39-.39m-13.18 9.66v8.47c-2.53-.6-5.19-.4-7.59.58V22.9c2.34-1.2 5.06-1.46 7.59-.71m11.99 1.7v8.4c-.73.31-1.46.53-2.24.66v-8.52c.77-.11 1.51-.29 2.24-.54M3.15 32.51c-.42.19-.9-.11-.9-.57v-9.31c0-.27.09-.42.33-.55 3.39-1.86 7.49-1.86 10.88 0 2.98 1.63 6.53 1.84 9.68.57.41-.16.86.14.86.59v9.35c0 .29-.1.45-.36.57-2.22 1.02-4.7 1.29-7.09.79 3.09-1.19 3.12-5.54.05-6.77-3.07-1.22-6.05 1.95-4.62 4.94-2.88-1.07-6.06-.93-8.83.39m12.1-4.5a2.546 2.546 0 1 0 .011 5.091 2.546 2.546 0 0 0-.011-5.091m12.38-5.42c-1.4 0-2.55 1.14-2.55 2.55s1.15 2.55 2.55 2.55c1.41 0 2.55-1.14 2.55-2.55s-1.14-2.55-2.55-2.55m3.57 5.42c-1.41 0-2.55 1.14-2.55 2.55s1.14 2.55 2.55 2.55 2.55-1.14 2.55-2.55-1.14-2.55-2.55-2.55"/></svg>