<svg xmlns="http://www.w3.org/2000/svg" width="46" height="30.001" viewBox="0 0 46 30.001">
  <path id="i_faceid" d="M7475.714,11630a3,3,0,0,1-3-3v-24a3,3,0,0,1,3-3h40a3,3,0,0,1,3,3v24a3,3,0,0,1-3,3Zm-1-27v24a1,1,0,0,0,1,1h40a1,1,0,0,0,1-1v-24a1,1,0,0,0-1-1h-40A1,1,0,0,0,7474.713,11603Zm17.457,22v-1.818h2.726v-2.727h1.818v2.727a1.823,1.823,0,0,1-1.818,1.818Zm-13.636,0a1.824,1.824,0,0,1-1.818-1.818v-2.727h1.818v2.727h2.726V11625Zm3.021-4.843a7.354,7.354,0,1,1,5.16,2.113A7.016,7.016,0,0,1,7481.555,11620.158Zm1.3-9.021a5.489,5.489,0,1,0,3.864-1.591A5.26,5.26,0,0,0,7482.851,11611.137Zm1.909,6.421a3.386,3.386,0,0,1-1.226-1.648h6.363a3.372,3.372,0,0,1-1.229,1.648,3.367,3.367,0,0,1-3.908,0Zm3.582-3.727a.882.882,0,0,1-.263-.648.909.909,0,1,1,1.818,0,.916.916,0,0,1-1.556.648Zm-4.547,0a.891.891,0,0,1-.26-.648.909.909,0,1,1,1.556.648.938.938,0,0,1-1.3,0Zm17.921-.832v-2h12v2Zm-6.818-3.453v-2.727h-2.726V11605h2.726a1.823,1.823,0,0,1,1.818,1.818v2.727Zm-18.181,0v-2.727a1.824,1.824,0,0,1,1.818-1.818h2.726v1.818h-2.726v2.727Zm25-.546v-2h12v2Z" transform="translate(-7472.714 -11599.999)" fill="#fff"/>
</svg>
