<svg xmlns="http://www.w3.org/2000/svg" width="30" height="30" viewBox="0 0 30 30">
  <path id="faceauth" d="M9007-14v-3h3a2,2,0,0,0,2-2v-3h3v3a5,5,0,0,1-5,5Zm-17,0a5.006,5.006,0,0,1-5-5v-3h3v3a2,2,0,0,0,2,2h3v3Zm5.366-8.192A8.256,8.256,0,0,1,8992.347-26h2.477a6.168,6.168,0,0,0,2.2,2.195A5.766,5.766,0,0,0,9000-23a5.775,5.775,0,0,0,2.981-.805A6.165,6.165,0,0,0,9005.172-26h2.479a8.237,8.237,0,0,1-3.024,3.808A7.937,7.937,0,0,1,9000-20.749,7.955,7.955,0,0,1,8995.365-22.193Zm8.29-8.964a2.16,2.16,0,0,1-.656-1.593,2.168,2.168,0,0,1,.656-1.6,2.17,2.17,0,0,1,1.6-.656,2.17,2.17,0,0,1,1.59.656,2.176,2.176,0,0,1,.656,1.6,2.167,2.167,0,0,1-.656,1.593,2.162,2.162,0,0,1-1.59.656A2.161,2.161,0,0,1,9003.655-31.156Zm-10.5,0a2.161,2.161,0,0,1-.658-1.593,2.17,2.17,0,0,1,.658-1.6,2.169,2.169,0,0,1,1.593-.656,2.182,2.182,0,0,1,1.6.656,2.18,2.18,0,0,1,.652,1.6,2.171,2.171,0,0,1-.652,1.593,2.173,2.173,0,0,1-1.6.656A2.161,2.161,0,0,1,8993.155-31.156ZM9014.994-36h-3v-3a2.005,2.005,0,0,0-2-2h-3v-3h3a5.006,5.006,0,0,1,5,5v3Zm-30,0v-3a5.008,5.008,0,0,1,5-5h3v3h-3a2,2,0,0,0-2,2v3Z" transform="translate(-8984.997 44)" fill="#fff"/>
</svg>
