<svg xmlns="http://www.w3.org/2000/svg" viewBox="0 0 19.746 19.75">
  <path id="i_phone_calling" d="M5164.816-2006.525c-4-4.216-4.723-7.83-4.812-9.509a2.3,2.3,0,0,1,.688-1.7l1.57-1.652a2,2,0,0,1,3.111.3l1.262,1.784a2.237,2.237,0,0,1-.157,2.811l-.286.3s-1.083,1.14,1.872,4.251,4.038,1.972,4.038,1.972l.455-.48a1.953,1.953,0,0,1,2.417-.335l1.911,1.1a2.252,2.252,0,0,1,.538,3.446l-1.421,1.495a2.135,2.135,0,0,1-1.325.71c-.217.021-.476.037-.771.037C5171.981-2002,5168.5-2002.649,5164.816-2006.525Zm13.444-6.352c0-.012-.008-.04-.014-.068-.012-.056-.034-.144-.068-.26a7.388,7.388,0,0,0-.379-1,11.333,11.333,0,0,0-2.33-3.262,11.333,11.333,0,0,0-3.262-2.33,7.447,7.447,0,0,0-1-.38c-.116-.034-.263-.068-.317-.079a.762.762,0,0,1-.628-.862.751.751,0,0,1,.862-.62c.026.005.107.02.15.03.085.018.205.048.354.091a8.922,8.922,0,0,1,1.209.456,12.84,12.84,0,0,1,3.7,2.632,12.838,12.838,0,0,1,2.631,3.7,8.821,8.821,0,0,1,.458,1.209c.043.15.073.268.091.354.011.043.017.077.022.1l0,.03a.765.765,0,0,1-.617.879.769.769,0,0,1-.12.01A.75.75,0,0,1,5178.26-2012.877Zm-3.529-.129,0-.01c-.005-.016-.016-.046-.034-.088a3.871,3.871,0,0,0-.216-.416,8.5,8.5,0,0,0-1.326-1.646,8.441,8.441,0,0,0-1.646-1.326,3.643,3.643,0,0,0-.416-.216l-.088-.035-.011,0a.749.749,0,0,1-.5-.924.75.75,0,0,1,.927-.515h.013l.021.006.056.02c.044.016.1.038.177.069a5.347,5.347,0,0,1,.59.3,10.029,10.029,0,0,1,1.942,1.556,10.02,10.02,0,0,1,1.556,1.942,5.184,5.184,0,0,1,.3.589c.031.073.054.133.07.178.008.022.015.04.02.056l.005.02,0,.008v0h0s0,0-.637.183l.639-.182a.751.751,0,0,1-.515.927.747.747,0,0,1-.207.029A.752.752,0,0,1,5174.731-2013.006ZM5171.326-2017.882Zm.062-.214,0-.011ZM5171.41-2018.175Z" transform="translate(-5160 2021.75)"/>
</svg>
