<svg width="27" height="18" viewBox="0 0 27 18" fill="none" xmlns="http://www.w3.org/2000/svg">
<g clip-path="url(#clip0_353_2770)">
<path d="M14 17.443C13.8835 17.4431 13.768 17.4191 13.6611 17.3727C13.5543 17.3262 13.4583 17.2582 13.3789 17.173L10.6416 14.273L14.9824 9.37305L24.5762 1.20203C24.7326 1.07134 24.93 1.00039 25.1338 1.00196C25.2464 1.00162 25.3579 1.02369 25.4619 1.06678C25.5659 1.10986 25.6609 1.17321 25.7402 1.25305L26.7549 2.26795C26.9082 2.42331 26.9974 2.63097 27.0039 2.84912C27.0104 3.06728 26.9338 3.27977 26.79 3.44397L14.6436 17.157C14.5641 17.2454 14.4674 17.3166 14.3594 17.3661C14.2514 17.4156 14.1344 17.4424 14.0156 17.445L14 17.443ZM6.43945 16.234C6.41772 16.2148 6.39652 16.1944 6.37695 16.173L0.237306 9.67298C0.0866544 9.51231 0.00259033 9.30021 0.00293072 9.07996C0.00362318 8.88555 0.0703357 8.69715 0.191407 8.54505L1.00879 7.526C1.13104 7.37269 1.30265 7.26599 1.49414 7.22376C1.68563 7.18153 1.88515 7.20627 2.06055 7.29395L6.58984 9.55799L17.5732 0.203983C17.7373 0.0637387 17.9484 -0.00961469 18.1641 -0.0014617C18.3797 0.00669128 18.5843 0.0958204 18.7373 0.24805L19.752 1.26294C19.8335 1.34416 19.8983 1.44113 19.9414 1.54785C19.9845 1.65458 20.0052 1.76895 20.0029 1.88404C19.9998 2.08926 19.9234 2.28646 19.7871 2.43994L7.6416 16.153C7.56237 16.2416 7.46646 16.313 7.3584 16.3626C7.25034 16.4121 7.13253 16.4388 7.01367 16.441H7C6.79346 16.4425 6.59294 16.3689 6.43652 16.234H6.43945Z" fill="#009584"/>
</g>
<defs>
<clipPath id="clip0_353_2770">
<rect width="27" height="17.443" fill="white"/>
</clipPath>
</defs>
</svg>
