<svg width="20" height="17" viewBox="0 0 20 17" fill="none" xmlns="http://www.w3.org/2000/svg">
<g clip-path="url(#clip0_353_2772)">
<path d="M19.784 2.43999L7.63904 16.154C7.56005 16.2431 7.46336 16.3148 7.35514 16.3646C7.24692 16.4143 7.12953 16.441 7.01044 16.4428C6.89136 16.4447 6.77318 16.4218 6.66344 16.3755C6.55371 16.3292 6.4548 16.2606 6.37304 16.174L0.235039 9.67399C0.0930166 9.52353 0.0101463 9.32682 0.00169341 9.12009C-0.00675949 8.91336 0.0597744 8.71054 0.189039 8.54899L1.00604 7.52799C1.12876 7.37468 1.30036 7.26811 1.49218 7.22607C1.68401 7.18403 1.88445 7.20906 2.06004 7.29699L6.58904 9.56099L17.576 0.20499C17.7403 0.0652036 17.9512 -0.0075822 18.1667 0.00112762C18.3822 0.00983743 18.5866 0.0994037 18.739 0.25199L19.753 1.26599C19.9065 1.42106 19.9951 1.62877 20.0009 1.84686C20.0066 2.06494 19.9291 2.27704 19.784 2.43999Z" fill="#009584"/>
</g>
<defs>
<clipPath id="clip0_353_2772">
<rect width="20" height="16.443" fill="white"/>
</clipPath>
</defs>
</svg>
