<svg xmlns="http://www.w3.org/2000/svg" width="20" height="20" viewBox="0 0 20 20">
  <path id="ic_calculate" d="M125.556-823.333h1.667v-2.222h2.222v-1.667h-2.222v-2.222h-1.667v2.222h-2.222v1.667h2.222Zm5.556-.833h5.556v-1.667h-5.556Zm0-2.778h5.556v-1.667h-5.556Zm1.222-4.222,1.556-1.556,1.556,1.556,1.167-1.167-1.556-1.611,1.556-1.556-1.167-1.167-1.556,1.556-1.556-1.556-1.167,1.167,1.556,1.556-1.556,1.611Zm-8.722-1.944h5.556v-1.667h-5.556ZM122.222-820a2.14,2.14,0,0,1-1.569-.653,2.14,2.14,0,0,1-.653-1.569v-15.556a2.14,2.14,0,0,1,.653-1.569,2.14,2.14,0,0,1,1.569-.653h15.556a2.14,2.14,0,0,1,1.569.653,2.14,2.14,0,0,1,.653,1.569v15.556a2.14,2.14,0,0,1-.653,1.569,2.14,2.14,0,0,1-1.569.653Zm0-2.222h15.556v-15.556H122.222Zm0-15.556Z" transform="translate(-120 840)" fill="#6e6e6e"/>
</svg>
