<svg xmlns="http://www.w3.org/2000/svg" width="27" height="17.443" viewBox="0 0 27 17.443">
  <path id="ic_check_double_np" d="M-9323-1751.557a.848.848,0,0,1-.621-.27l-2.737-2.9,4.34-4.9,9.594-8.171a.86.86,0,0,1,.558-.2.851.851,0,0,1,.606.251l1.015,1.015a.864.864,0,0,1,.035,1.176l-12.146,13.713a.869.869,0,0,1-.628.288Zm-7.561-1.209a.815.815,0,0,1-.062-.061l-6.14-6.5a.865.865,0,0,1-.234-.593.864.864,0,0,1,.188-.535l.818-1.019a.856.856,0,0,1,1.052-.232l4.529,2.264,10.983-9.354a.859.859,0,0,1,1.164.044l1.015,1.015a.853.853,0,0,1,.251.621.857.857,0,0,1-.216.556l-12.145,13.713a.864.864,0,0,1-.628.288H-9330A.853.853,0,0,1-9330.563-1752.766Z" transform="translate(9337 1769)" fill="#268fa3"/>
</svg>
