<svg width="20" height="20" viewBox="0 0 20 20" fill="none" xmlns="http://www.w3.org/2000/svg">
<g clip-path="url(#clip0_353_2768)">
<path d="M5.55621 16.667H7.22321V14.445H9.44522V12.778H7.22321V10.5561H5.55621V12.778H3.33421V14.445H5.55621V16.667ZM11.1122 15.834H16.6682V14.167H11.1122V15.834ZM11.1122 13.0561H16.6682V11.389H11.1122V13.0561ZM12.3342 8.83401L13.8902 7.27804L15.4462 8.83401L16.6132 7.66702L15.0572 6.05606L16.6132 4.50002L15.4462 3.33303L13.8902 4.889L12.3342 3.33303L11.1672 4.50002L12.7232 6.05606L11.1672 7.66702L12.3342 8.83401ZM3.61221 6.89004H9.16821V5.22305H3.61221V6.89004ZM2.22221 20C1.92995 20.0041 1.63995 19.9483 1.3701 19.836C1.10026 19.7237 0.856277 19.5572 0.653208 19.347C0.442984 19.1439 0.276586 18.9 0.164278 18.6302C0.0519702 18.3603 -0.00386611 18.0703 0.000207917 17.778V2.22201C-0.00386611 1.92975 0.0519702 1.63975 0.164278 1.3699C0.276586 1.10005 0.442984 0.856109 0.653208 0.65304C0.856277 0.442816 1.10026 0.276395 1.3701 0.164087C1.63995 0.0517795 1.92995 -0.00404919 2.22221 2.48379e-05H17.7782C18.0705 -0.00404919 18.3605 0.0517795 18.6303 0.164087C18.9002 0.276395 19.1441 0.442816 19.3472 0.65304C19.5574 0.856109 19.7238 1.10005 19.8361 1.3699C19.9484 1.63975 20.0043 1.92975 20.0002 2.22201V17.778C20.0043 18.0703 19.9484 18.3603 19.8361 18.6302C19.7238 18.9 19.5574 19.1439 19.3472 19.347C19.1441 19.5572 18.9002 19.7237 18.6303 19.836C18.3605 19.9483 18.0705 20.0041 17.7782 20H2.22221ZM2.22221 17.778H17.7782V2.22201H2.22221V17.778Z" fill="#009584"/>
</g>
<defs>
<clipPath id="clip0_353_2768">
<rect width="20" height="20" fill="white"/>
</clipPath>
</defs>
</svg>
