<svg xmlns="http://www.w3.org/2000/svg" width="28.5" height="28.5" viewBox="0 0 28.5 28.5">
  <path id="ic_calculate" d="M127.917-816.25h2.375v-3.166h3.166v-2.375h-3.166v-3.166h-2.375v3.166h-3.166v2.375h3.166Zm7.917-1.187h7.917v-2.375h-7.917Zm0-3.959h7.917v-2.375h-7.917Zm1.741-6.016,2.217-2.217,2.217,2.217,1.663-1.663-2.217-2.3,2.217-2.217-1.663-1.663-2.217,2.217-2.217-2.217-1.663,1.663,2.217,2.217-2.217,2.3Zm-12.429-2.77h7.917v-2.375h-7.917ZM123.166-811.5a3.051,3.051,0,0,1-2.236-.931,3.05,3.05,0,0,1-.931-2.236v-22.167a3.049,3.049,0,0,1,.931-2.236,3.049,3.049,0,0,1,2.236-.931h22.167a3.05,3.05,0,0,1,2.236.931,3.049,3.049,0,0,1,.931,2.236v22.167a3.049,3.049,0,0,1-.931,2.236,3.049,3.049,0,0,1-2.236.931Zm0-3.166h22.167v-22.167H123.166Zm0-22.167Z" transform="translate(-120 840)" fill="#ab0534"/>
</svg>
