<svg xmlns="http://www.w3.org/2000/svg" viewBox="0 0 18.5 13">
  <path d="M4,9.7A1.409,1.409,0,0,0,2.5,11,1.409,1.409,0,0,0,4,12.3,1.409,1.409,0,0,0,5.5,11,1.409,1.409,0,0,0,4,9.7ZM4,4.5A1.409,1.409,0,0,0,2.5,5.8,1.409,1.409,0,0,0,4,7.1,1.409,1.409,0,0,0,5.5,5.8,1.409,1.409,0,0,0,4,4.5ZM4,14.9a1.415,1.415,0,0,0-1.5,1.3A1.421,1.421,0,0,0,4,17.5a1.421,1.421,0,0,0,1.5-1.3A1.415,1.415,0,0,0,4,14.9Zm3,2.167H21V15.333H7Zm0-5.2H21V10.133H7ZM7,4.933V6.667H21V4.933Z" transform="translate(-2.5 -4.5)" />
</svg>