<svg xmlns="http://www.w3.org/2000/svg" width="87.544" height="90" viewBox="0 0 87.544 90">
  <path id="ic_settings_np" d="M79.488,51.41A35.067,35.067,0,0,0,79.8,47a35.07,35.07,0,0,0-.315-4.41l9.5-7.425a2.27,2.27,0,0,0,.54-2.88l-9-15.57a2.262,2.262,0,0,0-2.745-.99l-11.205,4.5a32.878,32.878,0,0,0-7.605-4.41L57.258,3.89A2.194,2.194,0,0,0,55.053,2h-18a2.194,2.194,0,0,0-2.2,1.89l-1.71,11.925a34.573,34.573,0,0,0-7.605,4.41l-11.205-4.5a2.2,2.2,0,0,0-2.745.99l-9,15.57a2.219,2.219,0,0,0,.54,2.88l9.5,7.425A35.688,35.688,0,0,0,12.3,47a35.688,35.688,0,0,0,.315,4.41L3.123,58.835a2.27,2.27,0,0,0-.54,2.88l9,15.57a2.262,2.262,0,0,0,2.745.99l11.205-4.5a32.877,32.877,0,0,0,7.605,4.41l1.71,11.925a2.194,2.194,0,0,0,2.2,1.89h18a2.194,2.194,0,0,0,2.2-1.89l1.71-11.925a34.573,34.573,0,0,0,7.605-4.41l11.205,4.5a2.2,2.2,0,0,0,2.745-.99l9-15.57a2.27,2.27,0,0,0-.54-2.88ZM46.053,62.75A15.75,15.75,0,1,1,61.8,47,15.767,15.767,0,0,1,46.053,62.75Z" transform="translate(-2.271 -2)" fill="#8d8d8d"/>
</svg>
