<svg xmlns="http://www.w3.org/2000/svg" width="20" height="17.866" viewBox="0 0 20 17.866">
  <path id="triangle-alert-large" d="M22.354,20.086,13.465,4.442a1.111,1.111,0,0,0-1.931,0L2.645,20.086a1.11,1.11,0,0,0,.966,1.66H21.388a1.11,1.11,0,0,0,.966-1.66Zm-8.373-1.3a.741.741,0,0,1-.741.741H11.759a.741.741,0,0,1-.741-.741V17.3a.741.741,0,0,1,.741-.741H13.24a.741.741,0,0,1,.741.741Zm0-6.667-.465,2.656a.371.371,0,0,1-.365.307h-1.3a.371.371,0,0,1-.365-.307l-.465-2.656V9.895a.741.741,0,0,1,.741-.741H13.24a.741.741,0,0,1,.741.741Z" transform="translate(-2.5 -3.88)" fill="#f28f38"/>
</svg>
