<svg width="20" height="18" viewBox="0 0 20 18" fill="none" xmlns="http://www.w3.org/2000/svg">
<g clip-path="url(#clip0_353_2776)">
<path d="M19.8539 16.206L10.9649 0.562007C10.8678 0.391535 10.7274 0.249798 10.5578 0.151203C10.3882 0.0526086 10.1955 0.000671387 9.99937 0.000671387C9.8032 0.000671387 9.61054 0.0526086 9.44096 0.151203C9.27137 0.249798 9.13092 0.391535 9.03387 0.562007L0.144867 16.206C0.0484857 16.375 -0.00180444 16.5663 -0.000966254 16.7608C-0.000128071 16.9553 0.051809 17.1462 0.149642 17.3143C0.247476 17.4824 0.38777 17.6219 0.55647 17.7187C0.72517 17.8155 0.916353 17.8663 1.11087 17.866H18.8879C19.0824 17.8663 19.2736 17.8155 19.4423 17.7187C19.611 17.6219 19.7513 17.4824 19.8491 17.3143C19.9469 17.1462 19.9989 16.9553 19.9997 16.7608C20.0005 16.5663 19.9502 16.375 19.8539 16.206ZM11.4809 14.906C11.4809 15.1025 11.4028 15.291 11.2638 15.43C11.1249 15.5689 10.9364 15.647 10.7399 15.647H9.25887C9.06234 15.647 8.87387 15.5689 8.7349 15.43C8.59594 15.291 8.51787 15.1025 8.51787 14.906V13.42C8.51787 13.2235 8.59594 13.035 8.7349 12.896C8.87387 12.7571 9.06234 12.679 9.25887 12.679H10.7399C10.9364 12.679 11.1249 12.7571 11.2638 12.896C11.4028 13.035 11.4809 13.2235 11.4809 13.42V14.906ZM11.4809 8.23901L11.0159 10.895C11.0008 10.9809 10.956 11.0588 10.8892 11.1149C10.8225 11.1711 10.7381 11.2019 10.6509 11.202H9.35087C9.26364 11.2019 9.17925 11.1711 9.1125 11.1149C9.04575 11.0588 9.00091 10.9809 8.98587 10.895L8.52087 8.23901V6.01501C8.52087 5.81848 8.59894 5.63001 8.7379 5.49104C8.87687 5.35208 9.06534 5.27401 9.26187 5.27401H10.7399C10.9364 5.27401 11.1249 5.35208 11.2638 5.49104C11.4028 5.63001 11.4809 5.81848 11.4809 6.01501V8.23901Z" fill="#E3992A" fill-opacity="0.85"/>
</g>
<defs>
<clipPath id="clip0_353_2776">
<rect width="20" height="17.866" fill="white"/>
</clipPath>
</defs>
</svg>
