<svg xmlns="http://www.w3.org/2000/svg" width="31.904" height="28.5" viewBox="0 0 31.904 28.5">
  <path id="ic_warning_error_np" d="M34.171,29.732,19.992,4.776a1.772,1.772,0,0,0-3.081,0L2.732,29.732a1.771,1.771,0,0,0,1.54,2.648H32.631a1.771,1.771,0,0,0,1.54-2.648ZM20.815,27.654a1.182,1.182,0,0,1-1.182,1.182H17.27a1.182,1.182,0,0,1-1.182-1.182V25.29a1.182,1.182,0,0,1,1.182-1.182h2.363a1.182,1.182,0,0,1,1.182,1.182Zm0-10.634-.742,4.237a.591.591,0,0,1-.582.489H17.412a.591.591,0,0,1-.582-.489l-.742-4.237V13.475a1.182,1.182,0,0,1,1.182-1.182h2.363a1.182,1.182,0,0,1,1.182,1.182Z" transform="translate(-2.5 -3.88)" fill="#ab0534"/>
</svg>
