<svg xmlns="http://www.w3.org/2000/svg" width="17" height="17" viewBox="0 0 17 17">
  <path id="icon-search" d="M56.834,19.987l-3.5-3.5a7.181,7.181,0,0,0,.7-6.87A7.044,7.044,0,0,0,50.2,5.781a7.169,7.169,0,0,0-5.589,0,7.043,7.043,0,0,0-3.831,3.831,7.168,7.168,0,0,0,0,5.588,7.044,7.044,0,0,0,3.831,3.831A7.067,7.067,0,0,0,47.4,19.6a7,7,0,0,0,4.076-1.267l3.5,3.494a1.213,1.213,0,0,0,.919.388,1.307,1.307,0,0,0,.93-2.227Zm-6.2-4.347a4.577,4.577,0,0,1-7.81-3.233,4.577,4.577,0,0,1,9.154,0A4.408,4.408,0,0,1,50.638,15.64Z" transform="translate(-40.212 -5.214)" fill="#004a5d"/>
</svg>
