<svg xmlns="http://www.w3.org/2000/svg" xml:space="preserve" fill-rule="evenodd" viewBox="0 0 36 36"><path fill="none" d="M0 0h36v36H0z"/><path d="M20.1 7.4h11.7c.7 0 1.3.6 1.3 1.3v21.2c0 .7-.6 1.3-1.3 1.3H4.1c-.7 0-1.3-.6-1.3-1.3V8.7c0-.7.6-1.3 1.3-1.3h11.7c0 1.2 1 2.1 2.1 2.1 1.2 0 2.1-1 2.1-2.1zM18 25.1h9.3c.4 0 .7.3.7.7s-.3.7-.7.7H18c-.4 0-.7-.3-.7-.7s.3-.7.7-.7m0-7.6h9.3c.4 0 .7.3.7.7s-.3.7-.7.7H18c-.4 0-.7-.3-.7-.7s.3-.7.7-.7m0 2.5h9.3c.4 0 .7.3.7.7s-.3.7-.7.7H18c-.4 0-.7-.3-.7-.7s.3-.7.7-.7m0 2.5h9.3c.4 0 .7.3.7.7s-.3.7-.7.7H18c-.4 0-.7-.3-.7-.7s.3-.7.7-.7m.6-7.9h5.7c.7 0 1.3-.6 1.3-1.3S25 12 24.3 12h-5.7c-.7 0-1.3.6-1.3 1.3s.6 1.3 1.3 1.3m-6.9 2.5c-1.4 0-2.5 1.1-2.5 2.5s1.1 2.5 2.5 2.5 2.5-1.1 2.5-2.5-1.1-2.5-2.5-2.5m-2.3 5.1c1.3 1.1 3.2 1.1 4.5 0 1.3 1 2 2.7 2.2 4.2H7.3c.2-1.6.8-3.2 2.2-4.2zm-4 6.3h25.2V9.8H5.4zM18 8.5c-.7 0-1.3-.6-1.3-1.3V5.9c0-.7.6-1.3 1.3-1.3s1.3.6 1.3 1.3v1.3c0 .7-.6 1.3-1.3 1.3"/></svg>