<svg width="18" height="18" viewBox="0 0 18 18" fill="none" xmlns="http://www.w3.org/2000/svg">
<g clip-path="url(#clip0_353_2782)">
<path d="M9 18C13.9706 18 18 13.9706 18 9C18 4.02944 13.9706 0 9 0C4.02944 0 0 4.02944 0 9C0 13.9706 4.02944 18 9 18Z" fill="#CCCCCC"/>
<path d="M13.2491 11.9639L11.9636 13.2494C11.8782 13.3348 11.7625 13.3827 11.6418 13.3827C11.5212 13.3827 11.4054 13.3348 11.3201 13.2494L9.0708 11.0001L6.82079 13.2501C6.73546 13.3355 6.61973 13.3834 6.49905 13.3834C6.37838 13.3834 6.26265 13.3355 6.17732 13.2501L4.8918 11.9646C4.80647 11.8793 4.75853 11.7635 4.75853 11.6429C4.75853 11.5222 4.80647 11.4065 4.8918 11.3211L7.14181 9.07113L4.89251 6.82182C4.80718 6.73649 4.75924 6.62076 4.75924 6.50009C4.75924 6.37942 4.80718 6.26368 4.89251 6.17836L6.17803 4.89283C6.26336 4.80751 6.37909 4.75957 6.49976 4.75957C6.62043 4.75957 6.73617 4.80751 6.82149 4.89283L9.0708 7.14214L11.3201 4.89283C11.4054 4.80751 11.5212 4.75957 11.6418 4.75957C11.7625 4.75957 11.8782 4.80751 11.9636 4.89283L13.2491 6.17836C13.3344 6.26368 13.3824 6.37942 13.3824 6.50009C13.3824 6.62076 13.3344 6.73649 13.2491 6.82182L10.9998 9.07113L13.2498 11.3211C13.3348 11.4065 13.3825 11.5222 13.3824 11.6427C13.3822 11.7632 13.3343 11.8787 13.2491 11.9639Z" fill="white"/>
</g>
<defs>
<clipPath id="clip0_353_2782">
<rect width="18" height="18" fill="white"/>
</clipPath>
</defs>
</svg>
