<svg xmlns="http://www.w3.org/2000/svg" width="18" height="18" viewBox="0 0 18 18">
  <g id="included-no" transform="translate(-300 -870)">
    <circle id="Ellipse_9" data-name="Ellipse 9" cx="9" cy="9" r="9" transform="translate(300 870)" fill="#ccc"/>
    <path id="plus" d="M15,9.091v1.818a.455.455,0,0,1-.455.455H11.364v3.182a.455.455,0,0,1-.455.455H9.091a.455.455,0,0,1-.455-.455V11.364H5.455A.455.455,0,0,1,5,10.909V9.091a.455.455,0,0,1,.455-.455H8.636V5.455A.455.455,0,0,1,9.091,5h1.818a.455.455,0,0,1,.455.455V8.636h3.182A.455.455,0,0,1,15,9.091Z" transform="translate(309.071 864.929) rotate(45)" fill="#fff"/>
  </g>
</svg>
