<svg width="18" height="18" viewBox="0 0 18 18" fill="none" xmlns="http://www.w3.org/2000/svg">
<g clip-path="url(#clip0_353_2778)">
<path d="M9 18C13.9706 18 18 13.9706 18 9C18 4.02944 13.9706 0 9 0C4.02944 0 0 4.02944 0 9C0 13.9706 4.02944 18 9 18Z" fill="#E3992A" fill-opacity="0.85"/>
<path d="M10.233 10.543H8.299L8 5H10.532L10.233 10.543ZM8.02 12.593C8.01177 12.4404 8.03604 12.2877 8.09121 12.1451C8.14637 12.0026 8.23117 11.8733 8.34 11.766C8.59664 11.5513 8.92615 11.4439 9.26 11.466C9.58936 11.4433 9.91443 11.551 10.165 11.766C10.2709 11.8753 10.353 12.0055 10.406 12.1482C10.459 12.2909 10.4818 12.443 10.473 12.595C10.4816 12.747 10.4576 12.8991 10.4026 13.041C10.3476 13.183 10.2628 13.3115 10.154 13.418C9.9058 13.6295 9.58553 13.737 9.26 13.718C8.9303 13.7363 8.6059 13.6291 8.352 13.418C8.23978 13.3131 8.1519 13.1848 8.09454 13.0423C8.03718 12.8998 8.01174 12.7464 8.02 12.593Z" fill="white"/>
</g>
<defs>
<clipPath id="clip0_353_2778">
<rect width="18" height="18" fill="white"/>
</clipPath>
</defs>
</svg>
