<svg xmlns="http://www.w3.org/2000/svg" width="18" height="18" viewBox="0 0 18 18">
  <g id="included-special" transform="translate(-82 -842)">
    <circle id="Ellipse_9" data-name="Ellipse 9" cx="9" cy="9" r="9" transform="translate(82 842)" fill="#292929"/>
    <path id="Path_31" data-name="Path 31" d="M2.713-3.023H.779L.48-8.566H3.012ZM.5-.973A1.08,1.08,0,0,1,.82-1.8a1.3,1.3,0,0,1,.92-.3,1.257,1.257,0,0,1,.905.3,1.1,1.1,0,0,1,.308.829,1.067,1.067,0,0,1-.319.823,1.265,1.265,0,0,1-.894.3,1.307,1.307,0,0,1-.908-.3A1.052,1.052,0,0,1,.5-.973Z" transform="translate(89.52 855.566)" fill="#fff"/>
  </g>
</svg>
