<svg width="18" height="18" viewBox="0 0 18 18" fill="none" xmlns="http://www.w3.org/2000/svg">
<g clip-path="url(#clip0_353_2786)">
<path d="M9 18C13.9706 18 18 13.9706 18 9C18 4.02944 13.9706 0 9 0C4.02944 0 0 4.02944 0 9C0 13.9706 4.02944 18 9 18Z" fill="#009584"/>
<path d="M13.8189 6.22597L12.9419 5.34897C12.8253 5.23337 12.6677 5.16852 12.5034 5.16852C12.3392 5.16852 12.1816 5.23337 12.0649 5.34897L7.83294 9.58797L5.93294 7.68797C5.81628 7.57237 5.65868 7.50752 5.49444 7.50752C5.3302 7.50752 5.17261 7.57237 5.05594 7.68797L4.18094 8.56297C4.06534 8.67964 4.00049 8.83723 4.00049 9.00147C4.00049 9.16571 4.06534 9.32331 4.18094 9.43997L6.51594 11.775L7.39294 12.652C7.50961 12.7676 7.6672 12.8324 7.83144 12.8324C7.99568 12.8324 8.15328 12.7676 8.26994 12.652L9.14694 11.775L13.8179 7.10397C13.9335 6.98731 13.9984 6.82971 13.9984 6.66547C13.9984 6.50124 13.9335 6.34364 13.8179 6.22697L13.8189 6.22597Z" fill="white"/>
</g>
<defs>
<clipPath id="clip0_353_2786">
<rect width="18" height="18" fill="white"/>
</clipPath>
</defs>
</svg>
