<svg xmlns="http://www.w3.org/2000/svg" width="18" height="18" viewBox="0 0 18 18">
  <g id="included-yes" transform="translate(-82 -814)">
    <circle id="Ellipse_9" data-name="Ellipse 9" cx="9" cy="9" r="9" transform="translate(82 814)" fill="#ab0534"/>
    <path id="correct8" d="M54.678,25.663l-.877-.877a.623.623,0,0,0-.877,0l-4.232,4.239-1.9-1.9a.623.623,0,0,0-.877,0L45.04,28a.623.623,0,0,0,0,.877l2.335,2.335.877.877a.623.623,0,0,0,.877,0l.877-.877,4.671-4.671a.623.623,0,0,0,0-.877Z" transform="translate(41.141 794.563)" fill="#fff"/>
  </g>
</svg>
