<?xml version="1.0" encoding="UTF-8"?>
<!DOCTYPE svg PUBLIC "-//W3C//DTD SVG 1.1//EN" "http://www.w3.org/Graphics/SVG/1.1/DTD/svg11.dtd">
<!-- Creator: CorelDRAW -->
<svg xmlns="http://www.w3.org/2000/svg" xml:space="preserve" width="16px" height="16px" version="1.1" shape-rendering="geometricPrecision" text-rendering="geometricPrecision" image-rendering="optimizeQuality" fill-rule="evenodd" clip-rule="evenodd"
viewBox="0 0 16 16"
 xmlns:xlink="http://www.w3.org/1999/xlink"
 xmlns:xodm="http://www.corel.com/coreldraw/odm/2003">
 <g id="Default">
  <metadata id="CorelCorpID_0Corel-Layer"/>
  <path fill="black" d="M8.5 4.5c0,-0.28 -0.22,-0.5 -0.5,-0.5 -0.28,0 -0.5,0.22 -0.5,0.5 0,0.28 0.22,0.5 0.5,0.5 0.28,0 0.5,-0.22 0.5,-0.5zm-2 8c0,0.28 0.22,0.5 0.5,0.5 0.67,0 1.33,0 2,0 0.28,0 0.5,-0.22 0.5,-0.5 0,-0.27 -0.22,-0.5 -0.5,-0.5 -0.17,0 -0.33,0 -0.5,0 0,-1.33 0,-2.67 0,-4 0.17,0 0.33,0 0.5,0 0.28,0 0.5,-0.22 0.5,-0.5 0,-0.28 -0.22,-0.5 -0.5,-0.5 -0.67,0 -1.33,0 -2,0 -0.28,0 -0.5,0.22 -0.5,0.5 0,0.28 0.22,0.5 0.5,0.5 0.17,0 0.33,0 0.5,0 0,1.33 0,2.67 0,4 -0.17,0 -0.33,0 -0.5,0 -0.28,0 -0.5,0.23 -0.5,0.5zm3 -8c0,-0.83 -0.67,-1.5 -1.5,-1.5 -0.83,0 -1.5,0.67 -1.5,1.5 0,0.83 0.67,1.5 1.5,1.5 0.83,0 1.5,-0.67 1.5,-1.5zm-1.5 -3.5c-0.88,0 -1.76,0.17 -2.58,0.49 -0.89,0.35 -1.69,0.88 -2.37,1.56 -0.68,0.68 -1.21,1.48 -1.56,2.37 -0.32,0.82 -0.49,1.7 -0.49,2.58 0,0.88 0.17,1.76 0.49,2.58 0.35,0.89 0.88,1.69 1.56,2.37 0.68,0.68 1.48,1.21 2.37,1.56 0.82,0.32 1.7,0.49 2.58,0.49 0.88,0 1.76,-0.17 2.58,-0.49 0.89,-0.35 1.69,-0.88 2.37,-1.56 0.68,-0.68 1.21,-1.48 1.56,-2.37 0.32,-0.82 0.49,-1.7 0.49,-2.58 0,-0.88 -0.17,-1.76 -0.49,-2.58 -0.35,-0.89 -0.88,-1.69 -1.56,-2.37 -0.68,-0.68 -1.48,-1.21 -2.37,-1.56 -0.82,-0.32 -1.7,-0.49 -2.58,-0.49zm0 -1c-1.01,0 -2.01,0.19 -2.94,0.56 -1.02,0.4 -1.94,1.01 -2.72,1.78 -0.77,0.78 -1.37,1.7 -1.78,2.71 -0.37,0.94 -0.56,1.94 -0.56,2.95 0,1.01 0.19,2.01 0.56,2.94 0.41,1.02 1.01,1.94 1.78,2.72 0.78,0.77 1.7,1.38 2.72,1.78 0.93,0.37 1.93,0.56 2.94,0.56 1.01,0 2.01,-0.19 2.95,-0.56 1.01,-0.4 1.94,-1.01 2.71,-1.78 0.77,-0.78 1.38,-1.7 1.78,-2.71 0.37,-0.94 0.56,-1.94 0.56,-2.95 0,-1.01 -0.19,-2.01 -0.56,-2.94 -0.4,-1.02 -1.01,-1.94 -1.78,-2.72 -0.77,-0.77 -1.7,-1.38 -2.71,-1.78 -0.94,-0.37 -1.94,-0.56 -2.95,-0.56z"/>
 </g>
</svg>
