<svg id="invalidita-nie" xmlns="http://www.w3.org/2000/svg" width="26" height="26" viewBox="0 0 26 26">
  <rect id="Rectangle_136" data-name="Rectangle 136" width="26" height="26" fill="none"/>
  <path id="Path_275" data-name="Path 275" d="M10.382,27.638a4.9,4.9,0,1,1,4.9-4.9A4.9,4.9,0,0,1,10.382,27.638Z" transform="translate(-1.522 -4.953)" fill="none" stroke="#2a77d1" stroke-miterlimit="10" stroke-width="1"/>
  <path id="Path_276" data-name="Path 276" d="M10.99,26.666a3.324,3.324,0,1,1,3.324-3.324A3.324,3.324,0,0,1,10.99,26.666Z" transform="translate(-2.13 -5.561)" fill="none" stroke="#2a77d1" stroke-miterlimit="10" stroke-width="1"/>
  <path id="Path_277" data-name="Path 277" d="M27.558,30.153a1.635,1.635,0,1,1,1.675-1.635A1.655,1.655,0,0,1,27.558,30.153Z" transform="translate(-7.19 -7.468)" fill="none" stroke="#2a77d1" stroke-miterlimit="10" stroke-width="1"/>
  <path id="Path_278" data-name="Path 278" d="M12.312,12.271h6.134a3.611,3.611,0,0,1,3.611,3.611V21m1.579,1.689h0a1.643,1.643,0,0,0-1.643-1.643h-4.4" transform="translate(-3.42 -3.409)" fill="none" stroke="#2a77d1" stroke-miterlimit="10" stroke-width="1"/>
  <path id="Path_279" data-name="Path 279" d="M6.552,4.589h4.16v9.286" transform="translate(-1.82 -1.275)" fill="none" stroke="#2a77d1" stroke-miterlimit="10" stroke-width="1"/>
  <line id="Line_9" data-name="Line 9" x1="6.503" transform="translate(12.184 14.165)" fill="none" stroke="#2a77d1" stroke-miterlimit="10" stroke-width="1"/>
</svg>
