<svg width="26" height="26" viewBox="0 0 26 26" fill="none" xmlns="http://www.w3.org/2000/svg">
<path fill-rule="evenodd" clip-rule="evenodd" d="M9.1998 10.2C12.9998 10.2 16.0998 13.3 16.0998 17.1C16.0998 20.9 12.9998 24 9.1998 24C5.3998 24 2.2998 20.9 2.2998 17.1C2.2998 13.3 5.3998 10.2 9.1998 10.2ZM9.1998 16.1C9.6998 16.1 10.1998 16.5 10.1998 17.1C10.1998 17.6 9.7998 18.1 9.1998 18.1C8.6998 18.1 8.1998 17.7 8.1998 17.1C8.1998 16.6 8.5998 16.1 9.1998 16.1ZM20.6998 18.2C22.2998 18.2 23.5998 19.5 23.5998 21.1C23.5998 22.7 22.2998 24 20.6998 24C19.0998 24 17.7998 22.7 17.7998 21.1C17.7998 19.5 19.0998 18.2 20.6998 18.2ZM20.6998 20.1C21.1998 20.1 21.6998 20.5 21.6998 21.1C21.6998 21.6 21.2998 22.1 20.6998 22.1C20.1998 22.1 19.6998 21.7 19.6998 21.1C19.6998 20.6 20.0998 20.1 20.6998 20.1ZM12.0998 8.99997C11.7998 8.99997 11.5998 8.79997 11.5998 8.49997C11.5998 8.19997 11.7998 7.99997 12.0998 7.99997C14.3998 7.99997 16.7998 7.99997 19.0998 7.99997C19.7998 7.99997 20.4998 8.59997 20.4998 9.29997L21.0998 14H22.7998C23.2998 14 23.7998 14.4 23.7998 15C23.7998 15.3 23.7998 15.6 23.7998 16C23.7998 16.5 23.3998 17 22.7998 17C20.7998 17 19.2998 16.9 17.2998 16.9C17.2998 16 17.0998 15.2 16.7998 14.4L17.2998 14.3C18.0998 14.1 18.3998 14.1 19.1998 14.1H20.0998L19.4998 9.49997C19.4998 9.29997 19.2998 9.09997 18.9998 9.09997C16.6998 9.09997 14.2998 9.09997 11.9998 9.09997L12.0998 8.99997ZM9.9998 8.99997C9.9998 8.89997 9.9998 8.79997 10.0998 8.59997C10.1998 7.79997 10.1998 6.89997 9.9998 6.09997C9.7998 5.09997 9.6998 4.09997 9.4998 3.09997C9.3998 2.59997 8.8998 2.19997 8.3998 2.29997C8.0998 2.39997 7.7998 2.39997 7.4998 2.49997C6.9998 2.59997 6.5998 3.09997 6.6998 3.59997C6.9998 5.59997 7.3998 7.19997 7.6998 9.19997C8.1998 9.09997 8.6998 8.99997 9.2998 8.99997C9.5998 8.99997 9.7998 8.99997 10.0998 8.99997H9.9998ZM9.1998 12.7C11.5998 12.7 13.4998 14.6 13.4998 17C13.4998 19.4 11.5998 21.3 9.1998 21.3C6.7998 21.3 4.8998 19.4 4.8998 17C4.8998 14.6 6.7998 12.7 9.1998 12.7Z" fill="white"/>
</svg>
