<?xml version="1.0" encoding="UTF-8"?>
<!DOCTYPE svg PUBLIC "-//W3C//DTD SVG 1.1//EN" "http://www.w3.org/Graphics/SVG/1.1/DTD/svg11.dtd">
<!-- Creator: CorelDRAW 2020 (64-Bit) -->
<svg xmlns="http://www.w3.org/2000/svg" xml:space="preserve" width="26px" height="26px" version="1.1" style="shape-rendering:geometricPrecision; text-rendering:geometricPrecision; image-rendering:optimizeQuality; fill-rule:evenodd; clip-rule:evenodd"
viewBox="0 0 260 260"
 xmlns:xlink="http://www.w3.org/1999/xlink"
 xmlns:xodm="http://www.corel.com/coreldraw/odm/2003">
 <defs>
  <style type="text/css">
   <![CDATA[
    .fil0 {fill:#CCCCCC}
    .fil1 {fill:white}
   ]]>
  </style>
 </defs>
 <g id="Layer_x0020_1">
  <metadata id="CorelCorpID_0Corel-Layer"/>
  <g id="_2886509473440">
   <polygon class="fil0" points="0,0 260,0 260,260 0,260 "/>
   <path class="fil1" d="M92 102c38,0 69,31 69,69 0,38 -31,69 -69,69 -38,0 -69,-31 -69,-69 0,-38 31,-69 69,-69zm0 59c5,0 10,4 10,10 0,5 -4,10 -10,10 -5,0 -10,-4 -10,-10 0,-5 4,-10 10,-10zm115 21c16,0 29,13 29,29 0,16 -13,29 -29,29 -16,0 -29,-13 -29,-29 0,-16 13,-29 29,-29zm0 19c5,0 10,4 10,10 0,5 -4,10 -10,10 -5,0 -10,-4 -10,-10 0,-5 4,-10 10,-10zm-86 -111c-3,0 -5,-2 -5,-5 0,-3 2,-5 5,-5 23,0 47,0 70,0 7,0 14,6 14,13l6 47 17 0c5,0 10,4 10,10 0,3 0,6 0,10 0,5 -4,10 -10,10 -20,0 -35,-1 -55,-1 0,-9 -2,-17 -5,-25l5 -1c8,-2 11,-2 19,-2l9 0 -6 -46c0,-2 -2,-4 -5,-4 -23,0 -47,0 -70,0zm-21 0c0,-1 0,-2 1,-4 1,-8 1,-17 -1,-25 -2,-10 -3,-20 -5,-30 -1,-5 -6,-9 -11,-8 -3,1 -6,1 -9,2 -5,1 -9,6 -8,11 3,20 7,36 10,56 5,-1 10,-2 16,-2 3,0 5,0 8,0zm-8 37c24,0 43,19 43,43 0,24 -19,43 -43,43 -24,0 -43,-19 -43,-43 0,-24 19,-43 43,-43z"/>
  </g>
 </g>
</svg>
