<?xml version="1.0" encoding="UTF-8"?>
<!DOCTYPE svg PUBLIC "-//W3C//DTD SVG 1.1//EN" "http://www.w3.org/Graphics/SVG/1.1/DTD/svg11.dtd">
<!-- Creator: CorelDRAW 2020 (64-Bit) -->
<svg xmlns="http://www.w3.org/2000/svg" xml:space="preserve" width="36px" height="36px" version="1.1" style="shape-rendering:geometricPrecision; text-rendering:geometricPrecision; image-rendering:optimizeQuality; fill-rule:evenodd; clip-rule:evenodd"
viewBox="0 0 360 360"
 xmlns:xlink="http://www.w3.org/1999/xlink"
 xmlns:xodm="http://www.corel.com/coreldraw/odm/2003">
 <defs>
  <style type="text/css">
   <![CDATA[
    .fil0 {fill:none}
    .fil1 {fill:#6e6e6e}
   ]]>
  </style>
 </defs>
 <g id="Default">
  <metadata id="CorelCorpID_0Corel-Layer"/>
  <g id="_2887699767744">
   <rect class="fil0" width="360" height="360"/>
   <path class="fil1" d="M84 194c0,1 0,2 0,3 0,2 0,4 0,7 0,3 1,5 1,8 0,2 1,4 2,6 1,3 2,6 3,8 1,3 3,5 4,8 2,2 3,5 5,7 2,2 4,4 6,6 2,2 4,3 6,5 2,1 3,2 5,3 1,0 1,1 2,1 0,-1 0,-2 0,-3 0,-2 0,-4 0,-7 0,-3 -1,-5 -2,-8 0,-2 -1,-4 -2,-6 -1,-3 -2,-6 -3,-8 -1,-3 -3,-5 -4,-8 -2,-2 -3,-5 -5,-7 -2,-2 -4,-4 -6,-6 -2,-2 -4,-3 -6,-5 -2,-1 -3,-2 -5,-3 -1,0 -1,-1 -2,-1zm-30 -52c-20,12 -27,34 -28,55 0,21 6,43 17,61 11,18 26,35 45,45 18,10 42,15 61,3 20,-12 27,-34 28,-55 0,-21 -6,-43 -17,-61 -11,-18 -26,-35 -45,-45 -18,-10 -42,-15 -61,-3zm224 -16c7,-4 14,-8 21,-12 2,-1 3,-1 4,1 1,2 1,3 -1,4 -7,4 -14,8 -21,12 -2,1 -3,1 -4,-1 -1,-2 -1,-3 1,-4zm-221 23c-15,9 -22,25 -24,42 -1,5 0,11 0,16 1,6 2,11 3,17 1,5 3,11 5,16 2,5 5,10 7,15 3,5 6,9 9,14 3,5 7,9 11,13 4,4 8,8 13,11 4,3 9,6 14,8 15,7 33,9 48,1 20,-12 25,-37 23,-58 -1,-6 -2,-11 -3,-17 -1,-5 -3,-11 -5,-16 -2,-5 -5,-10 -7,-15 -3,-5 -6,-9 -9,-14 -3,-5 -7,-9 -11,-13 -4,-4 -8,-8 -13,-11 -4,-3 -9,-6 -14,-8 -15,-7 -33,-9 -48,-1zm138 -56c7,-4 14,-8 21,-12 2,-1 3,-1 4,1 1,2 1,3 -1,4 -7,4 -14,8 -21,12 -2,1 -3,1 -4,-1 -1,-2 -1,-3 1,-4zm-33 26c-3,2 -7,4 -10,6 -2,1 -3,1 -4,-1 -1,-2 -1,-3 1,-4 3,-2 7,-4 10,-6 2,-1 3,-1 4,1 1,2 1,3 -1,4zm88 -51c-3,2 -7,4 -10,6 -2,1 -3,1 -4,-1 -1,-2 -1,-3 1,-4 3,-2 7,-4 10,-6 2,-1 3,-1 4,1 1,2 1,3 -1,4zm-4 114c7,-4 14,-8 21,-12 2,-1 2,-2 1,-4 -1,-2 -2,-2 -4,-1 -7,4 -14,8 -21,12 -2,1 -2,2 -1,4 1,2 2,2 4,1zm-3 30c-3,2 -7,4 -10,6 -2,1 -2,2 -1,4 1,2 2,2 4,1 3,-2 7,-4 10,-6 2,-1 2,-2 1,-4 -1,-2 -2,-2 -4,-1zm-33 2c7,-4 14,-8 21,-12 2,-1 3,-1 4,1 1,2 1,3 -1,4 -7,4 -14,8 -21,12 -2,1 -3,1 -4,-1 -1,-2 -1,-3 1,-4zm78 -45c7,-4 14,-8 21,-12 2,-1 3,-1 4,1 1,2 1,3 -1,4 -7,4 -14,8 -21,12 -2,1 -3,1 -4,-1 -1,-2 -1,-3 1,-4zm-14 -58c-3,2 -7,4 -10,6 -2,1 -2,2 -1,4 1,2 2,2 4,1 3,-2 7,-4 10,-6 2,-1 2,-2 1,-4 -1,-2 -2,-2 -4,-1zm-50 35c7,-4 14,-8 21,-12 2,-1 2,-2 1,-4 -1,-2 -2,-2 -4,-1 -7,4 -14,8 -21,12 -2,1 -2,2 -1,4 1,2 2,2 4,1zm-15 -30c7,-4 14,-8 21,-12 2,-1 3,-1 4,1 1,2 1,3 -1,4 -7,4 -14,8 -21,12 -2,1 -3,1 -4,-1 -1,-2 -1,-3 1,-4zm63 -36c-3,2 -7,4 -10,6 -2,1 -2,2 -1,4 1,2 2,2 4,1 3,-2 7,-4 10,-6 2,-1 2,-2 1,-4 -1,-2 -2,-2 -4,-1zm-103 59c-3,2 -7,4 -10,6 -2,1 -2,2 -1,4 1,2 2,2 4,1 3,-2 7,-4 10,-6 2,-1 2,-2 1,-4 -1,-2 -2,-2 -4,-1zm36 12c-3,2 -7,4 -10,6 -2,1 -2,2 -1,4 1,2 2,2 4,1 3,-2 7,-4 10,-6 2,-1 2,-2 1,-4 -1,-2 -2,-2 -4,-1zm-29 -57c-3,2 -7,4 -10,6 -2,1 -3,1 -4,-1 -1,-2 -1,-3 1,-4 3,-2 7,-4 10,-6 2,-1 3,-1 4,1 1,2 1,3 -1,4zm-46 27c7,-4 14,-8 21,-12 2,-1 2,-2 1,-4 -1,-2 -2,-2 -4,-1 -7,4 -14,8 -21,12 -2,1 -2,2 -1,4 1,2 2,2 4,1zm78 -45c7,-4 14,-8 21,-12 2,-1 2,-2 1,-4 -1,-2 -2,-2 -4,-1 -7,4 -14,8 -21,12 -2,1 -2,2 -1,4 1,2 2,2 4,1zm-7 185c7,-4 14,-8 21,-12 2,-1 2,-2 1,-4 -1,-2 -2,-2 -4,-1 -7,4 -14,8 -21,12 -2,1 -2,2 -1,4 1,2 2,2 4,1zm73 -49c-3,2 -7,4 -10,6 -2,1 -2,2 -1,4 1,2 2,2 4,1 3,-2 7,-4 10,-6 2,-1 2,-2 1,-4 -1,-2 -2,-2 -4,-1zm30 -17c-3,2 -7,4 -10,6 -2,1 -2,2 -1,4 1,2 2,2 4,1 3,-2 7,-4 10,-6 2,-1 2,-2 1,-4 -1,-2 -2,-2 -4,-1zm-108 -15c-3,2 -7,4 -10,6 -2,1 -2,2 -1,4 1,2 2,2 4,1 3,-2 7,-4 10,-6 2,-1 2,-2 1,-4 -1,-2 -2,-2 -4,-1zm-119 -51c44,-25 87,-50 131,-75 20,-11 43,-7 61,3 19,10 34,27 45,45 11,18 17,40 17,61 0,21 -8,44 -28,55 -44,25 -87,50 -131,75 3,-5 5,-10 7,-15 2,-6 3,-12 3,-18 1,-6 1,-13 0,-19 -1,-6 -2,-13 -3,-19 -2,-6 -4,-12 -6,-18 -2,-6 -5,-11 -8,-17 -3,-5 -6,-10 -10,-15 -4,-5 -8,-10 -13,-14 -5,-5 -10,-9 -15,-12 -5,-4 -11,-7 -16,-10 -5,-3 -11,-5 -17,-6 -5,-1 -11,-2 -16,-2zm-33 64c0,5 0,9 0,14 0,5 1,10 3,15 1,5 3,10 5,15 2,5 4,9 7,13 2,4 5,8 8,12 3,4 7,8 10,12 4,4 7,7 12,10 4,3 8,5 12,7 38,18 59,-11 56,-46 0,-5 -1,-10 -3,-15 -1,-5 -3,-10 -5,-15 -2,-5 -4,-9 -7,-13 -2,-4 -5,-8 -8,-12 -3,-4 -7,-8 -10,-12 -4,-4 -7,-7 -12,-10 -4,-3 -8,-5 -12,-7 -28,-13 -53,-2 -56,32zm8 1c0,4 0,8 0,13 0,5 1,9 2,14 1,5 3,9 5,14 2,4 4,8 6,12 2,4 5,8 8,12 3,4 6,7 9,11 3,3 7,6 11,9 3,2 7,5 11,6 24,11 42,1 45,-26 0,-4 0,-8 0,-13 0,-5 -1,-9 -2,-14 -1,-5 -3,-9 -5,-14 -2,-4 -4,-8 -6,-12 -2,-4 -5,-8 -8,-12 -3,-4 -6,-7 -9,-11 -3,-3 -7,-6 -11,-9 -3,-2 -7,-5 -11,-6 -23,-11 -42,-3 -45,26zm11 1c0,4 0,7 0,11 0,4 1,8 2,12 1,4 2,8 4,12 2,4 3,8 5,11 2,4 4,7 7,10 3,3 5,7 8,9 3,3 6,5 9,8 3,2 6,4 9,5 18,8 27,2 29,-17 0,-4 0,-7 0,-11 0,-4 -1,-8 -2,-12 -1,-4 -2,-8 -4,-12 -2,-4 -3,-8 -5,-11 -2,-4 -4,-7 -7,-10 -3,-3 -5,-7 -8,-9 -3,-3 -6,-5 -9,-8 -3,-2 -6,-4 -9,-5 -18,-8 -27,-2 -29,17zm8 0c0,2 0,4 0,5 0,2 0,4 0,6 0,2 1,4 1,6 0,2 1,4 2,6 1,4 3,9 5,13 2,4 4,8 7,12 3,4 6,7 9,10 3,3 6,6 10,8 2,1 3,2 5,3 1,1 3,1 4,2 11,5 15,2 16,-10 0,-2 0,-4 0,-5 0,-2 0,-4 0,-6 0,-2 -1,-4 -1,-6 0,-2 -1,-4 -2,-6 -1,-4 -3,-9 -5,-13 -2,-4 -4,-8 -7,-12 -3,-4 -6,-7 -9,-10 -3,-3 -6,-6 -10,-8 -2,-1 -3,-2 -5,-3 -1,-1 -3,-1 -4,-2 -12,-5 -15,-1 -16,10zm20 16c1,2 1,4 2,7 1,3 3,6 4,9 2,3 3,6 6,8 2,2 3,4 5,6 -1,-2 -1,-4 -2,-7 -1,-3 -3,-6 -4,-9 -2,-3 -3,-6 -6,-8 -2,-2 -3,-4 -5,-6z"/>
  </g>
 </g>
</svg>
