<?xml version="1.0" encoding="UTF-8"?>
<!DOCTYPE svg PUBLIC "-//W3C//DTD SVG 1.1//EN" "http://www.w3.org/Graphics/SVG/1.1/DTD/svg11.dtd">
<!-- Creator: CorelDRAW 2020 (64-Bit) -->
<svg xmlns="http://www.w3.org/2000/svg" xml:space="preserve" width="36px" height="36px" version="1.1" style="shape-rendering:geometricPrecision; text-rendering:geometricPrecision; image-rendering:optimizeQuality; fill-rule:evenodd; clip-rule:evenodd"
viewBox="0 0 360 360"
 xmlns:xlink="http://www.w3.org/1999/xlink"
 xmlns:xodm="http://www.corel.com/coreldraw/odm/2003">
 <defs>
  <style type="text/css">
   <![CDATA[
    .fil0 {fill:none}
    .fil1 {fill:#AB0534;fill-rule:nonzero}
   ]]>
  </style>
 </defs>
 <g id="Default">
  <metadata id="CorelCorpID_0Corel-Layer"/>
  <g id="_1676696975488">
   <rect class="fil0" width="360" height="360"/>
   <path class="fil1" d="M331 282c0,-15 0,-30 0,-45 0,-7 -6,-13 -13,-13 -24,0 -47,0 -71,0 -7,0 -13,6 -13,13 0,15 0,30 0,45 0,7 6,13 13,13 24,0 47,0 71,0 7,0 13,-6 13,-13zm-105 0c0,-15 0,-30 0,-45 0,-7 -5,-13 -12,-13 -23,0 -45,0 -68,0 -7,0 -12,6 -12,13 0,15 0,30 0,45 0,7 5,13 12,13 23,0 45,0 68,0 7,0 12,-6 12,-13zm-113 -146c-24,0 -47,0 -71,0 -7,0 -13,-6 -13,-13 0,-15 0,-30 0,-45 0,-7 6,-13 13,-13 24,0 47,0 71,0 7,0 13,6 13,13 0,15 0,30 0,45 0,7 -6,13 -13,13zm101 0c-22,0 -45,0 -67,0 -7,0 -13,-6 -13,-13 0,-15 0,-30 0,-45 0,-7 6,-13 13,-13 22,0 45,0 67,0 7,0 13,6 13,13 0,15 0,30 0,45 0,7 -6,13 -13,13zm118 -13c0,-15 0,-30 0,-45 0,-7 -6,-13 -13,-13 -24,0 -47,0 -71,0 -7,0 -13,6 -13,13 0,15 0,30 0,45 0,7 6,13 13,13 24,0 47,0 71,0 7,0 13,-6 13,-13zm-55 79c0,-15 0,-30 0,-45 0,-7 -6,-13 -13,-13 -22,0 -45,0 -67,0 -7,0 -13,6 -13,13 0,15 0,30 0,45 0,7 6,13 13,13 22,0 45,0 67,0 7,0 13,-6 13,-13zm-113 13c-24,0 -47,0 -71,0 -7,0 -13,-6 -13,-13 0,-15 0,-30 0,-45 0,-7 6,-13 13,-13 24,0 47,0 71,0 7,0 13,6 13,13 0,15 0,30 0,45 0,7 -6,13 -13,13zm-50 79c-24,0 -47,0 -71,0 -7,0 -13,-6 -13,-13 0,-15 0,-30 0,-45 0,-7 6,-13 13,-13 24,0 47,0 71,0 7,0 13,6 13,13 0,15 0,30 0,45 0,7 -6,13 -13,13z"/>
  </g>
 </g>
</svg>
