<svg width="26" height="26" viewBox="0 0 26 26" fill="none" xmlns="http://www.w3.org/2000/svg">
<path fill-rule="evenodd" clip-rule="evenodd" d="M11.8001 12C11.7001 12.5 11.3001 13 10.8001 13.3C10.3001 13.6 9.80006 13.7 9.20006 13.6C8.70006 13.5 8.20006 13.2 7.80006 12.8C7.40006 12.4 7.30006 11.8 7.40006 11.3C8.80006 11.6 10.3001 11.8 11.7001 12.1L11.8001 12ZM7.60006 6.19995C7.00006 5.99995 4.30006 5.59995 4.10006 6.49995C4.00006 6.99995 5.20006 7.79995 6.80006 8.09995C9.60006 8.69995 16.3001 8.69995 19.1001 8.09995C20.7001 7.69995 21.9001 6.99995 21.8001 6.49995C21.6001 5.59995 18.9001 6.09995 18.3001 6.29995C16.0001 0.999951 9.90006 0.999951 7.60006 6.29995V6.19995ZM7.40006 16C11.1001 16.7 14.9001 16.7 18.5001 16C18.8001 15.9 19.1001 16.1 19.1001 16.4C19.1001 17 19.1001 17.7 19.1001 18.3C19.1001 19.1 18.7001 19.8 18.0001 20.4C16.5001 21.5 15.1001 22.6 13.6001 23.8C13.2001 24.1 12.7001 24.1 12.3001 23.8C10.8001 22.7 9.40006 21.6 7.90006 20.4C7.20006 19.9 6.80006 19.1 6.80006 18.3C6.80006 17.7 6.80006 17 6.80006 16.4C6.80006 16.2 7.10006 16 7.40006 16ZM20.5001 15.6C21.5001 15 22.8001 15.1 23.8001 15.8C24.1001 16 24.1001 16.4 23.8001 16.6C23.5001 16.8 23.1001 17 22.8001 17.1C22.2001 16.4 21.4001 15.9 20.6001 15.7L20.5001 15.6ZM22.3001 19.3C21.0001 19.1 20.0001 18 19.8001 16.8C19.7001 16.5 20.0001 16.2 20.3001 16.3C21.6001 16.5 22.6001 17.6 22.8001 18.8C22.9001 19.1 22.6001 19.4 22.3001 19.3ZM12.9001 10.4C13.6001 10.4 14.3001 10.3 15.1001 10.2C16.1001 9.99995 17.1001 9.79995 18.0001 9.69995C18.2001 9.69995 18.4001 9.59995 18.5001 9.59995C18.8001 9.59995 19.1001 9.59995 19.3001 9.69995C19.5001 9.79995 19.7001 10.1 19.8001 10.3C19.8001 10.5 19.9001 10.6 19.9001 10.8C20.1001 11.5 20.0001 12.2 19.6001 12.9C19.3001 13.5 18.7001 14.1 18.1001 14.4C16.8001 15.1 15.2001 15.1 14.0001 14.4C13.6001 14.2 13.2001 14.1 12.8001 14.1C12.4001 14.1 12.0001 14.2 11.6001 14.4C10.3001 15.1 8.80006 15.1 7.50006 14.4C6.90006 14.1 6.30006 13.5 6.00006 12.9C5.70006 12.3 5.60006 11.5 5.70006 10.8C5.70006 10.6 5.80006 10.5 5.80006 10.3C5.90006 9.99995 6.10006 9.79995 6.30006 9.69995C6.50006 9.59995 6.80006 9.49995 7.10006 9.59995C7.30006 9.59995 7.50006 9.69995 7.60006 9.69995C8.60006 9.89995 9.60006 9.99995 10.5001 10.2C11.2001 10.3 11.9001 10.4 12.7001 10.4H12.9001ZM14.0001 11.9C14.1001 12.4 14.5001 12.9 15.0001 13.2C15.5001 13.5 16.0001 13.6 16.6001 13.5C17.1001 13.4 17.6001 13.1 18.0001 12.7C18.4001 12.3 18.5001 11.7 18.4001 11.2C17.0001 11.5 15.5001 11.7 14.1001 12L14.0001 11.9Z" fill="white"/>
</svg>
