<?xml version="1.0" encoding="UTF-8"?>
<!DOCTYPE svg PUBLIC "-//W3C//DTD SVG 1.1//EN" "http://www.w3.org/Graphics/SVG/1.1/DTD/svg11.dtd">
<!-- Creator: CorelDRAW 2020 (64-Bit) -->
<svg xmlns="http://www.w3.org/2000/svg" xml:space="preserve" width="26px" height="26px" version="1.1" style="shape-rendering:geometricPrecision; text-rendering:geometricPrecision; image-rendering:optimizeQuality; fill-rule:evenodd; clip-rule:evenodd"
viewBox="0 0 260 260"
 xmlns:xlink="http://www.w3.org/1999/xlink"
 xmlns:xodm="http://www.corel.com/coreldraw/odm/2003">
 <defs>
  <style type="text/css">
   <![CDATA[
    .fil0 {fill:#6FC7B6}
    .fil1 {fill:white}
   ]]>
  </style>
 </defs>
 <g id="Layer_x0020_1">
  <metadata id="CorelCorpID_0Corel-Layer"/>
  <g id="_1678515150208">
   <polygon class="fil0" points="0,0 260,0 260,260 0,260 "/>
   <path class="fil1" d="M118 120c-1,5 -5,10 -10,13 -5,3 -10,4 -16,3 -5,-1 -10,-4 -14,-8 -4,-4 -5,-10 -4,-15 14,3 29,5 43,8zm-42 -58c-6,-2 -33,-6 -35,3 -1,5 11,13 27,16 28,6 95,6 123,0 16,-4 28,-11 27,-16 -2,-9 -29,-4 -35,-2 -23,-53 -84,-53 -107,0zm-2 98c37,7 75,7 111,0 3,-1 6,1 6,4 0,6 0,13 0,19 0,8 -4,15 -11,21 -15,11 -29,22 -44,34 -4,3 -9,3 -13,0 -15,-11 -29,-22 -44,-34 -7,-5 -11,-13 -11,-21 0,-6 0,-13 0,-19 0,-2 3,-4 6,-4zm131 -4c10,-6 23,-5 33,2 3,2 3,6 0,8 -3,2 -7,4 -10,5 -6,-7 -14,-12 -22,-14zm18 37c-13,-2 -23,-13 -25,-25 -1,-3 2,-6 5,-5 13,2 23,13 25,25 1,3 -2,6 -5,5zm-94 -89c7,0 14,-1 22,-2 10,-2 20,-4 29,-5 2,0 4,-1 5,-1 3,0 6,0 8,1 2,1 4,4 5,6 0,2 1,3 1,5 2,7 1,14 -3,21 -3,6 -9,12 -15,15 -13,7 -29,7 -41,0 -4,-2 -8,-3 -12,-3 -4,0 -8,1 -12,3 -13,7 -28,7 -41,0 -6,-3 -12,-9 -15,-15 -3,-6 -4,-14 -3,-21 0,-2 1,-3 1,-5 1,-3 3,-5 5,-6 2,-1 5,-2 8,-1 2,0 4,1 5,1 10,2 20,3 29,5 7,1 14,2 22,2zm11 15c1,5 5,10 10,13 5,3 10,4 16,3 5,-1 10,-4 14,-8 4,-4 5,-10 4,-15 -14,3 -29,5 -43,8z"/>
  </g>
 </g>
</svg>
