<svg id="kriticke-choroby-ano" xmlns="http://www.w3.org/2000/svg" width="26" height="26" viewBox="0 0 26 26">
  <rect id="Rectangle_137" data-name="Rectangle 137" width="26" height="26" fill="none"/>
  <path id="Path_280" data-name="Path 280" d="M27.375,22.667l-.994-1.8a.722.722,0,0,1-.09-.349V8.222a.722.722,0,0,0-.722-.722H24.306a.722.722,0,0,0-.722.722V20.515a.722.722,0,0,1-.09.349l-.994,1.8" transform="translate(-6.25 -2.083)" fill="none" stroke="#2a77d1" stroke-miterlimit="10" stroke-width="1"/>
  <path id="Path_281" data-name="Path 281" d="M22.9,20.583h0a1.9,1.9,0,0,1-1.9-1.9V11.646a1.9,1.9,0,0,1,1.9-1.9h0" transform="translate(-5.833 -2.708)" fill="none" stroke="#2a77d1" stroke-miterlimit="10" stroke-width="1"/>
  <path id="Path_282" data-name="Path 282" d="M28.125,9.75h0a1.9,1.9,0,0,1,1.9,1.9v7.042a1.9,1.9,0,0,1-1.9,1.9h0" transform="translate(-7.813 -2.708)" fill="none" stroke="#2a77d1" stroke-miterlimit="10" stroke-width="1"/>
  <path id="Path_283" data-name="Path 283" d="M16.854,18H10.625A1.625,1.625,0,0,0,9,19.625H9" transform="translate(-2.5 -5)" fill="none" stroke="#2a77d1" stroke-miterlimit="10" stroke-width="1"/>
  <path id="Path_284" data-name="Path 284" d="M14.917,21.75H3" transform="translate(-0.833 -6.042)" fill="none" stroke="#2a77d1" stroke-miterlimit="10" stroke-width="1"/>
  <path id="Path_285" data-name="Path 285" d="M11.25,21.75v4.875H26.958" transform="translate(-3.125 -6.042)" fill="none" stroke="#2a77d1" stroke-miterlimit="10" stroke-width="1"/>
  <circle id="Ellipse_33" data-name="Ellipse 33" cx="1.896" cy="1.896" r="1.896" transform="translate(2.167 10.292)" fill="none" stroke="#2a77d1" stroke-miterlimit="10" stroke-width="1"/>
</svg>
