<svg width="26" height="26" viewBox="0 0 26 26" fill="none" xmlns="http://www.w3.org/2000/svg">
<path fill-rule="evenodd" clip-rule="evenodd" d="M12.3002 7.50002C12.1002 7.30002 11.9002 7.10002 11.6002 6.80002C9.4002 4.60002 5.8002 4.60002 3.6002 6.80002C1.4002 9.00002 1.4002 12.6 3.6002 14.8C6.4002 18 9.5002 21 12.9002 23.5C16.3002 21 19.4002 17.9 22.2002 14.8C24.4002 12.6 24.5002 9.00002 22.2002 6.80002C20.0002 4.60002 16.4002 4.60002 14.2002 6.80002C14.0002 7.00002 13.8002 7.20002 13.5002 7.50002C13.1002 7.90002 12.5002 7.90002 12.2002 7.50002H12.3002ZM9.4002 12.8L10.2002 9.80002C10.3002 9.50002 10.6002 9.30002 10.9002 9.30002C11.2002 9.30002 11.5002 9.50002 11.6002 9.80002L13.4002 15.1L14.0002 13.3C14.1002 13 14.4002 12.8 14.7002 12.8H20.4002C20.8002 12.8 21.1002 13.1 21.1002 13.6C21.1002 14 20.8002 14.3 20.3002 14.3H15.1002L14.0002 17.8C13.9002 18.1 13.6002 18.3 13.3002 18.3C13.0002 18.3 12.7002 18.1 12.6002 17.8L10.9002 12.6L10.6002 13.8C10.5002 14.1 10.2002 14.3 9.9002 14.3H5.4002C5.0002 14.3 4.6002 14 4.6002 13.5C4.6002 13.1 4.9002 12.7 5.4002 12.7H9.3002L9.4002 12.8Z" fill="white"/>
</svg>
