<?xml version="1.0" encoding="UTF-8"?>
<!DOCTYPE svg PUBLIC "-//W3C//DTD SVG 1.1//EN" "http://www.w3.org/Graphics/SVG/1.1/DTD/svg11.dtd">
<!-- Creator: CorelDRAW 2020 (64-Bit) -->
<svg xmlns="http://www.w3.org/2000/svg" xml:space="preserve" width="26px" height="26px" version="1.1" style="shape-rendering:geometricPrecision; text-rendering:geometricPrecision; image-rendering:optimizeQuality; fill-rule:evenodd; clip-rule:evenodd"
viewBox="0 0 260 260"
 xmlns:xlink="http://www.w3.org/1999/xlink"
 xmlns:xodm="http://www.corel.com/coreldraw/odm/2003">
 <defs>
  <style type="text/css">
   <![CDATA[
    .fil0 {fill:#6FC7B6}
    .fil1 {fill:white}
   ]]>
  </style>
 </defs>
 <g id="Layer_x0020_1">
  <metadata id="CorelCorpID_0Corel-Layer"/>
  <g id="_1679138100432">
   <polygon class="fil0" points="0,0 260,0 260,260 0,260 "/>
   <path class="fil1" d="M123 75c-2,-2 -4,-4 -7,-7 -22,-22 -58,-22 -80,0 -22,22 -22,58 0,80 28,32 59,62 93,87 34,-25 65,-56 93,-87 22,-22 23,-58 0,-80 -22,-22 -58,-22 -80,0 -2,2 -4,4 -7,7 -4,4 -10,4 -13,0zm-29 53l8 -30c1,-3 4,-5 7,-5 3,0 6,2 7,5l18 53 6 -18c1,-3 4,-5 7,-5l57 0c4,0 7,3 7,8 0,4 -3,7 -8,7l-52 0 -11 35c-1,3 -4,5 -7,5 -3,0 -6,-2 -7,-5l-17 -52 -3 12c-1,3 -4,5 -7,5l-45 0c-4,0 -8,-3 -8,-8 0,-4 3,-8 8,-8l39 0z"/>
  </g>
 </g>
</svg>
