<svg width="26" height="26" viewBox="0 0 26 26" fill="none" xmlns="http://www.w3.org/2000/svg">
<g clip-path="url(#clip0_353_2959)">
<path fill-rule="evenodd" clip-rule="evenodd" d="M0 0H26V26H0V0Z" fill="#009584"/>
<path d="M10.6001 21.4C12.2001 21.4 13.8001 21.4 15.5001 21.4C15.5001 19.4 15.5001 17.4 15.5001 15.4C17.5001 15.4 19.5001 15.4 21.5001 15.4C21.5001 13.8 21.5001 12.2 21.5001 10.5C19.5001 10.5 17.5001 10.5 15.5001 10.5C15.5001 8.5 15.5001 6.5 15.5001 4.5C13.9001 4.5 12.3001 4.5 10.6001 4.5C10.6001 6.5 10.6001 8.5 10.6001 10.5C8.6001 10.5 6.6001 10.5 4.6001 10.5C4.6001 12.1 4.6001 13.7 4.6001 15.4C6.6001 15.4 8.6001 15.4 10.6001 15.4C10.6001 17.4 10.6001 19.4 10.6001 21.4Z" fill="white"/>
</g>
<defs>
<clipPath id="clip0_353_2959">
<rect width="26" height="26" fill="white"/>
</clipPath>
</defs>
</svg>
