<svg xmlns="http://www.w3.org/2000/svg" width="28.5" height="24.427" viewBox="0 0 28.5 24.427">
  <path id="link" d="M44.49,39.142a6.924,6.924,0,0,1-2.035,4.707l-4.421,4.423a6.9,6.9,0,0,1-4.914,2.035h-.006a6.95,6.95,0,0,1-6.942-7.144,1.018,1.018,0,0,1,2.035.057,4.913,4.913,0,0,0,4.908,5.052h0a4.884,4.884,0,0,0,3.474-1.439l4.421-4.421a4.914,4.914,0,1,0-6.95-6.95l-1.4,1.4a1.018,1.018,0,0,1-1.439-1.439l1.4-1.4A6.955,6.955,0,0,1,44.49,39.142ZM27.825,51.537l-1.4,1.4a4.886,4.886,0,0,1-3.486,1.443h0a4.914,4.914,0,0,1-3.472-8.389l4.413-4.421a4.914,4.914,0,0,1,8.4,3.613,1.018,1.018,0,0,0,2.035.057A6.953,6.953,0,0,0,22.447,40.13l-4.418,4.421a6.949,6.949,0,0,0,4.905,11.863h0a6.905,6.905,0,0,0,4.916-2.035l1.4-1.4a1.018,1.018,0,0,0-1.425-1.443Z" transform="translate(-15.993 -31.987)" fill="#268fa3"/>
</svg>
