<svg xmlns="http://www.w3.org/2000/svg" xml:space="preserve" fill-rule="evenodd" viewBox="0 0 36 36"><path fill="none" d="M0 0h36v36H0z"/><path d="M8.44 19.43c-.02.1-.03.21-.03.31-.01.22 0 .44.02.66.03.27.09.54.15.8.05.18.11.37.17.55.1.28.22.55.35.81a7.2 7.2 0 0 0 .96 1.49c.18.22.38.43.59.62.19.18.4.35.61.5.17.12.35.22.53.31.06.03.13.06.19.08.02-.1.02-.21.03-.31q.015-.33-.03-.66c-.03-.27-.08-.53-.15-.8-.04-.18-.1-.37-.17-.55-.09-.28-.21-.55-.34-.81-.13-.27-.28-.53-.44-.77-.16-.25-.33-.49-.52-.72-.18-.22-.38-.43-.59-.62-.19-.18-.4-.35-.62-.5-.17-.12-.34-.22-.53-.31-.06-.03-.12-.06-.18-.08m-3-5.19c-1.99 1.15-2.74 3.38-2.78 5.49-.03 2.14.64 4.32 1.7 6.14 1.05 1.83 2.6 3.5 4.47 4.54 1.84 1.02 4.15 1.49 6.15.34 1.99-1.15 2.74-3.38 2.77-5.49.04-2.14-.64-4.32-1.69-6.14-1.06-1.83-2.6-3.5-4.47-4.54-1.85-1.02-4.15-1.49-6.15-.34m22.45-1.64 2.07-1.2c.17-.09.28-.06.38.11s.07.28-.1.38l-2.07 1.2c-.17.1-.29.07-.39-.1-.09-.18-.07-.29.11-.39M5.84 14.92c-1.5.87-2.2 2.54-2.35 4.2-.05.54-.05 1.08 0 1.61a11.3 11.3 0 0 0 .83 3.28c.2.51.45 1 .72 1.47a12.4 12.4 0 0 0 2.03 2.63c.41.39.84.76 1.3 1.09.44.31.91.58 1.4.8 1.52.7 3.31.93 4.81.07 2-1.16 2.54-3.68 2.35-5.81a11.3 11.3 0 0 0-.83-3.28q-.315-.765-.72-1.47c-.28-.47-.58-.93-.91-1.36-.35-.45-.72-.88-1.13-1.27-.4-.4-.83-.76-1.3-1.09-.44-.31-.9-.58-1.39-.8-1.52-.7-3.32-.93-4.81-.07m13.84-5.59c.69-.39 1.38-.79 2.07-1.19.17-.1.28-.07.38.1s.07.29-.1.39c-.69.39-1.38.79-2.07 1.19-.17.1-.29.07-.39-.1-.09-.17-.06-.29.11-.39m-3.32 2.57c-.34.2-.69.4-1.03.6-.18.1-.29.06-.39-.11s-.07-.28.1-.38c.35-.2.7-.4 1.04-.6.17-.1.29-.07.39.1.09.18.06.29-.11.39m8.84-5.1c-.35.2-.69.4-1.04.59-.17.1-.28.07-.38-.1s-.07-.28.1-.38c.35-.2.69-.4 1.04-.6.17-.1.28-.07.38.1s.07.29-.1.39m-.38 11.44c.69-.4 1.38-.8 2.07-1.19.17-.1.21-.22.11-.39s-.22-.2-.39-.1c-.69.4-1.38.8-2.07 1.19-.17.1-.2.22-.1.39s.21.2.38.1m-.31 2.97c-.34.2-.69.4-1.04.6-.17.1-.2.21-.1.38s.21.2.39.1c.34-.19.69-.39 1.03-.59.17-.1.2-.22.1-.39s-.21-.2-.38-.1m-3.26.16c.69-.4 1.38-.8 2.07-1.19.17-.1.29-.07.39.1s.07.28-.11.38l-2.07 1.2c-.17.1-.28.07-.38-.1-.1-.18-.07-.29.1-.39m7.8-4.5 2.07-1.2c.17-.1.29-.07.39.11.1.17.07.28-.11.38l-2.07 1.2c-.17.1-.28.07-.38-.11-.1-.17-.07-.28.1-.38m-1.41-5.85c-.34.2-.69.4-1.04.6-.17.1-.2.21-.1.39.1.17.21.2.39.1.34-.2.69-.4 1.03-.6.17-.1.2-.21.1-.38-.1-.18-.21-.2-.38-.11m-4.96 3.52 2.07-1.2c.18-.1.21-.21.11-.38-.1-.18-.22-.21-.39-.11l-2.07 1.2c-.17.1-.2.21-.1.38.1.18.21.21.38.11m-1.52-3.01 2.07-1.2c.17-.1.29-.07.38.11.11.17.07.28-.1.38l-2.07 1.2c-.17.1-.28.07-.38-.11-.1-.17-.07-.28.1-.38m6.32-3.65c-.35.2-.69.4-1.04.6-.17.1-.2.21-.1.38.1.18.21.21.38.11.35-.2.69-.4 1.04-.6.17-.1.2-.21.1-.38-.1-.18-.21-.21-.38-.11M17.2 13.82c-.35.2-.69.4-1.04.59-.17.1-.2.22-.1.39s.21.2.38.1c.35-.2.69-.4 1.04-.6.17-.09.2-.21.1-.38s-.21-.2-.38-.1M20.75 15c-.34.2-.69.4-1.03.6-.17.1-.2.21-.11.38.1.18.22.21.39.11.34-.2.69-.4 1.04-.6.17-.1.2-.21.1-.39-.1-.17-.21-.2-.39-.1m-2.89-5.69c-.34.2-.69.4-1.03.6-.18.1-.29.07-.39-.1s-.07-.29.1-.39c.35-.2.7-.4 1.04-.59.17-.1.29-.07.38.1.1.17.07.28-.1.38m-4.63 2.68 2.07-1.2c.17-.1.21-.21.11-.38-.1-.18-.22-.21-.39-.11l-2.07 1.2c-.17.1-.2.21-.1.38.1.18.21.21.38.11m7.8-4.51c.69-.4 1.38-.79 2.07-1.19.18-.1.21-.22.11-.39s-.22-.2-.39-.1L20.75 7c-.17.09-.2.21-.1.38s.21.2.38.1m-.69 18.51 2.07-1.2c.17-.1.2-.21.1-.38-.1-.18-.21-.21-.38-.11l-2.07 1.2c-.17.1-.2.21-.11.38.1.18.22.21.39.11m7.27-4.85c-.34.2-.69.4-1.03.59-.17.1-.2.22-.11.39.1.17.22.2.39.1.34-.2.69-.4 1.04-.6.17-.1.2-.21.1-.38s-.21-.2-.39-.1m2.99-1.73c-.35.2-.69.4-1.04.6-.17.1-.2.21-.1.39.1.17.21.2.39.1.34-.2.69-.4 1.03-.6.17-.1.2-.21.1-.38-.1-.18-.21-.21-.38-.11m-10.78-1.53c-.35.2-.69.4-1.04.6-.17.1-.2.21-.1.38.1.18.21.21.38.11.35-.2.69-.4 1.04-.6.17-.1.2-.21.1-.39-.1-.17-.21-.2-.38-.1M7.96 12.79c4.35-2.52 8.71-5.03 13.06-7.55 1.98-1.14 4.33-.67 6.15.34 1.87 1.04 3.42 2.72 4.47 4.54 1.06 1.82 1.73 4 1.7 6.14-.04 2.09-.8 4.35-2.78 5.49-4.36 2.52-8.71 5.03-13.07 7.55.28-.48.5-.98.66-1.51.18-.58.29-1.17.35-1.77.06-.63.06-1.27 0-1.91s-.17-1.28-.33-1.91c-.16-.62-.37-1.23-.61-1.83-.24-.56-.51-1.11-.82-1.65q-.465-.795-1.02-1.53c-.39-.51-.82-.99-1.28-1.44s-.96-.87-1.49-1.24q-.78-.555-1.65-.96c-.54-.25-1.12-.45-1.71-.58-.53-.12-1.08-.19-1.63-.18m-3.35 6.43c-.05.47-.04.94 0 1.41.04.51.13 1 .26 1.49.13.5.29.99.49 1.46.19.46.41.91.66 1.34.24.43.52.84.82 1.23.31.41.65.8 1.02 1.15.36.36.75.68 1.16.97.39.27.79.52 1.22.71 3.82 1.75 5.89-1.07 5.57-4.62-.05-.51-.14-1-.26-1.49-.13-.5-.29-.99-.49-1.46a11 11 0 0 0-.66-1.34c-.25-.43-.52-.84-.83-1.23-.31-.41-.65-.8-1.01-1.16-.37-.35-.75-.67-1.16-.96-.39-.28-.8-.52-1.22-.71-2.78-1.28-5.26-.18-5.57 3.21m.78.08c-.04.42-.03.84.01 1.26.04.46.12.92.23 1.37q.18.69.45 1.35a11 11 0 0 0 1.39 2.39c.29.38.6.74.94 1.07.33.32.69.62 1.06.89.35.24.72.46 1.1.63 2.45 1.13 4.21.11 4.45-2.57q.06-.63 0-1.26c-.04-.46-.12-.92-.24-1.37-.11-.46-.27-.91-.45-1.35-.17-.43-.38-.84-.61-1.24s-.49-.79-.77-1.15a9.7 9.7 0 0 0-2.01-1.96 7.4 7.4 0 0 0-1.09-.64c-2.29-1.05-4.19-.26-4.46 2.58m1.12.1c-.03.35-.03.71.01 1.06.03.4.1.8.2 1.19.11.41.24.81.4 1.2.16.38.35.75.55 1.11.21.36.44.7.69 1.03.26.33.54.65.84.95.29.28.59.54.92.77.29.2.6.38.92.53 1.76.81 2.69.21 2.86-1.65.04-.35.03-.71 0-1.06a8.5 8.5 0 0 0-.61-2.39 10 10 0 0 0-.55-1.11c-.2-.36-.43-.7-.68-1.03-.26-.33-.54-.65-.84-.95-.29-.28-.6-.54-.93-.77-.29-.2-.59-.38-.91-.53-1.77-.81-2.69-.21-2.87 1.65m.79.03c-.02.18-.02.35-.02.53a5 5 0 0 0 .14 1.2c.04.21.1.43.16.64.14.43.31.86.51 1.26.2.41.43.8.69 1.16q.39.57.87 1.05c.3.31.62.59.98.83.15.1.3.2.46.29.14.07.29.14.44.21 1.14.46 1.46.18 1.58-1.04.02-.17.03-.35.03-.53 0-.19-.02-.38-.04-.56-.02-.22-.06-.43-.1-.64-.05-.21-.1-.43-.17-.64-.13-.43-.3-.86-.5-1.26-.2-.41-.43-.8-.69-1.16q-.39-.57-.87-1.05c-.3-.31-.63-.59-.98-.83-.15-.1-.3-.2-.47-.29-.14-.07-.28-.15-.43-.21-1.17-.47-1.47-.09-1.59 1.04M9.35 21c.06.23.13.45.21.67.12.31.27.61.43.89a6.6 6.6 0 0 0 1.08 1.43c-.06-.23-.13-.45-.22-.67q-.18-.465-.42-.9a9 9 0 0 0-.55-.82c-.17-.21-.34-.41-.53-.6"/></svg>