<svg xmlns="http://www.w3.org/2000/svg" xml:space="preserve" fill-rule="evenodd" viewBox="0 0 36 36"><path fill="none" d="M0 0h36v36H0z"/><path d="M18 11.83c-.21-.3-.51-.51-.82-.72-.31-.1-.72-.2-1.13-.1-.31.1-.62.21-.93.41-.31.21-.51.41-.61.72-.21.41-.31.82-.21 1.23.1.42.31.83.62 1.14l3.18 3.28 3.29-3.28c.31-.31.52-.72.52-1.14.1-.41 0-.82-.21-1.23a2.5 2.5 0 0 0-.72-.72c-.31-.2-.62-.31-.92-.31-.41 0-.72 0-1.13.11-.31.1-.62.41-.93.72zm0 11.31 10.07-10.18c-1.75-.1-3.7.11-4.83 1.24L18 19.54l-5.24-5.34c-1.03-1.13-2.98-1.24-4.83-1.24zm0 6.99L33.62 14.4c-2.57-.1-5.44.21-7.09 1.75l-8.63 8.74-8.64-8.74c-1.54-1.54-4.21-1.85-6.98-1.75z"/></svg>