<svg xmlns="http://www.w3.org/2000/svg" xml:space="preserve" width="36" height="36" fill-rule="evenodd" clip-rule="evenodd" image-rendering="optimizeQuality" shape-rendering="geometricPrecision" text-rendering="geometricPrecision" viewBox="0 0 36 36"><path fill="none" d="M0 0h36v36H0z"/><path d="M10.19 7.52c0-.93.72-1.54 1.54-1.54h.31c.82 0 1.54.71 1.54 1.54v8.22c0 3.29 2.06 4.42 4.32 4.42s4.31-1.13 4.31-4.42V7.52c0-.93.72-1.54 1.55-1.54h.3c.93 0 1.55.71 1.55 1.54v8.22c0 4.73-2.78 7.5-7.81 7.5-4.94 0-7.61-2.57-7.81-6.99V7.52zM7.62 23.96c3.19 1.75 6.78 2.67 10.38 2.67s7.19-.92 10.38-2.67c.82-.41 1.85-.2 2.36.72.42.82.21 1.85-.72 2.36-3.7 2.06-7.81 3.09-12.02 3.09S9.68 29.1 5.98 27.04c-.83-.41-1.14-1.54-.72-2.36.41-.82 1.54-1.13 2.36-.72"/></svg>