<svg id="m-bundle" xmlns="http://www.w3.org/2000/svg" xmlns:xlink="http://www.w3.org/1999/xlink" width="44" height="44" viewBox="0 0 44 44">
  <defs>
    <linearGradient id="linear-gradient" x1="0.654" y1="0.607" x2="0.335" y2="0.465" gradientUnits="objectBoundingBox">
      <stop offset="0" stop-color="#f28f38"/>
      <stop offset="1" stop-color="#f4a058"/>
    </linearGradient>
    <linearGradient id="linear-gradient-2" x1="0.73" y1="1.168" x2="0.127" y2="1.002" xlink:href="#linear-gradient"/>
    <linearGradient id="linear-gradient-3" x1="0.606" y1="0.553" x2="0.453" y2="0.46" xlink:href="#linear-gradient"/>
  </defs>
  <g id="background">
    <rect id="Rectangle_193" data-name="Rectangle 193" width="44" height="44" fill="none"/>
  </g>
  <g id="maskot" transform="translate(1.602)">
    <path id="Path_336" data-name="Path 336" d="M14.945,14.822h-.1c-4.878,0-5.117-.837-5.763-.622-4.591,1.53-5.4,5.213-5.476,10.091h22.6c-.072-4.878-.885-8.561-5.476-10.091-.646-.215-.885.622-5.787.622Z" transform="translate(3.42 19.708)" fill="#f18e39" fill-rule="evenodd"/>
    <path id="Path_337" data-name="Path 337" d="M14.354,23.1c-.048-3.372-.454-6.17-2.224-8.083.072.12.861,4.089.933,4.424.167.574.454,2.128.717,3.659Z" transform="translate(15.274 20.897)" fill="#ed7003" fill-rule="evenodd"/>
    <path id="Path_338" data-name="Path 338" d="M13.247,14.822h-.1c-4.878,0-5.117-.837-5.763-.622a8.561,8.561,0,0,0-2.248,1.1,20.607,20.607,0,0,0-.311,3.491,18.3,18.3,0,0,0,.813,5.5H20.852a18.3,18.3,0,0,0,.813-5.5,20,20,0,0,0-.287-3.42A8.937,8.937,0,0,0,19.034,14.2c-.646-.215-.885.622-5.787.622Z" transform="translate(5.118 19.708)" fill="#f4a058" fill-rule="evenodd"/>
    <path id="Path_339" data-name="Path 339" d="M16.988,9.951C17.849,11.458,14.764,16,11.56,16s-6.265-4.543-5.4-6.05c.407-.717,2.272.383,5.4.383C14.716,10.334,16.558,9.234,16.988,9.951Z" transform="translate(6.757 13.507)" fill="#fff" fill-rule="evenodd"/>
    <path id="Path_340" data-name="Path 340" d="M11.773,20.909l.239,1.985H8.425l.263-1.985a.754.754,0,0,1,.813-.765H10.96a.78.78,0,0,1,.813.765Zm.55-5.739H8.114a.636.636,0,0,0-.55.885c.335.98.574,1.626.909,2.535.239.693.43.789,1.124.789H10.84c.717,0,.909-.1,1.148-.789.311-.909.55-1.554.885-2.535a.617.617,0,0,0-.55-.885Z" transform="translate(8.864 21.106)" fill="#ed7003" fill-rule="evenodd"/>
    <path id="Path_341" data-name="Path 341" d="M11.473,20.579l.335,2.774H8.029l.359-2.774a.754.754,0,0,1,.813-.765H10.66a.78.78,0,0,1,.813.765Zm.55-5.739H7.814a.636.636,0,0,0-.55.885c.335.957.574,1.626.909,2.535.239.693.43.789,1.124.789H10.54c.717,0,.909-.1,1.148-.789.311-.909.55-1.578.885-2.535a.617.617,0,0,0-.55-.885Z" transform="translate(8.447 20.647)" fill="#1a4c6e" fill-rule="evenodd"/>
    <path id="Path_342" data-name="Path 342" d="M17.164,33.55c9.9,0,13.607-7.174,13.367-14.9a3,3,0,0,0,1.77-2.367c.359-1.65-.239-3.3-1.315-3.659a1.576,1.576,0,0,0-1.339.215C27.757,5.954,23.022,0,17.164,0,11.329,0,6.594,5.954,4.705,12.841a1.589,1.589,0,0,0-1.339-.215c-1.076.359-1.674,2.009-1.315,3.659A3.028,3.028,0,0,0,3.8,18.652c-.239,7.724,3.491,14.9,13.367,14.9Z" transform="translate(1.106)" fill-rule="evenodd" fill="url(#linear-gradient)"/>
    <path id="Path_343" data-name="Path 343" d="M15.563,9.547C18.145,8.256,14.8,18.3,8.58,15.358a3.6,3.6,0,0,1-1.722-1.937c-.574-2.176,4.065-2.033,5.237-2.63.43-.191,1.291-.454,1.865-.693C14.343,9.93,15.2,9.714,15.563,9.547Z" transform="translate(7.872 13.122)" fill="#ed7003" fill-rule="evenodd"/>
    <path id="Path_344" data-name="Path 344" d="M27.5,7.638c-.143-.478-.263-.933-.43-1.363h-.383a5.139,5.139,0,0,0-9.422,0H14.7a5.158,5.158,0,0,0-9.446,0H3.63c-.143.43-.311.861-.43,1.291v.072H4.874a6.771,6.771,0,0,0-.048.717,5.153,5.153,0,0,0,10.307,0,6.771,6.771,0,0,0-.048-.717h1.77a6.771,6.771,0,0,0-.048.717,5.153,5.153,0,0,0,10.307,0,3.5,3.5,0,0,0-.048-.717h.43ZM9.967,4.649A3.707,3.707,0,1,1,6.285,8.355,3.694,3.694,0,0,1,9.967,4.649Zm12,0a3.707,3.707,0,1,0,3.707,3.707A3.694,3.694,0,0,0,21.972,4.649Z" transform="translate(2.85 4.438)" fill="#ed7003" fill-rule="evenodd"/>
    <path id="Path_345" data-name="Path 345" d="M8.31,22.633c9.8,0,13.535-7.03,13.391-14.635-.67-.526-1.267.43-1.267,1.2,0,1.315-.191,5.763-2.87,8.3C13.308,21.509,11.084,20.265,8.31,22.633Z" transform="translate(9.96 10.917)" fill="#ed7003" fill-rule="evenodd"/>
    <path id="Path_346" data-name="Path 346" d="M17.453,11.659C16.234,7.235,13.819,3.17,10.71.85a24.771,24.771,0,0,1,1.626,2.2,17.264,17.264,0,0,1,2.822,6.863C15.23,10.3,16.21,12.9,17.453,11.659Z" transform="translate(13.299 1.183)" fill="#ed7003" fill-rule="evenodd"/>
    <path id="Path_347" data-name="Path 347" d="M16.968,9.622c.861,1.411-2.224,5.667-5.428,5.667s-6.265-4.257-5.4-5.667c.407-.67,2.272.359,5.4.359C14.7,9.98,16.562,8.952,16.968,9.622Z" transform="translate(6.73 13.072)" fill="#fff" fill-rule="evenodd"/>
    <g id="Group_16" data-name="Group 16" transform="translate(5.763 6.887)">
      <path id="Path_348" data-name="Path 348" d="M7.967,3.49A3.695,3.695,0,1,0,11.649,7.2,3.694,3.694,0,0,0,7.967,3.49Z" transform="translate(-1.438 -2.031)" fill="#fefefe" fill-rule="evenodd"/>
      <path id="Path_349" data-name="Path 349" d="M12.977,3.49A3.695,3.695,0,1,1,9.27,7.2,3.694,3.694,0,0,1,12.977,3.49Z" transform="translate(5.532 -2.031)" fill="#fefefe" fill-rule="evenodd"/>
      <path id="Path_350" data-name="Path 350" d="M26.3,5.965h1.793V7.3H26.706a7.242,7.242,0,0,1,.048.741,5.153,5.153,0,0,1-10.307,0A3.741,3.741,0,0,1,16.5,7.3H14.7a7.242,7.242,0,0,1,.048.741,5.153,5.153,0,0,1-10.307,0A7.242,7.242,0,0,1,4.491,7.3H3.08V5.965H4.9a5.139,5.139,0,0,1,9.422,0h2.559a5.139,5.139,0,0,1,9.422,0ZM9.608,4.339A3.695,3.695,0,1,1,5.9,8.045,3.689,3.689,0,0,1,9.608,4.339Zm11.98,0A3.695,3.695,0,1,0,25.3,8.045,3.71,3.71,0,0,0,21.589,4.339Z" transform="translate(-3.08 -2.88)" fill="#1a4c6e" fill-rule="evenodd"/>
    </g>
    <path id="Path_351" data-name="Path 351" d="M12.1,4.11A2.212,2.212,0,1,1,9.9,6.334,2.215,2.215,0,0,1,12.1,4.11Z" transform="translate(12.172 5.718)" fill="#1a4c6e" fill-rule="evenodd"/>
    <path id="Path_352" data-name="Path 352" d="M10.959,4.4a1.526,1.526,0,0,1,1.53,1.53.257.257,0,0,1-.239.239.262.262,0,0,1-.263-.239h0A1.006,1.006,0,0,0,10.959,4.9a.246.246,0,0,1-.239-.263.226.226,0,0,1,.239-.239Z" transform="translate(13.313 6.122)" fill="#fff" fill-rule="evenodd"/>
    <path id="Path_353" data-name="Path 353" d="M7.1,4.11A2.212,2.212,0,1,1,4.88,6.334,2.215,2.215,0,0,1,7.1,4.11Z" transform="translate(5.187 5.718)" fill="#1a4c6e" fill-rule="evenodd"/>
    <path id="Path_354" data-name="Path 354" d="M5.963,4.4a1.526,1.526,0,0,1,1.53,1.53.262.262,0,0,1-.263.239.257.257,0,0,1-.239-.239h0A1.006,1.006,0,0,0,5.963,4.9.265.265,0,0,1,5.7,4.639.246.246,0,0,1,5.963,4.4Z" transform="translate(6.328 6.122)" fill="#fff" fill-rule="evenodd"/>
    <path id="Path_355" data-name="Path 355" d="M.67,24.1a6.641,6.641,0,0,1,.454-.933c1.6-2.487,8.154-7.533,10.88-8.68,2.1-.885,1.53,1.722,1.793,2.7a1.948,1.948,0,0,1-.5,1.53c-1.411,1.65-3.826,2.2-6.935,5.38H.67Z" transform="translate(-0.67 19.902)" fill-rule="evenodd" fill="url(#linear-gradient-2)"/>
    <path id="Path_356" data-name="Path 356" d="M5.69,16.23a11.656,11.656,0,0,0-2.057,4.185c0,.311-.024.67-.024,1h.6c.024-.167.072-.383.12-.6A16.883,16.883,0,0,1,5.69,16.23Z" transform="translate(3.42 22.581)" fill="#ed7003" fill-rule="evenodd"/>
    <g id="Group_17" data-name="Group 17" transform="translate(23.915 15.645)">
      <path id="Path_357" data-name="Path 357" d="M26.69,13.9c-1.411,2.535-1.865,4.687-4.352,8.25A38.665,38.665,0,0,1,18.7,26.6c-.072.1-4.328,4.209-4.376,4.209A2.78,2.78,0,0,1,10.693,28.9a1.8,1.8,0,0,1,.55-1.507,60.73,60.73,0,0,0,7.437-9.135c1.483-2.343,1.674-3.467,2.7-6,.311-.789.143-1.913.383-2.3.43-.622,1.841-1.148,1.77-.287-.048.383-.6.383-.837.67-.191.191-.12.646.072.67.837.072,2.535-4.974,3.42-4.424,1.052.646-1.53,2.965-.98,3.563.263.263.622-.1,1.076.215.263.167.215.478.335.717.1.239.383-.024.741.191.191.12.526.478-.67,2.63Z" transform="translate(-10.671 -6.542)" fill-rule="evenodd" fill="url(#linear-gradient-3)"/>
      <path id="Path_358" data-name="Path 358" d="M18.632,8.76a4.375,4.375,0,0,1-.478,1.363.9.9,0,0,1-.741.072.524.524,0,0,1-.311-.67c.072-.1.215-.048.215.024a.393.393,0,0,0,.215.43C17.938,10.195,18.56,9.071,18.632,8.76Z" transform="translate(-1.775 -3.457)" fill="#ed7003" fill-rule="evenodd"/>
      <path id="Path_359" data-name="Path 359" d="M18.276,8.29a2.1,2.1,0,0,0,.12.359c.048.143.191.1.335.1-.311.048-.478.717-.622.909-.693.957-1.817.287-1.459-.43.12-.239.359-.191.239.024-.1.167-.024.67.383.622.741-.1.909-.98,1-1.578Z" transform="translate(-2.448 -4.111)" fill="#ed7003" fill-rule="evenodd"/>
    </g>
  </g>
</svg>
