<?xml version="1.0" encoding="UTF-8"?>
<!DOCTYPE svg PUBLIC "-//W3C//DTD SVG 1.1//EN" "http://www.w3.org/Graphics/SVG/1.1/DTD/svg11.dtd">
<!-- Creator: CorelDRAW -->
<svg xmlns="http://www.w3.org/2000/svg" xml:space="preserve" width="44px" height="44px" version="1.1" shape-rendering="geometricPrecision" text-rendering="geometricPrecision" image-rendering="optimizeQuality" fill-rule="evenodd" clip-rule="evenodd"
viewBox="0 0 55.19 55.19"
 xmlns:xlink="http://www.w3.org/1999/xlink"
 xmlns:xodm="http://www.corel.com/coreldraw/odm/2003">
 <defs>
      <linearGradient id="id0" gradientUnits="userSpaceOnUse" x1="41.99" y1="44.44" x2="40.54" y2="40.58">
       <stop offset="0" stop-opacity="1" stop-color="#F28F38"/>
       <stop offset="1" stop-opacity="1" stop-color="#F4A058"/>
      </linearGradient>
    <mask id="id1">
      <radialGradient id="id2" gradientUnits="userSpaceOnUse" cx="11.67" cy="43.4" r="0" fx="11.67" fy="43.4">
       <stop offset="0" stop-opacity="0.996078" stop-color="white"/>
       <stop offset="0.709804" stop-opacity="0" stop-color="white"/>
       <stop offset="1" stop-opacity="0" stop-color="white"/>
      </radialGradient>
     <rect fill="url(#id2)" x="11.67" y="43.4" width="19.86" height="11.79"/>
    </mask>
    <linearGradient id="id3" gradientUnits="userSpaceOnUse" x1="27.06" y1="27.44" x2="15.55" y2="21.86">
     <stop offset="0" stop-opacity="1" stop-color="#F28F38"/>
     <stop offset="1" stop-opacity="1" stop-color="#F4A058"/>
    </linearGradient>
    <linearGradient id="id4" gradientUnits="userSpaceOnUse" x1="11.24" y1="57.28" x2="1.9" y2="55.38">
     <stop offset="0" stop-opacity="1" stop-color="#F28F38"/>
     <stop offset="1" stop-opacity="1" stop-color="#F4A058"/>
    </linearGradient>
 </defs>
 <g id="Default">
  <metadata id="CorelCorpID_0Corel-Layer"/>
  <g id="_2362230681104">
   <rect fill="none" width="55.19" height="55.19"/>
   <g>
    <g>
     <path fill="url(#id0)" d="M51.28 40.85c-2.93,1.74 -4.66,3.68 -9.31,5.86 -2.2,1.03 -4.44,1.83 -6.33,2.41 -0.13,0.04 -6.9,1.73 -6.96,1.71 -2.6,-0.64 -2.93,-2.97 -2.58,-4.11 0.04,-0.15 2.38,-3.18 3.41,-2.86 1.2,0.38 2.4,0.31 3.77,-0.17 2.21,-0.78 4.72,-1.79 7.26,-3.11 2.9,-1.52 3.53,-2.27 5.94,-4.42 1.05,-0.94 1.47,-1.95 2.11,-2.24 0.96,-0.43 2.17,-0.36 2.21,0.21 0.05,0.76 -1.15,0.58 -1.49,0.7 -0.3,0.11 -0.27,0.49 -0.08,0.63 0.82,0.57 5.1,-3.65 5.87,-2.38 0.74,1.23 -3.31,2.11 -3.09,3.06 0.1,0.42 0.69,0.27 0.96,0.85 0.15,0.33 -0.06,0.6 -0.1,0.94 -0.04,0.29 0.44,0.19 0.66,0.62 0.12,0.24 0.25,0.81 -2.25,2.3z"/>
     <path fill="#ED7003" d="M53.36 39.25c-0.2,0.27 -0.59,0.63 -1.3,1.11 -0.28,-0.01 -0.62,-0.15 -0.8,-0.38 -0.29,-0.39 -0.04,-0.81 0.1,-0.87 0.11,-0.04 0.25,0.09 0.2,0.18 -0.07,0.11 -0.21,0.28 -0.04,0.56 0.29,0.46 1.59,-0.33 1.84,-0.6z"/>
     <path fill="#ED7003" d="M52.99 37.48c-0.04,0.14 -0.1,0.28 -0.12,0.45 -0.02,0.17 0.15,0.22 0.31,0.29 -0.35,-0.13 -0.91,0.44 -1.17,0.56 -1.28,0.58 -2.05,-0.79 -1.25,-1.3 0.28,-0.18 0.47,0.02 0.23,0.17 -0.19,0.12 -0.41,0.67 0.03,0.86 0.8,0.34 1.51,-0.47 1.97,-1.03z"/>
    </g>
    <path fill="#ED7003" d="M51.28 40.85c-2.93,1.74 -4.66,3.68 -9.31,5.86 -2.2,1.03 -4.44,1.83 -6.33,2.41 -0.08,0.02 -2.92,0.73 -4.95,1.23 0.04,-0.41 0.06,-0.8 0.05,-0.95l0.09 -0.31c0.98,0.01 4.29,-0.73 7.77,-2.09 4.24,-1.67 8.73,-4.08 9.71,-4.74 0.72,-0.48 2.16,-1.28 3.56,-1.78 -0.18,0.12 -0.38,0.24 -0.59,0.37z"/>
   </g>
   <path fill="#F18E39" d="M21.61 44.16l-0.06 0 -0.05 0c-5.77,0 -6.06,-0.97 -6.82,-0.71 -5.36,1.77 -6.36,6.06 -6.45,11.74l26.65 0c-0.1,-5.68 -1.09,-9.97 -6.45,-11.74 -0.76,-0.26 -1.06,0.71 -6.82,0.71z"/>
   <path fill="#ED7003" d="M34.88 55.19c-0.07,-3.91 -0.56,-7.16 -2.61,-9.38 0.08,0.13 1.01,4.83 1.11,5.21 0.17,0.67 0.51,2.41 0.81,4.17l0.69 0z"/>
   <path fill="#F4A058" mask="url(#id1)" d="M21.61 44.16l-0.06 0 -0.05 0c-5.77,0 -6.06,-0.97 -6.82,-0.71 -1.03,0.34 -1.9,0.77 -2.64,1.29 -0.24,1.31 -0.37,2.69 -0.37,4.11 0,2.26 0.33,4.41 0.91,6.34l18.05 0c0.58,-1.93 0.9,-4.08 0.9,-6.34 0,-1.39 -0.12,-2.74 -0.35,-4.02 -0.76,-0.56 -1.66,-1.02 -2.75,-1.38 -0.76,-0.26 -1.06,0.71 -6.82,0.71z"/>
   <path fill="white" d="M27.94 31.12c1.03,1.77 -2.61,7.12 -6.39,7.12 -3.78,0 -7.41,-5.35 -6.38,-7.12 0.48,-0.85 2.67,0.43 6.38,0.43 3.71,0 5.9,-1.28 6.39,-0.43z"/>
   <path fill="#ED7003" d="M24.27 52.99l0.28 2.2 -4.19 0 0.28 -2.2c0.07,-0.56 0.38,-0.89 0.95,-0.89l0.86 0 0.87 0c0.57,0 0.88,0.33 0.95,0.89zm0.66 -6.77l-2.48 0 -2.47 0c-0.56,0.01 -0.85,0.57 -0.66,1.06 0.4,1.14 0.68,1.91 1.06,2.99 0.28,0.81 0.51,0.92 1.34,0.92l0.73 0 0.74 0c0.82,0 1.06,-0.11 1.34,-0.92 0.38,-1.08 0.66,-1.85 1.06,-2.99 0.19,-0.49 -0.11,-1.05 -0.66,-1.06z"/>
   <path fill="#1A4C6E" d="M23.42 52.06l0.4 3.13 -4.42 0 0.39 -3.13c0.07,-0.56 0.38,-0.89 0.95,-0.89l0.87 -0.01 0.86 0.01c0.57,0 0.88,0.33 0.95,0.89zm0.66 -6.77l-2.47 0 -2.48 0c-0.55,0.01 -0.84,0.56 -0.66,1.05 0.4,1.14 0.68,1.92 1.06,3 0.28,0.8 0.52,0.91 1.34,0.91l0.74 0 0.73 0c0.83,0 1.06,-0.11 1.34,-0.91 0.38,-1.08 0.66,-1.86 1.06,-3 0.19,-0.49 -0.1,-1.04 -0.66,-1.05z"/>
   <path fill="url(#id3)" d="M21.5 43c11.67,0 16.05,-8.46 15.77,-17.55 0.93,-0.29 1.76,-1.35 2.07,-2.8 0.43,-1.96 -0.27,-3.9 -1.55,-4.33 -0.53,-0.17 -1.08,-0.06 -1.57,0.27 -2.25,-8.13 -7.82,-15.16 -14.72,-15.16 -6.91,0 -12.48,7.03 -14.72,15.16 -0.49,-0.33 -1.04,-0.44 -1.57,-0.27 -1.29,0.43 -1.98,2.37 -1.56,4.33 0.32,1.45 1.15,2.51 2.08,2.8 -0.28,9.09 4.09,17.55 15.77,17.55z"/>
   <path fill="#ED7003" d="M27.58 30.17c3.06,-1.51 -0.91,10.34 -8.23,6.87 -0.79,-0.37 -1.8,-1.43 -2.04,-2.29 -0.69,-2.56 4.78,-2.41 6.19,-3.09 0.51,-0.25 1.5,-0.56 2.19,-0.85 0.45,-0.19 1.47,-0.44 1.89,-0.64z"/>
   <path fill="#ED7003" d="M35.73 17.66c-0.17,-0.54 -0.31,-1.07 -0.51,-1.6l-0.44 0c-0.95,-2.13 -3.08,-3.62 -5.57,-3.62 -2.48,0 -4.62,1.49 -5.56,3.62l-3.02 0c-0.95,-2.13 -3.08,-3.62 -5.56,-3.62 -2.49,0 -4.62,1.49 -5.57,3.62l-1.91 0c-0.19,0.51 -0.37,1.02 -0.53,1.54l0 0.06 1.98 0c-0.03,0.28 -0.06,0.57 -0.06,0.86 0,3.36 2.73,6.08 6.09,6.08 3.35,0 6.08,-2.72 6.08,-6.08 0,-0.29 -0.02,-0.58 -0.06,-0.86l2.1 0c-0.04,0.28 -0.06,0.57 -0.06,0.86 0,3.36 2.72,6.08 6.08,6.08 3.36,0 6.08,-2.72 6.08,-6.08 0,-0.29 -0.02,-0.58 -0.06,-0.86l0.5 0zm-20.66 -3.51c2.41,0 4.36,1.96 4.36,4.37 0,2.41 -1.95,4.37 -4.36,4.37 -2.42,0 -4.37,-1.96 -4.37,-4.37 0,-2.41 1.95,-4.37 4.37,-4.37zm14.14 0c-2.41,0 -4.37,1.96 -4.37,4.37 0,2.41 1.96,4.37 4.37,4.37 2.41,0 4.37,-1.96 4.37,-4.37 0,-2.41 -1.96,-4.37 -4.37,-4.37z"/>
   <path fill="#ED7003" d="M21.5 43c11.55,0 15.96,-8.28 15.78,-17.26 -0.77,-0.62 -1.49,0.51 -1.49,1.43 0,1.53 -0.23,6.78 -3.39,9.77 -5.02,4.75 -7.65,3.29 -10.9,6.06z"/>
   <path fill="#ED7003" d="M36.22 18.59c-1.45,-5.24 -4.28,-10.03 -7.96,-12.76 0.33,0.4 0.98,1.2 1.92,2.59 1.6,2.37 2.83,5.13 3.34,8.1 0.07,0.44 1.24,3.54 2.7,2.07z"/>
   <path fill="white" d="M27.89 30.21c1.02,1.67 -2.61,6.68 -6.39,6.68 -3.78,0 -7.41,-5.01 -6.39,-6.68 0.49,-0.79 2.68,0.41 6.39,0.41 3.71,0 5.9,-1.2 6.39,-0.41z"/>
   <g>
    <path fill="#FEFEFE" d="M14.43 13.27c-2.42,0 -4.37,1.96 -4.37,4.37 0,2.41 1.95,4.37 4.37,4.37 2.41,0 4.36,-1.96 4.36,-4.37 0,-2.41 -1.95,-4.37 -4.36,-4.37z"/>
    <path fill="#FEFEFE" d="M28.57 13.27c2.41,0 4.37,1.96 4.37,4.37 0,2.41 -1.96,4.37 -4.37,4.37 -2.41,0 -4.37,-1.96 -4.37,-4.37 0,-2.41 1.96,-4.37 4.37,-4.37z"/>
    <path fill="#1A4C6E" d="M34.14 15.18l2.11 0 0 1.6 -1.66 0c0.04,0.28 0.06,0.57 0.06,0.86 0,3.36 -2.72,6.08 -6.08,6.08 -3.36,0 -6.08,-2.72 -6.08,-6.08 0,-0.29 0.02,-0.58 0.06,-0.86l-2.1 0c0.04,0.28 0.06,0.57 0.06,0.86 0,3.36 -2.73,6.08 -6.08,6.08 -3.36,0 -6.09,-2.72 -6.09,-6.08 0,-0.29 0.02,-0.58 0.06,-0.86l-1.66 0 0 -1.6 2.12 0c0.95,-2.13 3.08,-3.62 5.57,-3.62 2.48,0 4.61,1.49 5.56,3.62l3.02 0c0.94,-2.13 3.08,-3.62 5.56,-3.62 2.49,0 4.62,1.49 5.57,3.62zm-19.71 -1.91c2.41,0 4.36,1.96 4.36,4.37 0,2.41 -1.95,4.37 -4.36,4.37 -2.42,0 -4.37,-1.96 -4.37,-4.37 0,-2.41 1.95,-4.37 4.37,-4.37zm14.14 0c-2.41,0 -4.37,1.96 -4.37,4.37 0,2.41 1.96,4.37 4.37,4.37 2.41,0 4.37,-1.96 4.37,-4.37 0,-2.41 -1.96,-4.37 -4.37,-4.37z"/>
   </g>
   <path fill="#1A4C6E" d="M28.57 15.04c1.44,0 2.6,1.16 2.6,2.6 0,1.44 -1.16,2.6 -2.6,2.6 -1.44,0 -2.6,-1.16 -2.6,-2.6 0,-1.44 1.16,-2.6 2.6,-2.6z"/>
   <path fill="white" d="M28.57 15.84c1,0 1.8,0.8 1.8,1.8 0,0.16 -0.13,0.29 -0.29,0.29 -0.16,0 -0.29,-0.13 -0.29,-0.29 0,-0.69 -0.53,-1.22 -1.22,-1.22 -0.16,0 -0.29,-0.13 -0.29,-0.29 0,-0.16 0.13,-0.29 0.29,-0.29l0 0z"/>
   <path fill="#1A4C6E" d="M14.43 15.04c1.43,0 2.6,1.16 2.6,2.6 0,1.44 -1.17,2.6 -2.6,2.6 -1.44,0 -2.61,-1.16 -2.61,-2.6 0,-1.44 1.17,-2.6 2.61,-2.6z"/>
   <path fill="white" d="M14.43 15.84c0.99,0 1.8,0.8 1.8,1.8 0,0.16 -0.13,0.29 -0.3,0.29 -0.16,0 -0.29,-0.13 -0.29,-0.29 0,-0.69 -0.53,-1.22 -1.21,-1.22 -0.17,0 -0.3,-0.13 -0.3,-0.29 0,-0.16 0.13,-0.29 0.3,-0.29l0 0z"/>
   <path fill="url(#id4)" d="M0 55.19c0.11,-0.31 0.27,-0.63 0.48,-0.96 1.87,-2.93 9.6,-8.87 12.83,-10.23 2.47,-1.05 1.79,2.04 2.1,3.19 0.04,0.15 0.13,0.98 -0.57,1.8 -1.66,1.93 -4.43,2.57 -8.02,6.2l-6.82 0z"/>
   <path fill="#ED7003" d="M8.81 53.39c-0.63,0.51 -1.3,1.1 -1.99,1.8l-1.18 0c0.83,-1.12 2.42,-2.26 3.3,-2.71 0.02,0.1 0.06,0.16 0,0.16 -0.11,0.01 -0.12,0.33 -0.13,0.75z"/>
   <path fill="#ED7003" d="M10.68 49.23c-1.27,1.81 -2.39,3.99 -2.42,4.92 -0.02,0.33 -0.02,0.69 -0.03,1.04l0.73 0c0.03,-0.18 0.06,-0.36 0.1,-0.56 0.31,-1.64 0.55,-3.08 1.62,-5.4z"/>
  </g>
 </g>
</svg>
