<?xml version="1.0" encoding="UTF-8"?>
<!DOCTYPE svg PUBLIC "-//W3C//DTD SVG 1.1//EN" "http://www.w3.org/Graphics/SVG/1.1/DTD/svg11.dtd">
<!-- Creator: CorelDRAW 2020 (64-Bit) -->
<svg xmlns="http://www.w3.org/2000/svg" xml:space="preserve" width="36px" height="36px" version="1.1" style="shape-rendering:geometricPrecision; text-rendering:geometricPrecision; image-rendering:optimizeQuality; fill-rule:evenodd; clip-rule:evenodd"
viewBox="0 0 360 360"
 xmlns:xlink="http://www.w3.org/1999/xlink"
 xmlns:xodm="http://www.corel.com/coreldraw/odm/2003">
 <defs>
  <style type="text/css">
   <![CDATA[
    .fil0 {fill:none}
    .fil1 {fill:#AB0534}
   ]]>
  </style>
 </defs>
 <g id="Default">
  <metadata id="CorelCorpID_0Corel-Layer"/>
  <g id="_1676681888304">
   <rect class="fil0" width="360" height="360"/>
   <path class="fil1" d="M190 306l42 0 0 -63 -42 0 0 63zm-63 -209l42 0 0 -42 -42 0 0 42zm63 0l42 0 0 -42 -42 0 0 42zm-63 63l42 0 0 -42 -42 0 0 42zm63 0l42 0 0 -42 -42 0 0 42zm-63 63l42 0 0 -42 -42 0 0 42zm63 0l42 0 0 -42 -42 0 0 42zm-63 63l42 0 0 -42 -42 0 0 42zm-9 42c41,0 83,0 124,0 6,0 10,-5 10,-10 0,-91 0,-181 0,-272 0,-6 -5,-10 -10,-10 -41,0 -83,0 -124,0 -7,0 -12,5 -12,12 0,89 0,179 0,268 0,7 5,12 12,12zm143 -218c0,-6 0,-12 0,-17 6,-6 12,-12 18,-18 22,22 45,45 67,67 8,8 2,21 -9,21 -1,0 -2,0 -4,0 0,41 0,81 0,122 -18,0 -37,0 -55,0 -6,0 -12,0 -18,0 0,-4 0,-8 0,-12 6,0 12,0 18,0 14,0 28,0 43,0 0,-41 0,-81 0,-122 5,0 11,0 16,0 -20,-19 -39,-39 -58,-58 -6,6 -12,12 -18,18zm-234 102c-1,0 -2,0 -4,0 -11,0 -16,-13 -9,-21 22,-22 45,-45 67,-67 5,5 11,11 16,16 0,1 0,1 0,2 0,5 0,10 0,15 -5,-5 -11,-11 -16,-16 -19,19 -39,39 -58,58 5,0 11,0 16,0 0,24 0,49 0,73 20,0 39,0 59,0 0,4 0,8 0,12 -24,0 -47,0 -71,0 0,-24 0,-49 0,-73zm246 -24l24 0 0 -24 -24 0 0 24zm-185 49l-24 0 0 -24 24 0 0 24zm185 0l24 0 0 -24 -24 0 0 24z"/>
  </g>
 </g>
</svg>
