<?xml version="1.0" encoding="UTF-8"?>
<!DOCTYPE svg PUBLIC "-//W3C//DTD SVG 1.1//EN" "http://www.w3.org/Graphics/SVG/1.1/DTD/svg11.dtd">
<!-- Creator: CorelDRAW 2020 (64-Bit) -->
<svg xmlns="http://www.w3.org/2000/svg" xml:space="preserve" width="36px" height="36px" version="1.1" style="shape-rendering:geometricPrecision; text-rendering:geometricPrecision; image-rendering:optimizeQuality; fill-rule:evenodd; clip-rule:evenodd"
viewBox="0 0 360 360"
 xmlns:xlink="http://www.w3.org/1999/xlink"
 xmlns:xodm="http://www.corel.com/coreldraw/odm/2003">
 <defs>
  <style type="text/css">
   <![CDATA[
    .fil0 {fill:none}
    .fil1 {fill:#268FA3}
   ]]>
  </style>
 </defs>
 <g id="Default">
  <metadata id="CorelCorpID_0Corel-Layer"/>
  <g id="_2850355249360">
   <rect class="fil0" width="360" height="360"/>
   <path class="fil1" d="M164 300c-39,0 -77,0 -116,0 -7,0 -12,-5 -12,-12 0,-36 0,-72 0,-108 0,-36 0,-72 0,-108 0,-7 5,-12 12,-12 39,0 77,0 116,0 7,0 12,5 12,12 0,72 0,144 0,216 0,7 -5,12 -12,12zm67 -227c0,0 1,0 1,-1 2,-1 4,0 6,2l22 38 10 -18c1,-2 4,-3 6,-2 0,0 1,0 1,1 2,1 3,4 2,6l-10 18 16 0c2,0 4,2 4,4 0,0 0,1 0,1 0,2 -2,4 -4,4l-16 0 8 14c1,2 0,4 -2,6 0,0 -1,0 -1,1 -2,1 -4,0 -6,-2l-8 -14 -11 19c-1,2 -4,3 -6,2 0,0 -1,0 -1,-1 -2,-1 -3,-4 -2,-6l11 -19 -31 0c-2,0 -4,-2 -4,-4 0,0 0,-1 0,-1 0,-2 2,-4 4,-4l31 0 -22 -38c-1,-2 0,-4 2,-6zm-118 100c8,0 16,0 24,0 3,0 6,3 6,6 0,1 0,1 0,2 0,3 -3,6 -6,6 -8,0 -16,0 -24,0 -13,0 -26,0 -39,0 -3,0 -6,-3 -6,-6 0,-1 0,-1 0,-2 0,-3 3,-6 6,-6 13,0 26,0 39,0zm172 14c-8,0 -16,0 -24,0 -13,0 -26,0 -39,0 -3,0 -6,-3 -6,-6 0,-1 0,-1 0,-2 0,-3 3,-6 6,-6 13,0 26,0 39,0 8,0 16,0 24,0 3,0 6,3 6,6 0,1 0,1 0,2 0,3 -3,6 -6,6zm14 -110l0 206 -92 32 0 -269 92 32zm-148 199l-92 0 0 -96 0 -96 92 0 0 192zm32 55c0,-101 0,-202 0,-302 0,-8 8,-14 16,-11 39,13 77,27 116,40 5,2 8,6 8,11 0,74 0,149 0,223 0,5 -3,10 -8,11 -39,13 -77,27 -116,40 -8,3 -16,-3 -16,-11z"/>
  </g>
 </g>
</svg>
