<?xml version="1.0" encoding="UTF-8"?>
<!DOCTYPE svg PUBLIC "-//W3C//DTD SVG 1.1//EN" "http://www.w3.org/Graphics/SVG/1.1/DTD/svg11.dtd">
<!-- Creator: CorelDRAW 2020 (64-Bit) -->
<svg xmlns="http://www.w3.org/2000/svg" xml:space="preserve" width="36px" height="36px" version="1.1" style="shape-rendering:geometricPrecision; text-rendering:geometricPrecision; image-rendering:optimizeQuality; fill-rule:evenodd; clip-rule:evenodd"
viewBox="0 0 360 360"
 xmlns:xlink="http://www.w3.org/1999/xlink"
 xmlns:xodm="http://www.corel.com/coreldraw/odm/2003">
 <defs>
  <style type="text/css">
   <![CDATA[
    .fil0 {fill:none}
    .fil1 {fill:#268FA3}
   ]]>
  </style>
 </defs>
 <g id="Default">
  <metadata id="CorelCorpID_0Corel-Layer"/>
  <g id="_2887801525872">
   <rect class="fil0" width="360" height="360"/>
   <path class="fil1" d="M122 309c39,0 77,0 116,0 6,0 12,-5 12,-12 0,-6 -5,-12 -12,-12 -39,0 -77,0 -116,0 -6,0 -12,5 -12,12 0,6 5,12 12,12zm168 -229c0,-3 3,-6 6,-6 4,0 6,3 6,6 0,4 -3,6 -6,6 -4,0 -6,-3 -6,-6zm-220 0c0,-3 -3,-6 -6,-6 -4,0 -6,3 -6,6 0,4 3,6 6,6 3,0 6,-3 6,-6zm-19 0c0,-3 -3,-6 -6,-6 -4,0 -6,3 -6,6 0,4 3,6 6,6 4,0 6,-3 6,-6zm0 17c0,-4 -3,-6 -6,-6 -4,0 -6,3 -6,6 0,3 3,6 6,6 4,0 6,-3 6,-6zm19 0c0,-4 -3,-6 -6,-6 -4,0 -6,3 -6,6 0,3 3,6 6,6 3,0 6,-3 6,-6zm0 17c0,-4 -3,-6 -6,-6 -4,0 -6,3 -6,6 0,3 3,6 6,6 3,0 6,-3 6,-6zm-19 0c0,-4 -3,-6 -6,-6 -4,0 -6,3 -6,6 0,3 3,6 6,6 4,0 6,-3 6,-6zm19 17c0,-4 -3,-6 -6,-6 -4,0 -6,3 -6,6 0,4 3,6 6,6 3,0 6,-3 6,-6zm-19 0c0,-4 -3,-6 -6,-6 -4,0 -6,3 -6,6 0,4 3,6 6,6 4,0 6,-3 6,-6zm19 17c0,-4 -3,-6 -6,-6 -4,0 -6,3 -6,6 0,4 3,6 6,6 3,0 6,-3 6,-6zm-19 0c0,-4 -3,-6 -6,-6 -4,0 -6,3 -6,6 0,4 3,6 6,6 4,0 6,-3 6,-6zm19 17c0,-4 -3,-6 -6,-6 -4,0 -6,3 -6,6 0,4 3,6 6,6 3,0 6,-3 6,-6zm-19 0c0,-4 -3,-6 -6,-6 -4,0 -6,3 -6,6 0,4 3,6 6,6 4,0 6,-3 6,-6zm19 17c0,-4 -3,-6 -6,-6 -4,0 -6,3 -6,6 0,4 3,6 6,6 3,0 6,-3 6,-6zm-19 0c0,-4 -3,-6 -6,-6 -4,0 -6,3 -6,6 0,4 3,6 6,6 4,0 6,-3 6,-6zm19 17c0,-4 -3,-6 -6,-6 -4,0 -6,3 -6,6 0,4 3,6 6,6 3,0 6,-3 6,-6zm-19 0c0,-4 -3,-6 -6,-6 -4,0 -6,3 -6,6 0,4 3,6 6,6 4,0 6,-3 6,-6zm19 17c0,-4 -3,-6 -6,-6 -4,0 -6,3 -6,6 0,4 3,6 6,6 3,0 6,-3 6,-6zm-19 0c0,-4 -3,-6 -6,-6 -4,0 -6,3 -6,6 0,4 3,6 6,6 4,0 6,-3 6,-6zm258 0c0,-4 3,-6 6,-6 4,0 6,3 6,6 0,4 -3,6 -6,6 -4,0 -6,-3 -6,-6zm-19 0c0,-4 3,-6 6,-6 4,0 6,3 6,6 0,4 -3,6 -6,6 -4,0 -6,-3 -6,-6zm19 -17c0,-4 3,-6 6,-6 4,0 6,3 6,6 0,4 -3,6 -6,6 -4,0 -6,-3 -6,-6zm-19 0c0,-4 3,-6 6,-6 4,0 6,3 6,6 0,4 -3,6 -6,6 -4,0 -6,-3 -6,-6zm19 -17c0,-4 3,-6 6,-6 4,0 6,3 6,6 0,4 -3,6 -6,6 -4,0 -6,-3 -6,-6zm-19 0c0,-4 3,-6 6,-6 4,0 6,3 6,6 0,4 -3,6 -6,6 -4,0 -6,-3 -6,-6zm19 -17c0,-4 3,-6 6,-6 4,0 6,3 6,6 0,4 -3,6 -6,6 -4,0 -6,-3 -6,-6zm-19 0c0,-4 3,-6 6,-6 4,0 6,3 6,6 0,4 -3,6 -6,6 -4,0 -6,-3 -6,-6zm19 -17c0,-4 3,-6 6,-6 4,0 6,3 6,6 0,4 -3,6 -6,6 -4,0 -6,-3 -6,-6zm-19 0c0,-4 3,-6 6,-6 4,0 6,3 6,6 0,4 -3,6 -6,6 -4,0 -6,-3 -6,-6zm19 -17c0,-4 3,-6 6,-6 4,0 6,3 6,6 0,4 -3,6 -6,6 -4,0 -6,-3 -6,-6zm-19 0c0,-4 3,-6 6,-6 4,0 6,3 6,6 0,4 -3,6 -6,6 -4,0 -6,-3 -6,-6zm19 -17c0,-4 3,-6 6,-6 4,0 6,3 6,6 0,3 -3,6 -6,6 -4,0 -6,-3 -6,-6zm-19 0c0,-4 3,-6 6,-6 4,0 6,3 6,6 0,3 -3,6 -6,6 -4,0 -6,-3 -6,-6zm0 -17c0,-4 3,-6 6,-6 4,0 6,3 6,6 0,3 -3,6 -6,6 -4,0 -6,-3 -6,-6zm19 0c0,-4 3,-6 6,-6 4,0 6,3 6,6 0,3 -3,6 -6,6 -4,0 -6,-3 -6,-6zm0 -17c0,-3 3,-6 6,-6 4,0 6,3 6,6 0,4 -3,6 -6,6 -4,0 -6,-3 -6,-6zm-232 143l207 0 0 -149 -207 0 0 149zm-47 12c0,-41 0,-81 0,-122 0,-13 0,-26 0,-39 0,-4 -1,-14 2,-18 2,-3 4,-4 6,-5 3,-1 5,-1 8,-1 16,0 33,0 49,0 41,0 81,0 122,0 30,0 59,0 89,0 5,0 10,0 16,0 1,0 1,0 2,0 1,0 2,1 3,1 4,2 7,6 7,10 0,41 0,81 0,122 0,17 1,34 0,51 0,3 -1,5 -2,7 -2,2 -3,3 -6,4 -2,1 -4,0 -6,0 -17,0 -33,0 -50,0 -41,0 -81,0 -122,0 -28,0 -55,0 -83,0 -7,0 -13,0 -20,0 -1,0 -1,0 -2,0 -1,0 -2,0 -3,-1 -4,-2 -7,-6 -7,-11zm139 43l23 0 0 -23 -23 0 0 23z"/>
  </g>
 </g>
</svg>
