<svg xmlns="http://www.w3.org/2000/svg" xml:space="preserve" width="36" height="36" fill-rule="evenodd" clip-rule="evenodd" image-rendering="optimizeQuality" shape-rendering="geometricPrecision" text-rendering="geometricPrecision" viewBox="0 0 36 36"><path fill="none" d="M0 0h36v36H0z"/><path d="M9 15.3c-.1.1-.1 0-.2.1.1.1.1.2.1.4-.2 0-.2-.1-.4 0 .1.2 0 .1.2.2-.1.1 0 .1-.2.1.1.4.1.1-.2.7.5.1 0-.1.4-.1.3 0-.4.9.1.7.2-.1.2-.2.4-.3 0 .5-.3.2 0 .7l-.3.5c.6.1.2 0 .4 0h.8c-.2.2-.6.6.2.6 0 .3-.1.2-.1.7-.5 0-.8.1-1 .4.4 0 .2 0 .2.1.1 0 .1 0 .1.1 0 .4-.5.4-.7.7.3.2.1.1.6.1.3 0 .4.2.6.2s.2-.1.4-.1c-.1.1-.1.2-.2.4-.5 0-.7-.2-1 .3-.2.2-.4.5-.7.5l.2.1c.1 0 .1.1.2.1.5-.8 1 .2 1.1-.6.5 0 .7.1 1-.1.5-.2 1.1.1 1.6-.1.2-.1.1-.1.4-.2v-.2c-.6 0-.4 0-.6-.1.6-.1.7-.4.7-.9-.4-.3-.4-.3-.7-.1l-.1.1c-.2 0-.1-.2-.1-.2 0-.1.3-.2-.2-.5 0-.4 0-.6-.3-.8-.3-.3-.4.1-.5-.6-.1-.4-.5-.7-.9-.6-.2 0-.2.1-.5-.1.4 0 .4 0 .7-.1-.1-.1 0-.1-.2-.1.1-.2.3-.2.4-.4s.1-.4.2-.6c-.4-.2-.8-.1-1.4-.1.1-.5.5-.4.7-.6.3-.4-.6-.1-.7-.1-.2 0-.2-.1-.4-.1 0 .2 0 .2.1.3zm21.2 14c.2.3.1.2.5.2v.1c-.2 0-.3.1-.6.1l.1.1c.1.1.1-.1 0 .1h-.1c-.3 0-.4 0-.6-.1-.2 0-.2 0-.4-.1-.1.1-.2.1-.4.1.1-.2.1-.1.3-.2s.1-.1.2-.3c.3 0 .4-.1.5 0 .2 0 .2.1.4 0v-.2c-.1 0-.2 0-.4-.1-.4-.2-.2-.6-.6-.7 0-.4.3 0 .3-.8.7 0 0-.8.7-1.1.1 0 .1 0 .2-.1 0 0 .1 0 .1-.1l.1-.1c0-.2-.1-.2-.1-.4.4-.2.4-.1.7-.5.1-.1.1-.2.3-.3.3-.1.3.1.5-.1.1 0 .2-.1 1 .1.4.1.8 1.1 1.3 1.2.3.1.8-1.1 1.1-1.1.5 0 .7.1.7.1V4.4s-1 .9-1.8 1.6c-.3.2-.9 1.6-1.4 1.4-.7-.3-.9-1.5-1.1-1.4-.4.1 2.2-1 1.8-1.1-.3-.1-.2-1-.4-1-.8-.2-1.5-.3-1.6-.3h-.8s-.5-.3-.6-.5c.7 0 1.2.1 1.2-.4-.2-.1-.5 0-.7-.1s-.3-.2-.6-.3c-.2.2-.2.3-.3.6-.6-.1.1-.4-.1-.7h-.3c-.3.2-.3.6-.7.7v-.6c-.5.4-.7.8-.9.9 0-.8.3-.5.4-.9-.7 0-.5.2-.9.4-.2.2-.2 0-.4.2-.1.1-.2.4-.2.5-.3-.1-.2-.2-.6-.2-.1.1-.1.3-.2.4-.1-.1-.2-.1-.3-.2l-.4.3c-.2.2 0 .3-.3.4l.1-.4c-.2 0-.2.1-.3.3s-.1.3-.2.4c-.2-.1-.5-.1-.8-.2-.1.4-.1.2-.4.4l-.2.2c-.1.1-.2.1-.3.2.1.1.1.1.1.2-.2.1-.1.1-.3.1l-.1.5c-.2-.1-.1-.1-.3-.2l-.2.2c0 .2 0 .1.1.2-.4.2-.1.1-.6.1 0 .1-.1.2-.2.2-.1.3.1-.1 0 .2-.4.2-.5 0-.4.4-.1 0-.3.1-.4.1 0 .3.1.2.2.4-.3 0-.3 0-.3.3-.3 0-.3 0-.4.3v.1c.1.2.1.1.1.4-.4 0-.3 0-.5.2l-.2.3c-.1.3-.2-.2-.8.4-.2.2-.1.2-.2.4-.1.1-.2.2-.3.4-.1 0-.2-.1-.4-.1-.1.2-.2.3-.2.5-.2 0-.5-.1-.7-.1-.3.1 0 .3.2.3-.2.2-.2.1-.6.1 0 .2 0 .1-.1.2-.2 0-.3 0-.4.1-.2.1-.2.1-.2.3.2 0 .1 0 .2.1-.2 0-.2.1-.4.1 0 .3-.1.5.2.6v.1c-.2.1-.2.1-.2.3.2.1.2 0 .4.1-.1.1-.2.1-.2.3h.4c0 .2 0 .2-.2.2l.3.2c-.3 0-.1.1-.4.1-.2 0-.1-.1-.3.2l.2.2c.2-.1.1 0 .2-.2.2.1.1 0 .2.2-.1.2 0 .1-.2.1.1.1 0 .1.2.1-.1.2-.2.1-.4 0v.4l.6.3.1.1h.1c.6.2.8-.1 1.3-.4l.4-.3c.2-.2.3 0 .5-.2.1-.2 0-.3.2-.4-.1.4 0 .1.1.4.2 0 .1 0 .2-.1 0 .3-.1.1 0 .4.1.2.1.1.1.4l.3.1c0 .4-.1.5.2.9s.5.5.5.8c-.5.2 0 .4.1.6 0 .2 0 .2-.1.3.2 0 .8.1.8-.1.1-.2-.1-.2.2-.5.1-.1.1 0 .1-.1.4 0 .5-.1.7.1.3-.6.3-.4.4-1 0-.1.1-.1.1-.2.1-.2 0-.2 0-.5h.2c0-.4-.2-.3-.2-.7.8 0 .5-.2.8-.4l.1.2c.1-.2 0-.1.2-.2v-.2c-.2 0-.4.1-.6.1-.2-.1-.1-.2-.5-.2v-.1c.5 0 .8.3 1.2.1.2-.1.1-.2.4-.2-.3-.5-.2-.2-.5-.6-.3-.3-.1-.1-.5-.3-.2-.1-.2-.7-.2-.9.3-.1.1-.6.1-.8.1 0 .1 0 .3.1 0-.2.1-.2.1-.4.5 0 .3 0 .5-.3.3-.2.2-.1.4-.4l.2.1c.1-.2.4-.3.6-.4.2-.2.2-.4.4-.6l-.3-.3.3-.3v-.3c.2-.1.3-.1.5-.3s.1-.2.3-.4c.1.1.2.2.4.2.1-.1.4-.1.6-.1.1.2.2.2.6.2.1.2 0 .1 0 .4l.1.4c-.4 0-.4 0-.9.5l-.7.8c-.4-.2 0-.2-.4.4-.2 0-.2 0-.3-.1-.2.3-.3.5-.4.7.2 0 .1 0 .2.1 0 .5-.2.3.1.7 0 .4-.2.7.1 1 .1.2.2.2.4.2.1.1 0 .1.3 0 0 .6.3.3.7.3.2 0 .3-.1.5-.2l.4-.1c.3 0 .5-.2.7-.1l.6-.1c.2-.1.4-.1.5-.2 0 .4.1.3.5.4.3 0 .4.1.5.4-.5 0-.4-.2-.8 0-.1.1 0 0-.2.1s0 .1-.4.1c.1.6-.5.4-.9.3-.5-.1-.9-.1-1.3.1-.2.1-.7.1-.7.4s.1.3.2.3c-.1.2-.1.1-.1.3l.2.1c.1-.1.1-.1.2-.1l-.1 1.1c-.2.2-.3.2-.6.2 0-.1-.1-.1-.1-.2-.1-.1 0-.1-.1-.2-.2-.3-.6-.3-.9-.1-.2.2-.2.2-.2.5-.2 0-.1 0-.2.1 0 .9.1.9.1 1.5-.5 0-.8-.2-.8.4-.2.1-.5.3-.7.2s-.2-.2-.3-.4c-1 0-1.4.7-2.4.7v.3c-.3-.1-.5-.1-.5-.4-.6 0-.3-.4-1.2 0-.2.1-.1.1-.3.1h-.4c.1-.2.1-.1.2-.3-.8 0-.5 0-.8-.4-.2-.3-.3-.2-.1-.6.2-.3.1-.1.2-.3.2-.2.1-.2.1-.3.1-.1.1 0 .3 0 0-.1.1-.2.1-.4h-.4c0-.5-.1-.4-.6-.4v.4c-.1 0-.1 0-.3-.1 0 .2 0 .1-.1.2-.2-.1-.1-.1-.3-.1 0 .3.1.3.1.4 0 .2-.1.2-.1.4.5-.1.2.4.4.7.1.1.1.2.2.3-.1 0-.1.1-.2.1v.1c.3 0 .1 0 .2.1l.1.2c-.3 0-.3 0-.4.2-.1.1 0 0-.1.2l-.2-.2-.5.1c-.1.3 0 0 .1.4-.2-.1-.3-.2-.6-.2-.2 0-.4.1-.6.2v.3c.2.1.1.1.2.2 0 .4-.2.3-.5.2 0-.3 0-.2.1-.3 0 0 .1-.1 0-.2s-.1 0-.2 0l-.2.2c-.1.3-.3.6-.6.8.3.4-.2.2-.5.3l-.8.3c0 .1 0 .3-.1.5-.1.5-.9.1-.8.7-.3.1-.5 0-.9 0-.1-.1 0-.1-.1-.2h-.4c0 .4.1.2.2.5.1.4-.1.3-.4.3-.5.1-.3-.2-.8-.2-.1.2-.2.1-.4.1s-.3 0-.3.2h.2c-.1.3.1 0 0 .2l-.2.1c.2.1.1.1.3.1.6.1.7.3 1 .3-.1.2-.1.2.1.3.4.2 0 0 .1.3.1.2.4.3.6.5 0 .2-.1.2-.1.4.2.1.2.1.2.3-.3-.2-.3.1-.2.4v.2l-.1.4c-.1.2-.1.3-.1.5-.2 0-.3 0-.5-.1-.6-.2-.1 0-1 0-.4 0-.7-.1-1.1-.2-.3-.1-.5.2-.9.1-.2-.1-.3-.1-.6-.1l-.1.2c-.4 0-.5 0-.6.4.3.1.4.2.3.5-.2.5 0 1.3-.2 1.8-.2.4-.2.3-.3.8.4 0 .1-.2.4-.1-.1.2 0 .1-.2.1v.1c.2 0 .1 0 .3-.1v.6c0 .3-.1.2-.1.5.3-.1.3-.1.6 0 .6.1.5-.6 1.2.5.3.4.4.1.7 0 1-.5.4-.1 1.7-.3.3 0 .2-.3.4-.4.1-.1.4-.1.5-.2 0-.4.3-.7.6-.8-.4-.5-.6-.5.3-1.4.1-.1.1 0 .1-.1.1-.2-.1.1 0-.1s.5-.2.8-.2c.1-.2 0-.2.3-.3.1 0 .2 0 .2-.1.3-.2.2-.3.1-.7-.1-.3.3-.7.6-.6.2 0 .1.1.3.1h.4c.4.1.2.6 1.1-.1.5-.4.6-.3.7-.4s.2-.2.4-.3c.9-.2 1 .6 1.3 1.1.1.2 1 1 1.3 1.1.3.2.6.1.7.5.2 0 .1 0 .2-.1.1.2.1 0 0 .2q.45-.15.3.3c.3.1 0 .1.5.1.1.3.3.6.3 1-.4 0-.1-.1-.2.2-.1.2-.1 0-.2.3.3.2.3 0 .3 0s.2-.2.2-.3c.2-.3-.1 0 .1-.3.1-.1.2-.1.4-.1-.1-.5 0-.3-.4-.6.1-.3.1-.5.5-.6.1.2.2.1.3.2.2.1 0 .1.3.3l.1-.2c-.4-.5-1.1-.7-1.6-1 .1-.2.3-.2.1-.3s-.4 0-.6 0c-.2-.1-.6-.5-.7-.6-.2-.4 0-.5-.5-.7-.4-.2-.4-.3-.6-.7l.2-.2c-.2-.1-.2-.1-.2-.4l.5-.1c.2-.1 0-.1.2-.1h.2c.1 0 .1 0 .1.1.1.2 0 .1-.1.1 0 .3.1.4.2.6l.2-.4c.4.2.3.3.6.8.1.1-.1.1 0 .2.1.2.3.3.4.5.3 0 .5 0 .7.2l.5.4c.7.4.6.5 1.1.8-.2.4-.1.2-.1.6l-.1.5c.1 0 .2.1.3.2.2.2 0 .1.2.3.1.3.4.2.6.4-.1.2 0 .1-.2.1.1.1.1.2.2.4.3 0 .4-.1.7-.1s.3.1.6.2v.1c-.4.1-.5-.3-.9-.1-.2.1-.1 0-.2.2.4.7.1.4.2.6.2.3.1-.3.4.3.1-.1.2-.1.4-.1 0-.3-.2-.4-.2-.7.2.1.2.2.4.1v-.1c-.3 0-.1.1-.2-.2.1 0 .1 0 .3-.1l.3.3v-.3c-.1-.2-.6-.4-.8-.5 0 0 0-.1 0 0l.1-.4c.1.1.1.1.2.1 0-.3-.9-.7-.2-1.1 0 .3.1.2.2.3v.2h.2l-.2-.2.3-.1c.1-.1-.1 0 .1-.1-.1-.2-.1-.1-.2-.3.4 0 .2-.1.5-.1.2 0-.1.1.2 0 .5-.1.1 0 .4 0l.5.1c.1 0 .2 0 .2.1l-.2.2c-.2.2 0 .1 0 .2s-.1.1-.1.4c.3 0 .2-.1.6-.1l-.2.2.3.3c-.2 0-.1 0-.2.1.1.2.2.2 0 .2s-.1-.2-.3.2c.3 0 .2.1.5.1v.4c.1.1.1.1.2.1-.1.2 0 .1-.1.1 0 .1 0 0-.1.1h.4l-.1.2c.2-.1.1-.1.3-.1.3.2.1.1.3.1 0 0 .1-.1.2.3h.7c0-.2.1-.2.1-.4.1 0 1.4.5 2 .6 1.4.3 2.7-.4 2.9-.3v-3.7c-.8-.1-1.1.4-1.8.4-.4 0-1-.4-1.4-.4-1.1.1-1.5.1-1.5.1l-1.1.1zm-23.6-11 .4.1c-.1.3-.2.1-.2.4-.4 0-.6-.1-.9-.1-.1.1-.1.2-.1.3h.3c-.1.2 0 .2-.2.3v.2c.6 0 .6 0 .7.2-.3.1-.4 0-.4.4l.2.1c-.3.1-.3.1-.4.3l-.1.1c-.2.3-.2.3.2.2v.3c.8 0 1.2-.4 1.3-.5.2-.1.5-.1.7-.2.3-.1.1 0 .2-.2.4-.7.1-.6-.1-1.3.2 0 .3-.1.4-.2 0-.5-.1-.5-.2-.9h-.7c-.5.1-.5-.3-.8.1-.1.2 0 .2-.3.2zm13.3 13.4c0 .2.2.2.7.4 1 .5.7.4 1.1.2-.3-.6 0-.5.1-.9-1.5.4-.9-.1-1.4 0-.1 0-.4.1-.4.2zm-2.5-1.2v.2l.2.1c0-.2 0-.1.1-.2h.4c0-.1.1-1 .1-1.1-.2-.5-.4-.2-.6-.1-.2 0-.4 0-.3.2 0 .1.1.1.2.4v.5zm.1-2.2c0 .3 0 .4.1.5 0 0-.1.1.3.2.1-.5.1-.6.1-1.2-.2.1-.1.1-.3.2-.1.1-.3.1-.3.2zm.6-12.2c-.3 0-.7 0-.7.3 0 .2 0 0 .1.2.2-.1.3-.1.3-.4 1.4 0 .8-.1 1.1-.6-.1 0-.4.1-.4.1l-.2.3zm1.6 1.4c-.2-.1-.2 0-.2-.2-.1.1-.2.2-.3.2 0 .1 0 .1.1.3.3.1.3 0 .5.2l.2-.2c-.2-.3 0 0 0-.7h-.2c0 .1-.1.2-.1.4m7.9 16.2h.3c.1-.1.4-.1.6-.1 0-.3 0-.2-.1-.1h-.2l-.1-.1c-.5-.2-.4 0-.7-.1-.3 0-.5-.4-.6.1.2.1.6.1.7.1v.1zm-19-16h.1v-.2h-.1zM27 30c0 .1.1.1.1 0s.2 0 0 0c-.1 0-.1-.1-.1 0m.2-.1h.1s.1.1 0 0c0 0-.1-.1-.1 0M5.1 6.7c.1 0 .1.2 0 .3s-.8 0-.3.3c.4.3.6-.1.5.3s.7.3.9.3c.2-.8.5 0 .8-.4.3-.3.2.2.6-.2s-.3-.1-.2-.7c0-.1.2-.2.2-.3.1-.2-.5-.3-.5-.1 0 .4-.1.4-.5.2-.1 0 .1-.4-.3-.4-.2 0-.4.5-.3-.2 0-.3-.6 0-.4-.3.1-.2-.8-.4-.5.1.2.3-.3.2-.3.2-.1.2.3.4.2.6-.1.1 0 .2 0 .2zm23.8 22.2c-.2-.1-.1 0-.2-.1.2 0 .1 0 .2.1"/></svg>