<svg xmlns="http://www.w3.org/2000/svg" xml:space="preserve" width="36" height="36" fill-rule="evenodd" clip-rule="evenodd" image-rendering="optimizeQuality" shape-rendering="geometricPrecision" text-rendering="geometricPrecision" viewBox="0 0 36 36"><path fill="none" d="M0 0h36v36H0z"/><path d="M18.6 13.5c0-.1 0-.1.1-.1.3-.8.1-.3.1-.7 0-.2.1-.3.2-.4.3-.2.1-.3.4-.4 0 .4-.4.3-.3.7.4.2.3.1.3.5V13s0-.1-.1-.1l-.1.3-.1.2c-.1.1-.3.1-.5.1l.1-.1zm6.8-3.5c-.2.1-.4.1-.6.2s-.1.1-.2.2c-.2.2-.1 0-.3.1 0 .2.1.2.2.3l-.4-.2-.1.1v.1c-.1-.1 0-.1-.1-.2-.3.2-.2-.2-.5-.1-.1 0-.1.2-.2.2-.2.2-.2.2-.5.2-.2 0-.1-.1-.3 0 .1.2.1 0 .2.2-1 0-.5 0-1.1.3l-.1-.2h-.2l-.1.2c0 .1 0 .1-.2.2-.1-.2.1-.2-.4-.4-.1 0-.2-.1-.3-.1-.2-.1-.2-.1-.3-.2-.3-.3-.6-.1-.9.1-.6.3-.7.8-.9.9H18c-.2.1-.5.5-.4.7.1.4-.1.4.3.5h.1c-.3.2-.1.1-.1.4-.4.1-.4.2-.7.5-.2.2-.3.2-.6.3-.2.1-.1 0-.2.2h.2l.3.4-.1.2c-.2 0-.1-.1-.3 0h-.4c0 .2 0 .3-.1.5v.4c.4 0 .8.2 1-.3 0-.2 0-.1.1-.2l.1-.2.1-.1c.2 0 .1.1.3 0 .2 0 0 0 .2-.1-.1.2-.1.1-.1.3s0 .2.1.4c.2-.1.2-.1.1-.2 0-.1 0-.3-.1-.3.2.3.5.3.6.5-.1.1-.1 0-.2.1l.2.2c.1-.1.1-.2.3-.3l-.1-.2c.2.1.3-.2.4.5l.2.1.1.1c.3.1.1 0 .2 0-.1-.1 0-.1-.2-.1.1-.2 0-.1 0-.3v-.2c0-.1 0-.1.1-.1.1.1 0 .2.1.4l.1.1c.1.1.2.1.3.1.3 0 0 0 .3-.1.1.1 0 .2.1.2.2-.1 0-.1.2-.2.1.2 0 .5-.1.6-.2 0-.6-.1-.8-.1-.4-.1-.5-.1-.6.2-.2 0-.4-.2-.6-.3-.1 0-.1 0-.1-.1-.2-.1-.1-.3-.1-.5-.3 0-.5.1-.9.1-.3 0-.2 0-.5.1s-.2 0-.4 0c-.1.2-.1.1-.2.2-.3.2-.1.5-.5.9-.3.3-.1.2-.3.6-.1.3-.1.5-.1.8v.4c0 .2.1.1.2.3s.1.4.4.5c.2.1.3.3.6.2h.4c.2 0 .1-.2.3-.2.2.1 0 0 .1.1l.2.1c.4.1.1 0 .5 0v.4c0 .2-.1.3 0 .5 0 .1 0 0 .1.1.2.3.1.5.2.8s.1.2 0 .5c-.2.8 0 .5.2 1 .1.3.1.3.1.6l.4 1c.2 0 .9-.3 1-.4s.1-.1.1-.2c.2-.4.2 0 .4-.7.4-.2.2 0 .3-.5.1-.3.2-.3.4-.5.3-.3 0-1.2.1-1.4.3-.8.3-.4.7-1 .2-.3.6-.7.4-1.1-.2-.1-.3.1-.8.1-.1-.1-.1-.3-.2-.4s-.1-.1-.2-.1c-.1-.1 0-.1-.1-.2s-.1-.1-.1-.2c-.1-.1 0-.1-.1-.2 0-.1-.1-.1-.2-.2v-.3c.1.2.2.4.4.7.3.3.2.5.4.7.2 0 .2-.1.3-.1.4-.2.5-.3.7-.4s.4-.3.5-.6l-.3-.4c-.2 0-.2 0-.3.1-.1-.1-.1-.2-.2-.3l-.2-.2c0-.1 0 0-.1-.1.3-.2.3.1.4.3.2.3.2 0 .5.4.5-.2.6-.1 1 .1 0 .1-.2.2.2.2.1.6.4.8.5 1.1.1.1 0 .2.1.3q.15.15.3 0c.1-.2.1-.5.1-.7l.5-.5c.2-.2.3-.3.6-.4l.1.1c.1.1 0 .1.2.2-.1.4-.1.3.4.3 0 .6.1.2.2.5s-.3.5.6 1.1l.1.1c0-.7-.7-.7-.5-1.3.2.1.1.2.3.3h.1l.1.2c.4-.3.4-.3.4-1-.2-.1-.3-.2-.3-.4l.3.1.2-.1c.4-.1.3 0 .6-.5 0-.1.1-.1.1-.1.5-.8-.1-1-.1-1.2.1-.2.1-.2.2-.3 0-.1-.1-.1 0-.2.4.2.2.7.5.6s-.1-.7.2-1c.1-.2.2 0 .5-.5.1-.1.1-.1.1-.2.2-.4-.1-.9.1-1l.1.5c0 .2 0 .4.2.5.1-.2 0 0 0-.2.1-.2 0 0 .1-.1l-.3-.4c-.1-.2 0-.3-.2-.5-.2.1 0 .1-.1.1h-.2c-.1 0-.1.1-.2.1h-.1l-.1-.1c.1-.2.2-.2.2-.4.1-.3.5-.2.8-.2h.1c.3.1.2 0 .6 0 0-.2-.1-.4.2-.4.1 0 .1-.1.3-.1v.2c-.5.8-.3.6 0 1.4.3-.1.3-.5.4-.8 0-.1 0 0 .1-.1-.1-.1-.3-.2-.1-.4.1-.1.4-.1.6-.1.1-.3.2-.3.5-.4h.1l-.2-.3.2-.2c.3.1.2 0 .3.2h.2c-.1-.3.1-.2 0-.4l-.1-.1c-.1-.1-.2-.1-.2 0 0-.3 0-.2-.2-.3-.3-.2-.1-.1-.5-.1-.3 0-.4-.3-1-.2v.2l-.2-.2c-1.1.2-.6-.3-1-.2-.3 0 0 0-.2.1-.3-.2-.3-.1-.6-.2l-.2-.1c-.1-.1 0-.1-.2-.1h-.4v.1h-1c-.2 0-.1 0-.3-.1s-.1 0-.3 0c-.3 0-.4-.2-.9-.2.1-.4.1-.3-.1-.6-.1 0-.3.1-.5 0-.3-.1 0-.2-.4-.2-.1.2-.2.4-.4.4s0 0-.2-.1zM8.4 9.8c-.2 0-.4.2-.6.2-.1-.2 0-.2-.1-.3-.1 0-.2 0-.2.1s.1.2.1.1h-.3c-.5-.1-.2-.1-.4.1l-.1.1.1.1c-.3.1-.2-.1-.4-.1h-.3c-.2 0-.2 0-.3.2-.1.3-.4.1-.1.6.2 0 .3-.1.4-.2.1.2-.1.2.3.2-.1.1-.1 0-.2.1.2.2.1 0 .2.1.2.1.1-.1.1.2.2-.1.4 0 .6-.1-.1.2 0 .2-.1.3-.1 0-.2-.2-1.1-.3-.3 0-.1-.1-.3-.2-.1 0-.1.1-.2.2l-.1-.2c-.2 0-.2.1-.4.2h-.5c-.3 0-.5-.1-.8-.1h-.5c-.2-.1-.1-.1-.4-.1-.2.1-.8.1-.9.2.1.3.3.2.4.3l-.2.1c-.2-.1-.2-.1-.4 0s-.3.1-.5.2l.2.1c.2.1.1.1.2.3h.6c-.2.2-.4.2-.7.2-.3.1-.4.2-.4.5.2.3.1-.1.1.4.2 0 .1-.1.2.1l.1.2c.1 0 .1-.1.2-.1.1-.1.2 0 .2.1-.2.2-.3.4-.5.5s-.5.2-.6.5h.4l.5-.2.2-.2c.1-.2.6-.5.8-.6l-.2.4c.4 0 .5-.2.8-.2 0-.2 0-.3-.1-.5.2 0 .3-.1.5 0 .1.1.1.2.3.2.2.1.2.1.3.2l.2.4c.1 0 .1-.1.1-.2 0 .4.1.7.1 1.1v.2c-.1.5-.1.7 0 1.2 0 .2.1.2.2.4.1.1.1.2.2.3 0 .1.1.1.1.3.1.2 0 .2.1.3.2.2.1.4.5.4 0-.1-.1-.3-.1-.5 0 0 .3.4.4.4.1.1.1.1.1.3.1.8 1 .7 1.2.7.2.1 0 .2.3.3.2.1.2 0 .4.2l.1.1.2.2c.1.1.2.1.3.2.1-.1 0-.1.2-.2 0 .1.1.3.1.4 0 .4-.3.5-.2.9v.3c.1.1.2.1.3.2-.1 0-.1.1-.2.1 0 .3.1.5.4.5 0 .2-.1 0 0 .2 0 0 .1.1.1.2l.3.3c.1.1.2.2.2.4.1.3 0 .2 0 .4v.4c0 .1.1.3 0 .5-.1.4-.2.5-.2.9h.2c0 .4 0 .2-.2.4v.1c.1.2 0 .7.1 1.2.1.4.5.9 1 .6l-.1-.1-.1-.1c-.4-.4.1-.6.1-.8 0-.3 0-.1-.1-.2v-.2l.1-.4-.2-.2c.3 0 .3 0 .3-.3.2 0 .3-.1.5-.2 0-.2 0-.2-.1-.4.3 0 .3 0 .5-.2l.1-.1.2-.3c.1-.2 0-.3.2-.5.1-.2.3-.1.5-.2.1-.1.2-.5.2-.6 0-.2-.1-.1 0-.3.1-.3.3-.4.4-.7s.1-.4 0-.6c-.2-.1 0 .1-.3-.1-.2-.1-.1-.1-.4-.1-.2 0-.6-.2-.8-.3 0-.6-.1-.7-.6-.6-.1-.1-.1-.1-.1-.2-.2-.2-.2-.3-.5-.4-.3-.2-.2 0-.4-.1l-.3-.3c-.2.1 0 .1-.2.1-.1-.1 0-.1-.2-.1-.2.1-.5.3-.5.5-.2-.3 0-.3-.5-.1-.1-.3 0-.3 0-.7-.3-.2-.1-.1-.5-.1.1-.2.2-.3.1-.6h-.3c-.2 0-.2.2-.2.3-.5 0-.4-.4-.3-.7v-.3c.4-.3.5-.2.9-.1v-.1c.1-.1.4 0 .5 0 0 .1 0 .2.1.3l.1.1c.1 0 0 0 .1.1.1-.3-.1-.5-.1-.7s.2-.4.4-.4c.2-.1.2-.1.2-.3l.2-.1c0-.2 0-.1.1-.3s.2-.3.5-.3c0-.2 0-.1-.1-.2.2-.2.3-.2.6-.3.1.2-.1 0 0 .2.1-.1.3-.2.4-.3-.2-.1-.2 0-.3-.2 0-.2.1-.2.2-.2v-.2c.4 0 .3-.1.6-.2-.1.3-.3.4-.4.6l.3-.1c.1.2 0 .2.4.2 0-.2 0-.3-.2-.5V14c-.2-.2-.1.1-.4-.3-.1-.2.1-.4-.3-.7l-.1.2h-.3v-.4h-.1c-.1 0-.1-.1-.3-.1-.2-.1-.1-.1-.4 0v.5c-.1.3 0 .2 0 .4-.1 0-.1-.1-.2 0 .1.2 0 .1.2.1-.2.2-.2.1-.2.5-.1-.1-.1.1-.2-.2s0-.3-.3-.3h-.1c-.2-.1-.2-.2-.5-.2l-.1-.4c.1-.1.4-.4.4-.5.3-.4.4-.1.3-.4l.6-.2c0-.1.1-.4.1-.5-.1-.1-.2-.1-.2-.1h.3c.2.1.5 0 .6.4-.1.3-.3.2-.5.4s.2.2.3.2c.3.1.5.4.8.5v-.2l.1-.2c0-.2-.1-.2-.1-.4l.3.2.2-.3c-.1-.2-.2-.3-.5-.3 0-.2.1-.1 0-.3 0-.1-.1-.2-.2-.2h-.3c-.2-.1-.1-.3-.6-.2l-.1-.2c-.2 0-.2-.1-.3.1v-.1c-.2-.3.1.2 0-.1 0-.1 0-.1-.1-.1-.2 0-.3.1-.4.3s-.1.3 0 .5l.3.1c-.1.1-.1.1-.1.2-.1.1 0 .1-.1.1 0-.1.1 0 .1-.3-.3-.2-.4-.5-.7-.5-.1.4 0 .1 0 .4 0 .1 0 .2-.1.3l-.1-.2c-.5.2-.2.3-.8 0 .1-.1.2 0 .3 0 .3 0 0-.1.1-.2l.5-.3c0-.1-.1-.3-.1-.4h-.6l-.4.2c-.1-.3-.2 0-.3-.2l.5-.1c.3-.1.4-.2.5-.1h.1c.3.1.3-.2.2-.4zM13.2 8.8c-.2 0-.8-.1-1 0-.1 0-.1 0-.2.1l-.6.3c.1.2.1-.1.1.2h-.2l-.2.1c-.2.1-.2 0-.4.1 0 .1-.1.1.1.1.1.1 0 0 .2 0h.4c-.2.1-.4 0-.6.1.1.1.2.2.4.2.4-.1-.1 0 .7.1 0 .4.1.3.1.4s-.1.2-.1.3c.4 0 0-.1.3-.1 0 .2 0 .1-.1.1-.1.1 0 0-.1 0h-.1c.2.2.2.1.3.3 0 0-.4.2-.3.4s.2.1.2.5c0 .3 0 .3.1.5.6 0 .3.1.5.2l.3-.7c.1-.3.1-.3.4-.3s.6-.3.9-.4c.2-.1.2-.1.3-.3h-.1l-.2-.1h-.1c.2-.2.3 0 .5.1.3.1.1-.2 0-.2.1 0 .1.1.2.1 0-.2 0-.1-.1-.3.4 0 .2-.4.2-.7h.2c.1 0 0 0 .1-.1-.1-.1-.2-.2-.3-.2.3-.3.2 0 .2-.4.2-.1 0-.1.2-.1s.2 0 .3-.1c0-.2 0-.1-.1-.2l-.2-.1h-.5c.3-.2.3 0 .4-.3-.2-.2-.6-.2-1-.2h-1.1c-.4 0-.4.1-.3.4zM29.6 24.6c.1-.1.3-.1.5-.1.3 0 .1.2.5.4.1.1 0 .1.2 0v.3s.1.1.2.1c.2.1.1 0 .3 0 .3 0 .5.1.9-.5l.1-.2c.4-.5.1-1 .1-1.3h-.2c0-.2 0-.5-.1-.6l-.2-.3c-.3-.5-.1-.3-.2-.5-.4-.1-.1.3-.2.5s-.1.1-.1.2l-.4-.3c.1-.3.1 0 .2-.3-.1 0-.7-.1-.8-.1-.2.4 0 .2-.4.3-.3.1-.1.4-.3.4-.3 0-.4-.1-.4.3l-.2-.1c-.3.8-.4.3-.5.6-.1.1.1.9.1 1 0 .2-.1.4.1.4.2.1.2-.1.4-.1h.3c.2 0 .1 0 .2-.1z"/><path d="M9.3 8.8c0 .3.1.2.2.4-.2 0-.1 0-.2-.1l-.2-.2c-.1.1-.1 0-.2.1-.2.2 0 .3 0 .3v.3l.2.1c0-.1 0-.1.1-.1v-.1c.1-.2.2-.1.3-.2 0 .2.1 0-.3.3.1.1.1 0 .1.2-.1 0-.1-.1-.2 0s-.1.1-.1.2c.1.1.2 0 .3 0s.2.1.3.1c-.2.1-.5-.1-.8 0 .1.3.8.3 1 .3.2-.3 0-.1.3-.2l-.1-.1c.5 0 .4-.3.6-.5l.7-.3v-.2c.3 0 .5 0 .5-.2-.1-.1-.1-.1-.3-.1H9.9c-.2 0-.5 0-.7.1zM32 21.5c.2.1.1.2.4.2-.1-.5-.3-.5-.4-.5-.2-.2 0-.1-.2-.2-.1-.1-.1 0-.2-.1-.4-.4-.6-.1-.8-.1h-.2c-.2 0-.2.1-.2.2.1-.2.6.2.8.3v.3c.5-.1.2 0 .5.1.3-.2.1-.2.3-.2M29.2 19.9c0-.1-.2-.1-.4-.1-.2.3.1.1-.6.5-.1.1-.2.2-.1.4q.15.3.3.3c.2.1.4.2.5.1s0 0 0-.1c0-.2.1-.2.1-.6 0-.2 0-.1.1-.2 0-.1.1 0 0-.2zM18 9.4c0 .1-.1.2 0 .3.2-.1.1-.1.4-.1-.1.2-.3.3-.2.4s.1 0 .2.1 0 .1.3.1l.1-.5c.2.1 0 .3.5.2 0-.4-.4-.5-.8-.6.1-.2.1-.2-.2-.2l-.1.2c0-.2-.1-.2-.3-.2 0 .1-.3.3.1.4zM21.8 23.7c.3-.8.2-.7.4-1.4-.2-.3-.1-.1-.1-.3-.2.1-.1.1-.2.3-.1.3-.4.1-.4.5 0 .2.1 0 0 .3 0 .1-.1.1-.1.2 0 .2 0 .4.1.5h.4zM16.6 12.9l-.1.5.1.1c.1.1.2 0 0 .2-.1.1-.3.2-.1.4-.1 0-.1 0-.1.1-.1.1-.1 0-.1.1 0 0 .7 0 .7-.1v-.1c0-.3 0-.1.1-.3-.2-.2-.1 0-.2-.3l-.2-.5c-.1-.1 0 0 0-.2l-.3.1zM30.1 16.5c.1.1 0 0 .2.1h-.2c0 .1.1.2.2.2.1-.2-.1-.1.2-.2.2-.1.1 0 .3-.1s.4-.2.5-.3l-.1-.7c-.1-.2 0-.1-.1-.2-.1 0-.1-.1-.1.4 0 .1.1 0 0 .2s0 .1-.1.1c-.2.1-.1.1-.3.2 0 0-.1 0-.2.1-.2.1-.1 0-.2.2zM18.5 13.5c.2 0 .4.1.5-.1l.1-.2.1-.3c.2 0 .1.1.1.1v.1c0-.4.1-.4-.3-.5 0-.5.3-.3.3-.7-.3.1-.1.2-.4.4-.1.1-.2.2-.2.4 0 .4.2-.1-.1.7 0 .1 0 .1-.1.1l-.1.1zM21.6 10.9c.3.3.4.3.6.1-.1-.2-.2-.2-.2-.5.1-.1.1-.1.3-.1.2-.1.1-.1.2-.2.3-.2.4.1.6-.3-.2-.1-.2 0-.5.1-.5.1-.6.1-.8.5-.1.2-.2.3-.2.4M27.1 19.9h-.2c.3.7.4.3.5.7s-.1.1.2.4c.2.2.1.2.3.1 0-.1 0-.3-.1-.4 0 0-.1-.1-.1-.2-.1-.1-.2-.1-.6-.6M14.8 11.8h.2c-.1.1-.1.1-.1.2l.2.2c.3-.1.3.1.5-.1.3-.2.1-.2 0-.5h-.4c-.2 0-.1 0-.3-.1l-.2.2zM33.2 26.4c.4-.1.3.1.5-.1.1-.1 0-.1.1-.2l.2-.1c.3-.3.2-.1.3-.3 0-.2-.1-.3-.2-.3l-.4.5c-.1.1 0 0-.2.1-.1.1-.2.3-.3.4M34.4 25.6c.2-.1.2-.2.4-.5.2-.2.1.1.1-.2-.2-.1 0 0-.3 0-.1-.2 0-.2-.2-.2v.4l-.2.2h.1c.1 0 .1 0 .1.1v.2M29.7 20.6h.1c-.1-.2-.2-.2-.4-.2-.1.1-.1.3-.2.5l.2.3.1-.2c.1.1.1.2.2.2 0-.2-.1-.3-.2-.4h.1zM29.9 19.1c-.1 0-.1 0-.2.1h.2c0 .2-.1.1 0 .2l.5-.2-.2-.2c-.1-.1 0-.2-.2-.2v.3z"/><path d="M16 13.6v.3c.5.1.4-.2.4-.2v-.2c-.3 0-.1 0-.4.1M29.6 18.7c.1-.1.1-.1.2-.3 0-.2-.1-.2-.2-.2-.3.1-.1.4.1.5z"/></svg>