<svg xmlns="http://www.w3.org/2000/svg" xml:space="preserve" fill-rule="evenodd" viewBox="0 0 36 36"><path fill="none" d="M0 0h36v36H0z"/><path d="M7.93 10.35c.1.1.1 0 .2.1.1 0 0 0 0 .1l.2.1c0 .2-.2.1-.4.2-.1 0-.3.2-.6.3h-.3c-.1 0-.1.1-.2.1s-.1 0-.1.2c-.2.1-.2 0-.4 0h-.2c-.1 0-.1-.1-.2 0-.2.1-.2.1-.3.1s0 0 0 .1l-.1.2-.1.1c-.2 0-.2-.1-.2-.2-.1.1 0 .1-.2.2v.1c-.1 0-.2-.1-.3.1-.1.1-.1.3-.2.3h-.3c-.1.1-.1.1-.1.2s-.1.1-.2.1-.2-.2-.5-.1c-.1 0-.1.1-.1.2-.2 0 0-.1-.3-.1-.5.1-.3.1-.5.3l-.2.2c0 .1 0 .1-.1.2v.2c-.2 0-.11.2-.11.3-.19 0-.1-.1-.19-.2 0-.1-.11 0-.11-.1s.11-.1 0-.1c-.1-.1-.1 0-.1 0v-.2c0-.1-.09-.1-.2-.1-.19 0 0 .1 0 .2s0 0-.09.1c0 .2.09 0 .2.3.19.3 0 .1 0 .4 0 .1.09.1.19.2v.2c0 .1.2.1.2.1.1 0 0 0 .1.1l.11.1.09.1c.11 0 .11-.1.21 0v.1c0 .1 0 .1.1.1s.1 0 .1.1v.2c-.1.1 0 .1 0 .2-.1.2-.1-.1-.1.3-.1 0-.2.1-.2.2s0 0 .1.1l.1.1c.1.1.1.1.2.1v.3h.1v.4c.1.2.2 0 .2.2 0 .1 0 .1-.1.1 0 .1.1.2.1.2.1.1.3 0 .3.4.1 0 .1 0 .1.1h.3v-.1c.2 0 .4.2.4.3v.1l.1.1.1.1c.1.1.1.1.1.2s.1.1.1.2c.1.1 0 .1.1.2h.3c.2.3.3.3.3.4 0 .2 0 .1.1.3.1.1.1.1.2.1v-.1h.2s0 .1.1.1l.1.1c0 .1 0 .2.1.2.1.1.2 0 .2.1v.1c.1.1.1 0 .1.1v.2c0 .1.1.1.1.1.1 0 .1.1.2.2s.2.1.3.1l.1.2c-.1 0-.1 0-.1.1s0 0 .1.1c0 0 0 .1.1.1h.6c.1 0 .1 0 .2.1h.1l.1.1v-.1h.1c.2-.2.1 0 .2-.3.2 0 .3.2.3.2.1 0 .1-.1.2-.1v.1l.1.1.1.1c.1 0 .1 0 .1-.1v-.5h.2l.1-.3h.2c.1 0 .1.1.3.1v-.2c0-.1.1-.1.1-.2v-.1c0-.1.1-.1.1-.1v-.5s0-.1.1-.1c.2 0 .2.1.3.1s.1-.1.2 0v.3h.4v-.2c.1-.1 0 0 .1 0h.1c.1 0 .1.1.2.1.1.1.1 0 .2 0 .1.1 0 .1.1.2.1 0 .4.1.4.2.1 0 .2.1.3.1s.1-.1.1-.1h.2c.1.1 0 .1.2.1 0 .2 0-.1.1.1.1.1 0 .1.1.2h.1c.1.1.2.1.3.1h.9c.1 0 0 0 .1.1.3-.5.1-.3.4-.3 0 0 0-.1.2 0 .1 0 .1 0 .2.1.1 0-.1 0 0 .1.3 0 .3.1.4.1l.03-.01c-.07.11.07.14.07.31 0 .1-.2.1-.1.2-.1 0-.1.1-.2.1s-.1.1-.1.2v.3c0 .1 0 .2.1.2.1.1.1.1.1.2s.1.1.1.1l.1.5c.1 0 .1 0 .1.1v.1h.2c.2.2 0 .2 0 .3v.3h.1s0 .1.1.1h.2c.1 0 .1.1.1.1h.2c.1 0 .1.1.1.1.1.1.2 0 .2.2 0 .1.1.2.2.2.2.1.1.1.2.3h.1c.1 0 .1.2.4.3.1.1.1.1.3.1h.4c.2-.1.1 0 .3 0h.4c.1 0 .3.1.5.1s.2 0 .4-.1h.4c.1 0 .1-.1.2-.1h.3c.3 0 .2-.3.5-.3.1 0 .2.1.2 0s-.1-.1-.1-.2h-.1l-.1-.1c-.1-.1 0-.2 0-.4v-.1c0-.1.1 0 .2-.1 0 0 0-.1.1-.2 0-.2.1-.1.2-.1.2-.1.2 0 .3 0h.4c.1 0 .1-.1.1-.1.1 0 .1.1.2.1h.2c.1-.1.1-.1.3-.1h.4c.1-.1 0-.1.1-.2.1-.2.1 0 0-.2v-.1c0-.1.1 0 .2-.1.1 0 .2-.1.3-.1s.1 0 .1.1h.3c.1.1-.1.2.1.2.1 0 .2-.1.3 0 .1.2.1.1.2 0 .1-.2.2 0 .3-.1s.2-.1.2-.1v-.2h.1c.1 0 .1-.1.2-.1l.1.1c.1.1.2 0 .3-.1 0 0 0-.1.1-.1.1-.2 0-.2.1-.3s0-.1.1-.2c0-.2.3-.3.3-.6s.1-.2.2-.2h.1c.1 0 .1 0 .2-.1s.3-.1.4-.1.2-.1.3 0v.1c.2 0 .2 0 .2.1s.3 0 .4 0c.2 0 .3.2.3.2.1 0 0-.1.1-.1h.2c.1 0 .1-.1.1 0l.1.1c.1 0 0-.1 0-.2h.2c.2 0 .1-.1.3-.1 0 0 0 .1.1.1h.1c.1 0 .1.1.1.2.1 0 .2 0 .2.1.1.1 0 .2 0 .2s0 .1.1.1c0 0 0 .1.1.1.3.4.2.2.3.3 0 0 0 .1.1.1h.2v-.1h.2l.1-.1c.1-.1.1 0 .2 0h.4c.1 0 .2-.2.2-.3v-.2c0-.1.1-.1.1-.2 0-.2-.1-.3 0-.4.2-.2.2-.3.3-.4s.2-.2.2-.3v-.2c0-.1.1-.1.1-.1v-.2c0-.1.1-.2.2-.3v-.2c0-.1.1 0 .1-.1 0-.2 0-.2.2-.2.1 0 .1 0 .1-.1.1-.2 0-.1 0-.3v-.1c-.2-.1-.1 0-.3 0l-.2.2c-.1 0-.1 0-.3-.1-.3-.3-.1 0-.4-.1-.1 0 0 0-.1-.1v-.1c-.1 0-.1.1-.2 0s-.1 0-.2-.1c-.1 0-.1-.1-.2-.1v-.3c0-.1-.1 0-.1-.2 0-.1 0-.1-.1-.2-.2 0-.2-.2-.4-.2-.1 0-.1 0-.1.1 0-.1-.1 0-.2-.2 0 0 0-.1-.1-.1s-.1 0-.2-.1c-.1-.2-.2 0-.2 0-.1 0-.1-.1-.2.1h-.1s0 .1-.2 0c0 0-.1 0-.1-.1-.1 0-.2 0-.2-.1h-.1c-.2-.2-.2.1-.4.2-.1 0-.1-.1-.2-.1h-.1c-.2 0-.1.1 0 .2v.1c-.2 0-.2 0-.3.1 0 .1-.1.2-.2.2-.2 0-.1 0-.2-.1s-.1 0-.2 0c0 0 0-.1-.1-.1s-.1 0-.1-.1-.1-.2-.2-.2-.1.1-.2.1h-.1c-.1 0-.1.1-.2.1 0 0-.1-.1-.2-.1h-.1v.1h-.1v-.1c-.2 0-.1-.1-.2.2 0 .1 0 .1-.1.1h-.3c-.1 0-.1.1-.1.2-.2-.1-.1 0-.2.2-.2.3-.1.5-.2.5s-.2-.1-.2-.1c-.2-.3-.3-.1-.4 0-.2.1-.2 0-.4 0-.1-.2 0-.1.1-.2.1-.2.1-.1 0-.3.1-.2 0-.1 0-.2 0 0 .1-.3-.1-.3-.1 0-.1.2-.3 0h-.1v-.1c0-.2 0-.1-.2-.2-.1 0-.1-.1-.1-.2-.1-.1-.1-.2-.1-.4 0-.1 0-.1-.1-.1-.2-.1-.1-.1-.2-.2v.1l-.1.1v.1c0 .1 0 .1-.1.1-.2 0-.1-.1-.3.1-.1.1-.1.2-.1.3-.1.1-.1.1-.1.2h-.1c-.1 0-.2-.1-.3-.1s-.1.2-.3.1v-.4c0-.07-.09-.09-.2-.1v-.1c0-.1-.1-.2-.1-.2v-.1l-.1-.1c-.2 0-.1.1-.2 0s-.1 0-.2-.1c0 0 0-.2-.1-.3 0-.1-.1-.1-.1-.2s.1-.1.1-.2c0 0 0-.1-.1-.1v-.2c-.1 0-.1 0-.1.1-.4-.1 0-.1-.6-.1-.1 0-.1 0-.1.1-.2 0-.1-.1-.2-.2h-.1c-.1 0 0 0-.1-.1-.4 0-.2 0-.3-.2-.1-.1-.1-.1-.2 0l.1.1c0 .1-.1.1-.2.1-.2.1-.2.2-.4 0-.1-.1-.1 0-.2-.1s0-.1-.1-.2 0-.1 0-.2h-.2l-.2-.2c0-.2.1-.1.3-.1 0 0 .3-.1.2-.2v-.1l-.1-.1c0-.1.2-.3-.1-.3-.1.2 0 .3-.3.3-.5-.1-.3 0-.5.1 0-.3-.2-.1-.2-.1 0-.1-.1-.2-.1-.3-.2 0-.2 0-.3-.1s0-.1-.1-.2c-.1 0 0 .1-.2 0-.1 0-.1-.1-.2-.1h-.1c-.1 0-.1-.1-.1-.1h-.1c-.1-.1-.1-.1-.2 0v.2c.1.1 0 0 .1.2l.1.2c0 .1.2.1.2.2v.3c0 .1 0 0-.1 0s0-.1-.2-.1c0 .1 0 .1-.1.1s-.1.1-.1.1c-.3-.1-.2.1-.3.2 0 .1-.1.1-.1.1 0 .1-.1.1-.1.1-.1 0-.2-.1-.3-.2s-.1-.2-.1-.4c-.2-.1-.2-.1-.3-.3s-.2-.2-.3-.2c0-.2 0-.2-.1-.2-.2 0-.2.2-.2-.2h-.1v-.2c.1 0 .1.1.1-.1h.1c0-.1.1-.1.2-.1v-.1h.2l.1-.1.1-.1c0-.1.1-.1.1-.2h.1c0-.2-.1-.1-.2-.2 0-.1 0-.1-.1-.1-.1-.1-.1 0-.2 0h-.2c0 .1 0 .1-.1.2-.1 0-.4-.3-.4.1h-.2c0-.2.1 0 0-.3s-.2 0-.4 0c-.1 0 0-.1-.1-.1 0 0-.1 0-.1-.1 0 0 0-.1-.1-.1s-.1.1-.2.1 0 0-.1-.1h-.1c-.1 0-.1-.1-.2-.1-.2 0-.3-.2-.5-.2 0 .1 0 .1-.1.2 0-.2 0-.3-.1-.3-.1-.1-.2-.2-.2-.4 0-.1.1 0 0-.1 0-.1 0-.1-.1-.1v-.1h-.2v-.2c-.1 0-.1 0-.1.1-.1 0-.1-.1-.1-.1h-.1l-.1-.1c0 .1 0 .1-.1.1v.1h.1v.4c0 .3 0 .2-.2.1h-.2c-.1 0-.1.1-.1.2-.1 0-.3.1-.3-.1h-.3v-.2s.1-.1 0-.1-.2.1-.2-.1c0-.1 0-.1.1-.2l-.4-.3c-.1.1-.2.1-.2 0-.4 0-.3 0-.3.1s0 0-.1.1z"/></svg>