<svg xmlns="http://www.w3.org/2000/svg" xml:space="preserve" fill-rule="evenodd" viewBox="0 0 36 36"><path fill="none" d="M0 0h36v36H0z"/><path d="M33.3 14.2c-.2-.1-.2.1-.4-.1-.5-.5-.2 0-.8-.2-.1 0-.1 0-.2-.1 0-.1.1-.2 0-.2s-.1.2-.4 0c-.2-.1-.2-.1-.4-.1-.1 0-.3-.1-.3-.2v-.4c-.1-.1-.2-.1-.2-.3s0-.2-.2-.3c-.3-.1-.4-.3-.7-.3-.2 0-.2 0-.2.2-.1-.3-.2 0-.3-.3 0-.1 0-.1-.1-.1-.2 0-.2.1-.3-.1-.2-.3-.3 0-.4 0-.2 0-.2-.1-.3.1H28c-.1 0-.1.2-.3.1-.1 0-.1-.1-.2-.1s-.3.1-.3-.1H27c-.3-.4-.4.2-.6.3-.2-.1-.1-.2-.3-.2-.1 0-.1.1-.2.1-.3.1-.2.1-.1.3.1.1.1.1.1.2-.3 0-.3 0-.4.2-.1.1-.2.3-.3.3-.3 0-.2-.1-.4-.2-.1-.1-.2 0-.4 0-.1 0 0-.1-.1-.2s-.1 0-.2-.1-.1-.4-.3-.4-.2.1-.3.1h-.2c-.2 0-.1.2-.3.2-.1 0-.2-.1-.3-.1s-.1 0-.2-.1c-.1 0 0 0-.1-.1h-.1c0 .1 0 .1-.1.2H22v-.1c-.3.1-.2-.2-.3.3 0 .2 0 .2-.2.2h-.1c-.1.1-.1 0-.3 0-.1 0-.1.2-.2.3-.3-.2-.1 0-.3.3-.3.5-.1.8-.3.8-.1 0-.3-.2-.3-.2-.3-.4-.5-.1-.6 0-.3.2-.3.1-.6.1-.2-.3 0-.2.1-.4.2-.3.2-.2 0-.4.1-.3 0-.1 0-.3 0-.1.1-.6-.1-.6s-.1.3-.5.1c-.1-.1-.1 0-.2 0v-.1c0-.4-.1-.2-.3-.3-.1-.1-.1-.2-.1-.3-.1-.2-.1-.4-.1-.6 0-.1-.1-.1-.1-.2-.3-.1-.1-.2-.4-.3 0 .1 0 .1-.1.1h-.1c-.1.1 0 0 0 .1s-.1.1-.1.1c-.1 0 0 .1-.1.1 0 .1 0 .2-.2.2-.3 0-.3-.2-.6.1-.1.1-.1.3-.1.5-.2.1-.2.1-.2.4h-.2c-.2 0-.4-.1-.4-.1-.2 0-.2.3-.5.1v-.8c0-.2-.3-.1-.7-.2-.5-.1-.5.3-.6.3s-.1-.1-.2-.1h-.1c-.1 0 0-.1-.1-.1s-.1.1-.2.1-.2-.1-.4 0c-.1.1 0 .2-.1.3-.2.2-.5.4-.7.7-.1.2-.2.4-.4.5s-.4.1-.7.2-.6.8-.6 1.2v.5c0 .2-.2.2-.3.3v.1l-.1.1c-.2.1-.6-.2-.8.3-.1.2-.1.3-.1.6-.2-.1-.5 0-.6.1s-.1.3-.3.4-.9.3-1 .3c-.3 0-.2-.3-.4-.3s-.2.3-.4.2c-.1 0-.1-.1-.2-.1-.4-.2-.7-.3-1.1-.1-.1 0-.1.1-.1.1-.1 0-.1.1-.1.1 0 .4-.1.1-.3.4-.3.3-.3 1-.6 1.2-.3.3 0 .4 0 .7 0 .1-.3.1-.2.3-.2 0-.1.1-.3.2-.1.1-.2.1-.2.3 0 .3.1.2 0 .5-.1.2 0 .3.1.3.2.1.1.1.2.4 0 .2.2.3.2.2l.1.9c.1 0 .2 0 .2.2 0 0 0 .1.1.1.1.1 0 0 .1 0s0 0 .1.1c.3.3.1.4.1.4 0 .1.1.1 0 .1 0 .2.1 0 .1.3h.2c.1 0 .1.1.2.2h.4c.2 0 .2.1.2.2.1 0 .2 0 .3.1l.2.2c.1.2.3 0 .4.4.1.2.1.3.3.4.4.2.2.2.3.4h.2c.1 0 .1.4.6.5.2.1.2.2.5.2.2 0 .5 0 .7-.1.4-.1.2-.1.5 0h.7c.2.1.6.2.9.2s.4-.1.6-.1h.3c.1 0 .2.1.3.1s.2-.1.3-.1h.4c.5 0 .4-.5.8-.5.1 0 .4.1.4 0s-.1-.1-.1-.3h-.1c-.1-.1 0-.1-.1-.2-.2-.1-.1-.4-.1-.6v-.2c0-.1.2-.1.3-.1.1-.1.1-.2.1-.3.1-.3.2-.2.4-.2.3-.1.4 0 .5 0s0 0 .1-.1h.2s0-.1.1-.1.2.1.2.1c.1 0 .2-.1.2-.1.2 0 .3.1.4.1h.4c.2-.2.1-.2.5-.2h.7c.1-.2.1-.2.1-.4.1-.3.1 0 .1-.3 0-.1 0 0 .1 0v-.2c0-.1.1-.1.3-.1.1 0 .3-.1.4-.1s.2 0 .2.2c.1 0 .4-.1.5 0s-.1.4.1.4.3-.2.5 0c.2.3.2.3.4-.1.2-.3.4 0 .6-.2.1-.1.4-.1.4-.2 0-.2-.1-.2 0-.3h.2c.2 0 .1-.1.3-.2l.1.1c.1.2.3 0 .4-.1l.1-.1c.2-.3.1-.3.2-.5.1-.1.1-.2.1-.4 0-.4.5-.5.5-1 0-.4.1-.3.3-.3h.2c.1 0 .2-.1.3-.1.2-.1.5-.1.7-.1s.3-.2.4 0l.1.1c.3 0 .3-.1.4.2.1.2.4.1.6.1.4 0 .4.3.6.3.1 0 .1-.1.2-.2s.2 0 .3-.1c.1 0 .1-.1.2 0 0 0 .1.1.2.1.1-.1 0-.2.1-.3s.1-.1.3-.1c.3 0 .3-.2.5-.2.1 0 .1.1.1.1.1 0 .1 0 .2.1s.1.2.2.3.3 0 .4.1 0 .3 0 .4.1.1.1.2.1.1.1.2c.4.7.3.4.5.5.1 0 .1.1.2.1h.3c0-.1 0-.1.1-.2h.3c.1 0 .1-.1.1-.1.1-.1.2 0 .4 0 .1 0 .2-.1.3-.1h.3c.1 0 .3-.3.3-.4V20c0-.2.1-.2.1-.3 0-.3-.2-.5.1-.7.4-.3.3-.5.6-.6.2-.1.3-.3.3-.5v-.4c0-.1.1-.1.1-.2 0-.2-.1-.3-.1-.4 0-.2.2-.3.3-.4s0-.1.1-.3c0-.1.1 0 .1-.2.1-.3-.1-.3.3-.4.1 0 .1 0 .2-.1.1-.4 0-.2 0-.4v-.2c-.4-.1-.2 0-.4 0 0-.1 0 0-.1-.1z"/></svg>