<svg xmlns="http://www.w3.org/2000/svg" xml:space="preserve" width="36" height="36" fill-rule="evenodd" clip-rule="evenodd" image-rendering="optimizeQuality" shape-rendering="geometricPrecision" text-rendering="geometricPrecision" viewBox="0 0 36 36"><path fill="none" d="M0 0h36v36H0z"/><path d="M3.3 14.77c-.58 0-1.05-.47-1.05-1.05V3.27c0-.59.47-1.06 1.05-1.06h29.4c.58 0 1.05.47 1.05 1.06v10.45c0 .58-.47 1.05-1.05 1.05h-4.58c-.85-1.95-2.8-3.2-4.93-3.16a5.25 5.25 0 0 0-6.74-3.96c-2.98.94-4.49 4.26-3.24 7.12zm26.31-2.11h2.04V4.32h-2.04zM10.73 4.32H4.35v8.34h6.38zm12.52 22.1h5.25L18 22.21 7.5 26.42h5.25l-10.5 7.37h31.5zm-1.11-14.68c-.77-3.44-5.19-4.46-7.39-1.71-2.21 2.76-.24 6.84 3.29 6.84 0-2.46 1.7-4.59 4.1-5.13m1.16.92a4.21 4.21 0 1 0 0 8.42 4.21 4.21 0 0 0 0-8.42"/></svg>