<svg xmlns="http://www.w3.org/2000/svg" xml:space="preserve" width="36" height="36" fill-rule="evenodd" clip-rule="evenodd" image-rendering="optimizeQuality" shape-rendering="geometricPrecision" text-rendering="geometricPrecision" viewBox="0 0 36 36"><path fill="none" d="M0 0h36v36H0z"/><path d="M14.81 22.21h6.38l2.11 3.16h10.45L18 33.79 2.25 25.37H12.7zm14.8-9.55h2.04V4.32h-2.04zM10.73 4.32H4.35v8.34h6.38zM3.3 14.77c-.58 0-1.05-.47-1.05-1.05V3.26c0-.58.47-1.05 1.05-1.05h29.4c.58 0 1.05.47 1.05 1.05v10.46c0 .58-.47 1.05-1.05 1.05h-4.58c-.85-1.96-2.8-3.2-4.93-3.16a5.25 5.25 0 0 0-6.74-3.96c-2.98.94-4.49 4.26-3.24 7.12zm18.84-3.03c-.77-3.45-5.19-4.46-7.39-1.71-2.21 2.76-.24 6.84 3.29 6.84 0-2.46 1.7-4.59 4.1-5.13m1.16.92a4.21 4.21 0 1 0 4.21 4.21c0-2.32-1.89-4.21-4.21-4.21"/></svg>