<svg xmlns="http://www.w3.org/2000/svg" xml:space="preserve" fill-rule="evenodd" viewBox="0 0 36 36"><path fill="none" d="M0 0h36v36H0z"/><path d="M12.22 20.45c-1.39.8-1.86 2.57-1.06 3.96.8 1.38 2.57 1.86 3.95 1.06a2.91 2.91 0 0 0 1.07-3.96 2.906 2.906 0 0 0-3.96-1.06M29.3 8.02l-.77-2.88a.55.55 0 0 1 .38-.66c.29-.08.59.09.66.38l1.53 5.68a.62.62 0 0 1-.02.43c-.05.09-.12.17-.22.23l-.06.03c-.14.06-.31.06-.46-.02l-5.1-2.61a.547.547 0 0 1-.24-.73c.14-.26.47-.37.73-.23l3.23 1.65A13.98 13.98 0 0 0 18 4c-5.02 0-9.62 2.67-12.12 7a.541.541 0 1 1-.94-.54C7.64 5.8 12.6 2.92 18 2.92c4.38 0 8.48 1.9 11.3 5.1M6.7 27.98l.77 2.88c.07.29-.1.58-.38.66a.53.53 0 0 1-.66-.38L4.9 25.46a.62.62 0 0 1 .02-.43c.05-.09.12-.17.22-.23l.06-.03c.14-.06.31-.06.46.02l5.1 2.61c.27.14.37.46.24.73-.14.26-.47.37-.73.23l-3.23-1.65C9.67 30.02 13.68 32 18 32c5.02 0 9.62-2.67 12.12-7a.541.541 0 1 1 .94.54c-2.7 4.66-7.66 7.54-13.06 7.54-4.38 0-8.48-1.9-11.3-5.1m3.18-17.96 4.96 1.33c-.05.73.11 1.47.5 2.15a3.804 3.804 0 0 0 5.19 1.39c.67-.39 1.18-.96 1.5-1.61l6.96 1.86c.47.13.76.63.63 1.11l-2.44 9.12c-.13.47-.63.76-1.1.63l-8.68-2.32c.16-.87.03-1.8-.45-2.62a3.784 3.784 0 0 0-5.18-1.39c-.83.47-1.4 1.21-1.69 2.04l-3.11-.83a.9.9 0 0 1-.64-1.1l2.45-9.12c.12-.48.62-.76 1.1-.64m14.09 4.71-2.44 9.12 4.78 1.28 2.44-9.12zm-6.79-5.64c-1.39.8-1.86 2.57-1.06 3.96.8 1.38 2.57 1.86 3.96 1.06 1.38-.8 1.85-2.58 1.06-3.96a2.906 2.906 0 0 0-3.96-1.06m6.37 17.17c-.27.89-.87 1.69-1.74 2.2a3.796 3.796 0 0 1-5.19-1.39c-.23-.4-.38-.82-.46-1.25.42-.36.74-.8.96-1.29z"/></svg>