<svg xmlns="http://www.w3.org/2000/svg" xml:space="preserve" fill-rule="evenodd" viewBox="0 0 36 36"><path fill="none" d="M0 0h36v36H0z"/><path d="M12.19 30.93H23.8c.64 0 1.16-.52 1.16-1.17 0-.64-.52-1.16-1.16-1.16H12.19c-.64 0-1.16.52-1.16 1.16 0 .65.52 1.17 1.16 1.17M28.97 8.04a.636.636 0 0 1 1.27 0 .636.636 0 0 1-1.27 0m-21.96 0c0-.35-.28-.63-.63-.63s-.63.28-.63.63.28.63.63.63.63-.28.63-.63m-1.9 0c0-.35-.28-.63-.63-.63s-.63.28-.63.63.28.63.63.63.63-.28.63-.63m0 1.74c0-.35-.28-.63-.63-.63s-.63.28-.63.63.28.63.63.63.63-.28.63-.63m1.9 0c0-.35-.28-.63-.63-.63s-.63.28-.63.63.28.63.63.63.63-.28.63-.63m0 1.74c0-.35-.28-.63-.63-.63s-.63.28-.63.63.28.64.63.64.63-.29.63-.64m-1.9 0c0-.35-.28-.63-.63-.63s-.63.28-.63.63.28.64.63.64.63-.29.63-.64m1.9 1.75c0-.35-.28-.64-.63-.64a.636.636 0 0 0 0 1.27c.35 0 .63-.28.63-.63m-1.9 0c0-.35-.28-.64-.63-.64a.636.636 0 0 0 0 1.27c.35 0 .63-.28.63-.63m1.9 1.74c0-.35-.28-.64-.63-.64a.636.636 0 0 0 0 1.27c.35 0 .63-.28.63-.63m-1.9 0c0-.35-.28-.64-.63-.64a.636.636 0 0 0 0 1.27c.35 0 .63-.28.63-.63m1.9 1.74c0-.35-.28-.63-.63-.63s-.63.28-.63.63.28.63.63.63.63-.28.63-.63m-1.9 0c0-.35-.28-.63-.63-.63s-.63.28-.63.63.28.63.63.63.63-.28.63-.63m1.9 1.74c0-.35-.28-.63-.63-.63s-.63.28-.63.63.28.64.63.64.63-.29.63-.64m-1.9 0c0-.35-.28-.63-.63-.63s-.63.28-.63.63.28.64.63.64.63-.29.63-.64m1.9 1.74c0-.35-.28-.63-.63-.63s-.63.28-.63.63.28.64.63.64.63-.29.63-.64m-1.9 0c0-.35-.28-.63-.63-.63s-.63.28-.63.63.28.64.63.64.63-.29.63-.64m1.9 1.75c0-.35-.28-.64-.63-.64a.636.636 0 0 0 0 1.27c.35 0 .63-.28.63-.63m-1.9 0c0-.35-.28-.64-.63-.64a.636.636 0 0 0 0 1.27c.35 0 .63-.28.63-.63m25.76 0c0-.35.29-.64.64-.64a.636.636 0 0 1 0 1.27c-.35 0-.64-.28-.64-.63m-1.9 0c0-.35.29-.64.64-.64a.636.636 0 0 1 0 1.27c-.35 0-.64-.28-.64-.63m1.9-1.75a.636.636 0 0 1 1.27 0c0 .35-.28.64-.63.64s-.64-.29-.64-.64m-1.9 0a.636.636 0 0 1 1.27 0c0 .35-.28.64-.63.64s-.64-.29-.64-.64m1.9-1.74a.636.636 0 0 1 1.27 0c0 .35-.28.64-.63.64s-.64-.29-.64-.64m-1.9 0a.636.636 0 0 1 1.27 0c0 .35-.28.64-.63.64s-.64-.29-.64-.64m1.9-1.74a.636.636 0 0 1 1.27 0 .636.636 0 0 1-1.27 0m-1.9 0a.636.636 0 0 1 1.27 0 .636.636 0 0 1-1.27 0m1.9-1.74c0-.35.29-.64.64-.64a.636.636 0 0 1 0 1.27c-.35 0-.64-.28-.64-.63m-1.9 0c0-.35.29-.64.64-.64a.636.636 0 0 1 0 1.27c-.35 0-.64-.28-.64-.63m1.9-1.74c0-.35.29-.64.64-.64a.636.636 0 0 1 0 1.27c-.35 0-.64-.28-.64-.63m-1.9 0c0-.35.29-.64.64-.64a.636.636 0 0 1 0 1.27c-.35 0-.64-.28-.64-.63m1.9-1.75a.636.636 0 0 1 1.27 0c0 .35-.28.64-.63.64s-.64-.29-.64-.64m-1.9 0a.636.636 0 0 1 1.27 0c0 .35-.28.64-.63.64s-.64-.29-.64-.64m0-1.74a.636.636 0 0 1 1.27 0 .636.636 0 0 1-1.27 0m1.9 0a.636.636 0 0 1 1.27 0 .636.636 0 0 1-1.27 0m0-1.74a.636.636 0 0 1 1.27 0 .636.636 0 0 1-1.27 0M7.65 22.33h20.69V7.41H7.65zm-4.76 1.16V7.42c0-.43-.09-1.36.18-1.79.17-.26.36-.41.65-.5.26-.07.51-.05.77-.05H30.4c.53 0 1.05-.02 1.58 0 .05.01.1.01.15.02.1.02.2.05.3.1.41.19.66.6.66 1.04v12.21c0 1.69.07 3.39 0 5.09-.01.25-.08.46-.24.66-.16.21-.35.34-.6.41-.21.06-.41.04-.61.04H4.1c-.07 0-.13 0-.19-.01-.11-.01-.22-.04-.32-.08-.42-.19-.7-.6-.7-1.07m13.94 4.3h2.33v-2.32h-2.33z"/></svg>