<svg width="26" height="26" viewBox="0 0 26 26" fill="none" xmlns="http://www.w3.org/2000/svg">
<g clip-path="url(#clip0_353_2969)">
<path fill-rule="evenodd" clip-rule="evenodd" d="M0 0H26V26H0V0Z" fill="#009584"/>
<path fill-rule="evenodd" clip-rule="evenodd" d="M6.9 9.69999L9.9 11.7C10.2 11.9 10.3 12.3 10.1 12.6C9.9 12.9 9.5 13 9.2 12.8L6.2 10.8C5.9 10.6 5.8 10.2 6 9.89999C6.2 9.59999 6.6 9.49999 6.9 9.69999ZM6.3 18.7C5.2 18.7 4.3 19.6 4.3 20.7C4.3 21.8 5.2 22.7 6.3 22.7C7.4 22.7 8.3 21.8 8.3 20.7C8.3 19.6 7.4 18.7 6.3 18.7ZM1.5 20.7C2.1 20.7 2.7 20.7 3.3 20.7C3.3 20.5 3.4 20.4 3.4 20.3C3.4 20.2 3.4 20 3.5 19.9C3.8 18.7 4.8 17.9 6 17.7C7.2 17.6 8.4 18.1 9 19.2C9.2 19.5 9.3 19.8 9.3 20.1C9.3 20.2 9.3 20.4 9.4 20.5C9.4 20.6 9.4 20.6 9.4 20.7C10.1 20.7 10.7 20.7 11.4 20.7C11.8 20.7 12.1 20.4 12.1 20C12.1 19.2 12.1 18.4 12.1 17.6C12.1 16.9 11.7 16.4 11 16.2C9.6 15.8 8.2 15.5 6.8 15.1C6.5 15 6.3 14.9 6.1 14.7C5.4 14 4.7 13.3 4 12.6C3.7 12.3 3.4 12.2 3 12.2H1.6V13.3H2.8C3 13.3 3.2 13.4 3.3 13.5C3.8 14 4.3 14.5 4.8 15C5 15.2 4.9 15.6 4.5 15.6H1.5V20.7ZM19.6 18.7C20.7 18.7 21.6 19.6 21.6 20.7C21.6 21.8 20.7 22.7 19.6 22.7C18.5 22.7 17.6 21.8 17.6 20.7C17.6 19.6 18.5 18.7 19.6 18.7ZM24.3 20.7C23.7 20.7 23.1 20.7 22.6 20.7C22.6 20.5 22.5 20.4 22.5 20.3C22.5 20.2 22.5 20 22.4 19.9C22.1 18.8 21.1 17.9 19.9 17.8C18.7 17.7 17.6 18.2 17 19.3C16.8 19.6 16.7 19.8 16.7 20.1C16.7 20.2 16.7 20.4 16.6 20.5C16.6 20.6 16.6 20.5 16.6 20.7C16 20.7 15.3 20.7 14.7 20.7C14.3 20.7 14 20.4 14 20C14 19.2 14 18.4 14 17.6C14 17 14.4 16.4 15.1 16.2C16.5 15.9 17.9 15.5 19.3 15.2C19.6 15.1 19.8 15 20 14.8C20.7 14.1 21.4 13.4 22.1 12.7C22.4 12.4 22.7 12.3 23.1 12.3H24.5V13.4H23.3C23.1 13.4 22.9 13.5 22.8 13.6C22.3 14.1 21.8 14.6 21.3 15.1C21.1 15.3 21.2 15.7 21.5 15.7H24.5V20.7H24.3ZM16 6.89999L14.7 11.2C14.6 11.5 14.2 11.7 13.9 11.6C13.6 11.5 13.4 11.1 13.5 10.8L14.8 6.49999C14.9 6.19999 15.3 5.99999 15.6 6.09999C15.9 6.19999 16.1 6.59999 16 6.89999ZM19.7 10.8L16.7 12.8C16.4 13 16 12.9 15.8 12.6C15.6 12.3 15.7 11.9 16 11.7L19 9.69999C19.3 9.49999 19.7 9.59999 19.9 9.89999C20.1 10.2 20 10.6 19.7 10.8ZM11 6.59999L12.3 10.9C12.4 11.2 12.2 11.6 11.9 11.7C11.6 11.8 11.2 11.6 11.1 11.3L9.8 6.99999C9.7 6.69999 9.9 6.29999 10.2 6.19999C10.5 6.09999 10.9 6.29999 11 6.59999Z" fill="white"/>
</g>
<defs>
<clipPath id="clip0_353_2969">
<rect width="26" height="26" fill="white"/>
</clipPath>
</defs>
</svg>
