<?xml version="1.0" encoding="UTF-8"?>
<!DOCTYPE svg PUBLIC "-//W3C//DTD SVG 1.1//EN" "http://www.w3.org/Graphics/SVG/1.1/DTD/svg11.dtd">
<!-- Creator: CorelDRAW 2020 (64-Bit) -->
<svg xmlns="http://www.w3.org/2000/svg" xml:space="preserve" width="26px" height="26px" version="1.1" style="shape-rendering:geometricPrecision; text-rendering:geometricPrecision; image-rendering:optimizeQuality; fill-rule:evenodd; clip-rule:evenodd"
viewBox="0 0 260 260"
 xmlns:xlink="http://www.w3.org/1999/xlink"
 xmlns:xodm="http://www.corel.com/coreldraw/odm/2003">
 <defs>
  <style type="text/css">
   <![CDATA[
    .fil0 {fill:#CCCCCC}
    .fil1 {fill:white}
   ]]>
  </style>
 </defs>
 <g id="Layer_x0020_1">
  <metadata id="CorelCorpID_0Corel-Layer"/>
  <g id="_2887535903840">
   <polygon class="fil0" points="0,0 260,0 260,260 0,260 "/>
   <path class="fil1" d="M69 97l30 20c3,2 4,6 2,9 -2,3 -6,4 -9,2l-30 -20c-3,-2 -4,-6 -2,-9 2,-3 6,-4 9,-2zm-6 90c-11,0 -20,9 -20,20 0,11 9,20 20,20 11,0 20,-9 20,-20 0,-11 -9,-20 -20,-20zm-48 20c6,0 12,0 18,0 0,-2 1,-3 1,-4 0,-1 0,-3 1,-4 3,-12 13,-20 25,-22 12,-1 24,4 30,15 2,3 3,6 3,9 0,1 0,3 1,4 0,1 0,1 0,2 7,0 13,0 20,0 4,0 7,-3 7,-7 0,-8 0,-16 0,-24 0,-7 -4,-12 -11,-14 -14,-4 -28,-7 -42,-11 -3,-1 -5,-2 -7,-4 -7,-7 -14,-14 -21,-21 -3,-3 -6,-4 -10,-4l-14 0 0 11 12 0c2,0 4,1 5,2 5,5 10,10 15,15 2,2 1,6 -3,6l-30 0 0 51zm181 -20c11,0 20,9 20,20 0,11 -9,20 -20,20 -11,0 -20,-9 -20,-20 0,-11 9,-20 20,-20zm47 20c-6,0 -12,0 -17,0 0,-2 -1,-3 -1,-4 0,-1 0,-3 -1,-4 -3,-11 -13,-20 -25,-21 -12,-1 -23,4 -29,15 -2,3 -3,5 -3,8 0,1 0,3 -1,4 0,1 0,0 0,2 -6,0 -13,0 -19,0 -4,0 -7,-3 -7,-7 0,-8 0,-16 0,-24 0,-6 4,-12 11,-14 14,-3 28,-7 42,-10 3,-1 5,-2 7,-4 7,-7 14,-14 21,-21 3,-3 6,-4 10,-4l14 0 0 11 -12 0c-2,0 -4,1 -5,2 -5,5 -10,10 -15,15 -2,2 -1,6 2,6l30 0 0 50zm-83 -138l-13 43c-1,3 -5,5 -8,4 -3,-1 -5,-5 -4,-8l13 -43c1,-3 5,-5 8,-4 3,1 5,5 4,8zm37 39l-30 20c-3,2 -7,1 -9,-2 -2,-3 -1,-7 2,-9l30 -20c3,-2 7,-1 9,2 2,3 1,7 -2,9zm-87 -42l13 43c1,3 -1,7 -4,8 -3,1 -7,-1 -8,-4l-13 -43c-1,-3 1,-7 4,-8 3,-1 7,1 8,4z"/>
  </g>
 </g>
</svg>
