<svg width="26" height="26" viewBox="0 0 26 26" fill="none" xmlns="http://www.w3.org/2000/svg">
<g clip-path="url(#clip0_353_2984)">
<path fill-rule="evenodd" clip-rule="evenodd" d="M0 0H26V26H0V0Z" fill="#CCCCCC"/>
<path fill-rule="evenodd" clip-rule="evenodd" d="M19.1001 4.00001C19.1001 3.70001 19.3001 3.50001 19.6001 3.50001C19.9001 3.50001 20.3001 3.50001 20.6001 3.50001C20.9001 3.50001 21.1001 3.70001 21.1001 4.00001C21.1001 5.30001 21.1001 6.50001 21.1001 7.80001C20.4001 7.30001 19.7001 6.80001 19.1001 6.30001C19.1001 5.50001 19.1001 4.80001 19.1001 4.00001ZM16.5001 18H18.0001V19H16.5001V18ZM14.5001 21.8H19.1001V14.1H14.5001V21.8ZM6.80014 18.7H11.4001V14.1H6.80014V18.7ZM1.90014 12C2.20014 12.5 2.90014 12.6 3.30014 12.2C6.50014 9.90001 9.70014 7.60001 12.9001 5.30001C16.1001 7.60001 19.3001 9.90001 22.5001 12.2C23.0001 12.5 23.6001 12.4 23.9001 12C24.2001 11.5 24.1001 10.9 23.7001 10.6C20.3001 8.10001 16.9001 5.70001 13.5001 3.20001C13.1001 2.90001 12.7001 2.90001 12.3001 3.20001C8.90014 5.70001 5.50014 8.10001 2.10014 10.6C1.60014 10.9 1.50014 11.6 1.90014 12ZM22.6001 23.1V13.5L13.0001 6.60001L3.40014 13.5V23.1H22.6001Z" fill="white"/>
</g>
<defs>
<clipPath id="clip0_353_2984">
<rect width="26" height="26" fill="white"/>
</clipPath>
</defs>
</svg>
