<svg width="26" height="26" viewBox="0 0 26 26" fill="none" xmlns="http://www.w3.org/2000/svg">
<path fill-rule="evenodd" clip-rule="evenodd" d="M19.1001 3.99998C19.1001 3.69998 19.3001 3.49998 19.6001 3.49998C19.9001 3.49998 20.3001 3.49998 20.6001 3.49998C20.9001 3.49998 21.1001 3.69998 21.1001 3.99998C21.1001 5.29998 21.1001 6.49998 21.1001 7.79998C20.4001 7.29998 19.7001 6.79998 19.1001 6.29998C19.1001 5.49998 19.1001 4.79998 19.1001 3.99998ZM16.5001 18H18.0001V19H16.5001V18ZM14.5001 21.8H19.1001V14.1H14.5001V21.8ZM6.80014 18.7H11.4001V14.1H6.80014V18.7ZM1.90014 12C2.20014 12.5 2.90014 12.6 3.30014 12.2C6.50014 9.89998 9.70014 7.59998 12.9001 5.29998C16.1001 7.59998 19.3001 9.89998 22.5001 12.2C23.0001 12.5 23.6001 12.4 23.9001 12C24.2001 11.5 24.1001 10.9 23.7001 10.6C20.3001 8.09998 16.9001 5.69998 13.5001 3.19998C13.1001 2.89998 12.7001 2.89998 12.3001 3.19998C8.90014 5.69998 5.50014 8.09998 2.10014 10.6C1.60014 10.9 1.50014 11.6 1.90014 12ZM22.6001 23.1V13.5L13.0001 6.59998L3.40014 13.5V23.1H22.6001Z" fill="white"/>
</svg>
