<svg id="next-steps-1" xmlns="http://www.w3.org/2000/svg" xmlns:xlink="http://www.w3.org/1999/xlink" width="80" height="80" viewBox="0 0 80 80">
  <defs>
    <linearGradient id="linear-gradient" x1="0.928" y1="0.935" x2="-0.113" y2="0.554" gradientUnits="objectBoundingBox">
      <stop offset="0" stop-color="#268fa3"/>
      <stop offset="1" stop-color="#1a4c6e"/>
    </linearGradient>
    <linearGradient id="linear-gradient-2" x1="0.499" y1="0.499" x2="1.565" y2="1.565" gradientUnits="objectBoundingBox">
      <stop offset="0" stop-color="#f28f38"/>
      <stop offset="1" stop-color="#d44710"/>
    </linearGradient>
  </defs>
  <path id="Path_360" data-name="Path 360" d="M40,0A40,40,0,1,0,80,40,40,40,0,0,0,40,0Z" fill="#268fa3"/>
  <path id="Path_361" data-name="Path 361" d="M25.218,61.418A40,40,0,0,0,61.472,25.164L39.757,3.45,3.44,39.64Z" transform="translate(18.401 18.455)" fill="url(#linear-gradient)"/>
  <path id="Path_362" data-name="Path 362" d="M27.857,2.27A25.619,25.619,0,1,0,53.508,27.857,25.552,25.552,0,0,0,27.857,2.27Z" transform="translate(12.143 12.143)" fill="#fff"/>
  <path id="Path_363" data-name="Path 363" d="M24.273,2.94a21.365,21.365,0,1,0,21.4,21.333A21.3,21.3,0,0,0,24.273,2.94Z" transform="translate(15.727 15.727)" fill="url(#linear-gradient-2)"/>
  <path id="Path_364" data-name="Path 364" d="M9.592,29.115a.718.718,0,0,0,.7.762h3.238a.711.711,0,0,0,.635-.762V4.988a.653.653,0,0,0-.635-.7H10.862l-5.4,4.571a.651.651,0,0,0-.19.635l.254,1.841a.558.558,0,0,0,.7.508l3.365-.7V29.115Z" transform="translate(28.123 22.948)" fill="#fff"/>
</svg>
