<svg id="next-steps-2" xmlns="http://www.w3.org/2000/svg" xmlns:xlink="http://www.w3.org/1999/xlink" width="80" height="80" viewBox="0 0 80 80">
  <defs>
    <linearGradient id="linear-gradient" x1="0.928" y1="0.935" x2="-0.114" y2="0.554" gradientUnits="objectBoundingBox">
      <stop offset="0" stop-color="#268fa3"/>
      <stop offset="1" stop-color="#1a4c6e"/>
    </linearGradient>
    <linearGradient id="linear-gradient-2" x1="0.5" y1="0.5" x2="1.566" y2="1.566" gradientUnits="objectBoundingBox">
      <stop offset="0" stop-color="#f28f38"/>
      <stop offset="1" stop-color="#d44710"/>
    </linearGradient>
  </defs>
  <path id="Path_365" data-name="Path 365" d="M40,0A40,40,0,1,0,80,40,40,40,0,0,0,40,0Z" fill="#268fa3"/>
  <path id="Path_366" data-name="Path 366" d="M118.652,155a40,40,0,0,0,36.237-36.241L133.168,97.05,96.9,133.253Z" transform="translate(-75.051 -75.167)" fill="url(#linear-gradient)"/>
  <path id="Path_367" data-name="Path 367" d="M89.383,63.76a25.623,25.623,0,1,0,25.623,25.623A25.624,25.624,0,0,0,89.383,63.76Z" transform="translate(-49.383 -49.383)" fill="#fff"/>
  <path id="Path_368" data-name="Path 368" d="M104.053,82.7a21.353,21.353,0,1,0,21.353,21.353A21.353,21.353,0,0,0,104.053,82.7Z" transform="translate(-64.053 -64.053)" fill="url(#linear-gradient-2)"/>
  <path id="Path_369" data-name="Path 369" d="M141.05,145.1a.715.715,0,0,0,.715.715h14.812a.739.739,0,0,0,.715-.715v-2.593a.739.739,0,0,0-.715-.715h-8.119c1.991-2.519,4.848-6.052,6.464-8.345,1.466-2.106,2.519-3.648,2.519-6.09,0-4.061-3.006-7.481-8.381-7.481-4.473,0-7.407,3.684-7.407,3.684a.738.738,0,0,0,.038.976l1.8,1.806a.685.685,0,0,0,1.015,0,6.165,6.165,0,0,1,4.21-2.219c2.708,0,3.986,1.729,3.986,3.421a7.179,7.179,0,0,1-1.919,4.174c-2.519,3.344-7.254,9.511-9.736,12.516Z" transform="translate(-109.246 -92.85)" fill="#fff"/>
</svg>
