<svg id="next-steps-3" xmlns="http://www.w3.org/2000/svg" xmlns:xlink="http://www.w3.org/1999/xlink" width="80" height="80" viewBox="0 0 80 80">
  <defs>
    <linearGradient id="linear-gradient" x1="0.928" y1="0.935" x2="-0.113" y2="0.554" gradientUnits="objectBoundingBox">
      <stop offset="0" stop-color="#268fa3"/>
      <stop offset="1" stop-color="#1a4c6e"/>
    </linearGradient>
    <linearGradient id="linear-gradient-2" x1="0.499" y1="0.499" x2="1.564" y2="1.564" gradientUnits="objectBoundingBox">
      <stop offset="0" stop-color="#f28f38"/>
      <stop offset="1" stop-color="#d44710"/>
    </linearGradient>
  </defs>
  <path id="Path_370" data-name="Path 370" d="M39.966,0A40,40,0,1,0,80,39.966,39.944,39.944,0,0,0,39.966,0Z" fill="#268fa3"/>
  <path id="Path_371" data-name="Path 371" d="M24.96,61.13A39.931,39.931,0,0,0,61.188,24.9L39.506,3.22,3.21,39.38,24.96,61.13Z" transform="translate(18.608 18.666)" fill="url(#linear-gradient)"/>
  <path id="Path_372" data-name="Path 372" d="M27.734,2.11A25.624,25.624,0,1,0,53.359,27.734,25.643,25.643,0,0,0,27.734,2.11Z" transform="translate(12.231 12.232)" fill="#fff"/>
  <path id="Path_373" data-name="Path 373" d="M24.082,2.74a21.376,21.376,0,1,0,21.41,21.342A21.379,21.379,0,0,0,24.082,2.74Z" transform="translate(15.884 15.884)" fill="url(#linear-gradient-2)"/>
  <path id="Path_374" data-name="Path 374" d="M4.814,26.924a9.776,9.776,0,0,0,7.816,3.331c5.166,0,8.632-3.059,8.632-7.341,0-3.33-2.787-5.37-4.554-6.117V16.66a6.706,6.706,0,0,0,3.874-5.845c0-4.214-3.6-6.865-8.02-6.865-4.146,0-7.069,3.331-7.069,3.331a.722.722,0,0,0,0,.952l1.9,1.7a.68.68,0,0,0,1.02,0A4.8,4.8,0,0,1,12.155,8.1a3.528,3.528,0,0,1,3.67,3.466c0,1.9-1.563,3.466-4.69,3.466H9.028a.663.663,0,0,0-.68.748v2.379a.663.663,0,0,0,.68.748h2.107c3.4,0,5.234,1.767,5.234,3.738a3.848,3.848,0,0,1-4.01,3.534,8.008,8.008,0,0,1-4.622-2.039c-.272-.34-.612-.34-.952,0l-1.9,1.835a.728.728,0,0,0-.068.952Z" transform="translate(27.064 22.898)" fill="#fff"/>
</svg>
