<svg width="26" height="26" viewBox="0 0 26 26" fill="none" xmlns="http://www.w3.org/2000/svg">
<g clip-path="url(#clip0_353_2994)">
<path fill-rule="evenodd" clip-rule="evenodd" d="M0 0H26V26H0V0Z" fill="#CCCCCC"/>
<path fill-rule="evenodd" clip-rule="evenodd" d="M13 2C19.1 2 24 6.9 24 13C24 19.1 19.1 24 13 24C6.9 24 2 19.1 2 13C2 6.9 6.9 2 13 2ZM15.7 10.2C14.9 9.4 13.9 9 12.9 9C11.5 9 10.3 9.7 9.6 10.8H13C13.4 10.8 13.8 11.2 13.8 11.6C13.8 12 13.4 12.4 13 12.4H9C9 12.6 9 12.8 9 13C9 13.2 9 13.4 9 13.6H13C13.4 13.6 13.8 14 13.8 14.4C13.8 14.8 13.4 15.2 13 15.2H9.6C10.3 16.3 11.5 17 12.9 17C14 17 15 16.6 15.7 15.8C16 15.5 16.5 15.5 16.8 15.8C17.1 16.1 17.1 16.6 16.8 16.9C15.7 18 14.3 18.5 12.8 18.5C10.5 18.5 8.5 17.1 7.7 15.1H6.6C6.2 15.1 5.8 14.7 5.8 14.3C5.8 13.9 6.2 13.5 6.6 13.5H7.3C7.3 13.3 7.3 13.1 7.3 12.9C7.3 12.7 7.3 12.5 7.3 12.3H6.6C6.2 12.3 5.8 11.9 5.8 11.5C5.8 11.1 6.2 10.7 6.6 10.7H7.7C8.6 8.7 10.5 7.3 12.8 7.3C14.3 7.3 15.7 7.9 16.8 8.9C17.1 9.2 17.1 9.7 16.8 10C16.5 10.3 16 10.3 15.7 10V10.2ZM13 3.9C18.1 3.9 22.2 8 22.2 13.1C22.2 18.2 18.1 22.3 13 22.3C7.9 22.3 3.8 18.2 3.8 13.1C3.8 8 7.9 3.9 13 3.9Z" fill="white"/>
</g>
<defs>
<clipPath id="clip0_353_2994">
<rect width="26" height="26" fill="white"/>
</clipPath>
</defs>
</svg>
