<?xml version="1.0" encoding="UTF-8"?>
<!DOCTYPE svg PUBLIC "-//W3C//DTD SVG 1.1//EN" "http://www.w3.org/Graphics/SVG/1.1/DTD/svg11.dtd">
<!-- Creator: CorelDRAW -->
<svg xmlns="http://www.w3.org/2000/svg" xml:space="preserve" width="16px" height="16px" version="1.1" shape-rendering="geometricPrecision" text-rendering="geometricPrecision" image-rendering="optimizeQuality" fill-rule="evenodd" clip-rule="evenodd"
viewBox="0 0 16 16"
 xmlns:xlink="http://www.w3.org/1999/xlink"
 xmlns:xodm="http://www.corel.com/coreldraw/odm/2003">
 <g id="Default">
  <metadata id="CorelCorpID_0Corel-Layer"/>
  <path fill="black" d="M10.4 3.47l2.13 2.13 -4.64 4.63 -2.12 -2.12 4.63 -4.64zm2.83 1.42c-0.7,-0.71 -1.41,-1.42 -2.12,-2.12 0.49,-0.49 0.98,-0.99 1.48,-1.48 0.39,-0.39 1.02,-0.39 1.41,0 0.24,0.24 0.47,0.47 0.71,0.71 0.39,0.39 0.39,1.02 0,1.41 -0.49,0.5 -0.99,0.99 -1.48,1.48zm-8.17 3.93l-1.06 3.18 3.18 -1.06 -2.12 -2.12zm3.78 -6.82c0.28,0 0.5,-0.22 0.5,-0.5 0,-0.28 -0.22,-0.5 -0.5,-0.5 -2.61,0 -5.23,0 -7.84,0 -0.55,0 -1,0.45 -1,1 0,4.33 0,8.67 0,13 0,0.55 0.45,1 1,1 4.33,0 8.67,0 13,0 0.55,0 1,-0.45 1,-1 0,-2.61 0,-5.23 0,-7.84 0,-0.28 -0.22,-0.5 -0.5,-0.5 -0.28,0 -0.5,0.22 -0.5,0.5 0,2.61 0,5.23 0,7.84 -4.33,0 -8.67,0 -13,0 0,-4.33 0,-8.67 0,-13 2.61,0 5.23,0 7.84,0zm-5.79 9.68c0.38,-1.13 0.76,-2.27 1.14,-3.4 2.56,-2.57 5.12,-5.13 7.69,-7.7 0.78,-0.78 2.05,-0.78 2.83,0 0.23,0.24 0.47,0.48 0.71,0.71 0.78,0.78 0.78,2.05 0,2.83 -2.57,2.57 -5.13,5.13 -7.7,7.69 -1.13,0.38 -2.27,0.76 -3.4,1.14 -0.36,0.12 -0.76,0.03 -1.03,-0.24 -0.27,-0.27 -0.36,-0.67 -0.24,-1.03z"/>
 </g>
</svg>
