<svg width="26" height="26" viewBox="0 0 26 26" fill="none" xmlns="http://www.w3.org/2000/svg">
<g clip-path="url(#clip0_353_3004)">
<path fill-rule="evenodd" clip-rule="evenodd" d="M0 0H26V26H0V0Z" fill="#CCCCCC"/>
<path fill-rule="evenodd" clip-rule="evenodd" d="M15.4998 4.10001L10.9998 6.70001L20.7998 16.5L16.3998 20.9L16.9998 21.9L23.5998 18.1L15.4998 4.10001ZM9.59981 13.1C11.0998 13.1 12.1998 14.3 12.1998 15.7C12.1998 17.2 10.9998 18.3 9.59981 18.3C9.19981 18.3 8.79981 18.2 8.39981 18C8.19981 17.2 7.59981 16.5 6.9998 16C6.9998 15.9 6.9998 15.7 6.9998 15.6C6.9998 14.1 8.19981 13 9.59981 13V13.1ZM4.8998 16.5C6.39981 16.5 7.4998 17.7 7.4998 19.1C7.4998 20.6 6.29981 21.7 4.8998 21.7C3.3998 21.7 2.2998 20.5 2.2998 19.1C2.2998 17.6 3.4998 16.5 4.8998 16.5ZM7.9998 5.10001L2.5998 10.5L6.29981 14.2C6.89981 13 8.09981 12.2 9.59981 12.2C11.5998 12.2 13.1998 13.8 13.1998 15.8C13.1998 17.2 12.3998 18.5 11.1998 19.1L13.9998 21.9L19.3998 16.5L7.9998 5.10001Z" fill="white"/>
</g>
<defs>
<clipPath id="clip0_353_3004">
<rect width="26" height="26" fill="white"/>
</clipPath>
</defs>
</svg>
