<svg xmlns="http://www.w3.org/2000/svg" xml:space="preserve" fill-rule="evenodd" viewBox="0 0 36 36"><path fill="none" d="M0 0h36v36H0z"/><path fill-rule="nonzero" d="M23.98 5.93a3.02 3.02 0 0 0-1.92 3.36 3.02 3.02 0 0 0 2.97 2.48 3.016 3.016 0 0 0 1.05-5.84c1.1-.97.41-2.78-1.05-2.78-1.47 0-2.15 1.81-1.05 2.78M8.96 3.73a3.015 3.015 0 1 0 .01 6.03 3.015 3.015 0 0 0-.01-6.03m19.08 25.1h2.01l-2.01-7.02v-9.04h-6.02v9.04l-2.01 7.02h2.01v3.02c0 .55.44 1 1 1 .55 0 1-.45 1-1v-3.02h2.01v3.02a1.005 1.005 0 0 0 2.01 0zm-14.06-6.02c0 .28.23.5.51.5.27 0 .5-.22.5-.5s.22-.5.5-.5.5.22.5.5v10.04h1V22.81c0-.83-.67-1.51-1.5-1.51s-1.51.68-1.51 1.51m7.03-2.01a1.005 1.005 0 1 1-2.01 0v-6.02c0-1.11.9-2.01 2.01-2.01zm8.03 0a1.005 1.005 0 1 0 2.01 0v-6.02c0-1.11-.9-2.01-2.01-2.01zm1.01 3.01c0 .28.22.51.5.51s.5-.23.5-.51c0-.27.23-.5.5-.5.28 0 .51.23.51.5v9.04h1v-9.04c0-.83-.67-1.5-1.51-1.5-.83 0-1.5.67-1.5 1.5m-22.09 0h2.01v8.04a1.005 1.005 0 0 0 2.01 0V10.76H5.95v21.09a1.005 1.005 0 0 0 2.01 0zm5.02-4.01a1.005 1.005 0 0 0 2.01 0v-7.03c0-1.11-.9-2.01-2.01-2.01zm-8.03 0a1.005 1.005 0 0 1-2.01 0v-7.03c0-1.11.9-2.01 2.01-2.01z"/></svg>