<svg xmlns="http://www.w3.org/2000/svg" xml:space="preserve" fill-rule="evenodd" viewBox="0 0 36 36"><path fill="none" d="M0 0h36v36H0z"/><path d="M11.58 11.15a5.66 5.66 0 0 1 5.68 5.66c0 3.14-2.54 5.67-5.68 5.66a5.66 5.66 0 1 1 0-11.32m14.44-6.32c2.59-.01 4.7 2.09 4.7 4.69 0 2.59-2.11 4.7-4.7 4.69-2.6.01-4.71-2.1-4.71-4.69 0-2.6 2.11-4.7 4.71-4.69m-9.81 17.51c1.97 1.85 3.42 4.22 4.15 6.88.13.48.03.95-.27 1.34-.3.4-.73.61-1.22.61H4.31c-.49 0-.92-.21-1.22-.61-.3-.39-.39-.86-.26-1.34.72-2.65 2.16-5.03 4.13-6.88a7.17 7.17 0 0 0 4.62 1.67c1.76 0 3.38-.63 4.63-1.67m13.83-8.05c1.44 1.41 2.52 3.17 3.12 5.13.15.48.06.96-.24 1.36-.3.41-.73.63-1.23.63H20.34c-.51 0-.94-.22-1.24-.63-.3-.4-.39-.88-.24-1.36.6-1.97 1.69-3.73 3.13-5.14a6.266 6.266 0 0 0 8.05.01"/></svg>