<svg width="26" height="26" viewBox="0 0 26 26" fill="none" xmlns="http://www.w3.org/2000/svg">
<g clip-path="url(#clip0_353_3009)">
<path fill-rule="evenodd" clip-rule="evenodd" d="M0 0H26V26H0V0Z" fill="#009584"/>
<path fill-rule="evenodd" clip-rule="evenodd" d="M18.3 13C20.3 13 22 14.6 22 16.7C22 18.7 20.3 20.4 18.3 20.4C16.3 20.4 14.6 18.7 14.6 16.7C14.6 14.7 16.2 13 18.3 13ZM18.3 14.6C19.4 14.6 20.3 15.5 20.3 16.6C20.3 17.7 19.4 18.6 18.3 18.6C17.2 18.6 16.3 17.7 16.3 16.6C16.3 15.5 17.2 14.6 18.3 14.6ZM7.7 5.59999C9.7 5.59999 11.4 7.19999 11.4 9.29999C11.4 11.3 9.8 13 7.7 13C5.7 13 4 11.3 4 9.29999C4 7.29999 5.7 5.59999 7.7 5.59999ZM7.7 7.19999C8.8 7.19999 9.7 8.09999 9.7 9.19999C9.7 10.3 8.8 11.2 7.7 11.2C6.6 11.2 5.7 10.3 5.7 9.19999C5.7 8.09999 6.6 7.19999 7.7 7.19999ZM17.2 5.69999C17.6 5.99999 17.8 6.49999 17.5 6.99999L10.1 19.9C9.8 20.3 9.3 20.5 8.8 20.2C8.4 19.9 8.2 19.4 8.5 18.9L15.9 5.99999C16.2 5.59999 16.7 5.39999 17.2 5.69999Z" fill="white"/>
</g>
<defs>
<clipPath id="clip0_353_3009">
<rect width="26" height="26" fill="white"/>
</clipPath>
</defs>
</svg>
