<svg width="26" height="26" viewBox="0 0 26 26" fill="none" xmlns="http://www.w3.org/2000/svg">
<g clip-path="url(#clip0_353_3014)">
<path fill-rule="evenodd" clip-rule="evenodd" d="M0 0H26V26H0V0Z" fill="#009584"/>
<path fill-rule="evenodd" clip-rule="evenodd" d="M13.0002 23.8C19.0002 23.8 23.8002 18.9 23.8002 13C23.8002 7.00001 18.9002 2.20001 13.0002 2.20001C7.0002 2.20001 2.2002 7.10001 2.2002 13C2.2002 19 7.1002 23.8 13.0002 23.8ZM17.1002 13C18.7002 13 19.9002 14.3 19.9002 15.8C19.9002 17.4 18.6002 18.6 17.1002 18.6C15.5002 18.6 14.3002 17.3 14.3002 15.8C14.3002 14.2 15.6002 13 17.1002 13ZM17.1002 14.3C18.0002 14.3 18.7002 15 18.7002 15.9C18.7002 16.8 18.0002 17.5 17.1002 17.5C16.2002 17.5 15.5002 16.8 15.5002 15.9C15.5002 15 16.2002 14.3 17.1002 14.3ZM8.9002 7.30001C10.5002 7.30001 11.7002 8.60001 11.7002 10.1C11.7002 11.7 10.4002 12.9 8.9002 12.9C7.3002 12.9 6.1002 11.6 6.1002 10.1C6.1002 8.50001 7.4002 7.30001 8.9002 7.30001ZM8.9002 8.60001C9.8002 8.60001 10.5002 9.30001 10.5002 10.2C10.5002 11.1 9.8002 11.8 8.9002 11.8C8.0002 11.8 7.3002 11.1 7.3002 10.2C7.3002 9.30001 8.0002 8.60001 8.9002 8.60001ZM16.2002 7.40001C16.5002 7.60001 16.7002 8.00001 16.5002 8.40001L10.8002 18.3C10.6002 18.6 10.2002 18.8 9.8002 18.6C9.5002 18.4 9.3002 18 9.5002 17.6L15.2002 7.70001C15.4002 7.40001 15.8002 7.20001 16.2002 7.40001ZM13.0002 22.6C18.3002 22.6 22.6002 18.3 22.6002 13C22.6002 7.70001 18.3002 3.40001 13.0002 3.40001C7.7002 3.40001 3.4002 7.70001 3.4002 13C3.4002 18.3 7.7002 22.6 13.0002 22.6Z" fill="white"/>
</g>
<defs>
<clipPath id="clip0_353_3014">
<rect width="26" height="26" fill="white"/>
</clipPath>
</defs>
</svg>
