<svg width="26" height="26" viewBox="0 0 26 26" fill="none" xmlns="http://www.w3.org/2000/svg">
<path fill-rule="evenodd" clip-rule="evenodd" d="M13.0002 23.8C19.0002 23.8 23.8002 18.9 23.8002 13C23.8002 6.99995 18.9002 2.19995 13.0002 2.19995C7.0002 2.19995 2.2002 7.09995 2.2002 13C2.2002 19 7.1002 23.8 13.0002 23.8ZM17.1002 13C18.7002 13 19.9002 14.3 19.9002 15.8C19.9002 17.4 18.6002 18.6 17.1002 18.6C15.5002 18.6 14.3002 17.3 14.3002 15.8C14.3002 14.2 15.6002 13 17.1002 13ZM17.1002 14.3C18.0002 14.3 18.7002 15 18.7002 15.9C18.7002 16.8 18.0002 17.5 17.1002 17.5C16.2002 17.5 15.5002 16.8 15.5002 15.9C15.5002 15 16.2002 14.3 17.1002 14.3ZM8.9002 7.29995C10.5002 7.29995 11.7002 8.59995 11.7002 10.1C11.7002 11.7 10.4002 12.9 8.9002 12.9C7.3002 12.9 6.1002 11.6 6.1002 10.1C6.1002 8.49995 7.4002 7.29995 8.9002 7.29995ZM8.9002 8.59995C9.8002 8.59995 10.5002 9.29995 10.5002 10.2C10.5002 11.1 9.8002 11.8 8.9002 11.8C8.0002 11.8 7.3002 11.1 7.3002 10.2C7.3002 9.29995 8.0002 8.59995 8.9002 8.59995ZM16.2002 7.39995C16.5002 7.59995 16.7002 7.99995 16.5002 8.39995L10.8002 18.3C10.6002 18.6 10.2002 18.8 9.8002 18.6C9.5002 18.4 9.3002 18 9.5002 17.6L15.2002 7.69995C15.4002 7.39995 15.8002 7.19995 16.2002 7.39995ZM13.0002 22.6C18.3002 22.6 22.6002 18.3 22.6002 13C22.6002 7.69995 18.3002 3.39995 13.0002 3.39995C7.7002 3.39995 3.4002 7.69995 3.4002 13C3.4002 18.3 7.7002 22.6 13.0002 22.6Z" fill="white"/>
</svg>
