<svg xmlns="http://www.w3.org/2000/svg" xml:space="preserve" fill-rule="evenodd" viewBox="0 0 36 36"><path fill="none" d="M0 0h36v36H0z"/><path d="M14 2.3c-1.9 1-3.8 1.9-5.7 2.9-1 .5-1.7 1.2-2.2 2.2-1 1.9-1.9 3.8-2.9 5.7-.3.6-.1 1.4.6 1.7.9.5 1.9.9 2.8 1.4.6.3 1.3.1 1.6-.4.5-.7.9-1.5 1.4-2.2v19c0 .7.6 1.2 1.2 1.2H25c.7 0 1.2-.6 1.2-1.2v-19c.5.7.9 1.5 1.4 2.2.3.5 1 .7 1.6.4.9-.5 1.9-.9 2.8-1.4.6-.3.9-1.1.6-1.7-1-1.9-1.9-3.8-2.9-5.7-.5-1-1.2-1.7-2.2-2.2-1.9-1-3.8-1.9-5.7-2.9-1.7 3.1-6.2 3.1-7.9 0zm-.6 1.3c-.1-.2-.3-.2-.4-.1-.2.1-.2.3-.1.4 2.6 3.3 7.6 3.3 10.2 0 .1-.2.1-.3-.1-.4s-.3-.1-.4.1c-2.3 3-6.8 3-9.2 0m-2.8 28.3q-.3 0-.3.3t.3.3h14.8q.3 0 .3-.3t-.3-.3z"/></svg>