<svg xmlns="http://www.w3.org/2000/svg" xml:space="preserve" width="36" height="36" fill-rule="evenodd" clip-rule="evenodd" image-rendering="optimizeQuality" shape-rendering="geometricPrecision" text-rendering="geometricPrecision" viewBox="0 0 36 36"><path fill="none" d="M0 0h36v36H0z"/><path d="M16.3 9.6c-1.5-1.9-3.1-3.8-4.6-5.7-1.1.6-2.2 1.1-3.3 1.7-1 .5-1.7 1.2-2.2 2.2-1.2 2.4-2.4 4.8-3.6 7.1-.3.6 0 1.4.6 1.7l2.7 1.2c.6.3 1.3 0 1.6-.5.6-1.1 1.5-2.3 2.2-3.4v19c0 .7.6 1.2 1.2 1.2h14.2c.7 0 1.2-.6 1.2-1.2v-19c.7 1.1 1.5 2.3 2.2 3.4.3.6 1 .8 1.6.5l2.7-1.2c.6-.3.9-1.1.6-1.7-1.2-2.4-2.4-4.8-3.6-7.1-.5-1-1.2-1.7-2.2-2.2-1.1-.6-2.2-1.1-3.3-1.7-1.5 1.9-3.1 3.8-4.6 5.7l-1.6-2.1zm-2.5 9.5c0 .3.1.6.3.7.2.2.6.3 1 .3s.7-.1 1-.2q.3-.15.3-.6c0-.2-.1-.3-.2-.4s-.4-.2-.8-.3l-1.1-.2c-.7-.2-1.1-.4-1.4-.6-.2-.3-.4-.6-.4-1.1 0-.6.2-1 .6-1.4s1-.5 1.8-.5q1.2 0 1.8.6c.4.4.6.9.6 1.4h-1.2c0-.3-.1-.5-.4-.7-.2-.2-.5-.2-.9-.2-.3 0-.6.1-.8.2s-.3.3-.3.5 0 .3.1.4.2.2.4.2l1.7.4c.6.1 1 .4 1.2.6.2.3.3.6.3 1 0 .7-.2 1.2-.7 1.5s-1.1.5-1.7.5c-.9 0-1.6-.2-2-.6s-.7-.9-.7-1.5h1.5m9.9 1.9h-4.9v-1.1l3.2-4h-3.1v-1.1h4.8v1l-3.3 4.1h3.3zm-7.6 5.1c-.2-.7-.6-1.1-1.4-1.1-.5 0-.8.2-1.1.6s-.4.9-.4 1.6c0 .6.1 1.2.4 1.5.3.4.6.6 1.1.6.7 0 1.2-.4 1.4-1.2h1.3c-.1.6-.4 1.2-.8 1.6-.5.4-1.1.7-1.9.7q-1.35 0-2.1-.9c-.5-.6-.8-1.4-.8-2.4s.3-1.8.8-2.4q.75-.9 2.1-.9c.8 0 1.4.2 1.9.6s.7.9.8 1.6h-1.3zm-.8-2.6h-1.1l-1-1.3h1l.5.7.6-.7h1zm4.4 3.6c0 .7.2 1.3.5 1.6.3.4.7.5 1.2.5q.75 0 1.2-.6c.3-.4.5-.9.5-1.6s-.2-1.2-.5-1.6q-.45-.6-1.2-.6t-1.2.6c-.3.4-.5.9-.5 1.6zm-1.3 0c0-1.1.3-1.9.8-2.4.6-.6 1.3-.8 2.1-.8.9 0 1.6.3 2.2.8.6.6.8 1.4.8 2.4 0 1.1-.3 1.9-.8 2.4-.6.6-1.3.8-2.2.8-.8 0-1.6-.3-2.1-.8-.6-.5-.9-1.4-.9-2.5zm-.3-20.9-4.5-4.5-1.2 1.8 4 5zm5.8-2.7-4 5-1.8-2.3 4.5-4.5 1.2 1.8zm-9.4-1.8 1.8 1.8h3.6l1.8-1.8h-7.3z"/></svg>