<svg xmlns="http://www.w3.org/2000/svg" xml:space="preserve" fill-rule="evenodd" viewBox="0 0 36 36"><path fill="none" d="M0 0h36v36H0z"/><path d="M17.82 2.52c1.68 0 3.05 1.36 3.05 3.04S19.5 8.6 17.82 8.6s-3.04-1.36-3.04-3.04 1.36-3.04 3.04-3.04m5.63 7.15c-.8.22-1.29 1.06-1.07 1.86l1.69 6.32c.2.74 1.15 1.27 1.86 1.07.81-.22 1.3-1.05 1.08-1.86l-1.69-6.31c-.29-1.06-1.08-1.3-1.87-1.08m-11.17 0c.67 0 1.17 1.07.99 1.72l-1.56 5.85c-.2.74-.99 1.23-1.73.99-.57-.18-1.32-.48-.99-1.72l1.56-5.85c.2-.75.98-1.19 1.73-.99m7.66 10.6c.79 0 1.43.64 1.43 1.43v2.94c0 .79-.64 1.44-1.43 1.44s-1.44-.65-1.44-1.44V21.7c0-.79.65-1.43 1.44-1.43m-4.21 0c.8 0 1.45.65 1.45 1.45v10.31c0 .8-.65 1.45-1.45 1.45s-1.46-.65-1.46-1.45V21.72c0-.8.66-1.45 1.46-1.45m.07-10.43h4.05c.84 0 1.52.69 1.52 1.52v6.54c0 .84-.68 1.52-1.52 1.52H15.8c-.84 0-1.53-.68-1.53-1.52v-6.54c0-.83.69-1.52 1.53-1.52"/></svg>