<svg xmlns="http://www.w3.org/2000/svg" xml:space="preserve" fill-rule="evenodd" viewBox="0 0 36 36"><path fill="none" d="M0 0h36v36H0z"/><path d="M18 4.28c-1.62 0-2.94 1.31-2.94 2.94 0 1.62 1.32 2.94 2.94 2.94s2.94-1.32 2.94-2.94c0-1.63-1.32-2.94-2.94-2.94m-1.03 14.26L18 19.66l1.03-1.12-.88-4.7 1.15-1.56h-2.62l1.17 1.56zm2.01 11.71c0 .81.66 1.47 1.47 1.47s1.47-.66 1.47-1.47V14.69l3.49 3.49c.58.58 1.51.58 2.08 0 .58-.57.58-1.5 0-2.08l-4.53-4.53c-.3-.3-.61-.43-1.04-.43h-7.84c-.43 0-.74.13-1.04.43L8.51 16.1a1.46 1.46 0 0 0 0 2.08c.57.58 1.5.58 2.08 0l3.49-3.49v15.56c0 .81.66 1.47 1.47 1.47s1.47-.66 1.47-1.47v-8.33c0-.54.44-.98.98-.98s.98.44.98.98z"/></svg>