<svg xmlns="http://www.w3.org/2000/svg" xml:space="preserve" fill-rule="evenodd" viewBox="0 0 36 36"><path fill="none" d="M0 0h36v36H0z"/><path d="M23.96 19.23c3.15 2.79 5.42 6.54 6.37 10.74.1.47 0 .92-.3 1.3s-.72.58-1.2.58H18.77V21.32c1.96-.16 3.75-.92 5.19-2.09M18 4.15c4.34-.01 7.86 3.5 7.86 7.83 0 4.34-3.52 7.85-7.86 7.83a7.823 7.823 0 0 1-7.86-7.83c0-4.33 3.52-7.84 7.86-7.83m3.08 24.62c.42 0 .77.34.77.77 0 .42-.35.77-.77.77a.77.77 0 0 1 0-1.54m0-6.15c.42 0 .77.34.77.77 0 .42-.35.77-.77.77a.77.77 0 0 1 0-1.54m0 3.07c.42 0 .77.35.77.77a.77.77 0 1 1-.77-.77m-3.85 6.16H7.17c-.48 0-.9-.2-1.2-.58s-.4-.83-.3-1.3c.95-4.2 3.22-7.95 6.37-10.74a9.44 9.44 0 0 0 5.19 2.09z"/></svg>