<svg xmlns="http://www.w3.org/2000/svg" xml:space="preserve" fill-rule="evenodd" viewBox="0 0 36 36"><path fill="none" d="M0 0h36v36H0z"/><path fill-rule="nonzero" d="M15.55 31.72c.81 0 1.47-.66 1.47-1.47V22.9c0-.54.44-.98.98-.98s.98.44.98.98v7.35c0 .81.66 1.47 1.47 1.47s1.47-.66 1.47-1.47V15.67l3.49 3.49c.58.58 1.51.58 2.08 0 .58-.57.58-1.5 0-2.08l-4.53-4.53c-.3-.3-.61-.43-1.04-.43h-7.84c-.43 0-.74.13-1.04.43l-4.53 4.53a1.46 1.46 0 0 0 0 2.08c.57.58 1.5.58 2.08 0l3.49-3.49v14.58c0 .81.66 1.47 1.47 1.47M18 5.26c-1.62 0-2.94 1.32-2.94 2.94s1.32 2.94 2.94 2.94 2.94-1.32 2.94-2.94S19.62 5.26 18 5.26m9.8 26.46h-.98V22.9c0-.81-.66-1.47-1.47-1.47s-1.47.66-1.47 1.47c0 .35-.14.49-.49.49s-.49-.14-.49-.49c0-1.35 1.1-2.45 2.45-2.45s2.45 1.1 2.45 2.45z"/></svg>