<svg xmlns="http://www.w3.org/2000/svg" xml:space="preserve" fill-rule="evenodd" viewBox="0 0 36 36"><path d="M11.45 28.26c.41.21.62.67.51 1.12-.19.74-.38 1.49-.56 2.24-.16.62.31 1.23.96 1.23h1.92c.46 0 .86-.31.97-.75l.39-1.56a.99.99 0 0 1 1.06-.75c1.08.11 2.14.11 3.21 0 .49-.05.94.27 1.07.75.13.52.26 1.04.38 1.56.12.44.51.75.97.75h1.92c.65 0 1.12-.61.96-1.23-.18-.75-.37-1.5-.56-2.24-.11-.45.1-.91.51-1.12 3.58-1.86 6.37-5.47 5.67-9.79A5.97 5.97 0 0 0 32.85 14a.495.495 0 1 0-.99 0c0 1.35-.39 2.34-1.3 3.34-1.15-3.73-4.6-6.14-8.11-7.11-.44.69-.98 1.21-1.68 1.64.54.1 1.07.23 1.58.4q.225.06.45.15a.494.494 0 0 1-.33.93c-.14-.05-.28-.09-.41-.14-.62-.19-1.25-.34-1.89-.43-.62-.09-1.24-.14-1.86-.14-.63 0-1.25.05-1.87.14-.64.09-1.27.24-1.88.43-.14.05-.28.09-.42.14a.494.494 0 0 1-.33-.93q.225-.09.45-.15c.38-.13.78-.23 1.17-.31-.71-.41-1.26-.92-1.72-1.6-.49.15-.97.33-1.43.53a4.43 4.43 0 0 0-5.16-.86c.64.96 1.28 1.92 1.92 2.87-1.33 1.15-2.27 2.4-2.87 4.07H4.14c-.55 0-.99.45-.99.99v3.97c0 .55.44 1 .99 1h2.17c.98 2.37 2.92 4.18 5.14 5.32zm-.29-12.28c-.55 0-.99.44-.99.99s.44.99.99.99.99-.44.99-.99-.44-.99-.99-.99m6.88-12.83c-2.35 0-4.26 1.9-4.26 4.25a4.255 4.255 0 0 0 8.51 0c0-2.35-1.91-4.25-4.25-4.25"/><path fill="none" d="M0 0h36v36H0z"/></svg>