<svg xmlns="http://www.w3.org/2000/svg" xml:space="preserve" width="36" height="36" fill-rule="evenodd" clip-rule="evenodd" image-rendering="optimizeQuality" shape-rendering="geometricPrecision" text-rendering="geometricPrecision" viewBox="0 0 36 36"><path fill="none" d="M0 0h36v36H0z"/><path d="m6.69 16.25 13.16 13.16c2.67 2.67 6.89 2.67 9.56 0s2.67-6.89 0-9.56L16.25 6.69c-2.67-2.67-6.88-2.67-9.56 0-2.67 2.68-2.67 6.89 0 9.56m7.2-7.19c-.31-.31-.82-.31-1.23 0-.31.31-.31.82 0 1.23 0 0 4.42 4.42 4.72 4.73.31.31.83.31 1.24 0 .3-.31.3-.82 0-1.23-1.54-1.55-3.19-3.19-4.73-4.73m11.92 14.28s-4.42-4.42-4.73-4.72c-.31-.31-.31-.83 0-1.24.31-.3.83-.3 1.24 0 1.54 1.54 3.18 3.19 4.72 4.73.31.31.31.82 0 1.23-.3.31-.82.31-1.23 0M21.6 14.4c-2.16-2.16-4.42-4.42-6.58-6.57-1.95-1.96-5.14-1.96-7.2 0-1.95 1.95-1.95 5.13 0 7.19l6.58 6.58z"/></svg>