<svg width="26" height="26" viewBox="0 0 26 26" fill="none" xmlns="http://www.w3.org/2000/svg">
<g clip-path="url(#clip0_353_3029)">
<path fill-rule="evenodd" clip-rule="evenodd" d="M0 0H26V26H0V0Z" fill="#236474"/>
<path fill-rule="evenodd" clip-rule="evenodd" d="M4.0999 11.6C7.5999 15.1 10.9999 18.5 14.4999 22C16.5999 24.1 19.9999 24.1 21.9999 22C24.0999 19.9 24.0999 16.5 21.9999 14.5C18.4999 11 15.0999 7.59999 11.5999 4.09999C9.4999 1.99999 6.1999 1.99999 4.0999 4.09999C1.9999 6.19999 1.9999 9.59999 4.0999 11.6ZM9.6999 5.99999C9.3999 5.69999 8.9999 5.69999 8.7999 5.99999C8.4999 6.29999 8.4999 6.69999 8.7999 6.89999C8.7999 6.89999 12.2999 10.4 12.5999 10.7C12.8999 11 13.2999 11 13.4999 10.7C13.7999 10.4 13.7999 9.99999 13.4999 9.79999C12.1999 8.49999 10.9999 7.29999 9.6999 5.99999ZM19.0999 17.3C19.0999 17.3 15.5999 13.8 15.2999 13.5C14.9999 13.2 14.9999 12.8 15.2999 12.6C15.5999 12.3 15.9999 12.3 16.1999 12.6C17.4999 13.9 18.6999 15.1 19.9999 16.4C20.2999 16.7 20.2999 17.1 19.9999 17.3C19.6999 17.6 19.2999 17.6 19.0999 17.3ZM15.7999 10.2C14.0999 8.49999 12.3999 6.69999 10.5999 4.99999C8.9999 3.39999 6.4999 3.39999 4.9999 4.99999C3.3999 6.59999 3.3999 9.09999 4.9999 10.6C6.6999 12.3 8.4999 14.1 10.1999 15.8C12.0999 13.9 13.9999 12 15.7999 10.2Z" fill="white"/>
</g>
<defs>
<clipPath id="clip0_353_3029">
<rect width="26" height="26" fill="white"/>
</clipPath>
</defs>
</svg>
