<?xml version="1.0" encoding="UTF-8"?>
<!DOCTYPE svg PUBLIC "-//W3C//DTD SVG 1.1//EN" "http://www.w3.org/Graphics/SVG/1.1/DTD/svg11.dtd">
<!-- Creator: CorelDRAW 2020 (64-Bit) -->
<svg xmlns="http://www.w3.org/2000/svg" xml:space="preserve" width="26px" height="26px" version="1.1" style="shape-rendering:geometricPrecision; text-rendering:geometricPrecision; image-rendering:optimizeQuality; fill-rule:evenodd; clip-rule:evenodd"
viewBox="0 0 260 260"
 xmlns:xlink="http://www.w3.org/1999/xlink"
 xmlns:xodm="http://www.corel.com/coreldraw/odm/2003">
 <defs>
  <style type="text/css">
   <![CDATA[
    .fil0 {fill:#292929}
    .fil1 {fill:white}
   ]]>
  </style>
 </defs>
 <g id="Layer_x0020_1">
  <metadata id="CorelCorpID_0Corel-Layer"/>
  <g id="_2850357594112">
   <polygon class="fil0" points="0,0 260,0 260,260 0,260 "/>
   <path class="fil1" d="M41 116c35,35 69,69 104,104 21,21 55,21 75,0 21,-21 21,-55 0,-75 -35,-35 -69,-69 -104,-104 -21,-21 -54,-21 -75,0 -21,21 -21,55 0,75zm56 -56c-3,-3 -7,-3 -9,0 -3,3 -3,7 0,9 0,0 35,35 38,38 3,3 7,3 9,0 3,-3 3,-7 0,-9 -13,-13 -25,-25 -38,-38zm94 113c0,0 -35,-35 -38,-38 -3,-3 -3,-7 0,-9 3,-3 7,-3 9,0 13,13 25,25 38,38 3,3 3,7 0,9 -3,3 -7,3 -9,0zm-33 -71c-17,-17 -34,-35 -52,-52 -16,-16 -41,-16 -56,0 -16,16 -16,41 0,56 17,17 35,35 52,52 19,-19 38,-38 56,-56z"/>
  </g>
 </g>
</svg>
