<svg id="pnka-ano" xmlns="http://www.w3.org/2000/svg" width="26" height="26" viewBox="0 0 26 26">
  <rect id="Rectangle_138" data-name="Rectangle 138" width="26" height="26" fill="none"/>
  <path id="Path_286" data-name="Path 286" d="M16.652,10.468a3.613,3.613,0,1,0-3.613-3.613A3.613,3.613,0,0,0,16.652,10.468Z" transform="translate(-3.622 -0.901)" fill="none" stroke="#2a77d1" stroke-linejoin="round" stroke-miterlimit="10" stroke-width="1"/>
  <path id="Path_287" data-name="Path 287" d="M8.348,22.058a5.625,5.625,0,0,1,5.343-5.835h3.255a5.065,5.065,0,0,1,5.343,5.226v2.088a3.434,3.434,0,0,1-3.439,3.439H9.937l.488-1.749a3.611,3.611,0,0,1,3.437-2.639l8.427-.1" transform="translate(-2.319 -4.506)" fill="none" stroke="#2a77d1" stroke-linejoin="round" stroke-miterlimit="10" stroke-width="1"/>
  <path id="Path_288" data-name="Path 288" d="M15.059,29.314l.893-4.32" transform="translate(-4.183 -6.943)" fill="none" stroke="#2a77d1" stroke-linejoin="round" stroke-miterlimit="10" stroke-width="1"/>
  <path id="Path_289" data-name="Path 289" d="M19.084,29.314l.893-4.32" transform="translate(-5.301 -6.943)" fill="none" stroke="#2a77d1" stroke-linejoin="round" stroke-miterlimit="10" stroke-width="1"/>
  <path id="Path_290" data-name="Path 290" d="M24.366,26.518l-3.65-3.652,2.629-5.634" transform="translate(-5.755 -4.787)" fill="none" stroke="#2a77d1" stroke-linejoin="round" stroke-miterlimit="10" stroke-width="1"/>
</svg>
