<?xml version="1.0" encoding="UTF-8"?>
<!DOCTYPE svg PUBLIC "-//W3C//DTD SVG 1.1//EN" "http://www.w3.org/Graphics/SVG/1.1/DTD/svg11.dtd">
<!-- Creator: CorelDRAW 2020 (64-Bit) -->
<svg xmlns="http://www.w3.org/2000/svg" xml:space="preserve" width="36px" height="36px" version="1.1" style="shape-rendering:geometricPrecision; text-rendering:geometricPrecision; image-rendering:optimizeQuality; fill-rule:evenodd; clip-rule:evenodd"
viewBox="0 0 360 360"
 xmlns:xlink="http://www.w3.org/1999/xlink"
 xmlns:xodm="http://www.corel.com/coreldraw/odm/2003">
 <defs>
  <style type="text/css">
   <![CDATA[
    .fil0 {fill:none}
    .fil1 {fill:#6FC7B6}
   ]]>
  </style>
 </defs>
 <g id="Default">
  <metadata id="CorelCorpID_0Corel-Layer"/>
  <g id="_1678919119904">
   <rect class="fil0" width="360" height="360"/>
   <path class="fil1" d="M189 331c43,0 85,0 128,0 6,0 11,-5 11,-11 0,-94 0,-187 0,-281 0,-6 -5,-11 -11,-11 -43,0 -85,0 -128,0 -7,0 -13,6 -13,13 0,92 0,185 0,277 0,7 6,13 13,13zm74 -22l43 0 0 -65 -43 0 0 65zm-65 -151l43 0 0 -43 -43 0 0 43zm0 65l43 0 0 -43 -43 0 0 43zm0 65l43 0 0 -43 -43 0 0 43zm0 -194l43 0 0 -43 -43 0 0 43zm65 65l43 0 0 -43 -43 0 0 43zm0 65l43 0 0 -43 -43 0 0 43zm0 -130l43 0 0 -43 -43 0 0 43zm-115 182c2,1 3,3 3,6 0,3 -1,4 -3,6 -13,7 -26,13 -39,20 -4,2 -6,1 -8,-3 -2,-4 -1,-6 3,-8 5,-3 11,-5 16,-8 -27,0 -54,0 -81,0 -4,0 -6,-2 -6,-6 0,-4 2,-6 6,-6 27,0 54,0 81,0 -5,-3 -11,-5 -16,-8 -4,-2 -5,-5 -3,-8 2,-4 5,-5 8,-3 13,7 26,13 39,20 4,2 5,5 3,8l-3 -8zm-3 -35c-36,0 -71,0 -107,0 -4,0 -6,-2 -6,-6 0,-4 2,-6 6,-6 36,0 71,0 107,0 4,0 6,2 6,6 0,4 -2,6 -6,6zm0 91c-36,0 -71,0 -107,0 -4,0 -6,-2 -6,-6 0,-4 2,-6 6,-6 36,0 71,0 107,0 4,0 6,2 6,6 0,4 -2,6 -6,6z"/>
  </g>
 </g>
</svg>
