<?xml version="1.0" encoding="UTF-8"?>
<!DOCTYPE svg PUBLIC "-//W3C//DTD SVG 1.1//EN" "http://www.w3.org/Graphics/SVG/1.1/DTD/svg11.dtd">
<!-- Creator: CorelDRAW 2020 (64-Bit) -->
<svg xmlns="http://www.w3.org/2000/svg" xml:space="preserve" width="36px" height="36px" version="1.1" style="shape-rendering:geometricPrecision; text-rendering:geometricPrecision; image-rendering:optimizeQuality; fill-rule:evenodd; clip-rule:evenodd"
viewBox="0 0 360 360"
 xmlns:xlink="http://www.w3.org/1999/xlink"
 xmlns:xodm="http://www.corel.com/coreldraw/odm/2003">
 <defs>
  <style type="text/css">
   <![CDATA[
    .fil0 {fill:none}
    .fil1 {fill:#6e6e6e}
   ]]>
  </style>
 </defs>
 <g id="Default">
  <metadata id="CorelCorpID_0Corel-Layer"/>
  <g id="_2851691016960">
   <rect class="fil0" width="360" height="360"/>
   <path class="fil1" d="M189 331c41,0 83,0 124,0 6,0 10,-5 10,-10 0,-91 0,-181 0,-272 0,-6 -5,-10 -10,-10 -41,0 -83,0 -124,0 -7,0 -12,5 -12,12 0,89 0,179 0,268 0,7 5,12 12,12zm9 -167l42 0 0 -42 -42 0 0 42zm63 146l42 0 0 -63 -42 0 0 63zm0 -209l42 0 0 -42 -42 0 0 42zm0 126l42 0 0 -42 -42 0 0 42zm0 -63l42 0 0 -42 -42 0 0 42zm-63 -63l42 0 0 -42 -42 0 0 42zm0 188l42 0 0 -42 -42 0 0 42zm0 -63l42 0 0 -42 -42 0 0 42zm-51 -98c-35,0 -69,0 -104,0 -4,0 -6,-2 -6,-6 0,-4 2,-6 6,-6 35,0 69,0 104,0 4,0 6,2 6,6 0,4 -2,6 -6,6zm0 -88c-35,0 -69,0 -104,0 -4,0 -6,-2 -6,-6 0,-4 2,-6 6,-6 35,0 69,0 104,0 4,0 6,2 6,6 0,4 -2,6 -6,6zm3 34c2,1 3,3 3,5 0,3 -1,4 -3,5 -13,6 -25,13 -38,19 -4,2 -6,1 -8,-3 -2,-4 -1,-6 3,-8 5,-3 10,-5 15,-8 -26,0 -52,0 -78,0 -4,0 -6,-2 -6,-6 0,-4 2,-6 6,-6 26,0 52,0 78,0 -5,-3 -10,-5 -15,-8 -4,-2 -5,-4 -3,-8 2,-4 4,-5 8,-3 13,6 25,13 38,19 4,2 5,4 3,8l-3 -8z"/>
  </g>
 </g>
</svg>
