<?xml version="1.0" encoding="UTF-8"?>
<!DOCTYPE svg PUBLIC "-//W3C//DTD SVG 1.1//EN" "http://www.w3.org/Graphics/SVG/1.1/DTD/svg11.dtd">
<!-- Creator: CorelDRAW 2020 (64-Bit) -->
<svg xmlns="http://www.w3.org/2000/svg" xml:space="preserve" width="36px" height="36px" version="1.1" style="shape-rendering:geometricPrecision; text-rendering:geometricPrecision; image-rendering:optimizeQuality; fill-rule:evenodd; clip-rule:evenodd"
viewBox="0 0 360 360"
 xmlns:xlink="http://www.w3.org/1999/xlink"
 xmlns:xodm="http://www.corel.com/coreldraw/odm/2003">
 <defs>
  <style type="text/css">
   <![CDATA[
    .fil0 {fill:none}
    .fil1 {fill:#268FA3}
   ]]>
  </style>
 </defs>
 <g id="Default">
  <metadata id="CorelCorpID_0Corel-Layer"/>
  <g id="_2888121967280">
   <rect class="fil0" width="360" height="360"/>
   <path class="fil1" d="M201 74c39,0 78,0 117,0 7,0 13,6 13,13 0,71 0,142 0,212 0,7 -6,13 -13,13 -92,0 -185,0 -277,0 -7,0 -13,-6 -13,-13 0,-71 0,-142 0,-212 0,-7 6,-13 13,-13 39,0 78,0 117,0 0,12 10,21 21,21 12,0 21,-10 21,-21zm-21 177l93 0c4,0 7,3 7,7 0,4 -3,7 -7,7l-93 0c-4,0 -7,-3 -7,-7 0,-4 3,-7 7,-7zm0 -76l93 0c4,0 7,3 7,7 0,4 -3,7 -7,7l-93 0c-4,0 -7,-3 -7,-7 0,-4 3,-7 7,-7zm0 25l93 0c4,0 7,3 7,7 0,4 -3,7 -7,7l-93 0c-4,0 -7,-3 -7,-7 0,-4 3,-7 7,-7zm0 25l93 0c4,0 7,3 7,7 0,4 -3,7 -7,7l-93 0c-4,0 -7,-3 -7,-7 0,-4 3,-7 7,-7zm6 -79c19,0 38,0 57,0 7,0 13,-6 13,-13 0,-7 -6,-13 -13,-13 -19,0 -38,0 -57,0 -7,0 -13,6 -13,13 0,7 6,13 13,13zm-69 25c-14,0 -25,11 -25,25 0,14 11,25 25,25 14,0 25,-11 25,-25 0,-14 -11,-25 -25,-25zm-23 51c13,11 32,11 45,0 13,10 20,27 22,42 -29,0 -59,0 -88,0 2,-16 8,-32 22,-42zm-40 63l252 0 0 -187 -252 0 0 187zm126 -200c-7,0 -13,-6 -13,-13 0,-4 0,-8 0,-13 0,-7 6,-13 13,-13 7,0 13,6 13,13 0,4 0,8 0,13 0,7 -6,13 -13,13z"/>
  </g>
 </g>
</svg>
