<?xml version="1.0" encoding="UTF-8"?>
<!DOCTYPE svg PUBLIC "-//W3C//DTD SVG 1.1//EN" "http://www.w3.org/Graphics/SVG/1.1/DTD/svg11.dtd">
<!-- Creator: CorelDRAW 2020 (64-Bit) -->
<svg xmlns="http://www.w3.org/2000/svg" xml:space="preserve" width="36px" height="36px" version="1.1" style="shape-rendering:geometricPrecision; text-rendering:geometricPrecision; image-rendering:optimizeQuality; fill-rule:evenodd; clip-rule:evenodd"
viewBox="0 0 360 360"
 xmlns:xlink="http://www.w3.org/1999/xlink"
 xmlns:xodm="http://www.corel.com/coreldraw/odm/2003">
 <defs>
  <style type="text/css">
   <![CDATA[
    .fil0 {fill:none}
    .fil1 {fill:#004A5D;fill-rule:nonzero}
   ]]>
  </style>
 </defs>
 <g id="Default">
  <metadata id="CorelCorpID_0Corel-Layer"/>
  <g id="_1676566227120">
   <rect class="fil0" width="360" height="360"/>
   <path class="fil1" d="M221 51c-5,10 -10,21 -16,31 -2,4 -6,6 -10,6 -9,0 -18,0 -27,0 17,-17 34,-34 51,-51 3,4 5,8 2,13zm-62 268c4,5 8,10 12,16 4,6 13,6 17,0 11,-14 22,-28 33,-41 2,-3 3,-5 2,-8 -1,-9 -2,-19 -3,-28 -21,21 -41,41 -62,62zm-8 -163c-1,12 -3,24 -4,36 20,-20 40,-40 59,-59 -1,-8 -2,-15 -3,-23 0,-2 -1,-3 -2,-4 -17,17 -34,34 -51,51zm-11 97c-1,11 -3,21 -4,32 0,1 0,2 0,3 26,-26 53,-53 79,-79 -1,-9 -2,-19 -3,-28 -24,24 -48,48 -72,72zm56 -152c-1,0 -2,-1 -3,-1 -8,0 -17,0 -25,0 -6,0 -10,4 -11,10 -1,11 -3,23 -4,34 14,-14 29,-29 43,-43zm-53 -40c13,-13 25,-25 38,-38 -6,0 -13,0 -19,0 -3,0 -6,1 -8,3 -4,4 -9,9 -13,13 -3,3 -4,9 -2,13 1,3 3,6 4,9zm11 23c-3,-5 -5,-10 -8,-15 15,-15 30,-30 46,-45 2,0 3,0 5,0 3,0 6,1 8,3 3,3 5,5 8,8 -18,18 -36,36 -54,54 -2,-1 -3,-3 -4,-5zm-9 122l-4 36 69 -69 -3 -28 -62 62zm-5 91l14 18 66 -66 -3 -28 -76 76z"/>
  </g>
 </g>
</svg>
