<?xml version="1.0" encoding="UTF-8"?>
<!DOCTYPE svg PUBLIC "-//W3C//DTD SVG 1.1//EN" "http://www.w3.org/Graphics/SVG/1.1/DTD/svg11.dtd">
<!-- Creator: CorelDRAW 2020 (64-Bit) -->
<svg xmlns="http://www.w3.org/2000/svg" xml:space="preserve" width="36px" height="36px" version="1.1" style="shape-rendering:geometricPrecision; text-rendering:geometricPrecision; image-rendering:optimizeQuality; fill-rule:evenodd; clip-rule:evenodd"
viewBox="0 0 360 360"
 xmlns:xlink="http://www.w3.org/1999/xlink"
 xmlns:xodm="http://www.corel.com/coreldraw/odm/2003">
 <defs>
  <style type="text/css">
   <![CDATA[
    .fil0 {fill:none}
    .fil1 {fill:#AB0534}
   ]]>
  </style>
 </defs>
 <g id="Default">
  <metadata id="CorelCorpID_0Corel-Layer"/>
  <g id="_1676771162144">
   <rect class="fil0" width="360" height="360"/>
   <path class="fil1" d="M272 219c-27,-27 -54,-54 -80,-81 -3,-3 -8,-3 -11,0 -11,11 -22,22 -33,32 -6,6 -16,6 -22,0 -6,-6 -6,-16 0,-22 11,-11 22,-22 33,-32 15,-14 36,-22 65,-21 4,-4 7,-7 11,-11 22,22 43,44 65,65 -4,4 -7,7 -11,11 0,25 -6,45 -17,59zm-228 -106c-5,0 -9,4 -9,9 0,5 4,9 9,9 5,0 9,-4 9,-9 0,-5 -4,-9 -9,-9zm272 0c5,0 9,4 9,9 0,5 -4,9 -9,9 -5,0 -9,-4 -9,-9 0,-5 4,-9 9,-9zm-193 -55c-7,-7 -14,-14 -21,-22 -4,-5 -12,-5 -16,0 -24,23 -47,47 -71,70 -5,4 -5,12 0,16 7,7 14,14 21,22 4,5 12,5 16,0 24,-23 47,-47 71,-70 5,-4 5,-12 0,-16zm89 242c6,6 16,6 22,0 6,-6 6,-16 0,-22 6,6 16,6 22,0 6,-6 6,-16 0,-22 6,6 16,6 22,0 6,-6 6,-16 0,-22 -31,-31 -61,-62 -92,-92 -11,11 -22,22 -33,32 -9,9 -24,9 -33,0 -9,-9 -9,-24 0,-33 11,-11 22,-22 33,-32 5,-5 10,-9 16,-12 -10,-3 -20,-4 -32,-4 -4,-4 -7,-7 -11,-11 -22,22 -44,43 -65,65 4,4 7,7 11,11 0,25 5,45 16,59 4,-4 8,-8 12,-12 5,-4 10,-6 16,-5 12,1 22,10 22,22 12,1 21,10 22,22 12,1 21,10 22,22 12,1 21,11 22,23 0,6 -2,11 -6,16 -4,4 -8,8 -12,12 2,2 3,3 5,5 6,6 16,6 22,0 6,-6 6,-16 0,-22zm-65 21c7,7 16,6 23,-1 6,-6 12,-12 18,-18 7,-6 10,-14 4,-23 -5,-7 -16,-8 -23,-2 13,-14 -7,-35 -22,-22 13,-14 -7,-35 -22,-22 6,-7 5,-17 -2,-23 -8,-6 -16,-3 -23,4 -6,6 -12,12 -18,18 -7,6 -8,16 -1,23 6,6 15,6 21,1 -6,6 -5,15 0,21 6,6 15,6 21,1 -6,6 -5,15 0,21 6,6 15,6 21,1 -6,6 -5,15 0,21zm90 -264c7,-7 14,-14 21,-22 4,-5 12,-5 16,0 24,23 47,47 71,70 5,4 5,12 0,16 -7,7 -14,14 -21,22 -4,5 -12,5 -16,0 -24,-23 -47,-47 -71,-70 -5,-4 -5,-12 0,-16z"/>
  </g>
 </g>
</svg>
