<?xml version="1.0" encoding="UTF-8"?>
<!DOCTYPE svg PUBLIC "-//W3C//DTD SVG 1.1//EN" "http://www.w3.org/Graphics/SVG/1.1/DTD/svg11.dtd">
<!-- Creator: CorelDRAW -->
<svg xmlns="http://www.w3.org/2000/svg" xml:space="preserve" width="36px" height="36px" version="1.1" style="shape-rendering:geometricPrecision; text-rendering:geometricPrecision; image-rendering:optimizeQuality; fill-rule:evenodd; clip-rule:evenodd"
viewBox="0 0 36 36"
 xmlns:xlink="http://www.w3.org/1999/xlink"
 xmlns:xodm="http://www.corel.com/coreldraw/odm/2003">
 <defs>
  <style type="text/css">
   <![CDATA[
    .fil0 {fill:none}
    .fil1 {fill:#6FC7B6}
   ]]>
  </style>
 </defs>
 <g id="Default">
  <metadata id="CorelCorpID_0Corel-Layer"/>
  <g id="_1654068480816">
   <rect class="fil0" width="36" height="36"/>
   <path class="fil1" d="M8.567 24.259c-0.78,0 -1.559,0 -2.339,0 -0.208,0 -0.355,0.061 -0.502,0.208 -0.515,0.515 -1.03,1.03 -1.545,1.545 -0.223,0.223 -0.065,0.606 0.252,0.606 1.377,0 2.755,0 4.134,0l0.011 0 1.397 0 0.012 0c1.695,0 3.391,0 5.087,0 0.316,0 0.475,-0.383 0.251,-0.606 -0.515,-0.515 -1.03,-1.03 -1.545,-1.545 -0.146,-0.147 -0.294,-0.208 -0.502,-0.208 -1.097,0 -2.194,0 -3.291,0l-0.012 0 -1.397 0 -0.011 0zm18.867 -0.003c0.779,0 1.559,0 2.338,0 0.208,0 0.355,-0.06 0.502,-0.207 0.515,-0.516 1.03,-1.03 1.545,-1.545 0.223,-0.224 0.065,-0.606 -0.252,-0.606 -1.377,0 -2.755,0 -4.133,0l-0.012 0 -1.397 0 -0.011 0c-1.696,0 -3.392,0 -5.088,0 -0.316,0 -0.474,0.382 -0.251,0.606 0.515,0.515 1.03,1.029 1.545,1.545 0.147,0.147 0.294,0.207 0.502,0.207 1.097,0 2.194,0 3.292,0l0.011 0 1.397 0 0.012 0zm2.39 -6.39c-0.588,0 -1.065,-0.477 -1.065,-1.065 0,-0.588 0.477,-1.065 1.065,-1.065 0.588,0 1.065,0.477 1.065,1.065 0,0.588 -0.477,1.065 -1.065,1.065zm-10.678 0c0.589,0 1.065,-0.477 1.065,-1.065 0,-0.588 -0.476,-1.065 -1.065,-1.065 -0.588,0 -1.065,0.477 -1.065,1.065 0,0.588 0.477,1.065 1.065,1.065zm0 1.42c1.373,0 2.486,-1.113 2.486,-2.485 0,-1.373 -1.113,-2.485 -2.486,-2.485 -1.372,0 -2.485,1.112 -2.485,2.485 0,1.372 1.113,2.485 2.485,2.485zm3.169 -2.485c0,1.75 -1.419,3.168 -3.169,3.168 -1.75,0 -3.168,-1.418 -3.168,-3.168 -0.127,0 -0.255,0 -0.382,0 -0.392,0 -0.71,0.318 -0.71,0.71 0,0.814 0,1.627 0,2.441 0,0.652 0.443,1.22 1.076,1.378 0.776,0.194 1.553,0.388 2.329,0.582 0.263,0.066 0.469,0.183 0.66,0.374 0.873,0.873 1.746,1.746 2.62,2.62 0.294,0.293 0.589,0.415 1.004,0.415 2.448,0 4.896,0 7.344,0 0.415,0 0.71,-0.122 1.004,-0.415 0.954,-0.954 1.907,-1.908 2.861,-2.861 0.294,-0.294 0.416,-0.589 0.416,-1.005 0,-1.176 0,-2.353 0,-3.529 0,-0.392 -0.318,-0.711 -0.711,-0.71 -0.165,0 -0.331,0 -0.497,0 0,1.75 -1.418,3.168 -3.168,3.168 -1.75,0 -3.169,-1.418 -3.169,-3.168 -1.447,0 -2.893,0 -4.34,0zm7.509 2.485c-1.373,0 -2.485,-1.113 -2.485,-2.485 0,-1.373 1.112,-2.485 2.485,-2.485 1.372,0 2.485,1.112 2.485,2.485 0,1.372 -1.113,2.485 -2.485,2.485zm-21.257 -16.421c-0.78,0 -1.559,0 -2.339,0 -0.208,0 -0.355,0.061 -0.502,0.208 -0.515,0.515 -1.03,1.03 -1.545,1.545 -0.223,0.223 -0.065,0.606 0.252,0.606 1.377,0 2.755,0 4.134,0l0.011 0 1.397 0 0.012 0c1.695,0 3.391,0 5.087,0 0.316,0 0.475,-0.383 0.251,-0.606 -0.515,-0.515 -1.03,-1.03 -1.545,-1.545 -0.146,-0.147 -0.294,-0.208 -0.502,-0.208 -1.097,0 -2.194,0 -3.291,0l-0.012 0 -1.397 0 -0.011 0zm-2.391 6.391c0.588,0 1.065,0.477 1.065,1.064 0,0.589 -0.477,1.066 -1.065,1.066 -0.588,0 -1.065,-0.477 -1.065,-1.066 0,-0.587 0.477,-1.064 1.065,-1.064zm10.678 0c-0.589,0 -1.065,0.477 -1.065,1.064 0,0.589 0.476,1.066 1.065,1.066 0.588,0 1.065,-0.477 1.065,-1.066 0,-0.587 -0.477,-1.064 -1.065,-1.064zm0 -1.42c-1.373,0 -2.486,1.112 -2.486,2.484 0,1.373 1.113,2.486 2.486,2.486 1.372,0 2.485,-1.113 2.485,-2.486 0,-1.372 -1.113,-2.484 -2.485,-2.484zm-3.169 2.484c0,-1.749 1.419,-3.168 3.169,-3.168 1.75,0 3.168,1.419 3.168,3.168 0.127,0 0.255,0 0.382,0 0.392,0 0.71,-0.317 0.71,-0.71 0,-0.813 0,-1.627 0,-2.441 0,-0.651 -0.443,-1.219 -1.076,-1.378 -0.776,-0.194 -1.553,-0.388 -2.329,-0.582 -0.263,-0.065 -0.469,-0.182 -0.66,-0.374 -0.873,-0.873 -1.746,-1.746 -2.62,-2.619 -0.293,-0.294 -0.588,-0.416 -1.003,-0.416 -2.449,0 -4.897,0 -7.345,0 -0.415,0 -0.71,0.122 -1.004,0.416 -0.954,0.954 -1.907,1.907 -2.861,2.861 -0.294,0.294 -0.416,0.589 -0.416,1.004 0,1.177 0,2.353 0,3.529 0,0.393 0.318,0.711 0.711,0.71 0.165,0 0.331,0 0.497,0 0,-1.749 1.418,-3.168 3.168,-3.168 1.75,0 3.169,1.419 3.169,3.168 1.447,0 2.893,0 4.34,0zm-7.509 -2.484c1.373,0 2.485,1.112 2.485,2.484 0,1.373 -1.112,2.486 -2.485,2.486 -1.372,0 -2.485,-1.113 -2.485,-2.486 0,-1.372 1.113,-2.484 2.485,-2.484zm0 22.814c0.588,0 1.065,0.477 1.065,1.065 0,0.588 -0.477,1.065 -1.065,1.065 -0.588,0 -1.065,-0.477 -1.065,-1.065 0,-0.588 0.477,-1.065 1.065,-1.065zm10.678 0c-0.589,0 -1.065,0.477 -1.065,1.065 0,0.588 0.476,1.065 1.065,1.065 0.588,0 1.065,-0.477 1.065,-1.065 0,-0.588 -0.477,-1.065 -1.065,-1.065zm0 -1.421c-1.373,0 -2.486,1.113 -2.486,2.486 0,1.372 1.113,2.485 2.486,2.485 1.372,0 2.485,-1.113 2.485,-2.485 0,-1.373 -1.113,-2.486 -2.485,-2.486zm-3.169 2.486c0,-1.75 1.419,-3.169 3.169,-3.169 1.75,0 3.168,1.419 3.168,3.169 0.127,0 0.255,0 0.382,0 0.392,0 0.71,-0.318 0.71,-0.71 0,-0.814 0,-1.628 0,-2.442 0,-0.651 -0.443,-1.219 -1.076,-1.378 -0.776,-0.194 -1.553,-0.388 -2.329,-0.582 -0.263,-0.066 -0.469,-0.182 -0.66,-0.374 -0.873,-0.873 -1.746,-1.746 -2.62,-2.619 -0.293,-0.294 -0.588,-0.416 -1.003,-0.416 -2.449,0 -4.897,0 -7.345,0 -0.415,0 -0.71,0.122 -1.004,0.416 -0.954,0.953 -1.907,1.907 -2.861,2.861 -0.294,0.294 -0.416,0.589 -0.416,1.004 0,1.177 0,2.353 0,3.53 0,0.392 0.318,0.71 0.711,0.71 0.165,0 0.331,0 0.497,0 0,-1.75 1.418,-3.169 3.168,-3.169 1.75,0 3.169,1.419 3.169,3.169 1.447,0 2.893,0 4.34,0zm-7.509 -2.486c1.373,0 2.485,1.113 2.485,2.486 0,1.372 -1.112,2.485 -2.485,2.485 -1.372,0 -2.485,-1.113 -2.485,-2.485 0,-1.373 1.113,-2.486 2.485,-2.486z"/>
  </g>
 </g>
</svg>
