<?xml version="1.0" encoding="UTF-8"?>
<!DOCTYPE svg PUBLIC "-//W3C//DTD SVG 1.1//EN" "http://www.w3.org/Graphics/SVG/1.1/DTD/svg11.dtd">
<!-- Creator: CorelDRAW -->
<svg xmlns="http://www.w3.org/2000/svg" xml:space="preserve" width="36px" height="36px" version="1.1" style="shape-rendering:geometricPrecision; text-rendering:geometricPrecision; image-rendering:optimizeQuality; fill-rule:evenodd; clip-rule:evenodd"
viewBox="0 0 36 36"
 xmlns:xlink="http://www.w3.org/1999/xlink"
 xmlns:xodm="http://www.corel.com/coreldraw/odm/2003">
 <defs>
  <style type="text/css">
   <![CDATA[
    .fil0 {fill:#6E6E6E}
   ]]>
  </style>
 </defs>
 <g id="Default">
  <metadata id="CorelCorpID_0Corel-Layer"/>
  <g id="_1652368590976">
   <path class="fil0" d="M21.182 32.85l10.607 0 0 -3.182 -10.607 0 0 3.182zm-9.546 -21.214l12.728 0 0 -7.426 -12.728 0 0 7.426zm14.85 18.563c-0.586,0 -1.061,0.474 -1.061,1.06 0,0.586 0.475,1.061 1.061,1.061 0.586,0 1.061,-0.475 1.061,-1.061 0,-0.586 -0.475,-1.06 -1.061,-1.06zm0 -4.244c-0.586,0 -1.061,0.475 -1.061,1.061 0,0.586 0.475,1.061 1.061,1.061 0.586,0 1.061,-0.475 1.061,-1.061 0,-0.586 -0.475,-1.061 -1.061,-1.061zm0 -4.242c-0.586,0 -1.061,0.475 -1.061,1.06 0,0.586 0.475,1.061 1.061,1.061 0.586,0 1.061,-0.475 1.061,-1.061 0,-0.585 -0.475,-1.06 -1.061,-1.06zm-7.956 -7.956c1.945,0 3.89,0 5.834,0 0.586,0 1.061,-0.475 1.061,-1.061 0,-2.828 0,-5.657 0,-8.486 0,-0.585 -0.475,-1.06 -1.061,-1.06 -4.243,0 -8.485,0 -12.728,0 -0.586,0 -1.061,0.475 -1.061,1.06 0,2.829 0,5.658 0,8.486 0,0.586 0.475,1.061 1.061,1.061 1.944,0 3.889,0 5.834,0 0,0.53 0,1.061 0,1.591 0,0.293 -0.238,0.53 -0.531,0.53 -0.884,0 -1.768,0 -2.652,0 -0.293,0 -0.53,0.238 -0.53,0.531 0,0.293 0.237,0.53 0.53,0.53 2.475,0 4.951,0 7.426,0 0.292,0 0.53,-0.237 0.53,-0.53 0,-0.293 -0.238,-0.531 -0.53,-0.531 -0.884,0 -1.768,0 -2.652,0 -0.293,0 -0.531,-0.237 -0.531,-0.53 0,-0.53 0,-1.061 0,-1.591zm-14.319 6.365l27.578 0 0 -2.122 -27.578 0 0 2.122zm0 12.728l2.121 0 0 -11.668 -2.121 0 0 11.668zm16.971 -8.486l10.607 0 0 -3.182 -10.607 0 0 3.182zm0 4.243l10.607 0 0 -3.182 -10.607 0 0 3.182z"/>
  </g>
 </g>
</svg>
