<?xml version="1.0" encoding="UTF-8"?>
<!DOCTYPE svg PUBLIC "-//W3C//DTD SVG 1.1//EN" "http://www.w3.org/Graphics/SVG/1.1/DTD/svg11.dtd">
<!-- Creator: CorelDRAW -->
<svg xmlns="http://www.w3.org/2000/svg" xml:space="preserve" width="36px" height="36px" version="1.1" style="shape-rendering:geometricPrecision; text-rendering:geometricPrecision; image-rendering:optimizeQuality; fill-rule:evenodd; clip-rule:evenodd"
viewBox="0 0 36 36"
 xmlns:xlink="http://www.w3.org/1999/xlink"
 xmlns:xodm="http://www.corel.com/coreldraw/odm/2003">
 <defs>
  <style type="text/css">
   <![CDATA[
    .fil0 {fill:#268FA3}
   ]]>
  </style>
 </defs>
 <g id="Default">
  <metadata id="CorelCorpID_0Corel-Layer"/>
  <g id="_1615610760848">
   <path class="fil0" d="M15.479 26.21c-0.799,-1.294 -0.398,-2.99 0.896,-3.788 1.294,-0.799 2.99,-0.397 3.788,0.896 0.799,1.294 0.398,2.99 -0.896,3.789 -1.294,0.798 -2.99,0.397 -3.788,-0.897zm10.652 -17.339c0.001,-0.66 0.535,-1.195 1.195,-1.195 0.66,0 1.194,0.535 1.195,1.195 0,0.659 -0.535,1.194 -1.195,1.194 -0.659,0 -1.194,-0.535 -1.195,-1.194zm-4.31 3.404c-0.265,0.11 -0.569,-0.016 -0.678,-0.281 -0.133,-0.32 -0.265,-0.64 -0.398,-0.96 -0.11,-0.265 0.016,-0.568 0.281,-0.678 0.515,-0.213 1.03,-0.427 1.544,-0.64 -0.101,-0.572 -0.101,-1.119 0,-1.691 -0.514,-0.213 -1.029,-0.426 -1.544,-0.64 -0.265,-0.109 -0.391,-0.413 -0.281,-0.678 0.133,-0.32 0.265,-0.64 0.398,-0.96 0.109,-0.265 0.413,-0.391 0.678,-0.281 0.515,0.213 1.03,0.427 1.544,0.64 0.333,-0.477 0.72,-0.863 1.196,-1.196 -0.213,-0.515 -0.426,-1.029 -0.639,-1.544 -0.11,-0.265 0.016,-0.569 0.281,-0.679 0.319,-0.132 0.64,-0.265 0.959,-0.397 0.265,-0.11 0.569,0.016 0.679,0.281 0.213,0.515 0.427,1.029 0.64,1.544 0.572,-0.102 1.119,-0.102 1.69,0 0.214,-0.515 0.427,-1.029 0.64,-1.544 0.11,-0.265 0.414,-0.391 0.679,-0.281 0.32,0.132 0.64,0.265 0.959,0.397 0.265,0.11 0.392,0.414 0.282,0.679 -0.213,0.515 -0.427,1.029 -0.64,1.544 0.476,0.333 0.863,0.719 1.196,1.196 0.515,-0.213 1.029,-0.427 1.544,-0.64 0.265,-0.11 0.569,0.016 0.679,0.281 0.132,0.32 0.265,0.64 0.397,0.96 0.11,0.265 -0.016,0.569 -0.281,0.678 -0.515,0.214 -1.029,0.427 -1.544,0.64 0.102,0.572 0.102,1.119 0,1.691 0.515,0.213 1.029,0.427 1.544,0.64 0.265,0.11 0.391,0.413 0.281,0.678 -0.132,0.32 -0.265,0.64 -0.397,0.96 -0.11,0.265 -0.414,0.391 -0.679,0.281 -0.515,-0.213 -1.029,-0.426 -1.544,-0.639 -0.333,0.476 -0.72,0.863 -1.196,1.195 0.213,0.515 0.427,1.03 0.64,1.545 0.11,0.264 -0.017,0.568 -0.282,0.678 -0.319,0.133 -0.639,0.265 -0.959,0.398 -0.265,0.11 -0.569,-0.016 -0.679,-0.281 -0.213,-0.515 -0.426,-1.03 -0.64,-1.545 -0.571,0.102 -1.118,0.102 -1.69,0 -0.213,0.515 -0.427,1.03 -0.64,1.545 -0.11,0.265 -0.414,0.391 -0.679,0.281 -0.319,-0.133 -0.64,-0.265 -0.959,-0.398 -0.265,-0.11 -0.391,-0.414 -0.281,-0.678 0.213,-0.515 0.426,-1.03 0.639,-1.545 -0.476,-0.332 -0.863,-0.719 -1.196,-1.195 -0.514,0.213 -1.029,0.426 -1.544,0.639zm3.049 -4.646c0.685,-1.357 2.341,-1.901 3.698,-1.215 1.357,0.686 1.901,2.342 1.215,3.699 -0.686,1.356 -2.342,1.9 -3.699,1.214 -1.357,-0.686 -1.9,-2.342 -1.214,-3.698zm-17.143 5.056c-0.105,-0.651 0.338,-1.265 0.989,-1.37 0.651,-0.105 1.264,0.337 1.37,0.989 0.105,0.651 -0.338,1.264 -0.989,1.37 -0.651,0.105 -1.265,-0.338 -1.37,-0.989zm5.984 14.617c-1.401,-2.271 -0.697,-5.247 1.573,-6.648 2.27,-1.401 5.247,-0.697 6.648,1.573 1.401,2.271 0.697,5.246 -1.574,6.648 -2.27,1.401 -5.246,0.697 -6.647,-1.573zm-7.522 -14.368c-0.242,-1.501 0.777,-2.914 2.278,-3.157 1.501,-0.243 2.915,0.777 3.157,2.278 0.243,1.501 -0.777,2.914 -2.278,3.157 -1.501,0.243 -2.915,-0.778 -3.157,-2.278zm0.265 5.55c-0.15,0.245 -0.469,0.322 -0.714,0.172 -0.295,-0.181 -0.59,-0.362 -0.886,-0.543 -0.244,-0.15 -0.321,-0.47 -0.171,-0.714 0.291,-0.475 0.582,-0.95 0.873,-1.425 -0.418,-0.403 -0.74,-0.846 -0.994,-1.368 -0.542,0.13 -1.083,0.26 -1.625,0.39 -0.279,0.067 -0.559,-0.105 -0.626,-0.384 -0.081,-0.337 -0.162,-0.673 -0.243,-1.01 -0.067,-0.279 0.105,-0.56 0.384,-0.626 0.542,-0.13 1.083,-0.26 1.625,-0.391 -0.011,-0.58 0.075,-1.121 0.265,-1.67 -0.475,-0.291 -0.95,-0.582 -1.426,-0.873 -0.244,-0.15 -0.321,-0.47 -0.171,-0.714 0.181,-0.296 0.362,-0.591 0.543,-0.886 0.15,-0.245 0.469,-0.321 0.714,-0.171 0.475,0.291 0.95,0.582 1.425,0.873 0.403,-0.419 0.846,-0.74 1.368,-0.994 -0.13,-0.542 -0.26,-1.084 -0.39,-1.625 -0.067,-0.279 0.105,-0.56 0.384,-0.626 0.336,-0.081 0.673,-0.162 1.01,-0.243 0.279,-0.067 0.559,0.105 0.626,0.384 0.13,0.542 0.26,1.083 0.39,1.625 0.581,-0.011 1.122,0.074 1.671,0.264 0.291,-0.475 0.582,-0.95 0.873,-1.425 0.15,-0.244 0.469,-0.321 0.714,-0.171 0.296,0.181 0.591,0.362 0.886,0.543 0.244,0.15 0.321,0.47 0.171,0.714 -0.29,0.475 -0.582,0.95 -0.873,1.425 0.419,0.403 0.74,0.846 0.994,1.368 0.542,-0.13 1.083,-0.26 1.625,-0.39 0.279,-0.067 0.56,0.105 0.626,0.384 0.082,0.337 0.162,0.673 0.243,1.01 0.067,0.278 -0.105,0.559 -0.384,0.626 -0.541,0.13 -1.083,0.26 -1.625,0.39 0.011,0.581 -0.075,1.121 -0.265,1.671 0.475,0.291 0.95,0.582 1.426,0.873 0.244,0.15 0.321,0.469 0.171,0.714 -0.181,0.295 -0.362,0.59 -0.543,0.886 -0.149,0.244 -0.469,0.321 -0.714,0.171 -0.475,-0.291 -0.95,-0.582 -1.425,-0.873 -0.403,0.418 -0.846,0.74 -1.368,0.994 0.13,0.542 0.26,1.083 0.39,1.625 0.067,0.279 -0.105,0.559 -0.384,0.626 -0.336,0.081 -0.673,0.162 -1.01,0.243 -0.279,0.067 -0.559,-0.105 -0.626,-0.384 -0.13,-0.542 -0.26,-1.083 -0.391,-1.625 -0.58,0.011 -1.121,-0.075 -1.67,-0.265 -0.291,0.475 -0.582,0.95 -0.873,1.425zm10.328 -2.186c0,-0.287 0.233,-0.519 0.52,-0.519 0.346,0 0.692,0 1.039,0 0.286,0 0.519,0.232 0.519,0.519 0,0.546 0,1.091 0,1.637 0.759,0.116 1.453,0.341 2.135,0.694 0.321,-0.442 0.641,-0.883 0.962,-1.325 0.169,-0.232 0.494,-0.283 0.725,-0.115 0.281,0.204 0.561,0.407 0.841,0.611 0.232,0.169 0.283,0.493 0.115,0.726 -0.321,0.441 -0.642,0.882 -0.962,1.324 0.546,0.539 0.975,1.129 1.319,1.816 0.519,-0.169 1.038,-0.337 1.557,-0.506 0.273,-0.088 0.566,0.061 0.654,0.334 0.107,0.329 0.215,0.658 0.322,0.987 0.088,0.274 -0.061,0.566 -0.334,0.655 -0.519,0.168 -1.038,0.337 -1.557,0.506 0.125,0.758 0.125,1.487 0,2.245 0.519,0.169 1.038,0.337 1.557,0.506 0.273,0.088 0.422,0.381 0.334,0.654 -0.107,0.329 -0.215,0.659 -0.322,0.988 -0.088,0.273 -0.381,0.422 -0.654,0.333 -0.519,-0.168 -1.038,-0.337 -1.557,-0.505 -0.344,0.686 -0.773,1.276 -1.319,1.816 0.32,0.441 0.641,0.882 0.962,1.324 0.168,0.232 0.117,0.557 -0.115,0.725 -0.28,0.204 -0.56,0.407 -0.841,0.611 -0.231,0.169 -0.556,0.117 -0.725,-0.115 -0.321,-0.441 -0.641,-0.883 -0.962,-1.324 -0.682,0.353 -1.376,0.578 -2.135,0.694 0,0.545 0,1.091 0,1.636 0,0.287 -0.233,0.52 -0.519,0.52 -0.347,0 -0.693,0 -1.039,0 -0.287,0 -0.52,-0.233 -0.52,-0.52 0,-0.545 0,-1.091 0,-1.636 -0.759,-0.116 -1.453,-0.341 -2.135,-0.694 -0.32,0.441 -0.641,0.883 -0.962,1.324 -0.168,0.232 -0.493,0.284 -0.725,0.115 -0.28,-0.204 -0.561,-0.407 -0.84,-0.611 -0.233,-0.168 -0.284,-0.493 -0.115,-0.725 0.32,-0.442 0.641,-0.883 0.962,-1.324 -0.547,-0.54 -0.976,-1.13 -1.32,-1.816 -0.519,0.168 -1.037,0.337 -1.557,0.505 -0.273,0.089 -0.565,-0.06 -0.654,-0.333 -0.107,-0.329 -0.214,-0.659 -0.321,-0.988 -0.089,-0.273 0.061,-0.566 0.333,-0.654 0.519,-0.169 1.038,-0.337 1.557,-0.506 -0.125,-0.758 -0.125,-1.487 0,-2.245 -0.519,-0.169 -1.038,-0.338 -1.557,-0.506 -0.272,-0.089 -0.422,-0.381 -0.333,-0.655 0.107,-0.329 0.214,-0.658 0.321,-0.987 0.089,-0.273 0.381,-0.422 0.654,-0.334 0.52,0.169 1.038,0.337 1.557,0.506 0.344,-0.687 0.773,-1.277 1.32,-1.816 -0.321,-0.442 -0.642,-0.883 -0.962,-1.324 -0.169,-0.233 -0.118,-0.557 0.115,-0.726 0.279,-0.204 0.56,-0.407 0.84,-0.611 0.232,-0.168 0.557,-0.117 0.725,0.115 0.321,0.442 0.642,0.883 0.962,1.325 0.682,-0.353 1.376,-0.578 2.135,-0.694 0,-0.546 0,-1.091 0,-1.637z"/>
  </g>
 </g>
</svg>
