<?xml version="1.0" encoding="UTF-8"?>
<!DOCTYPE svg PUBLIC "-//W3C//DTD SVG 1.1//EN" "http://www.w3.org/Graphics/SVG/1.1/DTD/svg11.dtd">
<!-- Creator: CorelDRAW -->
<svg xmlns="http://www.w3.org/2000/svg" xml:space="preserve" width="36px" height="36px" version="1.1" style="shape-rendering:geometricPrecision; text-rendering:geometricPrecision; image-rendering:optimizeQuality; fill-rule:evenodd; clip-rule:evenodd"
viewBox="0 0 36 36"
 xmlns:xlink="http://www.w3.org/1999/xlink"
 xmlns:xodm="http://www.corel.com/coreldraw/odm/2003">
 <defs>
  <style type="text/css">
   <![CDATA[
    .fil0 {fill:none}
    .fil1 {fill:white}
   ]]>
  </style>
 </defs>
 <g id="Default">
  <metadata id="CorelCorpID_0Corel-Layer"/>
  <g id="_1615610963280">
   <rect class="fil0" width="36" height="36"/>
   <path class="fil1" d="M7.924 32.727c6.717,0 13.435,0 20.153,0 0.618,0 1.119,-0.501 1.119,-1.119l0 -16.794c-0.154,-0.06 -0.294,-0.135 -0.427,-0.232 -3.59,-2.585 -7.179,-5.171 -10.769,-7.757 -3.589,2.586 -7.179,5.172 -10.769,7.757 -0.133,0.097 -0.273,0.172 -0.427,0.232l0 0 0 16.794c0,0.618 0.502,1.119 1.12,1.119zm10.076 -22.645c1.237,0 2.239,1.003 2.239,2.24 0,1.236 -1.002,2.239 -2.239,2.239 -1.237,0 -2.239,-1.003 -2.239,-2.239 0,-1.237 1.002,-2.24 2.239,-2.24zm-12.854 3.638c0.384,0.533 1.127,0.654 1.658,0.27 3.732,-2.688 7.464,-5.377 11.196,-8.065 3.732,2.688 7.464,5.377 11.196,8.065 0.532,0.384 1.274,0.263 1.658,-0.27 0.383,-0.531 0.263,-1.274 -0.27,-1.657 -3.963,-2.856 -7.926,-5.71 -11.89,-8.566 -0.414,-0.298 -0.973,-0.298 -1.388,0 -3.963,2.856 -7.927,5.71 -11.89,8.566 -0.532,0.383 -0.653,1.126 -0.27,1.657zm22.356 -4.777c-0.792,-0.571 -1.583,-1.141 -2.375,-1.712 0,-0.775 0,-1.55 0,-2.325 0,-0.328 0.266,-0.594 0.594,-0.594 0.396,0 0.792,0 1.187,0 0.328,0 0.594,0.266 0.594,0.594 0,1.345 0,2.691 0,4.037zm-18.458 19.306l4.478 0 0 -4.479 -4.478 0 0 4.479zm13.434 0l4.479 0 0 -4.479 -4.479 0 0 4.479zm-6.717 2.239l4.478 0 0 -6.718 -4.478 0 0 6.718zm6.717 -8.957l4.479 0 0 -4.478 -4.479 0 0 4.478zm-6.717 0l4.478 0 0 -4.478 -4.478 0 0 4.478zm-6.717 0l4.478 0 0 -4.478 -4.478 0 0 4.478z"/>
  </g>
 </g>
</svg>
