<?xml version="1.0" encoding="UTF-8"?>
<!DOCTYPE svg PUBLIC "-//W3C//DTD SVG 1.1//EN" "http://www.w3.org/Graphics/SVG/1.1/DTD/svg11.dtd">
<!-- Creator: CorelDRAW -->
<svg xmlns="http://www.w3.org/2000/svg" xml:space="preserve" width="36px" height="36px" version="1.1" style="shape-rendering:geometricPrecision; text-rendering:geometricPrecision; image-rendering:optimizeQuality; fill-rule:evenodd; clip-rule:evenodd"
viewBox="0 0 36 36"
 xmlns:xlink="http://www.w3.org/1999/xlink"
 xmlns:xodm="http://www.corel.com/coreldraw/odm/2003">
 <defs>
  <style type="text/css">
   <![CDATA[
    .fil0 {fill:none}
    .fil1 {fill:#6E6E6E}
   ]]>
  </style>
 </defs>
 <g id="Default">
  <metadata id="CorelCorpID_0Corel-Layer"/>
  <g id="_1653918704816">
   <rect class="fil0" width="36" height="36"/>
   <g>
    <g>
     <path class="fil1" d="M25.845 25.34c-1.9,0 -3.441,1.54 -3.441,3.441 0,1.9 1.541,3.441 3.441,3.441 1.901,0 3.441,-1.541 3.441,-3.441 0,-1.901 -1.54,-3.441 -3.441,-3.441zm0 1.966c-0.814,0 -1.474,0.66 -1.474,1.475 0,0.814 0.66,1.474 1.474,1.474 0.815,0 1.475,-0.66 1.475,-1.474 0,-0.815 -0.66,-1.475 -1.475,-1.475zm-15.73 0c0.815,0 1.475,0.66 1.475,1.475 0,0.814 -0.66,1.474 -1.475,1.474 -0.815,0 -1.475,-0.66 -1.475,-1.474 0,-0.815 0.66,-1.475 1.475,-1.475zm11.629 -10.323c0,0.761 0,1.522 0,2.283 0,0.348 0.144,0.491 0.492,0.491 2.348,0 4.696,0 7.044,0 0.438,0 0.657,-0.529 0.347,-0.839 -0.713,-0.712 -1.425,-1.426 -2.138,-2.139 -0.204,-0.203 -0.408,-0.287 -0.696,-0.287 -1.519,0 -3.038,0 -4.557,0 -0.348,0 -0.492,0.144 -0.492,0.491zm10.983 5.407c0,-0.347 -0.144,-0.491 -0.491,-0.491 -0.328,0 -0.656,0 -0.984,0 -0.347,0 -0.491,0.144 -0.491,0.491 0,0.348 0.144,0.492 0.491,0.492 0.328,0 0.656,0 0.984,0 0.347,0 0.491,-0.144 0.491,-0.492zm-22.612 2.95c1.9,0 3.441,1.54 3.441,3.441 0,1.9 -1.541,3.441 -3.441,3.441 -1.9,0 -3.441,-1.541 -3.441,-3.441 0,-1.901 1.541,-3.441 3.441,-3.441zm-7.865 -0.26c0,0.906 0,1.812 0,2.718 0,0.543 0.44,0.983 0.984,0.983 0.917,0 1.834,0 2.752,0 0,-2.281 1.848,-4.13 4.129,-4.13 2.281,0 4.129,1.849 4.129,4.13 1.77,0 3.539,0 5.309,0 0.003,-1.561 0.007,-3.123 0.01,-4.684 -5.444,0 -10.887,0 -16.33,0 -0.543,0 -0.983,0.44 -0.983,0.983zm24.747 -10.063c-1.916,0 -3.831,0 -5.747,0 -0.542,0 -0.982,0.439 -0.983,0.981 -0.008,4.261 -0.017,8.522 -0.026,12.783 0.492,0 0.983,0 1.475,0 0,-2.281 1.849,-4.13 4.129,-4.13 2.281,0 4.13,1.849 4.13,4.13 0.917,0 1.834,0 2.752,0 0.543,0 0.984,-0.44 0.984,-0.983 0,-2.003 0.009,-3.996 0.039,-5.999 0.009,-0.588 -0.16,-1.004 -0.576,-1.42 -1.595,-1.595 -3.191,-3.191 -4.787,-4.786 -0.406,-0.407 -0.815,-0.576 -1.39,-0.576z"/>
     <path class="fil1" d="M18.624 15.017l-15.391 0c-0.538,0 -0.983,0.441 -0.983,0.982l0 6.427c0,0.54 0.445,0.982 0.983,0.982l16.33 0 0 -7.409c0,-0.528 -0.417,-0.959 -0.939,-0.982z"/>
    </g>
    <path class="fil1" d="M23.137 8.915c0,-2.837 -2.3,-5.136 -5.137,-5.136 -2.837,0 -5.136,2.299 -5.136,5.136 0,2.837 2.299,5.137 5.136,5.137 2.837,0 5.137,-2.3 5.137,-5.137zm-2.821 0.336c-0.027,0.588 -0.124,1.152 -0.293,1.716 0.492,0.24 0.911,0.544 1.292,0.939 0.662,-0.735 1.062,-1.669 1.137,-2.655 -0.712,0 -1.424,0 -2.136,0zm-2.316 3.976c-0.508,-0.565 -0.888,-1.173 -1.175,-1.876 0.765,-0.24 1.585,-0.24 2.35,0 -0.287,0.703 -0.667,1.311 -1.175,1.876zm-2.316 -3.976c0.027,0.588 0.124,1.152 0.293,1.716 -0.492,0.24 -0.91,0.544 -1.292,0.939 -0.662,-0.735 -1.062,-1.669 -1.137,-2.655 0.712,0 1.424,0 2.136,0zm-2.136 -0.672c0.712,0 1.424,0 2.136,0 0.027,-0.588 0.124,-1.152 0.293,-1.716 -0.492,-0.241 -0.91,-0.544 -1.292,-0.939 -0.662,0.735 -1.062,1.668 -1.137,2.655zm6.768 0c0.712,0 1.424,0 2.136,0 -0.075,-0.987 -0.475,-1.92 -1.137,-2.655 -0.381,0.395 -0.8,0.698 -1.292,0.939 0.169,0.564 0.266,1.128 0.293,1.716zm-4.113 3.026c0.252,0.618 0.575,1.174 0.986,1.7 -0.741,-0.137 -1.434,-0.459 -2.017,-0.936 0.306,-0.315 0.64,-0.563 1.031,-0.764zm0.622 -5.126c0.765,0.24 1.585,0.24 2.35,0 -0.287,-0.703 -0.667,-1.311 -1.175,-1.876 -0.508,0.565 -0.888,1.173 -1.175,1.876zm2.972 -0.254c0.391,-0.201 0.726,-0.449 1.031,-0.765 -0.582,-0.476 -1.276,-0.798 -2.017,-0.935 0.412,0.526 0.734,1.082 0.986,1.7zm-4.625 -0.765c0.306,0.316 0.64,0.564 1.031,0.765 0.252,-0.618 0.575,-1.174 0.986,-1.7 -0.741,0.137 -1.434,0.459 -2.017,0.935zm4.625 6.145c-0.252,0.618 -0.574,1.174 -0.986,1.7 0.741,-0.137 1.435,-0.459 2.017,-0.936 -0.305,-0.315 -0.64,-0.563 -1.031,-0.764zm-3.44 -3.026c1.095,0 2.191,0 3.287,0 -0.026,-0.501 -0.108,-0.983 -0.248,-1.465 -0.908,0.289 -1.884,0.289 -2.792,0 -0.14,0.482 -0.221,0.964 -0.247,1.465zm0.247 2.137c-0.14,-0.482 -0.221,-0.964 -0.247,-1.465 1.095,0 2.191,0 3.287,0 -0.026,0.501 -0.108,0.983 -0.248,1.465 -0.908,-0.289 -1.884,-0.289 -2.792,0z"/>
   </g>
  </g>
 </g>
</svg>
