<?xml version="1.0" encoding="UTF-8"?>
<!DOCTYPE svg PUBLIC "-//W3C//DTD SVG 1.1//EN" "http://www.w3.org/Graphics/SVG/1.1/DTD/svg11.dtd">
<!-- Creator: CorelDRAW -->
<svg xmlns="http://www.w3.org/2000/svg" xml:space="preserve" width="36px" height="36px" version="1.1" style="shape-rendering:geometricPrecision; text-rendering:geometricPrecision; image-rendering:optimizeQuality; fill-rule:evenodd; clip-rule:evenodd"
viewBox="0 0 36 36"
 xmlns:xlink="http://www.w3.org/1999/xlink"
 xmlns:xodm="http://www.corel.com/coreldraw/odm/2003">
 <defs>
  <style type="text/css">
   <![CDATA[
    .fil0 {fill:none}
    .fil1 {fill:#268FA3}
   ]]>
  </style>
 </defs>
 <g id="Default">
  <metadata id="CorelCorpID_0Corel-Layer"/>
  <g id="_1652727545888">
   <rect class="fil0" width="36" height="36"/>
   <path class="fil1" d="M25.083 18.197c0,0.266 0.215,0.482 0.481,0.482 0.266,0 0.482,-0.216 0.482,-0.482 0,-3.045 0,-5.609 0,-8.654 0,-1.009 0.818,-1.828 1.827,-1.828 1.009,0 1.827,0.819 1.827,1.828 0,4.584 0,9.168 0,13.753 0,5.524 -4.139,10.171 -9.627,10.809 -5.487,0.638 -10.581,-2.938 -11.847,-8.316 -0.626,-2.656 -1.252,-5.312 -1.877,-7.969 -0.231,-0.982 0.378,-1.966 1.36,-2.197 0.982,-0.231 1.966,0.377 2.198,1.36 0.446,1.895 0.892,3.79 1.338,5.685 0.056,0.237 0.281,0.396 0.524,0.368 0.243,-0.029 0.426,-0.234 0.426,-0.479 0,-5.647 0,-11.296 0,-16.944 0,-1.009 0.818,-1.827 1.827,-1.827 1.009,0 1.827,0.818 1.827,1.827 0,3.93 0,7.378 0,11.307 0,0.266 0.215,0.481 0.482,0.481 0.265,0 0.481,-0.215 0.481,-0.481 0,-4.584 0,-8.687 0,-13.271 0,-1.01 0.818,-1.827 1.827,-1.827 1.009,0 1.827,0.817 1.827,1.827 0,4.584 0,8.205 0,12.79 0,0.265 0.216,0.481 0.481,0.481 0.266,0 0.482,-0.216 0.482,-0.481 0,-4.159 0,-7.355 0,-11.513 0,-1.009 0.818,-1.828 1.827,-1.828 1.009,0 1.827,0.819 1.827,1.828 0,4.584 0,8.687 0,13.271zm-3.761 3.678c-1.543,-0.91 -3.507,-0.661 -4.774,0.607 -1.267,1.267 -1.517,3.23 -0.606,4.774 1.793,-1.794 3.587,-3.587 5.38,-5.381zm-3.991 6.77c1.544,0.91 3.507,0.661 4.774,-0.606 1.267,-1.267 1.516,-3.231 0.606,-4.774 -1.793,1.793 -3.586,3.587 -5.38,5.38zm1.996 -9.279c-3.256,0 -5.895,2.639 -5.895,5.894 0,3.255 2.639,5.894 5.895,5.894 3.255,0 5.894,-2.639 5.894,-5.894 0,-3.255 -2.639,-5.894 -5.894,-5.894z"/>
  </g>
 </g>
</svg>
