<?xml version="1.0" encoding="UTF-8"?>
<!DOCTYPE svg PUBLIC "-//W3C//DTD SVG 1.1//EN" "http://www.w3.org/Graphics/SVG/1.1/DTD/svg11.dtd">
<!-- Creator: CorelDRAW -->
<svg xmlns="http://www.w3.org/2000/svg" xml:space="preserve" width="36px" height="36px" version="1.1" style="shape-rendering:geometricPrecision; text-rendering:geometricPrecision; image-rendering:optimizeQuality; fill-rule:evenodd; clip-rule:evenodd"
viewBox="0 0 36 36"
 xmlns:xlink="http://www.w3.org/1999/xlink"
 xmlns:xodm="http://www.corel.com/coreldraw/odm/2003">
 <defs>
  <style type="text/css">
   <![CDATA[
    .fil0 {fill:none}
    .fil1 {fill:#AB0534}
   ]]>
  </style>
 </defs>
 <g id="Default">
  <metadata id="CorelCorpID_0Corel-Layer"/>
  <g id="_1653887556448">
   <rect class="fil0" width="36" height="36"/>
   <path class="fil1" d="M10.637 22.909c-2.712,0 -4.909,2.198 -4.909,4.909 0,2.711 2.197,4.909 4.909,4.909 2.711,0 4.909,-2.198 4.909,-4.909 0,-2.711 -2.198,-4.909 -4.909,-4.909zm18.408 -17.182c-4.091,0 -8.182,0.001 -12.272,0.001 -0.678,0 -1.227,0.549 -1.227,1.227 0,4.909 0,9.818 0,14.727 0,0.677 0.549,1.227 1.227,1.227 4.091,0 8.181,0 12.272,0 0.678,0 1.228,-0.55 1.228,-1.227 0,-4.909 0,-9.819 -0.001,-14.728 0,-0.677 -0.549,-1.226 -1.227,-1.227zm-2.636 11.659c0,-2.164 0,-4.328 0,-6.492 0.164,0.232 0.329,0.465 0.494,0.697 0.251,0.354 0.501,0.397 0.855,0.146 0.354,-0.251 0.397,-0.501 0.146,-0.855 -0.536,-0.757 -1.072,-1.514 -1.608,-2.271 -0.132,-0.186 -0.273,-0.259 -0.501,-0.26 -0.227,0 -0.369,0.074 -0.5,0.26 -0.537,0.757 -1.073,1.514 -1.609,2.271 -0.251,0.354 -0.208,0.605 0.147,0.856 0.354,0.25 0.604,0.207 0.855,-0.147 0.164,-0.233 0.329,-0.465 0.494,-0.697 0,2.164 0,4.328 0,6.492 0,0.434 0.179,0.614 0.613,0.614 0.434,0 0.614,-0.18 0.614,-0.614zm-7.994 3.068c2.996,0 5.992,0 8.988,0 0.434,0 0.614,-0.18 0.614,-0.614 0,-0.433 -0.18,-0.613 -0.613,-0.613 -2.997,0 -5.993,0 -8.989,0 -0.434,0 -0.614,0.18 -0.614,0.614 0,0.434 0.18,0.613 0.614,0.613zm0.994 -3.067c0,0.433 0.18,0.613 0.614,0.613 0.434,0 0.613,-0.18 0.613,-0.614 0,-2.164 0,-4.328 0,-6.492 0.165,0.232 0.329,0.465 0.494,0.697 0.251,0.354 0.501,0.397 0.855,0.146 0.355,-0.251 0.397,-0.501 0.147,-0.855 -0.537,-0.757 -1.073,-1.514 -1.609,-2.271 -0.131,-0.186 -0.273,-0.259 -0.5,-0.259 -0.228,0 -0.37,0.073 -0.501,0.259 -0.536,0.757 -1.072,1.514 -1.608,2.271 -0.251,0.354 -0.208,0.605 0.146,0.855 0.354,0.251 0.604,0.208 0.855,-0.146 0.165,-0.232 0.329,-0.465 0.494,-0.697 0,2.164 0,4.328 0,6.493zm-11.227 -11.659c-1.636,0 -0.818,0 -2.455,0 -0.677,0 -1.227,-0.55 -1.226,-1.227 -0.001,-0.679 0.549,-1.228 1.226,-1.228 1.637,0 0.819,0 2.455,0 2.711,0 4.909,2.198 4.909,4.909 0,4.805 0,9.611 0.001,14.416 -0.796,-0.374 -1.577,-0.548 -2.455,-0.548 0,-4.623 0,-9.245 0,-13.868 0,-1.355 -1.099,-2.454 -2.455,-2.454zm8.223 22.09c0,-0.878 -0.175,-1.66 -0.549,-2.455 4.806,0 9.611,0 14.416,0 0.678,0 1.228,0.55 1.228,1.227 0,0.678 -0.55,1.228 -1.227,1.228 -4.623,0 -9.246,0 -13.868,0zm-5.768 -2.454c-1.356,0 -2.455,1.098 -2.455,2.454 0,1.356 1.099,2.454 2.455,2.454 1.355,0.001 2.454,-1.098 2.454,-2.454 0,-1.356 -1.099,-2.455 -2.454,-2.454z"/>
  </g>
 </g>
</svg>
