<?xml version="1.0" encoding="UTF-8"?>
<!DOCTYPE svg PUBLIC "-//W3C//DTD SVG 1.1//EN" "http://www.w3.org/Graphics/SVG/1.1/DTD/svg11.dtd">
<!-- Creator: CorelDRAW -->
<svg xmlns="http://www.w3.org/2000/svg" xml:space="preserve" width="36px" height="36px" version="1.1" style="shape-rendering:geometricPrecision; text-rendering:geometricPrecision; image-rendering:optimizeQuality; fill-rule:evenodd; clip-rule:evenodd"
viewBox="0 0 36 36"
 xmlns:xlink="http://www.w3.org/1999/xlink"
 xmlns:xodm="http://www.corel.com/coreldraw/odm/2003">
 <defs>
  <style type="text/css">
   <![CDATA[
    .fil0 {fill:#004A5D}
   ]]>
  </style>
 </defs>
 <g id="Default">
  <metadata id="CorelCorpID_0Corel-Layer"/>
  <g id="_1654017558496">
   <path class="fil0" d="M21.432 33.75l9.392 0 0 -13.21 -9.392 0 0 13.21zm-2.032 -1.016l0 1.016c-2.71,0 -5.419,0 -8.129,0l0 -1.016c0,-0.562 0.455,-1.016 1.016,-1.016 0.339,0 0.678,0 1.016,0 0,-6.939 0,-13.877 0,-20.816 -1.156,0 -2.313,0 -3.469,0 0,0.561 -0.455,1.016 -1.016,1.016 -0.876,0 -1.752,0 -2.628,0 -0.561,0 -1.016,-0.455 -1.016,-1.016 0,-1.355 0,-2.71 0,-4.064 0,-0.562 0.455,-1.017 1.016,-1.017 0.876,0 1.752,0 2.628,0 0.561,0 1.016,0.455 1.016,1.017 1.156,0 2.313,0 3.469,0 0,-1.191 0,-2.381 0,-3.572 0,-0.561 0.455,-1.016 1.016,-1.016 0.678,0 1.355,0 2.033,0 0.561,0 1.016,0.455 1.016,1.016 0,1.191 0,2.381 0,3.572 3.469,0 6.938,0 10.408,0 0.269,0 0.527,0.107 0.718,0.297 0.677,0.677 1.355,1.355 2.032,2.033 0.64,0.64 0.187,1.734 -0.718,1.734 -4.147,0 -8.294,0 -12.44,0 0,6.939 0,13.877 0,20.816 0.338,0 0.677,0 1.016,0 0.561,0 1.016,0.454 1.016,1.016zm-3.048 -1.016l-2.033 -2.032 0 2.032 2.033 0zm-2.033 -20.816l0 2.032 2.033 -2.032 -2.033 0zm0 4.906l0 4.065 2.033 -2.032 -2.033 -2.033zm12.019 -7.954l-4.064 0 2.032 2.032 2.032 -2.032zm-7.533 2.032l4.064 0 -2.032 -2.032 -2.032 2.032zm6.938 0l4.065 0 -2.032 -2.032 -2.033 2.032zm-9.391 13.456l0 -4.064 -2.033 2.032 2.033 2.032zm0 -6.938l0 -4.065 -2.033 2.032 2.033 2.033zm0 -11.003l0 -2.135 -2.033 0 0 0.102 2.033 2.033zm-2.033 17.346l0 4.064 2.033 -2.032 -2.033 -2.032zm2.033 7.534l0 -4.065 -2.033 2.032 2.033 2.033zm-2.033 -22.427l0 2.032 2.033 0 0 -2.032 -2.033 0zm3.049 0l0 2.032 2.032 -2.032 -2.032 0zm-4.065 0l0 2.032 -2.032 -2.032 2.032 0zm1.016 -1.016l0 -2.033 2.033 2.033 -2.033 0zm-4.485 1.016l0 2.032 2.032 0 -2.032 -2.032zm16.925 23.341l2.033 0 0 -2.033 -2.033 0 0 2.033zm-3.295 0l2.033 0 0 -2.033 -2.033 0 0 2.033zm3.295 -3.295l2.033 0 0 -2.032 -2.033 0 0 2.032zm-3.295 0l2.033 0 0 -2.032 -2.033 0 0 2.032zm3.295 -3.295l2.033 0 0 -2.032 -2.033 0 0 2.032zm-3.295 0l2.033 0 0 -2.032 -2.033 0 0 2.032zm3.551 -7.693c0.016,-0.28 -0.198,-0.52 -0.479,-0.536 -0.28,-0.015 -0.52,0.199 -0.535,0.479 -0.063,1.121 0.795,2.08 1.916,2.143 1.12,0.062 2.079,-0.795 2.142,-1.916 0.04,-0.725 -0.309,-1.416 -0.917,-1.814 -0.607,-0.398 -0.956,-1.089 -0.916,-1.814 0.01,-0.169 0.019,-0.338 0.028,-0.507 0.016,-0.28 -0.198,-0.52 -0.478,-0.536 -0.281,-0.015 -0.52,0.199 -0.536,0.479 -0.01,0.169 -0.019,0.338 -0.029,0.507 -0.034,0.625 0.124,1.245 0.454,1.777 0.166,0.269 0.363,0.499 0.603,0.705 0.242,0.208 0.509,0.315 0.669,0.631 0.301,0.597 -0.045,1.317 -0.699,1.453 -0.654,0.137 -1.26,-0.384 -1.223,-1.051z"/>
  </g>
 </g>
</svg>
