<?xml version="1.0" encoding="UTF-8"?>
<!DOCTYPE svg PUBLIC "-//W3C//DTD SVG 1.1//EN" "http://www.w3.org/Graphics/SVG/1.1/DTD/svg11.dtd">
<!-- Creator: CorelDRAW -->
<svg xmlns="http://www.w3.org/2000/svg" xml:space="preserve" width="36px" height="36px" version="1.1" style="shape-rendering:geometricPrecision; text-rendering:geometricPrecision; image-rendering:optimizeQuality; fill-rule:evenodd; clip-rule:evenodd"
viewBox="0 0 36 36"
 xmlns:xlink="http://www.w3.org/1999/xlink"
 xmlns:xodm="http://www.corel.com/coreldraw/odm/2003">
 <defs>
  <style type="text/css">
   <![CDATA[
    .fil0 {fill:none}
    .fil1 {fill:#004A5D}
   ]]>
  </style>
 </defs>
 <g id="Default">
  <metadata id="CorelCorpID_0Corel-Layer"/>
  <g id="_1653779689456">
   <rect class="fil0" width="36" height="36"/>
   <path class="fil1" d="M10.899 9.607c0.296,-3.921 3.715,-6.861 7.637,-6.564 3.922,0.295 6.861,3.714 6.565,7.637 -0.296,3.921 -3.715,6.861 -7.637,6.565 -3.922,-0.296 -6.861,-3.716 -6.565,-7.638zm9.685 0.911c-0.031,0.657 -0.139,1.285 -0.328,1.914 0.55,0.268 1.016,0.608 1.441,1.047 0.739,-0.819 1.185,-1.86 1.269,-2.961 -0.794,0 -1.588,0 -2.382,0zm-9.988 18.649c0.591,0 1.07,0.48 1.07,1.071 0,0.591 -0.479,1.071 -1.07,1.071 -0.592,0 -1.071,-0.48 -1.071,-1.071 0,-0.591 0.479,-1.071 1.071,-1.071zm7.404 -14.213c-0.566,-0.631 -0.991,-1.309 -1.311,-2.094 0.854,-0.267 1.768,-0.267 2.622,0 -0.32,0.785 -0.744,1.463 -1.311,2.094zm-2.584 -4.436c0.031,0.657 0.139,1.285 0.328,1.914 -0.55,0.268 -1.016,0.608 -1.441,1.047 -0.739,-0.819 -1.185,-1.86 -1.269,-2.961 0.794,0 1.588,0 2.382,0zm-2.382 -0.749c0.794,0 1.588,0 2.382,0 0.031,-0.656 0.139,-1.285 0.328,-1.914 -0.55,-0.268 -1.016,-0.608 -1.441,-1.047 -0.739,0.819 -1.185,1.86 -1.269,2.961zm7.55 0c0.794,0 1.588,0 2.382,0 -0.084,-1.101 -0.53,-2.142 -1.269,-2.961 -0.425,0.439 -0.891,0.779 -1.441,1.047 0.189,0.629 0.297,1.258 0.328,1.914zm-4.589 3.375c0.282,0.69 0.642,1.31 1.1,1.896 -0.825,-0.152 -1.6,-0.511 -2.249,-1.043 0.34,-0.352 0.714,-0.629 1.149,-0.853zm0.694 -5.717c0.854,0.267 1.768,0.267 2.622,0 -0.32,-0.785 -0.744,-1.463 -1.311,-2.093 -0.566,0.63 -0.991,1.308 -1.311,2.093zm3.315 -0.284c0.436,-0.224 0.81,-0.501 1.15,-0.853 -0.649,-0.532 -1.423,-0.891 -2.249,-1.043 0.458,0.586 0.818,1.206 1.099,1.896zm-5.158 -0.853c0.34,0.352 0.714,0.629 1.149,0.853 0.282,-0.69 0.642,-1.31 1.1,-1.896 -0.825,0.152 -1.6,0.511 -2.249,1.043zm5.158 6.854c-0.281,0.69 -0.641,1.31 -1.099,1.896 0.826,-0.152 1.6,-0.511 2.249,-1.043 -0.34,-0.352 -0.714,-0.629 -1.15,-0.853zm-3.837 -3.375c1.222,0 2.445,0 3.666,0 -0.029,-0.559 -0.12,-1.097 -0.276,-1.634 -1.013,0.322 -2.101,0.322 -3.114,0 -0.156,0.537 -0.247,1.075 -0.276,1.634zm0.276 2.383c-0.156,-0.537 -0.247,-1.075 -0.276,-1.634 1.222,0 2.445,0 3.666,0 -0.029,0.559 -0.12,1.097 -0.276,1.634 -1.013,-0.322 -2.101,-0.322 -3.114,0zm-10.85 10.055c-0.419,-0.419 -1.097,-0.419 -1.515,0 -0.505,0.504 -1.01,1.009 -1.514,1.514 -0.419,0.418 -0.419,1.096 0,1.515 2.425,2.424 4.849,4.849 7.274,7.274 0.418,0.418 1.096,0.418 1.515,0 0.505,-0.505 1.01,-1.01 1.514,-1.514 0.419,-0.419 0.419,-1.096 0,-1.515 -2.424,-2.425 -4.849,-4.849 -7.274,-7.274zm21.694 4.191c1.997,-1.997 3.995,-3.995 5.992,-5.993 0.622,-0.622 0.629,-1.628 0.014,-2.258 -0.614,-0.629 -1.621,-0.648 -2.257,-0.041 -1.693,1.612 -3.385,3.225 -5.077,4.838 -0.498,0.474 -1.16,0.739 -1.847,0.739 -2.15,0 -4.3,0 -6.45,0 -0.296,0 -0.536,-0.24 -0.536,-0.535 0,-0.296 0.24,-0.536 0.536,-0.536 2.15,0 4.3,0 6.45,0 0.887,0 1.606,-0.719 1.606,-1.606 0,-0.887 -0.719,-1.607 -1.606,-1.607 -2.474,0 -4.948,0 -7.423,0 -0.37,0 -0.734,-0.096 -1.057,-0.278 -3.194,-1.812 -7.254,-0.557 -8.871,2.74 2.036,2.035 4.071,4.07 6.106,6.106 3.545,0 7.089,0 10.633,0 1.42,0 2.782,-0.565 3.787,-1.569z"/>
  </g>
 </g>
</svg>
