<?xml version="1.0" encoding="UTF-8"?>
<!DOCTYPE svg PUBLIC "-//W3C//DTD SVG 1.1//EN" "http://www.w3.org/Graphics/SVG/1.1/DTD/svg11.dtd">
<!-- Creator: CorelDRAW -->
<svg xmlns="http://www.w3.org/2000/svg" xml:space="preserve" width="36px" height="36px" version="1.1" style="shape-rendering:geometricPrecision; text-rendering:geometricPrecision; image-rendering:optimizeQuality; fill-rule:evenodd; clip-rule:evenodd"
viewBox="0 0 36 36"
 xmlns:xlink="http://www.w3.org/1999/xlink"
 xmlns:xodm="http://www.corel.com/coreldraw/odm/2003">
 <defs>
  <style type="text/css">
   <![CDATA[
    .fil0 {fill:none}
    .fil1 {fill:#004A5D}
   ]]>
  </style>
 </defs>
 <g id="Default">
  <metadata id="CorelCorpID_0Corel-Layer"/>
  <g id="_1654206760432">
   <rect class="fil0" width="36" height="36"/>
   <path class="fil1" d="M27.724 16.709c0.559,0.155 1.14,-0.162 1.311,-0.716 1.002,-3.244 0.993,-6.715 -0.024,-9.953 -0.164,-0.523 -0.697,-0.838 -1.235,-0.728 -2.618,0.532 -4.953,2.003 -6.563,4.135 0,1.071 0,2.142 0,3.213 1.739,1.944 3.999,3.349 6.511,4.049zm-17.129 12.458c0.592,0 1.071,0.48 1.071,1.071 0,0.591 -0.479,1.071 -1.071,1.071 -0.591,0 -1.071,-0.48 -1.071,-1.071 0,-0.591 0.48,-1.071 1.071,-1.071zm-5.002 -6.961c-0.418,-0.418 -1.097,-0.418 -1.515,0 -0.505,0.505 -1.009,1.01 -1.515,1.515 -0.417,0.418 -0.417,1.096 0,1.514 2.426,2.425 4.851,4.85 7.275,7.275 0.419,0.418 1.097,0.418 1.515,0 0.504,-0.505 1.009,-1.01 1.514,-1.514 0.418,-0.419 0.418,-1.096 0,-1.515 -2.425,-2.425 -4.85,-4.85 -7.274,-7.275zm21.693 4.192c1.998,-1.997 3.996,-3.995 5.994,-5.993 0.621,-0.622 0.628,-1.628 0.013,-2.258 -0.614,-0.629 -1.621,-0.648 -2.258,-0.041 -1.692,1.612 -3.384,3.225 -5.076,4.837 -0.498,0.475 -1.16,0.74 -1.847,0.74 -2.15,0 -4.3,0 -6.45,0 -0.296,0 -0.535,-0.24 -0.535,-0.535 0,-0.296 0.239,-0.536 0.535,-0.536 2.15,0 4.3,0 6.45,0 0.887,0 1.606,-0.719 1.606,-1.606 0,-0.887 -0.719,-1.607 -1.606,-1.607 -2.474,0 -4.949,0 -7.423,0 -0.37,0 -0.734,-0.096 -1.056,-0.278 -3.195,-1.812 -7.255,-0.558 -8.872,2.74 2.036,2.035 4.071,4.07 6.106,6.106 3.544,0 7.089,0 10.633,0 1.42,0 2.782,-0.565 3.786,-1.569zm-19.01 -9.689c-0.558,0.155 -1.139,-0.162 -1.31,-0.716 -1.002,-3.244 -0.994,-6.715 0.023,-9.953 0.165,-0.523 0.697,-0.838 1.235,-0.728 2.619,0.532 4.953,2.003 6.564,4.135 0,1.071 0,2.142 0,3.213 -1.739,1.944 -3.999,3.349 -6.512,4.049zm8.653 -2.978c0.714,0 1.428,0 2.142,0 0.592,0 1.071,-0.48 1.071,-1.071 0,-1.071 0,-2.142 0,-3.213 0,-0.591 -0.479,-1.071 -1.071,-1.071 -0.714,0 -1.428,0 -2.142,0 -0.591,0 -1.071,0.48 -1.071,1.071 0,1.071 0,2.142 0,3.213 0,0.591 0.48,1.071 1.071,1.071z"/>
  </g>
 </g>
</svg>
