<?xml version="1.0" encoding="UTF-8"?>
<!DOCTYPE svg PUBLIC "-//W3C//DTD SVG 1.1//EN" "http://www.w3.org/Graphics/SVG/1.1/DTD/svg11.dtd">
<!-- Creator: CorelDRAW -->
<svg xmlns="http://www.w3.org/2000/svg" xml:space="preserve" width="40px" height="40px" version="1.1" style="shape-rendering:geometricPrecision; text-rendering:geometricPrecision; image-rendering:optimizeQuality; fill-rule:evenodd; clip-rule:evenodd"
viewBox="0 0 40 40"
 xmlns:xlink="http://www.w3.org/1999/xlink"
 xmlns:xodm="http://www.corel.com/coreldraw/odm/2003">
 <defs>
  <style type="text/css">
   <![CDATA[
    .fil0 {fill:none}
    .fil1 {fill:#268FA3}
   ]]>
  </style>
 </defs>
 <g id="Default">
  <metadata id="CorelCorpID_0Corel-Layer"/>
  <g id="_1653860877152">
   <rect class="fil0" width="40" height="40"/>
   <path class="fil1" d="M12.11 10.675c0.329,-4.358 4.128,-7.624 8.485,-7.294 4.358,0.328 7.624,4.127 7.295,8.485 -0.329,4.358 -4.128,7.624 -8.485,7.295 -4.358,-0.329 -7.624,-4.128 -7.295,-8.486zm10.761 1.012c-0.034,0.729 -0.154,1.428 -0.364,2.126 0.61,0.299 1.129,0.676 1.601,1.164 0.821,-0.91 1.317,-2.067 1.41,-3.29 -0.882,0 -1.765,0 -2.647,0zm-11.098 20.721c0.657,0 1.19,0.533 1.19,1.19 0,0.657 -0.533,1.19 -1.19,1.19 -0.657,0 -1.19,-0.533 -1.19,-1.19 0,-0.657 0.533,-1.19 1.19,-1.19zm8.227 -15.793c-0.629,-0.701 -1.101,-1.454 -1.456,-2.326 0.948,-0.297 1.964,-0.297 2.912,0 -0.355,0.872 -0.826,1.625 -1.456,2.326zm-2.871 -4.928c0.034,0.729 0.154,1.428 0.364,2.126 -0.611,0.299 -1.129,0.676 -1.601,1.164 -0.821,-0.91 -1.317,-2.067 -1.409,-3.29 0.881,0 1.764,0 2.646,0zm-2.646 -0.833c0.881,0 1.764,0 2.646,0 0.034,-0.729 0.154,-1.428 0.364,-2.127 -0.611,-0.298 -1.129,-0.675 -1.601,-1.163 -0.821,0.91 -1.317,2.068 -1.409,3.29zm8.388 0c0.882,0 1.765,0 2.647,0 -0.093,-1.222 -0.589,-2.38 -1.41,-3.29 -0.472,0.488 -0.991,0.865 -1.601,1.163 0.21,0.699 0.33,1.398 0.364,2.127zm-5.098 3.751c0.312,0.766 0.712,1.455 1.222,2.107 -0.918,-0.17 -1.778,-0.569 -2.5,-1.16 0.379,-0.391 0.794,-0.699 1.278,-0.947zm0.771 -6.353c0.948,0.297 1.964,0.297 2.912,0 -0.355,-0.872 -0.826,-1.625 -1.456,-2.326 -0.629,0.701 -1.101,1.454 -1.456,2.326zm3.683 -0.316c0.484,-0.248 0.899,-0.556 1.278,-0.947 -0.722,-0.591 -1.582,-0.99 -2.5,-1.16 0.51,0.652 0.91,1.341 1.222,2.107zm-5.732 -0.947c0.379,0.391 0.794,0.699 1.278,0.947 0.312,-0.766 0.712,-1.455 1.222,-2.107 -0.918,0.17 -1.778,0.569 -2.5,1.16zm5.732 7.616c-0.312,0.766 -0.712,1.455 -1.222,2.107 0.918,-0.17 1.778,-0.569 2.5,-1.16 -0.379,-0.391 -0.794,-0.699 -1.278,-0.947zm-4.264 -3.751c1.358,0 2.716,0 4.074,0 -0.032,-0.621 -0.133,-1.218 -0.307,-1.815 -1.126,0.358 -2.335,0.358 -3.46,0 -0.174,0.597 -0.275,1.194 -0.307,1.815zm0.307 2.648c-0.174,-0.597 -0.275,-1.194 -0.307,-1.815 1.358,0 2.716,0 4.074,0 -0.032,0.621 -0.133,1.218 -0.307,1.815 -1.126,-0.357 -2.335,-0.357 -3.46,0zm-12.056 11.172c-0.465,-0.465 -1.218,-0.465 -1.683,0 -0.56,0.56 -1.122,1.122 -1.682,1.682 -0.465,0.466 -0.465,1.219 0,1.684 2.694,2.693 5.388,5.388 8.083,8.082 0.464,0.465 1.217,0.465 1.682,0 0.561,-0.561 1.122,-1.122 1.683,-1.682 0.465,-0.465 0.465,-1.218 0,-1.683 -2.694,-2.694 -5.388,-5.389 -8.083,-8.083zm24.105 4.657c2.219,-2.219 4.439,-4.439 6.658,-6.658 0.691,-0.692 0.698,-1.81 0.015,-2.51 -0.682,-0.699 -1.8,-0.719 -2.508,-0.045 -1.88,1.791 -3.761,3.584 -5.641,5.375 -0.553,0.527 -1.288,0.821 -2.052,0.821 -2.389,0 -4.778,0 -7.167,0 -0.328,0 -0.595,-0.266 -0.595,-0.594 0,-0.329 0.267,-0.595 0.595,-0.595 2.389,0 4.778,0 7.167,0 0.986,0 1.785,-0.8 1.785,-1.785 0,-0.986 -0.799,-1.785 -1.785,-1.785 -2.749,0 -5.498,0 -8.247,0 -0.412,0 -0.817,-0.107 -1.175,-0.309 -3.549,-2.014 -8.06,-0.62 -9.856,3.044 2.261,2.261 4.522,4.522 6.784,6.784 3.938,0 7.876,0 11.814,0 1.578,0 3.091,-0.627 4.208,-1.743z"/>
  </g>
 </g>
</svg>
