<?xml version="1.0" encoding="UTF-8"?>
<!DOCTYPE svg PUBLIC "-//W3C//DTD SVG 1.1//EN" "http://www.w3.org/Graphics/SVG/1.1/DTD/svg11.dtd">
<!-- Creator: CorelDRAW -->
<svg xmlns="http://www.w3.org/2000/svg" xml:space="preserve" width="36px" height="36px" version="1.1" style="shape-rendering:geometricPrecision; text-rendering:geometricPrecision; image-rendering:optimizeQuality; fill-rule:evenodd; clip-rule:evenodd"
viewBox="0 0 36 36"
 xmlns:xlink="http://www.w3.org/1999/xlink"
 xmlns:xodm="http://www.corel.com/coreldraw/odm/2003">
 <defs>
  <style type="text/css">
   <![CDATA[
    .fil0 {fill:none}
    .fil1 {fill:#004A5D}
   ]]>
  </style>
 </defs>
 <g id="Default">
  <metadata id="CorelCorpID_0Corel-Layer"/>
  <g id="_1654148018592">
   <rect class="fil0" width="36" height="36"/>
   <path class="fil1" d="M5.592 22.206c-0.418,-0.418 -1.096,-0.418 -1.514,0 -0.505,0.505 -1.009,1.01 -1.514,1.515 -0.419,0.418 -0.419,1.096 0,1.514 2.425,2.425 4.849,4.85 7.274,7.275 0.418,0.418 1.096,0.418 1.515,0 0.504,-0.505 1.01,-1.01 1.514,-1.514 0.418,-0.419 0.418,-1.096 0,-1.515 -2.425,-2.425 -4.85,-4.85 -7.275,-7.275zm10.831 -12.86c0.44,-0.871 1.503,-1.22 2.374,-0.779 0.871,0.44 1.22,1.503 0.78,2.374 -0.44,0.87 -1.504,1.22 -2.375,0.779 -0.87,-0.44 -1.219,-1.503 -0.779,-2.374zm-0.956 -0.483c0.707,-1.399 2.414,-1.96 3.813,-1.252 1.399,0.707 1.96,2.414 1.253,3.813 -0.708,1.398 -2.415,1.959 -3.814,1.252 -1.398,-0.707 -1.959,-2.414 -1.252,-3.813zm-4.872 20.304c0.592,0 1.071,0.48 1.071,1.071 0,0.591 -0.479,1.071 -1.071,1.071 -0.591,0 -1.071,-0.48 -1.071,-1.071 0,-0.591 0.48,-1.071 1.071,-1.071zm1.73 -15.514c-0.273,0.113 -0.587,-0.017 -0.699,-0.29 -0.137,-0.329 -0.274,-0.659 -0.411,-0.989 -0.113,-0.273 0.017,-0.587 0.29,-0.7 0.531,-0.22 1.061,-0.439 1.592,-0.659 -0.105,-0.59 -0.105,-1.154 0,-1.743 -0.531,-0.22 -1.061,-0.44 -1.592,-0.66 -0.273,-0.113 -0.403,-0.426 -0.29,-0.699 0.137,-0.33 0.274,-0.66 0.411,-0.99 0.112,-0.273 0.426,-0.402 0.699,-0.29 0.53,0.221 1.061,0.44 1.592,0.66 0.342,-0.491 0.741,-0.89 1.233,-1.233 -0.22,-0.531 -0.44,-1.061 -0.66,-1.592 -0.113,-0.273 0.016,-0.586 0.29,-0.699 0.33,-0.137 0.659,-0.274 0.989,-0.41 0.274,-0.113 0.587,0.016 0.7,0.289 0.22,0.531 0.439,1.062 0.659,1.592 0.59,-0.104 1.154,-0.104 1.743,0 0.221,-0.53 0.44,-1.061 0.66,-1.592 0.113,-0.273 0.427,-0.402 0.699,-0.289 0.33,0.136 0.66,0.273 0.99,0.41 0.273,0.113 0.403,0.426 0.29,0.699 -0.22,0.531 -0.44,1.061 -0.66,1.592 0.491,0.343 0.89,0.742 1.233,1.233 0.531,-0.22 1.061,-0.439 1.592,-0.66 0.273,-0.112 0.586,0.017 0.7,0.29 0.136,0.33 0.273,0.66 0.409,0.99 0.113,0.273 -0.016,0.586 -0.29,0.699 -0.53,0.22 -1.061,0.44 -1.591,0.66 0.105,0.589 0.105,1.153 0,1.743 0.53,0.22 1.061,0.439 1.591,0.659 0.274,0.113 0.403,0.427 0.29,0.7 -0.136,0.33 -0.273,0.66 -0.409,0.989 -0.114,0.273 -0.427,0.403 -0.7,0.29 -0.531,-0.22 -1.061,-0.44 -1.592,-0.659 -0.343,0.491 -0.742,0.89 -1.233,1.233 0.22,0.53 0.44,1.061 0.66,1.591 0.113,0.274 -0.017,0.587 -0.29,0.7 -0.33,0.136 -0.66,0.273 -0.99,0.409 -0.272,0.114 -0.586,-0.016 -0.699,-0.289 -0.22,-0.53 -0.439,-1.061 -0.66,-1.592 -0.589,0.105 -1.153,0.105 -1.743,0 -0.22,0.531 -0.439,1.062 -0.659,1.592 -0.113,0.273 -0.426,0.403 -0.7,0.289 -0.33,-0.136 -0.659,-0.273 -0.989,-0.409 -0.274,-0.113 -0.403,-0.426 -0.29,-0.7 0.22,-0.53 0.44,-1.061 0.66,-1.591 -0.492,-0.343 -0.891,-0.742 -1.233,-1.233 -0.531,0.219 -1.062,0.439 -1.592,0.659zm14.961 12.745c1.998,-1.997 3.996,-3.995 5.993,-5.993 0.622,-0.622 0.629,-1.628 0.014,-2.258 -0.615,-0.629 -1.621,-0.648 -2.257,-0.041 -1.693,1.612 -3.385,3.225 -5.078,4.837 -0.498,0.475 -1.158,0.74 -1.847,0.74 -2.149,0 -4.299,0 -6.449,0 -0.296,0 -0.536,-0.24 -0.536,-0.535 0,-0.296 0.24,-0.536 0.536,-0.536 2.15,0 4.3,0 6.449,0 0.888,0 1.607,-0.719 1.607,-1.606 0,-0.887 -0.719,-1.607 -1.607,-1.607 -2.473,0 -4.948,0 -7.422,0 -0.37,0 -0.734,-0.096 -1.057,-0.278 -3.194,-1.812 -7.254,-0.558 -8.871,2.74 2.036,2.035 4.071,4.07 6.106,6.105 3.544,0 7.089,0 10.633,0 1.42,0 2.782,-0.564 3.786,-1.568z"/>
  </g>
 </g>
</svg>
