<?xml version="1.0" encoding="UTF-8"?>
<!DOCTYPE svg PUBLIC "-//W3C//DTD SVG 1.1//EN" "http://www.w3.org/Graphics/SVG/1.1/DTD/svg11.dtd">
<!-- Creator: CorelDRAW -->
<svg xmlns="http://www.w3.org/2000/svg" xml:space="preserve" width="36px" height="36px" version="1.1" style="shape-rendering:geometricPrecision; text-rendering:geometricPrecision; image-rendering:optimizeQuality; fill-rule:evenodd; clip-rule:evenodd"
viewBox="0 0 36 36"
 xmlns:xlink="http://www.w3.org/1999/xlink"
 xmlns:xodm="http://www.corel.com/coreldraw/odm/2003">
 <defs>
  <style type="text/css">
   <![CDATA[
    .fil0 {fill:none}
    .fil1 {fill:#004A5D}
   ]]>
  </style>
 </defs>
 <g id="Default">
  <metadata id="CorelCorpID_0Corel-Layer"/>
  <g id="_1654075537520">
   <rect class="fil0" width="36" height="36"/>
   <path class="fil1" d="M14.075 4.25c-0.209,-0.209 -0.548,-0.209 -0.757,0 -0.209,0.209 -0.209,0.548 0,0.757 1.634,1.634 3.267,3.268 4.901,4.901 -1.645,0.236 -3.305,-0.303 -4.498,-1.46 -1.192,-1.155 -1.782,-2.797 -1.598,-4.447 0.055,-0.498 0.448,-0.891 0.946,-0.946 1.65,-0.184 3.292,0.407 4.448,1.599 1.156,1.193 1.694,2.853 1.459,4.497 -1.633,-1.634 -3.267,-3.267 -4.901,-4.901zm-3.479 24.917c0.591,0 1.071,0.48 1.071,1.071 0,0.591 -0.48,1.071 -1.071,1.071 -0.592,0 -1.071,-0.48 -1.071,-1.071 0,-0.591 0.479,-1.071 1.071,-1.071zm-5.003 -6.96c-0.418,-0.419 -1.096,-0.419 -1.514,0 -0.505,0.504 -1.01,1.009 -1.515,1.514 -0.418,0.418 -0.418,1.096 0,1.514 2.425,2.425 4.85,4.85 7.275,7.275 0.418,0.418 1.096,0.418 1.514,0 0.505,-0.505 1.009,-1.01 1.514,-1.514 0.419,-0.419 0.419,-1.096 0,-1.515 -2.425,-2.425 -4.849,-4.849 -7.274,-7.274zm21.694 4.191c1.997,-1.997 3.995,-3.995 5.993,-5.993 0.622,-0.622 0.628,-1.628 0.013,-2.258 -0.614,-0.629 -1.621,-0.648 -2.257,-0.041 -1.693,1.612 -3.385,3.225 -5.077,4.838 -0.498,0.474 -1.159,0.739 -1.847,0.739 -2.15,0 -4.3,0 -6.45,0 -0.295,0 -0.535,-0.24 -0.535,-0.535 0,-0.296 0.24,-0.536 0.535,-0.536 2.15,0 4.3,0 6.45,0 0.887,0 1.606,-0.719 1.606,-1.606 0,-0.887 -0.719,-1.607 -1.606,-1.607 -2.474,0 -4.948,0 -7.423,0 -0.37,0 -0.734,-0.096 -1.056,-0.278 -3.194,-1.812 -7.255,-0.557 -8.872,2.74 2.036,2.035 4.071,4.07 6.106,6.106 3.545,0 7.089,0 10.634,0 1.42,0 2.782,-0.565 3.786,-1.569zm0.79 -17.804c0.447,2.596 -0.403,5.246 -2.276,7.097 -1.875,1.851 -4.535,2.669 -7.126,2.189 2.751,-2.75 5.501,-5.501 8.252,-8.252 0.209,-0.208 0.209,-0.548 0,-0.756 -0.209,-0.21 -0.548,-0.21 -0.757,0 -2.751,2.75 -5.501,5.5 -8.252,8.251 -0.48,-2.591 0.338,-5.253 2.19,-7.126 1.851,-1.874 4.501,-2.723 7.096,-2.276 0.446,0.077 0.796,0.427 0.873,0.873z"/>
  </g>
 </g>
</svg>
