<?xml version="1.0" encoding="UTF-8"?>
<!DOCTYPE svg PUBLIC "-//W3C//DTD SVG 1.1//EN" "http://www.w3.org/Graphics/SVG/1.1/DTD/svg11.dtd">
<!-- Creator: CorelDRAW -->
<svg xmlns="http://www.w3.org/2000/svg" xml:space="preserve" width="16px" height="16px" version="1.1" shape-rendering="geometricPrecision" text-rendering="geometricPrecision" image-rendering="optimizeQuality" fill-rule="evenodd" clip-rule="evenodd"
viewBox="0 0 16 16"
 xmlns:xlink="http://www.w3.org/1999/xlink"
 xmlns:xodm="http://www.corel.com/coreldraw/odm/2003">
 <g id="Default">
  <metadata id="CorelCorpID_0Corel-Layer"/>
  <path fill="black" d="M9 5c0,-1.33 0,-2.67 0,-4 -1.66,0 -3.33,0 -5,0 0,1.67 0,3.33 0,5 -0.33,0 -0.67,0 -1,0 0,-1.67 0,-3.33 0,-5 0,-0.55 0.45,-1 1,-1 3.67,0 7.33,0 11,0 0.55,0 1,0.45 1,1 0,2.52 0,5.05 0,7.57 -0.06,2.6 -1.56,4.96 -3.89,6.13 -0.87,0.43 -1.74,0.87 -2.61,1.3 -0.87,-0.43 -1.74,-0.87 -2.61,-1.3 -2.19,-1.1 -3.65,-3.26 -3.87,-5.7 0.34,0 0.67,0 1.01,0 0.21,2.06 1.46,3.88 3.31,4.8 0.55,0.28 1.11,0.56 1.66,0.83 0,-1.54 0,-3.08 0,-4.63 0,-0.28 0.23,-0.5 0.5,-0.5 0.28,0 0.5,0.22 0.5,0.5 0,1.55 0,3.09 0,4.63 0.55,-0.27 1.11,-0.55 1.66,-0.83 1.99,-0.99 3.28,-3 3.34,-5.23 0,0 0,-0.01 0,-0.01 0,-2.52 0,-5.04 0,-7.56 -1.67,0 -3.33,0 -5,0 0,1.33 0,2.67 0,4 0,0.28 -0.22,0.5 -0.5,0.5 -0.27,0 -0.5,-0.22 -0.5,-0.5zm-8.5 2c-0.28,0 -0.5,0.23 -0.5,0.5 0,0.28 0.22,0.5 0.5,0.5 2.6,0 5.2,0 7.79,0 -0.57,0.58 -1.15,1.15 -1.72,1.72 -0.2,0.2 -0.2,0.52 0,0.71 0.2,0.2 0.51,0.2 0.71,0 0.86,-0.86 1.72,-1.72 2.57,-2.58 0.2,-0.19 0.2,-0.51 0,-0.7 -0.85,-0.86 -1.71,-1.72 -2.57,-2.58 -0.2,-0.19 -0.51,-0.19 -0.71,0 -0.2,0.2 -0.2,0.51 0,0.71 0.57,0.57 1.15,1.15 1.72,1.72 -2.59,0 -5.19,0 -7.79,0z"/>
 </g>
</svg>
