<?xml version="1.0" encoding="UTF-8"?>
<!DOCTYPE svg PUBLIC "-//W3C//DTD SVG 1.1//EN" "http://www.w3.org/Graphics/SVG/1.1/DTD/svg11.dtd">
<!-- Creator: CorelDRAW -->
<svg xmlns="http://www.w3.org/2000/svg" xml:space="preserve" width="36px" height="36px" version="1.1" shape-rendering="geometricPrecision" text-rendering="geometricPrecision" image-rendering="optimizeQuality" fill-rule="evenodd" clip-rule="evenodd"
viewBox="0 0 36 36"
 xmlns:xlink="http://www.w3.org/1999/xlink"
 xmlns:xodm="http://www.corel.com/coreldraw/odm/2003">
 <g id="Default">
  <metadata id="CorelCorpID_0Corel-Layer"/>
  <rect fill="none" width="36" height="36"/>
  <path fill="#268FA3" d="M20.396 18.853c-0.211,-0.211 -0.556,-0.211 -0.767,0l-1.151 1.15 -1.15 -1.15c-0.211,-0.211 -0.556,-0.211 -0.767,0 -0.211,0.211 -0.211,0.555 0,0.766l1.534 1.535c0.21,0.21 0.557,0.21 0.767,0l1.534 -1.535c0.211,-0.21 0.211,-0.555 0,-0.766zm4.905 -16.621c-0.412,0 -0.823,0 -1.235,0 -0.341,0 -0.618,0.276 -0.618,0.617 0,0.468 0,0.935 0,1.402l-4.616 -2.348c-0.253,-0.129 -0.454,-0.129 -0.708,0 -3.126,1.59 -6.252,3.18 -9.378,4.77 -0.312,0.159 -0.436,0.54 -0.278,0.851 0.159,0.312 0.54,0.436 0.852,0.277l0.483 -0.245c0,2.803 0,5.607 0,8.41 0,0.299 0.243,0.542 0.542,0.542 5.422,0 10.844,0 16.266,0 0.3,0 0.543,-0.243 0.543,-0.542 0,-2.803 0,-5.607 0,-8.41l0.483 0.245c0.312,0.159 0.693,0.035 0.851,-0.277 0.159,-0.311 0.035,-0.692 -0.277,-0.851l-2.292 -1.166c0,-0.886 0,-1.772 0,-2.658 0,-0.341 -0.277,-0.617 -0.618,-0.617zm-12.065 10.689c1.18,0 2.361,0 3.542,0 0.276,0 0.39,-0.114 0.39,-0.39 0,-1.181 0,-2.361 0,-3.542 0,-0.276 -0.114,-0.39 -0.39,-0.39 -1.181,0 -2.362,0 -3.542,0 -0.276,0 -0.391,0.114 -0.391,0.39 0,1.181 0,2.361 0,3.542 0,0.276 0.115,0.39 0.391,0.39zm10.875 -0.39c0,-1.181 0,-2.361 0,-3.542 0,-0.276 -0.114,-0.39 -0.39,-0.39 -1.181,0 -2.361,0 -3.542,0 -0.276,0 -0.39,0.114 -0.39,0.39 0,1.181 0,2.361 0,3.542 0,0.276 0.114,0.39 0.39,0.39 1.181,0 2.361,0 3.542,0 0.276,0 0.39,-0.114 0.39,-0.39zm-13.186 9.659c0,2.825 0,5.65 0,8.474 -2.527,-0.608 -5.183,-0.407 -7.59,0.575 0,-2.778 0,-5.557 0,-8.335 2.344,-1.206 5.063,-1.462 7.59,-0.714zm11.992 1.704c0,2.799 0,5.599 0,8.399 -0.724,0.307 -1.458,0.525 -2.232,0.661 0,-2.841 0,-5.682 0,-8.523 0.764,-0.11 1.501,-0.288 2.232,-0.537zm-19.767 8.611c-0.417,0.199 -0.9,-0.105 -0.9,-0.568 0,-3.102 0,-6.204 0,-9.307 0,-0.269 0.091,-0.422 0.327,-0.551 3.391,-1.859 7.497,-1.859 10.888,0.001 2.975,1.631 6.524,1.842 9.672,0.575 0.413,-0.166 0.864,0.138 0.864,0.584 0,3.117 0,6.234 0,9.35 0,0.292 -0.101,0.449 -0.366,0.572 -2.214,1.016 -4.698,1.292 -7.081,0.785 3.086,-1.183 3.116,-5.538 0.047,-6.764 -3.069,-1.226 -6.048,1.952 -4.626,4.935 -2.873,-1.071 -6.058,-0.931 -8.825,0.388zm12.104 -4.498c-1.407,0 -2.548,1.141 -2.548,2.548 0,1.407 1.141,2.547 2.548,2.547 1.407,0 2.547,-1.14 2.547,-2.547 0,-1.407 -1.14,-2.548 -2.547,-2.548zm12.379 -5.415c-1.407,0 -2.548,1.141 -2.548,2.548 0,1.407 1.141,2.547 2.548,2.547 1.407,0 2.547,-1.14 2.547,-2.547 0,-1.407 -1.14,-2.548 -2.547,-2.548zm3.569 5.423c-1.407,0 -2.547,1.14 -2.547,2.547 0,1.407 1.14,2.547 2.547,2.547 1.407,0 2.548,-1.14 2.548,-2.547 0,-1.407 -1.141,-2.547 -2.548,-2.547z"/>
 </g>
</svg>
