<svg xmlns="http://www.w3.org/2000/svg" xml:space="preserve" fill-rule="evenodd" viewBox="0 0 36 36"><path fill="none" d="M0 0h36v36H0z"/><path d="M18 33.42c8.53 0 15.42-6.89 15.42-15.42S26.53 2.58 18 2.58 2.58 9.47 2.58 18 9.47 33.42 18 33.42m-.72-10.38c.62 0 1.03-.52 1.03-1.13v-.31c0-.93.41-1.54 2.05-3.09 2.06-1.85 2.78-3.08 2.78-4.72 0-2.78-2.26-4.94-5.14-4.94-2.36 0-4.21 1.24-5.04 3.39-.1.11-.1.31-.1.62 0 .51.41 1.03 1.03 1.03.41 0 .82-.31 1.03-.72.51-1.34 1.64-2.16 2.98-2.16 1.64 0 2.88 1.23 2.88 2.98 0 1.24-.42 1.85-2.27 3.6-1.74 1.64-2.36 2.67-2.36 4.01v.41c0 .62.51 1.13 1.13 1.13zm.1 4c.72 0 1.34-.61 1.34-1.33s-.62-1.34-1.34-1.34-1.33.62-1.33 1.34.61 1.33 1.33 1.33m.72 4.22c7.3 0 13.26-5.96 13.26-13.26S25.4 4.74 18.1 4.74C10.81 4.74 4.84 10.7 4.84 18s5.97 13.26 13.26 13.26"/></svg>