<?xml version="1.0" encoding="UTF-8"?>
<!DOCTYPE svg PUBLIC "-//W3C//DTD SVG 1.1//EN" "http://www.w3.org/Graphics/SVG/1.1/DTD/svg11.dtd">
<!-- Creator: CorelDRAW -->
<svg xmlns="http://www.w3.org/2000/svg" xml:space="preserve" width="36px" height="36px" version="1.1" shape-rendering="geometricPrecision" text-rendering="geometricPrecision" image-rendering="optimizeQuality" fill-rule="evenodd" clip-rule="evenodd"
viewBox="0 0 36 36"
 xmlns:xlink="http://www.w3.org/1999/xlink"
 xmlns:xodm="http://www.corel.com/coreldraw/odm/2003">
 <g id="Default">
  <metadata id="CorelCorpID_0Corel-Layer"/>
  <g id="_2332953989568">
   <rect fill="none" width="36" height="36"/>
   <path fill="#AB0534" d="M28.607 31.789c0,-7.071 0,-14.142 0,-21.213 0,-0.586 0.475,-1.061 1.06,-1.061 0.708,0 1.415,0 2.122,0 0.586,0 1.061,0.475 1.061,1.061 0,7.071 0,14.142 0,21.213 0,0.586 -0.475,1.061 -1.061,1.061 -0.707,0 -1.414,0 -2.122,0 -0.585,0 -1.06,-0.475 -1.06,-1.061zm2.121 -27.578c-0.585,0 -1.061,0.475 -1.061,1.061 0,0.586 0.476,1.061 1.061,1.061 0.586,0 1.061,-0.475 1.061,-1.061 0,-0.586 -0.475,-1.061 -1.061,-1.061zm-19.092 13.789c-0.586,0 -1.061,0.475 -1.061,1.061 0,0.586 0.475,1.061 1.061,1.061 0.586,0 1.06,-0.475 1.06,-1.061 0,-0.586 -0.474,-1.061 -1.06,-1.061zm-6.364 2.122c-0.586,0 -1.061,0.475 -1.061,1.06 0,0.586 0.475,1.061 1.061,1.061 0.585,0 1.06,-0.475 1.06,-1.061 0,-0.585 -0.475,-1.06 -1.06,-1.06zm19.092 -9.546c-0.586,0 -1.061,0.474 -1.061,1.06 0,0.586 0.475,1.061 1.061,1.061 0.586,0 1.061,-0.475 1.061,-1.061 0,-0.586 -0.475,-1.06 -1.061,-1.06zm-6.364 4.242c-0.586,0 -1.061,0.475 -1.061,1.061 0,0.586 0.475,1.061 1.061,1.061 0.586,0 1.061,-0.475 1.061,-1.061 0,-0.586 -0.475,-1.061 -1.061,-1.061zm11.651 -7.719c0.92,0.543 2.1,0.316 2.754,-0.528 0.655,-0.844 0.579,-2.044 -0.177,-2.799 -0.755,-0.756 -1.954,-0.831 -2.799,-0.177 -0.844,0.654 -1.071,1.834 -0.528,2.754 -1.153,1.153 -2.306,2.307 -3.46,3.46 -0.766,-0.452 -1.734,-0.378 -2.422,0.187 -0.688,0.564 -0.951,1.498 -0.658,2.338 -0.982,0.655 -1.964,1.31 -2.946,1.964 -0.685,-0.612 -1.685,-0.715 -2.48,-0.254 -0.794,0.461 -1.202,1.381 -1.009,2.279 -0.897,0.448 -1.794,0.897 -2.69,1.345 -0.599,-0.688 -1.57,-0.916 -2.412,-0.567 -0.842,0.349 -1.367,1.197 -1.305,2.106 -0.822,0.274 -1.644,0.548 -2.467,0.823 -0.58,-0.897 -1.737,-1.222 -2.699,-0.76 -0.963,0.463 -1.432,1.57 -1.094,2.583 0.338,1.014 1.377,1.618 2.425,1.41 1.048,-0.207 1.778,-1.161 1.704,-2.227 0.822,-0.274 1.645,-0.548 2.467,-0.823 0.556,0.86 1.647,1.2 2.593,0.808 0.945,-0.392 1.477,-1.403 1.262,-2.404 0.897,-0.449 1.793,-0.897 2.69,-1.345 0.668,0.767 1.785,0.952 2.665,0.442 0.879,-0.511 1.273,-1.573 0.938,-2.533 0.982,-0.655 1.964,-1.31 2.946,-1.964 0.78,0.697 1.951,0.723 2.76,0.06 0.809,-0.664 1.014,-1.817 0.483,-2.718 1.153,-1.153 2.306,-2.306 3.459,-3.46zm-25.44 25.751c0.707,0 1.414,0 2.121,0 0.586,0 1.061,-0.475 1.061,-1.061 0,-1.768 0,-3.536 0,-5.303 0,-0.586 -0.475,-1.061 -1.061,-1.061 -0.707,0 -1.414,0 -2.121,0 -0.586,0 -1.061,0.475 -1.061,1.061 0,1.767 0,3.535 0,5.303 0,0.586 0.475,1.061 1.061,1.061zm6.364 -9.546c0.707,0 1.414,0 2.121,0 0.586,0 1.061,0.474 1.061,1.06 0,2.475 0,4.95 0,7.425 0,0.586 -0.475,1.061 -1.061,1.061 -0.707,0 -1.414,0 -2.121,0 -0.586,0 -1.06,-0.475 -1.06,-1.061 0,-2.475 0,-4.95 0,-7.425 0,-0.586 0.474,-1.06 1.06,-1.06zm6.364 9.546c0.707,0 1.415,0 2.122,0 0.586,0 1.06,-0.475 1.06,-1.061 0,-3.536 0,-7.071 0,-10.607 0,-0.585 -0.474,-1.06 -1.06,-1.06 -0.707,0 -1.415,0 -2.122,0 -0.586,0 -1.06,0.475 -1.06,1.06 0,3.536 0,7.071 0,10.607 0,0.586 0.474,1.061 1.06,1.061zm6.364 0c0.708,0 1.415,0 2.122,0 0.586,0 1.06,-0.475 1.06,-1.061 0,-4.95 0,-9.9 0,-14.849 0,-0.586 -0.474,-1.061 -1.06,-1.061 -0.707,0 -1.414,0 -2.122,0 -0.585,0 -1.06,0.475 -1.06,1.061 0,4.949 0,9.899 0,14.849 0,0.586 0.475,1.061 1.06,1.061z"/>
  </g>
 </g>
</svg>
