<?xml version="1.0" encoding="UTF-8"?>
<!DOCTYPE svg PUBLIC "-//W3C//DTD SVG 1.1//EN" "http://www.w3.org/Graphics/SVG/1.1/DTD/svg11.dtd">
<!-- Creator: CorelDRAW -->
<svg xmlns="http://www.w3.org/2000/svg" xml:space="preserve" width="36px" height="36px" version="1.1" shape-rendering="geometricPrecision" text-rendering="geometricPrecision" image-rendering="optimizeQuality" fill-rule="evenodd" clip-rule="evenodd"
viewBox="0 0 36 36"
 xmlns:xlink="http://www.w3.org/1999/xlink"
 xmlns:xodm="http://www.corel.com/coreldraw/odm/2003">
 <g id="Default">
  <metadata id="CorelCorpID_0Corel-Layer"/>
  <g id="_2332819296560">
   <path fill="#AB0534" d="M30.667 7.962c-0.242,0.243 -0.635,0.243 -0.878,0 -0.242,-0.242 -0.242,-0.635 0,-0.877 0.683,-0.683 1.365,-1.365 2.048,-2.048 0.243,-0.242 0.636,-0.242 0.878,0 0.242,0.242 0.242,0.635 0,0.878 -0.683,0.683 -1.365,1.365 -2.048,2.047zm-2.136 3.836c0.091,-0.331 0.433,-0.525 0.763,-0.434 0.331,0.091 0.525,0.433 0.434,0.763 -1.138,4.132 -3.243,7.934 -6.142,11.09 -0.232,0.252 -0.625,0.269 -0.877,0.037 -0.253,-0.232 -0.269,-0.624 -0.038,-0.877 2.766,-3.011 4.775,-6.637 5.86,-10.579zm-2.907 -3.774c0.331,-0.091 0.673,0.103 0.764,0.434 0.091,0.33 -0.104,0.672 -0.434,0.762 -3.942,1.086 -7.568,3.095 -10.58,5.86 -0.252,0.232 -0.645,0.216 -0.876,-0.037 -0.232,-0.252 -0.216,-0.645 0.037,-0.877 3.156,-2.899 6.958,-5.004 11.089,-6.142zm-22.463 18.668c0.387,-0.388 0.775,-0.775 1.163,-1.163 0.243,-0.243 0.635,-0.243 0.878,-0.001 0.242,0.243 0.242,0.636 0,0.878 -0.388,0.388 -0.776,0.776 -1.164,1.163 -0.729,0.73 -0.729,1.911 0,2.641 0.729,0.729 1.911,0.729 2.64,0 0.534,-0.535 1.068,-1.069 1.603,-1.603 0.292,0.293 0.585,0.585 0.877,0.878 -0.534,0.534 -1.068,1.068 -1.602,1.602 -1.214,1.214 -3.182,1.214 -4.396,0 -1.213,-1.213 -1.213,-3.181 0.001,-4.395zm13.881 -6.846c-2.628,2.628 -5.256,5.256 -7.884,7.884 0.293,0.292 0.585,0.585 0.878,0.877 2.628,-2.627 5.256,-5.255 7.883,-7.883 0.243,-0.242 0.243,-0.635 0,-0.878 -0.242,-0.242 -0.635,-0.242 -0.877,0zm-2.442 -3.088c3.25,0.601 5.793,3.144 6.394,6.394 0.131,0.708 0.685,1.262 1.392,1.393 2.835,0.524 5.165,2.536 6.098,5.262 0.327,0.956 1.597,1.142 2.184,0.32 4.698,-6.571 3.955,-15.575 -1.757,-21.287 -5.711,-5.712 -14.716,-6.455 -21.287,-1.756 -0.821,0.587 -0.635,1.857 0.321,2.183 2.726,0.934 4.738,3.264 5.262,6.098 0.131,0.708 0.685,1.262 1.393,1.393z"/>
   <rect fill="none" width="36" height="36"/>
  </g>
 </g>
</svg>
