<?xml version="1.0" encoding="UTF-8"?>
<!DOCTYPE svg PUBLIC "-//W3C//DTD SVG 1.1//EN" "http://www.w3.org/Graphics/SVG/1.1/DTD/svg11.dtd">
<!-- Creator: CorelDRAW -->
<svg xmlns="http://www.w3.org/2000/svg" xml:space="preserve" width="36px" height="36px" version="1.1" shape-rendering="geometricPrecision" text-rendering="geometricPrecision" image-rendering="optimizeQuality" fill-rule="evenodd" clip-rule="evenodd"
viewBox="0 0 36 36"
 xmlns:xlink="http://www.w3.org/1999/xlink"
 xmlns:xodm="http://www.corel.com/coreldraw/odm/2003">
 <g id="Default">
  <metadata id="CorelCorpID_0Corel-Layer"/>
  <g id="_2332991168992">
   <rect fill="none" width="36" height="36"/>
   <path fill="#6FC7B6" d="M11.45 28.255c0.409,0.211 0.618,0.676 0.507,1.122 -0.187,0.747 -0.374,1.493 -0.56,2.24 -0.157,0.626 0.317,1.233 0.962,1.233 0.642,0 1.283,0 1.924,0 0.456,0 0.853,-0.31 0.963,-0.751 0.13,-0.521 0.26,-1.041 0.39,-1.561 0.12,-0.479 0.573,-0.797 1.064,-0.747 1.076,0.11 2.135,0.11 3.211,0 0.491,-0.05 0.944,0.268 1.064,0.747 0.13,0.52 0.26,1.04 0.39,1.561 0.111,0.441 0.507,0.751 0.963,0.751 0.641,0 1.282,0 1.924,0 0.645,0 1.119,-0.607 0.962,-1.233 -0.186,-0.747 -0.373,-1.493 -0.56,-2.24 -0.111,-0.446 0.098,-0.911 0.507,-1.122 3.583,-1.853 6.372,-5.465 5.669,-9.79 1.284,-1.13 2.02,-2.758 2.02,-4.469 0,-0.274 -0.222,-0.496 -0.496,-0.496 -0.274,0 -0.497,0.222 -0.497,0.496 0,1.35 -0.384,2.343 -1.293,3.341 -1.155,-3.725 -4.606,-6.136 -8.111,-7.111 -0.444,0.694 -0.978,1.218 -1.68,1.648 0.535,0.098 1.064,0.229 1.582,0.393 0.15,0.047 0.298,0.097 0.446,0.15 0.257,0.093 0.392,0.377 0.299,0.635 -0.093,0.258 -0.377,0.392 -0.634,0.3 -0.136,-0.049 -0.273,-0.095 -0.41,-0.139 -0.617,-0.195 -1.249,-0.339 -1.888,-0.434 -0.617,-0.091 -1.239,-0.136 -1.862,-0.136 -0.623,0 -1.246,0.045 -1.862,0.136 -0.64,0.095 -1.272,0.239 -1.888,0.434 -0.138,0.044 -0.275,0.09 -0.411,0.139 -0.257,0.092 -0.541,-0.042 -0.634,-0.3 -0.092,-0.258 0.042,-0.542 0.299,-0.635 0.148,-0.053 0.296,-0.103 0.446,-0.15 0.387,-0.123 0.781,-0.227 1.178,-0.312 -0.715,-0.409 -1.264,-0.915 -1.729,-1.595 -0.486,0.152 -0.962,0.328 -1.43,0.531 -1.348,-1.377 -3.432,-1.727 -5.156,-0.864 0.64,0.959 1.28,1.919 1.919,2.878 -1.328,1.148 -2.267,2.397 -2.869,4.068 -0.675,0 -1.351,0 -2.027,0 -0.548,0 -0.992,0.444 -0.992,0.992 0,1.323 0,2.646 0,3.969 0,0.548 0.444,0.993 0.992,0.993 0.722,0 1.444,0 2.167,0 0.977,2.376 2.925,4.182 5.141,5.328zm-0.292 -12.275c-0.547,0 -0.992,0.445 -0.992,0.993 0,0.548 0.445,0.992 0.992,0.992 0.549,0 0.993,-0.444 0.993,-0.992 0,-0.548 -0.444,-0.993 -0.993,-0.993zm6.877 -12.83c-2.348,0 -4.252,1.903 -4.252,4.251 0,2.349 1.904,4.252 4.252,4.252 2.348,0 4.251,-1.903 4.251,-4.252 0,-2.348 -1.903,-4.251 -4.251,-4.251z"/>
  </g>
 </g>
</svg>
