<?xml version="1.0" encoding="UTF-8"?>
<!DOCTYPE svg PUBLIC "-//W3C//DTD SVG 1.1//EN" "http://www.w3.org/Graphics/SVG/1.1/DTD/svg11.dtd">
<!-- Creator: CorelDRAW -->
<svg xmlns="http://www.w3.org/2000/svg" xml:space="preserve" width="36px" height="36px" version="1.1" shape-rendering="geometricPrecision" text-rendering="geometricPrecision" image-rendering="optimizeQuality" fill-rule="evenodd" clip-rule="evenodd"
viewBox="0 0 36 36"
 xmlns:xlink="http://www.w3.org/1999/xlink"
 xmlns:xodm="http://www.corel.com/coreldraw/odm/2003">
 <g id="Default">
  <metadata id="CorelCorpID_0Corel-Layer"/>
  <g id="_2332981538624">
   <rect fill="none" width="36" height="36"/>
   <path fill="#6FC7B6" d="M3.302 14.769c-0.581,0 -1.052,-0.471 -1.052,-1.053 0,-3.483 0,-6.967 0,-10.45 0,-0.581 0.471,-1.053 1.052,-1.053 9.799,0 19.597,0 29.395,0 0.582,0 1.053,0.472 1.053,1.053 0,3.483 0,6.967 0,10.45 0,0.582 -0.471,1.053 -1.053,1.053 -1.525,0 -3.05,0 -4.574,0 -0.853,-1.953 -2.799,-3.199 -4.93,-3.156 -0.624,-3.062 -3.763,-4.909 -6.743,-3.966 -2.979,0.942 -4.486,4.258 -3.236,7.122 -3.304,0 -6.608,0 -9.912,0zm26.312 -2.105l2.031 0 0 -8.346 -2.031 0 0 8.346zm-18.888 -8.346l-6.371 0 0 8.346 6.371 0 0 -8.346zm12.524 22.102l5.25 0 -10.5 -4.21 -10.5 4.21 5.25 0 -10.5 7.367 31.5 0 -10.5 -7.367zm-1.106 -14.68c-0.774,-3.444 -5.189,-4.463 -7.394,-1.706 -2.206,2.757 -0.243,6.84 3.287,6.84 0,-2.461 1.706,-4.594 4.107,-5.134zm1.156 0.924c-2.326,0 -4.211,1.885 -4.211,4.21 0,2.325 1.885,4.209 4.211,4.209 2.325,0 4.209,-1.884 4.209,-4.209 0,-2.325 -1.884,-4.21 -4.209,-4.21z"/>
  </g>
 </g>
</svg>
