<?xml version="1.0" encoding="UTF-8"?>
<!DOCTYPE svg PUBLIC "-//W3C//DTD SVG 1.1//EN" "http://www.w3.org/Graphics/SVG/1.1/DTD/svg11.dtd">
<!-- Creator: CorelDRAW -->
<svg xmlns="http://www.w3.org/2000/svg" xml:space="preserve" width="36px" height="36px" version="1.1" shape-rendering="geometricPrecision" text-rendering="geometricPrecision" image-rendering="optimizeQuality" fill-rule="evenodd" clip-rule="evenodd"
viewBox="0 0 36 36"
 xmlns:xlink="http://www.w3.org/1999/xlink"
 xmlns:xodm="http://www.corel.com/coreldraw/odm/2003">
 <g id="Default">
  <metadata id="CorelCorpID_0Corel-Layer"/>
  <g id="_2332917714000">
   <rect fill="none" width="36" height="36"/>
   <path fill="white" fill-rule="nonzero" d="M23.98 5.93c-1.367,0.507 -2.174,1.921 -1.917,3.356 0.258,1.435 1.507,2.48 2.965,2.48 1.458,0 2.707,-1.045 2.965,-2.48 0.257,-1.435 -0.55,-2.849 -1.917,-3.356 1.1,-0.967 0.416,-2.78 -1.048,-2.78 -1.464,0 -2.148,1.813 -1.048,2.78zm-15.016 -2.196c-1.664,0 -3.012,1.348 -3.012,3.012 0,1.663 1.348,3.012 3.012,3.012 1.663,0 3.012,-1.349 3.012,-3.012 0,-1.664 -1.349,-3.012 -3.012,-3.012zm19.076 25.1c0.67,0 1.339,0 2.008,0 -0.669,-2.343 -1.338,-4.685 -2.008,-7.028 0,-3.012 0,-6.024 0,-9.036 -2.008,0 -4.016,0 -6.024,0 0,3.012 0,6.024 0,9.036 -0.669,2.343 -1.339,4.685 -2.008,7.028 0.669,0 1.339,0 2.008,0 0,1.004 0,2.008 0,3.012 0,0.554 0.449,1.004 1.004,1.004 0.555,0 1.004,-0.45 1.004,-1.004 0,-1.004 0,-2.008 0,-3.012 0.669,0 1.339,0 2.008,0 0,1.004 0,2.008 0,3.012 0,0.554 0.45,1.004 1.004,1.004 0.554,0 1.004,-0.45 1.004,-1.004 0,-1.004 0,-2.008 0,-3.012zm-14.056 -6.024c0,0.277 0.225,0.502 0.502,0.502 0.277,0 0.502,-0.225 0.502,-0.502 0,-0.277 0.225,-0.502 0.502,-0.502 0.277,0 0.502,0.225 0.502,0.502 0,3.346 0,6.693 0,10.04 0.335,0 0.669,0 1.004,0 0,-3.347 0,-6.694 0,-10.04 0,-0.832 -0.674,-1.506 -1.506,-1.506 -0.832,0 -1.506,0.674 -1.506,1.506zm7.028 -2.008c0,0.554 -0.449,1.004 -1.004,1.004 -0.555,0 -1.004,-0.45 -1.004,-1.004 0,-2.008 0,-4.016 0,-6.024 0,-1.109 0.899,-2.008 2.008,-2.008 0,2.677 0,5.354 0,8.032zm8.032 0c0,0.554 0.45,1.004 1.004,1.004 0.555,0 1.004,-0.45 1.004,-1.004 0,-2.008 0,-4.016 0,-6.024 0,-1.109 -0.899,-2.008 -2.008,-2.008 0,2.677 0,5.354 0,8.032zm1.004 3.012c0,0.277 0.225,0.502 0.502,0.502 0.277,0 0.502,-0.225 0.502,-0.502 0,-0.277 0.225,-0.502 0.502,-0.502 0.277,0 0.502,0.225 0.502,0.502 0,3.012 0,6.024 0,9.036 0.335,0 0.669,0 1.004,0 0,-3.012 0,-6.024 0,-9.036 0,-0.832 -0.674,-1.506 -1.506,-1.506 -0.832,0 -1.506,0.674 -1.506,1.506zm-22.088 0c0.669,0 1.338,0 2.008,0 0,2.677 0,5.354 0,8.032 0,0.554 0.449,1.004 1.004,1.004 0.554,0 1.004,-0.45 1.004,-1.004 0,-3.012 0,-6.024 0,-9.036 0,-4.016 0,-8.032 0,-12.048 -2.008,0 -4.016,0 -6.024,0 0,4.016 0,8.032 0,12.048 0,3.012 0,6.024 0,9.036 0,0.554 0.449,1.004 1.004,1.004 0.554,0 1.004,-0.45 1.004,-1.004 0,-2.678 0,-5.355 0,-8.032zm5.02 -4.016c0,0.554 0.45,1.004 1.004,1.004 0.554,0 1.004,-0.45 1.004,-1.004 0,-2.343 0,-4.686 0,-7.028 0,-1.109 -0.899,-2.008 -2.008,-2.008 0,3.012 0,6.024 0,9.036zm-8.032 0c0,0.554 -0.45,1.004 -1.004,1.004 -0.555,0 -1.004,-0.45 -1.004,-1.004 0,-2.343 0,-4.686 0,-7.028 0,-1.109 0.899,-2.008 2.008,-2.008 0,3.012 0,6.024 0,9.036z"/>
  </g>
 </g>
</svg>
