<?xml version="1.0" encoding="UTF-8"?>
<!DOCTYPE svg PUBLIC "-//W3C//DTD SVG 1.1//EN" "http://www.w3.org/Graphics/SVG/1.1/DTD/svg11.dtd">
<!-- Creator: CorelDRAW -->
<svg xmlns="http://www.w3.org/2000/svg" xml:space="preserve" width="36px" height="36px" version="1.1" shape-rendering="geometricPrecision" text-rendering="geometricPrecision" image-rendering="optimizeQuality" fill-rule="evenodd" clip-rule="evenodd"
viewBox="0 0 36 36"
 xmlns:xlink="http://www.w3.org/1999/xlink"
 xmlns:xodm="http://www.corel.com/coreldraw/odm/2003">
 <g id="Default">
  <metadata id="CorelCorpID_0Corel-Layer"/>
  <g id="_2332790543632">
   <rect fill="none" width="36" height="36"/>
   <path fill="#268FA3" d="M14.806 22.21l6.389 0 2.105 3.157 10.45 0 -15.75 8.42 -15.75 -8.42 10.451 0 2.105 -3.157zm14.808 -9.547l2.031 0 0 -8.345 -2.031 0 0 8.345zm-18.888 -8.345l-6.371 0 0 8.345 6.371 0 0 -8.345zm-7.424 10.45c-0.581,0 -1.052,-0.471 -1.052,-1.052 0,-3.483 0,-6.967 0,-10.451 0,-0.581 0.471,-1.052 1.052,-1.052 9.799,0 19.597,0 29.396,0 0.581,0 1.052,0.471 1.052,1.052 0,3.484 0,6.968 0,10.451 0,0.581 -0.471,1.052 -1.052,1.052 -1.526,0 -3.05,0 -4.575,0 -0.853,-1.953 -2.799,-3.199 -4.93,-3.156 -0.624,-3.062 -3.764,-4.908 -6.743,-3.966 -2.979,0.942 -4.486,4.259 -3.236,7.122 -3.304,0 -6.608,0 -9.912,0zm18.842 -3.029c-0.775,-3.444 -5.189,-4.462 -7.394,-1.705 -2.205,2.756 -0.243,6.839 3.287,6.839 0,-2.461 1.706,-4.593 4.107,-5.134zm1.156 0.924c-2.326,0 -4.21,1.885 -4.21,4.21 0,2.325 1.884,4.21 4.21,4.21 2.324,0 4.209,-1.885 4.209,-4.21 0,-2.325 -1.885,-4.21 -4.209,-4.21z"/>
  </g>
 </g>
</svg>
