<svg xmlns="http://www.w3.org/2000/svg" xml:space="preserve" width="36" height="36" fill-rule="evenodd" clip-rule="evenodd" image-rendering="optimizeQuality" shape-rendering="geometricPrecision" text-rendering="geometricPrecision" viewBox="0 0 36 36"><path fill="none" d="M0 0h36v36H0z"/><path d="M9.4 13h.5c.4 0 .5-.2.5-.5V9.3c0-.4-.2-.5-.5-.5h-.5c-.4 0-.5.2-.5.5v3.2c0 .4.2.5.5.5m12.8 20.4V7.5c0-1.8 1.4-3.2 3.2-3.2.6 0 1.1-.5 1.1-1.1s-.5-1.1-1.1-1.1c-2.9 0-5.3 2.4-5.3 5.3v25.9c0 .4.2.5.5.5h1.1c.4 0 .5-.2.5-.5zm-8.4 0V7.5c0-1.8-1.4-3.2-3.2-3.2-.6 0-1.1-.5-1.1-1.1s.5-1.1 1.1-1.1c2.9 0 5.3 2.4 5.3 5.3v25.9c0 .4-.2.5-.5.5h-1.1c-.4 0-.5-.2-.5-.5zm13.9-3.8h-2.8c-.3 0-.4-.1-.4-.4s.1-.4.4-.4h2.8c.3 0 .4.1.4.4s-.1.4-.4.4m-1.5 2.6h.1q.3 0 .3-.3v-1.8h-.7v1.8q0 .3.3.3m.3-19.2H26c-.4 0-.5-.2-.5-.5V9.3c0-.4.2-.5.5-.5h.5c.4 0 .5.2.5.5v3.2c0 .4-.2.5-.5.5M9.7 32.2h-.1q-.3 0-.3-.3v-1.8h.7v1.8q0 .3-.3.3m-1.5-2.6H11c.3 0 .4-.1.4-.4s-.1-.4-.4-.4H8.2c-.3 0-.4.1-.4.4s.1.4.4.4m1.8-1.3V13.5h-.7v14.8zm15.8 0V13.5h.7v14.8z"/></svg>