<svg width="26" height="26" viewBox="0 0 26 26" fill="none" xmlns="http://www.w3.org/2000/svg">
<path d="M18.0999 18.8C18.9999 18.7 19.8999 18.6 20.7999 18.5C20.4999 17.2 19.3999 16.2 17.9999 16.2C16.4999 16.2 15.1999 17.4 15.0999 18.9C15.2999 18.9 15.5999 18.9 15.7999 18.9C16.5999 18.9 17.2999 18.8 18.0999 18.8ZM9.9999 12V9.49995C9.9999 9.19995 10.1999 8.99995 10.4999 8.99995C10.7999 8.99995 10.9999 9.19995 10.9999 9.49995V12L12.5999 11.1C12.7999 11 13.0999 11 13.2999 11.3C13.3999 11.5 13.3999 11.8 13.0999 12L11.4999 12.9L13.0999 13.8C13.2999 13.9 13.3999 14.2 13.2999 14.5C13.1999 14.7 12.8999 14.8 12.5999 14.7L10.9999 13.8V16.1C10.9999 16.4 10.7999 16.6 10.4999 16.6C10.1999 16.6 9.9999 16.4 9.9999 16.1V13.8L5.6999 16.3C5.4999 16.4 5.1999 16.4 4.9999 16.1C4.8999 15.9 4.8999 15.6 5.1999 15.4L9.5999 12.9L6.4999 11.1C6.2999 11 6.1999 10.7 6.2999 10.4C6.3999 10.2 6.6999 10.1 6.9999 10.2L10.0999 12H9.9999ZM21.8999 18.3C22.5999 18.2 23.2999 18.1 23.8999 18C22.8999 14.2 21.8999 10.5 20.7999 6.69995C18.1999 6.89995 15.4999 7.09995 12.8999 7.09995C10.1999 7.09995 7.5999 6.99995 4.9999 6.69995C3.9999 10.5 2.9999 14.2 1.8999 18C5.8999 18.7 9.8999 19 13.8999 19C13.8999 16.8 15.6999 15 17.8999 15C19.8999 15 21.5999 16.5 21.8999 18.4V18.3Z" fill="white"/>
</svg>
