<?xml version="1.0" encoding="UTF-8"?>
<!DOCTYPE svg PUBLIC "-//W3C//DTD SVG 1.1//EN" "http://www.w3.org/Graphics/SVG/1.1/DTD/svg11.dtd">
<!-- Creator: CorelDRAW -->
<svg xmlns="http://www.w3.org/2000/svg" xml:space="preserve" width="16px" height="16px" version="1.1" shape-rendering="geometricPrecision" text-rendering="geometricPrecision" image-rendering="optimizeQuality" fill-rule="evenodd" clip-rule="evenodd"
viewBox="0 0 16 16"
 xmlns:xlink="http://www.w3.org/1999/xlink"
 xmlns:xodm="http://www.corel.com/coreldraw/odm/2003">
 <g id="Default">
  <metadata id="CorelCorpID_0Corel-Layer"/>
  <path fill="black" d="M7 2.5c0,-0.83 -0.67,-1.5 -1.5,-1.5 -0.83,0 -1.5,0.67 -1.5,1.5 0,0.83 0.67,1.5 1.5,1.5 0.83,0 1.5,-0.67 1.5,-1.5zm5 5.5c0,-0.83 -0.67,-1.5 -1.5,-1.5 -0.83,0 -1.5,0.67 -1.5,1.5 0,0.83 0.67,1.5 1.5,1.5 0.83,0 1.5,-0.67 1.5,-1.5zm-4 5.5c0,-0.83 -0.67,-1.5 -1.5,-1.5 -0.83,0 -1.5,0.67 -1.5,1.5 0,0.83 0.67,1.5 1.5,1.5 0.83,0 1.5,-0.67 1.5,-1.5zm-7.5 -0.5c-0.28,0 -0.5,0.22 -0.5,0.5 0,0.28 0.22,0.5 0.5,0.5 1.18,0 2.37,0 3.55,0 0.24,1.16 1.26,2 2.45,2 1.19,0 2.21,-0.84 2.45,-2 2.18,0 4.37,0 6.55,0 0.28,0 0.5,-0.22 0.5,-0.5 0,-0.28 -0.22,-0.5 -0.5,-0.5 -2.18,0 -4.37,0 -6.55,0 -0.24,-1.16 -1.26,-2 -2.45,-2 -1.19,0 -2.21,0.84 -2.45,2 -1.18,0 -2.37,0 -3.55,0zm0 -11c-0.28,0 -0.5,0.22 -0.5,0.5 0,0.28 0.22,0.5 0.5,0.5 0.85,0 1.7,0 2.55,0 0.24,1.16 1.26,2 2.45,2 1.19,0 2.21,-0.84 2.45,-2 2.52,0 5.03,0 7.55,0 0.28,0 0.5,-0.22 0.5,-0.5 0,-0.28 -0.22,-0.5 -0.5,-0.5 -2.52,0 -5.03,0 -7.55,0 -0.24,-1.16 -1.26,-2 -2.45,-2 -1.19,0 -2.21,0.84 -2.45,2 -0.85,0 -1.7,0 -2.55,0zm7.55 6.5c0.24,1.16 1.26,2 2.45,2 1.19,0 2.21,-0.84 2.45,-2 0.85,0 1.7,0 2.55,0 0.28,0 0.5,-0.22 0.5,-0.5 0,-0.28 -0.22,-0.5 -0.5,-0.5 -0.85,0 -1.7,0 -2.55,0 -0.24,-1.16 -1.26,-2 -2.45,-2 -1.19,0 -2.21,0.84 -2.45,2 -2.52,0 -5.03,0 -7.55,0 -0.28,0 -0.5,0.22 -0.5,0.5 0,0.28 0.22,0.5 0.5,0.5 2.52,0 5.03,0 7.55,0z"/>
 </g>
</svg>
