<?xml version="1.0" encoding="UTF-8"?>
<!DOCTYPE svg PUBLIC "-//W3C//DTD SVG 1.1//EN" "http://www.w3.org/Graphics/SVG/1.1/DTD/svg11.dtd">
<!-- Creator: CorelDRAW 2020 (64-Bit) -->
<svg xmlns="http://www.w3.org/2000/svg" xml:space="preserve" width="26px" height="26px" version="1.1" style="shape-rendering:geometricPrecision; text-rendering:geometricPrecision; image-rendering:optimizeQuality; fill-rule:evenodd; clip-rule:evenodd"
viewBox="0 0 260 260"
 xmlns:xlink="http://www.w3.org/1999/xlink"
 xmlns:xodm="http://www.corel.com/coreldraw/odm/2003">
 <defs>
  <style type="text/css">
   <![CDATA[
    .fil0 {fill:#6FC7B6}
    .fil1 {fill:white}
   ]]>
  </style>
 </defs>
 <g id="Layer_x0020_1">
  <metadata id="CorelCorpID_0Corel-Layer"/>
  <g id="_1679145035296">
   <polygon class="fil0" points="0,0 260,0 260,260 0,260 "/>
   <path class="fil1" d="M67 40l9 0 0 36c0,40 33,43 33,54 0,10 -33,14 -33,54l0 36 -9 0c-5,0 -9,4 -9,9 0,5 4,9 9,9l126 0c5,0 9,-4 9,-9 0,-5 -4,-9 -9,-9l-9 0 0 -36c0,-40 -33,-45 -33,-54 0,-10 33,-14 33,-54l0 -36 9 0c5,0 9,-4 9,-9 0,-5 -4,-9 -9,-9l-126 0c-5,0 -9,4 -9,9 0,5 4,9 9,9zm33 171c0,-26 15,-63 30,-63 15,0 31,37 31,63l-61 0zm-15 -171l90 0 0 36c0,13 -4,23 -14,32 -3,3 -7,5 -11,8 -5,4 -9,8 -9,14 0,6 4,10 9,14 4,3 7,5 11,8 10,9 14,19 14,32l0 36 -90 0 0 -36c0,-13 4,-23 14,-32 3,-3 7,-5 11,-8 5,-4 9,-8 9,-14 0,-12 -12,-17 -20,-23 -10,-8 -13,-18 -13,-31l0 -36z"/>
  </g>
 </g>
</svg>
