<svg width="26" height="26" viewBox="0 0 26 26" fill="none" xmlns="http://www.w3.org/2000/svg">
<path fill-rule="evenodd" clip-rule="evenodd" d="M6.6998 3.99995H7.5998V7.59995C7.5998 11.6 10.8998 11.9 10.8998 13C10.8998 14 7.5998 14.4 7.5998 18.4V22H6.6998C6.1998 22 5.7998 22.4 5.7998 22.9C5.7998 23.4 6.1998 23.8 6.6998 23.8H19.2998C19.7998 23.8 20.1998 23.4 20.1998 22.9C20.1998 22.4 19.7998 22 19.2998 22H18.3998V18.4C18.3998 14.4 15.0998 13.9 15.0998 13C15.0998 12 18.3998 11.6 18.3998 7.59995V3.99995H19.2998C19.7998 3.99995 20.1998 3.59995 20.1998 3.09995C20.1998 2.59995 19.7998 2.19995 19.2998 2.19995H6.6998C6.1998 2.19995 5.7998 2.59995 5.7998 3.09995C5.7998 3.59995 6.1998 3.99995 6.6998 3.99995ZM9.9998 21.1C9.9998 18.5 11.4998 14.8 12.9998 14.8C14.4998 14.8 16.0998 18.5 16.0998 21.1H9.9998ZM8.4998 3.99995H17.4998V7.59995C17.4998 8.89995 17.0998 9.89995 16.0998 10.8C15.7998 11.1 15.3998 11.3 14.9998 11.6C14.4998 12 14.0998 12.4 14.0998 13C14.0998 13.6 14.4998 14 14.9998 14.4C15.3998 14.7 15.6998 14.9 16.0998 15.2C17.0998 16.1 17.4998 17.1 17.4998 18.4V22H8.4998V18.4C8.4998 17.1 8.8998 16.1 9.8998 15.2C10.1998 14.9 10.5998 14.7 10.9998 14.4C11.4998 14 11.8998 13.6 11.8998 13C11.8998 11.8 10.6998 11.3 9.8998 10.7C8.8998 9.89995 8.5998 8.89995 8.5998 7.59995V3.99995H8.4998Z" fill="white"/>
</svg>
