<svg width="26" height="26" viewBox="0 0 26 26" fill="none" xmlns="http://www.w3.org/2000/svg">
<g clip-path="url(#clip0_353_3049)">
<path fill-rule="evenodd" clip-rule="evenodd" d="M0 0H26V26H0V0Z" fill="#236474"/>
<path fill-rule="evenodd" clip-rule="evenodd" d="M6.6998 4.00001H7.5998V7.60001C7.5998 11.6 10.8998 11.9 10.8998 13C10.8998 14 7.5998 14.4 7.5998 18.4V22H6.6998C6.1998 22 5.7998 22.4 5.7998 22.9C5.7998 23.4 6.1998 23.8 6.6998 23.8H19.2998C19.7998 23.8 20.1998 23.4 20.1998 22.9C20.1998 22.4 19.7998 22 19.2998 22H18.3998V18.4C18.3998 14.4 15.0998 13.9 15.0998 13C15.0998 12 18.3998 11.6 18.3998 7.60001V4.00001H19.2998C19.7998 4.00001 20.1998 3.60001 20.1998 3.10001C20.1998 2.60001 19.7998 2.20001 19.2998 2.20001H6.6998C6.1998 2.20001 5.7998 2.60001 5.7998 3.10001C5.7998 3.60001 6.1998 4.00001 6.6998 4.00001ZM9.9998 21.1C9.9998 18.5 11.4998 14.8 12.9998 14.8C14.4998 14.8 16.0998 18.5 16.0998 21.1H9.9998ZM8.4998 4.00001H17.4998V7.60001C17.4998 8.90001 17.0998 9.90001 16.0998 10.8C15.7998 11.1 15.3998 11.3 14.9998 11.6C14.4998 12 14.0998 12.4 14.0998 13C14.0998 13.6 14.4998 14 14.9998 14.4C15.3998 14.7 15.6998 14.9 16.0998 15.2C17.0998 16.1 17.4998 17.1 17.4998 18.4V22H8.4998V18.4C8.4998 17.1 8.8998 16.1 9.8998 15.2C10.1998 14.9 10.5998 14.7 10.9998 14.4C11.4998 14 11.8998 13.6 11.8998 13C11.8998 11.8 10.6998 11.3 9.8998 10.7C8.8998 9.90001 8.5998 8.90001 8.5998 7.60001V4.00001H8.4998Z" fill="white"/>
</g>
<defs>
<clipPath id="clip0_353_3049">
<rect width="26" height="26" fill="white"/>
</clipPath>
</defs>
</svg>
