<svg xmlns="http://www.w3.org/2000/svg" xml:space="preserve" width="36" height="36" fill-rule="evenodd" clip-rule="evenodd" image-rendering="optimizeQuality" shape-rendering="geometricPrecision" text-rendering="geometricPrecision" viewBox="0 0 36 36"><path fill="none" d="M0 0h36v36H0z"/><path d="M11.22 11.94c-1.96 0-3.6 1.64-3.6 3.59 0 1.96 1.64 3.6 3.6 3.6.61 0 1.44-.62 1.85-1.03.61-.72 1.23-1.44 1.74-2.16 1.65-1.95 4.73-1.95 6.38 0 .61.72 1.23 1.44 1.74 2.16.41.52 1.13 1.03 1.85 1.03 1.96 0 3.6-1.64 3.6-3.6 0-1.95-1.64-3.59-3.6-3.59zm18.8-9.46h-1.13c-.3 0-.51.21-.51.52v3.8h2.16V3c0-.31-.21-.52-.52-.52M19.85 27.25v-.51c0-1.03-.82-1.85-1.85-1.85s-1.85.82-1.85 1.85v.51c-1.13-.21-1.95-1.13-1.95-2.26 0-1.23 1.02-2.26 2.26-2.26h3.08c1.23 0 2.26 1.03 2.26 2.26 0 1.13-.82 2.05-1.95 2.26m10.69-.51v-8.02c-.52 1.03-1.23 1.75-2.16 2.36v5.66c0 2.57-2.06 4.62-4.62 4.62-2.57 0-4.63-2.06-4.63-4.62 0-.62-.51-1.13-1.13-1.13s-1.13.51-1.13 1.13c0 3.8 3.08 6.78 6.78 6.78 3.81 0 6.79-3.08 6.79-6.78zM11.22 9.78c-3.19 0-5.76 2.57-5.76 5.75 0 3.19 2.57 5.76 5.76 5.76 1.33 0 2.67-.82 3.49-1.85.62-.72 1.23-1.44 1.75-2.16.82-.92 2.16-.92 2.98 0 .62.72 1.23 1.44 1.75 2.16.82 1.03 2.15 1.85 3.49 1.85 3.19 0 5.76-2.57 5.76-5.76 0-3.18-2.57-5.75-5.76-5.75H11.11zm19.32 2.77V7.62h-2.16v2.47c.93.61 1.64 1.44 2.16 2.36z"/></svg>