<?xml version="1.0" encoding="UTF-8"?>
<!DOCTYPE svg PUBLIC "-//W3C//DTD SVG 1.1//EN" "http://www.w3.org/Graphics/SVG/1.1/DTD/svg11.dtd">
<!-- Creator: CorelDRAW 2020 (64-Bit) -->
<svg xmlns="http://www.w3.org/2000/svg" xml:space="preserve" width="26px" height="26px" version="1.1" style="shape-rendering:geometricPrecision; text-rendering:geometricPrecision; image-rendering:optimizeQuality; fill-rule:evenodd; clip-rule:evenodd"
viewBox="0 0 260 260"
 xmlns:xlink="http://www.w3.org/1999/xlink"
 xmlns:xodm="http://www.corel.com/coreldraw/odm/2003">
 <defs>
  <style type="text/css">
   <![CDATA[
    .fil0 {fill:#6FC7B6}
    .fil1 {fill:white}
   ]]>
  </style>
 </defs>
 <g id="Layer_x0020_1">
  <metadata id="CorelCorpID_0Corel-Layer"/>
  <g id="_1678986474112">
   <polygon class="fil0" points="0,0 260,0 260,260 0,260 "/>
   <path class="fil1" d="M122 136l31 0c6,0 11,5 11,11l0 0c0,6 -5,11 -11,11l-32 0c-3,0 -5,2 -5,5 0,3 2,5 5,5l35 0c6,0 10,0 16,-2l44 -12c7,-2 12,2 12,6 1,5 1,10 -11,17 -21,11 -23,15 -46,23 -16,6 -42,-3 -52,-5 -17,-3 -26,7 -39,15 -8,-10 -16,-21 -23,-31 21,-17 15,-28 35,-38 11,-6 23,-5 29,-5zm62 -60c13,0 23,10 23,23 0,13 -10,23 -23,23 -13,0 -23,-10 -23,-23 0,-13 10,-23 23,-23zm0 10c7,0 13,6 13,13 0,7 -6,13 -13,13 -7,0 -13,-6 -13,-13 0,-7 6,-13 13,-13zm-66 -56c13,0 23,10 23,23 0,13 -10,23 -23,23 -13,0 -23,-10 -23,-23 0,-13 10,-23 23,-23zm0 10c7,0 13,6 13,13 0,7 -6,13 -13,13 -7,0 -13,-6 -13,-13 0,-7 6,-13 13,-13zm59 -9c3,2 4,5 2,8 0,0 -46,80 -46,80 -2,3 -5,4 -8,2 -3,-2 -4,-5 -2,-8 0,0 46,-80 46,-80 2,-3 5,-4 8,-2zm-156 170l23 -17 31 41 -23 17 -31 -41z"/>
  </g>
 </g>
</svg>
