<svg width="26" height="26" viewBox="0 0 26 26" fill="none" xmlns="http://www.w3.org/2000/svg">
<g clip-path="url(#clip0_353_3059)">
<path fill-rule="evenodd" clip-rule="evenodd" d="M0 0H26V26H0V0Z" fill="#009584"/>
<path fill-rule="evenodd" clip-rule="evenodd" d="M12.2001 13.6H15.3001C15.9001 13.6 16.4001 14.1 16.4001 14.7C16.4001 15.3 15.9001 15.8 15.3001 15.8H12.1001C11.8001 15.8 11.6001 16 11.6001 16.3C11.6001 16.6 11.8001 16.8 12.1001 16.8H15.6001C16.2001 16.8 16.6001 16.8 17.2001 16.6L21.6001 15.4C22.3001 15.2 22.8001 15.6 22.8001 16C22.9001 16.5 22.9001 17 21.7001 17.7C19.6001 18.8 19.4001 19.2 17.1001 20C15.5001 20.6 12.9001 19.7 11.9001 19.5C10.2001 19.2 9.3001 20.2 8.0001 21C7.2001 20 6.4001 18.9 5.7001 17.9C7.8001 16.2 7.2001 15.1 9.2001 14.1C10.3001 13.5 11.5001 13.6 12.1001 13.6H12.2001ZM18.4001 7.60002C19.7001 7.60002 20.7001 8.60002 20.7001 9.90002C20.7001 11.2 19.7001 12.2 18.4001 12.2C17.1001 12.2 16.1001 11.2 16.1001 9.90002C16.1001 8.60002 17.1001 7.60002 18.4001 7.60002ZM18.4001 8.60002C19.1001 8.60002 19.7001 9.20002 19.7001 9.90002C19.7001 10.6 19.1001 11.2 18.4001 11.2C17.7001 11.2 17.1001 10.6 17.1001 9.90002C17.1001 9.20002 17.7001 8.60002 18.4001 8.60002ZM11.8001 3.00002C13.1001 3.00002 14.1001 4.00002 14.1001 5.30002C14.1001 6.60002 13.1001 7.60002 11.8001 7.60002C10.5001 7.60002 9.5001 6.60002 9.5001 5.30002C9.5001 4.00002 10.5001 3.00002 11.8001 3.00002ZM11.8001 4.00002C12.5001 4.00002 13.1001 4.60002 13.1001 5.30002C13.1001 6.00002 12.5001 6.60002 11.8001 6.60002C11.1001 6.60002 10.5001 6.00002 10.5001 5.30002C10.5001 4.60002 11.1001 4.00002 11.8001 4.00002ZM17.7001 3.10002C18.0001 3.30002 18.1001 3.60002 17.9001 3.90002L13.3001 11.9C13.1001 12.2 12.8001 12.3 12.5001 12.1C12.2001 11.9 12.1001 11.6 12.3001 11.3L16.9001 3.30002C17.1001 3.00002 17.4001 2.90002 17.7001 3.10002ZM2.1001 20.1L4.4001 18.4L7.5001 22.5L5.2001 24.2L2.1001 20.1Z" fill="white"/>
</g>
<defs>
<clipPath id="clip0_353_3059">
<rect width="26" height="26" fill="white"/>
</clipPath>
</defs>
</svg>
