<svg xmlns="http://www.w3.org/2000/svg" viewBox="0 0 13.63 13">
  <path d="M17.639,9.709H13L11.571,5.3a.383.383,0,0,0-.728,0L9.41,9.709H4.774a.383.383,0,0,0-.225.692L8.3,13.126,6.87,17.531a.384.384,0,0,0,.365.5.377.377,0,0,0,.224-.075l3.748-2.722,3.748,2.722a.377.377,0,0,0,.224.075.384.384,0,0,0,.365-.5l-1.43-4.405L17.864,10.4a.383.383,0,0,0-.225-.692Zm-4.32,2.325-.793.576.3.933.512,1.575L12,14.145l-.793-.576-.793.576-1.34.973.512-1.575.3-.933-.793-.576-1.342-.975h2.64l.3-.933.512-1.578.512,1.578.3.933h2.64Z" transform="translate(-4.392 -5.034)" />
</svg>