<svg xmlns="http://www.w3.org/2000/svg" width="15.096" height="13" viewBox="0 0 15.096 13">
  <path id="star" d="M19.313,10.4l-4.155,2.725,1.584,4.405a.354.354,0,0,1-.06.344.441.441,0,0,1-.344.158.448.448,0,0,1-.248-.075L11.94,15.237,7.789,17.959a.448.448,0,0,1-.248.075.441.441,0,0,1-.344-.158.354.354,0,0,1-.06-.344l1.584-4.405L4.566,10.4a.363.363,0,0,1-.154-.428.422.422,0,0,1,.4-.264H9.95L11.537,5.3a.439.439,0,0,1,.806,0l1.586,4.411h5.135a.422.422,0,0,1,.4.264.363.363,0,0,1-.154.428Z" transform="translate(-4.392 -5.034)" fill="#ffb643"/>
</svg>
