<?xml version="1.0" encoding="UTF-8"?>
<!DOCTYPE svg PUBLIC "-//W3C//DTD SVG 1.1//EN" "http://www.w3.org/Graphics/SVG/1.1/DTD/svg11.dtd">
<!-- Creator: CorelDRAW -->
<svg xmlns="http://www.w3.org/2000/svg" xml:space="preserve" width="16px" height="16px" version="1.1" shape-rendering="geometricPrecision" text-rendering="geometricPrecision" image-rendering="optimizeQuality" fill-rule="evenodd" clip-rule="evenodd"
viewBox="0 0 16 16"
 xmlns:xlink="http://www.w3.org/1999/xlink"
 xmlns:xodm="http://www.corel.com/coreldraw/odm/2003">
 <g id="Default">
  <metadata id="CorelCorpID_0Corel-Layer"/>
  <path fill="black" d="M11 15l0 -4 4 0 -4 4zm-5 -4.71c0,-2.6 0,-7.19 0,-9.79 0,-0.28 -0.22,-0.5 -0.5,-0.5 -0.27,0 -0.5,0.22 -0.5,0.5 0,2.6 0,7.19 0,9.79 -0.38,-0.38 -0.76,-0.76 -1.15,-1.15 -0.19,-0.19 -0.51,-0.19 -0.7,0 -0.2,0.2 -0.2,0.52 0,0.71 0.66,0.67 1.33,1.34 2,2 0.19,0.2 0.51,0.2 0.71,0 0.66,-0.66 1.33,-1.33 1.99,-2 0.2,-0.19 0.2,-0.51 0,-0.71 -0.19,-0.19 -0.51,-0.19 -0.7,0 -0.38,0.39 -0.77,0.77 -1.15,1.15zm10 0.71c0,0.27 -0.1,0.52 -0.29,0.71 -1.34,1.33 -2.67,2.66 -4,4 -0.19,0.18 -0.44,0.29 -0.71,0.29 -3.33,0 -6.67,0 -10,0 -0.55,0 -1,-0.45 -1,-1 0,-3.67 0,-7.33 0,-11 0,-0.55 0.45,-1 1,-1 1,0 2,0 3,0 0,0.33 0,0.67 0,1 -1,0 -2,0 -3,0 0,3.67 0,7.33 0,11 3,0 6,0 9,0 0,-1.33 0,-2.67 0,-4 0,-0.55 0.45,-1 1,-1 1.33,0 2.67,0 4,0 0,-2 0,-4 0,-6 -2.67,0 -5.33,0 -8,0 0,-0.33 0,-0.67 0,-1 2.67,0 5.33,0 8,0 0.55,0 1,0.45 1,1 0,2.33 0,4.67 0,7z"/>
 </g>
</svg>
