<svg xmlns="http://www.w3.org/2000/svg" xml:space="preserve" fill-rule="evenodd" viewBox="0 0 36 36"><path fill="none" d="M0 0h36v36H0z"/><path fill-rule="nonzero" d="M22.1 5.11c-.52 1.04-1.04 2.08-1.56 3.13-.19.37-.58.61-1 .61h-2.73c1.69-1.68 3.37-3.37 5.06-5.05.35.37.46.84.23 1.31m-6.22 26.75c.42.52.83 1.04 1.25 1.56.44.56 1.29.56 1.74 0 1.1-1.37 2.2-2.75 3.3-4.12.2-.26.27-.5.24-.83l-.33-2.8c-2.07 2.06-4.13 4.13-6.2 6.19m-.77-16.26c-.15 1.19-.29 2.39-.43 3.58l5.93-5.93c-.08-.77-.17-1.53-.26-2.3-.02-.16-.07-.3-.16-.44-1.69 1.7-3.39 3.39-5.08 5.09m-1.14 9.66c-.13 1.07-.25 2.14-.38 3.21-.01.1-.01.21.01.31l7.91-7.91-.33-2.82c-2.4 2.4-4.81 4.8-7.21 7.21m5.61-15.24a1.3 1.3 0 0 0-.34-.05h-2.48c-.57 0-1.04.42-1.11.98-.13 1.14-.26 2.27-.4 3.4zm-5.25-4.05 3.81-3.81h-1.91c-.33 0-.56.1-.79.33-.44.44-.89.89-1.34 1.33-.33.34-.42.86-.2 1.29.14.29.28.58.43.86m1.13 2.27c-.25-.51-.51-1.02-.76-1.53 1.51-1.52 3.03-3.03 4.55-4.55h.52c.32 0 .56.1.79.33l.76.76c-1.82 1.81-3.63 3.62-5.45 5.44-.18-.12-.31-.26-.41-.45m-.92 12.19L14.12 24l6.94-6.94-.33-2.83zm-.55 9.07 1.4 1.75 6.57-6.57-.33-2.82z"/></svg>