<svg xmlns="http://www.w3.org/2000/svg" width="33.583" height="30" viewBox="0 0 33.583 30">
  <path id="triangle-alert-large" d="M35.838,31.092,20.913,4.824a1.865,1.865,0,0,0-3.243,0L2.744,31.092A1.865,1.865,0,0,0,4.366,33.88H34.216a1.865,1.865,0,0,0,1.622-2.788ZM21.779,28.9a1.244,1.244,0,0,1-1.244,1.244H18.047A1.244,1.244,0,0,1,16.8,28.9V26.417a1.244,1.244,0,0,1,1.244-1.244h2.488a1.244,1.244,0,0,1,1.244,1.244Zm0-11.194L21,22.171a.622.622,0,0,1-.613.515H18.2a.622.622,0,0,1-.613-.515l-.781-4.46V13.979a1.244,1.244,0,0,1,1.244-1.244h2.488a1.244,1.244,0,0,1,1.244,1.244Z" transform="translate(-2.5 -3.88)" fill="#f8942c"/>
</svg>
