<svg xmlns="http://www.w3.org/2000/svg" xml:space="preserve" fill-rule="evenodd" viewBox="0 0 36 36"><path fill="none" d="M0 0h36v36H0z"/><path d="M25.85 25.34c-1.91 0-3.45 1.54-3.45 3.44s1.54 3.44 3.45 3.44a3.44 3.44 0 1 0 0-6.88M23.14 8.91c0-2.83-2.3-5.13-5.14-5.13s-5.14 2.3-5.14 5.13c0 2.84 2.3 5.14 5.14 5.14s5.14-2.3 5.14-5.14m-2.82.34c-.03.59-.13 1.15-.3 1.72.5.24.91.54 1.3.94.66-.74 1.06-1.67 1.13-2.66zM18 13.23c-.51-.57-.89-1.18-1.17-1.88.76-.24 1.58-.24 2.34 0-.28.7-.66 1.31-1.17 1.88m-2.32-3.98c.03.59.13 1.15.3 1.72-.5.24-.91.54-1.3.94a4.47 4.47 0 0 1-1.13-2.66zm-2.13-.67h2.13c.03-.59.13-1.15.3-1.72-.49-.24-.91-.54-1.29-.94-.67.74-1.07 1.67-1.14 2.66m6.77 0h2.13c-.07-.99-.47-1.92-1.13-2.66-.39.4-.8.7-1.3.94.17.57.27 1.13.3 1.72M16.2 11.6c.26.62.58 1.18.99 1.71-.74-.14-1.44-.46-2.02-.94.31-.32.64-.56 1.03-.77m.63-5.12c.76.24 1.58.24 2.34 0-.28-.7-.66-1.31-1.17-1.88-.51.57-.89 1.18-1.17 1.88m2.97-.25c.39-.21.72-.45 1.03-.77-.58-.48-1.28-.8-2.02-.94.41.53.73 1.09.99 1.71m-4.63-.77c.31.32.64.56 1.03.77.26-.62.58-1.18.99-1.71-.74.14-1.43.46-2.02.94m4.63 6.14c-.26.62-.58 1.18-.99 1.71.74-.14 1.44-.46 2.02-.94-.31-.32-.64-.56-1.03-.77m-3.44-3.02h3.28c-.02-.5-.1-.98-.24-1.47-.91.29-1.89.29-2.8 0-.14.49-.22.97-.24 1.47m.24 2.14c-.14-.49-.22-.97-.24-1.47h3.28c-.02.5-.1.98-.24 1.47-.91-.29-1.89-.29-2.8 0m2.02 4.3H3.23c-.53 0-.98.44-.98.98v6.43c0 .54.45.98.98.98h16.33V16c0-.53-.41-.96-.94-.98m7.23 12.29a1.475 1.475 0 1 0-.01 2.95 1.475 1.475 0 0 0 .01-2.95m-15.74 0a1.475 1.475 0 1 1 .01 2.95 1.475 1.475 0 0 1-.01-2.95m11.63-10.33v2.28c0 .35.15.5.5.5h7.04c.44 0 .66-.53.35-.84-.72-.71-1.43-1.43-2.14-2.14-.21-.2-.41-.29-.7-.29h-4.55c-.35 0-.5.15-.5.49m10.99 5.41c0-.35-.15-.49-.49-.49h-.99c-.35 0-.49.14-.49.49s.14.49.49.49h.99c.34 0 .49-.14.49-.49m-22.62 2.95c1.91 0 3.45 1.54 3.45 3.44s-1.54 3.44-3.45 3.44c-1.89 0-3.44-1.54-3.44-3.44s1.55-3.44 3.44-3.44m-7.86-.26v2.72c0 .54.44.98.98.98h2.76c0-2.28 1.84-4.13 4.12-4.13 2.29 0 4.13 1.85 4.13 4.13h5.31c.01-1.56.01-3.12.01-4.68H3.23c-.54 0-.98.44-.98.98M27 15.02h-5.75c-.54 0-.98.44-.98.98l-.03 12.78h1.48a4.131 4.131 0 0 1 8.26 0h2.75c.54 0 .98-.44.98-.98 0-2 .01-4 .04-6 .01-.59-.16-1.01-.58-1.42-1.59-1.6-3.19-3.19-4.78-4.79-.41-.4-.82-.57-1.39-.57"/></svg>