<?xml version="1.0" encoding="UTF-8"?>
<!DOCTYPE svg PUBLIC "-//W3C//DTD SVG 1.1//EN" "http://www.w3.org/Graphics/SVG/1.1/DTD/svg11.dtd">
<!-- Creator: CorelDRAW 2020 (64-Bit) -->
<svg xmlns="http://www.w3.org/2000/svg" xml:space="preserve" width="26px" height="26px" version="1.1" style="shape-rendering:geometricPrecision; text-rendering:geometricPrecision; image-rendering:optimizeQuality; fill-rule:evenodd; clip-rule:evenodd"
viewBox="0 0 260 260"
 xmlns:xlink="http://www.w3.org/1999/xlink"
 xmlns:xodm="http://www.corel.com/coreldraw/odm/2003">
 <defs>
  <style type="text/css">
   <![CDATA[
    .fil0 {fill:#6FC7B6}
    .fil1 {fill:white}
   ]]>
  </style>
 </defs>
 <g id="Layer_x0020_1">
  <metadata id="CorelCorpID_0Corel-Layer"/>
  <g id="_1678908215440">
   <polygon class="fil0" points="0,0 260,0 260,260 0,260 "/>
   <path class="fil1" d="M129 15c12,0 23,10 23,23 0,12 -10,23 -23,23 -12,0 -23,-10 -23,-23 0,-12 10,-23 23,-23zm42 53c-6,2 -10,8 -8,14l13 47c2,6 8,9 14,8 6,-1 9,-9 8,-14l-13 -47c-2,-6 -8,-10 -14,-8zm-83 0c5,0 9,8 7,13l-12 43c-1,6 -7,9 -13,7 -5,-1 -9,-8 -7,-13l12 -43c1,-6 7,-9 13,-7zm57 79c6,0 11,5 11,11l0 22c0,6 -5,11 -11,11 -6,0 -11,-5 -11,-11l0 -22c0,-6 5,-11 11,-11zm-31 0c6,0 11,5 11,11l0 77c0,6 -5,11 -11,11 -6,0 -11,-5 -11,-11l0 -77c0,-6 5,-11 11,-11zm1 -77l30 0c6,0 11,5 11,11l0 49c0,6 -5,11 -11,11l-30 0c-6,0 -11,-5 -11,-11l0 -49c0,-6 5,-11 11,-11z"/>
  </g>
 </g>
</svg>
