<svg id="trvale-nasledky-nie" xmlns="http://www.w3.org/2000/svg" width="26" height="26" viewBox="0 0 26 26">
  <rect id="Rectangle_140" data-name="Rectangle 140" width="26" height="26" fill="none"/>
  <path id="Path_295" data-name="Path 295" d="M20.308,32.868a1.34,1.34,0,0,1,1.189-.721h0a1.34,1.34,0,0,1,1.189.721l.171.328h-2.72Z" transform="translate(-5.594 -8.93)" fill="none" stroke="#b2b2b2" stroke-miterlimit="10" stroke-width="1"/>
  <path id="Path_296" data-name="Path 296" d="M21.13,23.717l.542,6.177" transform="translate(-5.869 -6.588)" fill="none" stroke="#b2b2b2" stroke-miterlimit="10" stroke-width="1"/>
  <path id="Path_297" data-name="Path 297" d="M17.508,5.867a1.861,1.861,0,1,0-1.861-1.861A1.861,1.861,0,0,0,17.508,5.867Z" transform="translate(-4.347 -0.596)" fill="none" stroke="#b2b2b2" stroke-miterlimit="10" stroke-width="1"/>
  <path id="Path_298" data-name="Path 298" d="M21.37,18.252l-1.409-7.719a1.444,1.444,0,0,0-1.421-1.185H13.974a1.444,1.444,0,0,0-1.421,1.185l-1.409,7.719M14,12.146,12.375,26.863h2.707l.542-8.2h3.433l-.542-6.53" transform="translate(-3.096 -2.596)" fill="none" stroke="#b2b2b2" stroke-miterlimit="10" stroke-width="1"/>
</svg>
