<svg width="26" height="26" viewBox="0 0 26 26" fill="none" xmlns="http://www.w3.org/2000/svg">
<g clip-path="url(#clip0_353_3069)">
<path fill-rule="evenodd" clip-rule="evenodd" d="M0 0H26V26H0V0Z" fill="#236474"/>
<path fill-rule="evenodd" clip-rule="evenodd" d="M12.9002 1.5C14.1002 1.5 15.2002 2.5 15.2002 3.8C15.2002 5 14.2002 6.1 12.9002 6.1C11.7002 6.1 10.6002 5.1 10.6002 3.8C10.6002 2.6 11.6002 1.5 12.9002 1.5ZM17.1002 6.8C16.5002 7 16.1002 7.6 16.3002 8.2L17.6002 12.9C17.8002 13.5 18.4002 13.8 19.0002 13.7C19.6002 13.6 19.9002 12.8 19.8002 12.3L18.5002 7.6C18.3002 7 17.7002 6.6 17.1002 6.8ZM8.80015 6.8C9.30015 6.8 9.70015 7.6 9.50015 8.1L8.30015 12.4C8.20015 13 7.60015 13.3 7.00015 13.1C6.50015 13 6.10015 12.3 6.30015 11.8L7.50015 7.5C7.60015 6.9 8.20015 6.6 8.80015 6.8ZM14.5002 14.7C15.1002 14.7 15.6002 15.2 15.6002 15.8V18C15.6002 18.6 15.1002 19.1 14.5002 19.1C13.9002 19.1 13.4002 18.6 13.4002 18V15.8C13.4002 15.2 13.9002 14.7 14.5002 14.7ZM11.4002 14.7C12.0002 14.7 12.5002 15.2 12.5002 15.8V23.5C12.5002 24.1 12.0002 24.6 11.4002 24.6C10.8002 24.6 10.3002 24.1 10.3002 23.5V15.8C10.3002 15.2 10.8002 14.7 11.4002 14.7ZM11.5002 7H14.5002C15.1002 7 15.6002 7.5 15.6002 8.1V13C15.6002 13.6 15.1002 14.1 14.5002 14.1H11.5002C10.9002 14.1 10.4002 13.6 10.4002 13V8.1C10.4002 7.5 10.9002 7 11.5002 7Z" fill="white"/>
</g>
<defs>
<clipPath id="clip0_353_3069">
<rect width="26" height="26" fill="white"/>
</clipPath>
</defs>
</svg>
