<?xml version="1.0" encoding="UTF-8"?>
<!DOCTYPE svg PUBLIC "-//W3C//DTD SVG 1.1//EN" "http://www.w3.org/Graphics/SVG/1.1/DTD/svg11.dtd">
<!-- Creator: CorelDRAW 2020 (64-Bit) -->
<svg xmlns="http://www.w3.org/2000/svg" xml:space="preserve" width="36px" height="36px" version="1.1" style="shape-rendering:geometricPrecision; text-rendering:geometricPrecision; image-rendering:optimizeQuality; fill-rule:evenodd; clip-rule:evenodd"
viewBox="0 0 360 360"
 xmlns:xlink="http://www.w3.org/1999/xlink"
 xmlns:xodm="http://www.corel.com/coreldraw/odm/2003">
 <defs>
  <style type="text/css">
   <![CDATA[
    .fil0 {fill:none}
    .fil1 {fill:#AB0534}
   ]]>
  </style>
 </defs>
 <g id="Default">
  <metadata id="CorelCorpID_0Corel-Layer"/>
  <g id="_1676811545216">
   <path class="fil0" d="M180 0c99,0 180,81 180,180 0,99 -81,180 -180,180 -99,0 -180,-81 -180,-180 0,-99 81,-180 180,-180"/>
   <path class="fil1" d="M315 138c2,-1 2,0 3,1 1,4 3,9 4,13 1,2 0,2 -1,3 -1,0 -1,0 -2,1 -2,1 -2,0 -3,-1 -1,-4 -3,-9 -4,-13 -1,-2 0,-2 1,-3 1,0 1,0 2,-1zm-243 76c2,0 5,2 5,5 0,2 -2,5 -5,5 -2,0 -5,-2 -5,-5 0,-2 2,-5 5,-5zm76 -1c-7,2 -11,10 -9,17 2,7 10,11 17,9 7,-2 11,-10 9,-17 -2,-7 -10,-11 -17,-9zm-6 -17c-17,6 -25,23 -20,40 5,17 23,25 40,20 17,-6 25,-23 20,-40 -6,-17 -23,-25 -40,-20zm-64 54c-5,2 -10,-1 -11,-6 -5,-14 -9,-27 -14,-41 59,-20 117,-39 176,-59 5,14 9,27 14,41 2,5 -1,10 -6,11 -16,5 -31,10 -47,16 -7,-21 -30,-33 -51,-26 -21,7 -33,30 -26,51 -12,4 -23,8 -35,12zm147 -130c5,-2 10,1 11,6 2,5 -1,10 -6,11 -61,20 -122,41 -183,61 -5,2 -10,-1 -11,-6 -2,-5 1,-10 6,-11 61,-20 122,-41 183,-61zm80 35c-19,6 -37,12 -55,18 -3,1 -5,0 -6,-3 -1,-3 0,-5 3,-6 18,-6 37,-12 55,-19 3,-1 5,0 6,3 1,3 0,5 -3,6z"/>
  </g>
 </g>
</svg>
