<?xml version="1.0" encoding="UTF-8"?>
<!DOCTYPE svg PUBLIC "-//W3C//DTD SVG 1.1//EN" "http://www.w3.org/Graphics/SVG/1.1/DTD/svg11.dtd">
<!-- Creator: CorelDRAW 2020 (64-Bit) -->
<svg xmlns="http://www.w3.org/2000/svg" xml:space="preserve" width="36px" height="36px" version="1.1" style="shape-rendering:geometricPrecision; text-rendering:geometricPrecision; image-rendering:optimizeQuality; fill-rule:evenodd; clip-rule:evenodd"
viewBox="0 0 360 360"
 xmlns:xlink="http://www.w3.org/1999/xlink"
 xmlns:xodm="http://www.corel.com/coreldraw/odm/2003">
 <defs>
  <style type="text/css">
   <![CDATA[
    .fil0 {fill:none}
    .fil1 {fill:#AB0534}
   ]]>
  </style>
 </defs>
 <g id="Default">
  <metadata id="CorelCorpID_0Corel-Layer"/>
  <g id="_1676755588352">
   <rect class="fil0" width="360" height="360"/>
   <path class="fil1" d="M91 317c-13,0 -26,0 -39,0 -7,0 -13,-6 -13,-14l1 -25 60 0 1 29c0,5 -4,10 -9,10zm187 -93c0,-5 0,-10 0,-15 0,-5 2,-8 8,-8 5,0 10,0 15,0 5,0 8,2 8,8 0,5 0,10 0,15 0,5 -2,8 -8,8 -5,0 -10,0 -15,0 -5,0 -8,-2 -8,-8zm-53 8c-5,0 -10,0 -15,0 -5,0 -8,-2 -8,-8 0,-5 0,-10 0,-15 0,-5 2,-8 8,-8 5,0 10,0 15,0 5,0 8,2 8,8 0,5 0,10 0,15 0,5 -2,8 -8,8zm15 -8c0,-5 0,-10 0,-15 0,-5 2,-8 8,-8 5,0 10,0 15,0 5,0 8,2 8,8 0,5 0,10 0,15 0,5 -2,8 -8,8 -5,0 -10,0 -15,0 -5,0 -8,-2 -8,-8zm-105 8c5,0 10,0 15,0 5,0 8,-2 8,-8 0,-5 0,-10 0,-15 0,-5 -2,-8 -8,-8 -5,0 -10,0 -15,0 -5,0 -8,2 -8,8 0,5 0,10 0,15 0,5 2,8 8,8zm38 0c5,0 10,0 15,0 5,0 8,-2 8,-8 0,-5 0,-10 0,-15 0,-5 -2,-8 -8,-8 -5,0 -10,0 -15,0 -5,0 -8,2 -8,8 0,5 0,10 0,15 0,5 2,8 8,8zm-133 38l6 -185 47 0 6 185 -59 0zm7 -194l1 -22c0,-5 4,-9 9,-9 9,0 17,0 26,0 5,0 9,4 9,9l1 22 -46 0zm276 203l0 24c0,8 -7,15 -15,15l-188 0c-5,0 -9,-4 -9,-9l-1 -30 74 0 139 0zm0 -9l-139 0 -74 0 -4 -106 73 -51 0 51 72 -51 0 51 72 -51 0 51 0 106z"/>
  </g>
 </g>
</svg>
