<?xml version="1.0" encoding="UTF-8"?>
<!DOCTYPE svg PUBLIC "-//W3C//DTD SVG 1.1//EN" "http://www.w3.org/Graphics/SVG/1.1/DTD/svg11.dtd">
<!-- Creator: CorelDRAW -->
<svg xmlns="http://www.w3.org/2000/svg" xml:space="preserve" width="36px" height="36px" version="1.1" style="shape-rendering:geometricPrecision; text-rendering:geometricPrecision; image-rendering:optimizeQuality; fill-rule:evenodd; clip-rule:evenodd"
viewBox="0 0 36 36"
 xmlns:xlink="http://www.w3.org/1999/xlink"
 xmlns:xodm="http://www.corel.com/coreldraw/odm/2003">
 <defs>
  <style type="text/css">
   <![CDATA[
    .fil0 {fill:none}
    .fil1 {fill:#268FA3}
   ]]>
  </style>
 </defs>
 <g id="Default">
  <metadata id="CorelCorpID_0Corel-Layer"/>
  <g id="_3086124768288">
   <g>
    <path class="fil0" d="M18 0c9.941,0 18,8.059 18,18 0,9.941 -8.059,18 -18,18 -9.941,0 -18,-8.059 -18,-18 0,-9.941 8.059,-18 18,-18z"/>
   </g>
   <path class="fil1" d="M27.509 21.738c-0.781,0 -1.415,0.633 -1.415,1.415 0,0.781 0.634,1.414 1.415,1.414 0.781,0 1.415,-0.633 1.415,-1.414 0,-0.782 -0.634,-1.415 -1.415,-1.415zm-18.863 0c0.781,0 1.415,0.633 1.415,1.415 0,0.781 -0.634,1.414 -1.415,1.414 -0.781,0 -1.415,-0.633 -1.415,-1.414 0,-0.782 0.634,-1.415 1.415,-1.415zm0 -1.887c1.823,0 3.301,1.478 3.301,3.302 0,1.823 -1.478,3.301 -3.301,3.301 -1.823,0 -3.301,-1.478 -3.301,-3.301 0,-1.824 1.478,-3.302 3.301,-3.302zm13.204 -13.204c-0.26,0 -0.471,0.212 -0.471,0.472 0,0.26 0.211,0.472 0.471,0.472 0.504,0 1.009,0 1.513,0 0.835,3.547 1.669,7.094 2.504,10.641 -1.791,0.598 -3.116,2.121 -3.459,3.978 -2.887,0 -5.774,0 -8.661,0 -0.333,-1.804 -1.594,-3.297 -3.316,-3.928 -1.721,-0.631 -3.648,-0.306 -5.068,0.854 -0.201,0.165 -0.231,0.462 -0.067,0.664 0.165,0.201 0.462,0.231 0.664,0.066 1.329,-1.086 3.182,-1.265 4.694,-0.452 1.513,0.812 2.387,2.455 2.215,4.163 -0.028,0.278 0.19,0.519 0.469,0.519 3.16,0 6.319,0 9.479,0 0.279,0 0.497,-0.241 0.469,-0.519 -0.127,-1.267 0.321,-2.525 1.222,-3.425 0.9,-0.901 2.158,-1.35 3.425,-1.222 0.259,0.026 0.49,-0.163 0.516,-0.423 0.026,-0.259 -0.163,-0.49 -0.422,-0.516 -0.418,-0.042 -0.826,-0.034 -1.242,0.025 -0.863,-3.668 -1.726,-7.337 -2.589,-11.005 -0.051,-0.213 -0.241,-0.364 -0.459,-0.364 -0.63,0 -1.258,0 -1.887,0zm5.659 13.204c-1.823,0 -3.301,1.478 -3.301,3.302 0,1.823 1.478,3.301 3.301,3.301 1.823,0 3.301,-1.478 3.301,-3.301 0,-1.824 -1.478,-3.302 -3.301,-3.302z"/>
  </g>
 </g>
</svg>
