<?xml version="1.0" encoding="UTF-8"?>
<!DOCTYPE svg PUBLIC "-//W3C//DTD SVG 1.1//EN" "http://www.w3.org/Graphics/SVG/1.1/DTD/svg11.dtd">
<!-- Creator: CorelDRAW 2020 (64-Bit) -->
<svg xmlns="http://www.w3.org/2000/svg" xml:space="preserve" width="36px" height="36px" version="1.1" style="shape-rendering:geometricPrecision; text-rendering:geometricPrecision; image-rendering:optimizeQuality; fill-rule:evenodd; clip-rule:evenodd"
viewBox="0 0 360 360"
 xmlns:xlink="http://www.w3.org/1999/xlink"
 xmlns:xodm="http://www.corel.com/coreldraw/odm/2003">
 <defs>
  <style type="text/css">
   <![CDATA[
    .fil0 {fill:none}
    .fil1 {fill:#6e6e6e}
   ]]>
  </style>
 </defs>
 <g id="Default">
  <metadata id="CorelCorpID_0Corel-Layer"/>
  <g id="_2888139877056">
   <rect class="fil0" width="360" height="360"/>
   <path class="fil1" d="M259 196c-19,0 -35,16 -35,35 0,19 16,35 35,35 19,0 35,-15 35,-35 0,-19 -16,-35 -35,-35zm0 20c-8,0 -15,7 -15,15 0,8 7,15 15,15 8,0 15,-7 15,-15 0,-8 -7,-15 -15,-15zm-158 0c8,0 15,7 15,15 0,8 -7,15 -15,15 -8,0 -15,-7 -15,-15 0,-8 7,-15 15,-15zm117 -104c0,8 0,15 0,23 0,4 1,5 5,5 24,0 47,0 71,0 4,0 7,-5 4,-8 -7,-7 -14,-14 -22,-22 -2,-2 -4,-3 -7,-3 -15,0 -31,0 -46,0 -4,0 -5,1 -5,5zm110 54c0,-4 -1,-5 -5,-5 -3,0 -7,0 -10,0 -3,0 -5,1 -5,5 0,4 1,5 5,5 3,0 7,0 10,0 4,0 5,-1 5,-5zm-227 30c19,0 35,16 35,35 0,19 -16,35 -35,35 -19,0 -35,-15 -35,-35 0,-19 16,-35 35,-35zm-79 -3c0,9 0,18 0,27 0,5 4,10 10,10 9,0 18,0 28,0 0,-23 19,-42 42,-42 23,0 42,19 42,42 18,0 36,0 53,0 0,-16 0,-31 0,-47 -55,0 -109,0 -164,0 -5,0 -10,4 -10,10zm249 -101c-19,0 -39,0 -58,0 -5,0 -10,4 -10,10 0,43 0,86 0,129 5,0 10,0 15,0 0,-23 19,-42 42,-42 23,0 42,19 42,42 9,0 18,0 28,0 5,0 10,-4 10,-10 0,-20 0,-40 0,-60 0,-6 -2,-10 -6,-14 -16,-16 -32,-32 -48,-48 -4,-4 -8,-6 -14,-6z"/>
  </g>
 </g>
</svg>
