<?xml version="1.0" encoding="UTF-8"?>
<!DOCTYPE svg PUBLIC "-//W3C//DTD SVG 1.1//EN" "http://www.w3.org/Graphics/SVG/1.1/DTD/svg11.dtd">
<!-- Creator: CorelDRAW 2020 (64-Bit) -->
<svg xmlns="http://www.w3.org/2000/svg" xml:space="preserve" width="36px" height="36px" version="1.1" style="shape-rendering:geometricPrecision; text-rendering:geometricPrecision; image-rendering:optimizeQuality; fill-rule:evenodd; clip-rule:evenodd"
viewBox="0 0 360 360"
 xmlns:xlink="http://www.w3.org/1999/xlink"
 xmlns:xodm="http://www.corel.com/coreldraw/odm/2003">
 <defs>
  <style type="text/css">
   <![CDATA[
    .fil0 {fill:none;fill-rule:nonzero}
    .fil1 {fill:white}
   ]]>
  </style>
 </defs>
 <g id="Default">
  <metadata id="CorelCorpID_0Corel-Layer"/>
  <g id="_2888097401360">
   <path class="fil0" d="M180 0c-99,0 -180,81 -180,180 0,99 81,180 180,180 99,0 180,-81 180,-180 0,-99 -81,-180 -180,-180"/>
   <path class="fil1" d="M99 194c17,0 32,14 32,32 0,17 -14,32 -32,32 -17,0 -32,-14 -32,-32 0,-17 14,-32 32,-32zm210 -36c-4,-14 -8,-28 -12,-41 -1,-2 -2,-3 -4,-3 -11,0 -22,0 -33,0 -2,0 -5,2 -5,5 0,14 0,28 0,41 0,2 2,5 5,5 15,0 30,0 45,0 3,0 5,-3 4,-6zm-48 54c-7,0 -14,6 -14,14 0,7 6,14 14,14 7,0 14,-6 14,-14 0,-7 -6,-14 -14,-14zm-162 0c7,0 14,6 14,14 0,7 -6,14 -14,14 -7,0 -14,-6 -14,-14 0,-7 6,-14 14,-14zm207 -34c-2,0 -4,1 -4,3 0,1 0,10 0,12 1,2 2,3 4,3 2,0 4,-1 4,-3 0,-1 0,-10 0,-12 -1,-2 -2,-3 -4,-3zm-206 -65c-15,0 -31,0 -46,0 -2,0 -5,2 -5,5 0,14 0,28 0,41 0,2 2,5 5,5 15,0 31,0 46,0 2,0 5,-2 5,-5 0,-14 0,-28 0,-41 0,-2 -2,-5 -5,-5zm69 0c-15,0 -31,0 -46,0 -2,0 -5,2 -5,5 0,14 0,28 0,41 0,2 2,5 5,5 15,0 31,0 46,0 2,0 5,-2 5,-5 0,-14 0,-28 0,-41 0,-2 -2,-5 -5,-5zm69 0c-15,0 -31,0 -46,0 -2,0 -5,2 -5,5 0,14 0,28 0,41 0,2 2,5 5,5 15,0 31,0 46,0 2,0 5,-2 5,-5 0,-14 0,-28 0,-41 0,-2 -2,-5 -5,-5zm85 43c-5,-16 -9,-31 -14,-47 -2,-6 -7,-10 -13,-10 -84,0 -167,0 -251,0 -5,0 -9,4 -9,9 0,28 0,55 0,83 0,8 0,17 0,25 0,5 4,9 9,9 5,0 11,0 16,0 0,-21 17,-38 38,-38 21,0 38,17 38,38 29,0 58,0 86,0 0,-21 17,-38 38,-38 21,0 38,17 38,38 5,0 11,0 16,0 5,0 9,-4 9,-9 0,-17 0,-33 0,-49 0,-4 0,-7 -1,-11zm-62 38c-17,0 -32,14 -32,32 0,17 14,32 32,32 17,0 32,-14 32,-32 0,-17 -14,-32 -32,-32z"/>
  </g>
 </g>
</svg>
