<?xml version="1.0" encoding="UTF-8"?>
<!DOCTYPE svg PUBLIC "-//W3C//DTD SVG 1.1//EN" "http://www.w3.org/Graphics/SVG/1.1/DTD/svg11.dtd">
<!-- Creator: CorelDRAW 2020 (64-Bit) -->
<svg xmlns="http://www.w3.org/2000/svg" xml:space="preserve" width="36px" height="36px" version="1.1" style="shape-rendering:geometricPrecision; text-rendering:geometricPrecision; image-rendering:optimizeQuality; fill-rule:evenodd; clip-rule:evenodd"
viewBox="0 0 360 360"
 xmlns:xlink="http://www.w3.org/1999/xlink"
 xmlns:xodm="http://www.corel.com/coreldraw/odm/2003">
 <defs>
  <style type="text/css">
   <![CDATA[
    .fil0 {fill:none}
    .fil1 {fill:#6e6e6e}
   ]]>
  </style>
 </defs>
 <g id="Default">
  <metadata id="CorelCorpID_0Corel-Layer"/>
  <g id="_2887733142784">
   <rect class="fil0" width="360" height="360"/>
   <path class="fil1" d="M229 214c0,-43 0,-86 0,-128 0,-3 -2,-5 -5,-5 -3,0 -6,0 -10,0 -3,0 -5,2 -5,5 0,40 0,80 0,119 7,1 14,4 19,9zm-41 -41c-3,0 -5,2 -5,5 0,3 0,6 0,10 0,3 2,5 5,5 3,0 5,-2 5,-5 0,-3 0,-6 0,-10 0,-3 -2,-5 -5,-5zm-103 10c0,3 2,5 5,5 26,0 52,0 78,0 3,0 5,-2 5,-5 0,-7 0,-13 0,-20 0,-3 -1,-5 -3,-7 -9,-9 -19,-19 -28,-28 -2,-2 -4,-3 -7,-3 -15,0 -30,0 -45,0 -3,0 -5,2 -5,5 0,18 0,35 0,53zm118 48c-8,0 -15,6 -15,15 0,8 6,15 15,15 8,0 15,-6 15,-15 0,-8 -6,-15 -15,-15zm-116 10c5,0 10,4 10,10 0,5 -4,10 -10,10 -5,0 -10,-4 -10,-10 0,-5 4,-10 10,-10zm-35 5c-4,0 -9,0 -13,0 -5,0 -10,-4 -10,-10 0,-15 0,-31 0,-46 0,-5 4,-10 10,-10 8,0 17,0 25,0 0,14 0,29 0,43 -7,6 -11,14 -12,22zm35 -24c16,0 29,13 29,29 0,16 -13,29 -29,29 -16,0 -29,-13 -29,-29 0,-16 13,-29 29,-29zm64 -106c-4,-4 -8,-6 -14,-6 -19,0 -38,0 -56,0 -5,0 -10,4 -10,10 0,33 0,66 0,99 22,-11 48,3 52,27 13,0 27,0 40,0 0,-22 18,-41 41,-41 0,-9 0,-19 0,-28 0,-6 -2,-10 -6,-14 -16,-16 -31,-31 -47,-47zm52 96c-19,0 -34,15 -34,34 0,19 15,34 34,34 19,0 34,-15 34,-34 0,-19 -15,-34 -34,-34zm37 -50c0,-21 0,-42 0,-63 0,-3 2,-5 5,-5 3,0 5,2 5,5 0,19 0,39 0,58 26,0 52,0 77,0 3,0 5,2 5,5 0,3 -2,5 -5,5 -27,0 -55,0 -82,0 -3,0 -5,-2 -5,-5z"/>
  </g>
 </g>
</svg>
