<?xml version="1.0" encoding="UTF-8"?>
<!DOCTYPE svg PUBLIC "-//W3C//DTD SVG 1.1//EN" "http://www.w3.org/Graphics/SVG/1.1/DTD/svg11.dtd">
<!-- Creator: CorelDRAW 2020 (64-Bit) -->
<svg xmlns="http://www.w3.org/2000/svg" xml:space="preserve" width="36px" height="36px" version="1.1" style="shape-rendering:geometricPrecision; text-rendering:geometricPrecision; image-rendering:optimizeQuality; fill-rule:evenodd; clip-rule:evenodd"
viewBox="0 0 360 360"
 xmlns:xlink="http://www.w3.org/1999/xlink"
 xmlns:xodm="http://www.corel.com/coreldraw/odm/2003">
 <defs>
  <style type="text/css">
   <![CDATA[
    .fil0 {fill:none}
    .fil1 {fill:#268FA3}
   ]]>
  </style>
 </defs>
 <g id="Default">
  <metadata id="CorelCorpID_0Corel-Layer"/>
  <g id="_2887694799216">
   <rect class="fil0" width="360" height="360"/>
   <path class="fil1" d="M86 326c63,0 126,0 188,0 6,0 10,-5 10,-10 0,-91 0,-181 0,-272 0,-6 -5,-10 -10,-10 -63,0 -126,0 -188,0 -6,0 -10,5 -10,10 0,91 0,181 0,272 0,6 5,10 10,10zm10 -230l42 0 0 -42 -42 0 0 42zm0 188l42 0 0 -42 -42 0 0 42zm63 0l42 0 0 -42 -42 0 0 42zm63 21l42 0 0 -63 -42 0 0 63zm0 -84l42 0 0 -42 -42 0 0 42zm-63 0l42 0 0 -42 -42 0 0 42zm-63 0l42 0 0 -42 -42 0 0 42zm0 -63l42 0 0 -42 -42 0 0 42zm63 0l42 0 0 -42 -42 0 0 42zm63 0l42 0 0 -42 -42 0 0 42zm0 -63l42 0 0 -42 -42 0 0 42zm-63 0l42 0 0 -42 -42 0 0 42z"/>
  </g>
 </g>
</svg>
