<?xml version="1.0" encoding="UTF-8"?>
<!DOCTYPE svg PUBLIC "-//W3C//DTD SVG 1.1//EN" "http://www.w3.org/Graphics/SVG/1.1/DTD/svg11.dtd">
<!-- Creator: CorelDRAW 2020 (64-Bit) -->
<svg xmlns="http://www.w3.org/2000/svg" xml:space="preserve" width="36px" height="36px" version="1.1" style="shape-rendering:geometricPrecision; text-rendering:geometricPrecision; image-rendering:optimizeQuality; fill-rule:evenodd; clip-rule:evenodd"
viewBox="0 0 360 360"
 xmlns:xlink="http://www.w3.org/1999/xlink"
 xmlns:xodm="http://www.corel.com/coreldraw/odm/2003">
 <defs>
  <style type="text/css">
   <![CDATA[
    .fil0 {fill:none}
    .fil1 {fill:#AB0534}
   ]]>
  </style>
 </defs>
 <g id="Default">
  <metadata id="CorelCorpID_0Corel-Layer"/>
  <g id="_1676762479216">
   <rect class="fil0" width="360" height="360"/>
   <path class="fil1" d="M163 96c-15,-19 -31,-38 -46,-57 -11,6 -22,11 -33,17 -10,5 -17,12 -22,22 -12,24 -24,48 -36,71 -3,6 0,14 6,17 9,4 18,8 27,12 6,3 13,0 16,-5 6,-11 15,-23 22,-34 0,63 0,126 0,190 0,7 6,12 12,12 47,0 95,0 142,0 7,0 12,-6 12,-12 0,-63 0,-126 0,-190 7,11 15,23 22,34 3,6 10,8 16,5 9,-4 18,-8 27,-12 6,-3 9,-11 6,-17 -12,-24 -24,-48 -36,-71 -5,-10 -12,-17 -22,-22 -11,-6 -22,-11 -33,-17 -15,19 -31,38 -46,57l-16 -21 -18 21zm-25 95c0,3 1,6 3,7 2,2 6,3 10,3 4,0 7,-1 10,-2 2,-1 3,-3 3,-6 0,-2 -1,-3 -2,-4 -1,-1 -4,-2 -8,-3l-11 -2c-7,-2 -11,-4 -14,-6 -2,-3 -4,-6 -4,-11 0,-6 2,-10 6,-14 4,-4 10,-5 18,-5 8,0 14,2 18,6 4,4 6,9 6,14l-12 0c0,-3 -1,-5 -4,-7 -2,-2 -5,-2 -9,-2 -3,0 -6,1 -8,2 -2,1 -3,3 -3,5 0,2 0,3 1,4 1,1 2,2 4,2l17 4c6,1 10,4 12,6 2,3 3,6 3,10 0,7 -2,12 -7,15 -5,3 -11,5 -17,5 -9,0 -16,-2 -20,-6 -4,-4 -7,-9 -7,-15l12 0zm99 19l-49 0 0 -11 32 -40 -31 0 0 -11 48 0 0 10 -33 41 33 0 0 11zm-76 51c-2,-7 -6,-11 -14,-11 -5,0 -8,2 -11,6 -3,4 -4,9 -4,16 0,6 1,12 4,15 3,4 6,6 11,6 7,0 12,-4 14,-12l13 0c-1,6 -4,12 -8,16 -5,4 -11,7 -19,7 -9,0 -16,-3 -21,-9 -5,-6 -8,-14 -8,-24 0,-10 3,-18 8,-24 5,-6 12,-9 21,-9 8,0 14,2 19,6 5,4 7,9 8,16l-13 0zm-8 -26l-11 0 -10 -13 10 0 5 7 6 -7 10 0 -10 13zm44 36c0,7 2,13 5,16 3,4 7,5 12,5 5,0 9,-2 12,-6 3,-4 5,-9 5,-16 0,-7 -2,-12 -5,-16 -3,-4 -7,-6 -12,-6 -5,0 -9,2 -12,6 -3,4 -5,9 -5,16zm-13 0c0,-11 3,-19 8,-24 6,-6 13,-8 21,-8 9,0 16,3 22,8 6,6 8,14 8,24 0,11 -3,19 -8,24 -6,6 -13,8 -22,8 -8,0 -16,-3 -21,-8 -6,-5 -9,-14 -9,-25zm-3 -209l-45 -45 -12 18 40 50 17 -23zm58 -27l-40 50 -18 -23 45 -45 12 18zm-94 -18l18 18 36 0 18 -18 -73 0z"/>
  </g>
 </g>
</svg>
