<?xml version="1.0" encoding="UTF-8"?>
<!DOCTYPE svg PUBLIC "-//W3C//DTD SVG 1.1//EN" "http://www.w3.org/Graphics/SVG/1.1/DTD/svg11.dtd">
<!-- Creator: CorelDRAW 2020 (64-Bit) -->
<svg xmlns="http://www.w3.org/2000/svg" xml:space="preserve" width="36px" height="36px" version="1.1" style="shape-rendering:geometricPrecision; text-rendering:geometricPrecision; image-rendering:optimizeQuality; fill-rule:evenodd; clip-rule:evenodd"
viewBox="0 0 360 360"
 xmlns:xlink="http://www.w3.org/1999/xlink"
 xmlns:xodm="http://www.corel.com/coreldraw/odm/2003">
 <defs>
  <style type="text/css">
   <![CDATA[
    .fil0 {fill:none}
    .fil1 {fill:#268FA3}
   ]]>
  </style>
 </defs>
 <g id="Default">
  <metadata id="CorelCorpID_0Corel-Layer"/>
  <g id="_2850345488944">
   <rect class="fil0" width="360" height="360"/>
   <path class="fil1" d="M32 230c4,0 8,0 12,0 0,-1 0,-2 1,-2 0,-2 0,-4 1,-6 1,-4 2,-8 4,-12 8,-15 24,-23 41,-21 17,2 31,14 35,30 1,2 1,4 1,6l1 5c30,0 59,0 89,0 0,-2 1,-4 1,-5 0,-2 1,-4 1,-6 5,-16 18,-28 35,-30 17,-2 33,6 41,21 2,4 4,8 4,12 0,2 1,4 1,6 0,1 0,1 1,2 9,0 18,0 27,0 5,0 10,-4 10,-10 0,-11 0,-23 0,-34 0,-9 -6,-17 -15,-19 -20,-5 -39,-10 -59,-15 -4,-1 -7,-3 -9,-5 -10,-10 -20,-20 -30,-30 -4,-4 -8,-6 -14,-6 -34,0 -68,0 -102,0 -6,0 -10,2 -14,6 -11,11 -21,21 -32,32 -2,2 -3,3 -5,4 -9,4 -17,9 -26,13 -7,3 -11,10 -11,18 0,12 0,25 0,37 0,5 4,10 10,10zm54 -15c8,0 15,7 15,15 0,8 -7,15 -15,15 -8,0 -15,-7 -15,-15 0,-8 7,-15 15,-15zm58 -89c-11,0 -22,0 -33,0 -3,0 -5,1 -7,3 -7,7 -14,14 -22,22 -3,3 -1,8 4,8 19,0 38,0 58,0 4,0 5,-1 5,-5 0,-8 0,-15 0,-23 0,-4 -1,-5 -5,-5zm-102 65c0,-4 -1,-5 -5,-5 -4,0 -5,1 -5,5 0,4 1,5 5,5 4,0 5,-1 5,-5zm287 0c0,-4 -1,-5 -5,-5 -3,0 -7,0 -10,0 -4,0 -5,1 -5,5 0,4 1,5 5,5 3,0 7,0 10,0 4,0 5,-1 5,-5zm-170 -60c0,8 0,15 0,23 0,4 1,5 5,5 24,0 47,0 71,0 4,0 7,-5 4,-8 -7,-7 -14,-14 -22,-22 -2,-2 -4,-3 -7,-3 -15,0 -31,0 -46,0 -4,0 -5,1 -5,5zm101 84c-8,0 -15,7 -15,15 0,8 7,15 15,15 8,0 15,-7 15,-15 0,-8 -7,-15 -15,-15zm-174 -20c19,0 35,16 35,35 0,19 -16,35 -35,35 -19,0 -35,-16 -35,-35 0,-19 16,-35 35,-35zm174 0c-19,0 -35,16 -35,35 0,19 16,35 35,35 19,0 35,-16 35,-35 0,-19 -16,-35 -35,-35z"/>
  </g>
 </g>
</svg>
