<?xml version="1.0" encoding="UTF-8"?>
<!DOCTYPE svg PUBLIC "-//W3C//DTD SVG 1.1//EN" "http://www.w3.org/Graphics/SVG/1.1/DTD/svg11.dtd">
<!-- Creator: CorelDRAW 2020 (64-Bit) -->
<svg xmlns="http://www.w3.org/2000/svg" xml:space="preserve" width="36px" height="36px" version="1.1" style="shape-rendering:geometricPrecision; text-rendering:geometricPrecision; image-rendering:optimizeQuality; fill-rule:evenodd; clip-rule:evenodd"
viewBox="0 0 360 360"
 xmlns:xlink="http://www.w3.org/1999/xlink"
 xmlns:xodm="http://www.corel.com/coreldraw/odm/2003">
 <defs>
  <style type="text/css">
   <![CDATA[
    .fil0 {fill:none}
    .fil1 {fill:#004A5D}
   ]]>
  </style>
 </defs>
 <g id="Default">
  <metadata id="CorelCorpID_0Corel-Layer"/>
  <g id="_1676643159456">
   <path class="fil0" d="M180 0c99,0 180,81 180,180 0,99 -81,180 -180,180 -99,0 -180,-81 -180,-180 0,-99 81,-180 180,-180z"/>
   <path class="fil1" d="M109 194c19,0 35,16 35,35 0,19 -16,35 -35,35 -19,0 -35,-16 -35,-35 0,-19 16,-35 35,-35zm161 20c-8,0 -15,7 -15,15 0,8 7,15 15,15 8,0 15,-7 15,-15 0,-8 -7,-15 -15,-15zm-161 0c8,0 15,7 15,15 0,8 -7,15 -15,15 -8,0 -15,-7 -15,-15 0,-8 7,-15 15,-15zm-23 -35c-9,0 -18,0 -27,0 -6,0 -10,-5 -10,-10 0,-3 0,-7 0,-10 0,-6 5,-10 10,-10 27,0 54,0 80,0 6,0 10,4 10,10 0,4 0,9 0,13 7,7 14,14 21,21 1,1 2,1 4,1 4,0 8,0 12,0 1,0 3,0 4,-1 11,-11 23,-23 34,-34 -7,-12 -14,-24 -21,-36 -2,1 -8,5 -11,6 -5,0 -7,-5 -4,-8 3,-3 7,-4 10,-6 4,-2 7,-6 11,0 1,1 2,3 3,4 12,21 24,41 36,62 21,-10 45,-5 62,11 3,2 3,5 0,7 -2,3 -5,3 -7,0 -27,-27 -73,-10 -77,28 0,4 -2,5 -6,5 -4,0 -5,-2 -5,-6 2,-16 10,-30 23,-40 -1,-3 -3,-5 -4,-8 -12,12 -23,23 -35,35 -2,2 -4,3 -7,3 -8,0 -16,0 -24,0 -2,0 -4,-1 -6,-2 1,4 2,7 2,11 0,4 -1,5 -5,6 -4,0 -5,-1 -6,-5 -2,-23 -22,-41 -45,-41 -23,0 -43,18 -45,41 0,4 -2,5 -6,5 -4,0 -5,-2 -5,-6 2,-20 14,-37 32,-45zm179 -30c0,-7 0,-13 0,-20 0,-4 -1,-5 -5,-5 -3,0 -7,0 -10,0 -8,0 -15,7 -15,15 0,8 7,15 15,15 3,0 7,0 10,0 4,0 5,-1 5,-5zm5 45c-19,0 -35,16 -35,35 0,19 16,35 35,35 19,0 35,-16 35,-35 0,-19 -16,-35 -35,-35z"/>
  </g>
 </g>
</svg>
