<?xml version="1.0" encoding="UTF-8"?>
<!DOCTYPE svg PUBLIC "-//W3C//DTD SVG 1.1//EN" "http://www.w3.org/Graphics/SVG/1.1/DTD/svg11.dtd">
<!-- Creator: CorelDRAW 2020 (64-Bit) -->
<svg xmlns="http://www.w3.org/2000/svg" xml:space="preserve" width="36px" height="36px" version="1.1" style="shape-rendering:geometricPrecision; text-rendering:geometricPrecision; image-rendering:optimizeQuality; fill-rule:evenodd; clip-rule:evenodd"
viewBox="0 0 360 360"
 xmlns:xlink="http://www.w3.org/1999/xlink"
 xmlns:xodm="http://www.corel.com/coreldraw/odm/2003">
 <defs>
  <style type="text/css">
   <![CDATA[
    .fil0 {fill:none}
    .fil1 {fill:#004A5D}
   ]]>
  </style>
 </defs>
 <g id="Default">
  <metadata id="CorelCorpID_0Corel-Layer"/>
  <g id="_1676584752096">
   <rect class="fil0" width="360" height="360"/>
   <path class="fil1" d="M140 23c-19,10 -38,19 -57,29 -10,5 -17,12 -22,22 -10,19 -19,38 -29,57 -3,6 -1,14 6,17 9,5 19,9 28,14 6,3 13,1 16,-4 5,-7 9,-15 14,-22 0,63 0,126 0,190 0,7 6,12 12,12 47,0 95,0 142,0 7,0 12,-6 12,-12 0,-63 0,-126 0,-190 5,7 9,15 14,22 3,5 10,7 16,4 9,-5 19,-9 28,-14 6,-3 9,-11 6,-17 -10,-19 -19,-38 -29,-57 -5,-10 -12,-17 -22,-22 -19,-10 -38,-19 -57,-29 -17,31 -62,31 -79,0zm-6 13c-1,-2 -3,-2 -4,-1 -2,1 -2,3 -1,4 26,33 76,33 102,0 1,-2 1,-3 -1,-4 -2,-1 -3,-1 -4,1 -23,30 -68,30 -92,0zm-28 283c-2,0 -3,1 -3,3 0,2 1,3 3,3 49,0 99,0 148,0 2,0 3,-1 3,-3 0,-2 -1,-3 -3,-3 -49,0 -99,0 -148,0z"/>
  </g>
 </g>
</svg>
