<?xml version="1.0" encoding="UTF-8"?>
<!DOCTYPE svg PUBLIC "-//W3C//DTD SVG 1.1//EN" "http://www.w3.org/Graphics/SVG/1.1/DTD/svg11.dtd">
<!-- Creator: CorelDRAW 2020 (64-Bit) -->
<svg xmlns="http://www.w3.org/2000/svg" xml:space="preserve" width="36px" height="36px" version="1.1" style="shape-rendering:geometricPrecision; text-rendering:geometricPrecision; image-rendering:optimizeQuality; fill-rule:evenodd; clip-rule:evenodd"
viewBox="0 0 360 360"
 xmlns:xlink="http://www.w3.org/1999/xlink"
 xmlns:xodm="http://www.corel.com/coreldraw/odm/2003">
 <defs>
  <style type="text/css">
   <![CDATA[
    .fil0 {fill:none}
    .fil1 {fill:#AB0534}
   ]]>
  </style>
 </defs>
 <g id="Default">
  <metadata id="CorelCorpID_0Corel-Layer"/>
  <g id="_1676837081392">
   <rect class="fil0" width="360" height="360"/>
   <path class="fil1" d="M114 121c-19,0 -35,16 -35,35 0,19 16,35 35,35 6,0 14,-6 18,-10 6,-7 12,-14 17,-21 16,-19 46,-19 62,0 6,7 12,14 17,21 4,5 11,10 18,10 19,0 35,-16 35,-35 0,-19 -16,-35 -35,-35 -44,0 -88,0 -132,0zm183 -92c-4,0 -7,0 -11,0 -3,0 -5,2 -5,5 0,12 0,25 0,37 7,0 14,0 21,0 0,-12 0,-25 0,-37 0,-3 -2,-5 -5,-5zm-99 241c0,-2 0,-3 0,-5 0,-10 -8,-18 -18,-18 -10,0 -18,8 -18,18 0,2 0,3 0,5 -11,-2 -19,-11 -19,-22 0,-12 10,-22 22,-22 10,0 20,0 30,0 12,0 22,10 22,22 0,11 -8,20 -19,22zm104 -5c0,-26 0,-52 0,-78 -5,10 -12,17 -21,23 0,18 0,37 0,55 0,25 -20,45 -45,45 -25,0 -45,-20 -45,-45 0,-6 -5,-11 -11,-11 -6,0 -11,5 -11,11 0,37 30,66 66,66 37,0 66,-30 66,-66zm-188 -165c-31,0 -56,25 -56,56 0,31 25,56 56,56 13,0 26,-8 34,-18 6,-7 12,-14 17,-21 8,-9 21,-9 29,0 6,7 12,14 17,21 8,10 21,18 34,18 31,0 56,-25 56,-56 0,-31 -25,-56 -56,-56 -44,0 -88,0 -132,0zm188 27c0,-16 0,-32 0,-48 -7,0 -14,0 -21,0 0,8 0,16 0,24 9,6 16,14 21,23z"/>
  </g>
 </g>
</svg>
