<?xml version="1.0" encoding="UTF-8"?>
<!DOCTYPE svg PUBLIC "-//W3C//DTD SVG 1.1//EN" "http://www.w3.org/Graphics/SVG/1.1/DTD/svg11.dtd">
<!-- Creator: CorelDRAW 2020 (64-Bit) -->
<svg xmlns="http://www.w3.org/2000/svg" xml:space="preserve" width="36px" height="36px" version="1.1" style="shape-rendering:geometricPrecision; text-rendering:geometricPrecision; image-rendering:optimizeQuality; fill-rule:evenodd; clip-rule:evenodd"
viewBox="0 0 360 360"
 xmlns:xlink="http://www.w3.org/1999/xlink"
 xmlns:xodm="http://www.corel.com/coreldraw/odm/2003">
 <defs>
  <style type="text/css">
   <![CDATA[
    .fil0 {fill:none}
    .fil1 {fill:#6e6e6e}
   ]]>
  </style>
 </defs>
 <g id="Default">
  <metadata id="CorelCorpID_0Corel-Layer"/>
  <g id="_2888293572560">
   <rect class="fil0" width="360" height="360"/>
   <path class="fil1" d="M94 130c2,0 4,0 5,0 4,0 5,-2 5,-5 0,-11 0,-21 0,-32 0,-4 -2,-5 -5,-5 -2,0 -4,0 -5,0 -4,0 -5,2 -5,5 0,11 0,21 0,32 0,4 2,5 5,5zm128 204c0,-86 0,-172 0,-259 0,-18 14,-32 32,-32 6,0 11,-5 11,-11 0,-6 -5,-11 -11,-11 -29,0 -53,24 -53,53 0,86 0,172 0,259 0,4 2,5 5,5 4,0 7,0 11,0 4,0 5,-2 5,-5zm-84 0c0,-86 0,-172 0,-259 0,-18 -14,-32 -32,-32 -6,0 -11,-5 -11,-11 0,-6 5,-11 11,-11 29,0 53,24 53,53 0,86 0,172 0,259 0,4 -2,5 -5,5 -4,0 -7,0 -11,0 -4,0 -5,-2 -5,-5zm139 -38c-9,0 -19,0 -28,0 -3,0 -4,-1 -4,-4 0,-3 1,-4 4,-4 9,0 19,0 28,0 3,0 4,1 4,4 0,3 -1,4 -4,4zm-15 26c0,0 1,0 1,0 2,0 3,-1 3,-3 0,-6 0,-12 0,-18 -2,0 -5,0 -7,0 0,6 0,12 0,18 0,2 1,3 3,3zm3 -192c-2,0 -4,0 -5,0 -4,0 -5,-2 -5,-5 0,-11 0,-21 0,-32 0,-4 2,-5 5,-5 2,0 4,0 5,0 4,0 5,2 5,5 0,11 0,21 0,32 0,4 -2,5 -5,5zm-168 192c0,0 -1,0 -1,0 -2,0 -3,-1 -3,-3 0,-6 0,-12 0,-18 2,0 5,0 7,0 0,6 0,12 0,18 0,2 -1,3 -3,3zm-15 -26c9,0 19,0 28,0 3,0 4,-1 4,-4 0,-3 -1,-4 -4,-4 -9,0 -19,0 -28,0 -3,0 -4,1 -4,4 0,3 1,4 4,4zm18 -13l0 -148 -7 0 0 148 7 0zm158 0l0 -148 7 0 0 148 -7 0z"/>
  </g>
 </g>
</svg>
