<?xml version="1.0" encoding="UTF-8"?>
<!DOCTYPE svg PUBLIC "-//W3C//DTD SVG 1.1//EN" "http://www.w3.org/Graphics/SVG/1.1/DTD/svg11.dtd">
<!-- Creator: CorelDRAW 2020 (64-Bit) -->
<svg xmlns="http://www.w3.org/2000/svg" xml:space="preserve" width="36px" height="36px" version="1.1" style="shape-rendering:geometricPrecision; text-rendering:geometricPrecision; image-rendering:optimizeQuality; fill-rule:evenodd; clip-rule:evenodd"
viewBox="0 0 360 360"
 xmlns:xlink="http://www.w3.org/1999/xlink"
 xmlns:xodm="http://www.corel.com/coreldraw/odm/2003">
 <defs>
  <style type="text/css">
   <![CDATA[
    .fil0 {fill:none}
    .fil1 {fill:#AB0534}
   ]]>
  </style>
 </defs>
 <g id="Default">
  <metadata id="CorelCorpID_0Corel-Layer"/>
  <g id="_1676819488912">
   <rect class="fil0" width="360" height="360"/>
   <path class="fil1" d="M36 310c0,-67 0,-135 0,-202 0,-7 5,-12 12,-12 88,0 176,0 264,0 7,0 12,5 12,12 0,67 0,135 0,202 0,7 -5,12 -12,12 -88,0 -176,0 -264,0 -7,0 -12,-5 -12,-12zm102 -122c-4,0 -8,0 -12,0 -5,0 -8,4 -8,8 0,8 0,16 0,24 0,5 4,8 8,8 4,0 8,0 12,0 5,0 8,-4 8,-8 0,-8 0,-16 0,-24 0,-5 -4,-8 -8,-8zm-61 26c-5,0 -8,-4 -8,-8 0,-5 4,-8 8,-8 11,0 22,0 34,0 0,6 0,11 0,17 -11,0 -22,0 -34,0zm206 0c5,0 8,-4 8,-8 0,-5 -4,-8 -8,-8 -11,0 -22,0 -34,0 0,6 0,11 0,17 11,0 22,0 34,0zm-159 -32c5,0 10,0 15,0 4,0 7,-3 7,-7 0,-4 -3,-7 -7,-7 -5,0 -10,0 -15,0 -4,0 -7,3 -7,7 0,4 3,7 7,7zm111 0c-5,0 -10,0 -15,0 -4,0 -7,-3 -7,-7 0,-4 3,-7 7,-7 5,0 10,0 15,0 4,0 7,3 7,7 0,4 -3,7 -7,7zm-14 6c4,0 8,0 12,0 5,0 8,4 8,8 0,8 0,16 0,24 0,5 -4,8 -8,8 -4,0 -8,0 -12,0 -5,0 -8,-4 -8,-8 0,-8 0,-16 0,-24 0,-5 4,-8 8,-8zm-68 26l0 -17 53 0 0 17 -53 0zm-94 84l240 0 0 -178 -240 0 0 178zm160 -216c0,5 4,8 8,8 5,0 8,-4 8,-8 0,-8 0,-16 0,-24 0,-11 -9,-20 -20,-20 -24,0 -48,0 -72,0 -11,0 -20,9 -20,20 0,8 0,16 0,24 0,5 4,8 8,8 5,0 8,-4 8,-8 0,-8 0,-16 0,-24 0,-3 1,-4 4,-4 24,0 48,0 72,0 3,0 4,1 4,4 0,8 0,16 0,24z"/>
  </g>
 </g>
</svg>
