<?xml version="1.0" encoding="UTF-8"?>
<!DOCTYPE svg PUBLIC "-//W3C//DTD SVG 1.1//EN" "http://www.w3.org/Graphics/SVG/1.1/DTD/svg11.dtd">
<!-- Creator: CorelDRAW 2020 (64-Bit) -->
<svg xmlns="http://www.w3.org/2000/svg" xml:space="preserve" width="36px" height="36px" version="1.1" style="shape-rendering:geometricPrecision; text-rendering:geometricPrecision; image-rendering:optimizeQuality; fill-rule:evenodd; clip-rule:evenodd"
viewBox="0 0 360 360"
 xmlns:xlink="http://www.w3.org/1999/xlink"
 xmlns:xodm="http://www.corel.com/coreldraw/odm/2003">
 <defs>
  <style type="text/css">
   <![CDATA[
    .fil0 {fill:none}
    .fil1 {fill:#6FC7B6}
   ]]>
  </style>
 </defs>
 <g id="Default">
  <metadata id="CorelCorpID_0Corel-Layer"/>
  <g id="_1679255264096">
   <rect class="fil0" width="360" height="360"/>
   <path class="fil1" d="M214 128c-34,-21 -79,-11 -101,23 -21,34 -11,79 23,101 34,21 79,11 101,-23 21,-34 11,-79 -23,-101zm-68 57c2,-13 12,-23 25,-25 3,-1 5,-4 5,-7 -1,-3 -4,-5 -7,-5 -18,3 -31,17 -34,34 -1,3 2,6 5,7 3,1 6,-2 7,-5zm35 35c13,-2 23,-12 25,-25 1,-3 4,-5 7,-5 3,1 5,4 5,7 -3,18 -17,31 -34,34 -3,1 -6,-2 -7,-5 -1,-3 2,-6 5,-7zm116 -111c4,0 8,0 12,0 6,0 12,5 12,12 0,6 -5,12 -12,12 -4,0 -8,0 -12,0 -6,0 -12,-5 -12,-12 0,-6 5,-12 12,-12zm-94 39c-23,-15 -54,-7 -69,16 -15,23 -7,54 16,69 23,15 54,7 69,-16 15,-23 7,-54 -16,-69zm129 14c0,-18 0,-36 0,-53 0,-6 -5,-12 -12,-12 -25,0 -51,0 -76,0 -5,-9 -9,-18 -14,-28 -2,-5 -5,-6 -10,-6 -29,0 -58,0 -87,0 -5,0 -8,2 -10,6 -5,9 -9,18 -14,28 -22,0 -45,0 -67,0 -6,0 -12,5 -12,12 0,18 0,36 0,53 24,0 47,0 71,0 26,-71 126,-71 152,0 26,0 53,0 79,0zm0 56c0,22 0,45 0,67 0,6 -5,12 -12,12 -93,0 -186,0 -279,0 -6,0 -12,-5 -12,-12 0,-22 0,-45 0,-67 24,0 47,0 71,0 26,71 126,71 152,0 26,0 53,0 79,0z"/>
  </g>
 </g>
</svg>
