<svg xmlns="http://www.w3.org/2000/svg" xml:space="preserve" width="36" height="36" fill-rule="evenodd" clip-rule="evenodd" image-rendering="optimizeQuality" shape-rendering="geometricPrecision" text-rendering="geometricPrecision" viewBox="0 0 36 36"><path d="M30.67 7.96a.61.61 0 0 1-.88 0 .616.616 0 0 1 0-.87c.68-.69 1.36-1.37 2.05-2.05.24-.24.63-.24.88 0 .24.24.24.63 0 .87zm-2.14 3.84c.09-.33.43-.53.76-.44.34.1.53.44.44.77a27 27 0 0 1-6.14 11.09.62.62 0 0 1-.88.03.616.616 0 0 1-.04-.87c2.77-3.01 4.78-6.64 5.86-10.58m-2.91-3.78c.33-.09.68.11.77.44s-.11.67-.44.76a25.9 25.9 0 0 0-10.58 5.86c-.25.23-.64.22-.87-.04a.616.616 0 0 1 .03-.87 27.05 27.05 0 0 1 11.09-6.15M3.16 26.69c.39-.39.78-.77 1.16-1.16.25-.24.64-.24.88 0s.24.63 0 .88c-.39.38-.77.77-1.16 1.16-.73.73-.73 1.91 0 2.64s1.91.73 2.64 0l1.6-1.6c.29.29.59.58.88.88-.54.53-1.07 1.06-1.6 1.6a3.12 3.12 0 0 1-4.4 0 3.12 3.12 0 0 1 0-4.4m13.88-6.84c-2.63 2.62-5.25 5.25-7.88 7.88l.88.88c2.62-2.63 5.25-5.26 7.88-7.89.24-.24.24-.63 0-.87a.61.61 0 0 0-.88 0m-2.44-3.09c3.25.6 5.79 3.14 6.39 6.39.14.71.69 1.26 1.4 1.39 2.83.53 5.16 2.54 6.09 5.27.33.95 1.6 1.14 2.19.32 4.7-6.57 3.95-15.58-1.76-21.29S14.19 2.38 7.62 7.08c-.82.59-.63 1.86.32 2.19 2.73.93 4.74 3.26 5.27 6.09.13.71.68 1.27 1.39 1.4"/><path fill="none" d="M0 0h36v36H0z"/></svg>