<svg width="26" height="26" viewBox="0 0 26 26" fill="none" xmlns="http://www.w3.org/2000/svg">
<g clip-path="url(#clip0_353_3079)">
<path fill-rule="evenodd" clip-rule="evenodd" d="M0 0H26V26H0V0Z" fill="#009584"/>
<path d="M9.4001 10.8C9.2001 11 9.2001 11.3 9.4001 11.5C9.6001 11.7 9.9001 11.7 10.1001 11.5C10.4001 11.2 10.6001 11 10.9001 10.7C11.2001 10.4 11.4001 10.2 11.7001 9.90001C11.9001 9.70001 11.9001 9.40001 11.7001 9.20001C11.5001 9.00001 11.2001 9.00001 11.0001 9.20001C10.7001 9.50001 10.5001 9.70001 10.2001 10C9.9001 10.3 9.7001 10.5 9.4001 10.8ZM23.3001 22C23.7001 22.3 24.0001 22.6 24.4001 22.9C24.6001 23.1 24.6001 23.4 24.4001 23.6C24.2001 23.8 23.9001 24.1 23.7001 24.3C23.5001 24.5 23.2001 24.5 23.0001 24.3C22.7001 23.9 22.4001 23.6 22.1001 23.2C22.0001 23 22.0001 22.8 22.1001 22.6C22.3001 22.4 22.4001 22.3 22.6001 22.1C22.8001 21.9 23.0001 21.9 23.2001 22.1L23.3001 22ZM9.1001 2.00001C8.7001 1.60001 8.1001 1.60001 7.7001 2.00001C5.8001 3.90001 3.8001 5.90001 1.9001 7.80001C1.5001 8.20001 1.5001 8.80001 1.9001 9.20001C2.3001 9.60001 2.9001 9.60001 3.3001 9.20001C5.2001 7.30001 7.2001 5.30001 9.1001 3.40001C9.5001 3.00001 9.5001 2.40001 9.1001 2.00001ZM21.9001 21C21.7001 21.2 21.4001 21.5 21.2001 21.7C20.1001 20.8 20.0001 20.8 18.9001 19.9C18.7001 19.7 18.5001 19.5 18.3001 19.3C18.2001 19.2 18.0001 19 17.9001 18.9C17.1001 18.1 16.2001 17.2 15.4001 16.4C14.2001 16.2 12.9001 16 11.7001 15.9C11.3001 15.8 11.0001 15.7 10.7001 15.4C8.6001 13.3 6.9001 11.6 4.8001 9.50001C5.1001 9.20001 5.5001 8.80001 5.8001 8.50001C7.9001 10.6 9.6001 12.3 11.8001 14.5C12.9001 14.7 14.0001 14.8 15.1001 15C14.9001 13.9 14.8001 12.8 14.6001 11.7C12.5001 9.60001 10.9001 8.00001 8.7001 5.80001C9.0001 5.40001 9.4001 5.10001 9.7001 4.70001C11.8001 6.80001 13.4001 8.40001 15.5001 10.5C15.8001 10.8 15.9001 11.1 16.0001 11.5C16.2001 12.7 16.4001 14 16.5001 15.2C17.3001 16 18.2001 16.9 19.0001 17.7C19.1001 17.8 19.3001 18 19.4001 18.1C19.6001 18.3 19.8001 18.5 20.0001 18.7C20.9001 19.8 20.9001 19.9 21.8001 21H21.9001Z" fill="white"/>
</g>
<defs>
<clipPath id="clip0_353_3079">
<rect width="26" height="26" fill="white"/>
</clipPath>
</defs>
</svg>
