<?xml version="1.0" encoding="UTF-8"?>
<!DOCTYPE svg PUBLIC "-//W3C//DTD SVG 1.1//EN" "http://www.w3.org/Graphics/SVG/1.1/DTD/svg11.dtd">
<!-- Creator: CorelDRAW 2020 (64-Bit) -->
<svg xmlns="http://www.w3.org/2000/svg" xml:space="preserve" width="36px" height="36px" version="1.1" style="shape-rendering:geometricPrecision; text-rendering:geometricPrecision; image-rendering:optimizeQuality; fill-rule:evenodd; clip-rule:evenodd"
viewBox="0 0 360 360"
 xmlns:xlink="http://www.w3.org/1999/xlink"
 xmlns:xodm="http://www.corel.com/coreldraw/odm/2003">
 <defs>
  <style type="text/css">
   <![CDATA[
    .fil0 {fill:none}
    .fil1 {fill:#004A5D}
   ]]>
  </style>
 </defs>
 <g id="Default">
  <metadata id="CorelCorpID_0Corel-Layer"/>
  <g id="_1676635252976">
   <rect class="fil0" width="360" height="360"/>
   <path class="fil1" d="M61 273c79,0 159,0 238,0 0,7 0,13 0,20 0,7 -6,13 -13,13 -71,0 -142,0 -213,0 -7,0 -13,-6 -13,-13 0,-7 0,-13 0,-20zm81 -39c4,0 8,0 13,0 4,0 6,-3 6,-6 0,-4 0,-8 0,-13 0,-3 -3,-6 -6,-6 -4,0 -8,0 -13,0 -3,0 -6,3 -6,6 0,4 0,8 0,13 0,4 3,6 6,6zm76 0c-4,0 -8,0 -13,0 -3,0 -6,-3 -6,-6 0,-4 0,-8 0,-13 0,-3 3,-6 6,-6 4,0 8,0 13,0 3,0 6,3 6,6 0,4 0,8 0,13 0,4 -3,6 -6,6zm-25 -108c0,-7 -6,-13 -13,-13 -7,0 -13,6 -13,13 0,7 6,13 13,13 7,0 13,-6 13,-13zm38 101c0,-4 0,-8 0,-13 0,-3 3,-6 6,-6 4,0 8,0 13,0 3,0 6,3 6,6 0,4 0,8 0,13 0,4 -3,6 -6,6 -4,0 -8,0 -13,0 -3,0 -6,-3 -6,-6zm-108 -51c-4,0 -8,0 -13,0 -3,0 -6,3 -6,6 0,4 0,8 0,13 0,4 3,6 6,6 4,0 8,0 13,0 3,0 6,-3 6,-6 0,-4 0,-8 0,-13 0,-3 -3,-6 -6,-6zm6 51c0,-4 0,-8 0,-13 0,-3 -3,-6 -6,-6 -4,0 -8,0 -13,0 -3,0 -6,3 -6,6 0,4 0,8 0,13 0,4 3,6 6,6 4,0 8,0 13,0 3,0 6,-3 6,-6zm108 -51c4,0 8,0 13,0 3,0 6,3 6,6 0,4 0,8 0,13 0,4 -3,6 -6,6 -4,0 -8,0 -13,0 -3,0 -6,-3 -6,-6 0,-4 0,-8 0,-13 0,-3 3,-6 6,-6zm-95 25c4,0 8,0 13,0 4,0 6,-3 6,-6 0,-4 0,-8 0,-13 0,-3 -3,-6 -6,-6 -4,0 -8,0 -13,0 -3,0 -6,3 -6,6 0,4 0,8 0,13 0,4 3,6 6,6zm76 0c-4,0 -8,0 -13,0 -3,0 -6,-3 -6,-6 0,-4 0,-8 0,-13 0,-3 3,-6 6,-6 4,0 8,0 13,0 3,0 6,3 6,6 0,4 0,8 0,13 0,4 -3,6 -6,6zm-175 -37c4,6 12,7 18,3 40,-29 79,-57 119,-86 40,29 79,57 119,86 6,4 14,3 18,-3 4,-6 3,-14 -3,-18 -42,-30 -84,-61 -127,-91 -4,-3 -10,-3 -15,0 -42,30 -84,61 -127,91 -6,4 -7,12 -3,18zm238 -51c-8,-6 -17,-12 -25,-18 0,-8 0,-17 0,-25 0,-4 3,-6 6,-6 4,0 8,0 13,0 4,0 6,3 6,6 0,14 0,29 0,43zm-220 63c2,-1 3,-1 5,-2 38,-28 76,-55 115,-83 38,28 76,55 115,83 1,1 3,2 5,2 0,30 0,59 0,89l-238 0c0,-30 0,-59 0,-89z"/>
  </g>
 </g>
</svg>
