<?xml version="1.0" encoding="UTF-8"?>
<!DOCTYPE svg PUBLIC "-//W3C//DTD SVG 1.1//EN" "http://www.w3.org/Graphics/SVG/1.1/DTD/svg11.dtd">
<!-- Creator: CorelDRAW 2020 (64-Bit) -->
<svg xmlns="http://www.w3.org/2000/svg" xml:space="preserve" width="36px" height="36px" version="1.1" style="shape-rendering:geometricPrecision; text-rendering:geometricPrecision; image-rendering:optimizeQuality; fill-rule:evenodd; clip-rule:evenodd"
viewBox="0 0 360 360"
 xmlns:xlink="http://www.w3.org/1999/xlink"
 xmlns:xodm="http://www.corel.com/coreldraw/odm/2003">
 <defs>
  <style type="text/css">
   <![CDATA[
    .fil0 {fill:none}
    .fil1 {fill:#AB0534}
   ]]>
  </style>
 </defs>
 <g id="Default">
  <metadata id="CorelCorpID_0Corel-Layer"/>
  <g id="_1676820327072">
   <polygon class="fil0" points="0,0 360,0 360,360 0,360 "/>
   <path class="fil1" d="M180 330c83,0 150,-67 150,-150 0,-83 -67,-150 -150,-150 -83,0 -150,67 -150,150 0,83 67,150 150,150zm-7 -101c6,0 10,-5 10,-11l0 -3c0,-9 4,-15 20,-30 20,-18 27,-30 27,-46 0,-27 -22,-48 -50,-48 -23,0 -41,12 -49,33 -1,1 -1,3 -1,6 0,5 4,10 10,10 4,0 8,-3 10,-7 5,-13 16,-21 29,-21 16,0 28,12 28,29 0,12 -4,18 -22,35 -17,16 -23,26 -23,39l0 4c0,6 5,11 11,11zm1 39c7,0 13,-6 13,-13 0,-7 -6,-13 -13,-13 -7,0 -13,6 -13,13 0,7 6,13 13,13zm7 41c71,0 129,-58 129,-129 0,-71 -58,-129 -129,-129 -71,0 -129,58 -129,129 0,71 58,129 129,129z"/>
  </g>
 </g>
</svg>
