<?xml version="1.0" encoding="UTF-8"?>
<!DOCTYPE svg PUBLIC "-//W3C//DTD SVG 1.1//EN" "http://www.w3.org/Graphics/SVG/1.1/DTD/svg11.dtd">
<!-- Creator: CorelDRAW 2020 (64-Bit) -->
<svg xmlns="http://www.w3.org/2000/svg" xml:space="preserve" width="36px" height="36px" version="1.1" style="shape-rendering:geometricPrecision; text-rendering:geometricPrecision; image-rendering:optimizeQuality; fill-rule:evenodd; clip-rule:evenodd"
viewBox="0 0 360 360"
 xmlns:xlink="http://www.w3.org/1999/xlink"
 xmlns:xodm="http://www.corel.com/coreldraw/odm/2003">
 <defs>
  <style type="text/css">
   <![CDATA[
    .fil0 {fill:none}
    .fil1 {fill:white}
   ]]>
  </style>
 </defs>
 <g id="Default">
  <metadata id="CorelCorpID_0Corel-Layer"/>
  <g id="_2850343609920">
   <polygon class="fil0" points="0,0 360,0 360,360 0,360 "/>
   <path class="fil1" d="M122 204c-14,8 -19,26 -11,40 8,14 26,19 40,11 14,-8 19,-26 11,-40 -8,-14 -26,-19 -40,-11zm171 -124l-8 -29c-1,-3 1,-6 4,-7 3,-1 6,1 7,4l15 57c0,1 0,2 0,3 0,0 0,1 0,1 0,1 -1,2 -2,2 0,0 0,0 -1,0 -1,1 -3,1 -5,0l-51 -26c-3,-1 -4,-5 -2,-7 1,-3 5,-4 7,-2l32 17c-26,-33 -66,-53 -110,-53 -50,0 -96,27 -121,70 -1,3 -5,3 -7,2 -3,-1 -3,-5 -2,-7 27,-47 77,-75 131,-75 44,0 85,19 113,51zm-226 200l8 29c1,3 -1,6 -4,7 -3,1 -6,-1 -7,-4l-15 -57c0,-1 0,-2 0,-3 0,0 0,-1 0,-1 0,-1 1,-2 2,-2 0,0 0,0 1,0 1,-1 3,-1 5,0l51 26c3,1 4,5 2,7 -1,3 -5,4 -7,2l-32 -17c26,33 66,53 110,53 50,0 96,-27 121,-70 1,-3 5,-3 7,-2 3,1 3,5 2,7 -27,47 -77,75 -131,75 -44,0 -85,-19 -113,-51zm32 -180l50 13c0,7 1,15 5,21 10,18 34,24 52,14 7,-4 12,-10 15,-16l70 19c5,1 8,6 6,11l-24 91c-1,5 -6,8 -11,6l-87 -23c2,-9 0,-18 -4,-26 -10,-18 -34,-24 -52,-14 -8,5 -14,12 -17,20l-31 -8c-5,-1 -8,-6 -6,-11l24 -91c1,-5 6,-8 11,-6zm141 47l-24 91 48 13 24 -91 -48 -13zm-68 -56c-14,8 -19,26 -11,40 8,14 26,19 40,11 14,-8 19,-26 11,-40 -8,-14 -26,-19 -40,-11zm64 172c-3,9 -9,17 -17,22 -18,10 -41,4 -52,-14 -2,-4 -4,-8 -5,-12 4,-4 7,-8 10,-13l64 17z"/>
  </g>
 </g>
</svg>
