<?xml version="1.0" encoding="UTF-8"?>
<!DOCTYPE svg PUBLIC "-//W3C//DTD SVG 1.1//EN" "http://www.w3.org/Graphics/SVG/1.1/DTD/svg11.dtd">
<!-- Creator: CorelDRAW 2020 (64-Bit) -->
<svg xmlns="http://www.w3.org/2000/svg" xml:space="preserve" width="36px" height="36px" version="1.1" style="shape-rendering:geometricPrecision; text-rendering:geometricPrecision; image-rendering:optimizeQuality; fill-rule:evenodd; clip-rule:evenodd"
viewBox="0 0 360 360"
 xmlns:xlink="http://www.w3.org/1999/xlink"
 xmlns:xodm="http://www.corel.com/coreldraw/odm/2003">
 <defs>
  <style type="text/css">
   <![CDATA[
    .fil0 {fill:none}
    .fil1 {fill:#6FC7B6}
   ]]>
  </style>
 </defs>
 <g id="Default">
  <metadata id="CorelCorpID_0Corel-Layer"/>
  <g id="_1679138691088">
   <rect class="fil0" width="360" height="360"/>
   <path class="fil1" d="M333 142c-2,-1 -2,1 -4,-1 -5,-5 -2,0 -8,-2 -1,0 -1,0 -2,-1 0,-1 1,-2 0,-2 -1,0 -1,2 -4,0 -2,-1 -2,-1 -4,-1 -1,0 -3,-1 -3,-2 0,-1 0,-3 0,-4 -1,-1 -2,-1 -2,-3 0,-2 0,-2 -2,-3 -3,-1 -4,-3 -7,-3 -2,0 -2,0 -2,2l0 0c-1,-3 -2,0 -3,-3 0,-1 0,-1 -1,-1 -2,0 -2,1 -3,-1 -2,-3 -3,0 -4,0 -2,0 -2,-1 -3,1 -1,0 -1,0 -1,0 -1,0 -1,2 -3,1 -1,0 -1,-1 -2,-1 -1,0 -3,1 -3,-1 -1,0 -1,0 -2,0 -3,-4 -4,2 -6,3 -2,-1 -1,-2 -3,-2 -1,0 -1,1 -2,1 -3,1 -2,1 -1,3 1,1 1,1 1,2 -3,0 -3,0 -4,2 -1,1 -2,3 -3,3 -3,0 -2,-1 -4,-2 -1,-1 -2,0 -4,0 -1,0 0,-1 -1,-2 -1,-1 -1,0 -2,-1 -1,-1 -1,-4 -3,-4 -2,0 -2,1 -3,1 -1,0 -1,0 -2,0 -2,0 -1,2 -3,2 -1,0 -2,-1 -3,-1 -1,0 -1,0 -2,-1 -1,0 0,0 -1,-1 0,0 0,0 -1,0 0,1 0,1 -1,2 -1,0 -1,0 -2,0 0,-1 0,-1 0,-1 -3,1 -2,-2 -3,3 0,2 0,2 -2,2 -1,0 -1,0 -1,0 -1,1 -1,0 -3,0 -1,0 -1,2 -2,3 -3,-2 -1,0 -3,3 -3,5 -1,8 -3,8 -1,0 -3,-2 -3,-2 -3,-4 -5,-1 -6,0 -3,2 -3,1 -6,1 -2,-3 0,-2 1,-4 2,-3 2,-2 0,-4 1,-3 0,-1 0,-3 0,-1 1,-6 -1,-6 -2,0 -1,3 -5,1 -1,-1 -1,0 -2,0 0,-1 0,0 0,-1 0,-4 -1,-2 -3,-3 -1,-1 -1,-2 -1,-3 -1,-2 -1,-4 -1,-6 0,-1 -1,-1 -1,-2 -3,-1 -1,-2 -4,-3 0,1 0,1 -1,1l-1 0c-1,1 0,0 0,1 0,1 -1,1 -1,1 -1,0 0,1 -1,1 0,1 0,2 -2,2 -3,0 -3,-2 -6,1 -1,1 -1,3 -1,5 -2,1 -2,1 -2,4 -2,0 -2,0 -2,0 -2,0 -4,-1 -4,-1 -2,0 -2,3 -5,1 0,-1 0,-1 0,-2 0,-2 0,-2 0,-4 0,-1 0,-1 0,-2 0,-2 -3,-1 -7,-2 -5,-1 -5,3 -6,3 -1,0 -1,-1 -2,-1 -1,0 -1,0 -1,0 -1,0 0,-1 -1,-1 -1,0 -1,1 -2,1 -1,0 -2,-1 -4,0 -1,1 0,2 -1,3 -2,2 -5,4 -7,7 -1,2 -2,4 -4,5 -2,1 -4,1 -7,2 -3,1 -6,8 -6,12 0,1 0,3 0,5 0,2 -2,2 -3,3 0,0 0,0 0,1 0,0 -1,1 -1,1 -2,1 -6,-2 -8,3 -1,2 -1,3 -1,6 -2,-1 -5,0 -6,1 -1,1 -1,3 -3,4 -2,1 -9,3 -10,3 -3,0 -2,-3 -4,-3 -2,0 -2,3 -4,2 -1,0 -1,-1 -2,-1 -4,-2 -7,-3 -11,-1 -1,0 -1,1 -1,1 -1,0 -1,1 -1,1 0,4 -1,1 -3,4 -3,3 -3,10 -6,12 -3,3 0,4 0,7 0,1 -3,1 -2,3 -2,0 -1,1 -3,2 -1,1 -2,1 -2,3 0,3 1,2 0,5 -1,2 0,3 1,3 2,1 1,1 2,4 0,2 2,3 2,2l1 9c1,0 2,0 2,2 0,0 0,1 1,1 1,1 0,0 1,0 1,0 0,0 1,1 3,3 1,4 1,4 0,1 1,1 0,1 0,2 1,0 1,3 1,0 1,0 2,0 1,0 1,1 2,2 1,0 2,0 4,0 2,0 2,1 2,2 1,0 2,0 3,1 1,1 1,1 2,2 1,2 3,0 4,4 1,2 1,3 3,4 4,2 2,2 3,4l2 0c1,0 1,4 6,5 2,1 2,2 5,2 2,0 5,0 7,-1 4,-1 2,-1 5,0 2,0 5,0 7,0 2,1 6,2 9,2 3,0 4,-1 6,-1 1,0 2,0 3,0 1,0 2,1 3,1 1,0 2,-1 3,-1 2,0 3,0 4,0 5,0 4,-5 8,-5 1,0 4,1 4,0 0,-1 -1,-1 -1,-3 -1,0 -1,0 -1,0 -1,-1 0,-1 -1,-2 -2,-1 -1,-4 -1,-6 0,-1 0,-1 0,-2 0,-1 2,-1 3,-1 1,-1 1,-2 1,-3 1,-3 2,-2 4,-2 3,-1 4,0 5,0 1,0 0,0 1,-1 1,0 1,0 2,0 0,0 0,-1 1,-1 1,0 2,1 2,1 1,0 2,-1 2,-1 2,0 3,1 4,1 1,0 1,0 2,0 1,0 1,0 2,0 2,-2 1,-2 5,-2 2,0 5,0 7,0 1,-2 1,-2 1,-4 1,-3 1,0 1,-3 0,-1 0,0 1,0 0,-1 0,-1 0,-2 0,-1 1,-1 3,-1 1,0 3,-1 4,-1 1,0 2,0 2,2 1,0 4,-1 5,0 1,1 -1,4 1,4 2,0 3,-2 5,0 2,3 2,3 4,-1 2,-3 4,0 6,-2 1,-1 4,-1 4,-2 0,-2 -1,-2 0,-3 1,0 1,0 2,0 2,0 1,-1 3,-2 1,1 0,0 1,1 1,2 3,0 4,-1 0,0 1,-1 1,-1 2,-3 1,-3 2,-5 1,-1 1,-2 1,-4 0,-4 5,-5 5,-10 0,-4 1,-3 3,-3 1,0 1,0 2,0 1,0 2,-1 3,-1 2,-1 5,-1 7,-1 2,0 3,-2 4,0 0,0 1,1 1,1 3,0 3,-1 4,2 1,2 4,1 6,1 4,0 4,3 6,3 1,0 1,-1 2,-2 1,-1 2,0 3,-1 1,0 1,-1 2,0 0,0 1,1 2,1 1,-1 0,-2 1,-3 1,-1 1,-1 3,-1 3,0 3,-2 5,-2 1,0 1,1 1,1 1,0 1,0 2,1 1,1 1,2 2,3 1,1 3,0 4,1 1,1 0,3 0,4 0,1 1,1 1,2 0,1 1,1 1,2 4,7 3,4 5,5 1,0 1,1 2,1l3 0c0,-1 0,-1 1,-2 1,0 2,0 3,0 1,0 1,-1 1,-1 1,-1 2,0 4,0 1,0 2,-1 3,-1 1,0 2,0 3,0 1,0 3,-3 3,-4l0 -4c0,-2 1,-2 1,-3 0,-3 -2,-5 1,-7 4,-3 3,-5 6,-6 2,-1 3,-3 3,-5 0,-1 0,-3 0,-4 0,-1 1,-1 1,-2 0,-2 -1,-3 -1,-4 0,-2 2,-3 3,-4 1,-1 0,-1 1,-3 0,-1 1,0 1,-2 1,-3 -1,-3 3,-4 1,0 1,0 2,-1 1,-4 0,-2 0,-4 0,-1 0,-1 0,-2 -4,-1 -2,0 -4,0 0,-1 0,0 -1,-1z"/>
  </g>
 </g>
</svg>
