<?xml version="1.0" encoding="UTF-8"?>
<!DOCTYPE svg PUBLIC "-//W3C//DTD SVG 1.1//EN" "http://www.w3.org/Graphics/SVG/1.1/DTD/svg11.dtd">
<!-- Creator: CorelDRAW 2020 (64-Bit) -->
<svg xmlns="http://www.w3.org/2000/svg" xml:space="preserve" width="36px" height="36px" version="1.1" style="shape-rendering:geometricPrecision; text-rendering:geometricPrecision; image-rendering:optimizeQuality; fill-rule:evenodd; clip-rule:evenodd"
viewBox="0 0 360 360"
 xmlns:xlink="http://www.w3.org/1999/xlink"
 xmlns:xodm="http://www.corel.com/coreldraw/odm/2003">
 <defs>
  <style type="text/css">
   <![CDATA[
    .fil0 {fill:none}
    .fil1 {fill:#AB0534}
   ]]>
  </style>
 </defs>
 <g id="Default">
  <metadata id="CorelCorpID_0Corel-Layer"/>
  <g id="_1676824652944">
   <rect class="fil0" width="360" height="360"/>
   <g>
    <path class="fil1" d="M186 135c0,0 0,0 0,0 0,-1 0,-1 1,-1 3,-8 1,-3 1,-7 0,-2 1,-3 2,-4 3,-2 1,-3 4,-4 0,4 -4,3 -3,7 4,2 3,1 3,5l0 -1c0,0 0,-1 -1,-1l-1 3c0,0 -1,2 -1,2 -1,1 -3,1 -5,1l1 -1zm68 -35c-2,1 -4,1 -6,2 -2,1 -1,1 -2,2 -2,2 -1,0 -3,1 0,2 1,2 2,3l-4 -2c-1,1 0,0 -1,1 0,1 0,1 0,1 -1,-1 0,-1 -1,-2 0,0 0,0 0,0 0,0 0,0 0,0 -3,2 -2,-2 -5,-1 -1,0 -1,2 -2,2 -2,2 -2,2 -5,2 -2,0 -1,-1 -3,0 1,2 1,0 2,2 -10,0 -5,0 -11,3 0,0 0,0 0,0l-1 -2c0,0 0,0 0,0l-2 0c0,0 0,0 0,0l-1 2c0,1 0,1 -2,2 -1,-2 1,-2 -4,-4 -1,0 -2,-1 -3,-1 -2,-1 -2,-1 -3,-2 -3,-3 -6,-1 -9,1 -6,3 -7,8 -9,9l-1 0c0,0 0,0 0,0 -2,1 -5,5 -4,7 1,4 -1,4 3,5 1,0 0,0 1,0 -3,2 -1,1 -1,4 -4,1 -4,2 -7,5 -2,2 -3,2 -6,3 -2,1 -1,0 -2,2 1,0 1,0 2,0l3 4 -1 2c-2,0 -1,-1 -3,0 -2,0 -2,0 -4,0 0,2 0,3 -1,5 0,1 0,3 0,4 4,0 8,2 10,-3 0,-2 0,-1 1,-2l1 -2c1,-1 1,-1 1,-1 2,0 1,1 3,0 2,0 0,0 2,-1 -1,2 -1,1 -1,3 0,2 0,2 1,4 2,-1 2,-1 1,-2 0,-1 0,-3 -1,-3 2,3 5,3 6,5 -1,1 -1,0 -2,1 1,1 1,1 2,2 1,-1 1,-2 3,-3l-1 -2c2,1 3,-2 4,5l2 1c1,1 0,0 1,1 3,1 1,0 2,0 -1,-1 0,-1 -2,-1 1,-2 0,-1 0,-3 0,-1 0,-1 0,-2 0,-1 0,-1 1,-1 1,1 0,2 1,4 0,0 1,1 1,1 1,1 2,1 3,1 3,0 0,0 3,-1 1,1 0,2 1,2 2,-1 0,-1 2,-2 1,2 0,5 -1,6 -2,0 -6,-1 -8,-1 -4,-1 -5,-1 -6,2 -2,0 -4,-2 -6,-3 -1,0 -1,0 -1,-1 -2,-1 -1,-3 -1,-5 -3,0 -5,1 -9,1 -3,0 -2,0 -5,1 -3,1 -2,0 -4,0 -1,2 -1,1 -2,2 -3,2 -1,5 -5,9 -3,3 -1,2 -3,6 -1,3 -1,5 -1,8 0,1 0,3 0,4 0,2 1,1 2,3 1,2 1,4 4,5 2,1 3,3 6,2 1,0 3,0 4,0 2,0 1,-2 3,-2 2,1 0,0 1,1 0,0 2,1 2,1 4,1 1,0 5,0 0,1 0,3 0,4 0,2 -1,3 0,5 0,1 0,0 1,1 2,3 1,5 2,8 1,3 1,2 0,5 -2,8 0,5 2,10 1,3 1,3 1,6l4 10c2,0 9,-3 10,-4 1,-1 1,-1 1,-2 2,-4 2,0 4,-7 4,-2 2,0 3,-5 1,-3 2,-3 4,-5 3,-3 0,-12 1,-14 3,-8 3,-4 7,-10 2,-3 6,-7 4,-11 -2,-1 -3,1 -8,1 -1,-1 -1,-3 -2,-4 -1,-1 -1,-1 -2,-1 -1,-1 0,-1 -1,-2 -1,-1 -1,-1 -1,-2 -1,-1 0,-1 -1,-2 0,-1 -1,-1 -2,-2 0,0 0,-2 0,-3 1,2 2,4 4,7 3,3 2,5 4,7 2,0 2,-1 3,-1 4,-2 5,-3 7,-4 2,-1 4,-3 5,-6l-3 -4c-2,0 -2,0 -3,1 -1,-1 -1,-2 -2,-3l-2 -2c0,-1 0,0 -1,-1 3,-2 3,1 4,3 2,3 2,0 5,4 5,-2 6,-1 10,1 0,1 -2,2 2,2 1,6 4,8 5,11 1,1 0,2 1,3 1,1 2,1 3,0 1,-2 1,-5 1,-7l5 -5c2,-2 3,-3 6,-4l1 1c1,1 0,1 2,2 -1,4 -1,3 4,3 0,6 1,2 2,5 1,3 -3,5 6,11 1,1 0,0 1,1 0,-7 -7,-7 -5,-13 2,1 1,2 3,3l1 0c0,0 0,0 0,0l1 2c4,-3 4,-3 4,-10 -2,-1 -3,-2 -3,-4l3 1c0,0 0,0 0,0 0,0 0,0 0,0l2 -1c4,-1 3,0 6,-5 0,-1 1,-1 1,-1 5,-8 -1,-10 -1,-12 1,-2 1,-2 2,-3 0,-1 -1,-1 0,-2 4,2 2,7 5,6 3,-1 -1,-7 2,-10 1,-2 2,0 5,-5 1,-1 1,-1 1,-2 2,-4 -1,-9 1,-10l1 5c0,2 0,4 2,5 1,-2 0,0 0,-2 1,-2 0,0 1,-1l-3 -4c-1,-2 0,-3 -2,-5 -2,1 0,1 -1,1 -1,0 -1,0 -2,0 -1,0 -1,1 -2,1 -1,0 0,0 -1,0 -1,-1 0,0 -1,-1 1,-2 2,-2 2,-4 1,-3 5,-2 8,-2 0,0 0,0 1,0 3,1 2,0 6,0 0,-2 -1,-4 2,-4 1,0 1,-1 3,-1 0,1 0,0 0,1 0,0 0,0 0,0l0 1c-5,8 -3,6 0,14 3,-1 3,-5 4,-8 0,-1 0,0 1,-1 -1,-1 -3,-2 -1,-4 1,-1 4,-1 6,-1 1,-3 2,-3 5,-4 0,0 1,0 1,0 0,0 0,0 0,0 0,0 0,0 0,0l-2 -3 2 -2c3,1 2,0 3,2l2 0c-1,-3 1,-2 0,-4l-1 -1c-1,-1 -2,-1 -2,0 0,-3 0,-2 -2,-3 -3,-2 -1,-1 -5,-1 -3,0 -4,-3 -10,-2 0,2 0,2 0,2l-2 -2c-11,2 -6,-3 -10,-2 -3,0 0,0 -2,1 -3,-2 -3,-1 -6,-2l-2 -1c-1,-1 0,-1 -2,-1l-1 0c0,0 0,0 0,0l-1 0c-1,0 -1,0 -2,0l0 1c0,0 0,0 0,0 0,0 0,0 0,0l-10 0c-2,0 -1,0 -3,-1 -2,-1 -1,0 -3,0 -3,0 -4,-2 -9,-2 1,-4 1,-3 -1,-6 -1,0 -3,1 -5,0 -3,-1 0,-2 -4,-2 -1,2 -2,4 -4,4 -2,0 0,0 -2,-1z"/>
    <path class="fil1" d="M84 98c-2,0 -4,2 -6,2 -1,-2 0,-2 -1,-3 -1,0 -2,0 -2,1 0,1 1,2 1,1 0,0 0,0 0,0 -1,0 -2,0 -3,0 -5,-1 -2,-1 -4,1l-1 1c0,0 0,0 0,0l1 1c-3,1 -2,-1 -4,-1 -1,0 -2,0 -3,0 -2,0 -2,0 -3,2 -1,3 -4,1 -1,6 2,0 3,-1 4,-2 1,2 -1,2 3,2 -1,1 -1,0 -2,1 2,2 1,0 2,1 2,1 1,-1 1,2 2,-1 4,0 6,-1 -1,2 0,2 -1,3 -1,0 -2,-2 -11,-3 -3,0 -1,-1 -3,-2 -1,0 -1,1 -2,2 0,0 0,0 0,0l-1 -2c-2,0 -2,1 -4,2 -2,0 -1,0 -3,0 -3,0 2,0 -1,0l-1 0c0,0 0,0 0,0 -3,0 -5,-1 -8,-1 -2,0 -4,0 -5,0 -2,-1 -1,-1 -4,-1 -2,1 -8,1 -9,2 1,3 3,2 4,3l-2 1c0,0 0,0 0,0 -2,-1 -2,-1 -4,0 -2,1 -3,1 -5,2l2 1c2,1 1,1 2,3l4 0c0,0 0,0 1,0l1 0c0,0 0,0 0,0 -2,2 -4,2 -7,2 -3,1 -4,2 -4,5 2,3 1,-1 1,4 2,0 1,-1 2,1l1 2c1,0 1,-1 2,-1 1,-1 2,0 2,1 -2,2 -3,4 -5,5 -2,1 -5,2 -6,5 2,0 2,0 4,0l5 -2c1,-1 1,-1 2,-2 1,-2 6,-5 8,-6l-2 4c4,0 5,-2 8,-2 0,-2 0,-3 -1,-5 2,0 3,-1 5,0 1,1 1,2 3,2 2,1 2,1 3,2 1,2 1,2 2,4 1,0 1,-1 1,-2 0,4 1,7 1,11l0 2c-1,5 -1,7 0,12 0,2 1,2 2,4 1,1 1,2 2,3 0,1 1,1 1,3 1,2 0,2 1,3 2,2 1,4 5,4 0,-1 -1,-3 -1,-5 0,0 3,4 4,4 1,1 1,1 1,3 1,8 10,7 12,7 2,1 0,2 3,3 2,1 2,0 4,2 1,1 0,0 1,1l2 2c1,1 2,1 3,2 1,-1 0,-1 2,-2 0,1 1,3 1,4 0,4 -3,5 -2,9l0 3c1,1 2,1 3,2 -1,0 -1,1 -2,1 0,3 1,5 4,5 0,2 -1,0 0,2 0,0 1,1 1,2 1,1 2,2 3,3 1,1 2,2 2,4 1,3 0,2 0,4 0,2 0,0 0,2 0,1 0,1 0,2 0,1 1,3 0,5 -1,4 -2,5 -2,9 1,0 1,0 2,0 0,4 0,2 -2,4l0 1c1,2 0,7 1,12 1,4 5,9 10,6l-1 -1c-1,-1 0,0 -1,-1 -4,-4 1,-6 1,-8 0,-3 0,-1 -1,-2l0 -2c0,0 1,-4 1,-4l-2 -2c3,0 3,0 3,-3 2,0 3,-1 5,-2 0,-2 0,-2 -1,-4 3,0 3,0 5,-2l1 -1c0,0 0,0 0,0l2 -3c1,-2 0,-3 2,-5 1,-2 3,-1 5,-2 1,-1 2,-5 2,-6 0,-2 -1,-1 0,-3 1,-3 3,-4 4,-7 1,-3 1,-4 0,-6 -2,-1 0,1 -3,-1 -2,-1 -1,-1 -4,-1 -2,0 -6,-2 -8,-3 0,-6 -1,-7 -6,-6 -1,-1 -1,-1 -1,-2 -2,-2 -2,-3 -5,-4 -3,-2 -2,0 -4,-1l-3 -3c-2,1 0,1 -2,1 -1,-1 0,-1 -2,-1 -2,1 -5,3 -5,5 -2,-3 0,-3 -5,-1 -1,-3 0,-3 0,-7 -3,-2 -1,-1 -5,-1 1,-2 2,-3 1,-6l-3 0c-2,0 -2,2 -2,3 -5,0 -4,-4 -3,-7 0,-2 0,-1 0,-3 4,-3 5,-2 9,-1 0,0 0,0 0,0l0 -1c1,-1 4,0 5,0 0,1 0,2 1,3 0,0 1,1 1,1 1,0 0,0 1,1 1,-3 -1,-5 -1,-7 0,-2 2,-4 4,-4 2,-1 2,-1 2,-3l2 -1c0,-2 0,-1 1,-3 0,0 0,0 0,0 1,-2 2,-3 5,-3 0,-2 0,-1 -1,-2 2,-2 3,-2 6,-3 1,2 -1,0 0,2 1,-1 3,-2 4,-3 -2,-1 -2,0 -3,-2 0,-2 1,-2 2,-2l0 -2c4,0 3,-1 6,-2 -1,3 -3,4 -4,6l3 -1c1,2 0,2 4,2 0,-2 0,-3 -2,-5l0 -6c-2,-2 -1,1 -4,-3 -1,-2 1,-4 -3,-7l-1 2 -3 0 0 -4c0,0 -1,0 -1,0 -1,0 -1,-1 -3,-1 -2,-1 -1,-1 -4,0 0,2 0,4 0,5 -1,3 0,2 0,4 -1,0 -1,-1 -2,0 1,2 0,1 2,1 -2,2 -2,1 -2,5 -1,-1 -1,1 -2,-2 -1,-3 0,-3 -3,-3 0,0 -1,0 -1,0 -2,-1 -2,-2 -5,-2l-1 -4c1,-1 4,-4 4,-5 3,-4 4,-1 3,-4l6 -2c0,-1 1,-4 1,-5 -1,-1 -2,-1 -2,-1 0,0 0,0 0,0l3 0c2,1 5,0 6,4 -1,3 -3,2 -5,4 -2,2 2,2 3,2 3,1 5,4 8,5 0,-1 0,-1 0,-2l1 -2c0,-2 -1,-2 -1,-4l3 2 2 -3c-1,-2 -2,-3 -5,-3 0,-2 1,-1 0,-3 0,-1 -1,-2 -2,-2 -1,0 -2,0 -3,0 -2,-1 -1,-3 -6,-2l-1 -2c-2,0 -2,-1 -3,1l0 -1c-2,-3 1,2 0,-1 0,-1 0,-1 -1,-1 -2,0 -3,1 -4,3 -1,2 -1,3 0,5l3 1c-1,1 -1,1 -1,2 -1,1 0,1 -1,1 0,-1 1,0 1,-3 -3,-2 -4,-5 -7,-5 -1,4 0,1 0,4 0,1 0,2 -1,3l-1 -2c0,0 0,0 0,0 0,0 0,0 0,0 -5,2 -2,3 -8,0 1,-1 2,0 3,0 3,0 0,-1 1,-2l5 -3c0,-1 -1,-3 -1,-4 -2,0 -5,0 -6,0 -2,1 -4,2 -4,2 0,0 0,0 0,0 -1,-3 -2,0 -3,-2l5 -1c3,-1 4,-2 5,-1 0,0 0,0 0,0 0,0 0,0 1,0 3,1 3,-2 2,-4z"/>
    <path class="fil1" d="M132 88c-2,0 -8,-1 -10,0 -1,0 -1,0 -2,1l-6 3c1,2 1,-1 1,2 -1,0 -1,0 -2,0 -2,1 0,0 -2,1 -2,1 -2,0 -4,1 0,1 -1,1 1,1 1,1 0,0 2,0l3 0c1,0 0,0 1,0 -2,1 -4,0 -6,1 1,1 2,2 4,2 4,-1 -1,0 7,1 0,4 1,3 1,4 0,1 -1,2 -1,3 4,0 0,-1 3,-1 0,2 0,1 -1,1 -1,1 0,0 -1,0l-1 0c2,2 2,1 3,3 0,0 -4,2 -3,4 1,2 2,1 2,5 0,3 0,3 1,5 6,0 3,1 5,2l3 -7c1,-3 1,-3 4,-3 3,0 6,-3 9,-4 2,-1 2,-1 3,-3 -1,0 0,0 -1,0l-2 -1c0,0 0,0 0,0l-1 0c0,0 0,0 0,0 2,-2 3,0 5,1 3,1 1,-2 0,-2 1,0 1,1 2,1 0,-2 0,-1 -1,-3 4,0 2,-4 2,-7 1,0 1,0 2,0 1,0 0,0 1,-1 -1,-1 -2,-2 -3,-2 3,-3 2,0 2,-4 2,-1 0,-1 2,-1 2,0 2,0 3,-1 0,-2 0,-1 -1,-2 0,0 -2,-1 -2,-1 -1,0 -2,0 -3,0 0,0 -1,0 -1,0 -1,0 0,0 -1,0 3,-2 3,0 4,-3 -2,-2 -6,-2 -10,-2 -6,0 -7,0 -11,0 -4,0 -4,1 -3,4z"/>
    <path class="fil1" d="M296 246c1,-1 3,-1 5,-1 3,0 1,2 5,4 1,1 0,1 2,0l0 3c0,0 1,1 2,1 2,1 1,0 3,0 3,0 5,1 9,-5l1 -2c4,-5 1,-10 1,-13 -1,0 -1,0 -2,0 0,-2 0,-5 -1,-6l-2 -3c-3,-5 -1,-3 -2,-5 -4,-1 -1,3 -2,5 -1,2 -1,1 -1,2l-4 -3c1,-3 1,0 2,-3 -1,0 -7,-1 -8,-1 -2,4 0,2 -4,3 -3,1 -1,4 -3,4 -3,0 -4,-1 -4,3l-2 -1c-3,8 -4,3 -5,6 -1,1 1,9 1,10 0,2 -1,4 1,4 2,1 2,-1 4,-1 1,0 2,0 3,0 2,0 1,0 2,-1z"/>
    <path class="fil1" d="M93 88c0,3 1,2 2,4 -2,0 -1,0 -2,-1 -1,-1 -1,-1 -2,-2 -1,1 -1,0 -2,1 -2,2 0,3 0,3 0,1 0,1 0,3l2 1c0,-1 0,-1 1,-1l0 -1c1,-2 2,-1 3,-2 0,2 1,0 -3,3 1,1 1,0 1,2 -1,0 -1,-1 -2,0 -1,1 -1,1 -1,2 1,1 2,0 3,0 1,0 2,1 3,1 -2,1 -5,-1 -8,0 1,3 8,3 10,3 2,-3 0,-1 3,-2l-1 -1c0,0 0,0 0,0 0,0 0,0 0,0 5,0 4,-3 6,-5l7 -3c0,-1 0,-1 0,-1l0 -1c0,0 0,0 0,0 3,0 5,0 5,-2 -1,-1 -1,-1 -3,-1l-9 0c-4,0 -5,0 -7,0 -2,0 -5,0 -7,1z"/>
    <path class="fil1" d="M320 215c2,1 1,2 4,2 -1,-5 -3,-5 -4,-5 -2,-2 0,-1 -2,-2 -1,-1 -1,0 -2,-1 -4,-4 -6,-1 -8,-1 -3,0 0,0 -2,0 -2,0 -2,1 -2,2 1,-2 6,2 8,3l0 3c5,-1 2,0 5,1 3,-2 1,-2 3,-2z"/>
    <path class="fil1" d="M292 199c0,-1 -2,-1 -4,-1 -2,3 1,1 -6,5 -1,1 -2,2 -1,4 1,2 2,3 3,3 2,1 4,2 5,1 1,-1 0,0 0,-1 0,-2 1,-2 1,-6 0,-2 0,-1 1,-2 0,-1 1,0 0,-2z"/>
    <path class="fil1" d="M180 94c0,1 -1,2 0,3 2,-1 1,-1 4,-1 -1,2 -3,3 -2,4 1,1 1,0 2,1 1,1 0,1 3,1l1 -5c2,1 0,3 5,2 0,-4 -4,-5 -8,-6 1,-2 1,-2 -2,-2l-1 2c0,0 0,0 0,0 0,0 0,0 0,0 0,-2 -1,-2 -3,-2 0,1 -3,3 1,4z"/>
    <path class="fil1" d="M218 237c3,-8 2,-7 4,-14 -2,-3 -1,-1 -1,-3 -2,1 -1,1 -2,3 -1,3 -4,1 -4,5 0,2 1,0 0,3 0,1 -1,1 -1,2 0,2 0,4 1,5 2,0 2,0 4,0z"/>
    <path class="fil1" d="M166 129l-1 5 1 1c1,1 2,0 0,2 -1,1 -3,2 -1,4 -1,0 -1,0 -1,1 -1,1 -1,0 -1,1 0,0 7,0 7,-1l0 -1c0,-3 0,-1 1,-3 -2,-2 -1,0 -2,-3l-2 -5c-1,-1 0,0 0,-2l-3 1z"/>
    <path class="fil1" d="M301 165c1,1 0,0 2,1l-2 0c0,1 1,2 2,2 1,-2 -1,-1 2,-2 2,-1 1,0 3,-1 2,-1 4,-2 5,-3l-1 -7c-1,-2 0,-1 -1,-2 -1,0 -1,-1 -1,4 0,1 1,0 0,2 -1,2 0,1 -1,1 -2,1 -1,1 -3,2 0,0 -1,0 -2,1 -2,1 -1,0 -2,2z"/>
    <path class="fil1" d="M185 135c2,0 4,1 5,-1 0,0 1,-2 1,-2l1 -3c2,0 1,1 1,1l0 1c0,-4 1,-4 -3,-5 0,-5 3,-3 3,-7 -3,1 -1,2 -4,4 -1,1 -2,2 -2,4 0,4 2,-1 -1,7 0,1 0,1 -1,1 0,0 0,0 0,0l-1 1z"/>
    <path class="fil1" d="M216 109c3,3 4,3 6,1 -1,-2 -2,-2 -2,-5 1,-1 1,-1 3,-1 2,-1 1,-1 2,-2 3,-2 4,1 6,-3 -2,-1 -2,0 -5,1 -5,1 -6,1 -8,5 -1,2 -2,3 -2,4z"/>
    <path class="fil1" d="M271 199c0,0 0,0 0,0l0 0c0,0 0,0 0,0l-2 0c3,7 4,3 5,7 1,4 -1,1 2,4 2,2 1,2 3,1 0,-1 0,-3 -1,-4 0,0 -1,-1 -1,-2 -1,-1 -2,-1 -6,-6 0,0 0,0 0,0z"/>
    <path class="fil1" d="M148 118c0,0 0,0 1,0 1,0 0,0 1,0 -1,1 -1,1 -1,2l2 2c3,-1 3,1 5,-1 3,-2 1,-2 0,-5 -1,0 -3,0 -4,0 -2,0 -1,0 -3,-1l-2 2z"/>
    <path class="fil1" d="M332 264c4,-1 3,1 5,-1 1,-1 0,-1 1,-2l2 -1c3,-3 2,-1 3,-3 0,-2 -1,-3 -2,-3l-4 5c-1,1 0,0 -2,1 -1,1 -2,3 -3,4z"/>
    <path class="fil1" d="M344 256c2,-1 2,-2 4,-5 2,-2 1,1 1,-2 -2,-1 0,0 -3,0 -1,-2 0,-2 -2,-2l0 4c-1,1 -1,1 -2,2 0,0 1,0 1,0 1,0 1,0 1,1 0,0 0,1 0,1 0,1 0,0 0,1z"/>
    <path class="fil1" d="M297 206c1,0 0,0 1,0 -1,-2 -2,-2 -4,-2 -1,1 -1,3 -2,5l2 3c0,0 0,0 0,0l1 -2c1,1 1,2 2,2 0,-2 -1,-3 -2,-4l1 0z"/>
    <path class="fil1" d="M299 191c-1,0 -1,0 -2,1 0,0 0,0 1,0 0,0 1,0 1,0 0,2 -1,1 0,2l5 -2c-1,-1 -1,-1 -2,-2 -1,-1 0,-2 -2,-2l0 3z"/>
    <path class="fil1" d="M160 136l0 3c5,1 4,-2 4,-2 0,-1 0,-1 0,-2 -3,0 -1,0 -4,1z"/>
    <path class="fil1" d="M296 187c1,-1 1,-1 2,-3 0,-2 -1,-2 -2,-2 -3,1 -1,4 1,5z"/>
   </g>
  </g>
 </g>
</svg>
