<?xml version="1.0" encoding="UTF-8"?>
<!DOCTYPE svg PUBLIC "-//W3C//DTD SVG 1.1//EN" "http://www.w3.org/Graphics/SVG/1.1/DTD/svg11.dtd">
<!-- Creator: CorelDRAW 2020 (64-Bit) -->
<svg xmlns="http://www.w3.org/2000/svg" xml:space="preserve" width="36px" height="36px" version="1.1" style="shape-rendering:geometricPrecision; text-rendering:geometricPrecision; image-rendering:optimizeQuality; fill-rule:evenodd; clip-rule:evenodd"
viewBox="0 0 360 360"
 xmlns:xlink="http://www.w3.org/1999/xlink"
 xmlns:xodm="http://www.corel.com/coreldraw/odm/2003">
 <defs>
  <style type="text/css">
   <![CDATA[
    .fil0 {fill:none}
    .fil1 {fill:white}
   ]]>
  </style>
 </defs>
 <g id="Default">
  <metadata id="CorelCorpID_0Corel-Layer"/>
  <g id="_2888318216736">
   <rect class="fil0" width="360" height="360"/>
   <g>
    <path class="fil1" d="M343 194c-1,0 -1,0 -3,-1 -3,-3 -1,0 -4,-1 -1,0 0,0 -1,-1 0,0 0,-1 0,-1 -1,0 -1,1 -2,0 -1,-1 -1,0 -2,-1 -1,0 -1,-1 -2,-1 0,-1 0,-2 0,-3 0,-1 -1,0 -1,-2 0,-1 0,-1 -1,-2 -2,0 -2,-2 -4,-2 -1,0 -1,0 -1,1l0 0c0,-1 -1,0 -2,-2 0,0 0,-1 -1,-1 -1,0 -1,0 -2,-1 -1,-2 -2,0 -2,0 -1,0 -1,-1 -2,1 -1,0 0,0 -1,0 0,0 0,1 -2,0 0,0 -1,0 -1,-1 -1,0 -2,0 -2,-1 -1,0 -1,0 -1,0 -2,-2 -2,1 -4,2 -1,0 -1,-1 -2,-1 -1,0 -1,0 -1,0 -2,0 -1,1 0,2 0,0 0,1 0,1 -2,0 -2,0 -3,1 0,1 -1,2 -2,2 -2,0 -1,0 -2,-1 -1,-1 -1,0 -2,0 0,0 0,-1 -1,-1 -1,0 -1,0 -1,-1 0,-1 -1,-2 -2,-2 -1,0 -1,1 -2,1 -1,0 -1,0 -1,0 -1,0 -1,1 -2,1 0,0 -1,-1 -2,-1 0,0 -1,0 -1,0 0,0 0,0 0,0 0,0 0,0 0,0 0,1 0,1 0,1 -1,0 -1,0 -1,0 0,0 0,0 0,-1 -2,0 -1,-1 -2,2 0,1 0,1 -1,1 -1,0 0,0 -1,0 -1,0 -1,0 -2,0 -1,0 -1,1 -1,2 -2,-1 -1,0 -2,2 -2,3 -1,5 -2,5 -1,0 -2,-1 -2,-1 -2,-3 -3,-1 -4,0 -2,1 -2,0 -4,0 -1,-2 0,-1 1,-2 1,-2 1,-1 0,-3 1,-2 0,-1 0,-2 0,0 1,-3 -1,-3 -1,0 -1,2 -3,0 -1,0 -1,0 -1,0 0,-1 0,0 0,-1 0,-2 0,-1 -2,-2 -1,0 -1,-1 -1,-2 -1,-1 -1,-2 -1,-4 0,-1 0,-1 -1,-1 -2,-1 -1,-1 -2,-2 0,0 0,1 0,1l0 0c0,0 0,0 0,0 0,0 0,0 -1,1 0,0 0,0 0,1 0,1 0,1 -1,1 -2,0 -1,-1 -3,1 -1,1 -1,2 -1,3 -1,1 -1,1 -1,2 -1,0 -1,0 -1,0 -1,0 -2,-1 -3,-1 -1,0 -1,2 -3,1 0,-1 0,0 0,-1 0,-1 0,-1 0,-2 0,-1 0,-1 0,-1 0,-1 -2,-1 -4,-1 -3,-1 -3,2 -4,2 -1,0 -1,-1 -1,-1 0,0 0,0 -1,0 0,0 0,0 -1,0 -1,0 0,1 -1,1 0,0 -1,0 -2,0 0,1 0,1 -1,2 -1,1 -3,2 -4,4 -1,1 -1,2 -2,3 -1,1 -3,1 -4,1 -2,1 -3,5 -3,7 0,1 0,2 0,3 0,1 -1,1 -2,2 0,0 0,0 0,0 0,0 0,0 -1,1 -1,0 -3,-1 -4,2 0,1 -1,2 -1,3 -1,0 -3,0 -4,1 -1,1 -1,2 -2,2 -1,0 -5,2 -6,2 -2,0 -1,-2 -3,-2 -1,0 -1,2 -2,1 0,0 -1,-1 -1,-1 -2,-1 -4,-2 -6,-1 0,0 -1,0 -1,1 0,0 -1,0 -1,1 0,3 -1,1 -2,2 -1,2 -2,6 -3,7 -2,2 0,2 0,4 0,1 -2,1 -1,2 -1,0 -1,1 -2,1 -1,0 -1,1 -1,2 0,2 0,1 0,3 0,1 0,2 1,2 1,1 1,1 1,2 0,1 1,1 1,1l1 5c1,0 1,0 1,1 0,0 0,0 0,1 0,0 0,0 1,0 0,0 0,0 1,0 2,2 0,2 0,3 0,1 0,1 0,1 0,1 0,0 0,2 1,0 1,0 1,0 0,0 0,1 1,1 1,0 1,0 2,0 1,0 1,1 1,1 1,0 1,0 2,0 1,0 1,1 1,1 1,1 2,0 2,2 0,1 1,2 2,2 2,1 1,1 2,3l1 0c1,0 1,2 4,3 1,1 1,1 3,1 1,0 3,0 4,0 2,-1 1,0 3,0 1,0 3,0 4,0 1,0 3,1 5,1 2,0 2,0 4,-1 0,0 1,0 2,0 1,0 1,0 2,0 1,0 1,-1 2,-1 1,0 1,0 3,0 3,0 2,-3 5,-3 1,0 2,1 2,0 0,-1 -1,-1 -1,-2 0,0 -1,0 -1,0 0,0 0,0 -1,-1 -1,-1 0,-2 0,-4 0,0 0,0 0,-1 0,-1 1,0 2,-1 0,0 0,-1 1,-2 0,-2 1,-1 2,-1 2,-1 2,0 3,0 0,0 0,0 1,0 1,0 0,0 1,0 0,0 0,0 1,0 1,0 1,0 1,0 1,0 1,-1 1,-1 1,0 1,1 2,1 0,0 1,0 1,0 1,0 0,0 1,0 1,-1 1,-1 3,-1 1,0 3,0 4,0 1,-1 0,-1 1,-2 1,-2 1,0 0,-2 0,0 0,0 0,0 0,-1 0,-1 0,-1 0,-1 1,0 2,-1 1,0 2,-1 3,-1 1,0 1,0 1,1 1,0 2,0 3,0 1,1 -1,2 1,2 1,0 2,-1 3,0 1,2 1,1 2,0 1,-2 2,0 3,-1 1,-1 2,-1 2,-1 0,-1 0,-1 0,-2 1,0 1,0 1,0 1,0 1,-1 2,-1 0,0 0,0 1,1 1,1 2,0 3,-1 0,0 0,-1 1,-1 1,-2 0,-2 1,-3 1,-1 0,-1 1,-2 0,-2 3,-3 3,-6 0,-3 1,-2 2,-2 1,0 1,0 1,0 1,0 1,0 2,-1 1,-1 3,-1 4,-1 1,0 2,-1 3,0 0,0 0,0 0,1 2,0 2,0 2,1 0,1 3,0 4,0 2,0 3,2 3,2 1,0 0,-1 1,-1 0,0 1,0 2,0 1,0 1,-1 1,0 0,0 1,1 1,1 1,0 0,-1 0,-2 0,0 1,0 2,0 2,0 1,-1 3,-1 0,0 0,1 1,1 0,0 1,0 1,0 1,0 1,1 1,2 1,0 2,0 2,1 1,1 0,2 0,2 0,0 0,1 1,1 0,0 0,1 1,1 3,4 2,2 3,3 0,0 0,1 1,1l2 0c0,-1 0,0 0,-1 0,0 1,0 2,0 0,0 0,0 1,-1 1,-1 1,0 2,0 1,0 1,0 2,0 1,0 1,0 2,0 1,0 2,-2 2,-3l0 -2c0,-1 1,-1 1,-2 0,-2 -1,-3 0,-4 2,-2 2,-3 3,-4 1,-1 2,-2 2,-3 0,-1 0,-2 0,-2 0,-1 1,-1 1,-1 0,-1 0,-2 0,-2 0,-1 1,-2 2,-3 0,-1 0,-1 0,-2 0,-1 1,0 1,-1 0,-2 0,-2 2,-2 1,0 1,0 1,-1 1,-2 0,-1 0,-3 0,-1 0,0 0,-1 -2,-1 -1,0 -3,0 0,0 0,0 0,0z"/>
    <path class="fil1" d="M80 101c1,1 1,0 2,1 1,0 0,0 0,1 0,0 2,1 2,1 0,2 -2,1 -4,2 -1,0 -3,2 -6,3 -1,0 -2,0 -3,0 -1,0 -1,1 -2,1 -1,0 -1,0 -1,2 -2,1 -2,0 -4,0 -1,0 -1,0 -2,0 -1,0 -1,-1 -2,0 -2,1 -2,1 -3,1 -1,0 0,0 0,1l-1 2c0,0 -1,1 -1,1 -2,0 -2,-1 -2,-2 -1,1 0,1 -2,2 0,1 0,1 0,1 -1,0 -2,-1 -3,1 -1,1 -1,3 -2,3l-2 0c0,0 -1,0 -1,0 -1,1 -1,1 -1,2 0,1 -1,1 -2,1 -1,0 -2,-2 -5,-1 -1,0 -1,1 -1,2 -2,0 0,-1 -3,-1 -5,1 -3,1 -5,3 -1,1 -1,1 -2,2 0,1 0,1 -1,2 0,1 0,1 0,2 -2,0 -1,2 -1,3 -2,0 -1,-1 -2,-2 0,-1 -1,0 -1,-1 0,-1 1,-1 0,-1 -1,-1 -1,0 -1,0 0,0 0,-1 0,-2 0,-1 -1,-1 -2,-1 -2,0 0,1 0,2 0,1 0,0 -1,1 0,2 1,0 2,3 2,3 0,1 0,4 0,1 1,1 2,2 0,1 0,1 0,2 0,1 2,1 2,1 1,0 0,0 1,1 1,1 0,0 1,1 1,1 0,0 1,1 1,0 1,-1 2,0 0,1 0,1 0,1 0,1 0,1 1,1 1,0 1,0 1,1 0,0 0,0 0,1 0,0 0,0 0,1 -1,1 0,1 0,2 -1,2 -1,-1 -1,3 -1,0 -2,1 -2,2 0,1 0,0 1,1 0,0 0,0 1,1 1,1 1,1 2,1 0,1 0,1 0,1 0,1 0,1 0,2 0,0 1,0 1,0 0,1 0,1 0,2 0,1 0,1 0,2 1,2 2,0 2,2 0,1 0,1 -1,1 0,1 1,2 1,2 1,1 3,0 3,4 1,0 1,0 1,1 2,0 1,0 3,0l0 -1c2,0 4,2 4,3 0,1 0,0 0,1 0,0 0,0 1,1 1,1 0,0 1,1 1,1 1,1 1,2 0,1 1,1 1,2 1,1 0,1 1,2 1,0 2,0 3,0 2,3 3,3 3,4 0,2 0,1 1,3 1,1 1,1 2,1 0,-1 0,-1 0,-1l2 0c0,0 0,1 1,1 1,1 0,0 1,1 0,1 0,2 1,2 1,1 2,0 2,1 0,1 0,1 0,1 1,1 1,0 1,1 0,1 0,1 0,2 0,1 1,1 1,1 1,0 1,1 2,2 1,1 2,1 3,1 0,0 1,2 1,2 -1,0 -1,0 -1,1 0,1 0,0 1,1 0,0 0,1 1,1 1,0 1,0 1,0 1,0 0,0 1,0 2,0 1,0 3,0 1,0 0,0 1,0 1,0 1,0 2,1 1,0 0,0 1,0 0,0 0,0 1,1l0 -1c1,0 1,0 1,0 2,-2 1,0 2,-3 2,0 3,2 3,2 1,0 1,-1 2,-1 0,1 0,1 0,1l1 1c1,1 0,0 1,1 1,0 1,0 1,-1 0,0 0,-3 0,-5 1,0 1,0 2,0l1 -3 2 0c0,0 0,0 0,0 0,0 0,0 0,0 1,0 1,1 3,1 0,-1 0,-1 0,-2 0,-1 1,-1 1,-2 0,0 0,-1 0,-1 0,-1 1,-1 1,-1 0,-1 0,-2 0,-3 0,-1 0,-1 0,-2l0 0c0,0 0,-1 1,-1 2,0 2,1 3,1 1,0 1,-1 2,0l0 2c0,1 0,0 0,1 1,0 1,0 2,0 1,0 0,0 2,0 0,-1 0,-1 0,-2 1,-1 0,0 1,0 1,0 0,0 1,0 1,0 1,1 2,1 1,1 1,0 2,0 1,1 0,1 1,2 1,0 4,1 4,2 1,0 2,1 3,1 1,0 1,-1 1,-1 1,0 1,0 2,0 1,1 0,1 2,1 0,2 0,-1 1,1 1,1 0,1 1,2 0,0 1,0 1,0 1,1 2,1 3,1 1,0 3,0 5,0 1,0 1,0 2,0 2,0 1,0 2,0 1,0 0,0 1,1 3,-5 1,-3 4,-3 0,0 0,-1 2,0 1,0 1,0 2,1 1,0 -1,0 0,1 3,0 3,1 4,1 0,0 3,-2 3,1 0,1 0,2 1,3 2,-1 1,-1 2,-4 0,-2 1,-3 2,-4 1,-1 1,-1 2,-1 1,-1 0,-1 1,-2l2 -1c1,-1 5,-2 6,-1 1,0 1,0 1,0 1,1 1,1 3,0 0,0 0,0 0,0 1,0 2,1 2,2 3,-1 1,1 5,0 2,0 2,-1 3,-3 1,-1 1,-1 3,-1 1,-1 0,-1 1,-3 0,-3 3,-1 5,-3 1,-1 0,-2 2,-2 0,-1 -1,-4 0,-6l0 -1c2,-4 4,-3 5,-4l2 -1c1,-1 1,-2 1,-4 1,0 1,0 2,0 0,-1 1,-2 3,-3 0,-1 0,-2 0,-2 1,0 1,0 2,0 1,0 0,-1 3,0 1,0 0,0 1,0 0,-1 1,-1 1,-2 2,-1 3,0 2,-2l0 -1c0,-1 -1,-2 -1,-2 0,-1 0,0 0,-1 0,0 -1,-1 -1,-1 -2,0 -1,1 -2,0 -1,-1 -1,0 -2,-1 0,0 0,-2 -1,-3 0,-1 -1,-1 -1,-2 0,-1 1,-1 1,-2 0,0 0,-1 -1,-1 0,-1 0,-1 0,-2 -1,0 -1,0 -1,1 -4,-1 0,-1 -6,-1 -1,0 -1,0 -1,1 -2,0 -1,-1 -2,-2 -1,0 -1,0 -1,0 -1,0 0,0 -1,-1 -4,0 -2,0 -3,-2 -1,-1 -1,-1 -2,0 1,1 1,1 1,1 0,1 -1,1 -2,1 -2,1 -2,2 -4,0 -1,-1 -1,0 -2,-1 -1,-1 0,-1 -1,-2 -1,-1 0,-1 0,-2 -1,0 -1,0 -1,0 -1,0 0,0 -1,0 0,0 -2,-2 -2,-2 0,-2 1,-1 3,-1 0,0 3,-1 2,-2 0,0 0,0 0,-1 0,0 -1,-1 -1,-1 0,-1 2,-3 -1,-3 -1,2 0,3 -3,3 -5,-1 -3,0 -5,1 0,-3 -2,-1 -2,-1 0,-1 -1,-2 -1,-3 -2,0 -2,0 -3,-1 -1,-1 0,-1 -1,-2 -1,0 0,1 -2,0 -1,0 -1,-1 -2,-1 -1,0 0,0 -1,0 -1,0 -1,-1 -1,-1 -1,0 0,0 -1,0 -1,-1 -1,-1 -2,0 0,1 0,1 0,2 1,1 0,0 1,2l1 2c0,1 2,1 2,2 0,1 0,1 0,2 0,0 0,0 0,1 0,1 0,0 -1,0 -1,0 0,-1 -2,-1 0,1 0,1 -1,1 -1,0 -1,1 -1,1 -3,-1 -2,1 -3,2 0,1 -1,1 -1,1 0,1 -1,1 -1,1 -1,0 -2,-1 -3,-2 -1,-1 -1,-2 -1,-4 -2,-1 -2,-1 -3,-3 -1,-2 -2,-2 -3,-2 0,-2 0,-2 -1,-2 -2,0 -2,2 -2,-2l-1 0c0,-1 0,-1 0,-2 1,0 1,1 1,-1l1 0c0,-1 1,-1 2,-1l0 -1c1,0 0,0 2,0 0,0 0,0 1,-1 1,-1 0,0 1,-1 0,-1 1,-1 1,-2 0,0 1,0 1,0 0,-2 -1,-1 -2,-2 0,-1 0,-1 -1,-1 -1,-1 -1,0 -2,0 -1,0 -1,0 -2,0 0,1 0,1 -1,2 -1,0 -4,-3 -4,1l-2 0c0,-2 1,0 0,-3 -1,-3 -2,0 -4,0 -1,0 0,-1 -1,-1 0,0 -1,0 -1,-1 0,0 0,-1 -1,-1 -1,0 -1,1 -2,1 -1,0 0,0 -1,-1 0,0 0,0 0,0 0,0 0,0 0,0l-1 0c-1,0 -1,-1 -2,-1 -2,0 -3,-2 -5,-2 0,1 0,1 -1,2 0,-2 0,-3 -1,-3 -1,-1 -2,-2 -2,-4 0,-1 1,0 0,-1 0,-1 0,-1 -1,-1l0 -1c-1,0 -1,0 -2,0 0,-1 0,-1 0,-2 -1,0 -1,0 -1,1 -1,0 -1,-1 -1,-1 -1,0 -1,0 -1,0l-1 -1c0,1 0,1 -1,1l0 1 1 0c0,4 0,2 0,4 0,3 0,2 -2,1 -1,0 -1,0 -2,0 0,0 0,0 0,0 0,0 0,0 0,0 -1,0 -1,1 -1,2 -1,0 -3,1 -3,-1 0,0 0,0 -1,0 -1,0 -1,0 -2,0 0,-1 0,-1 0,-1l0 -1c0,0 1,-1 0,-1 -1,0 -2,1 -2,-1 0,-1 0,-1 1,-2l-4 -3c-1,1 -2,1 -2,0 -4,0 -3,0 -3,1 0,1 0,0 -1,1z"/>
   </g>
  </g>
 </g>
</svg>
