<?xml version="1.0" encoding="UTF-8"?>
<!DOCTYPE svg PUBLIC "-//W3C//DTD SVG 1.1//EN" "http://www.w3.org/Graphics/SVG/1.1/DTD/svg11.dtd">
<!-- Creator: CorelDRAW 2020 (64-Bit) -->
<svg xmlns="http://www.w3.org/2000/svg" xml:space="preserve" width="36px" height="36px" version="1.1" style="shape-rendering:geometricPrecision; text-rendering:geometricPrecision; image-rendering:optimizeQuality; fill-rule:evenodd; clip-rule:evenodd"
viewBox="0 0 360 360"
 xmlns:xlink="http://www.w3.org/1999/xlink"
 xmlns:xodm="http://www.corel.com/coreldraw/odm/2003">
 <defs>
  <style type="text/css">
   <![CDATA[
    .fil0 {fill:none}
    .fil1 {fill:#004A5D}
   ]]>
  </style>
 </defs>
 <g id="Default">
  <metadata id="CorelCorpID_0Corel-Layer"/>
  <g id="_1676656848176">
   <rect class="fil0" width="360" height="360"/>
   <path class="fil1" d="M90 153c-1,1 -1,0 -2,1 1,1 1,2 1,4 -2,0 -2,-1 -4,0 1,2 0,1 2,2 -1,1 0,1 -2,1 1,4 1,1 -2,7 5,1 0,-1 4,-1 3,0 -4,9 1,7 2,-1 2,-2 4,-3 0,5 -3,2 0,7l-3 5c6,1 2,0 4,0l8 0c-2,2 -6,6 2,6 0,3 -1,2 -1,7 -5,0 -8,1 -10,4 4,0 2,0 2,1 1,0 1,0 1,1 0,4 -5,4 -7,7 3,2 1,1 6,1 3,0 4,2 6,2 2,0 2,-1 4,-1 -1,1 -1,2 -2,4 -5,0 -7,-2 -10,3 -2,2 -4,5 -7,5l2 1c1,0 1,1 2,1 5,-8 10,2 11,-6 5,0 7,1 10,-1 5,-2 11,1 16,-1 2,-1 1,-1 4,-2l0 -2c-6,0 -4,0 -6,-1 6,-1 7,-4 7,-9 -4,-3 -4,-3 -7,-1 -1,1 0,0 -1,1 -2,0 -1,-2 -1,-2 0,-1 3,-2 -2,-5 0,-4 0,-6 -3,-8 -3,-3 -4,1 -5,-6 -1,-4 -5,-7 -9,-6 -2,0 -2,1 -5,-1 4,0 4,0 7,-1 -1,-1 0,-1 -2,-1 1,-2 3,-2 4,-4 1,-2 1,-4 2,-6 -4,-2 -8,-1 -14,-1 1,-5 5,-4 7,-6 3,-4 -6,-1 -7,-1 -2,0 -2,-1 -4,-1 0,2 0,2 1,3zm212 140c2,3 1,2 5,2l0 1c-2,0 -3,1 -6,1 1,1 0,0 1,1 1,1 1,-1 0,1l-1 0c-3,0 -4,0 -6,-1l0 0c0,0 0,0 0,0l0 0c-2,0 -2,0 -4,-1 -1,1 -2,1 -4,1 1,-2 1,-1 3,-2 2,-1 1,-1 2,-3 3,0 4,-1 5,0 2,0 2,1 4,0l0 -2c-1,0 -2,0 -4,-1 -4,-2 -2,-6 -6,-7 0,-4 3,0 3,-8 7,0 0,-8 7,-11 1,0 1,0 2,-1 0,0 1,0 1,-1 0,0 0,0 0,0l1 -1c0,-2 -1,-2 -1,-4 4,-2 4,-1 7,-5 1,-1 1,-2 3,-3 3,-1 3,1 5,-1 1,0 2,-1 10,1 4,1 8,11 13,12 3,1 8,-11 11,-11 5,0 7,1 7,1l0 -207c0,0 -10,9 -18,16 -3,2 -9,16 -14,14 -7,-3 -9,-15 -11,-14 -4,1 22,-10 18,-11 -3,-1 -2,-10 -4,-10 -8,-2 -15,-3 -16,-3 -1,0 -6,0 -8,0 0,0 -5,-3 -6,-5 7,0 12,1 12,-4 -2,-1 -5,0 -7,-1 -2,-1 -3,-2 -6,-3 -2,2 -2,3 -3,6 -6,-1 1,-4 -1,-7l-3 0c-3,2 -3,6 -7,7l0 -6c-5,4 -7,8 -9,9 0,-8 3,-5 4,-9 -7,0 -5,2 -9,4 -2,2 -2,0 -4,2 -1,1 -2,4 -2,5 -3,-1 -2,-2 -6,-2 -1,1 -1,3 -2,4 -1,-1 -2,-1 -3,-2l-4 3c-2,2 0,3 -3,4l1 -4c-2,0 -2,1 -3,3 -1,2 -1,3 -2,4 -2,-1 -5,-1 -8,-2 -1,4 -1,2 -4,4 -1,1 -1,1 -2,2 -1,1 -2,1 -3,2 1,1 1,1 1,2 -2,1 -1,1 -3,1l-1 5c-2,-1 -1,-1 -3,-2l-2 2c0,2 0,1 1,2 -4,2 -1,1 -6,1 0,1 -1,2 -2,2 -1,3 1,-1 0,2 -4,2 -5,0 -4,4 -1,0 -3,1 -4,1 0,3 1,2 2,4 -3,0 -3,0 -3,3 -3,0 -3,0 -4,3l0 1c0,0 0,0 0,0 1,2 1,1 1,4 -4,0 -3,0 -5,2l-2 3c-1,3 -2,-2 -8,4 -2,2 -1,2 -2,4 -1,1 -2,2 -3,4 -1,0 -2,-1 -4,-1 -1,2 -2,3 -2,5 -2,0 -5,-1 -7,-1 -3,1 0,3 2,3 -2,2 -2,1 -6,1 0,2 0,1 -1,2 -2,0 -3,0 -4,1 -2,1 -2,1 -2,3 2,0 1,0 2,1 -2,0 -2,1 -4,1 0,3 -1,5 2,6l0 1c-2,1 -2,1 -2,3 2,1 2,0 4,1 -1,1 -2,1 -2,3l4 0c0,2 0,2 -2,2l3 2c-3,0 -1,1 -4,1 -2,0 -1,-1 -3,2l2 2c2,-1 1,0 2,-2 2,1 1,0 2,2 -1,2 0,1 -2,1 1,1 0,1 2,1 -1,2 -2,1 -4,0l0 4c2,1 4,2 6,3 1,1 0,0 1,1l1 0c6,2 8,-1 13,-4l4 -3c2,-2 3,0 5,-2 1,-2 0,-3 2,-4 -1,4 0,1 1,4 2,0 1,0 2,-1 0,3 -1,1 0,4 1,2 1,1 1,4l3 1c0,4 -1,5 2,9 3,4 5,5 5,8 -5,2 0,4 1,6 0,2 0,2 -1,3 2,0 8,1 8,-1 1,-2 -1,-2 2,-5 1,-1 1,0 1,-1 4,0 5,-1 7,1 3,-6 3,-4 4,-10 0,-1 1,-1 1,-2 1,-2 0,-2 0,-5l2 0c0,-4 -2,-3 -2,-7 8,0 5,-2 8,-4l1 2c1,-2 0,-1 2,-2l0 -2c-2,0 -4,1 -6,1 -2,-1 -1,-2 -5,-2l0 -1c5,0 8,3 12,1 2,-1 1,-2 4,-2 -3,-5 -2,-2 -5,-6 -3,-3 -1,-1 -5,-3 -2,-1 -2,-7 -2,-9 3,-1 1,-6 1,-8 1,0 1,0 3,1 0,-2 1,-2 1,-4 5,0 3,0 5,-3 3,-2 2,-1 4,-4l2 1c1,-2 4,-3 6,-4 2,-2 2,-4 4,-6l-3 -3 3 -3c0,-1 0,-1 0,-3 2,-1 3,-1 5,-3 2,-2 1,-2 3,-4 1,1 2,2 4,2 1,-1 4,-1 6,-1 1,2 2,2 6,2 1,2 0,1 0,4l1 4c-4,0 -4,0 -9,5l-7 8c-4,-2 0,-2 -4,4 -2,0 -2,0 -3,-1 -2,3 -3,5 -4,7 2,0 1,0 2,1 0,5 -2,3 1,7 0,4 -2,7 1,10 1,2 2,2 4,2 1,1 0,1 3,0 0,6 3,3 7,3 2,0 3,-1 5,-2l4 -1c3,0 5,-2 7,-1l6 -1c2,-1 4,-1 5,-2 0,4 1,3 5,4 3,0 4,1 5,4 -5,0 -4,-2 -8,0 -1,1 0,0 -2,1 -2,1 0,1 -4,1 1,6 -5,4 -9,3 -5,-1 -9,-1 -13,1 -2,1 -7,1 -7,4 0,3 1,3 2,3 -1,2 -1,1 -1,3l2 1c1,-1 1,-1 2,-1l-1 11c-2,2 -3,2 -6,2 0,-1 -1,-1 -1,-2 -1,-1 0,-1 -1,-2 -2,-3 -6,-3 -9,-1 -2,2 -2,2 -2,5 -2,0 -1,0 -2,1 0,9 1,9 1,15 -5,0 -8,-2 -8,4 -2,1 -5,3 -7,2 -2,-1 -2,-2 -3,-4 -10,0 -14,7 -24,7l0 3c-3,-1 -5,-1 -5,-4 -6,0 -3,-4 -12,0 -2,1 -1,1 -3,1l-2 0c-1,0 -1,0 -2,0 1,-2 1,-1 2,-3 -8,0 -5,0 -8,-4 -2,-3 -3,-2 -1,-6 2,-3 1,-1 2,-3 2,-2 1,-2 1,-3 1,-1 1,0 3,0 0,-1 1,-2 1,-4l-4 0c0,-5 -1,-4 -6,-4l0 4c-1,0 -1,0 -3,-1 0,0 0,0 0,0 0,2 0,1 -1,2 -2,-1 -1,-1 -3,-1 0,3 1,3 1,4 0,2 -1,2 -1,4 5,-1 2,4 4,7 1,1 1,2 2,3 -1,0 -1,1 -2,1l0 1c3,0 1,0 2,1l1 2c-3,0 -3,0 -4,2 -1,1 0,0 -1,2l-2 -2 -5 1c-1,3 0,0 1,4 -2,-1 -3,-2 -6,-2 -2,0 -4,1 -6,2l0 3c2,1 1,1 2,2 0,4 -2,3 -5,2 0,-3 0,-2 1,-3 0,0 1,-1 0,-2 -1,-1 -1,0 -2,0 -1,1 -1,1 -2,2 -1,3 -3,6 -6,8 3,4 -2,2 -5,3l-8 3c0,1 0,3 -1,5 -1,5 -9,1 -8,7 -3,1 -5,0 -9,0 -1,-1 0,-1 -1,-2l-4 0c0,4 1,2 2,5 1,4 -1,3 -4,3 -5,1 -3,-2 -8,-2 -1,2 -2,1 -4,1 -2,0 -3,0 -3,2l2 0c-1,3 1,0 0,2l-2 1c2,1 1,1 3,1 6,1 7,3 10,3 -1,2 -1,2 1,3 4,2 0,0 1,3 1,2 4,3 6,5 0,2 -1,2 -1,4 2,1 2,1 2,3 -3,-2 -3,1 -2,4 0,1 0,1 0,2l-1 4c-1,2 -1,3 -1,5 -2,0 -3,0 -5,-1 -6,-2 -1,0 -10,0 -4,0 -7,-1 -11,-2 -3,-1 -5,2 -9,1 -2,-1 -3,-1 -6,-1l-1 2c-4,0 -5,0 -6,4 3,1 4,2 3,5 -2,5 0,13 -2,18 -2,4 -2,3 -3,8 4,0 1,-2 4,-1 -1,2 0,1 -2,1l0 1c2,0 1,0 3,-1 0,4 0,2 0,6 0,3 -1,2 -1,5 3,-1 3,-1 6,0 6,1 5,-6 12,5 3,4 4,1 7,0 10,-5 4,-1 17,-3 3,0 2,-3 4,-4 1,-1 4,-1 5,-2 0,-4 3,-7 6,-8 -4,-5 -6,-5 3,-14 1,-1 1,0 1,-1 1,-2 -1,1 0,-1 1,-2 5,-2 8,-2 1,-2 0,-2 3,-3 1,0 2,0 2,-1 3,-2 2,-3 1,-7 -1,-3 3,-7 6,-6 2,0 1,1 3,1 1,0 3,0 4,0 4,1 2,6 11,-1 5,-4 6,-3 7,-4 1,-1 2,-2 4,-3 9,-2 10,6 13,11 1,2 10,10 13,11 3,2 6,1 7,5 2,0 1,0 2,-1 1,2 1,0 0,2 3,-1 4,0 3,3 3,1 0,1 5,1 1,3 3,6 3,10 -4,0 -1,-1 -2,2 -1,2 -1,0 -2,3 3,2 3,0 3,0 0,0 2,-2 2,-3 2,-3 -1,0 1,-3 1,-1 2,-1 4,-1 -1,-5 0,-3 -4,-6 1,-3 1,-5 5,-6 1,2 2,1 3,2 2,1 0,1 3,3l1 -2c-4,-5 -11,-7 -16,-10 1,-2 3,-2 1,-3 -2,-1 -4,0 -6,0 -2,-1 -6,-5 -7,-6 -2,-4 0,-5 -5,-7 -4,-2 -4,-3 -6,-7l2 -2c-2,-1 -2,-1 -2,-4l5 -1c2,-1 0,-1 2,-1 0,0 2,0 2,0 1,0 1,0 1,1 1,2 0,1 -1,1 0,3 1,4 2,6 1,-2 1,-2 2,-4 4,2 3,3 6,8 1,1 -1,1 0,2 1,2 3,3 4,5 3,0 5,0 7,2l5 4c7,4 6,5 11,8 -2,4 -1,2 -1,6l-1 5c1,0 2,1 3,2 2,2 0,1 2,3 1,3 4,2 6,4 -1,2 0,1 -2,1 1,1 1,2 2,4 3,0 4,-1 7,-1 3,0 3,1 6,2l0 1c-4,1 -5,-3 -9,-1 -2,1 -1,0 -2,2 4,7 1,4 2,6 2,3 1,-3 4,3 1,-1 2,-1 4,-1 0,-3 -2,-4 -2,-7 2,1 2,2 4,1l0 -1c-3,0 -1,1 -2,-2 1,0 1,0 3,-1l3 3c0,-1 0,-3 0,-3 -1,-2 -6,-4 -8,-5 0,0 0,-1 0,0l1 -4c1,1 1,1 2,1 0,-3 -9,-7 -2,-11 0,3 1,2 2,3l0 2 2 0 -2 -2 3 -1c1,-1 -1,0 1,-1 -1,-2 -1,-1 -2,-3 4,0 2,-1 5,-1 2,0 -1,1 2,0 5,-1 1,0 4,0l5 1c1,0 2,0 2,1 -1,1 -1,1 -2,2 -2,2 0,1 0,2 0,0 0,0 0,0 0,1 -1,1 -1,4 3,0 2,-1 6,-1l-2 2c1,1 2,2 3,3 -2,0 -1,0 -2,1 1,2 2,2 0,2 -2,0 -1,-2 -3,2 3,0 2,1 5,1l0 4c1,1 1,1 2,1 -1,2 0,1 -1,1 0,1 0,0 -1,1l4 0 -1 2c2,-1 1,-1 3,-1 3,2 1,1 3,1 0,0 1,-1 2,3l7 0c0,-2 1,-2 1,-4 1,0 14,5 20,6 14,3 27,-4 29,-3l0 -37c-8,-1 -11,4 -18,4 -4,0 -10,-4 -14,-4 -11,1 -15,1 -15,1l-11 1zm-236 -110l4 1c-1,3 -2,1 -2,4 -4,0 -6,-1 -9,-1 -1,1 -1,2 -1,3l3 0c-1,2 0,2 -2,3l0 2c6,0 6,0 7,2 -3,1 -4,0 -4,4l2 1c-3,1 -3,1 -4,3l-1 1c-2,3 -2,3 2,2l0 3c8,0 12,-4 13,-5 2,-1 5,-1 7,-2 3,-1 1,0 2,-2 4,-7 1,-6 -1,-13 2,0 3,-1 4,-2 0,-5 -1,-5 -2,-9 -2,0 -4,0 -7,0 -5,1 -5,-3 -8,1 -1,2 0,2 -3,2zm133 134c0,2 2,2 7,4 10,5 7,4 11,2 -3,-6 0,-5 1,-9 -15,4 -9,-1 -14,0 -1,0 -4,1 -4,2zm-25 -12l0 2 2 1c0,-2 0,-1 1,-2l4 0c0,-1 1,-10 1,-11 -2,-5 -4,-2 -6,-1 -2,0 -4,0 -3,2 0,1 1,1 2,4 0,2 0,3 0,5zm1 -22c0,3 0,4 1,5 0,0 -1,1 3,2 1,-5 1,-6 1,-12 -2,1 -1,1 -3,2 -1,1 -3,1 -3,2zm6 -122c-3,0 -7,0 -7,3 0,2 0,0 1,2 2,-1 3,-1 3,-4 14,0 8,-1 11,-6 -1,0 -4,1 -4,1 0,0 0,0 0,0l-2 3zm16 14c-2,-1 -2,0 -2,-2 -1,1 -2,2 -3,2 0,1 0,1 1,3 3,1 3,0 5,2l2 -2c-2,-3 0,0 0,-7l-2 0c0,1 -1,2 -1,4zm79 162l3 0c1,-1 4,-1 6,-1 0,-3 0,-2 -1,-1l-2 0c0,0 0,0 0,0l-1 -1c-5,-2 -4,0 -7,-1 -3,0 -5,-4 -6,1 2,1 6,1 7,1l0 1zm-190 -160l1 0 0 -2 -1 0 0 2zm184 123c0,1 1,1 1,0 0,-1 2,0 0,0 -1,0 -1,-1 -1,0zm2 -1c0,0 1,0 1,0 0,0 1,1 0,0l0 0c0,0 -1,-1 -1,0zm-221 -232c1,0 1,2 0,3 -1,1 -8,0 -3,3 4,3 6,-1 5,3 -1,4 7,3 9,3 2,-8 5,0 8,-4 3,-3 2,2 6,-2 4,-4 -3,-1 -2,-7 0,-1 2,-2 2,-3 1,-2 -5,-3 -5,-1 0,4 -1,4 -5,2 -1,0 1,-4 -3,-4 -2,0 -4,5 -3,-2 0,-3 -6,0 -4,-3 1,-2 -8,-4 -5,1 2,3 -3,2 -3,2 -1,2 3,4 2,6 -1,1 0,2 0,2zm238 222c-2,-1 -1,0 -2,-1 2,0 1,0 2,1z"/>
  </g>
 </g>
</svg>
