<?xml version="1.0" encoding="UTF-8"?>
<!DOCTYPE svg PUBLIC "-//W3C//DTD SVG 1.1//EN" "http://www.w3.org/Graphics/SVG/1.1/DTD/svg11.dtd">
<!-- Creator: CorelDRAW 2020 (64-Bit) -->
<svg xmlns="http://www.w3.org/2000/svg" xml:space="preserve" width="26px" height="26px" version="1.1" style="shape-rendering:geometricPrecision; text-rendering:geometricPrecision; image-rendering:optimizeQuality; fill-rule:evenodd; clip-rule:evenodd"
viewBox="0 0 260 260"
 xmlns:xlink="http://www.w3.org/1999/xlink"
 xmlns:xodm="http://www.corel.com/coreldraw/odm/2003">
 <defs>
  <style type="text/css">
   <![CDATA[
    .fil0 {fill:#6FC7B6}
    .fil1 {fill:white}
   ]]>
  </style>
 </defs>
 <g id="Layer_x0020_1">
  <metadata id="CorelCorpID_0Corel-Layer"/>
  <g id="_1679143974656">
   <polygon class="fil0" points="0,0 260,0 260,260 0,260 "/>
   <path class="fil1" d="M124 193c-13,0 -24,11 -24,24 0,13 11,24 24,24 13,0 24,-11 24,-24 0,-13 -11,-24 -24,-24zm-24 -141c1,1 2,1 3,2 2,1 2,2 1,4 -1,2 -3,5 -4,7 -1,2 -2,2 -4,1 -1,-1 -2,-1 -3,-2 -2,-1 -2,-2 -1,-4 1,-2 3,-5 4,-7 1,-2 2,-2 4,-1zm52 45c-2,-1 -3,-3 -1,-5 1,-2 2,-4 4,-6 1,-2 3,-3 5,-1 22,13 45,26 67,39 2,1 3,3 1,5 -1,2 -2,4 -4,6 -1,2 -3,3 -5,1 -22,-13 -45,-26 -67,-39zm-29 -58c-9,16 -19,33 -28,49 -2,3 -1,8 3,10 8,5 16,9 25,14 3,2 8,1 10,-3 9,-16 19,-33 28,-49 2,-3 1,-8 -3,-10 -8,-5 -16,-9 -24,-14 -3,-2 -8,-1 -10,3zm-90 177c19,0 38,0 56,0 1,-2 1,-3 1,-4 0,-2 1,-3 1,-5 4,-13 15,-23 29,-25 14,-2 27,5 34,17 2,3 3,6 4,10 0,2 1,3 1,5 0,1 0,1 0,2 8,0 15,0 23,0 5,0 8,-4 8,-8 0,-9 0,-19 0,-28 0,-8 -5,-14 -12,-16 -16,-4 -32,-8 -49,-12 -3,-1 -5,-2 -8,-4 -8,-8 -16,-16 -25,-25 -3,-3 -7,-5 -12,-5l-52 0c0,33 0,65 0,98zm8 -82c0,6 0,13 0,19 0,3 1,4 4,4 20,0 39,0 59,0 4,0 5,-4 3,-7 -6,-6 -12,-12 -18,-18 -2,-2 -3,-2 -6,-2 -13,0 -25,0 -38,0 -3,0 -4,1 -4,4z"/>
  </g>
 </g>
</svg>
