<svg width="26" height="26" viewBox="0 0 26 26" fill="none" xmlns="http://www.w3.org/2000/svg">
<g clip-path="url(#clip0_353_3094)">
<path fill-rule="evenodd" clip-rule="evenodd" d="M0 0H26V26H0V0Z" fill="#CCCCCC"/>
<path fill-rule="evenodd" clip-rule="evenodd" d="M12.4002 19.3C11.1002 19.3 10.0002 20.4 10.0002 21.7C10.0002 23 11.1002 24.1 12.4002 24.1C13.7002 24.1 14.8002 23 14.8002 21.7C14.8002 20.4 13.7002 19.3 12.4002 19.3ZM10.0002 5.2C10.1002 5.3 10.2002 5.3 10.3002 5.4C10.5002 5.5 10.5002 5.6 10.4002 5.8C10.3002 6 10.1002 6.3 10.0002 6.5C9.9002 6.7 9.8002 6.7 9.6002 6.6C9.5002 6.5 9.4002 6.5 9.3002 6.4C9.1002 6.3 9.1002 6.2 9.2002 6C9.3002 5.8 9.5002 5.5 9.6002 5.3C9.7002 5.1 9.8002 5.1 10.0002 5.2ZM15.2002 9.7C15.0002 9.6 14.9002 9.4 15.1002 9.2C15.2002 9 15.3002 8.8 15.5002 8.6C15.6002 8.4 15.8002 8.3 16.0002 8.5C18.2002 9.8 20.5002 11.1 22.7002 12.4C22.9002 12.5 23.0002 12.7 22.8002 12.9C22.7002 13.1 22.6002 13.3 22.4002 13.5C22.3002 13.7 22.1002 13.8 21.9002 13.6C19.7002 12.3 17.4002 11 15.2002 9.7ZM12.3002 3.9C11.4002 5.5 10.4002 7.2 9.5002 8.8C9.3002 9.1 9.4002 9.6 9.8002 9.8C10.6002 10.3 11.4002 10.7 12.3002 11.2C12.6002 11.4 13.1002 11.3 13.3002 10.9C14.2002 9.3 15.2002 7.6 16.1002 6C16.3002 5.7 16.2002 5.2 15.8002 5C15.0002 4.5 14.2002 4.1 13.4002 3.6C13.1002 3.4 12.6002 3.5 12.4002 3.9H12.3002ZM3.3002 21.6C5.2002 21.6 7.1002 21.6 8.9002 21.6C9.0002 21.4 9.0002 21.3 9.0002 21.2C9.0002 21 9.1002 20.9 9.1002 20.7C9.5002 19.4 10.6002 18.4 12.0002 18.2C13.4002 18 14.7002 18.7 15.4002 19.9C15.6002 20.2 15.7002 20.5 15.8002 20.9C15.8002 21.1 15.9002 21.2 15.9002 21.4C15.9002 21.5 15.9002 21.5 15.9002 21.6C16.7002 21.6 17.4002 21.6 18.2002 21.6C18.7002 21.6 19.0002 21.2 19.0002 20.8C19.0002 19.9 19.0002 18.9 19.0002 18C19.0002 17.2 18.5002 16.6 17.8002 16.4C16.2002 16 14.6002 15.6 12.9002 15.2C12.6002 15.1 12.4002 15 12.1002 14.8C11.3002 14 10.5002 13.2 9.6002 12.3C9.3002 12 8.9002 11.8 8.4002 11.8H3.2002C3.2002 15.1 3.2002 18.3 3.2002 21.6H3.3002ZM4.1002 13.4C4.1002 14 4.1002 14.7 4.1002 15.3C4.1002 15.6 4.2002 15.7 4.5002 15.7C6.5002 15.7 8.4002 15.7 10.4002 15.7C10.8002 15.7 10.9002 15.3 10.7002 15C10.1002 14.4 9.5002 13.8 8.9002 13.2C8.7002 13 8.6002 13 8.3002 13C7.0002 13 5.8002 13 4.5002 13C4.2002 13 4.1002 13.1 4.1002 13.4Z" fill="white"/>
</g>
<defs>
<clipPath id="clip0_353_3094">
<rect width="26" height="26" fill="white"/>
</clipPath>
</defs>
</svg>
