<svg xmlns="http://www.w3.org/2000/svg" xml:space="preserve" fill-rule="evenodd" viewBox="0 0 36 36"><path fill="none" d="M18 0c9.9 0 18 8.1 18 18s-8.1 18-18 18S0 27.9 0 18 8.1 0 18 0"/><path d="M31.87 13.68c.21-.1.21 0 .31.11.11.41.31.92.41 1.33.11.21 0 .21-.1.31-.1 0-.1 0-.2.1-.21.11-.21 0-.31-.1-.11-.41-.31-.92-.41-1.34-.11-.2 0-.2.1-.3.1 0 .1 0 .2-.11M6.9 21.49c.21 0 .51.21.51.52 0 .2-.2.51-.51.51-.21 0-.51-.2-.51-.51 0-.21.2-.52.51-.52m7.81-.1c-.72.21-1.13 1.03-.92 1.75.2.72 1.02 1.13 1.74.92.72-.2 1.13-1.02.93-1.74-.21-.72-1.03-1.13-1.75-.93m-.62-1.75c-1.74.62-2.56 2.37-2.05 4.12.51 1.74 2.36 2.56 4.11 2.05 1.75-.62 2.57-2.36 2.06-4.11-.62-1.75-2.37-2.57-4.12-2.06m-6.57 5.55a.816.816 0 0 1-1.13-.61c-.52-1.44-.93-2.78-1.44-4.22 6.06-2.05 12.02-4 18.09-6.06.51 1.44.92 2.78 1.43 4.21.21.52-.1 1.03-.61 1.13-1.65.52-3.19 1.03-4.83 1.65-.72-2.16-3.09-3.39-5.24-2.67-2.16.72-3.4 3.08-2.68 5.24-1.23.41-2.36.82-3.59 1.23zm15.11-13.36c.51-.2 1.02.11 1.13.62a.83.83 0 0 1-.62 1.13c-6.27 2.06-12.54 4.21-18.81 6.27-.51.21-1.03-.1-1.13-.62-.21-.51.1-1.02.62-1.13 6.27-2.05 12.54-4.21 18.81-6.27m8.22 3.6c-1.96.62-3.81 1.23-5.66 1.85-.3.1-.51 0-.61-.31-.11-.31 0-.51.31-.61 1.85-.62 3.8-1.24 5.65-1.96.31-.1.51 0 .62.31.1.31 0 .51-.31.62z"/></svg>