<svg xmlns="http://www.w3.org/2000/svg" xml:space="preserve" fill-rule="evenodd" viewBox="0 0 36 36"><path fill="none" d="M18 0c9.94 0 18 8.06 18 18s-8.06 18-18 18S0 27.94 0 18 8.06 0 18 0"/><path d="M27.77 21.84c-.8 0-1.45.65-1.45 1.46 0 .8.65 1.45 1.45 1.45a1.455 1.455 0 1 0 0-2.91m-19.38 0c.8 0 1.45.65 1.45 1.46 0 .8-.65 1.45-1.45 1.45a1.455 1.455 0 1 1 0-2.91m0-1.94a3.395 3.395 0 1 1-.01 6.79 3.395 3.395 0 0 1 .01-6.79M21.96 6.33a.49.49 0 0 0-.49.49c0 .26.22.48.49.48h1.55c.86 3.65 1.72 7.29 2.57 10.94-1.84.61-3.2 2.18-3.55 4.09h-8.9a5.33 5.33 0 0 0-3.41-4.04 5.34 5.34 0 0 0-5.21.88.48.48 0 0 0-.07.68c.17.21.48.24.69.07a4.36 4.36 0 0 1 4.82-.47c1.55.84 2.45 2.53 2.28 4.28-.03.29.19.54.48.54h9.74c.29 0 .51-.25.48-.54a4.36 4.36 0 0 1 4.78-4.77c.27.02.5-.17.53-.44.03-.26-.17-.5-.43-.53-.43-.04-.85-.03-1.28.03-.89-3.77-1.78-7.54-2.66-11.31a.49.49 0 0 0-.47-.38zm5.81 13.57a3.395 3.395 0 1 0 .01 6.79 3.395 3.395 0 0 0-.01-6.79"/></svg>