<svg xmlns="http://www.w3.org/2000/svg" xml:space="preserve" width="36" height="36" fill-rule="evenodd" clip-rule="evenodd" image-rendering="optimizeQuality" shape-rendering="geometricPrecision" text-rendering="geometricPrecision" viewBox="0 0 36 36"><path fill="none" d="M18 0C8.1 0 0 8.1 0 18s8.1 18 18 18 18-8.1 18-18S27.9 0 18 0"/><path d="M9.68 19.44c1.74 0 3.28 1.44 3.28 3.29 0 1.74-1.43 3.29-3.28 3.29-1.75 0-3.29-1.44-3.29-3.29 0-1.75 1.43-3.29 3.29-3.29m21.58-3.7c-.41-1.44-.82-2.88-1.24-4.21-.1-.21-.2-.31-.41-.31h-3.39c-.2 0-.51.2-.51.51v4.21c0 .21.2.52.51.52h4.63c.31 0 .51-.31.41-.62zm-4.94 5.55c-.71 0-1.43.62-1.43 1.44 0 .72.61 1.44 1.43 1.44.72 0 1.44-.62 1.44-1.44 0-.72-.61-1.44-1.44-1.44m-16.64 0c.71 0 1.43.62 1.43 1.44 0 .72-.61 1.44-1.43 1.44-.72 0-1.44-.62-1.44-1.44 0-.72.61-1.44 1.44-1.44m21.27-3.5c-.21 0-.41.11-.41.31v1.24c.1.2.2.3.41.3s.41-.1.41-.3V18.1c-.1-.2-.2-.31-.41-.31M9.78 11.11H5.05c-.21 0-.51.21-.51.52v4.21c0 .21.2.52.51.52h4.73c.2 0 .51-.21.51-.52v-4.21c0-.21-.2-.52-.51-.52m7.09 0h-4.73c-.2 0-.51.21-.51.52v4.21c0 .21.2.52.51.52h4.73c.21 0 .51-.21.51-.52v-4.21c0-.21-.2-.52-.51-.52m7.09 0h-4.73c-.2 0-.51.21-.51.52v4.21c0 .21.2.52.51.52h4.73c.21 0 .51-.21.51-.52v-4.21c0-.21-.2-.52-.51-.52m8.74 4.42c-.52-1.64-.93-3.18-1.44-4.83-.21-.61-.72-1.02-1.34-1.02H4.13a.92.92 0 0 0-.93.92v11.1c0 .51.41.93.93.93h1.64c0-2.16 1.75-3.91 3.9-3.91a3.91 3.91 0 0 1 3.91 3.91h8.84c0-2.16 1.75-3.91 3.9-3.91a3.91 3.91 0 0 1 3.91 3.91h1.64c.52 0 .93-.42.93-.93v-5.04c0-.41 0-.72-.1-1.13m-6.38 3.91c-1.74 0-3.28 1.44-3.28 3.29 0 1.74 1.43 3.29 3.28 3.29 1.75 0 3.29-1.44 3.29-3.29 0-1.75-1.43-3.29-3.29-3.29"/></svg>