<svg xmlns="http://www.w3.org/2000/svg" xml:space="preserve" fill-rule="evenodd" viewBox="0 0 36 36"><path fill="none" d="M0 0h36v36H0z"/><path d="M3.2 23h1.2c0-.1 0-.2.1-.2 0-.2 0-.4.1-.6.1-.4.2-.8.4-1.2.8-1.5 2.4-2.3 4.1-2.1s3.1 1.4 3.5 3c.1.2.1.4.1.6l.1.5h8.9c0-.2.1-.4.1-.5 0-.2.1-.4.1-.6.5-1.6 1.8-2.8 3.5-3s3.3.6 4.1 2.1c.2.4.4.8.4 1.2 0 .2.1.4.1.6 0 .1 0 .1.1.2h2.7c.5 0 1-.4 1-1v-3.4c0-.9-.6-1.7-1.5-1.9-2-.5-3.9-1-5.9-1.5-.4-.1-.7-.3-.9-.5l-3-3c-.4-.4-.8-.6-1.4-.6H10.9c-.6 0-1 .2-1.4.6l-3.2 3.2c-.2.2-.3.3-.5.4-.9.4-1.7.9-2.6 1.3-.7.3-1.1 1-1.1 1.8v3.7c0 .5.4 1 1 1zm5.4-1.5c.8 0 1.5.7 1.5 1.5s-.7 1.5-1.5 1.5-1.5-.7-1.5-1.5.7-1.5 1.5-1.5m5.8-8.9h-3.3c-.3 0-.5.1-.7.3l-2.2 2.2c-.3.3-.1.8.4.8h5.8c.4 0 .5-.1.5-.5v-2.3c0-.4-.1-.5-.5-.5M4.2 19.1c0-.4-.1-.5-.5-.5s-.5.1-.5.5.1.5.5.5.5-.1.5-.5m28.7 0c0-.4-.1-.5-.5-.5h-1c-.4 0-.5.1-.5.5s.1.5.5.5h1c.4 0 .5-.1.5-.5m-17-6v2.3c0 .4.1.5.5.5h7.1c.4 0 .7-.5.4-.8l-2.2-2.2c-.2-.2-.4-.3-.7-.3h-4.6c-.4 0-.5.1-.5.5M26 21.5c-.8 0-1.5.7-1.5 1.5s.7 1.5 1.5 1.5 1.5-.7 1.5-1.5-.7-1.5-1.5-1.5m-17.4-2c1.9 0 3.5 1.6 3.5 3.5s-1.6 3.5-3.5 3.5-3.5-1.6-3.5-3.5 1.6-3.5 3.5-3.5m17.4 0c-1.9 0-3.5 1.6-3.5 3.5s1.6 3.5 3.5 3.5 3.5-1.6 3.5-3.5-1.6-3.5-3.5-3.5"/></svg>