<svg xmlns="http://www.w3.org/2000/svg" xml:space="preserve" fill-rule="evenodd" viewBox="0 0 36 36"><path fill="none" d="M0 0h36v36H0z"/><path d="M25.9 19.6c-1.9 0-3.5 1.6-3.5 3.5s1.6 3.5 3.5 3.5 3.5-1.5 3.5-3.5c0-1.9-1.6-3.5-3.5-3.5m0 2c-.8 0-1.5.7-1.5 1.5s.7 1.5 1.5 1.5 1.5-.7 1.5-1.5-.7-1.5-1.5-1.5m-15.8 0c.8 0 1.5.7 1.5 1.5s-.7 1.5-1.5 1.5-1.5-.7-1.5-1.5.7-1.5 1.5-1.5m11.7-10.4v2.3c0 .4.1.5.5.5h7.1c.4 0 .7-.5.4-.8L27.6 11c-.2-.2-.4-.3-.7-.3h-4.6c-.4 0-.5.1-.5.5m11 5.4c0-.4-.1-.5-.5-.5h-1c-.3 0-.5.1-.5.5s.1.5.5.5h1c.4 0 .5-.1.5-.5m-22.7 3c1.9 0 3.5 1.6 3.5 3.5s-1.6 3.5-3.5 3.5-3.5-1.5-3.5-3.5c0-1.9 1.6-3.5 3.5-3.5m-7.9-.3V22c0 .5.4 1 1 1H6c0-2.3 1.9-4.2 4.2-4.2s4.2 1.9 4.2 4.2h5.3v-4.7H3.3c-.5 0-1 .4-1 1zM27.1 9.2h-5.8c-.5 0-1 .4-1 1v12.9h1.5c0-2.3 1.9-4.2 4.2-4.2s4.2 1.9 4.2 4.2H33c.5 0 1-.4 1-1v-6c0-.6-.2-1-.6-1.4l-4.8-4.8c-.4-.4-.8-.6-1.4-.6z"/></svg>