<svg xmlns="http://www.w3.org/2000/svg" xml:space="preserve" width="36" height="36" fill-rule="evenodd" clip-rule="evenodd" image-rendering="optimizeQuality" shape-rendering="geometricPrecision" text-rendering="geometricPrecision" viewBox="0 0 36 36"><path fill="none" d="M-.5-.5h37v37h-37z"/><path d="M23.04 21.49V8.34c0-.31-.21-.52-.52-.52h-1.03c-.3 0-.51.21-.51.52v12.23c.72.1 1.44.41 1.95.92zm-4.22-4.21c-.31 0-.51.21-.51.51v1.03c0 .31.2.52.51.52s.52-.21.52-.52v-1.03c0-.3-.21-.51-.52-.51M8.24 18.31c0 .31.2.51.51.51h8.02c.31 0 .51-.2.51-.51v-2.06c0-.31-.1-.51-.31-.72l-2.87-2.87c-.21-.21-.42-.31-.72-.31H8.75c-.31 0-.51.2-.51.51zm12.12 4.93c-.82 0-1.54.62-1.54 1.54 0 .83.62 1.55 1.54 1.55.83 0 1.55-.62 1.55-1.55 0-.82-.62-1.54-1.55-1.54M8.44 24.27c.52 0 1.03.41 1.03 1.03 0 .51-.41 1.03-1.03 1.03-.51 0-1.03-.42-1.03-1.03 0-.52.41-1.03 1.03-1.03m-3.6.51H3.51c-.52 0-1.03-.41-1.03-1.02v-4.73c0-.52.41-1.03 1.03-1.03h2.57v4.42c-.72.62-1.13 1.44-1.24 2.26zm3.6-2.46a2.981 2.981 0 0 1 0 5.96c-1.64 0-2.98-1.34-2.98-2.98 0-1.65 1.34-2.98 2.98-2.98m6.58-10.9c-.41-.41-.82-.61-1.44-.61H7.82c-.51 0-1.02.41-1.02 1.02v10.18c2.26-1.13 4.93.31 5.34 2.77h4.11c0-2.26 1.85-4.21 4.22-4.21v-2.88c0-.61-.21-1.03-.62-1.44-1.64-1.64-3.19-3.18-4.83-4.83m5.34 9.87c-1.95 0-3.49 1.54-3.49 3.49 0 1.96 1.54 3.5 3.49 3.5 1.96 0 3.5-1.54 3.5-3.5 0-1.95-1.54-3.49-3.5-3.49m3.81-5.14V9.67c0-.3.2-.51.51-.51s.51.21.51.51v5.97h7.92c.31 0 .51.2.51.51s-.2.51-.51.51h-8.43c-.31 0-.51-.2-.51-.51"/></svg>