<svg xmlns="http://www.w3.org/2000/svg" xml:space="preserve" width="36" height="36" fill-rule="evenodd" clip-rule="evenodd" image-rendering="optimizeQuality" shape-rendering="geometricPrecision" text-rendering="geometricPrecision" viewBox="0 0 36 36"><path fill="none" d="M0 0h36v36H0z"/><path d="M25.61 22.83c5.24-8.12-4.32-17.68-12.44-12.44 4.11 4.12 8.32 8.33 12.44 12.44m-15.22-9.76c-5.24 8.12 4.32 17.67 12.44 12.43-4.11-4.11-8.32-8.32-12.44-12.43M18 30.85c7.09 0 12.95-5.76 12.95-12.95 0-7.09-5.76-12.95-12.95-12.95-7.09 0-12.95 5.75-12.95 12.95 0 7.09 5.76 12.95 12.95 12.95"/></svg>