<svg xmlns="http://www.w3.org/2000/svg" xml:space="preserve" fill-rule="evenodd" viewBox="0 0 36 36"><path fill="none" d="M18 0c9.9 0 18 8.1 18 18s-8.1 18-18 18S0 27.9 0 18 8.1 0 18 0"/><path d="M10.7 19.44c1.96 0 3.6 1.64 3.6 3.6 0 1.95-1.64 3.59-3.6 3.59-1.95 0-3.59-1.64-3.59-3.59 0-1.96 1.64-3.6 3.59-3.6m16.55 2.05c-.82 0-1.54.72-1.54 1.55 0 .82.72 1.54 1.54 1.54s1.54-.72 1.54-1.54c0-.83-.72-1.55-1.54-1.55m-16.55 0c.83 0 1.54.72 1.54 1.55 0 .82-.71 1.54-1.54 1.54-.82 0-1.54-.72-1.54-1.54 0-.83.72-1.55 1.54-1.55M8.34 17.9H5.56c-.61 0-1.02-.52-1.02-1.03v-1.03c0-.62.51-1.03 1.02-1.03h8.23c.61 0 1.02.41 1.02 1.03v1.34l2.16 2.16c.11.1.21.1.41.1h1.24c.1 0 .3 0 .41-.1 1.13-1.13 2.36-2.37 3.49-3.5-.72-1.23-1.44-2.47-2.16-3.7-.2.1-.82.52-1.13.62-.51 0-.72-.52-.41-.82.31-.31.72-.41 1.03-.62.41-.21.72-.62 1.13 0 .1.1.21.31.31.41 1.23 2.16 2.47 4.21 3.7 6.37 2.16-1.03 4.62-.51 6.37 1.13.31.21.31.52 0 .72-.2.31-.51.31-.72 0-2.77-2.77-7.5-1.03-7.91 2.88 0 .41-.21.51-.62.51s-.51-.2-.51-.61c.2-1.65 1.03-3.09 2.36-4.11-.1-.31-.31-.52-.41-.83-1.23 1.24-2.36 2.37-3.6 3.6a.91.91 0 0 1-.72.31h-2.46c-.21 0-.41-.1-.62-.21.1.41.21.72.21 1.13 0 .42-.11.52-.52.62-.41 0-.51-.1-.62-.51-.2-2.37-2.26-4.22-4.62-4.22s-4.42 1.85-4.62 4.22c0 .41-.21.51-.62.51s-.52-.2-.52-.62c.21-2.05 1.44-3.8 3.29-4.62zm18.4-3.09v-2.05c0-.41-.11-.52-.52-.52h-1.03c-.82 0-1.54.72-1.54 1.55 0 .82.72 1.54 1.54 1.54h1.03c.41 0 .52-.11.52-.52m.51 4.63c-1.95 0-3.6 1.64-3.6 3.6 0 1.95 1.65 3.59 3.6 3.59s3.6-1.64 3.6-3.59c0-1.96-1.65-3.6-3.6-3.6"/></svg>