<svg xmlns="http://www.w3.org/2000/svg" xml:space="preserve" fill-rule="evenodd" viewBox="0 0 36 36"><path fill="none" d="M0 0h36v36H0z"/><path d="M13.27 14.4c4.73 0 8.53 3.81 8.53 8.53 0 4.73-3.8 8.53-8.53 8.53s-8.53-3.8-8.53-8.53c0-4.72 3.81-8.53 8.53-8.53m0 7.4c.62 0 1.24.52 1.24 1.24 0 .61-.52 1.23-1.24 1.23-.61 0-1.23-.51-1.23-1.23 0-.62.51-1.24 1.23-1.24m14.29 2.67c1.95 0 3.6 1.65 3.6 3.6s-1.65 3.6-3.6 3.6-3.6-1.65-3.6-3.6 1.65-3.6 3.6-3.6m0 2.37c.62 0 1.23.51 1.23 1.23 0 .62-.51 1.24-1.23 1.24-.62 0-1.24-.52-1.24-1.24 0-.62.52-1.23 1.24-1.23M16.87 13.07c-.31 0-.62-.31-.62-.62s.31-.62.62-.62h8.63c.93 0 1.75.72 1.75 1.65l.82 5.75h2.16c.62 0 1.23.52 1.23 1.24v1.23c0 .62-.51 1.23-1.23 1.23-2.47 0-4.42-.1-6.78-.1 0-1.03-.21-2.06-.62-3.08l.62-.11c.92-.2 1.33-.2 2.36-.2h1.13l-.72-5.65c0-.31-.31-.52-.61-.52h-8.64zm-2.57 0c0-.11.1-.21.1-.52.11-1.02.11-2.05-.1-3.08-.21-1.23-.41-2.57-.62-3.8-.1-.62-.72-1.13-1.33-.93-.41.1-.72.1-1.13.21-.62.1-1.13.72-.93 1.33.41 2.47.82 4.42 1.24 6.99.61-.1 1.33-.2 1.95-.2h.92zm-.93 4.62c2.99 0 5.35 2.37 5.35 5.35s-2.36 5.34-5.35 5.34c-2.98 0-5.34-2.36-5.34-5.34a5.31 5.31 0 0 1 5.34-5.35"/></svg>