<svg width="26" height="26" viewBox="0 0 26 26" fill="none" xmlns="http://www.w3.org/2000/svg">
<g clip-path="url(#clip0_353_3099)">
<path fill-rule="evenodd" clip-rule="evenodd" d="M0 0H26V26H0V0Z" fill="#236474"/>
<path fill-rule="evenodd" clip-rule="evenodd" d="M4.9 7.80001H21C22.1 7.80001 22.9 8.70001 22.9 9.70001V19.9C22.9 21 22 21.8 21 21.8H4.9C3.8 21.8 3 20.9 3 19.9V9.70001C3 8.60001 3.9 7.80001 4.9 7.80001ZM13.3 5.60001L17.3 3.30001C17.7 3.10001 18.1 3.20001 18.3 3.60001C18.5 4.00001 18.4 4.40001 18 4.60001L14 6.90001C13.6 7.10001 13.2 7.00001 13 6.60001C12.8 6.20001 12.9 5.80001 13.3 5.60001ZM10.6 6.80001L6.7 2.90001C6.4 2.60001 6.4 2.10001 6.7 1.80001C7 1.50001 7.5 1.50001 7.8 1.80001L11.7 5.70001C12 6.00001 12 6.50001 11.7 6.80001C11.4 7.10001 10.9 7.10001 10.6 6.80001ZM19 11H20V12H19V11ZM21 17H22V18H21V17ZM19 17H20V18H19V17ZM21 15H22V16H21V15ZM19 15H20V16H19V15ZM21 13H22V14H21V13ZM19 13H20V14H19V13ZM21 11H22V12H21V11ZM6.1 9.30001H16.5C17.3 9.30001 18 10 18 10.8V18.9C18 19.7 17.3 20.4 16.5 20.4H6.1C5.3 20.4 4.6 19.7 4.6 18.9V10.8C4.6 10 5.3 9.30001 6.1 9.30001Z" fill="white"/>
</g>
<defs>
<clipPath id="clip0_353_3099">
<rect width="26" height="26" fill="white"/>
</clipPath>
</defs>
</svg>
