<svg width="26" height="26" viewBox="0 0 26 26" fill="none" xmlns="http://www.w3.org/2000/svg">
<path fill-rule="evenodd" clip-rule="evenodd" d="M4.9 7.79995H21C22.1 7.79995 22.9 8.69995 22.9 9.69995V19.9C22.9 21 22 21.8 21 21.8H4.9C3.8 21.8 3 20.9 3 19.9V9.69995C3 8.59995 3.9 7.79995 4.9 7.79995ZM13.3 5.59995L17.3 3.29995C17.7 3.09995 18.1 3.19995 18.3 3.59995C18.5 3.99995 18.4 4.39995 18 4.59995L14 6.89995C13.6 7.09995 13.2 6.99995 13 6.59995C12.8 6.19995 12.9 5.79995 13.3 5.59995ZM10.6 6.79995L6.7 2.89995C6.4 2.59995 6.4 2.09995 6.7 1.79995C7 1.49995 7.5 1.49995 7.8 1.79995L11.7 5.69995C12 5.99995 12 6.49995 11.7 6.79995C11.4 7.09995 10.9 7.09995 10.6 6.79995ZM19 11H20V12H19V11ZM21 17H22V18H21V17ZM19 17H20V18H19V17ZM21 15H22V16H21V15ZM19 15H20V16H19V15ZM21 13H22V14H21V13ZM19 13H20V14H19V13ZM21 11H22V12H21V11ZM6.1 9.29995H16.5C17.3 9.29995 18 9.99995 18 10.8V18.9C18 19.7 17.3 20.4 16.5 20.4H6.1C5.3 20.4 4.6 19.7 4.6 18.9V10.8C4.6 9.99995 5.3 9.29995 6.1 9.29995Z" fill="white"/>
</svg>
