<?xml version="1.0" encoding="UTF-8"?>
<!DOCTYPE svg PUBLIC "-//W3C//DTD SVG 1.1//EN" "http://www.w3.org/Graphics/SVG/1.1/DTD/svg11.dtd">
<!-- Creator: CorelDRAW 2020 (64-Bit) -->
<svg xmlns="http://www.w3.org/2000/svg" xml:space="preserve" width="26px" height="26px" version="1.1" style="shape-rendering:geometricPrecision; text-rendering:geometricPrecision; image-rendering:optimizeQuality; fill-rule:evenodd; clip-rule:evenodd"
viewBox="0 0 260 260"
 xmlns:xlink="http://www.w3.org/1999/xlink"
 xmlns:xodm="http://www.corel.com/coreldraw/odm/2003">
 <defs>
  <style type="text/css">
   <![CDATA[
    .fil0 {fill:#004A5D}
    .fil1 {fill:white}
   ]]>
  </style>
 </defs>
 <g id="Layer_x0020_1">
  <metadata id="CorelCorpID_0Corel-Layer"/>
  <g id="_1676427850832">
   <polygon class="fil0" points="0,0 260,0 260,260 0,260 "/>
   <path class="fil1" d="M49 78l161 0c11,0 19,9 19,19l0 102c0,11 -9,19 -19,19l-161 0c-11,0 -19,-9 -19,-19l0 -102c0,-11 9,-19 19,-19zm84 -22l40 -23c4,-2 8,-1 10,3 2,4 1,8 -3,10l-40 23c-4,2 -8,1 -10,-3 -2,-4 -1,-8 3,-10zm-27 12l-39 -39c-3,-3 -3,-8 0,-11 3,-3 8,-3 11,0l39 39c3,3 3,8 0,11 -3,3 -8,3 -11,0zm84 42l10 0 0 10 -10 0 0 -10zm20 60l10 0 0 10 -10 0 0 -10zm-20 0l10 0 0 10 -10 0 0 -10zm20 -20l10 0 0 10 -10 0 0 -10zm-20 0l10 0 0 10 -10 0 0 -10zm20 -20l10 0 0 10 -10 0 0 -10zm-20 0l10 0 0 10 -10 0 0 -10zm20 -20l10 0 0 10 -10 0 0 -10zm-149 -17l104 0c8,0 15,7 15,15l0 81c0,8 -7,15 -15,15l-104 0c-8,0 -15,-7 -15,-15l0 -81c0,-8 7,-15 15,-15z"/>
  </g>
 </g>
</svg>
