<?xml version="1.0" encoding="UTF-8"?>
<!DOCTYPE svg PUBLIC "-//W3C//DTD SVG 1.1//EN" "http://www.w3.org/Graphics/SVG/1.1/DTD/svg11.dtd">
<!-- Creator: CorelDRAW 2020 (64-Bit) -->
<svg xmlns="http://www.w3.org/2000/svg" xml:space="preserve" width="36px" height="36px" version="1.1" style="shape-rendering:geometricPrecision; text-rendering:geometricPrecision; image-rendering:optimizeQuality; fill-rule:evenodd; clip-rule:evenodd"
viewBox="0 0 360 360"
 xmlns:xlink="http://www.w3.org/1999/xlink"
 xmlns:xodm="http://www.corel.com/coreldraw/odm/2003">
 <defs>
  <style type="text/css">
   <![CDATA[
    .fil0 {fill:none}
    .fil1 {fill:#AB0534}
   ]]>
  </style>
 </defs>
 <g id="Default">
  <metadata id="CorelCorpID_0Corel-Layer"/>
  <g id="_1676851842640">
   <rect class="fil0" width="360" height="360"/>
   <path class="fil1" d="M180 120c-2,-3 -5,-5 -8,-7 -3,-1 -7,-2 -11,-1 -3,1 -6,2 -9,4 -3,2 -5,4 -6,7 -2,4 -3,8 -2,12 1,4 3,8 6,11l31 32 32 -32c3,-3 5,-7 5,-11 1,-4 0,-8 -2,-12 -2,-3 -4,-5 -7,-7 -3,-2 -6,-3 -9,-3 -4,0 -7,0 -11,1 -3,1 -6,4 -9,7zm0 110l98 -99c-17,-1 -36,1 -47,12l-51 52 -51 -52c-10,-11 -29,-12 -47,-12l98 99zm0 68l152 -153c-25,-1 -53,2 -69,17l-84 85 -84 -85c-15,-15 -41,-18 -68,-17l153 153z"/>
  </g>
 </g>
</svg>
