<?xml version="1.0" encoding="UTF-8"?>
<!DOCTYPE svg PUBLIC "-//W3C//DTD SVG 1.1//EN" "http://www.w3.org/Graphics/SVG/1.1/DTD/svg11.dtd">
<!-- Creator: CorelDRAW 2020 (64-Bit) -->
<svg xmlns="http://www.w3.org/2000/svg" xml:space="preserve" width="36px" height="36px" version="1.1" style="shape-rendering:geometricPrecision; text-rendering:geometricPrecision; image-rendering:optimizeQuality; fill-rule:evenodd; clip-rule:evenodd"
viewBox="0 0 360 360"
 xmlns:xlink="http://www.w3.org/1999/xlink"
 xmlns:xodm="http://www.corel.com/coreldraw/odm/2003">
 <defs>
  <style type="text/css">
   <![CDATA[
    .fil0 {fill:none}
    .fil1 {fill:#268FA3}
   ]]>
  </style>
 </defs>
 <g id="Default">
  <metadata id="CorelCorpID_0Corel-Layer"/>
  <g id="_2888270332256">
   <rect class="fil0" width="360" height="360"/>
   <g>
    <g>
     <path class="fil1" d="M104 78c0,-9 7,-15 15,-15 1,0 2,0 3,0 8,0 15,7 15,15 0,27 0,54 0,80 0,32 20,43 42,43 22,0 42,-11 42,-43 0,-27 0,-54 0,-80 0,-9 7,-15 15,-15 1,0 2,0 3,0 9,0 15,7 15,15 0,27 0,54 0,80 0,46 -27,73 -76,73 -48,0 -74,-25 -76,-68l0 -85zm-25 160c31,17 66,26 101,26 35,0 70,-9 101,-26 8,-4 18,-2 23,7 4,8 2,18 -7,23 -36,20 -76,30 -117,30 -41,0 -81,-10 -117,-30 -8,-4 -11,-15 -7,-23 4,-8 15,-11 23,-7z"/>
    </g>
   </g>
  </g>
 </g>
</svg>
