<?xml version="1.0" encoding="UTF-8"?>
<!DOCTYPE svg PUBLIC "-//W3C//DTD SVG 1.1//EN" "http://www.w3.org/Graphics/SVG/1.1/DTD/svg11.dtd">
<!-- Creator: CorelDRAW 2020 (64-Bit) -->
<svg xmlns="http://www.w3.org/2000/svg" xml:space="preserve" width="36px" height="36px" version="1.1" style="shape-rendering:geometricPrecision; text-rendering:geometricPrecision; image-rendering:optimizeQuality; fill-rule:evenodd; clip-rule:evenodd"
viewBox="0 0 360 360"
 xmlns:xlink="http://www.w3.org/1999/xlink"
 xmlns:xodm="http://www.corel.com/coreldraw/odm/2003">
 <defs>
  <style type="text/css">
   <![CDATA[
    .fil0 {fill:none}
    .fil1 {fill:#004A5D;fill-rule:nonzero}
   ]]>
  </style>
 </defs>
 <g id="Default">
  <metadata id="CorelCorpID_0Corel-Layer"/>
  <g id="_1676699196736">
   <rect class="fil0" width="360" height="360"/>
   <path class="fil1" d="M156 317c8,0 15,-7 15,-15 0,-25 0,-49 0,-74 0,-5 4,-10 10,-10 5,0 10,4 10,10 0,25 0,49 0,74 0,8 7,15 15,15 8,0 15,-7 15,-15 0,-49 0,-97 0,-146 12,12 23,23 35,35 6,6 15,6 21,0 6,-6 6,-15 0,-21 -15,-15 -30,-30 -45,-45 -3,-3 -6,-4 -10,-4 -26,0 -52,0 -78,0 -4,0 -7,1 -10,4 -15,15 -30,30 -45,45 -6,6 -6,15 0,21 6,6 15,6 21,0 12,-12 23,-23 35,-35 0,49 0,97 0,146 0,8 7,15 15,15zm25 -265c-16,0 -29,13 -29,29 0,16 13,29 29,29 16,0 29,-13 29,-29 0,-16 -13,-29 -29,-29zm98 265c-3,0 -7,0 -10,0 0,-29 0,-59 0,-88 0,-8 -7,-15 -15,-15 -8,0 -15,7 -15,15 0,3 -1,5 -5,5 -3,0 -5,-1 -5,-5 0,-14 11,-25 25,-25 14,0 25,11 25,25 0,29 0,59 0,88z"/>
  </g>
 </g>
</svg>
