<?xml version="1.0" encoding="UTF-8"?>
<!DOCTYPE svg PUBLIC "-//W3C//DTD SVG 1.1//EN" "http://www.w3.org/Graphics/SVG/1.1/DTD/svg11.dtd">
<!-- Creator: CorelDRAW 2020 (64-Bit) -->
<svg xmlns="http://www.w3.org/2000/svg" xml:space="preserve" width="36px" height="36px" version="1.1" style="shape-rendering:geometricPrecision; text-rendering:geometricPrecision; image-rendering:optimizeQuality; fill-rule:evenodd; clip-rule:evenodd"
viewBox="0 0 360 360"
 xmlns:xlink="http://www.w3.org/1999/xlink"
 xmlns:xodm="http://www.corel.com/coreldraw/odm/2003">
 <defs>
  <style type="text/css">
   <![CDATA[
    .fil0 {fill:none}
    .fil1 {fill:#AB0534}
   ]]>
  </style>
 </defs>
 <g id="Default">
  <metadata id="CorelCorpID_0Corel-Layer"/>
  <g id="_1676840430448">
   <rect class="fil0" width="360" height="360"/>
   <path class="fil1" d="M180 43c-16,0 -29,13 -29,29 0,16 13,29 29,29 16,0 29,-13 29,-29 0,-16 -13,-29 -29,-29zm-10 143l10 11 10 -11 -9 -47 12 -16 -26 0 12 16 -9 47zm20 117c0,8 7,15 15,15 8,0 15,-7 15,-15 0,-52 0,-104 0,-156 12,12 23,23 35,35 6,6 15,6 21,0 6,-6 6,-15 0,-21 -15,-15 -30,-30 -45,-45 -3,-3 -6,-4 -10,-4 -26,0 -52,0 -78,0 -4,0 -7,1 -10,4 -15,15 -30,30 -45,45 -6,6 -6,15 0,21 6,6 15,6 21,0 12,-12 23,-23 35,-35 0,52 0,104 0,156 0,8 7,15 15,15 8,0 15,-7 15,-15 0,-28 0,-56 0,-83 0,-5 4,-10 10,-10 5,0 10,4 10,10 0,28 0,56 0,83z"/>
  </g>
 </g>
</svg>
