<?xml version="1.0" encoding="UTF-8"?>
<!DOCTYPE svg PUBLIC "-//W3C//DTD SVG 1.1//EN" "http://www.w3.org/Graphics/SVG/1.1/DTD/svg11.dtd">
<!-- Creator: CorelDRAW 2020 (64-Bit) -->
<svg xmlns="http://www.w3.org/2000/svg" xml:space="preserve" width="36px" height="36px" version="1.1" style="shape-rendering:geometricPrecision; text-rendering:geometricPrecision; image-rendering:optimizeQuality; fill-rule:evenodd; clip-rule:evenodd"
viewBox="0 0 360 360"
 xmlns:xlink="http://www.w3.org/1999/xlink"
 xmlns:xodm="http://www.corel.com/coreldraw/odm/2003">
 <defs>
  <style type="text/css">
   <![CDATA[
    .fil0 {fill:none}
    .fil1 {fill:#268FA3}
   ]]>
  </style>
 </defs>
 <g id="Default">
  <metadata id="CorelCorpID_0Corel-Layer"/>
  <g id="_2888403129168">
   <g>
    <polygon class="fil0" points="0,0 360,0 360,360 0,360 "/>
    <path class="fil1" d="M116 112c31,0 57,25 57,57 0,31 -25,57 -57,57 -31,0 -57,-25 -57,-57 0,-31 25,-57 57,-57zm144 -63c26,0 47,21 47,47 0,26 -21,47 -47,47 -26,0 -47,-21 -47,-47 0,-26 21,-47 47,-47zm-98 175c20,18 34,42 41,69 1,5 0,9 -3,13 -3,4 -7,6 -12,6l-146 0c-5,0 -9,-2 -12,-6 -3,-4 -4,-9 -3,-13 7,-27 22,-50 41,-69 13,10 29,17 46,17 18,0 34,-6 46,-17zm138 -81c14,14 25,32 31,51 1,5 1,10 -2,14 -3,4 -7,6 -12,6l-113 0c-5,0 -9,-2 -12,-6 -3,-4 -4,-9 -2,-14 6,-20 17,-37 31,-51 11,9 25,15 40,15 15,0 29,-5 40,-15z"/>
   </g>
  </g>
 </g>
</svg>
