<?xml version="1.0" encoding="UTF-8"?>
<!DOCTYPE svg PUBLIC "-//W3C//DTD SVG 1.1//EN" "http://www.w3.org/Graphics/SVG/1.1/DTD/svg11.dtd">
<!-- Creator: CorelDRAW 2020 (64-Bit) -->
<svg xmlns="http://www.w3.org/2000/svg" xml:space="preserve" width="36px" height="36px" version="1.1" style="shape-rendering:geometricPrecision; text-rendering:geometricPrecision; image-rendering:optimizeQuality; fill-rule:evenodd; clip-rule:evenodd"
viewBox="0 0 360 360"
 xmlns:xlink="http://www.w3.org/1999/xlink"
 xmlns:xodm="http://www.corel.com/coreldraw/odm/2003">
 <defs>
  <style type="text/css">
   <![CDATA[
    .fil0 {fill:none}
    .fil1 {fill:#268FA3}
   ]]>
  </style>
 </defs>
 <g id="Default">
  <metadata id="CorelCorpID_0Corel-Layer"/>
  <g id="_2888266801840">
   <polygon class="fil0" points="0,0 360,0 360,360 0,360 "/>
   <path class="fil1" d="M240 192c32,28 54,65 64,107 1,5 0,9 -3,13 -3,4 -7,6 -12,6l-101 0 0 -105c20,-2 38,-9 52,-21zm-60 -151c43,0 79,35 79,78 0,43 -35,78 -79,78 -43,0 -79,-35 -79,-78 0,-43 35,-78 79,-78zm31 246c4,0 8,3 8,8 0,4 -3,8 -8,8 -4,0 -8,-3 -8,-8 0,-4 3,-8 8,-8zm0 -62c4,0 8,3 8,8 0,4 -3,8 -8,8 -4,0 -8,-3 -8,-8 0,-4 3,-8 8,-8zm0 31c4,0 8,3 8,8 0,4 -3,8 -8,8 -4,0 -8,-3 -8,-8 0,-4 3,-8 8,-8zm-38 62l-101 0c-5,0 -9,-2 -12,-6 -3,-4 -4,-8 -3,-13 10,-42 32,-79 64,-107 14,12 32,19 52,21l0 105z"/>
  </g>
 </g>
</svg>
