<svg width="26" height="26" viewBox="0 0 26 26" fill="none" xmlns="http://www.w3.org/2000/svg">
<g clip-path="url(#clip0_353_3109)">
<path fill-rule="evenodd" clip-rule="evenodd" d="M0 0H26V26H0V0Z" fill="#009584"/>
<path fill-rule="evenodd" clip-rule="evenodd" d="M21.8998 6.39999C20.8998 8.69999 18.0998 8.39999 17.5998 6.19999C17.3998 5.49999 17.7998 4.29999 17.8998 3.49999C17.8998 2.59999 17.7998 1.69999 17.4998 0.799988C17.1998 1.49999 16.7998 2.19999 16.2998 2.79999C15.5998 3.59999 14.8998 4.29999 14.0998 4.99999C13.5998 5.39999 13.0998 5.89999 12.5998 6.39999C11.9998 6.99999 11.5998 7.69999 11.2998 8.49999C10.4998 10.8 11.7998 12.7 13.8998 13.3C12.1998 11.6 12.9998 7.79999 15.7998 6.79999C15.6998 9.29999 18.3998 11 20.5998 9.79999C20.9998 12.3 19.7998 14.1 17.6998 14.5C22.5998 15.3 23.8998 10.4 21.9998 6.49999L21.8998 6.39999ZM12.4998 19.3C11.1998 19.3 10.0998 20.4 10.0998 21.7C10.0998 23 11.1998 24.1 12.4998 24.1C13.7998 24.1 14.8998 23 14.8998 21.7C14.8998 20.4 13.7998 19.3 12.4998 19.3ZM3.3998 21.7C5.2998 21.7 7.19981 21.7 8.9998 21.7C9.09981 21.4 9.09981 21.1 9.19981 20.8C9.59981 19.5 10.6998 18.5 12.0998 18.3C13.4998 18.1 14.7998 18.8 15.4998 20C15.6998 20.3 15.7998 20.6 15.8998 21C15.8998 21.2 15.9998 21.3 15.9998 21.5C15.9998 21.6 15.9998 21.6 15.9998 21.7C16.7998 21.7 17.4998 21.7 18.2998 21.7C18.7998 21.7 19.0998 21.3 19.0998 20.9C19.0998 20 19.0998 19 19.0998 18.1C19.0998 17.3 18.5998 16.7 17.8998 16.5C16.2998 16.1 14.6998 15.7 12.9998 15.3C12.6998 15.2 12.4998 15.1 12.1998 14.9C11.3998 14.1 10.5998 13.3 9.69981 12.4C9.39981 12.1 8.9998 11.9 8.4998 11.9H3.2998C3.2998 15.2 3.2998 18.4 3.2998 21.7H3.3998ZM4.1998 13.5C4.1998 14.1 4.1998 14.8 4.1998 15.4C4.1998 15.7 4.2998 15.8 4.5998 15.8C6.5998 15.8 8.4998 15.8 10.4998 15.8C10.8998 15.8 10.9998 15.4 10.7998 15.1C10.1998 14.5 9.59981 13.9 8.9998 13.3C8.79981 13.1 8.69981 13.1 8.39981 13.1C7.09981 13.1 5.8998 13.1 4.5998 13.1C4.2998 13.1 4.1998 13.2 4.1998 13.5Z" fill="white"/>
</g>
<defs>
<clipPath id="clip0_353_3109">
<rect width="26" height="26" fill="white"/>
</clipPath>
</defs>
</svg>
