<?xml version="1.0" encoding="UTF-8"?>
<!DOCTYPE svg PUBLIC "-//W3C//DTD SVG 1.1//EN" "http://www.w3.org/Graphics/SVG/1.1/DTD/svg11.dtd">
<!-- Creator: CorelDRAW 2020 (64-Bit) -->
<svg xmlns="http://www.w3.org/2000/svg" xml:space="preserve" width="26px" height="26px" version="1.1" style="shape-rendering:geometricPrecision; text-rendering:geometricPrecision; image-rendering:optimizeQuality; fill-rule:evenodd; clip-rule:evenodd"
viewBox="0 0 260 260"
 xmlns:xlink="http://www.w3.org/1999/xlink"
 xmlns:xodm="http://www.corel.com/coreldraw/odm/2003">
 <defs>
  <style type="text/css">
   <![CDATA[
    .fil0 {fill:#004A5D}
    .fil1 {fill:white}
   ]]>
  </style>
 </defs>
 <g id="Layer_x0020_1">
  <metadata id="CorelCorpID_0Corel-Layer"/>
  <g id="_1676415989728">
   <polygon class="fil0" points="0,0 260,0 260,260 0,260 "/>
   <path class="fil1" d="M25 25l210 0 0 210 -210 0 0 -210zm30 110l60 0 9 6 -15 20 16 -3 0 48 -70 0 0 -70zm0 -80l70 0 0 31 0 25 -21 -10 15 20 -17 4 -47 0 0 -70zm80 0l70 0 0 70 -35 0 24 -24 -25 0 3 -22 -23 32 -14 -15 0 -41zm51 80l18 0 0 70 -70 0 0 -26 9 -1 0 -9 20 22 0 -20 30 15 -25 -30 25 5 -25 -20 17 -6zm-146 -95l180 0 0 180 -180 0 0 -180z"/>
  </g>
 </g>
</svg>
