<?xml version="1.0" encoding="UTF-8"?>
<!DOCTYPE svg PUBLIC "-//W3C//DTD SVG 1.1//EN" "http://www.w3.org/Graphics/SVG/1.1/DTD/svg11.dtd">
<!-- Creator: CorelDRAW 2020 (64-Bit) -->
<svg xmlns="http://www.w3.org/2000/svg" xml:space="preserve" width="36px" height="36px" version="1.1" style="shape-rendering:geometricPrecision; text-rendering:geometricPrecision; image-rendering:optimizeQuality; fill-rule:evenodd; clip-rule:evenodd"
viewBox="0 0 360 360"
 xmlns:xlink="http://www.w3.org/1999/xlink"
 xmlns:xodm="http://www.corel.com/coreldraw/odm/2003">
 <defs>
  <style type="text/css">
   <![CDATA[
    .fil0 {fill:none}
    .fil1 {fill:#6FC7B6}
   ]]>
  </style>
 </defs>
 <g id="Default">
  <metadata id="CorelCorpID_0Corel-Layer"/>
  <g id="_1678986469408">
   <polygon class="fil0" points="0,0 360,0 360,360 0,360 "/>
   <path class="fil1" d="M180 53c70,0 127,57 127,127 0,70 -57,127 -127,127 -70,0 -127,-57 -127,-127 0,-70 57,-127 127,-127zm32 94c-9,-9 -20,-14 -33,-14 -16,0 -30,8 -39,21l39 0c5,0 9,4 9,9 0,5 -4,9 -9,9l-46 0c0,2 -1,5 -1,7 0,2 0,5 1,7l46 0c5,0 9,4 9,9 0,5 -4,9 -9,9l-39 0c8,12 22,21 39,21 12,0 24,-5 33,-14 4,-4 9,-4 13,0 4,4 4,9 0,13 -12,12 -29,19 -46,19 -27,0 -50,-16 -59,-39l-13 0c-5,0 -9,-4 -9,-9 0,-5 4,-9 9,-9l8 0c0,-2 0,-5 0,-7 0,-2 0,-5 0,-7l-8 0c-5,0 -9,-4 -9,-9 0,-5 4,-9 9,-9l13 0c10,-23 33,-39 59,-39 17,0 34,7 46,19 4,4 4,9 0,13 -4,4 -9,4 -13,0zm-32 -73c59,0 106,47 106,106 0,59 -47,106 -106,106 -59,0 -106,-47 -106,-106 0,-59 47,-106 106,-106z"/>
  </g>
 </g>
</svg>
