<svg id="zp-invalidita-a" xmlns="http://www.w3.org/2000/svg" width="36" height="36" viewBox="0 0 36 36">
  <rect id="Rectangle_136" data-name="Rectangle 136" width="36" height="36" fill="none"/>
  <path id="Path_275" data-name="Path 275" d="M12.269,31.41a6.79,6.79,0,1,1,6.79-6.79A6.79,6.79,0,0,1,12.269,31.41Z" fill="none" stroke="#fff" stroke-miterlimit="10" stroke-width="1.4"/>
  <path id="Path_276" data-name="Path 276" d="M12.268,29.222a4.6,4.6,0,1,1,4.6-4.6A4.6,4.6,0,0,1,12.268,29.222Z" fill="none" stroke="#fff" stroke-miterlimit="10" stroke-width="1.4"/>
  <path id="Path_277" data-name="Path 277" d="M28.2,31.41a2.264,2.264,0,1,1,2.319-2.263A2.292,2.292,0,0,1,28.2,31.41Z" fill="none" stroke="#fff" stroke-miterlimit="10" stroke-width="1.4"/>
  <path id="Path_278" data-name="Path 278" d="M12.312,12.271h8.494a5,5,0,0,1,5,5v7.08m2.186,2.339h0a2.276,2.276,0,0,0-2.275-2.275H19.621" fill="none" stroke="#fff" stroke-miterlimit="10" stroke-width="1.4"/>
  <path id="Path_279" data-name="Path 279" d="M6.552,4.589h5.76V17.446" fill="none" stroke="#fff" stroke-miterlimit="10" stroke-width="1.4"/>
  <line id="Line_9" data-name="Line 9" x1="9.004" transform="translate(16.871 19.613)" fill="none" stroke="#fff" stroke-miterlimit="10" stroke-width="1.4"/>
</svg>
