<svg id="zp-kriticke-choroby" xmlns="http://www.w3.org/2000/svg" width="36" height="36" viewBox="0 0 36 36">
  <rect id="Rectangle_137" data-name="Rectangle 137" width="36" height="36" fill="none"/>
  <path id="Path_280" data-name="Path 280" d="M29.25,28.5,27.874,26a1,1,0,0,1-.124-.483V8.5a1,1,0,0,0-1-1H25a1,1,0,0,0-1,1V25.521a1,1,0,0,1-.124.483L22.5,28.5" fill="none" stroke="#2a77d1" stroke-miterlimit="10" stroke-width="1.4"/>
  <path id="Path_281" data-name="Path 281" d="M23.625,24.75h0A2.625,2.625,0,0,1,21,22.125v-9.75A2.625,2.625,0,0,1,23.625,9.75h0" fill="none" stroke="#2a77d1" stroke-miterlimit="10" stroke-width="1.4"/>
  <path id="Path_282" data-name="Path 282" d="M28.125,9.75h0a2.625,2.625,0,0,1,2.625,2.625v9.75a2.625,2.625,0,0,1-2.625,2.625h0" fill="none" stroke="#2a77d1" stroke-miterlimit="10" stroke-width="1.4"/>
  <path id="Path_283" data-name="Path 283" d="M19.875,18H11.25A2.25,2.25,0,0,0,9,20.25H9" fill="none" stroke="#2a77d1" stroke-miterlimit="10" stroke-width="1.4"/>
  <path id="Path_284" data-name="Path 284" d="M19.5,21.75H3" fill="none" stroke="#2a77d1" stroke-miterlimit="10" stroke-width="1.4"/>
  <path id="Path_285" data-name="Path 285" d="M11.25,21.75V28.5H33" fill="none" stroke="#2a77d1" stroke-miterlimit="10" stroke-width="1.4"/>
  <circle id="Ellipse_33" data-name="Ellipse 33" cx="2.625" cy="2.625" r="2.625" transform="translate(3 14.25)" fill="none" stroke="#2a77d1" stroke-miterlimit="10" stroke-width="1.4"/>
</svg>
