<?xml version="1.0" encoding="UTF-8"?>
<!DOCTYPE svg PUBLIC "-//W3C//DTD SVG 1.1//EN" "http://www.w3.org/Graphics/SVG/1.1/DTD/svg11.dtd">
<!-- Creator: CorelDRAW 2020 (64-Bit) -->
<svg xmlns="http://www.w3.org/2000/svg" xml:space="preserve" width="36px" height="36px" version="1.1" style="shape-rendering:geometricPrecision; text-rendering:geometricPrecision; image-rendering:optimizeQuality; fill-rule:evenodd; clip-rule:evenodd"
viewBox="0 0 360 360"
 xmlns:xlink="http://www.w3.org/1999/xlink"
 xmlns:xodm="http://www.corel.com/coreldraw/odm/2003">
 <defs>
  <style type="text/css">
   <![CDATA[
    .fil0 {fill:none}
    .fil1 {fill:#004A5D}
   ]]>
  </style>
 </defs>
 <g id="Default">
  <metadata id="CorelCorpID_0Corel-Layer"/>
  <g id="_1676738371904">
   <polygon class="fil0" points="0,0 360,0 360,360 0,360 "/>
   <path class="fil1" d="M73 196c-30,-30 -30,-78 0,-108 30,-30 77,-30 107,-1 30,-29 78,-29 107,1 30,30 30,78 0,108 -29,32 -61,63 -95,89l-12 9 -12 -9c-35,-26 -66,-57 -95,-89zm72 -28l10 -35c1,-2 3,-4 5,-4 2,0 4,1 5,4l20 59 11 -36c1,-2 2,-3 4,-4 2,0 4,0 5,2l7 9 44 0c3,0 5,2 5,5 0,3 -2,5 -5,5l-46 0c-2,0 -3,-1 -4,-2l-2 -3 -13 42c-1,2 -3,4 -5,4 -2,0 -4,-1 -5,-4l-19 -58 -8 27c-1,2 -2,3 -4,4 -2,0 -4,0 -5,-2l-9 -9 -30 0c-3,0 -5,-2 -5,-5 0,-3 2,-5 5,-5l33 0c2,0 3,1 4,2l4 4zm28 -59c-2,-2 -4,-4 -7,-7 -22,-22 -58,-22 -80,0 -22,22 -22,58 0,80 28,32 59,61 93,87 34,-26 64,-55 93,-87 22,-22 23,-58 0,-80 -22,-22 -58,-22 -80,0 -2,2 -4,4 -7,7 -4,4 -10,4 -13,0z"/>
  </g>
 </g>
</svg>
