<svg id="zp-pnka" xmlns="http://www.w3.org/2000/svg" width="36" height="36" viewBox="0 0 36 36">
  <rect id="Rectangle_138" data-name="Rectangle 138" width="36" height="36" fill="none"/>
  <path id="Path_286" data-name="Path 286" d="M18.042,13.248a5,5,0,1,0-5-5A5,5,0,0,0,18.042,13.248Z" fill="none" stroke="#2a77d1" stroke-linejoin="round" stroke-miterlimit="10" stroke-width="1.4"/>
  <path id="Path_287" data-name="Path 287" d="M8.348,24.3c0-4.422,3.317-8.079,7.4-8.079h4.507c4.082,0,7.4,2.729,7.4,7.236v2.891a4.754,4.754,0,0,1-4.762,4.762H10.549l.676-2.421a5,5,0,0,1,4.759-3.655L27.652,24.9" fill="none" stroke="#2a77d1" stroke-linejoin="round" stroke-miterlimit="10" stroke-width="1.4"/>
  <path id="Path_288" data-name="Path 288" d="M15.059,30.976,16.3,24.994" fill="none" stroke="#2a77d1" stroke-linejoin="round" stroke-miterlimit="10" stroke-width="1.4"/>
  <path id="Path_289" data-name="Path 289" d="M19.084,30.976l1.237-5.981" fill="none" stroke="#2a77d1" stroke-linejoin="round" stroke-miterlimit="10" stroke-width="1.4"/>
  <path id="Path_290" data-name="Path 290" d="M25.77,30.09l-5.053-5.057,3.64-7.8" fill="none" stroke="#2a77d1" stroke-linejoin="round" stroke-miterlimit="10" stroke-width="1.4"/>
</svg>
