<?xml version="1.0" encoding="UTF-8"?>
<!DOCTYPE svg PUBLIC "-//W3C//DTD SVG 1.1//EN" "http://www.w3.org/Graphics/SVG/1.1/DTD/svg11.dtd">
<!-- Creator: CorelDRAW 2020 (64-Bit) -->
<svg xmlns="http://www.w3.org/2000/svg" xml:space="preserve" width="36px" height="36px" version="1.1" style="shape-rendering:geometricPrecision; text-rendering:geometricPrecision; image-rendering:optimizeQuality; fill-rule:evenodd; clip-rule:evenodd"
viewBox="0 0 360 360"
 xmlns:xlink="http://www.w3.org/1999/xlink"
 xmlns:xodm="http://www.corel.com/coreldraw/odm/2003">
 <defs>
  <style type="text/css">
   <![CDATA[
    .fil0 {fill:none}
    .fil1 {fill:white}
   ]]>
  </style>
 </defs>
 <g id="Default">
  <metadata id="CorelCorpID_0Corel-Layer"/>
  <g id="_2888517711056">
   <polygon class="fil0" points="0,0 360,0 360,360 0,360 "/>
   <path class="fil1" d="M92 54l13 0 0 50c0,57 46,59 46,75 0,14 -46,19 -46,75l0 50 -13 0c-7,0 -13,6 -13,13 0,7 6,13 13,13l176 0c7,0 13,-6 13,-13 0,-7 -6,-13 -13,-13l-13 0 0 -50c0,-56 -46,-62 -46,-75 0,-14 46,-19 46,-75l0 -50 13 0c7,0 13,-6 13,-13 0,-7 -6,-13 -13,-13l-176 0c-7,0 -13,6 -13,13 0,7 6,13 13,13zm88 238l-50 0c0,-36 30,-88 50,-88 21,0 50,52 50,88l-50 0zm-63 -238l126 0 0 50c0,18 -5,32 -19,44 -5,4 -10,8 -15,11 -7,5 -12,11 -12,20 0,9 6,14 12,19 5,4 10,7 15,11 14,12 19,26 19,45l0 50 -126 0 0 -50c0,-18 5,-32 19,-44 5,-4 10,-8 15,-11 6,-5 12,-11 12,-20 0,-16 -17,-23 -28,-32 -14,-12 -19,-25 -19,-43l0 -50z"/>
  </g>
 </g>
</svg>
