<svg id="zp-trvale-nasledky-a" xmlns="http://www.w3.org/2000/svg" width="36" height="36" viewBox="0 0 36 36">
  <rect id="Rectangle_140" data-name="Rectangle 140" width="36" height="36" fill="none"/>
  <path id="Path_295" data-name="Path 295" d="M20.374,33.145a1.856,1.856,0,0,1,1.646-1h0a1.856,1.856,0,0,1,1.646,1l.237.455H20.137Z" fill="none" stroke="#fff" stroke-miterlimit="10" stroke-width="1.4"/>
  <path id="Path_296" data-name="Path 296" d="M21.13,23.717l.75,8.552" fill="none" stroke="#fff" stroke-miterlimit="10" stroke-width="1.4"/>
  <path id="Path_297" data-name="Path 297" d="M18.224,7.3a2.577,2.577,0,1,0-2.577-2.577A2.577,2.577,0,0,0,18.224,7.3Z" fill="none" stroke="#fff" stroke-miterlimit="10" stroke-width="1.4"/>
  <path id="Path_298" data-name="Path 298" d="M25.3,21.677,23.353,10.988a2,2,0,0,0-1.967-1.641H15.063A2,2,0,0,0,13.1,10.988L11.144,21.677M15.1,13.223,12.848,33.6H16.6l.75-11.356H22.1L21.35,13.2" fill="none" stroke="#fff" stroke-miterlimit="10" stroke-width="1.4"/>
</svg>
